<svg viewBox="0 0 24 24" xmlns="http://www.w3.org/2000/svg"><g stroke-linecap="round" stroke="#000" fill="none" stroke-linejoin="round"><path class="cls-1" d="M9.6 5a2.12 2.12 0 102.12-2.12A2.12 2.12 0 009.6 5zM19.14 7.5l-7.27 1.34-7-1.36a1 1 0 100 2l4.33 1.27v4.51l-2.28 4.4A1 1 0 007.4 21a1.12 1.12 0 001.44-.46l2.61-5.15 2.61 5.15a1.1 1.1 0 001.44.46 1 1 0 00.53-.58.94.94 0 00-.06-.77c-.27-.52-1.21-2.44-2.19-4.4v-4.61l5.36-1.13a1 1 0 100-2z"/><circle class="cls-1" cx="12" cy="12" r="11.5"/></g></svg>