<svg viewBox="0 0 24 24" xmlns="http://www.w3.org/2000/svg"><g stroke-linecap="round" stroke="#000" fill="none" stroke-linejoin="round"><rect width="19" height="10" x="2.504" y="7" rx=".5"/><rect width="23" height="14" x=".504" y="5" rx="1"/><path d="M12 9a3 3 0 1 0 0 6 3 3 0 1 0 0-6Z"/><path d="M5 9.25h-.01c.13-.01.25.11.25.24s-.12.25-.25.25c-.14 0-.25-.12-.26-.25l0 0c-.01-.14.11-.26.24-.26 0-.001 0-.001 0-.001"/><path d="M19 14.25h-.01c.13-.01.25.11.25.24s-.12.25-.25.25c-.14 0-.25-.12-.26-.25l0 0c-.01-.14.11-.26.24-.26"/></g></svg>