<?xml version="1.0" encoding="utf-8"?>
<!-- Generator: Adobe Illustrator 24.0.0, SVG Export Plug-In . SVG Version: 6.00 Build 0)  -->
<svg version="1.1" id="Layer_1" xmlns="http://www.w3.org/2000/svg" xmlns:xlink="http://www.w3.org/1999/xlink" x="0px" y="0px"
	 viewBox="0 0 15 15" style="enable-background:new 0 0 15 15;" xml:space="preserve">
<style type="text/css">
	.st0{fill:none;stroke:currentColor;stroke-linecap:round;stroke-linejoin:round;}
</style>
<g>
	<path class="st0" d="M1.1,2.6h10.3c0.4,0,0.6,0.2,0.6,0.6v6.1c0,0.4-0.2,0.6-0.6,0.6H1.1c-0.4,0-0.6-0.2-0.6-0.6V3.2
		C0.5,2.9,0.8,2.6,1.1,2.6z"/>
	<path class="st0" d="M13.3,3.8v6.7c0,0.4-0.2,0.6-0.6,0.6h-11"/>
	<path class="st0" d="M14.5,5.1v6.7c0,0.4-0.2,0.6-0.6,0.6h-11"/>
	<circle class="st0" cx="6.3" cy="6.3" r="1.8"/>
	<line class="st0" x1="1.7" y1="8.7" x2="2.9" y2="8.7"/>
	<line class="st0" x1="9.6" y1="3.8" x2="10.8" y2="3.8"/>
</g>
</svg>
