<?xml version="1.0" encoding="UTF-8"?><svg version="1.1" viewBox="0 0 24 24" xmlns="http://www.w3.org/2000/svg" xmlns:xlink="http://www.w3.org/1999/xlink"><g stroke-linecap="round" stroke-width="1" stroke="#000" fill="none" stroke-linejoin="round"><rect width="19" height="10" x="2.504" y="7" rx=".27614" ry="0"></rect><rect width="23" height="14" x=".504" y="5" rx=".55228" ry="0"></rect><circle cx="12.004" cy="12" r="3"></circle><path d="M5 9.25h-1.09278e-08c.138071-6.03528e-09.25.111929.25.25 6.03528e-09.138071-.111929.25-.25.25 -.138071 6.03528e-09-.25-.111929-.25-.25l2.66454e-15 2.68211e-08c-2.08482e-08-.138071.111929-.25.25-.25 3.38653e-09-1.77636e-15 7.54132e-09-1.77636e-15 1.09278e-08-1.77636e-15"></path><path d="M19 14.25h-1.09278e-08c.138071-6.03528e-09.25.111929.25.25 6.03528e-09.138071-.111929.25-.25.25 -.138071 6.03528e-09-.25-.111929-.25-.25l3.55271e-15 3.7749e-08c-2.08482e-08-.138071.111929-.25.25-.25"></path></g></svg>