<?xml version="1.0" encoding="utf-8"?>
<!-- Generator: Adobe Illustrator 24.0.0, SVG Export Plug-In . SVG Version: 6.00 Build 0)  -->
<svg version="1.1" id="Layer_1" xmlns="http://www.w3.org/2000/svg" xmlns:xlink="http://www.w3.org/1999/xlink" x="0px" y="0px"
	 viewBox="0 0 15 15" style="enable-background:new 0 0 15 15;" xml:space="preserve">
<style type="text/css">
	.st0{fill:none;stroke:#000000;stroke-width:1;stroke-linecap:round;stroke-linejoin:round;}
</style>
<g>
	<path class="st0" d="M2,4.5h11c0.2,0,0.3,0.1,0.3,0.3v5.5c0,0.2-0.1,0.3-0.3,0.3H2c-0.2,0-0.3-0.1-0.3-0.3V4.8
		C1.7,4.6,1.8,4.5,2,4.5z"/>
	<path class="st0" d="M1.1,3.2h12.8c0.4,0,0.6,0.2,0.6,0.6v7.3c0,0.4-0.2,0.6-0.6,0.6H1.1c-0.4,0-0.6-0.2-0.6-0.6V3.8
		C0.5,3.5,0.8,3.2,1.1,3.2z"/>
	<circle class="st0" cx="7.5" cy="7.5" r="1.8"/>
	<path class="st0" d="M3.2,5.9c0.1,0,0.2,0.1,0.2,0.2S3.3,6.2,3.2,6.2S3.1,6,3.1,6S3.2,5.9,3.2,5.9"/>
	<path class="st0" d="M11.8,8.9c0.1,0,0.2,0.1,0.2,0.2c0,0.1-0.1,0.2-0.2,0.2s-0.2-0.1-0.2-0.2C11.6,9,11.7,8.9,11.8,8.9"/>
</g>
</svg>
