<?xml version="1.0" encoding="UTF-8"?><svg version="1.1" viewBox="0 0 24 24" xmlns="http://www.w3.org/2000/svg" xmlns:xlink="http://www.w3.org/1999/xlink"><path d="M23.5 9.5v0c0-.552285-.447715-1-1-1h-7v-7 0c0-.552285-.447715-1-1-1h-5 -4.37114e-08c-.552285 2.41411e-08-1 .447715-1 1 0 0 0 0 0 0v7h-7l-4.37114e-08 1.77636e-15c-.552285 2.41411e-08-1 .447715-1 1 0 0 0 0 0 0v5l1.06581e-14-1.50996e-07c-8.33927e-08.552285.447715 1 1 1h7v7l1.06581e-14 1.50996e-07c8.33927e-08.552285.447715 1 1 1h5 -4.37114e-08c.552285 2.41411e-08 1-.447715 1-1v-7h7l-4.37114e-08-1.77636e-15c.552285 2.41411e-08 1-.447715 1-1Z" stroke-linecap="round" stroke-width="1" stroke="#000" fill="none" stroke-linejoin="round"></path></svg>