<svg viewBox="0 0 24 24" xmlns="http://www.w3.org/2000/svg"><g stroke-linecap="round" stroke="#000" fill="none" stroke-linejoin="round"><path d="M.59 19.53l1.68 2.53"/><path d="M9.88 8.27l6.38 9.61"/><path d="M15.925 17.372l-13.99 4.18 -1.01-1.52 9.28-11.27 5.71 8.601Z"/><path d="M9.216 19.378l-.01-.01c.77.88.67 2.22-.21 2.99 -.89.77-2.23.67-3-.21 -.06-.07-.12-.14-.17-.22l-.88-1.33"/><path d="M3.58 12.46l-.68-.72 0 0c-.19-.2-.19-.5-.01-.69l1.8-1.9 -.6-2.55 0 0c-.07-.26.09-.52.34-.6l2.5-.75 .74-2.51 -.001 0c.07-.26.32-.41.58-.35l2.545.6 1.9-1.8 0-.01c.19-.19.49-.19.68 0l1.9 1.8 2.54-.6 -.01 0c.25-.07.51.09.59.34l.74 2.5 2.5.74 0 0c.25.07.4.34.34.6l-.6 2.53 1.8 1.9 -.01-.01c.18.19.18.49 0 .68l-1.8 1.9 .6 2.545 0 0c.06.25-.09.51-.35.59l-2.51.74 -.75 2.5 0-.01c-.08.25-.34.4-.6.34l-2.545-.6 -1.9 1.8 -.01 0c-.2.18-.5.18-.69-.01l-.37-.35"/></g></svg>