<?xml version="1.0" encoding="UTF-8"?><svg version="1.1" viewBox="0 0 24 24" xmlns="http://www.w3.org/2000/svg" xmlns:xlink="http://www.w3.org/1999/xlink"><g stroke-linecap="round" stroke-width="1" stroke="#000" fill="none" stroke-linejoin="round"><path d="M20.5 17.5v-6.5l5.86999e-08 5.3608e-05c-.00387572-3.54974-2.21325-6.72329-5.54095-7.95903l1.4603e-07 8.96784e-07c-.26629-1.63532-1.80784-2.74513-3.44316-2.47884 -1.27332.207343-2.2715 1.20552-2.47884 2.47884l3.98752e-07-1.4804e-07c-3.32745 1.23534-5.53579 4.40961-5.53705 7.95898v6.5 0c0 1.65685-1.34315 3-3 3h23l-1.31285e-07-3.55271e-15c-1.65685-7.24234e-08-3-1.34315-3-3Z"></path><path d="M15 20.5v0c0 1.65685-1.34315 3-3 3 -1.65685 0-3-1.34315-3-3"></path></g></svg>