<?xml version="1.0" encoding="utf-8"?>
<!-- Generator: Adobe Illustrator 24.0.0, SVG Export Plug-In . SVG Version: 6.00 Build 0)  -->
<svg version="1.1" id="Laag_1" xmlns="http://www.w3.org/2000/svg" xmlns:xlink="http://www.w3.org/1999/xlink" x="0px" y="0px"
	 viewBox="0 0 15 15" style="enable-background:new 0 0 15 15;" xml:space="preserve">
<style type="text/css">
	.st0{fill:none;stroke:#000000;stroke-width:1;stroke-linecap:round;stroke-linejoin:round;}
</style>
<g>
	<path class="st0" d="M14.5,7.4c0,3.9-3.1,7.1-7,7.1c-3.8,0.1-6.9-3-7-6.8c0,0,0-0.1,0-0.1c0-3.9,3.1-7.1,7-7.1
		C11.3,0.4,14.4,3.5,14.5,7.4C14.5,7.3,14.5,7.4,14.5,7.4z"/>
	<line class="st0" x1="7.5" y1="8.8" x2="7.5" y2="4.3"/>
	<path class="st0" d="M7.5,10c-0.1,0-0.2,0.1-0.2,0.2c0,0,0,0,0,0c0,0.1,0.1,0.2,0.2,0.2l0,0c0.1,0,0.2-0.1,0.2-0.2c0,0,0,0,0,0
		C7.7,10.1,7.6,10.1,7.5,10L7.5,10"/>
</g>
</svg>
