<?xml version="1.0" encoding="UTF-8"?><svg version="1.1" viewBox="0 0 24 24" xmlns="http://www.w3.org/2000/svg" xmlns:xlink="http://www.w3.org/1999/xlink"><g stroke-linecap="round" stroke-width="1" stroke="#000" fill="none" stroke-linejoin="round"><path d="M23 11.811l2.98653e-07.000118565c.015364 6.1124-4.88834 11.1003-11.0001 11.1889l-6.19708e-07 9.31736e-09c-5.98443.0899763-10.9087-4.68843-10.9987-10.6729 -.000677252-.0450449-.00107362-.0900936-.00118907-.135143l-2.86977e-07-.000102922c-.0170183-6.11356 4.88716-11.1032 11.0001-11.1919l4.28063e-07-6.39628e-09c5.98499-.08943 10.9093 4.68987 10.9987 10.6749 .000678036.0453768.00107106.0907573.00117904.136139Z"></path><line x1="12" x2="12" y1="14.01" y2="7.01"></line><path d="M11.991 16.005l6.10909e-10-9.46088e-12c-.135294.00209572-.243272.113472-.241176.248765 3.22027e-05.00207891 9.08678e-05.00415734.000175981.00623476l9.17016e-10 2.58679e-08c.00483419.136367.116548.244548.253.245v0l6.37041e-09-1.25194e-10c.135836-.00266951.243788-.11495.241119-.250786 -2.76108e-05-.00140496-6.72595e-05-.00280965-.000118942-.00421392l-2.82331e-09-9.10165e-08c-.00413111-.133176-.110842-.240324-.244-.245h-.005"></path></g></svg>