<svg viewBox="0 0 24 24" xmlns="http://www.w3.org/2000/svg"><g stroke-linecap="round" stroke="#000" fill="none" stroke-linejoin="round"><path d="M22.553 22.581l0 0c.18.25.12.61-.13.79 -.13.08-.28.12-.43.09h-20l0-.01c-.32.05-.61-.17-.66-.48 -.03-.15.01-.31.09-.43l10.1-20.22c.24-.5.64-.5.89-.001Z"/><path d="M12 16.98l0-7"/><path d="M11.991 18.979l0-.001c-.14 0-.25.11-.25.25 0 0 0 0 0 0l-.01-.01c0 .13.11.24.25.24h0l0-.001c.13-.01.24-.12.24-.26 -.01-.01-.01-.01-.01-.01l-.01-.01c-.01-.14-.12-.25-.25-.25h-.01"/></g></svg>