<?xml version="1.0" encoding="UTF-8"?><svg version="1.1" viewBox="0 0 24 24" xmlns="http://www.w3.org/2000/svg" xmlns:xlink="http://www.w3.org/1999/xlink"><g transform="matrix(1 0 0 1 -5.038 12.008)"><rect width="15.556" height="15.556" x="4.199" y="4.307" fill="none" rx=".55228" ry="0" stroke="#000" stroke-linecap="round" stroke-linejoin="round" stroke-width="1" transform="matrix(.707107 -.707107 .707107 .707107 0 0)"></rect></g><g stroke-linecap="round" stroke-width="1" stroke="#000" fill="none" stroke-linejoin="round"><line x1="12" x2="12" y1="14.11" y2="7.11"></line><line x1="12" x2="12" y1="16.11" y2="16.11"></line><path d="M11.987 16.11l1.33989e-08-4.26283e-10c-.135241.0043027-.241388.117425-.237085.252667 2.47473e-05.000777851 5.32008e-05.00155558 8.53594e-05.00233316l-4.93042e-09-1.39512e-07c.0047786.135217.114714.242954.25.245h.009l5.56104e-09-1.99726e-10c.135775-.00487638.241888-.118896.237012-.254671 -3.93938e-06-.000109685-7.95217e-06-.000219368-1.20384e-05-.000329048l8.98807e-09 2.87473e-07c-.00418714-.133923-.112061-.241358-.246-.245"></path><path d="M12 16.11h-.009"></path></g></svg>