<svg viewBox="0 0 24 24" xmlns="http://www.w3.org/2000/svg"><g transform="translate(-5.038 12.008)"><rect width="15.556" height="15.556" x="4.199" y="4.307" rx="1" fill="none" stroke="#000" stroke-linecap="round" stroke-linejoin="round" transform="matrix(.7071-.70711.7071.7071 0 0)"/></g><g stroke-linecap="round" stroke="#000" fill="none" stroke-linejoin="round"><path d="M12 14.11l0-7"/><path d="M12 16.11l0 0"/><path d="M11.987 16.11l0-.01c-.14 0-.25.11-.24.25 0 0 0 0 0 0l-.01-.01c0 .13.11.24.24.24h0l0-.001c.13-.01.24-.12.23-.26 -.01-.01-.01-.01-.01-.01l0 0c-.01-.14-.12-.25-.25-.25"/><path d="M12 16.11h-.01"/></g></svg>