<svg viewBox="0 0 24 24" xmlns="http://www.w3.org/2000/svg"><g stroke-linecap="round" stroke="#000" fill="none" stroke-linejoin="round"><path d="M23 11.811l0 0c.01 6.11-4.89 11.1-11.01 11.18l-.01 0c-5.99.08-10.91-4.69-11-10.68 -.01-.05-.01-.1-.01-.14l-.01-.01C.94 6.04 5.84 1.05 11.96.96l0-.01c5.98-.09 10.9 4.68 10.99 10.67 0 .04 0 .09 0 .13Z"/><path d="M12 14.01l0-7"/><path d="M11.991 16.005l0-.001c-.14 0-.25.11-.25.24 0 0 0 0 0 0l0 0c0 .13.11.24.25.24v0l0-.001c.13-.01.24-.12.24-.26 -.01-.01-.01-.01-.01-.01l-.01-.01c-.01-.14-.12-.25-.25-.25h-.01"/></g></svg>