<?xml version="1.0" encoding="UTF-8"?><svg version="1.1" viewBox="0 0 24 24" xmlns="http://www.w3.org/2000/svg" xmlns:xlink="http://www.w3.org/1999/xlink"><g stroke-linecap="round" stroke-width="1" stroke="#000" fill="none" stroke-linejoin="round"><path d="M22.553 22.581l8.79394e-09 1.22206e-08c.183551.255073.125571.610648-.129502.794198 -.12237.0880577-.274685.123952-.423498.0998015h-20l4.85013e-08-7.87122e-09c-.310192.0503406-.602461-.16031-.652802-.470502 -.0241507-.148813.0117438-.301128.0998015-.423498l10.106-20.211c.246-.492.648-.492.894-1.33227e-15Z"></path><line x1="12" x2="12" y1="16.98" y2="9.98"></line><path d="M11.991 18.979l1.44757e-09-2.84501e-11c-.135836.0026695-.243788.11495-.241119.250786 2.76108e-05.00140496 6.72594e-05.00280965.000118941.00421392l-5.2586e-09-1.34009e-07c.00535734.136526.117369.244569.254.245h.005l6.37041e-09-1.25194e-10c.135836-.00266951.243788-.11495.241119-.250786 -2.76108e-05-.00140496-6.72595e-05-.00280965-.000118942-.00421392l-1.56647e-09-4.0096e-08c-.00527412-.134998-.114923-.242454-.25-.245h-.005"></path></g></svg>