<?xml version="1.0" encoding="UTF-8"?><svg version="1.1" viewBox="0 0 24 24" xmlns="http://www.w3.org/2000/svg" xmlns:xlink="http://www.w3.org/1999/xlink"><g stroke-linecap="round" stroke-width="1" stroke="#000" fill="none" stroke-linejoin="round"><path d="M23.5 4v0c0-.276142-.223858-.5-.5-.5h-2.5v-2.5 0c0-.276142-.223858-.5-.5-.5h-2 -2.18557e-08c-.276142 1.20706e-08-.5.223858-.5.5 0 0 0 0 0 0v2.5h-2.5 -2.18557e-08c-.276142 1.20706e-08-.5.223858-.5.5 0 0 0 0 0 0v2l5.32907e-15 7.54979e-08c4.16963e-08.276142.223858.5.5.5h2.5v2.5l7.10543e-15 7.54979e-08c4.16963e-08.276142.223858.5.5.5h2 -2.18557e-08c.276142 1.20706e-08.5-.223858.5-.5v-2.5h2.5l-2.18557e-08-8.88178e-16c.276142 1.20706e-08.5-.223858.5-.5Z"></path><path d="M7.492 10.014l5.75263e-09-5.7503e-09c.781207-.78089.781463-2.04722.000572922-2.82843 -.000190939-.000191016-.000381917-.000381994-.000572933-.000572933l-2.123-2.121 8.37143e-08 8.3689e-08c-.781-.780764-2.047-.780764-2.828-1.67378e-07l-1.164 1.164 1.06964e-07-1.07374e-07c-1.00476 1.0086-1.16226 2.58449-.377 3.772l-3.40888e-07-5.13109e-07c3.42497 5.15532 7.84468 9.57503 13 13l3.33539e-08 2.20558e-08c1.1884.785847 2.76559.627459 3.774-.379l1.165-1.164 -6.1216e-08 6.12345e-08c.780764-.781.780764-2.047 1.22432e-07-2.828l-2.123-2.119 8.37143e-08 8.36891e-08c-.781-.780764-2.047-.780764-2.828-1.67378e-07l-.707.707 -2.75451e-06-2.26508e-06c-2.3723-1.95078-4.54922-4.1277-6.5-6.5Z"></path></g></svg>