<?xml version="1.0" encoding="utf-8"?>
<!-- Generator: Adobe Illustrator 24.0.0, SVG Export Plug-In . SVG Version: 6.00 Build 0)  -->
<svg version="1.1" id="Laag_1" xmlns="http://www.w3.org/2000/svg" xmlns:xlink="http://www.w3.org/1999/xlink" x="0px" y="0px"
	 viewBox="0 0 15 15" style="enable-background:new 0 0 15 15;" xml:space="preserve">
<style type="text/css">
	.st0{fill:none;stroke:#000000;stroke-width:1;stroke-linecap:round;stroke-linejoin:round;}
</style>
<g>
	<path class="st0" d="M14.5,2.6c0-0.2-0.1-0.3-0.3-0.3h-1.5V0.8c0-0.2-0.1-0.3-0.3-0.3h-1.2c-0.2,0-0.3,0.1-0.3,0.3v1.5H9.3
		C9.2,2.3,9,2.5,9,2.6v1.2C9,4,9.2,4.2,9.3,4.2h1.5v1.5C10.8,5.8,11,6,11.2,6h1.2c0.2,0,0.3-0.1,0.3-0.3V4.2h1.5
		c0.2,0,0.3-0.1,0.3-0.3V2.6z"/>
	<path class="st0" d="M4.8,6.3c0.5-0.5,0.5-1.2,0-1.7c0,0,0,0,0,0L3.5,3.3C3,2.8,2.2,2.8,1.7,3.3L1,4C0.4,4.6,0.3,5.6,0.8,6.3
		c2.1,3.1,4.8,5.8,7.9,7.9c0.7,0.5,1.7,0.4,2.3-0.2l0.7-0.7c0.5-0.5,0.5-1.2,0-1.7l-1.3-1.3c-0.5-0.5-1.2-0.5-1.7,0l-0.4,0.4
		c-1.4-1.2-2.8-2.5-4-4L4.8,6.3z"/>
</g>
</svg>
