<?xml version="1.0" encoding="utf-8"?>
<!-- Generator: Adobe Illustrator 24.0.0, SVG Export Plug-In . SVG Version: 6.00 Build 0)  -->
<svg version="1.1" id="Laag_1" xmlns="http://www.w3.org/2000/svg" xmlns:xlink="http://www.w3.org/1999/xlink" x="0px" y="0px"
	 viewBox="0 0 15 15" style="enable-background:new 0 0 15 15;" xml:space="preserve">
<style type="text/css">
	.st0{fill:none;stroke:#000000;stroke-width:1;stroke-linecap:round;stroke-linejoin:round;}
</style>
<g>
	<line class="st0" x1="0.5" y1="12.1" x2="14.5" y2="12.1"/>
	<path class="st0" d="M2.9,12.1V9.3C2.9,9.2,2.8,9,2.6,9H1.4C1.2,9,1.1,9.2,1.1,9.3v2.7"/>
	<path class="st0" d="M6.6,12.1V6.3C6.6,6.1,6.5,6,6.3,6H5.1C4.9,6,4.8,6.1,4.8,6.3v5.8"/>
	<path class="st0" d="M10.2,12.1V7.5c0-0.2-0.1-0.3-0.3-0.3H8.7c-0.2,0-0.3,0.1-0.3,0.3v4.6"/>
	<path class="st0" d="M13.9,12.1V3.2c0-0.2-0.1-0.3-0.3-0.3h-1.2c-0.2,0-0.3,0.1-0.3,0.3v8.8"/>
</g>
</svg>
