<svg viewBox="0 0 24 24" xmlns="http://www.w3.org/2000/svg"><g stroke-linecap="round" stroke="#000" fill="none" stroke-linejoin="round"><path d="M.44 19.5l23 0"/><path d="M4.44 19.5V15v0c0-.28-.23-.5-.5-.5h-2 -.01c-.28 0-.5.22-.5.5 0 0 0 0 0 0v4.5"/><path d="M10.44 19.5V10v0c0-.28-.23-.5-.5-.5h-2 -.01c-.28 0-.5.22-.5.5 0 0 0 0 0 0v9.5"/><path d="M16.441 19.5V12v0c0-.28-.23-.5-.5-.5h-2 -.01c-.28 0-.5.22-.5.5 0 0 0 0 0 0v7.5"/><path d="M22.441 19.5V5v0c0-.28-.23-.5-.5-.5h-2l-.01 0c-.28 0-.5.22-.5.5 0 0 0 0 0 0v14.5"/></g></svg>