<?xml version="1.0" encoding="UTF-8"?><svg version="1.1" viewBox="0 0 24 24" xmlns="http://www.w3.org/2000/svg" xmlns:xlink="http://www.w3.org/1999/xlink"><g stroke-linecap="round" stroke-width="1" stroke="#000" fill="none" stroke-linejoin="round"><path d="M.5 11.719l7.249-4 -3.07956e-07 1.48718e-07c1.13656-.548868 2.43317-.668551 3.651-.337l3.706 1.236 -9.80963e-08-2.71549e-08c1.14931.31815 2.38053-.0193125 3.207-.879l5.187-5.989v21 0c0 .276142-.223858.5-.5.5h-22 -2.18557e-08c-.276142-1.20706e-08-.5-.223858-.5-.5 0 0 0 0 0 0v-22"></path><path d="M.5 17.75l6.257-3.519 -1.01654e-06 5.18722e-07c1.16232-.593111 2.43919-.927764 3.743-.981h2.5l2.3338e-07-7.56344e-09c1.31603-.0426504 2.61622-.30039 3.849-.763l6.651-2.745"></path><path d="M.5 22.781l6.355-4.394 4.40865e-07-2.73467e-07c1.09261-.677741 2.3597-1.02085 3.645-.987l2.512.194 -5.67338e-08-2.93732e-09c1.32108.0683976 2.64549-.03242 3.941-.3l6.547-1.544"></path></g></svg>