<?xml version="1.0" encoding="UTF-8"?><svg version="1.1" viewBox="0 0 24 24" xmlns="http://www.w3.org/2000/svg" xmlns:xlink="http://www.w3.org/1999/xlink"><g stroke-linecap="round" stroke-width="1" stroke="#000" fill="none" stroke-linejoin="round"><line x1=".44" x2="23.44" y1="19.5" y2="19.5"></line><path d="M4.441 19.5v-4.5 0c0-.276142-.223858-.5-.5-.5h-2 -2.18557e-08c-.276142 1.20706e-08-.5.223858-.5.5 0 0 0 1.77636e-15 0 1.77636e-15v4.5"></path><path d="M10.441 19.5v-9.5 0c0-.276142-.223858-.5-.5-.5h-2 -2.18557e-08c-.276142 1.20706e-08-.5.223858-.5.5 0 0 0 1.77636e-15 0 1.77636e-15v9.5"></path><path d="M16.441 19.5v-7.5 0c0-.276142-.223858-.5-.5-.5h-2 -2.18557e-08c-.276142 1.20706e-08-.5.223858-.5.5 0 0 0 1.77636e-15 0 1.77636e-15v7.5"></path><path d="M22.441 19.5v-14.5 0c0-.276142-.223858-.5-.5-.5h-2l-2.18557e-08 8.88178e-16c-.276142 1.20706e-08-.5.223858-.5.5 0 0 0 0 0 0v14.5"></path></g></svg>