<?xml version="1.0" encoding="utf-8"?>
<!-- Generator: Adobe Illustrator 24.0.0, SVG Export Plug-In . SVG Version: 6.00 Build 0)  -->
<svg version="1.1" id="Laag_1" xmlns="http://www.w3.org/2000/svg" xmlns:xlink="http://www.w3.org/1999/xlink" x="0px" y="0px"
	 viewBox="0 0 15 15" style="enable-background:new 0 0 15 15;" xml:space="preserve">
<style type="text/css">
	.st0{fill:none;stroke:#000000;stroke-width:1;stroke-linecap:round;stroke-linejoin:round;}
</style>
<g>
	<path class="st0" d="M0.5,7.3l4.4-2.4c0.7-0.3,1.5-0.4,2.2-0.2l2.3,0.8c0.7,0.2,1.4,0,2-0.5l3.2-3.6V14c0,0.2-0.1,0.3-0.3,0.3H0.8
		c-0.2,0-0.3-0.1-0.3-0.3V0.7"/>
	<path class="st0" d="M0.5,11l3.8-2.1C5,8.5,5.8,8.3,6.6,8.3h1.5c0.8,0,1.6-0.2,2.3-0.5l4-1.7"/>
	<path class="st0" d="M0.5,14.1l3.9-2.7C5,11,5.8,10.8,6.6,10.8l1.5,0.1c0.8,0,1.6,0,2.4-0.2l4-0.9"/>
</g>
</svg>
