<?xml version="1.0" encoding="utf-8"?>
<!-- Generator: Adobe Illustrator 24.0.0, SVG Export Plug-In . SVG Version: 6.00 Build 0)  -->
<svg version="1.1" id="Laag_1" xmlns="http://www.w3.org/2000/svg" xmlns:xlink="http://www.w3.org/1999/xlink" x="0px" y="0px"
	 viewBox="0 0 15 15" style="enable-background:new 0 0 15 15;" xml:space="preserve">
<style type="text/css">
	.st0{fill:none;stroke:#000000;stroke-width:1;stroke-linecap:round;stroke-linejoin:round;}
</style>
<g>
	<line class="st0" x1="0.5" y1="2.9" x2="12.7" y2="2.9"/>
	<line class="st0" x1="2.3" y1="1.6" x2="2.3" y2="1.6"/>
	<path class="st0" d="M2.3,1.6c-0.1,0-0.2,0.1-0.2,0.2s0.1,0.2,0.2,0.2s0.2-0.1,0.2-0.2C2.5,1.6,2.4,1.6,2.3,1.6
		C2.3,1.6,2.3,1.6,2.3,1.6"/>
	<line class="st0" x1="3.5" y1="1.6" x2="3.5" y2="1.6"/>
	<path class="st0" d="M3.5,1.6c-0.1,0-0.2,0.1-0.2,0.2s0.1,0.2,0.2,0.2c0.1,0,0.2-0.1,0.2-0.2C3.7,1.6,3.6,1.6,3.5,1.6
		C3.5,1.6,3.5,1.6,3.5,1.6"/>
	<line class="st0" x1="4.8" y1="1.6" x2="4.8" y2="1.6"/>
	<path class="st0" d="M4.8,1.6c-0.1,0-0.2,0.1-0.2,0.2s0.1,0.2,0.2,0.2s0.2-0.1,0.2-0.2C4.9,1.6,4.8,1.6,4.8,1.6
		C4.8,1.6,4.8,1.6,4.8,1.6"/>
	<path class="st0" d="M6,10.2H1.7C1,10.2,0.5,9.7,0.5,9V1.7C0.5,1,1,0.5,1.7,0.5h9.7c0.7,0,1.2,0.5,1.2,1.2v4.6"/>
	<polyline class="st0" points="9.3,11.5 7.2,11.5 7.2,13.6 	"/>
	<path class="st0" d="M14.1,12.2c-0.6,1.8-2.5,2.7-4.3,2.1c-1.3-0.4-2.1-1.5-2.3-2.9"/>
	<polyline class="st0" points="12.4,10.2 14.5,10.2 14.5,8.1 	"/>
	<path class="st0" d="M7.5,9.5c0.6-1.8,2.5-2.7,4.3-2.1c1.3,0.4,2.1,1.5,2.3,2.9"/>
</g>
</svg>
