<?xml version="1.0" encoding="UTF-8"?><svg version="1.1" viewBox="0 0 24 24" xmlns="http://www.w3.org/2000/svg" xmlns:xlink="http://www.w3.org/1999/xlink"><g stroke-linecap="round" stroke-width="1" stroke="#000" fill="none" stroke-linejoin="round"><circle cx="17.517" cy="17.505" r="6"></circle><line x1="20.52" x2="14.52" y1="17.5" y2="17.5"></line><line x1=".52" x2="20.52" y1="4.5" y2="4.5"></line><line x1="3.52" x2="3.52" y1="2.25" y2="2.25"></line><path d="M3.516 2.254l-1.09278e-08 4.44089e-16c-.138071 6.03528e-09-.25.111929-.25.25 6.03528e-09.138071.111929.25.25.25 .138071-6.03528e-09.25-.111929.25-.25l-2.30624e-09 5.72931e-07c.000553715-.137518-.110478-.249447-.247995-.250001 -.000668008-2.68973e-06-.00133602-2.69127e-06-.00200403-4.61117e-09"></path><line x1="5.52" x2="5.52" y1="2.25" y2="2.25"></line><path d="M5.516 2.254l-1.09278e-08 4.44089e-16c-.138071 6.03528e-09-.25.111929-.25.25 6.03528e-09.138071.111929.25.25.25 .138071-6.03528e-09.25-.111929.25-.25l-2.30624e-09 5.72931e-07c.000553715-.137518-.110478-.249447-.247995-.250001 -.000668008-2.68973e-06-.00133602-2.69127e-06-.00200403-4.61117e-09"></path><line x1="7.52" x2="7.52" y1="2.25" y2="2.25"></line><path d="M7.516 2.254l-1.09278e-08 4.44089e-16c-.138071 6.03528e-09-.25.111929-.25.25 6.03528e-09.138071.111929.25.25.25 .138071-6.03528e-09.25-.111929.25-.25l-2.30624e-09 5.72931e-07c.000553715-.137518-.110478-.249447-.247995-.250001 -.000668008-2.68973e-06-.00133602-2.69127e-06-.00200403-4.61117e-09"></path><path d="M8.516 16.5h-6l-8.74228e-08-3.55271e-15c-1.10457-4.82823e-08-2-.895431-2-2 0 0 0 0 0 0v-12l2.13163e-14 3.01992e-07c-1.66785e-07-1.10457.89543-2 2-2h16l-8.74228e-08 1.9984e-15c1.10457-4.82823e-08 2 .89543 2 2v6"></path></g></svg>