<?xml version="1.0" encoding="UTF-8"?><svg version="1.1" viewBox="0 0 24 24" xmlns="http://www.w3.org/2000/svg" xmlns:xlink="http://www.w3.org/1999/xlink"><g stroke-linecap="round" stroke-width="1" stroke="#000" fill="none" stroke-linejoin="round"><circle cx="17.518" cy="17.506" r="6"></circle><line x1="17.52" x2="17.52" y1="14.51" y2="20.51"></line><line x1="20.52" x2="14.52" y1="17.51" y2="17.51"></line><line x1=".51" x2="20.51" y1="4.5" y2="4.5"></line><line x1="3.52" x2="3.52" y1="2.25" y2="2.25"></line><path d="M3.515 2.254l-1.09278e-08 4.44089e-16c-.138071 6.03528e-09-.25.111929-.25.25 6.03528e-09.138071.111929.25.25.25 .138071-6.03528e-09.25-.111929.25-.25v0c0-.138071-.111929-.25-.25-.25"></path><line x1="5.51" x2="5.51" y1="2.25" y2="2.25"></line><path d="M5.515 2.254l-1.09278e-08 4.44089e-16c-.138071 6.03528e-09-.25.111929-.25.25 6.03528e-09.138071.111929.25.25.25 .138071-6.03528e-09.25-.111929.25-.25v0c0-.138071-.111929-.25-.25-.25"></path><line x1="7.51" x2="7.51" y1="2.25" y2="2.25"></line><path d="M7.515 2.254l-1.09278e-08 4.44089e-16c-.138071 6.03528e-09-.25.111929-.25.25 6.03528e-09.138071.111929.25.25.25 .138071-6.03528e-09.25-.111929.25-.25v0c0-.138071-.111929-.25-.25-.25"></path><path d="M8.515 16.5h-6l-8.74228e-08-3.55271e-15c-1.10457-4.82823e-08-2-.895431-2-2 0 0 0 0 0 0v-12l2.13163e-14 3.01992e-07c-1.66785e-07-1.10457.89543-2 2-2h16l-8.74228e-08 1.9984e-15c1.10457-4.82823e-08 2 .89543 2 2v6"></path></g></svg>