<?xml version="1.0" encoding="utf-8"?>
<!-- Generator: Adobe Illustrator 24.0.0, SVG Export Plug-In . SVG Version: 6.00 Build 0)  -->
<svg version="1.1" id="Laag_1" xmlns="http://www.w3.org/2000/svg" xmlns:xlink="http://www.w3.org/1999/xlink" x="0px" y="0px"
	 viewBox="0 0 15 15" style="enable-background:new 0 0 15 15;" xml:space="preserve">
<style type="text/css">
	.st0{fill:none;stroke:#000000;stroke-width:1;stroke-linecap:round;stroke-linejoin:round;}
</style>
<g>
	<path class="st0" d="M1.7,1.4h11.6c0.7,0,1.2,0.5,1.2,1.2v9.7c0,0.7-0.5,1.2-1.2,1.2H1.7c-0.7,0-1.2-0.5-1.2-1.2V2.6
		C0.5,2,1,1.4,1.7,1.4z"/>
	<line class="st0" x1="0.5" y1="4.5" x2="14.5" y2="4.5"/>
	<path class="st0" d="M2.6,2.8c0.1,0,0.2,0.1,0.2,0.2S2.7,3.1,2.6,3.1S2.5,3,2.5,2.9S2.5,2.8,2.6,2.8"/>
	<path class="st0" d="M4.5,2.8c0.1,0,0.2,0.1,0.2,0.2S4.5,3.1,4.5,3.1C4.4,3.1,4.3,3,4.3,2.9S4.4,2.8,4.5,2.8"/>
	<path class="st0" d="M6.3,2.8c0.1,0,0.2,0.1,0.2,0.2S6.4,3.1,6.3,3.1C6.2,3.1,6.1,3,6.1,2.9S6.2,2.8,6.3,2.8"/>
</g>
</svg>
