<svg viewBox="0 0 24 24" xmlns="http://www.w3.org/2000/svg"><g stroke-linecap="round" stroke="#000" fill="none" stroke-linejoin="round"><rect width="23" height="20" x=".5" y="2.004" rx="2"/><path d="M.5 7l23 0"/><path d="M4 4.254h-.01c.13-.01.25.11.25.24s-.12.25-.25.25c-.14 0-.25-.12-.26-.25l0 0c-.01-.14.11-.26.24-.26 0 0 0-.001 0-.001"/><path d="M7 4.254h-.01c.13-.01.25.11.25.24s-.12.25-.25.25c-.14 0-.25-.12-.26-.25l0 0c-.01-.14.11-.26.24-.26 0 0 0-.001 0-.001"/><path d="M10 4.254h-.01c.13-.01.25.11.25.24s-.12.25-.25.25c-.14 0-.25-.12-.26-.25l0 0c-.01-.14.11-.26.24-.26"/></g></svg>