<?xml version="1.0" encoding="UTF-8"?><svg version="1.1" viewBox="0 0 24 24" xmlns="http://www.w3.org/2000/svg" xmlns:xlink="http://www.w3.org/1999/xlink"><g stroke-linecap="round" stroke-width="1" stroke="#000" fill="none" stroke-linejoin="round"><rect width="23" height="20" x=".5" y="2.004" rx="1.10456" ry="0"></rect><line x1=".5" x2="23.5" y1="7" y2="7"></line><path d="M4 4.254h-1.09278e-08c.138071-6.03528e-09.25.111929.25.25 6.03528e-09.138071-.111929.25-.25.25 -.138071 6.03528e-09-.25-.111929-.25-.25l2.22045e-15 2.68211e-08c-2.08482e-08-.138071.111929-.25.25-.25 3.38653e-09 0 7.54132e-09-8.88178e-16 1.09278e-08-8.88178e-16"></path><path d="M7 4.254h-1.09278e-08c.138071-6.03528e-09.25.111929.25.25 6.03528e-09.138071-.111929.25-.25.25 -.138071 6.03528e-09-.25-.111929-.25-.25l2.66454e-15 2.68211e-08c-2.08482e-08-.138071.111929-.25.25-.25 3.38652e-09 0 7.54132e-09-8.88178e-16 1.09278e-08-8.88178e-16"></path><path d="M10 4.254h-1.09278e-08c.138071-6.03528e-09.25.111929.25.25 6.03528e-09.138071-.111929.25-.25.25 -.138071 6.03528e-09-.25-.111929-.25-.25l3.55271e-15 3.77489e-08c-2.08482e-08-.138071.111929-.25.25-.25"></path></g></svg>