<?xml version="1.0" encoding="UTF-8"?><svg version="1.1" viewBox="0 0 24 24" xmlns="http://www.w3.org/2000/svg" xmlns:xlink="http://www.w3.org/1999/xlink"><g stroke-linecap="round" stroke-width="1" stroke="#000" fill="none" stroke-linejoin="round"><line x1=".5" x2="20.5" y1="4.5" y2="4.5"></line><line x1="3.5" x2="3.5" y1="2.25" y2="2.25"></line><path d="M3.5 2.254l-1.09278e-08 4.44089e-16c-.138071 6.03528e-09-.25.111929-.25.25 6.03528e-09.138071.111929.25.25.25 .138071-6.03528e-09.25-.111929.25-.25v0c0-.138071-.111929-.25-.25-.25"></path><line x1="5.5" x2="5.5" y1="2.25" y2="2.25"></line><path d="M5.5 2.254l-1.09278e-08 4.44089e-16c-.138071 6.03528e-09-.25.111929-.25.25 6.03528e-09.138071.111929.25.25.25 .138071-6.03528e-09.25-.111929.25-.25v0c0-.138071-.111929-.25-.25-.25"></path><line x1="7.5" x2="7.5" y1="2.25" y2="2.25"></line><path d="M7.5 2.254l-1.09278e-08 4.44089e-16c-.138071 6.03528e-09-.25.111929-.25.25 6.03528e-09.138071.111929.25.25.25 .138071-6.03528e-09.25-.111929.25-.25v0c0-.138071-.111929-.25-.25-.25"></path><path d="M8.5 16.5h-6l-8.74228e-08-3.55271e-15c-1.10457-4.82823e-08-2-.895431-2-2 0 0 0 0 0 0v-12l2.13163e-14 3.01992e-07c-1.66785e-07-1.10457.89543-2 2-2h16l-8.74228e-08 1.9984e-15c1.10457-4.82823e-08 2 .89543 2 2v6"></path><circle cx="17.501" cy="17.505" r="6"></circle><path d="M20.175 15.76l-2.905 3.874 -2.73233e-08 3.63834e-08c-.248736.331215-.71888.398076-1.05009.14934 -.0282343-.0212035-.054936-.0443744-.0799059-.0693398l-1.5-1.5"></path></g></svg>