<?xml version="1.0" encoding="UTF-8"?><svg version="1.1" viewBox="0 0 24 24" xmlns="http://www.w3.org/2000/svg" xmlns:xlink="http://www.w3.org/1999/xlink"><g stroke-linecap="round" stroke-width="1" stroke="#000" fill="none" stroke-linejoin="round"><line x1=".52" x2="20.52" y1="4.5" y2="4.5"></line><line x1="3.52" x2="3.52" y1="2.25" y2="2.25"></line><path d="M3.518 2.254l-1.09278e-08 4.44089e-16c-.138071 6.03528e-09-.25.111929-.25.25 6.03528e-09.138071.111929.25.25.25 .138071-6.03528e-09.25-.111929.25-.25l-2.30624e-09 5.72931e-07c.000553715-.137518-.110478-.249447-.247995-.250001 -.000668008-2.68973e-06-.00133602-2.69127e-06-.00200403-4.61117e-09"></path><line x1="5.52" x2="5.52" y1="2.25" y2="2.25"></line><path d="M5.518 2.254l-1.09278e-08 4.44089e-16c-.138071 6.03528e-09-.25.111929-.25.25 6.03528e-09.138071.111929.25.25.25 .138071-6.03528e-09.25-.111929.25-.25l-2.30624e-09 5.72931e-07c.000553715-.137518-.110478-.249447-.247995-.250001 -.000668008-2.68973e-06-.00133602-2.69127e-06-.00200403-4.61117e-09"></path><line x1="7.52" x2="7.52" y1="2.25" y2="2.25"></line><path d="M7.518 2.254l-1.09278e-08 4.44089e-16c-.138071 6.03528e-09-.25.111929-.25.25 6.03528e-09.138071.111929.25.25.25 .138071-6.03528e-09.25-.111929.25-.25l-2.30624e-09 5.72931e-07c.000553715-.137518-.110478-.249447-.247995-.250001 -.000668008-2.68973e-06-.00133602-2.69127e-06-.00200403-4.61117e-09"></path><path d="M9.518 16.5h-7l-8.74228e-08-3.55271e-15c-1.10457-4.82823e-08-2-.895431-2-2 0 0 0 0 0 0v-12l2.13163e-14 3.01992e-07c-1.66785e-07-1.10457.89543-2 2-2h16l-8.74228e-08 1.9984e-15c1.10457-4.82823e-08 2 .89543 2 2v7.5"></path><polyline points="15.018,18.505 11.518,18.505 11.518,22.005"></polyline><path d="M22.935 19.738l-2.50765e-08 7.33194e-08c-.995687 2.91122-4.16286 4.46406-7.07407 3.46837 -2.0568-.70346-3.51658-2.539-3.73893-4.70137"></path><polyline points="20.018,16.505 23.518,16.505 23.518,13.005"></polyline><path d="M12.1 15.271l-2.32983e-07 6.80236e-07c.997132-2.9113 4.16554-4.46305 7.07685-3.46592 2.05551.704019 3.51431 2.53864 3.73715 4.69991"></path></g></svg>