<?xml version="1.0" encoding="UTF-8"?><svg version="1.1" viewBox="0 0 24 24" xmlns="http://www.w3.org/2000/svg" xmlns:xlink="http://www.w3.org/1999/xlink"><g stroke-linecap="round" stroke-width="1" stroke="#000" fill="none" stroke-linejoin="round"><path d="M23.5 7v0c0 .552285-.447715 1-1 1h-21l-4.37114e-08-8.88178e-16c-.552285-2.41411e-08-1-.447715-1-1 0 0 0 0 0 0v-3l1.06581e-14 1.50996e-07c-8.33927e-08-.552285.447715-1 1-1h21l-4.37114e-08 8.88178e-16c.552285-2.41411e-08 1 .447715 1 1Z"></path><path d="M22.5 10v10 0c0 .552285-.447715 1-1 1h-19 -4.37114e-08c-.552285-2.41411e-08-1-.447715-1-1 0 0 0-3.55271e-15 0-3.55271e-15v-10"></path><path d="M15.5 12.5v0c0 .828427-.671573 1.5-1.5 1.5h-4l-6.55671e-08-1.77636e-15c-.828427-3.62117e-08-1.5-.671573-1.5-1.5 3.62117e-08-.828427.671573-1.5 1.5-1.5h4l4.76798e-08 1.77636e-15c.828427 6.25445e-08 1.5.671573 1.5 1.5Z"></path></g></svg>