<?xml version="1.0" encoding="UTF-8"?><svg version="1.1" viewBox="0 0 24 24" xmlns="http://www.w3.org/2000/svg" xmlns:xlink="http://www.w3.org/1999/xlink"><g stroke-linecap="round" stroke-width="1" stroke="#000" fill="none" stroke-linejoin="round"><line x1="3.03" x2="21" y1="8" y2="8"></line><line x1="3.03" x2="21" y1="15" y2="15"></line><path d="M13.919 5.724l-2.67245e-09 5.33317e-09c-.0847713.16917-.257778.275994-.447.276h-2.882l7.5888e-09 2.54907e-13c-.189222-6.34678e-06-.362229-.10683-.447-.276l-.5-1 -5.65104e-10-1.12772e-09c-.123712-.246881-.0238638-.547305.223017-.671017 .0695249-.0348389.146218-.0529806.223983-.0529832h3.882l-1.41976e-08-1.46616e-11c.276142.000285163.499769.224374.499483.500516 -7.97416e-05.0772191-.0180436.15337-.0524834.222484Z"></path><path d="M13.919 12.723l-2.67245e-09 5.33317e-09c-.0847713.16917-.257778.275994-.447.276h-2.882l7.5888e-09 2.55795e-13c-.189222-6.34678e-06-.362229-.10683-.447-.276l-.5-1 6.70986e-09 1.34653e-08c-.12316-.247156-.0226404-.547357.224516-.670517 .0691136-.0344398.145265-.0524037.222484-.0524834h3.882l-1.41976e-08-1.4662e-11c.276142.000285163.499769.224374.499483.500516 -7.97416e-05.0772191-.0180436.15337-.0524834.222484Z"></path><path d="M13.919 20.724l-2.67245e-09 5.33317e-09c-.0847713.16917-.257778.275994-.447.276h-2.882l7.5888e-09 2.55795e-13c-.189222-6.34678e-06-.362229-.10683-.447-.276l-.5-1 -5.65102e-10-1.12772e-09c-.123712-.246881-.0238638-.547305.223017-.671017 .0695249-.0348389.146218-.0529806.223983-.0529832h3.882l-1.41976e-08-1.4662e-11c.276142.000285163.499769.224374.499483.500516 -7.97416e-05.0772191-.0180436.15337-.0524834.222484Z"></path><path d="M21 22v0c0 .552285-.447715 1-1 1h-16 -4.37114e-08c-.552285-2.41411e-08-1-.447715-1-1 0 0 0-3.55271e-15 0-3.55271e-15v-20l1.42109e-14 1.50996e-07c-8.33927e-08-.552285.447715-1 1-1h16l-4.37114e-08 8.88178e-16c.552285-2.41411e-08 1 .447715 1 1Z"></path></g></svg>