<?xml version="1.0" encoding="utf-8"?>
<!-- Generator: Adobe Illustrator 24.0.0, SVG Export Plug-In . SVG Version: 6.00 Build 0)  -->
<svg version="1.1" id="Laag_1" xmlns="http://www.w3.org/2000/svg" xmlns:xlink="http://www.w3.org/1999/xlink" x="0px" y="0px"
	 viewBox="0 0 15 15" style="enable-background:new 0 0 15 15;" xml:space="preserve">
<style type="text/css">
	.st0{fill:none;stroke:#000000;stroke-width:1;stroke-linecap:round;stroke-linejoin:round;}
</style>
<g>
	<path class="st0" d="M14.5,4.5c0,0.3-0.3,0.6-0.6,0.6H1.1c-0.3,0-0.6-0.3-0.6-0.6V2.6C0.5,2.3,0.8,2,1.1,2h12.8
		c0.3,0,0.6,0.3,0.6,0.6V4.5z"/>
	<path class="st0" d="M13.9,6.3v6.1c0,0.3-0.3,0.6-0.6,0.6H1.7c-0.3,0-0.6-0.3-0.6-0.6V6.3"/>
	<path class="st0" d="M9.6,7.8c0,0.5-0.4,0.9-0.9,0.9H6.3c-0.5,0-0.9-0.4-0.9-0.9s0.4-0.9,0.9-0.9h2.4C9.2,6.9,9.6,7.3,9.6,7.8z"/>
</g>
</svg>
