<?xml version="1.0" encoding="utf-8"?>
<!-- Generator: Adobe Illustrator 24.0.0, SVG Export Plug-In . SVG Version: 6.00 Build 0)  -->
<svg version="1.1" id="Laag_1" xmlns="http://www.w3.org/2000/svg" xmlns:xlink="http://www.w3.org/1999/xlink" x="0px" y="0px"
	 viewBox="0 0 15 15" style="enable-background:new 0 0 15 15;" xml:space="preserve">
<style type="text/css">
	.st0{fill:none;stroke:#000000;stroke-width:1;stroke-linecap:round;stroke-linejoin:round;}
</style>
<g>
	<line class="st0" x1="1.8" y1="5" x2="13.2" y2="5"/>
	<line class="st0" x1="1.8" y1="9.4" x2="13.2" y2="9.4"/>
	<path class="st0" d="M8.7,3.5C8.7,3.6,8.6,3.7,8.4,3.7H6.6c-0.1,0-0.2-0.1-0.3-0.2L6,2.9C5.9,2.7,6,2.5,6.1,2.4c0,0,0.1,0,0.1,0
		h2.5c0.2,0,0.3,0.1,0.3,0.3c0,0,0,0.1,0,0.1L8.7,3.5z"/>
	<path class="st0" d="M8.7,8C8.7,8.1,8.6,8.1,8.4,8.1H6.6C6.5,8.1,6.4,8.1,6.3,8L6,7.3C5.9,7.2,6,7,6.1,6.9c0,0,0.1,0,0.1,0h2.5
		c0.2,0,0.3,0.1,0.3,0.3c0,0,0,0.1,0,0.1L8.7,8z"/>
	<path class="st0" d="M8.7,13.1c-0.1,0.1-0.2,0.2-0.3,0.2H6.6c-0.1,0-0.2-0.1-0.3-0.2L6,12.4c-0.1-0.2,0-0.3,0.1-0.4
		c0,0,0.1,0,0.1,0h2.5c0.2,0,0.3,0.1,0.3,0.3c0,0,0,0.1,0,0.1L8.7,13.1z"/>
	<path class="st0" d="M13.2,13.9c0,0.4-0.3,0.6-0.6,0.6H2.4c-0.4,0-0.6-0.3-0.6-0.6V1.1c0-0.4,0.3-0.6,0.6-0.6h10.2
		c0.4,0,0.6,0.3,0.6,0.6V13.9z"/>
</g>
</svg>
