<?xml version="1.0" encoding="UTF-8"?><svg version="1.1" viewBox="0 0 24 24" xmlns="http://www.w3.org/2000/svg" xmlns:xlink="http://www.w3.org/1999/xlink"><path d="M1.5 3.775v7.637l-9.76211e-08-8.38436e-06c.0601838 5.16914 3.3433 9.75009 8.21899 11.468l1.121.414 3.18354e-08 1.16911e-08c.748883.275016 1.57112.275016 2.32 1.39502e-07l1.121-.414 -1.09515e-06 3.85866e-07c4.8757-1.71791 8.15882-6.29885 8.21901-11.468v-7.637l6.69927e-09 2.00088e-06c-.00205304-.613305-.369445-1.16636-.933998-1.406l-2.34685e-06-9.79539e-07c-3.02921-1.26435-6.28367-1.9002-9.566-1.869l-9.05982e-07-8.61206e-09c-3.28233-.031201-6.53679.604655-9.566 1.869l2.51414e-08-1.06719e-08c-.564553.239639-.931945.792695-.933999 1.406Z" stroke-linecap="round" stroke-width="1" stroke="#000" fill="none" stroke-linejoin="round"></path></svg>