<?xml version="1.0" encoding="UTF-8"?><svg version="1.1" viewBox="0 0 24 24" xmlns="http://www.w3.org/2000/svg" xmlns:xlink="http://www.w3.org/1999/xlink"><g stroke-linecap="round" stroke-width="1" stroke="#000" fill="none" stroke-linejoin="round"><line x1="5.5" x2="5.5" y1="4.5" y2="19.5"></line><polyline points="2.5,16.498 5.5,19.498 8.5,16.498"></polyline><path d="M20.4 23.5h-3.6l-9.01059e-09 2.13163e-14c-.276142 6.46304e-07-.500001-.223856-.500001-.499999 -2.19327e-07-.0937105.0263346-.185535.0760012-.265001l4.044-6.47 -5.60364e-09 8.96505e-09c.146364-.234163.0751896-.542641-.158973-.689005 -.07832-.0489542-.168669-.0752584-.261027-.0759952h-3.6"></path><path d="M16.5 9.5v-6l2.13163e-14 3.01992e-07c-1.66785e-07-1.10457.89543-2 2-2 1.10457-1.66785e-07 2 .89543 2 2 0 0 0 1.77636e-15 0 1.77636e-15v6"></path><line x1="16.5" x2="20.5" y1="5.5" y2="5.5"></line></g></svg>