<?xml version="1.0" encoding="UTF-8"?><svg version="1.1" viewBox="0 0 24 24" xmlns="http://www.w3.org/2000/svg" xmlns:xlink="http://www.w3.org/1999/xlink"><path d="M12.376 4.658l10.8 12.47 3.23683e-09 3.73147e-09c.180946.208598.158531.524386-.0500672.705332 -.000642848.000557633-.00128712.00111362-.00193281.00166797l-1.824 1.559 -1.0932e-08 9.37952e-09c-.209576.179813-.525237.155686-.70505-.0538898 -.000317116-.000369604-.000633691-.000739672-.000949725-.0011102l-8.4-9.893 3.20749e-09 3.81069e-09c-.0885565-.10521-.245635-.118711-.350846-.0301543 -.0108952.00917063-.0209837.019259-.0301543.0301543l-8.4 9.892 -6.99377e-09 8.24673e-09c-.178607.210605-.494125.236544-.704729.0579375 -.000758858-.000643562-.00151579-.00128939-.0022708-.00193747l-1.825-1.559 3.60722e-08 3.09692e-08c-.209519-.179879-.233547-.495548-.053668-.705067 .000554343-.000645687.00111033-.00128996.00166797-.00193281l10.791-12.47 -9.32696e-09 1.07722e-08c.180755-.208764.496522-.231469.705286-.0507142 .0180969.015669.0350452.0326173.0507142.0507142Z" stroke-linecap="round" stroke-width="1" stroke="#000" fill="none" stroke-linejoin="round"></path></svg>