<?xml version="1.0" encoding="UTF-8"?><svg version="1.1" viewBox="0 0 24 24" xmlns="http://www.w3.org/2000/svg" xmlns:xlink="http://www.w3.org/1999/xlink"><path d="M23.4 12v0c0-1.10457-.895431-2-2-2h-13l5.2-5 -7.65055e-08 8.09613e-08c.799108-.845648.763328-2.17844-.0799998-2.98l1.46003e-07 1.52442e-07c-.802662-.838059-2.13113-.87155-2.975-.0750003l-9.793 9.7 2.65405e-08-2.65485e-08c-.195191.19525-.195191.51175-5.30811e-08.707l9.623 9.721 8.49604e-09 7.40881e-09c.899513.784403 2.2646.691088 3.049-.208425 .709717-.813866.709717-2.02671-1.48176e-08-2.84057l-5.024-5.024h13l-8.74228e-08-1.77636e-15c1.10457 4.82823e-08 2-.89543 2-2Z" stroke-linecap="round" stroke-width="1" stroke="#000" fill="none" stroke-linejoin="round"></path></svg>