<?xml version="1.0" encoding="UTF-8"?><svg version="1.1" viewBox="0 0 24 24" xmlns="http://www.w3.org/2000/svg" xmlns:xlink="http://www.w3.org/1999/xlink"><path d="M22.915 9.587h-13l5.292-6.175 1.90028e-08-2.22167e-08c.179493-.20985.154883-.525475-.0549671-.704967 -.0905749-.077472-.205845-.120041-.325033-.120033h-5.689l-1.09216e-08-5.29354e-13c-.142445-6.871e-06-.278131.0607426-.373.167l-8.052 9 5.19435e-10-5.81794e-10c-.169366.189697-.169366.476303-5.54898e-09.666l8.052 9 1.03924e-09 1.164e-09c.0948686.106257.230555.167007.373.167h5.689l-2.65332e-08-1.74794e-12c.276142 1.81832e-05.500015-.223825.500033-.499967 7.84819e-06-.119188-.0425608-.234458-.120033-.325033l-5.292-6.175h13 -2.18557e-08c.276142 1.20706e-08.5-.223858.5-.5v-4 -2.18557e-08c0-.276142-.223858-.5-.5-.5 -6.77305e-09 0-1.50826e-08 0-2.18557e-08 0Z" stroke-linecap="round" stroke-width="1" stroke="#000" fill="none" stroke-linejoin="round"></path></svg>