<?xml version="1.0" encoding="UTF-8"?><svg version="1.1" viewBox="0 0 24 24" xmlns="http://www.w3.org/2000/svg" xmlns:xlink="http://www.w3.org/1999/xlink"><path d="M14.5 23v-13.5l6.175 5.379 -1.29346e-08-1.10635e-08c.20985.179493.525474.154884.704967-.0549653 .0772491-.0903138.119803-.20519.120033-.324035v-5.187l5.82205e-10-2.41289e-05c0-.142445-.060756-.278128-.167018-.372992l-8.99898-8.13998 -1.6511e-08-1.47812e-08c-.189852-.169962-.477148-.169962-.667 2.95624e-08l-9 8.144 -1.01214e-08 9.08556e-09c-.105627.0948167-.165977.230059-.166.372v5.184l-1.19842e-08-.000109397c4.16963e-08.276142.223858.5.5.5 .119592-1.80579e-08.235223-.0428651.325917-.120819l6.17308-5.37907v13.5l5.32907e-15 7.54979e-08c4.16963e-08.276142.223858.5.5.5h4l2.18557e-08-3.55271e-15c.276142-5.37669e-08.5-.223858.5-.5Z" stroke-linecap="round" stroke-width="1" stroke="#000" fill="none" stroke-linejoin="round"></path></svg>