<?xml version="1.0" encoding="UTF-8"?><svg version="1.1" viewBox="0 0 24 24" xmlns="http://www.w3.org/2000/svg" xmlns:xlink="http://www.w3.org/1999/xlink"><path d="M12 .6l-8.74228e-08 3.55271e-15c-1.10457 4.82823e-08-2 .895431-2 2 0 0 0 0 0 0v13l-5-5.2 1.42844e-08 1.35049e-08c-.843389-.797368-2.1723-.764313-2.975.074l-9.60567e-08 9.19996e-08c-.838059.802662-.87155 2.13113-.0749998 2.975l9.7 9.793 -3.07653e-08-3.0756e-08c.19525.195191.51175.195191.707 6.15119e-08l9.721-9.623 -1.51642e-08 1.73895e-08c.784403-.899513.691088-2.2646-.208425-3.049 -.813866-.709717-2.02671-.709717-2.84057-3.03284e-08l-5.029 5.03v-13 4.44089e-16c0-1.10457-.895431-2-2-2Z" stroke-linecap="round" stroke-width="1" stroke="#000" fill="none" stroke-linejoin="round"></path></svg>