<?xml version="1.0" encoding="UTF-8"?><svg version="1.1" viewBox="0 0 24 24" xmlns="http://www.w3.org/2000/svg" xmlns:xlink="http://www.w3.org/1999/xlink"><path d="M12.376 19.342l10.8-12.47 3.23683e-09-3.73147e-09c.180946-.208598.158531-.524386-.0500672-.705332 -.000642848-.000557633-.00128712-.00111362-.00193281-.00166797l-1.824-1.559 9.34882e-10 8.00014e-10c-.209809-.179541-.525439-.155004-.70498.054804 -.000340693.000398127-.000680759.00079679-.0010202.00119599l-8.4 9.892 3.20749e-09-3.81068e-09c-.0885565.10521-.245635.118711-.350846.0301543 -.0108952-.00917063-.0209837-.019259-.0301543-.0301543l-8.4-9.892 9.6841e-09 1.16027e-08c-.176946-.212002-.49225-.24042-.704252-.0634738 -.00294452.00245763-.00586067.00494906-.00874786.00747379l-1.819 1.559 -1.08799e-09 9.3122e-10c-.209791.179562-.234296.495195-.0547337.704985 .000576126.000673115.00115404.0013447.00173374.00201474l10.792 12.47 -9.32696e-09-1.07722e-08c.180755.208764.496522.231469.705286.0507142 .0180969-.015669.0350452-.0326173.0507142-.0507142Z" stroke-linecap="round" stroke-width="1" stroke="#000" fill="none" stroke-linejoin="round"></path></svg>