<?xml version="1.0" encoding="UTF-8"?><svg version="1.1" viewBox="0 0 24 24" xmlns="http://www.w3.org/2000/svg" xmlns:xlink="http://www.w3.org/1999/xlink"><path d="M.6 12l2.13163e-14 3.01992e-07c1.66785e-07 1.10457.895431 2 2 2h13l-5.2 5 4.12205e-08-4.5531e-08c-.800261.883945-.732421 2.24926.151525 3.04952 .8223.744452 2.07493.744657 2.89748.000475156l9.793-9.7 -1.5304e-08 1.53086e-08c.195191-.19525.195191-.51175 3.0608e-08-.707l-9.613-9.715 4.54742e-08 4.20344e-08c-.845153-.781224-2.16165-.736627-2.952.0999999l1.50318e-07-1.41071e-07c-.839495.787848-.884196 2.10609-.1 2.949l5.023 5.023h-13l-8.74228e-08 1.77636e-15c-1.10457 4.82823e-08-2 .895431-2 2 0 0 0 0 0 0Z" stroke-linecap="round" stroke-width="1" stroke="#000" fill="none" stroke-linejoin="round"></path></svg>