<?xml version="1.0" encoding="UTF-8"?><svg version="1.1" viewBox="0 0 24 24" xmlns="http://www.w3.org/2000/svg" xmlns:xlink="http://www.w3.org/1999/xlink"><path d="M1.085 9.587h13l-5.292-6.175 -4.74152e-08-5.54345e-08c-.179493-.20985-.154883-.525475.0549672-.704967 .0905749-.077472.205845-.120041.325033-.120033h5.689l2.68148e-08-1.29319e-12c.142445-6.86648e-06.278131.0607426.373.167l8.052 9 1.00655e-08 1.12738e-08c.169365.189697.169365.476303-1.56208e-08.666l-8.052 9 9.54566e-09-1.06916e-08c-.0948686.106257-.230555.167007-.373.167h-5.689l-1.71782e-08 1.12976e-12c-.276142 1.81591e-05-.500015-.223825-.500033-.499967 -7.83777e-06-.119188.0425609-.234458.120033-.325033l5.292-6.175h-13 -2.18557e-08c-.276142-1.20706e-08-.5-.223858-.5-.5 0 0 0-1.77636e-15 0-1.77636e-15v-4l4.88498e-15-4.74458e-08c4.16963e-08-.276142.223858-.5.5-.5Z" stroke-linecap="round" stroke-width="1" stroke="#000" fill="none" stroke-linejoin="round"></path></svg>