<?xml version="1.0" encoding="UTF-8"?><svg version="1.1" viewBox="0 0 24 24" xmlns="http://www.w3.org/2000/svg" xmlns:xlink="http://www.w3.org/1999/xlink"><path d="M14.5 1.172v13.5l6.175-5.38 -3.96878e-08 3.39465e-08c.20985-.179493.525475-.154883.704967.054967 .0774721.0905749.120041.205845.120033.325033v5.194l3.12831e-10-1.60157e-07c-.000277533.142097-.0610021.277364-.167.372l-9 8.139 -1.6511e-08 1.47812e-08c-.189852.169962-.477148.169962-.667-2.95624e-08l-9-8.137 3.96541e-08 3.55956e-08c-.105887-.0950493-.166261-.23071-.166-.373v-5.198l-1.92806e-08-1.08837e-05c-.000486185-.276142.222977-.500393.499119-.50088 .119937-.000211164.235953.0426967.326889.120898l6.17399 5.37999v-13.497l5.32907e-15 7.54979e-08c-4.16963e-08-.276142.223858-.5.5-.5h4l-5.96244e-09 8.88178e-16c.276142-4.49893e-08.5.223858.5.5 5.32907e-15 2.54893e-08 7.10543e-15 5.00086e-08 7.10543e-15 7.54979e-08Z" stroke-linecap="round" stroke-width="1" stroke="#000" fill="none" stroke-linejoin="round"></path></svg>