<?xml version="1.0" encoding="UTF-8"?><svg version="1.1" viewBox="0 0 24 24" xmlns="http://www.w3.org/2000/svg" xmlns:xlink="http://www.w3.org/1999/xlink"><path d="M4.658 12.376l12.47 10.8 -3.5291e-08-3.06128e-08c.208598.180946.524386.158531.705332-.0500671 .000557633-.000642848.00111362-.00128712.00166797-.0019328l1.559-1.82 4.36669e-09-5.10284e-09c.179541-.209809.155004-.525439-.054804-.70498 -.000398127-.000340693-.00079679-.000680759-.00119599-.0010202l-9.892-8.4 6.83835e-09 5.7559e-09c-.10521-.0885565-.118711-.245635-.0301543-.350846 .00917063-.0108952.019259-.0209837.0301543-.0301543l9.892-8.4 -6.91815e-09 5.88255e-09c.210372-.178881.235901-.494432.0570202-.704804 -.000339439-.000399197-.000679506-.000797859-.0010202-.00119599l-1.559-1.83 6.37957e-09 7.43077e-09c-.179879-.209519-.495548-.233547-.705067-.053668 -.000645687.000554343-.00128996.00111033-.00193281.00166797l-12.47 10.791 6.26461e-09-5.42412e-09c-.208764.180755-.231469.496522-.0507142.705286 .015669.0180969.0326173.0350452.0507142.0507142Z" stroke-linecap="round" stroke-width="1" stroke="#000" fill="none" stroke-linejoin="round"></path></svg>