<?xml version="1.0" encoding="utf-8"?>
<!-- Generator: Adobe Illustrator 24.1.1, SVG Export Plug-In . SVG Version: 6.00 Build 0)  -->
<svg version="1.1" id="Layer_1" xmlns="http://www.w3.org/2000/svg" xmlns:xlink="http://www.w3.org/1999/xlink" x="0px" y="0px"
	 viewBox="0 0 15 15" style="enable-background:new 0 0 15 15;" xml:space="preserve">
<style type="text/css">
	.st0{fill:none;stroke:#000000;stroke-width:1.25;stroke-linecap:round;stroke-linejoin:round;}
</style>
<path class="st0" d="M0.8,5.9h8.3L5.8,2.1l0,0C5.7,2,5.7,1.8,5.8,1.8c0.1,0,0.1-0.1,0.2-0.1h3.2l0,0c0.1,0,0.2,0,0.2,0.1l5,5.5l0,0
	c0.1,0.1,0.1,0.3,0,0.4l-5,5.5l0,0c0,0.2-0.1,0.2-0.2,0.2H6l0,0c-0.2,0-0.3-0.1-0.3-0.3c0-0.1,0-0.1,0.1-0.2l3.3-3.8H0.8l0,0
	C0.6,9.1,0.5,9,0.5,8.8V6.3l0,0C0.5,6.1,0.6,5.9,0.8,5.9L0.8,5.9z"/>
</svg>
