<?xml version="1.0" encoding="UTF-8"?><svg version="1.1" viewBox="0 0 24 24" xmlns="http://www.w3.org/2000/svg" xmlns:xlink="http://www.w3.org/1999/xlink"><path d="M12 23.4l-8.74228e-08-3.55271e-15c1.10457 4.82823e-08 2-.89543 2-2v-13l5 5.2 -6.46171e-08-5.84996e-08c.883945.800261 2.24926.732421 3.04952-.151525 .744452-.8223.744657-2.07493.000475191-2.89748l-9.694-9.799 2.09286e-08 2.09223e-08c-.19525-.195191-.51175-.195191-.707-4.18445e-08l-9.721 9.619 1.49653e-07-1.619e-07c-.781224.845153-.736627 2.16165.0999997 2.952l-1.58134e-07-1.685e-07c.787848.839495 2.10609.884196 2.949.1l5.023-5.023v13l2.30926e-14 3.01992e-07c1.66785e-07 1.10457.895431 2 2 2Z" stroke-linecap="round" stroke-width="1" stroke="#000" fill="none" stroke-linejoin="round"></path></svg>