<?xml version="1.0" encoding="UTF-8"?><svg version="1.1" viewBox="0 0 24 24" xmlns="http://www.w3.org/2000/svg" xmlns:xlink="http://www.w3.org/1999/xlink"><path d="M19.342 12.376l-12.47 10.8 2.2714e-09-1.97031e-09c-.208598.180946-.524386.158531-.705332-.0500672 -.000557633-.000642848-.00111362-.00128712-.00166797-.00193281l-1.559-1.824 5.96672e-09 6.9726e-09c-.179541-.209809-.155005-.525439.054804-.70498 .000398127-.000340693.00079679-.000680759.00119599-.0010202l9.892-8.4 -1.21377e-08 1.02164e-08c.10521-.0885565.118711-.245635.0301543-.350846 -.00917063-.0108952-.019259-.0209837-.0301543-.0301543l-9.892-8.4 5.60042e-08 4.67436e-08c-.212002-.176946-.24042-.49225-.0634739-.704252 .00245763-.00294453.00494907-.00586068.0074738-.00874788l1.559-1.819 -3.48531e-08 4.05961e-08c.179879-.209519.495548-.233547.705067-.053668 .000645687.000554343.00128996.00111033.00193281.00166797l12.47 10.791 5.75069e-09 4.97916e-09c.208764.180755.231469.496522.0507142.705286 -.015669.0180969-.0326173.0350452-.0507142.0507142Z" stroke-linecap="round" stroke-width="1" stroke="#000" fill="none" stroke-linejoin="round"></path></svg>