<?xml version="1.0" encoding="UTF-8"?><svg version="1.1" viewBox="0 0 24 24" xmlns="http://www.w3.org/2000/svg" xmlns:xlink="http://www.w3.org/1999/xlink"><g stroke-linecap="round" stroke-width="1" stroke="#000" fill="none" stroke-linejoin="round"><path d="M21.207 4.5l-1.96434e-08-1.96375e-08c.187549.187493.292943.441805.293.707v17.293 0c0 .552285-.447715 1-1 1h-17 -4.37114e-08c-.552285-2.41411e-08-1-.447715-1-1 0 0 0-3.55271e-15 0-3.55271e-15v-21l1.24345e-14 1.50996e-07c-8.33927e-08-.552285.447715-1 1-1h13.293l1.02845e-08 2.1968e-12c.265195 5.66401e-05.519507.105451.707.293Z"></path><path d="M6.5 11.5l-4.37114e-08 1.77636e-15c-.552285 2.41411e-08-1 .447715-1 1 0 0 0 0 0 0v2l1.15463e-14 1.50996e-07c8.33927e-08.552285.447715 1 1 1h1.5l3.014 2.374 1.17893e-08 6.55591e-09c.482674.26841 1.09155.0947153 1.35996-.387959 .0826669-.148657.126048-.315945.126041-.486041v-7l8.48365e-10-4.11914e-05c0-.552285-.447715-1-1-1 -.170097 0-.337382.0433881-.486036.126061l-3.01396 2.37398Z"></path><path d="M15.561 12.243l-4.5912e-08-4.59259e-08c.585573.58575.585573 1.53525 9.1824e-08 2.121"></path><path d="M17.182 10.121l6.97728e-08 6.97719e-08c1.75737 1.75735 1.75739 4.60659 3.88299e-05 6.36396 -1.29897e-05 1.29899e-05-2.59796e-05 2.59797e-05-3.89694e-05 3.89694e-05"></path></g></svg>