<?xml version="1.0" encoding="utf-8"?>
<!-- Generator: Adobe Illustrator 24.0.0, SVG Export Plug-In . SVG Version: 6.00 Build 0)  -->
<svg version="1.1" id="Laag_1" xmlns="http://www.w3.org/2000/svg" xmlns:xlink="http://www.w3.org/1999/xlink" x="0px" y="0px"
	 viewBox="0 0 15 15" style="enable-background:new 0 0 15 15;" xml:space="preserve">
<style type="text/css">
	.st0{fill:none;stroke:#000000;stroke-width:1;stroke-linecap:round;stroke-linejoin:round;}
</style>
<g>
	<path class="st0" d="M13.1,2.9c0.1,0.1,0.2,0.3,0.2,0.4v10.5c0,0.3-0.3,0.6-0.6,0.6H2.3c-0.3,0-0.6-0.3-0.6-0.6V1.1
		c0-0.3,0.3-0.6,0.6-0.6h8.1c0.2,0,0.3,0.1,0.4,0.2L13.1,2.9z"/>
	<path class="st0" d="M4.2,7.2c-0.3,0-0.6,0.3-0.6,0.6V9c0,0.3,0.3,0.6,0.6,0.6h0.9l1.8,1.4c0.3,0.2,0.7,0.1,0.8-0.2
		c0.1-0.1,0.1-0.2,0.1-0.3V6.3c0-0.3-0.3-0.6-0.6-0.6c-0.1,0-0.2,0-0.3,0.1L5.1,7.2H4.2z"/>
	<path class="st0" d="M9.7,7.6C10,8,10,8.6,9.7,8.9"/>
	<path class="st0" d="M10.7,6.4c1.1,1.1,1.1,2.8,0,3.9c0,0,0,0,0,0"/>
</g>
</svg>
