<svg viewBox="0 0 24 24" xmlns="http://www.w3.org/2000/svg"><g stroke-linecap="round" stroke="#000" fill="none" stroke-linejoin="round"><path d="M21.207 4.5l-.01-.01c.18.18.29.44.29.7v17.29 0c0 .55-.45 1-1 1h-17 -.01c-.56-.01-1-.45-1-1.01 0 0 0-.001 0-.001v-21l0 0C2.46.9 2.91.45 3.46.45h13.29l0 0c.26 0 .51.1.7.29Z"/><path d="M6.5 11.5l-.01 0c-.56 0-1 .44-1 1 0 0 0 0 0 0v2l0 0c0 .55.44.99 1 .99h1.49l3.01 2.37 0 0c.48.26 1.09.09 1.35-.39 .08-.15.12-.32.12-.49v-7l0-.01c0-.56-.45-1-1-1 -.18 0-.34.04-.49.12l-3.02 2.37Z"/><path d="M15.561 12.24l-.01-.01c.58.58.58 1.53 0 2.12"/><path d="M17.182 10.12l0 0c1.75 1.75 1.75 4.6 0 6.36 -.01 0-.01 0-.01 0"/></g></svg>