<?xml version="1.0" encoding="UTF-8"?><svg version="1.1" viewBox="0 0 24 24" xmlns="http://www.w3.org/2000/svg" xmlns:xlink="http://www.w3.org/1999/xlink"><g stroke-linecap="round" stroke-width="1" stroke="#000" fill="none" stroke-linejoin="round"><path d="M21.207 4.5l-1.96434e-08-1.96375e-08c.187549.187493.292943.441805.293.707v17.293 0c0 .552285-.447715 1-1 1h-17 -4.37114e-08c-.552285-2.41411e-08-1-.447715-1-1 0 0 0-3.55271e-15 0-3.55271e-15v-21l1.24345e-14 1.50996e-07c-8.33927e-08-.552285.447715-1 1-1h13.293l1.02845e-08 2.1968e-12c.265195 5.66401e-05.519507.105451.707.293Z"></path><circle cx="15" cy="15" r="1.5"></circle><circle cx="8" cy="16" r="1.5"></circle><path d="M9.5 16v-5.746l-3.90369e-08 9.88733e-05c.000154112-.446208.295913-.838322.724905-.961072l5-1.429 -2.43843e-08 6.97459e-09c.530991-.151878 1.08457.155453 1.23644.686444 .02563.0896065.0386075.182356.0385557.275556v6.17397"></path></g></svg>