<?xml version="1.0" encoding="UTF-8"?><svg version="1.1" viewBox="0 0 24 24" xmlns="http://www.w3.org/2000/svg" xmlns:xlink="http://www.w3.org/1999/xlink"><g stroke-linecap="round" stroke-width="1" stroke="#000" fill="none" stroke-linejoin="round"><path d="M20.5 23.5h-4.37114e-08c.552285 2.41411e-08 1-.447715 1-1v-16.025 0c0-3.2999-2.6751-5.975-5.975-5.975h-12.025l-4.37114e-08 3.55271e-15c-.552285 2.41411e-08-1 .447715-1 1 0 0 0 0 0 0v21l1.15463e-14 1.50996e-07c8.33927e-08.552285.447715 1 1 1Z"></path><path d="M16.5.58v3.92l1.06581e-14 1.50996e-07c8.33927e-08.552285.447715 1 1 1h3.92"></path><polyline points="5.5,18.5 5.5,12.5 7,15.5 8.5,12.5 8.5,18.5"></polyline><path d="M13.5 14v0c0 .828427-.671573 1.5-1.5 1.5h-1.5v-3h1.5l-6.55671e-08 1.77636e-15c.828427-3.62117e-08 1.5.671573 1.5 1.5Z"></path><line x1="10.5" x2="10.5" y1="18.5" y2="15.5"></line><path d="M15.5 13.7l-6.06621e-08-7.36321e-07c-.0499126-.605845.395087-1.13984 1-1.2h.757l-1.09141e-08-1.13674e-09c.753466.0784761 1.30585.74507 1.243 1.5l4.43062e-08 5.3e-07c.0632709.756863-.492254 1.42456-1.248 1.5l1.21183e-08 1.20967e-09c.755747.0754394 1.31127.743137 1.248 1.5l2.88787e-09 3.46877e-08c.0628505.754931-.489533 1.42152-1.243 1.5h-.757l-9.07355e-08-9.02324e-09c-.604914-.060156-1.04991-.594155-1-1.2"></path></g></svg>