<?xml version="1.0" encoding="utf-8"?>
<!-- Generator: Adobe Illustrator 24.0.0, SVG Export Plug-In . SVG Version: 6.00 Build 0)  -->
<svg version="1.1" id="Light" xmlns="http://www.w3.org/2000/svg" xmlns:xlink="http://www.w3.org/1999/xlink" x="0px" y="0px"
	 viewBox="0 0 15 15" style="enable-background:new 0 0 15 15;" xml:space="preserve">
<style type="text/css">
	.st0{fill:none;stroke:#000000;stroke-width:1;stroke-linecap:round;stroke-linejoin:round;}
</style>
<g>
	<path class="st0" d="M10.8,5.4c0.2,0,0.3,0.1,0.3,0.3c0,0,0,0,0,0c-0.2,2-2,3.5-4,3.3C5.4,8.8,4,7.4,3.8,5.7c0-0.2,0.1-0.3,0.3-0.3
		c0,0,0,0,0,0H10.8z"/>
	<path class="st0" d="M5.4,4.2c0.2-0.2,0.4-0.6,0.5-0.9c0-0.7-0.9-1.1-0.9-1.8c0-0.3,0.2-0.7,0.5-0.9"/>
	<path class="st0" d="M9.6,4.2c0.2-0.2,0.4-0.6,0.5-0.9c0-0.7-0.9-1.1-0.9-1.8c0-0.3,0.2-0.7,0.5-0.9"/>
	<path class="st0" d="M7.5,4.2C7.7,3.9,7.9,3.6,8,3.2C8,2.5,7,2.1,7,1.4c0-0.3,0.2-0.7,0.5-0.9"/>
	<line class="st0" x1="2.9" y1="14.5" x2="5.8" y2="8.6"/>
	<line class="st0" x1="12.1" y1="14.5" x2="9.2" y2="8.6"/>
	<line class="st0" x1="11.2" y1="12.7" x2="3.8" y2="12.7"/>
</g>
</svg>
