<?xml version="1.0" encoding="UTF-8"?><svg version="1.1" viewBox="0 0 24 24" xmlns="http://www.w3.org/2000/svg" xmlns:xlink="http://www.w3.org/1999/xlink"><g stroke-linecap="round" stroke-width="1" stroke="#000" fill="none" stroke-linejoin="round"><path d="M17.5 8.5l6.66108e-09-9.01146e-12c.276142-.000373607.500302.223181.500676.499323 1.20369e-05.00889674-.000213385.0177922-.000676024.0266769l2.12208e-07-2.27702e-06c-.308822 3.31371-3.24546 5.74965-6.55917 5.44083 -2.88615-.268975-5.17185-2.55468-5.44083-5.44083l3.52943e-09 6.77805e-08c-.0143597-.275769.197554-.510964.473323-.525324 .00888471-.00046264.0177802-.000688063.0266769-.000676027Z"></path><path d="M8.5 6.5l3.68015e-08-3.64967e-08c.407654-.404278.67117-.931309.75-1.5 0-1.195-1.5-1.805-1.5-3l-4.98206e-08 3.59414e-07c.0788297-.568691.342345-1.09572.75-1.5"></path><path d="M15.5 6.5l3.68015e-08-3.64967e-08c.407654-.404278.67117-.931309.75-1.5 0-1.195-1.5-1.805-1.5-3l-4.98206e-08 3.59414e-07c.0788297-.568691.342345-1.09572.75-1.5"></path><path d="M12 6.5l3.68015e-08-3.64967e-08c.407654-.404278.67117-.931309.75-1.5 0-1.195-1.5-1.805-1.5-3l-4.98206e-08 3.59414e-07c.0788297-.568691.342345-1.09572.75-1.5"></path><line x1="4.5" x2="9.13" y1="23.5" y2="13.77"></line><line x1="19.5" x2="14.87" y1="23.5" y2="13.77"></line><line x1="18.07" x2="5.93" y1="20.5" y2="20.5"></line></g></svg>