<?xml version="1.0" encoding="UTF-8"?><svg version="1.1" viewBox="0 0 24 24" xmlns="http://www.w3.org/2000/svg" xmlns:xlink="http://www.w3.org/1999/xlink"><g stroke-linecap="round" stroke-width="1" stroke="#000" fill="none" stroke-linejoin="round"><path d="M7.741 5.55l-6.30565e-07 6.30594e-07c2.35207-2.35218 6.16563-2.35227 8.51781-.000192977 6.39068e-05 6.39039e-05.000127812.000127809.000191716.000191716"></path><path d="M5.417 3.227l-4.84099e-08 4.84179e-08c3.63509-3.63569 9.52922-3.63618 13.1649-.00108609 .000362027.000361968.000724025.000723965.00108599.00108599"></path><line x1="12" x2="12" y1="17.5" y2="20.5"></line><rect width="15" height="15" x="4.5" y="8.5" rx="1.10456" ry="0"></rect><circle cx="12" cy="15.5" r="2"></circle><path d="M16 15.5v0c0-2.20914-1.79086-4-4-4 -2.20914 0-4 1.79086-4 4"></path></g></svg>