<?xml version="1.0" encoding="utf-8"?>
<!-- Generator: Adobe Illustrator 24.0.0, SVG Export Plug-In . SVG Version: 6.00 Build 0)  -->
<svg version="1.1" id="Laag_1" xmlns="http://www.w3.org/2000/svg" xmlns:xlink="http://www.w3.org/1999/xlink" x="0px" y="0px"
	 viewBox="0 0 15 15" style="enable-background:new 0 0 15 15;" xml:space="preserve">
<style type="text/css">
	.st0{fill:none;stroke:#000000;stroke-width:1;stroke-linecap:round;stroke-linejoin:round;}
</style>
<g>
	<path class="st0" d="M4.9,3.6c1.4-1.4,3.8-1.4,5.2,0c0,0,0,0,0,0"/>
	<path class="st0" d="M3.5,2.2c2.2-2.2,5.8-2.2,8,0c0,0,0,0,0,0"/>
	<line class="st0" x1="7.5" y1="10.8" x2="7.5" y2="12.7"/>
	<path class="st0" d="M4.2,5.4h6.7c0.7,0,1.2,0.5,1.2,1.2v6.7c0,0.7-0.5,1.2-1.2,1.2H4.2c-0.7,0-1.2-0.5-1.2-1.2V6.6
		C2.9,5.9,3.5,5.4,4.2,5.4z"/>
	<circle class="st0" cx="7.5" cy="9.6" r="1.2"/>
	<path class="st0" d="M9.9,9.6c0-1.3-1.1-2.4-2.4-2.4S5.1,8.3,5.1,9.6"/>
</g>
</svg>
