<?xml version="1.0" encoding="UTF-8"?><svg version="1.1" viewBox="0 0 24 24" xmlns="http://www.w3.org/2000/svg" xmlns:xlink="http://www.w3.org/1999/xlink"><g stroke-linecap="round" stroke-width="1" stroke="#000" fill="none" stroke-linejoin="round"><path d="M21 4.5l-1.812 17.209 -9.80286e-09 9.32938e-08c-.10693 1.01766-.964742 1.79046-1.988 1.791h-10.4l9.47107e-08 2.35545e-12c-1.02364-2.54265e-05-1.88203-.772964-1.989-1.791l-1.811-17.209"></path><line x1=".5" x2="23.5" y1="4.5" y2="4.5"></line><path d="M7.5 4.5v-3l1.15463e-14 1.50996e-07c-8.33927e-08-.552285.447715-1 1-1h7l-4.37114e-08 9.99201e-16c.552285-2.41411e-08 1 .447715 1 1v3"></path><line x1="12" x2="12" y1="9" y2="19.5"></line><line x1="16.5" x2="16" y1="9" y2="19.5"></line><line x1="7.5" x2="8" y1="9" y2="19.5"></line></g></svg>