<?xml version="1.0" encoding="UTF-8"?><svg version="1.1" viewBox="0 0 24 24" xmlns="http://www.w3.org/2000/svg" xmlns:xlink="http://www.w3.org/1999/xlink"><g stroke-linecap="round" stroke-width="1" stroke="#000" fill="none" stroke-linejoin="round"><path d="M20.5 3.5v19 0c0 .552285-.447715 1-1 1h-15 -4.37114e-08c-.552285-2.41411e-08-1-.447715-1-1 0 0 0-3.55271e-15 0-3.55271e-15v-19"></path><path d="M7.5 3.5v-2l1.15463e-14 1.50996e-07c-8.33927e-08-.552285.447715-1 1-1h7l-4.37114e-08 9.99201e-16c.552285-2.41411e-08 1 .447715 1 1v2"></path><line x1=".5" x2="23.5" y1="3.5" y2="3.5"></line><line x1="7.5" x2="7.5" y1="7" y2="19"></line><line x1="12" x2="12" y1="7" y2="19"></line><line x1="16.5" x2="16.5" y1="7" y2="19"></line></g></svg>