<?xml version="1.0" encoding="utf-8"?>
<!-- Generator: Adobe Illustrator 24.1.1, SVG Export Plug-In . SVG Version: 6.00 Build 0)  -->
<svg version="1.1" id="Layer_1" xmlns="http://www.w3.org/2000/svg" xmlns:xlink="http://www.w3.org/1999/xlink" x="0px" y="0px"
	 viewBox="0 0 15 15" style="enable-background:new 0 0 15 15;" xml:space="preserve">
<style type="text/css">
	.st0{fill:none;stroke:#000000;stroke-width:1.25;stroke-linecap:round;stroke-linejoin:round;}
</style>
<g>
	<path class="st0" d="M12.7,2.3v11.6l0,0c0,0.3-0.3,0.6-0.6,0.6H2.9l0,0c-0.3,0-0.6-0.3-0.6-0.6l0,0V2.3"/>
	<path class="st0" d="M4.8,2.3V1.1l0,0c0-0.3,0.3-0.6,0.6-0.6h4.3l0,0c0.3,0,0.6,0.3,0.6,0.6v1.2"/>
	<line class="st0" x1="0.5" y1="2.3" x2="14.5" y2="2.3"/>
	<line class="st0" x1="4.8" y1="4.5" x2="4.8" y2="11.8"/>
	<line class="st0" x1="7.5" y1="4.5" x2="7.5" y2="11.8"/>
	<line class="st0" x1="10.2" y1="4.5" x2="10.2" y2="11.8"/>
</g>
</svg>
