<?xml version="1.0" encoding="UTF-8"?><svg version="1.1" viewBox="0 0 24 24" xmlns="http://www.w3.org/2000/svg" xmlns:xlink="http://www.w3.org/1999/xlink"><g stroke-linecap="round" stroke-width="1" stroke="#000" fill="none" stroke-linejoin="round"><circle cx="5.5" cy="18.5" r="5"></circle><path d="M10.5 7v-4l-6.46205e-08-5.6407e-08c-.859334-.750109-2.14067-.750109-3 1.12814e-07l-1.5 4 -1.5 1.5 -3 7"></path><circle cx="18.5" cy="18.5" r="5"></circle><path d="M13.5 7v-3.937l1.68173e-08-1.46798e-08c.859334-.750109 2.14067-.750109 3 2.93596e-08l1.5 3.937 1.5 1.5 3 7"></path><path d="M8 11c0-1.1 1.791-2 4-2 2.209 0 4 .895 4 2"></path><line x1="10.5" x2="10.5" y1="18.5" y2="9.15"></line><line x1="13.5" x2="13.5" y1="18.5" y2="9.15"></line></g></svg>