<?xml version="1.0" encoding="utf-8"?>
<!-- Generator: Adobe Illustrator 24.0.0, SVG Export Plug-In . SVG Version: 6.00 Build 0)  -->
<svg version="1.1" id="Laag_1" xmlns="http://www.w3.org/2000/svg" xmlns:xlink="http://www.w3.org/1999/xlink" x="0px" y="0px"
	 viewBox="0 0 15 15" style="enable-background:new 0 0 15 15;" xml:space="preserve">
<style type="text/css">
	.st0{fill:none;stroke:#000000;stroke-width:1;stroke-linecap:round;stroke-linejoin:round;}
</style>
<g>
	<path class="st0" d="M7.5,3.4c0-1.2,2.9-2.1,6.3-2.2c0.4,0,0.6,0.3,0.7,0.6c0,0,0,0,0,0V11c0,0.3-0.3,0.6-0.6,0.6
		c-3.5,0.1-6.4,1.1-6.4,2.2c0-1.2-2.9-2.1-6.4-2.2c-0.3,0-0.6-0.3-0.6-0.6V1.8c0-0.4,0.3-0.6,0.6-0.6c0,0,0,0,0,0
		C4.6,1.3,7.5,2.2,7.5,3.4z"/>
	<line class="st0" x1="7.5" y1="3.4" x2="7.5" y2="13.8"/>
</g>
</svg>
