<?xml version="1.0" encoding="UTF-8"?><svg version="1.1" viewBox="0 0 24 24" xmlns="http://www.w3.org/2000/svg" xmlns:xlink="http://www.w3.org/1999/xlink"><g stroke-linecap="round" stroke-width="1" stroke="#000" fill="none" stroke-linejoin="round"><path d="M12 5.492c0-1.819 4.556-3.313 9.968-3.484l2.86992e-09-9.18838e-11c.552002-.0176732 1.01381.415486 1.03149.967488 .000346865.0108339.000517555.0216728.000512004.0325123v14.5l4.16896e-08.000104831c.000186713.540778-.429568.983732-.970105.999898 -5.4389.159997-10.0299 1.658-10.0299 3.484 0-1.826-4.591-3.324-10.03-3.486l-2.53498e-08-7.60835e-10c-.540535-.0162233-.970243-.459222-.97-1v-14.498l-1.19747e-08-2.39415e-05c-.000269622-.552285.447227-1.00022.999512-1.00049 .0108395-5.29177e-06.0216783.000165658.0325123.000512783 5.41098.170999 9.96798 1.665 9.96798 3.484Z"></path><line x1="12" x2="12" y1="5.49" y2="21.87"></line></g></svg>