<?xml version="1.0" encoding="UTF-8"?><svg version="1.1" viewBox="0 0 24 24" xmlns="http://www.w3.org/2000/svg" xmlns:xlink="http://www.w3.org/1999/xlink"><path d="M16.5 6.741h2l-4.37114e-08-8.88178e-16c.552285 2.41411e-08 1-.447715 1-1v-1.5 -4.37114e-08c0-1.933-1.567-3.5-3.5-3.5 0 0-4.37114e-08 4.44089e-16-4.37114e-08 4.44089e-16h-8l-1.5299e-07 3.10862e-15c-1.933 8.4494e-08-3.5 1.567-3.5 3.5 0 0 0 8.88178e-16 0 8.88178e-16v18.5c0 .55.318.681.707.293l4.293-4.293 4.293 4.293c.389.388.707.257.707-.293v-18l2.30926e-14 3.01992e-07c-1.66785e-07-1.10457.89543-2 2-2" stroke-linecap="round" stroke-width="1" stroke="#000" fill="none" stroke-linejoin="round"></path></svg>