<?xml version="1.0" encoding="UTF-8"?><svg version="1.1" viewBox="0 0 24 24" xmlns="http://www.w3.org/2000/svg" xmlns:xlink="http://www.w3.org/1999/xlink"><g stroke-linecap="round" stroke-width="1" stroke="#000" fill="none" stroke-linejoin="round"><path d="M10.5 23.5v-3.5l1.77636e-14 2.26494e-07c-1.25089e-07-.828427.671573-1.5 1.5-1.5 .828427-1.25089e-07 1.5.671573 1.5 1.5 0 0 0 3.55271e-15 0 3.55271e-15v3.5"></path><path d="M8.5 16.5h-3v-3l1.68754e-14 2.26494e-07c-1.25089e-07-.828427.671573-1.5 1.5-1.5 .828427-1.25089e-07 1.5.671573 1.5 1.5 0 0 0 1.77636e-15 0 1.77636e-15Z"></path><path d="M8.5 10h-3v-3l1.68754e-14 2.26494e-07c-1.25089e-07-.828427.671573-1.5 1.5-1.5 .828427-1.25089e-07 1.5.671573 1.5 1.5 0 0 0 8.88178e-16 0 8.88178e-16Z"></path><path d="M13.5 16.5h-3v-3l1.77636e-14 2.26494e-07c-1.25089e-07-.828427.671573-1.5 1.5-1.5 .828427-1.25089e-07 1.5.671573 1.5 1.5 0 0 0 1.77636e-15 0 1.77636e-15Z"></path><path d="M13.5 10h-3v-3l1.77636e-14 2.26494e-07c-1.25089e-07-.828427.671573-1.5 1.5-1.5 .828427-1.25089e-07 1.5.671573 1.5 1.5 0 0 0 8.88178e-16 0 8.88178e-16Z"></path><path d="M18.5 16.5h-3v-3l1.77636e-14 2.26494e-07c-1.25089e-07-.828427.671573-1.5 1.5-1.5 .828427-1.25089e-07 1.5.671573 1.5 1.5 0 0 0 1.77636e-15 0 1.77636e-15Z"></path><path d="M18.5 10h-3v-3l1.77636e-14 2.26494e-07c-1.25089e-07-.828427.671573-1.5 1.5-1.5 .828427-1.25089e-07 1.5.671573 1.5 1.5 0 0 0 8.88178e-16 0 8.88178e-16Z"></path><path d="M20.5 3.8l2.51624e-08-.000224332c0-.197532-.0585015-.39064-.168124-.554962l-1.53188-2.29981 -8.60993e-09-1.2905e-08c-.186113-.278956-.499659-.446055-.835-.445h-11.93l1.05754e-08 3.32747e-11c-.335341-.00105511-.648887.166044-.835.445l-1.535 2.3 2.45258e-08-3.72161e-08c-.108527.164681-.165933.357777-.165.555v18.7l1.06581e-14 1.50996e-07c8.33927e-08.552285.447715 1 1 1h15 -4.37114e-08c.552285 2.41411e-08 1-.447715 1-1Z"></path><line x1="3.55" x2="20.45" y1="3.5" y2="3.5"></line></g></svg>