<?xml version="1.0" encoding="utf-8"?>
<!-- Generator: Adobe Illustrator 24.0.0, SVG Export Plug-In . SVG Version: 6.00 Build 0)  -->
<svg version="1.1" id="Laag_1" xmlns="http://www.w3.org/2000/svg" xmlns:xlink="http://www.w3.org/1999/xlink" x="0px" y="0px"
	 viewBox="0 0 15 15" style="enable-background:new 0 0 15 15;" xml:space="preserve">
<style type="text/css">
	.st0{fill:none;stroke:#000000;stroke-width:1;stroke-linecap:round;stroke-linejoin:round;}
</style>
<g>
	<path class="st0" d="M6.6,14.5v-2.1c0-0.5,0.4-0.9,0.9-0.9s0.9,0.4,0.9,0.9v2.1"/>
	<path class="st0" d="M5.4,10.2H3.5V8.4c0-0.5,0.4-0.9,0.9-0.9s0.9,0.4,0.9,0.9V10.2z"/>
	<path class="st0" d="M5.4,6.3H3.5V4.5C3.5,4,4,3.5,4.5,3.5S5.4,4,5.4,4.5V6.3z"/>
	<path class="st0" d="M8.4,10.2H6.6V8.4c0-0.5,0.4-0.9,0.9-0.9s0.9,0.4,0.9,0.9V10.2z"/>
	<path class="st0" d="M8.4,6.3H6.6V4.5C6.6,4,7,3.5,7.5,3.5S8.4,4,8.4,4.5V6.3z"/>
	<path class="st0" d="M11.5,10.2H9.6V8.4c0-0.5,0.4-0.9,0.9-0.9s0.9,0.4,0.9,0.9V10.2z"/>
	<path class="st0" d="M11.5,6.3H9.6V4.5c0-0.5,0.4-0.9,0.9-0.9s0.9,0.4,0.9,0.9V6.3z"/>
	<path class="st0" d="M12.7,2.5c0-0.1,0-0.2-0.1-0.3l-0.9-1.4c-0.1-0.2-0.3-0.3-0.5-0.3H3.9c-0.2,0-0.4,0.1-0.5,0.3L2.4,2.2
		C2.4,2.3,2.3,2.4,2.3,2.5v11.4c0,0.3,0.3,0.6,0.6,0.6h9.1c0.3,0,0.6-0.3,0.6-0.6V2.5z"/>
	<line class="st0" x1="2.4" y1="2.3" x2="12.6" y2="2.3"/>
</g>
</svg>
