<?xml version="1.0" encoding="UTF-8"?><svg version="1.1" viewBox="0 0 24 24" xmlns="http://www.w3.org/2000/svg" xmlns:xlink="http://www.w3.org/1999/xlink"><g stroke-linecap="round" stroke-width="1" stroke="#000" fill="none" stroke-linejoin="round"><circle cx="18.5" cy="18" r="2"></circle><circle cx="4" cy="18" r="2"></circle><line x1="16.5" x2="6" y1="18" y2="18"></line><line x1="23.5" x2="20.5" y1="18" y2="18"></line><path d="M2 18h-.5 -4.37114e-08c-.552285-2.41411e-08-1-.447715-1-1 0 0 0-3.55271e-15 0-3.55271e-15v-12l1.06581e-14 1.50996e-07c-8.33927e-08-.552285.447715-1 1-1h18l-4.37114e-08 1.77636e-15c.552285-2.41411e-08 1 .447715 1 1v7h1l-4.37114e-08 1.77636e-15c.552285-2.41411e-08 1 .447715 1 1v5"></path><path d="M20.5 12h-2l-4.37114e-08-1.77636e-15c-.552285-2.41411e-08-1-.447715-1-1 0 0 0 0 0 0v-3l1.06581e-14 1.50996e-07c-8.33927e-08-.552285.447715-1 1-1h2"></path></g><g transform="matrix(1 0 0 1 24.999 18)"><path fill="none" stroke="#000" stroke-linecap="round" stroke-linejoin="round" stroke-width="1" d="M11 7h3.5v4h-3l-4.37114e-08-1.77636e-15c-.552285-2.41411e-08-1-.447715-1-1 0 0 0 0 0 0v-2.5l3.55271e-15 7.54979e-08c-4.16963e-08-.276142.223858-.5.5-.5Z" transform="matrix(-1 -1.22465e-16 1.22465e-16 -1 0 0)"></path></g><g transform="matrix(1 0 0 1 16.999 18)"><rect width="4" height="4" x="6.5" y="7" fill="none" stroke="#000" stroke-linecap="round" stroke-linejoin="round" stroke-width="1" transform="matrix(-1 -1.22465e-16 1.22465e-16 -1 0 0)"></rect></g><g transform="matrix(1 0 0 1 9 18)"><path fill="none" stroke="#000" stroke-linecap="round" stroke-linejoin="round" stroke-width="1" d="M2.5 7h3.5l-2.18557e-08 8.88178e-16c.276142-1.20706e-08.5.223858.5.5v2.5 0c0 .552285-.447715 1-1 1h-3v-4Z" transform="matrix(-1 -1.22465e-16 1.22465e-16 -1 0 0)"></path></g><line x1="22.5" x2=".5" y1="14" y2="14" stroke-linecap="round" stroke-width="1" stroke="#000" fill="none" stroke-linejoin="round"></line></svg>