<?xml version="1.0" encoding="utf-8"?>
<!-- Generator: Adobe Illustrator 24.0.0, SVG Export Plug-In . SVG Version: 6.00 Build 0)  -->
<svg version="1.1" id="Laag_1" xmlns="http://www.w3.org/2000/svg" xmlns:xlink="http://www.w3.org/1999/xlink" x="0px" y="0px"
	 viewBox="0 0 15 15" style="enable-background:new 0 0 15 15;" xml:space="preserve">
<style type="text/css">
	.st0{fill:none;stroke:#000000;stroke-width:1;stroke-linecap:round;stroke-linejoin:round;}
</style>
<g>
	<circle class="st0" cx="11.5" cy="11.2" r="1.2"/>
	<circle class="st0" cx="2.6" cy="11.2" r="1.2"/>
	<line class="st0" x1="10.2" y1="11.2" x2="3.8" y2="11.2"/>
	<line class="st0" x1="14.5" y1="11.2" x2="12.7" y2="11.2"/>
	<path class="st0" d="M1.4,11.2H1.1c-0.3,0-0.6-0.3-0.6-0.6V3.2c0-0.3,0.3-0.6,0.6-0.6h11c0.3,0,0.6,0.3,0.6,0.6v4.3h0.6
		c0.3,0,0.6,0.3,0.6,0.6v3"/>
	<path class="st0" d="M12.7,7.5h-1.2c-0.3,0-0.6-0.3-0.6-0.6V5.1c0-0.3,0.3-0.6,0.6-0.6h1.2"/>
	<path class="st0" d="M8.7,6.9H6.6l0,0V4.5l0,0h1.8C8.7,4.5,9,4.7,9,5.1v1.5C9,6.8,8.9,6.9,8.7,6.9z"/>
	<rect x="4.2" y="4.5" class="st0" width="2.4" height="2.4"/>
	<path class="st0" d="M4.2,6.9H2c-0.2,0-0.3-0.1-0.3-0.3V5.1c0-0.3,0.3-0.6,0.6-0.6h1.8l0,0V6.9L4.2,6.9z"/>
	<line class="st0" x1="13.9" y1="8.7" x2="0.5" y2="8.7"/>
</g>
</svg>
