<?xml version="1.0" encoding="utf-8"?>
<!-- Generator: Adobe Illustrator 24.0.0, SVG Export Plug-In . SVG Version: 6.00 Build 0)  -->
<svg version="1.1" id="Laag_1" xmlns="http://www.w3.org/2000/svg" xmlns:xlink="http://www.w3.org/1999/xlink" x="0px" y="0px"
	 viewBox="0 0 15 15" style="enable-background:new 0 0 15 15;" xml:space="preserve">
<style type="text/css">
	.st0{fill:none;stroke:#000000;stroke-width:1;stroke-linecap:round;stroke-linejoin:round;}
</style>
<g>
	<path class="st0" d="M7.5,0.5c-2.4,0-4.3,1.9-4.3,4.3l1.1,6.8c0,0.3,0.3,0.5,0.6,0.5H10c0.3,0,0.6-0.2,0.6-0.5l1.1-6.8
		C11.8,2.4,9.9,0.5,7.5,0.5z"/>
	<line class="st0" x1="7.5" y1="12.1" x2="7.5" y2="14.5"/>
	<path class="st0" d="M9.9,4.8c0-1.3-1.1-2.4-2.4-2.4S5.1,3.4,5.1,4.8H9.9z"/>
	<path class="st0" d="M5.1,6.6V6.3C5.1,6.1,5.2,6,5.4,6h4.3c0.2,0,0.3,0.1,0.3,0.3v0.3"/>
	<circle class="st0" cx="7.5" cy="9.6" r="0.9"/>
	<line class="st0" x1="7.5" y1="4.8" x2="8.4" y2="3.9"/>
</g>
</svg>
