<?xml version="1.0" encoding="UTF-8"?><svg version="1.1" viewBox="0 0 24 24" xmlns="http://www.w3.org/2000/svg" xmlns:xlink="http://www.w3.org/1999/xlink"><g stroke-linecap="round" stroke-width="1" stroke="#000" fill="none" stroke-linejoin="round"><path d="M12 .5l-3.0598e-07 7.10543e-15c-3.86599 1.68988e-07-7 3.13401-7 7 0 0 0 3.55271e-15 0 3.55271e-15l1.861 11.164 -4.59042e-08-2.76114e-07c.080166.4822.497182.835775.986.836h8.306l-1.38551e-08 6.38067e-12c.488818-.000225024.905834-.3538.986-.836l1.861-11.164v0c0-3.86599-3.13401-7-7-7Z"></path><line x1="12" x2="12" y1="19.5" y2="23.5"></line><path d="M16 7.5v0c0-2.20914-1.79086-4-4-4 -2.20914 4.44089e-16-4 1.79086-4 4Z"></path><path d="M8 10.5v-.5l5.32907e-15 7.54979e-08c-4.16963e-08-.276142.223858-.5.5-.5h7 -2.18557e-08c.276142-1.20706e-08.5.223858.5.5v.5"></path><circle cx="12" cy="15.5" r="1.5"></circle><line x1="12" x2="13.41" y1="7.5" y2="6.09"></line></g></svg>