<?xml version="1.0" encoding="utf-8"?>
<!-- Generator: Adobe Illustrator 24.0.0, SVG Export Plug-In . SVG Version: 6.00 Build 0)  -->
<svg version="1.1" id="Laag_1" xmlns="http://www.w3.org/2000/svg" xmlns:xlink="http://www.w3.org/1999/xlink" x="0px" y="0px"
	 viewBox="0 0 15 15" style="enable-background:new 0 0 15 15;" xml:space="preserve">
<style type="text/css">
	.st0{fill:none;stroke:#000000;stroke-width:1;stroke-linecap:round;stroke-linejoin:round;}
</style>
<g>
	<path class="st0" d="M1.1,1.8h12.7c0.4,0,0.6,0.3,0.6,0.6v11.5c0,0.4-0.3,0.6-0.6,0.6H1.1c-0.4,0-0.6-0.3-0.6-0.6V2.4
		C0.5,2.1,0.8,1.8,1.1,1.8z"/>
	<line class="st0" x1="2.4" y1="0.5" x2="2.4" y2="2.4"/>
	<line class="st0" x1="5" y1="0.5" x2="5" y2="2.4"/>
	<line class="st0" x1="7.5" y1="0.5" x2="7.5" y2="2.4"/>
	<line class="st0" x1="10" y1="0.5" x2="10" y2="2.4"/>
	<line class="st0" x1="12.6" y1="0.5" x2="12.6" y2="2.4"/>
	<path class="st0" d="M8.1,5H10l0,0v2.5l0,0H7.5l0,0V5.6C7.5,5.2,7.8,5,8.1,5z"/>
	<path class="st0" d="M10,5H12c0.4,0,0.6,0.3,0.6,0.6v1.9l0,0H10l0,0V5L10,5z"/>
	<rect x="7.5" y="7.5" class="st0" width="2.5" height="2.5"/>
	<rect x="10" y="7.5" class="st0" width="2.5" height="2.5"/>
	<rect x="7.5" y="10" class="st0" width="2.5" height="2.5"/>
	<path class="st0" d="M10,10h2.5l0,0V12c0,0.4-0.3,0.6-0.6,0.6H10l0,0V10L10,10z"/>
	<path class="st0" d="M3,7.5H5l0,0V10l0,0H2.4l0,0V8.1C2.4,7.8,2.7,7.5,3,7.5z"/>
	<rect x="5" y="7.5" class="st0" width="2.5" height="2.5"/>
	<path class="st0" d="M2.4,10H5l0,0v2.5l0,0H3c-0.4,0-0.6-0.3-0.6-0.6V10L2.4,10z"/>
	<rect x="5" y="10" class="st0" width="2.5" height="2.5"/>
</g>
</svg>
