<?xml version="1.0" encoding="UTF-8"?><svg version="1.1" viewBox="0 0 24 24" xmlns="http://www.w3.org/2000/svg" xmlns:xlink="http://www.w3.org/1999/xlink"><g stroke-linecap="round" stroke-width="1" stroke="#000" fill="none" stroke-linejoin="round"><path d="M17.5 20.5h-1.09278e-08c.138071-6.03528e-09.25.111929.25.25 6.03528e-09.138071-.111929.25-.25.25 -.138071 6.03528e-09-.25-.111929-.25-.25l3.55271e-15 3.7749e-08c-2.08482e-08-.138071.111929-.25.25-.25"></path><line x1="17.5" x2="17.5" y1="18.5" y2="15.5"></line><path d="M18.338 12.5l1.74645e-08 3.27045e-08c-.247147-.462815-.822685-.637648-1.2855-.3905 -.165964.0886261-.301874.224537-.3905.3905l-5.056 9.634 -2.04752e-08 3.89642e-08c-.151912.289088-.140129.636857.031.915l4.62894e-08 7.45652e-08c.17323.279047.478556.448547.807.448h10.112l3.46157e-09 5.7625e-12c.328444.00054656.63377-.168953.807-.448l1.42056e-08-2.3089e-08c.171129-.278143.182912-.625912.031-.915Z"></path><path d="M9.5 18.5h-8 -4.37114e-08c-.552285-2.41411e-08-1-.447715-1-1 0 0 0-3.55271e-15 0-3.55271e-15v-14l1.06581e-14 1.50996e-07c-8.33927e-08-.552285.447715-1 1-1h18l-4.37114e-08 8.88178e-16c.552285-2.41411e-08 1 .447715 1 1v6.5"></path><line x1="5.5" x2="5.5" y1=".5" y2="5.5"></line><line x1="15.5" x2="15.5" y1=".5" y2="5.5"></line><line x1=".5" x2="20.5" y1="7.5" y2="7.5"></line></g></svg>