<?xml version="1.0" encoding="utf-8"?>
<!-- Generator: Adobe Illustrator 24.0.0, SVG Export Plug-In . SVG Version: 6.00 Build 0)  -->
<svg version="1.1" id="Laag_1" xmlns="http://www.w3.org/2000/svg" xmlns:xlink="http://www.w3.org/1999/xlink" x="0px" y="0px"
	 viewBox="0 0 15 15" style="enable-background:new 0 0 15 15;" xml:space="preserve">
<style type="text/css">
	.st0{fill:none;stroke:#000000;stroke-width:1;stroke-linecap:round;stroke-linejoin:round;}
</style>
<g>
	<path class="st0" d="M1.1,1.7h12.8c0.3,0,0.6,0.3,0.6,0.6v11.6c0,0.3-0.3,0.6-0.6,0.6H1.1c-0.3,0-0.6-0.3-0.6-0.6V2.3
		C0.5,2,0.8,1.7,1.1,1.7z"/>
	<line class="st0" x1="3.5" y1="0.5" x2="3.5" y2="3.5"/>
	<line class="st0" x1="11.5" y1="0.5" x2="11.5" y2="3.5"/>
	<line class="st0" x1="0.5" y1="4.8" x2="14.5" y2="4.8"/>
	<line class="st0" x1="4.2" y1="11.8" x2="7.2" y2="11.8"/>
	<path class="st0" d="M5.7,11.8V7.2c0-0.2-0.1-0.3-0.3-0.3c-0.1,0-0.1,0-0.2,0.1l-1,0.8"/>
	<path class="st0" d="M9.6,11.8l1.8-4.4c0.1-0.1,0.1-0.2,0-0.3c-0.1-0.1-0.2-0.2-0.3-0.1H8.7C8.5,6.9,8.4,7,8.4,7.2v0.6"/>
</g>
</svg>
