<?xml version="1.0" encoding="UTF-8"?><svg version="1.1" viewBox="0 0 24 24" xmlns="http://www.w3.org/2000/svg" xmlns:xlink="http://www.w3.org/1999/xlink"><g stroke-linecap="round" stroke-width="1" stroke="#000" fill="none" stroke-linejoin="round"><rect width="22" height="20" x=".5" y="3.501" rx=".55228" ry="0"></rect><line x1="3.5" x2="3.5" y1="1.5" y2="4.5"></line><line x1="7.5" x2="7.5" y1="1.5" y2="4.5"></line><line x1="11.5" x2="11.5" y1="1.5" y2="4.5"></line><line x1="15.5" x2="15.5" y1="1.5" y2="4.5"></line><line x1="19.5" x2="19.5" y1="1.5" y2="4.5"></line><path d="M12.5 8.5h3v4h-4v-3l1.06581e-14 1.50996e-07c-8.33927e-08-.552285.447715-1 1-1Z"></path><path d="M15.5 8.5h3l-4.37114e-08 1.77636e-15c.552285-2.41411e-08 1 .447715 1 1v3h-4v-4Z"></path><rect width="4" height="4" x="11.5" y="12.501"></rect><rect width="4" height="4" x="15.5" y="12.501"></rect><rect width="4" height="4" x="11.5" y="16.501"></rect><path d="M15.5 16.5h4v3 0c0 .552285-.447715 1-1 1h-3v-4Z"></path><path d="M4.5 12.5h3v4h-4v-3l1.15463e-14 1.50996e-07c-8.33927e-08-.552285.447715-1 1-1Z"></path><rect width="4" height="4" x="7.5" y="12.501"></rect><path d="M3.5 16.5h4v4h-3 -4.37114e-08c-.552285-2.41411e-08-1-.447715-1-1 0 0 0-3.55271e-15 0-3.55271e-15v-3Z"></path><rect width="4" height="4" x="7.5" y="16.501"></rect></g></svg>