<?xml version="1.0" encoding="UTF-8"?><svg version="1.1" viewBox="0 0 24 24" xmlns="http://www.w3.org/2000/svg" xmlns:xlink="http://www.w3.org/1999/xlink"><g stroke-linecap="round" stroke-width="1" stroke="#000" fill="none" stroke-linejoin="round"><circle cx="17.75" cy="17.032" r="1.437"></circle><path d="M18.971 11.471l.424 1.392 -1.79208e-08-5.96143e-08c.144211.479725.635826.765334 1.124.653l1.412-.327 -1.08977e-07 2.45633e-08c.69124-.155805 1.37791.27825 1.53371.96949 .0932008.413491-.0238349.846329-.31271 1.15651l-.988 1.064 6.47127e-08-7.0007e-08c-.340768.368647-.340768.937353-1.29425e-07 1.306l.988 1.064 -2.17414e-08-2.33449e-08c.482918.518534.454045 1.33037-.0644897 1.81329 -.310181.288875-.743019.405911-1.15651.31271l-1.412-.327 6.61223e-08 1.48856e-08c-.486222-.10946-.974472.175025-1.119.652l-.424 1.392 3.56563e-08-1.18586e-07c-.20276.67434-.91379 1.05663-1.58813.853871 -.409908-.123251-.73062-.443962-.853871-.853871l-.429-1.392 -1.41731e-08-4.71472e-08c-.144211-.479725-.635826-.765333-1.124-.653l-1.412.327 -4.41815e-10 9.95861e-11c-.69124.155805-1.37791-.27825-1.53371-.96949 -.0932008-.413491.023835-.846329.31271-1.15651l.988-1.064 -5.03424e-09 5.4461e-09c.340768-.368647.340768-.937353 1.00685e-08-1.306l-.988-1.064 -5.47011e-08-5.87354e-08c-.482918-.518534-.454045-1.33037.0644898-1.81329 .310181-.288875.743019-.405911 1.15651-.31271l1.412.327 -1.04724e-07-2.40979e-08c.488174.112334.979789-.173275 1.124-.653l.424-1.392 -3.07668e-08 1.02173e-07c.203036-.674257.914222-1.05626 1.58848-.853221 .409858.123419.730438.444262.853521.854221Z"></path><path d="M9.5 18.5h-8 -4.37114e-08c-.552285-2.41411e-08-1-.447715-1-1 0 0 0-3.55271e-15 0-3.55271e-15v-14l1.06581e-14 1.50996e-07c-8.33927e-08-.552285.447715-1 1-1h18l-4.37114e-08 8.88178e-16c.552285-2.41411e-08 1 .447715 1 1v6.5"></path><line x1="5.5" x2="5.5" y1=".5" y2="5.5"></line><line x1="15.5" x2="15.5" y1=".5" y2="5.5"></line><line x1=".5" x2="20.5" y1="7.5" y2="7.5"></line></g></svg>