<?xml version="1.0" encoding="utf-8"?>
<!-- Generator: Adobe Illustrator 24.0.0, SVG Export Plug-In . SVG Version: 6.00 Build 0)  -->
<svg version="1.1" id="Laag_1" xmlns="http://www.w3.org/2000/svg" xmlns:xlink="http://www.w3.org/1999/xlink" x="0px" y="0px"
	 viewBox="0 0 15 15" style="enable-background:new 0 0 15 15;" xml:space="preserve">
<style type="text/css">
	.st0{fill:none;stroke:#000000;stroke-width:1;stroke-linecap:round;stroke-linejoin:round;}
</style>
<g>
	<path class="st0" d="M10.8,14.5l-3.1-3.2C7.2,10.7,7,9.8,7.4,9.1l0,0C7.8,8.2,9,7.8,9.9,8.3c0.2,0.1,0.3,0.2,0.5,0.3l0.5,0.5
		l0.5-0.5c0.7-0.7,1.9-0.7,2.6,0c0.1,0.1,0.3,0.3,0.3,0.5l0,0c0.4,0.7,0.2,1.6-0.3,2.1L10.8,14.5z"/>
	<path class="st0" d="M6,11.5H1.1c-0.3,0-0.6-0.3-0.6-0.6V2.3c0-0.3,0.3-0.6,0.6-0.6h11c0.3,0,0.6,0.3,0.6,0.6v4"/>
	<line class="st0" x1="3.5" y1="0.5" x2="3.5" y2="3.5"/>
	<line class="st0" x1="9.6" y1="0.5" x2="9.6" y2="3.5"/>
	<line class="st0" x1="0.5" y1="4.8" x2="12.7" y2="4.8"/>
</g>
</svg>
