<?xml version="1.0" encoding="UTF-8"?><svg version="1.1" viewBox="0 0 24 24" xmlns="http://www.w3.org/2000/svg" xmlns:xlink="http://www.w3.org/1999/xlink"><g stroke-linecap="round" stroke-width="1" stroke="#000" fill="none" stroke-linejoin="round"><path d="M17.5 23.5l-5.114-5.335 -1.51845e-07-1.51803e-07c-.920893-.920637-1.14929-2.32729-.567-3.492v0l-1.38375e-07 2.76634e-07c.747639-1.49465 2.56538-2.10023 4.06003-1.35259 .290722.145421.556112.336737.785969.56659l.835.835 .835-.835 -2.83468e-07 2.83464e-07c1.18173-1.18172 3.09769-1.1817 4.27941 3.05832e-05 .229853.229856.421168.495247.56659.785969v0l9.95334e-08 1.99088e-07c.582293 1.16471.353893 2.57136-.567 3.492Z"></path><path d="M9.5 18.5h-8 -4.37114e-08c-.552285-2.41411e-08-1-.447715-1-1 0 0 0-3.55271e-15 0-3.55271e-15v-14l1.06581e-14 1.50996e-07c-8.33927e-08-.552285.447715-1 1-1h18l-4.37114e-08 8.88178e-16c.552285-2.41411e-08 1 .447715 1 1v6.5"></path><line x1="5.5" x2="5.5" y1=".5" y2="5.5"></line><line x1="15.5" x2="15.5" y1=".5" y2="5.5"></line><line x1=".5" x2="20.5" y1="7.5" y2="7.5"></line></g></svg>