<?xml version="1.0" encoding="utf-8"?>
<!-- Generator: Adobe Illustrator 24.0.0, SVG Export Plug-In . SVG Version: 6.00 Build 0)  -->
<svg version="1.1" id="Laag_1" xmlns="http://www.w3.org/2000/svg" xmlns:xlink="http://www.w3.org/1999/xlink" x="0px" y="0px"
	 viewBox="0 0 15 15" style="enable-background:new 0 0 15 15;" xml:space="preserve">
<style type="text/css">
	.st0{fill:none;stroke:#000000;stroke-width:1;stroke-linecap:round;stroke-linejoin:round;}
</style>
<g>
	<polyline class="st0" points="9.3,11.5 7.2,11.5 7.2,13.6 	"/>
	<path class="st0" d="M14.1,12.2c-0.6,1.8-2.5,2.7-4.3,2.1c-1.3-0.4-2.1-1.5-2.3-2.9"/>
	<polyline class="st0" points="12.4,10.2 14.5,10.2 14.5,8.1 	"/>
	<path class="st0" d="M7.6,9.5c0.6-1.8,2.5-2.7,4.3-2.1c1.3,0.4,2.1,1.5,2.3,2.9"/>
	<path class="st0" d="M6,11.5H1.1c-0.3,0-0.6-0.3-0.6-0.6V2.3c0-0.3,0.3-0.6,0.6-0.6h11c0.3,0,0.6,0.3,0.6,0.6v4"/>
	<line class="st0" x1="3.5" y1="0.5" x2="3.5" y2="3.5"/>
	<line class="st0" x1="9.6" y1="0.5" x2="9.6" y2="3.5"/>
	<line class="st0" x1="0.5" y1="4.8" x2="12.7" y2="4.8"/>
</g>
</svg>
