<?xml version="1.0" encoding="utf-8"?>
<!-- Generator: Adobe Illustrator 24.0.0, SVG Export Plug-In . SVG Version: 6.00 Build 0)  -->
<svg version="1.1" id="Laag_1" xmlns="http://www.w3.org/2000/svg" xmlns:xlink="http://www.w3.org/1999/xlink" x="0px" y="0px"
	 viewBox="0 0 15 15" style="enable-background:new 0 0 15 15;" xml:space="preserve">
<style type="text/css">
	.st0{fill:none;stroke:#000000;stroke-width:1;stroke-linecap:round;stroke-linejoin:round;}
</style>
<g>
	<path class="st0" d="M1.1,1.7h12.8c0.3,0,0.6,0.3,0.6,0.6v11.6c0,0.3-0.3,0.6-0.6,0.6H1.1c-0.3,0-0.6-0.3-0.6-0.6V2.3
		C0.5,2,0.8,1.7,1.1,1.7z"/>
	<line class="st0" x1="3.5" y1="0.5" x2="3.5" y2="3.5"/>
	<line class="st0" x1="11.5" y1="0.5" x2="11.5" y2="3.5"/>
	<line class="st0" x1="0.5" y1="4.8" x2="14.5" y2="4.8"/>
	<line class="st0" x1="7.5" y1="4.8" x2="7.5" y2="14.5"/>
	<line class="st0" x1="3.8" y1="4.8" x2="3.8" y2="14.5"/>
	<line class="st0" x1="11.2" y1="4.8" x2="11.2" y2="14.5"/>
	<line class="st0" x1="0.5" y1="9.6" x2="14.5" y2="9.6"/>
	<line class="st0" x1="0.5" y1="7.2" x2="14.5" y2="7.2"/>
	<line class="st0" x1="0.5" y1="12.1" x2="14.5" y2="12.1"/>
</g>
</svg>
