<?xml version="1.0" encoding="utf-8"?>
<!-- Generator: Adobe Illustrator 24.0.0, SVG Export Plug-In . SVG Version: 6.00 Build 0)  -->
<svg version="1.1" id="Laag_1" xmlns="http://www.w3.org/2000/svg" xmlns:xlink="http://www.w3.org/1999/xlink" x="0px" y="0px"
	 viewBox="0 0 15 15" style="enable-background:new 0 0 15 15;" xml:space="preserve">
<style type="text/css">
	.st0{fill:none;stroke:#000000;stroke-width:1;stroke-linecap:round;stroke-linejoin:round;}
</style>
<g>
	<path class="st0" d="M10.8,12.7c0.1,0,0.2,0.1,0.2,0.2S10.9,13,10.8,13s-0.2-0.1-0.2-0.2C10.6,12.7,10.8,12.7,10.8,12.7"/>
	<line class="st0" x1="10.8" y1="11.5" x2="10.8" y2="9.6"/>
	<path class="st0" d="M11.4,7.8c-0.2-0.3-0.5-0.4-0.8-0.2c-0.1,0.1-0.2,0.1-0.2,0.2l-3.1,5.9c-0.1,0.2-0.1,0.4,0,0.6
		c0.1,0.2,0.3,0.3,0.5,0.3H14c0.2,0,0.4-0.1,0.5-0.3c0.1-0.2,0.1-0.4,0-0.6L11.4,7.8z"/>
	<path class="st0" d="M6,11.5H1.1c-0.3,0-0.6-0.3-0.6-0.6V2.3c0-0.3,0.3-0.6,0.6-0.6h10.9c0.3,0,0.6,0.3,0.6,0.6v4"/>
	<line class="st0" x1="3.5" y1="0.6" x2="3.5" y2="3.5"/>
	<line class="st0" x1="9.6" y1="0.6" x2="9.6" y2="3.5"/>
	<line class="st0" x1="0.5" y1="4.8" x2="12.7" y2="4.8"/>
</g>
</svg>
