<?xml version="1.0" encoding="utf-8"?>
<!-- Generator: Adobe Illustrator 24.0.0, SVG Export Plug-In . SVG Version: 6.00 Build 0)  -->
<svg version="1.1" id="Laag_1" xmlns="http://www.w3.org/2000/svg" xmlns:xlink="http://www.w3.org/1999/xlink" x="0px" y="0px"
	 viewBox="0 0 15 15" style="enable-background:new 0 0 15 15;" xml:space="preserve">
<style type="text/css">
	.st0{fill:none;stroke:#000000;stroke-width:1;stroke-linecap:round;stroke-linejoin:round;}
</style>
<g>
	<path class="st0" d="M9.8,13.8l-2.6,0.7l0.7-2.6l4.4-4.4c0.5-0.5,1.3-0.5,1.8,0s0.5,1.3,0,1.8L9.8,13.8z"/>
	<line class="st0" x1="11.7" y1="8.1" x2="13.6" y2="9.9"/>
	<line class="st0" x1="7.9" y1="11.9" x2="9.8" y2="13.8"/>
	<path class="st0" d="M6,11.5H1.1c-0.3,0-0.6-0.3-0.6-0.6V2.3c0-0.3,0.3-0.6,0.6-0.6h11c0.3,0,0.6,0.3,0.6,0.6V6"/>
	<line class="st0" x1="3.5" y1="0.5" x2="3.5" y2="3.5"/>
	<line class="st0" x1="9.6" y1="0.5" x2="9.6" y2="3.5"/>
	<line class="st0" x1="0.5" y1="4.8" x2="12.7" y2="4.8"/>
</g>
</svg>
