<?xml version="1.0" encoding="utf-8"?>
<!-- Generator: Adobe Illustrator 24.0.0, SVG Export Plug-In . SVG Version: 6.00 Build 0)  -->
<svg version="1.1" id="Laag_1" xmlns="http://www.w3.org/2000/svg" xmlns:xlink="http://www.w3.org/1999/xlink" x="0px" y="0px"
	 viewBox="0 0 15 15" style="enable-background:new 0 0 15 15;" xml:space="preserve">
<style type="text/css">
	.st0{fill:none;stroke:#000000;stroke-width:1;stroke-linecap:round;stroke-linejoin:round;}
</style>
<g>
	<circle class="st0" cx="11" cy="10.6" r="0.9"/>
	<path class="st0" d="M11.7,7.2L12,8c0.1,0.3,0.4,0.5,0.7,0.4l0.9-0.2c0.4-0.1,0.8,0.2,0.9,0.6c0.1,0.3,0,0.5-0.2,0.7l-0.6,0.6
		c-0.2,0.2-0.2,0.6,0,0.8l0.6,0.6c0.3,0.3,0.3,0.8,0,1.1c-0.2,0.2-0.5,0.2-0.7,0.2l-0.9-0.2c-0.3-0.1-0.6,0.1-0.7,0.4l-0.3,0.8
		c-0.1,0.4-0.6,0.6-1,0.5c-0.2-0.1-0.4-0.3-0.5-0.5L10,13.1c-0.1-0.3-0.4-0.5-0.7-0.4l-0.9,0.2C8,13,7.6,12.7,7.5,12.3
		c-0.1-0.3,0-0.5,0.2-0.7L8.3,11c0.2-0.2,0.2-0.6,0-0.8L7.7,9.5c-0.3-0.3-0.3-0.8,0-1.1c0.2-0.2,0.5-0.2,0.7-0.2l0.9,0.2
		C9.6,8.5,9.9,8.3,10,8l0.3-0.8c0.1-0.4,0.6-0.6,1-0.5C11.5,6.7,11.7,6.9,11.7,7.2z"/>
	<path class="st0" d="M6,11.5H1.1c-0.3,0-0.6-0.3-0.6-0.6V2.3c0-0.3,0.3-0.6,0.6-0.6h11c0.3,0,0.6,0.3,0.6,0.6v4"/>
	<line class="st0" x1="3.5" y1="0.5" x2="3.5" y2="3.5"/>
	<line class="st0" x1="9.6" y1="0.5" x2="9.6" y2="3.5"/>
	<line class="st0" x1="0.5" y1="4.8" x2="12.7" y2="4.8"/>
</g>
</svg>
