<?xml version="1.0" encoding="UTF-8"?><svg version="1.1" viewBox="0 0 24 24" xmlns="http://www.w3.org/2000/svg" xmlns:xlink="http://www.w3.org/1999/xlink"><g stroke-linecap="round" stroke-width="1" stroke="#000" fill="none" stroke-linejoin="round"><rect width="23" height="21" x=".5" y="2.501" rx=".55228" ry="0"></rect><line x1="5.5" x2="5.5" y1=".5" y2="5.5"></line><line x1="18.5" x2="18.5" y1=".5" y2="5.5"></line><line x1=".5" x2="23.5" y1="7.5" y2="7.5"></line><line x1="6.5" x2="11.5" y1="19" y2="19"></line><path d="M9 19v-7.5l-6.52291e-09 1.11141e-05c.000165139-.276142-.223559-.500134-.499701-.500299 -.113482-6.78645e-05-.223611.0384701-.31229.109281l-1.68801 1.35101"></path><path d="M15.5 19l2.931-7.255 -1.3271e-08 2.15375e-08c.0947266-.153732.092782-.348193-.00499997-.5l-3.02701e-09-4.58254e-09c-.102718-.155503-.277657-.247874-.464-.245h-3.962 -2.18557e-08c-.276142 1.20706e-08-.5.223858-.5.5 0 0 0 1.77636e-15 0 1.77636e-15v1"></path></g></svg>