<?xml version="1.0" encoding="UTF-8"?><svg version="1.1" viewBox="0 0 24 24" xmlns="http://www.w3.org/2000/svg" xmlns:xlink="http://www.w3.org/1999/xlink"><g stroke-linecap="round" stroke-width="1" stroke="#000" fill="none" stroke-linejoin="round"><circle cx="17.5" cy="17.501" r="6"></circle><line x1="20.5" x2="14.5" y1="17.5" y2="17.5"></line><path d="M9.5 18.5h-8 -4.37114e-08c-.552285-2.41411e-08-1-.447715-1-1 0 0 0-3.55271e-15 0-3.55271e-15v-14l1.06581e-14 1.50996e-07c-8.33927e-08-.552285.447715-1 1-1h18l-4.37114e-08 8.88178e-16c.552285-2.41411e-08 1 .447715 1 1v6.5"></path><line x1="5.5" x2="5.5" y1=".5" y2="5.5"></line><line x1="15.5" x2="15.5" y1=".5" y2="5.5"></line><line x1=".5" x2="20.5" y1="7.5" y2="7.5"></line></g></svg>