<svg viewBox="0 0 24 24" xmlns="http://www.w3.org/2000/svg"><g stroke-linecap="round" stroke="#000" fill="none" stroke-linejoin="round"><path d="M2.5 6.5l.02-1 -.01 0c0-.54.43-.98.97-1.01h.94l0 0c.55 0 1.02.44 1.05 1v1"/><path d="M20.13 6.5l-.01-.001c-.39-.01-.75-.23-.91-.58 -.55-1.17-1.13-2.43-2.23-2.43h-5c-.94 0-1.4.83-2.7 2.59l-.01 0c-.19.25-.49.4-.8.4h-6c-1.5-.001-2 .67-2 1.72v10.38c0 1.04.5 1.88 2.05 1.88H21.4c1.55 0 2.05-.85 2.05-1.89V8.17c0-1.05-.5-1.73-2.06-1.73Z"/><path d="M14.5 7.5a5.5 5.5 0 1 0 0 11 5.5 5.5 0 1 0 0-11Z"/><path d="M14.5 10a3 3 0 1 0 0 6 3 3 0 1 0 0-6Z"/><path d="M4 8.5a1.5 1.5 0 1 0 0 3 1.5 1.5 0 1 0 0-3Z"/></g></svg>