<?xml version="1.0" encoding="UTF-8"?><svg version="1.1" viewBox="0 0 24 24" xmlns="http://www.w3.org/2000/svg" xmlns:xlink="http://www.w3.org/1999/xlink"><g stroke-linecap="round" stroke-width="1" stroke="#000" fill="none" stroke-linejoin="round"><path d="M2.5 6.5l.028-1 -9.10119e-09 6.14284e-07c.00797339-.538175.434268-.97675.971999-1h.944l4.3303e-08 3.98798e-10c.559644.00515404 1.02039.441466 1.056 1v1"></path><path d="M20.13 6.5l-5.78243e-08-7.50067e-12c-.388432-5.03965e-05-.741693-.22503-.906-.577 -.542-1.161-1.124-2.423-2.224-2.423h-5c-.931 0-1.4.834-2.7 2.592l-3.34497e-08 4.55399e-08c-.187171.254823-.483828.406118-.8.408h-6c-1.5-3.36255e-10-2 .679-2 1.723v10.388c0 1.043.5 1.889 2.056 1.889h18.888c1.556 0 2.056-.846 2.056-1.889v-10.388c0-1.044-.5-1.723-2.056-1.723Z"></path><circle cx="14.5" cy="13" r="5.5"></circle><circle cx="14.5" cy="13" r="3"></circle><circle cx="4" cy="10" r="1.5"></circle></g></svg>