<?xml version="1.0" encoding="utf-8"?>
<!-- Generator: Adobe Illustrator 24.0.0, SVG Export Plug-In . SVG Version: 6.00 Build 0)  -->
<svg version="1.1" id="Laag_1" xmlns="http://www.w3.org/2000/svg" xmlns:xlink="http://www.w3.org/1999/xlink" x="0px" y="0px"
	 viewBox="0 0 15 15" style="enable-background:new 0 0 15 15;" xml:space="preserve">
<style type="text/css">
	.st0{fill:none;stroke:#000000;stroke-width:1;stroke-linecap:round;stroke-linejoin:round;}
</style>
<g>
	<path class="st0" d="M1.7,4.2l0-0.6c0-0.3,0.3-0.6,0.6-0.6h0.6c0.3,0,0.6,0.3,0.6,0.6v0.6"/>
	<path class="st0" d="M12.4,4.2c-0.2,0-0.5-0.1-0.6-0.4c-0.3-0.7-0.7-1.5-1.4-1.5h-3c-0.6,0-0.9,0.5-1.6,1.6
		C5.7,4.1,5.6,4.2,5.4,4.2H1.7c-0.9,0-1.2,0.4-1.2,1v6.3c0,0.6,0.3,1.1,1.3,1.1h11.5c0.9,0,1.3-0.5,1.3-1.1V5.2c0-0.6-0.3-1-1.3-1
		H12.4z"/>
	<circle class="st0" cx="9" cy="8.1" r="3.3"/>
	<circle class="st0" cx="9" cy="8.1" r="1.8"/>
	<circle class="st0" cx="2.6" cy="6.3" r="0.9"/>
</g>
</svg>
