<?xml version="1.0" encoding="UTF-8"?><svg version="1.1" viewBox="0 0 24 24" xmlns="http://www.w3.org/2000/svg" xmlns:xlink="http://www.w3.org/1999/xlink"><g stroke-linecap="round" stroke-width="1" stroke="#000" fill="none" stroke-linejoin="round"><circle cx="19.5" cy="15.5" r="2"></circle><line x1="3.5" x2=".5" y1="15.5" y2="15.5"></line><circle cx="5.5" cy="15.5" r="2"></circle><line x1="17.5" x2="7.5" y1="15.5" y2="15.5"></line><path d="M1.5 15.5v-3.5l1.77636e-14 2.26494e-07c-1.25089e-07-.828427.671573-1.5 1.5-1.5h1.5l1.724-3.447 -1.59448e-08 3.19088e-08c.169264-.338729.515334-.552798.894-.553h8.264l-1.42472e-08-7.60814e-12c.378666.000202213.724736.214271.894.553l1.724 3.447h4l-6.55671e-08 1.77636e-15c.828427-3.62117e-08 1.5.671573 1.5 1.5v2.5 0c0 .552285-.447715 1-1 1h-1"></path><line x1="18" x2="4.5" y1="10.5" y2="10.5"></line><line x1="11" x2="11" y1="6.5" y2="10.5"></line></g></svg>