<svg viewBox="0 0 24 24" xmlns="http://www.w3.org/2000/svg"><g stroke-linecap="round" stroke="#000" fill="none" stroke-linejoin="round"><path d="M19.5 13.5a2 2 0 1 0 0 4 2 2 0 1 0 0-4Z"/><path d="M3.5 15.5l-3 0"/><path d="M5.5 13.5a2 2 0 1 0 0 4 2 2 0 1 0 0-4Z"/><path d="M17.5 15.5l-10 0"/><path d="M1.5 15.5V12l0 0c-.01-.83.67-1.51 1.49-1.51h1.5l1.72-3.45 -.01 0c.16-.34.51-.56.89-.56h8.264l-.01-.001c.37 0 .72.21.89.55l1.72 3.44h4l-.01 0c.82-.01 1.5.67 1.5 1.5v2.5 0c0 .55-.45 1-1 1h-1"/><path d="M18 10.5l-13.5 0"/><path d="M11 6.5l0 4"/></g></svg>