<?xml version="1.0" encoding="utf-8"?>
<!-- Generator: Adobe Illustrator 24.0.0, SVG Export Plug-In . SVG Version: 6.00 Build 0)  -->
<svg version="1.1" id="Laag_1" xmlns="http://www.w3.org/2000/svg" xmlns:xlink="http://www.w3.org/1999/xlink" x="0px" y="0px"
	 viewBox="0 0 15 15" style="enable-background:new 0 0 15 15;" xml:space="preserve">
<style type="text/css">
	.st0{fill:none;stroke:#000000;stroke-width:1;stroke-linecap:round;stroke-linejoin:round;}
</style>
<g>
	<circle class="st0" cx="12.1" cy="9.6" r="1.2"/>
	<line class="st0" x1="2.3" y1="9.6" x2="0.5" y2="9.6"/>
	<circle class="st0" cx="3.5" cy="9.6" r="1.2"/>
	<line class="st0" x1="10.8" y1="9.6" x2="4.8" y2="9.6"/>
	<path class="st0" d="M1.1,9.6V7.5C1.1,7,1.5,6.6,2,6.6h0.9l1-2.1c0.1-0.2,0.3-0.3,0.5-0.3h5c0.2,0,0.4,0.1,0.5,0.3l1,2.1h2.4
		c0.5,0,0.9,0.4,0.9,0.9V9c0,0.3-0.3,0.6-0.6,0.6h-0.6"/>
	<line class="st0" x1="11.2" y1="6.6" x2="2.9" y2="6.6"/>
	<line class="st0" x1="6.9" y1="4.2" x2="6.9" y2="6.6"/>
</g>
</svg>
