<?xml version="1.0" encoding="UTF-8"?><svg version="1.1" viewBox="0 0 24 24" xmlns="http://www.w3.org/2000/svg" xmlns:xlink="http://www.w3.org/1999/xlink"><g stroke-linecap="round" stroke-width="1" stroke="#000" fill="none" stroke-linejoin="round"><path d="M4.593 9.593h14.814l-1.74846e-07 3.55271e-15c2.20914-9.65645e-08 4 1.79086 4 4v1.936 0c0 1.10457-.895431 2-2 2h-18.807l-8.74228e-08-3.55271e-15c-1.10457-4.82823e-08-2-.895431-2-2 0 0 0 0 0 0v-1.94l-8.68767e-08 8.79788e-05c.00215298-2.20485 1.78807-3.99218 3.99291-3.99609Z"></path><circle cx="4.068" cy="14.055" r="1.487"></circle><circle cx="19.932" cy="14.055" r="1.487"></circle><path d="M4.068 9.593l.715-4.293 4.42801e-08-2.64155e-07c.160179-.955558.98711-1.65566 1.956-1.656h10.522l-5.21453e-09-1.83853e-12c.96889.000341493 1.79582.700442 1.956 1.656l.715 4.292"></path><path d="M5.555 17.525v1.488 0c0 .821247-.665753 1.487-1.487 1.487 -.821247 0-1.487-.665753-1.487-1.487v-1.488"></path><path d="M21.419 17.525v1.488h3.55271e-15c0 .821247-.665753 1.487-1.487 1.487 -.821247 0-1.487-.665753-1.487-1.487v-1.488"></path><path d="M19.552 7.313l1.717-.991 2.01537e-08-1.16247e-08c.711895-.410624 1.62188-.166395 2.0325.5455 .410624.711895.166395 1.62188-.5455 2.0325l-1.756 1.012"></path><path d="M4.448 7.313l-1.717-.991 2.08191e-08 1.20085e-08c-.711895-.410624-1.62188-.166395-2.0325.5455 -.410624.711895-.166395 1.62188.5455 2.0325l1.756 1.012"></path></g></svg>