<?xml version="1.0" encoding="utf-8"?>
<!-- Generator: Adobe Illustrator 24.0.0, SVG Export Plug-In . SVG Version: 6.00 Build 0)  -->
<svg version="1.1" id="Laag_1" xmlns="http://www.w3.org/2000/svg" xmlns:xlink="http://www.w3.org/1999/xlink" x="0px" y="0px"
	 viewBox="0 0 15 15" style="enable-background:new 0 0 15 15;" xml:space="preserve">
<style type="text/css">
	.st0{fill:none;stroke:#000000;stroke-width:1;stroke-linecap:round;stroke-linejoin:round;}
</style>
<g>
	<path class="st0" d="M3,6h9c1.3,0,2.4,1.1,2.4,2.4v1.2c0,0.7-0.5,1.2-1.2,1.2H1.8c-0.7,0-1.2-0.5-1.2-1.2V8.4C0.6,7.1,1.6,6,3,6z"
		/>
	<circle class="st0" cx="2.7" cy="8.7" r="0.9"/>
	<circle class="st0" cx="12.3" cy="8.7" r="0.9"/>
	<path class="st0" d="M2.7,6l0.4-2.6c0.1-0.6,0.6-1,1.2-1h6.4c0.6,0,1.1,0.4,1.2,1L12.3,6"/>
	<path class="st0" d="M3.6,10.8v0.9c0,0.5-0.4,0.9-0.9,0.9c-0.5,0-0.9-0.4-0.9-0.9c0,0,0,0,0,0v-0.9"/>
	<path class="st0" d="M13.2,10.8v0.9c0,0.5-0.4,0.9-0.9,0.9c-0.5,0-0.9-0.4-0.9-0.9v-0.9"/>
	<path class="st0" d="M12.1,4.6l1-0.6c0.4-0.2,1-0.1,1.2,0.3s0.1,1-0.3,1.2L13,6.2"/>
	<path class="st0" d="M2.9,4.6L1.9,4c-0.4-0.2-1-0.1-1.2,0.3C0.4,4.8,0.5,5.3,1,5.6L2,6.2"/>
</g>
</svg>
