<svg viewBox="0 0 24 24" xmlns="http://www.w3.org/2000/svg"><g stroke-linecap="round" stroke="#000" fill="none" stroke-linejoin="round"><path d="M7.5 11.5h-2l-3 3v-3h-1 -.01c-.56-.01-1-.45-1-1.01 0 0 0 0 0 0v-9l0 0C.48.93.93.48 1.48.48h12l-.01 0c.55-.01 1 .44 1 .99v9"/><path d="M16.5 10.5h6l-.01 0c.55-.01 1 .44 1 .99v8 0c0 .55-.45 1-1 1h-1v3l-3-3h-8 -.01c-.56-.01-1-.45-1-1.01 0 0 0-.001 0-.001v-8l0 0c-.01-.56.44-1.01.99-1.01h1"/><path d="M5.5 8.5V4l0 0c-.01-.83.67-1.51 1.49-1.51 .82-.01 1.5.67 1.5 1.49 0 0 0 0 0 0v4.5"/><path d="M5.5 5.5l3 0"/><path d="M17.5 13.5l0-1"/><path d="M14.5 13.5l6 0"/><path d="M16 13.5l-.01-.01c.13 2.24 1.78 4.1 3.99 4.5"/><path d="M19 13.5l0-.01c-.14 2.24-1.79 4.1-4 4.5"/></g></svg>