<?xml version="1.0" encoding="UTF-8"?><svg version="1.1" viewBox="0 0 24 24" xmlns="http://www.w3.org/2000/svg" xmlns:xlink="http://www.w3.org/1999/xlink"><path d="M.854 15.646l-3.99168e-08 3.98486e-08c-.471375.470569-.472028 1.23417-.00145899 1.70554 .00048594.000486772.000972296.000973128.00145907.00145907l5.792 5.793 -6.41002e-08-6.38612e-08c.472166.470406 1.23583.470406 1.708 1.27722e-07l14.792-14.793 1.6174e-08-1.61464e-08c.471375-.470569.472028-1.23417.00145904-1.70554 -.00048594-.000486772-.000972296-.000973128-.00145907-.00145907l-2.292-2.293 5.23299e-08 5.2394e-08c-.471074-.471651-1.2353-.472119-1.70696-.00104465 -.000348396.00034797-.00069658.000696153-.00104455.00104455l-11.646 11.647 -2.646-2.647 5.23299e-08 5.2394e-08c-.471074-.471651-1.2353-.472119-1.70696-.00104465 -.000348396.00034797-.00069658.000696153-.00104455.00104455Z" stroke-linecap="round" stroke-width="1" stroke="#000" fill="none" stroke-linejoin="round"></path></svg>