<?xml version="1.0" encoding="UTF-8"?><svg version="1.1" viewBox="0 0 24 24" xmlns="http://www.w3.org/2000/svg" xmlns:xlink="http://www.w3.org/1999/xlink"><g stroke-linecap="round" stroke-width="1" stroke="#000" fill="none" stroke-linejoin="round"><path d="M20.5 13.907l-5.26239e-08 2.43451e-08c1.56986-.726253 2.55398-2.32013 2.5-4.049l1.25277e-07 8.46677e-06c-.0384907-2.60153-2.17865-4.67928-4.78018-4.64079 -.0579685.000857668-.115916.00278533-.173814.005782l-5.91583e-08-1.19088e-07c-1.13931-2.29348-3.48518-3.73801-6.04601-3.723l-3.68421e-07-4.94273e-09c-3.48948-.0468147-6.41325 2.62904-6.675 6.109l3.85337e-07 8.47213e-08c-1.92081-.422314-3.82028.792455-4.2426 2.71326 -.0502693.22864-.0778701.461679-.0824017.695736l-6.82661e-08 1.27956e-06c-.0831585 1.5587.975206 2.94812 2.5 3.282"></path><circle cx="12" cy="16.501" r="6"></circle><path d="M14.674 14.757l-2.9 3.874 -2.73233e-08 3.63834e-08c-.248736.331215-.71888.398076-1.05009.14934 -.0282343-.0212035-.054936-.0443744-.0799059-.0693398l-1.5-1.5"></path></g></svg>