<?xml version="1.0" encoding="utf-8"?>
<!-- Generator: Adobe Illustrator 24.0.0, SVG Export Plug-In . SVG Version: 6.00 Build 0)  -->
<svg version="1.1" id="Laag_1" xmlns="http://www.w3.org/2000/svg" xmlns:xlink="http://www.w3.org/1999/xlink" x="0px" y="0px"
	 viewBox="0 0 15 15" style="enable-background:new 0 0 15 15;" xml:space="preserve">
<style type="text/css">
	.st0{fill:none;stroke:#000000;stroke-width:1;stroke-linecap:round;stroke-linejoin:round;}
</style>
<g>
	<path class="st0" d="M12.9,8.7c1-0.5,1.6-1.5,1.6-2.6c0-1.7-1.4-3-3-3c0,0-0.1,0-0.1,0c-0.7-1.5-2.2-2.4-3.8-2.4
		c-2.2,0-4.1,1.7-4.2,3.9C2,4.4,0.8,5.2,0.6,6.4c0,0.1,0,0.3-0.1,0.4C0.5,7.9,1.1,8.7,2.1,9"/>
	<polyline class="st0" points="5.9,11 3.7,11 3.7,13.2 	"/>
	<path class="st0" d="M10.9,11.8c-0.6,1.9-2.6,2.8-4.5,2.2c-1.3-0.4-2.2-1.6-2.4-3"/>
	<polyline class="st0" points="9.1,9.7 11.3,9.7 11.3,7.5 	"/>
	<path class="st0" d="M4.1,8.9c0.6-1.9,2.6-2.8,4.5-2.2c1.3,0.4,2.2,1.6,2.4,3"/>
</g>
</svg>
