<?xml version="1.0" encoding="UTF-8"?><svg version="1.1" viewBox="0 0 24 24" xmlns="http://www.w3.org/2000/svg" xmlns:xlink="http://www.w3.org/1999/xlink"><g stroke-linecap="round" stroke-width="1" stroke="#000" fill="none" stroke-linejoin="round"><path d="M17.5 15.5h1.5c0 0 4.5-.586 4.5-5l9.39136e-08-.000133419c.00190342-2.75645-2.2311-4.99254-4.98755-4.99445 -.0642108-4.43397e-05-.128416.00115046-.192581.00358374l2.72954e-07 5.79447e-07c-1.64465-3.49139-5.80824-4.98847-9.29963-3.34382 -2.31534 1.09066-3.8492 3.35979-3.99823 5.91481l1.81583e-07 3.81378e-08c-2.02739-.425812-4.0161.872521-4.44191 2.89991 -.0531896.253248-.0800301.51132-.0800927.770093l-1.60892e-07 3.17673e-06c-.0917785 1.81214 1.21996 3.39248 3.018 3.636"></path><circle cx="10.529" cy="16.029" r="4.529"></circle><line x1="17" x2="13.75" y1="22.5" y2="19.25"></line></g></svg>