<?xml version="1.0" encoding="UTF-8"?><svg version="1.1" viewBox="0 0 24 24" xmlns="http://www.w3.org/2000/svg" xmlns:xlink="http://www.w3.org/1999/xlink"><g stroke-linecap="round" stroke-width="1" stroke="#000" fill="none" stroke-linejoin="round"><path d="M20.5 13.907l-5.26239e-08 2.43451e-08c1.56986-.726253 2.55398-2.32013 2.5-4.049l1.25277e-07 8.46677e-06c-.0384907-2.60153-2.17865-4.67928-4.78018-4.64079 -.0579685.000857668-.115916.00278533-.173814.005782l-5.91583e-08-1.19088e-07c-1.13931-2.29348-3.48518-3.73801-6.04601-3.723l-3.68421e-07-4.94273e-09c-3.48948-.0468147-6.41325 2.62904-6.675 6.109l3.85337e-07 8.47213e-08c-1.92081-.422314-3.82028.792455-4.2426 2.71326 -.0502693.22864-.0778701.461679-.0824017.695736l-6.82661e-08 1.27956e-06c-.0831585 1.5587.975206 2.94812 2.5 3.282"></path><polyline points="9.5,17.501 6,17.501 6,21.001"></polyline><path d="M17.417 18.734l6.34322e-08-1.85978e-07c-.993402 2.91258-4.15983 4.46838-7.0724 3.47498 -2.06118-.703012-3.52388-2.54242-3.7446-4.70898"></path><polyline points="14.5,15.501 18,15.501 18,12.001"></polyline><path d="M6.583 14.268l-2.71408e-07 7.95975e-07c.993148-2.91267 4.15944-4.46874 7.0721-3.47559 2.06088.702708 3.52362 2.54148 3.7449 4.70759"></path></g></svg>