<?xml version="1.0" encoding="utf-8"?>
<!-- Generator: Adobe Illustrator 24.0.0, SVG Export Plug-In . SVG Version: 6.00 Build 0)  -->
<svg version="1.1" id="Laag_1" xmlns="http://www.w3.org/2000/svg" xmlns:xlink="http://www.w3.org/1999/xlink" x="0px" y="0px"
	 viewBox="0 0 15 15" style="enable-background:new 0 0 15 15;" xml:space="preserve">
<style type="text/css">
	.st0{fill:none;stroke:#000000;stroke-width:1;stroke-linecap:round;stroke-linejoin:round;}
</style>
<g>
	<path class="st0" d="M10.8,10h0.9c0,0,2.7-0.4,2.7-3c0-1.7-1.4-3-3-3c0,0-0.1,0-0.1,0c-1-2.1-3.5-3-5.7-2c-1.4,0.7-2.3,2-2.4,3.6
		C2,5.2,0.8,6,0.5,7.3c0,0.2,0,0.3,0,0.5C0.5,10,2.9,10,2.9,10h1.2"/>
	<line class="st0" x1="7.5" y1="13.3" x2="7.5" y2="6.9"/>
	<polyline class="st0" points="5.6,11.6 7.5,13.5 9.4,11.6 	"/>
</g>
</svg>
