<?xml version="1.0" encoding="utf-8"?>
<!-- Generator: Adobe Illustrator 24.0.0, SVG Export Plug-In . SVG Version: 6.00 Build 0)  -->
<svg version="1.1" id="Laag_1" xmlns="http://www.w3.org/2000/svg" xmlns:xlink="http://www.w3.org/1999/xlink" x="0px" y="0px"
	 viewBox="0 0 15 15" style="enable-background:new 0 0 15 15;" xml:space="preserve">
<style type="text/css">
	.st0{fill:none;stroke:#000000;stroke-width:1;stroke-linecap:round;stroke-linejoin:round;}
</style>
<title>cloud-search</title>
<g>
	<path class="st0" d="M10.8,9.6h0.9c0,0,2.7-0.4,2.7-3c0-1.7-1.4-3-3-3c0,0-0.1,0-0.1,0c-1-2.1-3.5-3-5.7-2c-1.4,0.7-2.3,2-2.4,3.6
		C2,4.9,0.8,5.6,0.6,6.9c0,0.2,0,0.3,0,0.5C0.4,8.5,1.2,9.4,2.3,9.6"/>
	<circle class="st0" cx="6.6" cy="10" r="2.8"/>
	<line class="st0" x1="10.5" y1="13.9" x2="8.6" y2="11.9"/>
</g>
</svg>
