<?xml version="1.0" encoding="utf-8"?>
<!-- Generator: Adobe Illustrator 24.0.0, SVG Export Plug-In . SVG Version: 6.00 Build 0)  -->
<svg version="1.1" id="Laag_1" xmlns="http://www.w3.org/2000/svg" xmlns:xlink="http://www.w3.org/1999/xlink" x="0px" y="0px"
	 viewBox="0 0 15 15" style="enable-background:new 0 0 15 15;" xml:space="preserve">
<style type="text/css">
	.st0{fill:none;stroke:#000000;stroke-width:1;stroke-linecap:round;stroke-linejoin:round;}
</style>
<g>
	<line class="st0" x1="1.1" y1="1.1" x2="13.9" y2="13.9"/>
	<path class="st0" d="M3.6,5.5C3.4,5.9,3.3,6.4,3.3,6.9C2,6.7,0.8,7.4,0.5,8.7c0,0.2,0,0.3,0,0.5c0,2.3,2.4,2.3,2.4,2.3h6.7"/>
	<path class="st0" d="M12.8,11.1c1.1-0.5,1.8-1.5,1.7-2.7c0-1.7-1.4-3-3-3c0,0-0.1,0-0.1,0c-1-2.1-3.5-3-5.7-2
		C5.6,3.4,5.5,3.4,5.3,3.5"/>
</g>
</svg>
