<?xml version="1.0" encoding="UTF-8"?><svg version="1.1" viewBox="0 0 24 24" xmlns="http://www.w3.org/2000/svg" xmlns:xlink="http://www.w3.org/1999/xlink"><g stroke-linecap="round" stroke-width="1" stroke="#000" fill="none" stroke-linejoin="round"><path d="M20.5 14.406l7.49135e-08-3.46289e-08c1.57023-.725839 2.55451-2.31999 2.5-4.049l1.25277e-07 8.46677e-06c-.0384907-2.60153-2.17865-4.67928-4.78018-4.64079 -.0579685.000857668-.115916.00278533-.173814.005782l-6.24925e-08-1.25777e-07c-1.13941-2.29326-3.48534-3.73744-6.04601-3.722l-3.6096e-07-4.84264e-09c-3.48948-.0468147-6.41325 2.62904-6.675 6.109l3.84924e-07 8.46304e-08c-1.92081-.422314-3.82028.792455-4.2426 2.71326 -.0502693.22864-.0778701.461679-.0824017.695736l-6.82436e-08 1.27914e-06c-.0831585 1.5587.975206 2.94812 2.5 3.282"></path><polyline points="6,19 9,22 12,19"></polyline><line x1="9" x2="9" y1="22" y2="13"></line><polyline points="12,16 15,13 18,16"></polyline><line x1="15" x2="15" y1="13" y2="22"></line></g></svg>