<?xml version="1.0" encoding="UTF-8"?><svg version="1.1" viewBox="0 0 24 24" xmlns="http://www.w3.org/2000/svg" xmlns:xlink="http://www.w3.org/1999/xlink"><g stroke-linecap="round" stroke-width="1" stroke="#000" fill="none" stroke-linejoin="round"><line x1="1.54" x2="22.46" y1="1.58" y2="22.5"></line><path d="M5.577 8.729l-3.84102e-08 8.92989e-08c-.32048.745074-.508629 1.54031-.556 2.35l2.05755e-07 4.30856e-08c-2.02818-.424707-4.01664.875166-4.44135 2.90335 -.0528671.252466-.0795587.50971-.0796514.767652 0 3.81 4 3.75 4 3.75h10.957"></path><path d="M20.687 17.963l7.77776e-08-3.38511e-08c1.76556-.768425 2.88134-2.53868 2.813-4.463l5.54573e-08-6.03102e-05c.00251749-2.7559-2.22954-4.99204-4.98544-4.99456 -.0648909-5.92773e-05-.129777.00114723-.194621.00361884l-1.77394e-07-3.76264e-07c-1.64628-3.49185-5.81155-4.98798-9.3034-3.34171 -.189829.0894974-.375532.187499-.556543.293706"></path></g></svg>