<?xml version="1.0" encoding="utf-8"?>
<!-- Generator: Adobe Illustrator 24.0.0, SVG Export Plug-In . SVG Version: 6.00 Build 0)  -->
<svg version="1.1" id="Laag_1" xmlns="http://www.w3.org/2000/svg" xmlns:xlink="http://www.w3.org/1999/xlink" x="0px" y="0px"
	 viewBox="0 0 15 15" style="enable-background:new 0 0 15 15;" xml:space="preserve">
<style type="text/css">
	.st0{fill:none;stroke:#000000;stroke-width:1;stroke-linecap:round;stroke-linejoin:round;}
</style>
<g>
	<path class="st0" d="M12.9,9c1-0.5,1.6-1.5,1.6-2.6c0-1.7-1.4-3-3-3c0,0-0.1,0-0.1,0C10.6,2,9.1,1.1,7.5,1.1C5.3,1.1,3.4,2.8,3.3,5
		C2,4.8,0.8,5.5,0.6,6.8c0,0.1,0,0.3-0.1,0.4c-0.1,1,0.6,1.9,1.6,2.1"/>
	<polyline class="st0" points="3.7,12 5.6,13.9 7.5,12 	"/>
	<line class="st0" x1="5.6" y1="13.9" x2="5.6" y2="8.1"/>
	<polyline class="st0" points="7.5,10 9.4,8.1 11.3,10 	"/>
	<line class="st0" x1="9.4" y1="8.1" x2="9.4" y2="13.9"/>
</g>
</svg>
