<?xml version="1.0" encoding="utf-8"?>
<!-- Generator: Adobe Illustrator 24.0.0, SVG Export Plug-In . SVG Version: 6.00 Build 0)  -->
<svg version="1.1" id="Laag_1" xmlns="http://www.w3.org/2000/svg" xmlns:xlink="http://www.w3.org/1999/xlink" x="0px" y="0px"
	 viewBox="0 0 15 15" style="enable-background:new 0 0 15 15;" xml:space="preserve">
<style type="text/css">
	.st0{fill:none;stroke:#000000;stroke-width:1;stroke-linecap:round;stroke-linejoin:round;}
</style>
<g>
	<path class="st0" d="M12.9,8.7c1-0.5,1.6-1.5,1.6-2.6c0-1.7-1.4-3-3-3c0,0-0.1,0-0.1,0c-0.7-1.5-2.2-2.4-3.8-2.4
		c-2.2,0-4.1,1.7-4.2,3.9C2,4.4,0.8,5.2,0.6,6.4c0,0.1,0,0.3-0.1,0.4C0.5,7.9,1.1,8.8,2.1,9"/>
	<polyline class="st0" points="8.5,9.1 11.3,9.1 11.3,6.2 	"/>
	<path class="st0" d="M11.1,9.1c-0.7-2-2.9-3-4.9-2.3s-3,2.9-2.3,4.9s2.9,3,4.9,2.3c0.7-0.2,1.3-0.7,1.7-1.2"/>
</g>
</svg>
