<?xml version="1.0" encoding="UTF-8"?><svg version="1.1" viewBox="0 0 24 24" xmlns="http://www.w3.org/2000/svg" xmlns:xlink="http://www.w3.org/1999/xlink"><path d="M23.5 14l5.54573e-08-6.03102e-05c.00251749-2.7559-2.22954-4.99204-4.98544-4.99456 -.0648909-5.92773e-05-.129777.00114723-.194621.00361884l2.72813e-07 5.79286e-07c-1.64457-3.49204-5.80861-4.98972-9.30065-3.34515 -2.31573 1.09058-3.85001 3.35984-3.99935 5.91515l1.70752e-07 3.5763e-08c-2.02762-.424674-4.01561.874775-4.44028 2.9024 -.052942.252774-.0796371.510339-.0796607.768598 0 3.81 4 3.75 4 3.75h14.5c0 0 4.5-.586 4.5-5Z" stroke-linecap="round" stroke-width="1" stroke="#000" fill="none" stroke-linejoin="round"></path></svg>