<?xml version="1.0" encoding="UTF-8"?><svg version="1.1" viewBox="0 0 24 24" xmlns="http://www.w3.org/2000/svg" xmlns:xlink="http://www.w3.org/1999/xlink"><g stroke-linecap="round" stroke-width="1" stroke="#000" fill="none" stroke-linejoin="round"><path d="M17.24 15.891h1.46c0 0 4.3-.561 4.3-4.783l1.24289e-07-.000175327c.00182029-2.63605-2.13365-4.77447-4.7697-4.77629 -.0618408-4.27032e-05-.123677.00111645-.185472.0034768l2.93581e-07 6.23025e-07c-1.57377-3.3398-5.55701-4.77145-8.89682-3.19767 -2.2141 1.04332-3.68101 3.21324-3.82401 5.65667l3.23564e-08 6.80463e-09c-1.9381-.407587-3.83965.833138-4.24724 2.77124 -.0508144.241625-.0765378.487853-.0767608.734764 0 3.645 3.826 3.588 3.826 3.588h1.906"></path><line x1="12" x2="12" y1="21" y2="11"></line><polyline points="9,18.391 12,21.391 15,18.391"></polyline></g></svg>