<?xml version="1.0" encoding="utf-8"?>
<!-- Generator: Adobe Illustrator 24.0.0, SVG Export Plug-In . SVG Version: 6.00 Build 0)  -->
<svg version="1.1" id="Laag_1" xmlns="http://www.w3.org/2000/svg" xmlns:xlink="http://www.w3.org/1999/xlink" x="0px" y="0px"
	 viewBox="0 0 15 15" style="enable-background:new 0 0 15 15;" xml:space="preserve">
<style type="text/css">
	.st0{fill:none;stroke:#000000;stroke-width:1;stroke-linecap:round;stroke-linejoin:round;}
</style>
<g>
	<path class="st0" d="M12.9,8.7c1-0.5,1.6-1.5,1.6-2.6c0-1.7-1.4-3-3-3c0,0-0.1,0-0.1,0c-0.7-1.5-2.2-2.4-3.8-2.4
		c-2.2,0-4.1,1.7-4.2,3.9C2,4.4,0.8,5.2,0.6,6.4c0,0.1,0,0.3-0.1,0.4C0.5,7.9,1.1,8.8,2.1,9"/>
	<circle class="st0" cx="7.5" cy="10.4" r="3.8"/>
	<path class="st0" d="M9.2,9.3l-1.8,2.5c-0.2,0.2-0.5,0.3-0.7,0.1c0,0,0,0-0.1,0l-1-1"/>
</g>
</svg>
