<?xml version="1.0" encoding="UTF-8"?><svg version="1.1" viewBox="0 0 24 24" xmlns="http://www.w3.org/2000/svg" xmlns:xlink="http://www.w3.org/1999/xlink"><g stroke-linecap="round" stroke-width="1" stroke="#000" fill="none" stroke-linejoin="round"><path d="M8 6.157l1.2352e-07 1.2347e-07c-.781207-.78089-.781463-2.04722-.00057318-2.82843 .000190939-.000191016.000381917-.000381994.000572933-.000572933l-2.20204e-08 2.20271e-08c.780764-.781.780764-2.047 1.67561e-07-2.828"></path><path d="M12 6.157l1.2352e-07 1.2347e-07c-.781207-.78089-.781463-2.04722-.00057318-2.82843 .000190939-.000191016.000381917-.000381994.000572933-.000572933l-2.20204e-08 2.20271e-08c.780764-.781.780764-2.047 1.67561e-07-2.828"></path><path d="M16 6.157l1.2352e-07 1.2347e-07c-.781207-.78089-.781463-2.04722-.00057318-2.82843 .000190939-.000191016.000381917-.000381994.000572933-.000572933l-2.20204e-08 2.20271e-08c.780764-.781.780764-2.047 1.67561e-07-2.828"></path><ellipse cx="12" rx="6.5" ry="3" cy="11.542"></ellipse><path d="M18.5 11.542l1.33162e-07 1.1907e-05c.0250458 2.23961-.370118 4.46405-1.165 6.558l-4.4099e-08 1.13107e-07c-.114061.292551-.295667.553993-.53.763l-2.72746e-08 2.30492e-08c-1.34012 1.13251-3.05118 1.7304-4.805 1.67899l-2.33634e-07 6.68937e-09c-1.75211.0501662-3.46117-.547649-4.8-1.679l-1.2809e-08-1.1394e-08c-.234649-.208727-.41631-.470251-.53-.763l-9.88771e-07-2.59756e-06c-.796911-2.09353-1.19378-4.31805-1.17-6.558"></path><path d="M18.219 14.886c1.714.914 2.781 2.193 2.781 3.614 0 2.761-4.029 5-9 5 -4.971 0-9-2.239-9-5 0-1.421 1.067-2.7 2.78-3.614"></path><path d="M7.526 13.718c-.286-1.202 1.827-2.218 4.474-2.218 2.647 0 4.76 1.016 4.474 2.218"></path></g></svg>