<?xml version="1.0" encoding="utf-8"?>
<!-- Generator: Adobe Illustrator 24.0.0, SVG Export Plug-In . SVG Version: 6.00 Build 0)  -->
<svg version="1.1" id="Light" xmlns="http://www.w3.org/2000/svg" xmlns:xlink="http://www.w3.org/1999/xlink" x="0px" y="0px"
	 viewBox="0 0 15 15" style="enable-background:new 0 0 15 15;" xml:space="preserve">
<style type="text/css">
	.st0{fill:none;stroke:#000000;stroke-width:1;stroke-linecap:round;stroke-linejoin:round;}
</style>
<g>
	<path class="st0" d="M5.1,3.9c-0.5-0.5-0.5-1.2,0-1.7c0,0,0,0,0,0c0.5-0.5,0.5-1.2,0-1.7"/>
	<path class="st0" d="M7.5,3.9C7,3.5,7,2.7,7.5,2.2c0,0,0,0,0,0C8,1.7,8,1,7.5,0.5"/>
	<path class="st0" d="M9.9,3.9c-0.5-0.5-0.5-1.2,0-1.7c0,0,0,0,0,0c0.5-0.5,0.5-1.2,0-1.7"/>
	<ellipse class="st0" cx="7.5" cy="7.2" rx="4" ry="1.8"/>
	<path class="st0" d="M11.5,7.2c0,1.4-0.2,2.7-0.7,4c-0.1,0.2-0.2,0.3-0.3,0.5c-0.8,0.7-1.9,1.1-2.9,1c-1.1,0-2.1-0.3-2.9-1
		c-0.1-0.1-0.3-0.3-0.3-0.5c-0.5-1.3-0.7-2.6-0.7-4"/>
	<path class="st0" d="M11.3,9.3c1,0.6,1.7,1.3,1.7,2.2c0,1.7-2.5,3-5.5,3S2,13.1,2,11.5c0-0.9,0.6-1.6,1.7-2.2"/>
	<path class="st0" d="M4.8,8.5C4.6,7.8,5.9,7.2,7.5,7.2s2.9,0.6,2.7,1.4"/>
</g>
</svg>
