<?xml version="1.0" encoding="UTF-8"?><svg version="1.1" viewBox="0 0 24 24" xmlns="http://www.w3.org/2000/svg" xmlns:xlink="http://www.w3.org/1999/xlink"><g stroke-linecap="round" stroke-width="1" stroke="#000" fill="none" stroke-linejoin="round"><path d="M19.922 7.213l7.43998e-08-1.56383e-07c-.444639.934603-.0474455 2.0527.887157 2.49734 .0579797.027584.117339.05217.177842.0736608l1.265.45 -1.10868e-08-3.93506e-09c.975887.346374 1.48621 1.41828 1.13983 2.39417 -.1889.532214-.607621.950935-1.13983 1.13983l-1.265.45 7.56718e-08-2.68785e-08c-.975285.34642-1.48508 1.41787-1.13866 2.39316 .0214908.0605035.0460768.119863.0736608.177842l.578 1.211 -5.3046e-08-1.1107e-07c.446278.934434.0505503 2.05372-.883883 2.5 -.511059.244078-1.10506.244078-1.61612 1.06092e-07l-1.213-.576 2.86223e-08 1.36171e-08c-.934603-.444639-2.0527-.0474454-2.49734.887158 -.027584.0579797-.05217.117339-.0736608.177842l-.45 1.265 6.83531e-08-1.92095e-07c-.347151.975611-1.41946 1.48508-2.39507 1.13793 -.531077-.188973-.948955-.606851-1.13793-1.13793l-.45-1.265 3.22558e-08 9.07068e-08c-.346957-.97568-1.41917-1.48536-2.39485-1.1384 -.0602648.0214305-.119394.0459306-.177154.0734044l-1.211.576 -2.66819e-08 1.27927e-08c-.93326.447452-2.05255.0536278-2.5-.879632 -.245579-.512208-.245579-1.10816 2.55853e-08-1.62037l.576-1.213 -8.21601e-10 1.72695e-09c.444639-.934603.0474453-2.0527-.887158-2.49734 -.0579797-.027584-.117339-.05217-.177842-.0736608l-1.265-.45 6.72536e-08 2.38704e-08c-.975887-.346374-1.48621-1.41828-1.13984-2.39417 .1889-.532214.607621-.950935 1.13983-1.13983l1.265-.45 -5.28049e-09 1.87836e-09c.975125-.346869 1.48443-1.41856 1.13756-2.39368 -.0212104-.0596272-.0454277-.118142-.0725588-.175318l-.576-1.213 4.83745e-08 1.00896e-07c-.447452-.93326-.0536279-2.05255.879632-2.5 .512208-.245579 1.10816-.245579 1.62037-9.67491e-08l1.213.576 -2.17197e-07-1.03136e-07c.935429.444189 2.05383.0459598 2.49802-.889469 .0268786-.0566044.0509028-.114521.071982-.173531l.45-1.265 -1.23305e-07 3.46528e-07c.347151-.975611 1.41946-1.48508 2.39507-1.13793 .531077.188973.948956.606851 1.13793 1.13793l.45 1.265 -3.43584e-08-9.673e-08c.34642.975285 1.41787 1.48508 2.39316 1.13866 .0605035-.0214908.119863-.0460768.177842-.0736608l1.213-.578 -1.34603e-07 6.42854e-08c.934434-.446278 2.05372-.0505503 2.5.883883 .244078.511059.244078 1.10506 1.28571e-07 1.61612Z"></path><circle cx="11.999" cy="12.001" r="4.5"></circle></g></svg>