<svg viewBox="0 0 24 24" xmlns="http://www.w3.org/2000/svg"><g stroke-linecap="round" stroke="#000" fill="none" stroke-linejoin="round"><path d="M19.92 7.21l0-.01c-.45.93-.05 2.05.88 2.49 .05.02.11.05.17.07l1.26.45 -.01-.01c.97.34 1.48 1.41 1.13 2.39 -.19.53-.61.95-1.14 1.13l-1.27.45 0-.01c-.98.34-1.49 1.41-1.14 2.39 .02.06.04.11.07.17l.57 1.21 -.01-.01c.44.93.05 2.05-.89 2.5 -.52.24-1.11.24-1.62 0l-1.22-.58 0 0c-.94-.45-2.06-.05-2.5.88 -.03.05-.06.11-.08.17l-.45 1.26 0-.01c-.35.97-1.42 1.48-2.4 1.13 -.54-.19-.95-.61-1.14-1.14l-.45-1.27 0 0c-.35-.98-1.42-1.49-2.4-1.14 -.07.02-.12.04-.18.07l-1.22.57 -.01 0c-.94.44-2.06.05-2.5-.88 -.25-.52-.25-1.11 0-1.63l.57-1.22 -.01 0c.44-.94.04-2.06-.89-2.5 -.06-.03-.12-.06-.18-.08l-1.27-.45 0 0C.61 13.25.1 12.18.45 11.2c.18-.54.6-.96 1.13-1.14l1.26-.45 -.01 0c.97-.35 1.48-1.42 1.13-2.4 -.03-.06-.05-.12-.08-.18L3.3 5.81l0 0c-.45-.94-.06-2.06.87-2.5 .51-.25 1.1-.25 1.62-.01L7 3.87l-.01-.01c.93.44 2.05.04 2.49-.89 .02-.06.05-.12.07-.18L10 1.52l-.01 0C10.33.54 11.4.03 12.38.38c.53.18.94.6 1.13 1.13l.45 1.26 -.01-.01c.34.97 1.41 1.48 2.39 1.13 .06-.03.11-.05.17-.08l1.21-.58 -.01 0c.93-.45 2.05-.06 2.5.88 .24.51.24 1.1 0 1.61Z"/><path d="M11.99 7.5a4.5 4.5 0 1 0 0 9 4.5 4.5 0 1 0 0-9Z"/></g></svg>