<?xml version="1.0" encoding="UTF-8"?><svg version="1.1" viewBox="0 0 24 24" xmlns="http://www.w3.org/2000/svg" xmlns:xlink="http://www.w3.org/1999/xlink"><g stroke-linecap="round" stroke-width="1" stroke="#000" fill="none" stroke-linejoin="round"><path d="M5.813 11.212l1.33891e-08 1.48609e-08c.392598.435753 1.06411.470737 1.49986.0781392 .0273848-.0246727.0534665-.0507544.0781393-.0781393l.51-.564 7.56949e-08-8.36778e-08c.39384-.435375 1.06605-.469046 1.50143-.0752064 .236485.213924.36444.522715.348573.841207l-.039.76 -1.24105e-08 2.47019e-07c-.0294582.586339.421983 1.08554 1.00832 1.115 .035537.00178541.0711412.0017854.106678-2.4821e-08l.76-.039 1.34651e-08-6.84254e-10c.586322-.0297951 1.08578.421359 1.11558 1.00768 .0162042.318875-.111782.628145-.348579.842319l-.565.51 -2.42696e-08 2.1866e-08c-.435753.392598-.470737 1.06411-.0781392 1.49986 .0246727.0273848.0507544.0534665.0781393.0781393l.565.51 -4.24436e-08-3.83887e-08c.435405.393807.469126 1.06602.0753188 1.50142 -.214174.236797-.523444.364783-.842319.348579l-.76-.039 5.25076e-08 2.63804e-09c-.586339-.0294584-1.08554.421983-1.115 1.00832 -.00178542.035537-.00178542.0711412-5.27608e-09.106678l.039.76 -2.09629e-08-4.20796e-07c.0292105.586352-.422441 1.08536-1.00879 1.11457 -.318492.0158665-.627282-.112088-.841207-.348573l-.51-.564 9.20669e-09 1.02187e-08c-.392598-.435753-1.06411-.470737-1.49986-.0781393 -.0273848.0246727-.0534665.0507544-.0781393.0781393l-.51.564 -1.05229e-08 1.16327e-08c-.39384.435375-1.06605.469046-1.50143.0752065 -.236485-.213924-.36444-.522715-.348573-.841207l.039-.76 1.86761e-08-3.7173e-07c.0294581-.586339-.421983-1.08554-1.00832-1.115 -.035537-.00178541-.0711412-.00178539-.106678 3.73523e-08l-.76.039 -3.41449e-08 1.62593e-09c-.586414.0279241-1.08443-.424822-1.11236-1.01124 -.0150765-.316611.111925-.623432.346358-.836765l.564-.51 2.32107e-09-2.0912e-09c.435753-.392598.470737-1.06411.0781392-1.49986 -.0246727-.0273848-.0507544-.0534665-.0781393-.0781393l-.564-.512 9.48709e-08 8.58201e-08c-.435375-.39384-.469046-1.06605-.0752067-1.50143 .213924-.236485.522715-.36444.841207-.348573l.76.039 -1.87611e-08-9.42578e-10c.586339.0294584 1.08554-.421983 1.115-1.00832 .00178542-.035537.00178542-.0711412 1.88516e-09-.106678l-.039-.76 1.67331e-08 3.35891e-07c-.0292105-.586352.422442-1.08536 1.00879-1.11457 .318492-.0158664.627282.112088.841207.348573Z"></path><circle cx="6.602" cy="16.399" r="2.441"></circle><path d="M18.187 12.79l9.20669e-09 1.02187e-08c-.392598-.435753-1.06411-.470737-1.49986-.0781393 -.0273848.0246727-.0534665.0507544-.0781393.0781393l-.51.565 7.22023e-09-7.9829e-09c-.393807.435405-1.06602.469126-1.50142.0753187 -.236797-.214174-.364783-.523444-.348579-.842319l.039-.76 1.86761e-08-3.7173e-07c.0294581-.586339-.421983-1.08554-1.00832-1.115 -.035537-.00178541-.0711412-.00178539-.106678 3.73523e-08l-.76.039 2.02804e-08-1.03059e-09c-.586322.0297951-1.08578-.421359-1.11558-1.00768 -.0162043-.318875.111782-.628145.348579-.842319l.565-.51 2.32107e-09-2.0912e-09c.435753-.392598.470737-1.06411.0781392-1.49986 -.0246727-.0273848-.0507544-.0534665-.0781393-.0781393l-.565-.51 2.05127e-08 1.85529e-08c-.435405-.393807-.469126-1.06602-.0753188-1.50142 .214174-.236797.523444-.364783.842319-.348579l.76.039 -1.87611e-08-9.42578e-10c.586339.0294584 1.08554-.421983 1.115-1.00832 .00178542-.035537.00178542-.0711412 1.88516e-09-.106678l-.039-.76 1.67331e-08 3.35891e-07c-.0292105-.586352.422442-1.08536 1.00879-1.11457 .318492-.0158664.627282.112088.841207.348573l.51.564 1.33891e-08 1.48609e-08c.392598.435753 1.06411.470737 1.49986.0781392 .0273848-.0246727.0534665-.0507544.0781393-.0781393l.51-.564 7.56949e-08-8.36778e-08c.39384-.435375 1.06605-.469046 1.50143-.0752064 .236485.213924.36444.522715.348573.841207l-.039.76 -1.24105e-08 2.47019e-07c-.0294582.586339.421983 1.08554 1.00832 1.115 .035537.00178541.0711412.0017854.106678-2.4821e-08l.76-.039 3.11365e-08-1.55113e-09c.586352-.0292103 1.08536.422442 1.11457 1.00879 .0158663.318492-.112088.627282-.348573.841207l-.564.51 -2.42696e-08 2.1866e-08c-.435753.392598-.470737 1.06411-.0781392 1.49986 .0246727.0273848.0507544.0534665.0781393.0781393l.564.51 -2.28257e-08-2.06481e-08c.435375.39384.469046 1.06605.0752066 1.50143 -.213924.236485-.522715.36444-.841207.348573l-.76-.039 5.25076e-08 2.63804e-09c-.586339-.0294584-1.08554.421983-1.115 1.00832 -.00178542.035537-.00178542.0711412-5.27608e-09.106678l.039.76 3.78109e-08 7.44065e-07c.0297947.586322-.42136 1.08578-1.00768 1.11558 -.318875.016204-.628144-.111782-.842319-.34858Z"></path><circle cx="17.398" cy="7.603" r="2.441"></circle></g></svg>