<?xml version="1.0" encoding="UTF-8"?><svg version="1.1" viewBox="0 0 24 24" xmlns="http://www.w3.org/2000/svg" xmlns:xlink="http://www.w3.org/1999/xlink"><g stroke-linecap="round" stroke-width="1" stroke="#000" fill="none" stroke-linejoin="round"><circle cx="19.056" cy="5.501" r="1.437"></circle><path d="M20 1.2l.328 1.076 -2.92102e-08-9.46234e-08c.113815.368693.493051.586895.869.5l1.091-.253 -2.45382e-08 5.53516e-09c.534438-.120555 1.06542.214963 1.18597.749401 .0721528.319864-.0184181.654717-.24197.894598l-.764.833 3.79659e-08-4.08159e-08c-.264221.284056-.264221.723944-7.59318e-08 1.008l.763.824 2.74975e-08 2.96092e-08c.37282.401451.349609 1.02912-.0518427 1.40194 -.23951.222428-.573219.312595-.892157.241058l-1.087-.256 4.80827e-08 1.11136e-08c-.375949-.0868953-.755185.131307-.869.5l-.331 1.081 2.09615e-08-6.99087e-08c-.156242.521081-.70532.816841-1.2264.660599 -.317261-.0951281-.565471-.343338-.660599-.660599l-.328-1.076 1.67012e-08 5.41016e-08c-.113815-.368693-.493051-.586895-.869-.5l-1.091.253 8.8785e-08-1.99142e-08c-.534584.119905-1.06515-.216258-1.18506-.750843 -.0715368-.318939.0186303-.652647.241058-.892157l.763-.824 8.09525e-09-8.70293e-09c.264221-.284056.264221-.723944-1.61905e-08-1.008l-.763-.823 2.07864e-08 2.23047e-08c-.373518-.400802-.3514-1.02851.0494015-1.40203 .239882-.223552.574735-.314123.894598-.24197l1.091.253 -2.52888e-08-5.84514e-09c.375949.0868953.755185-.131307.869-.5l.327-1.088 -2.75627e-08 9.25201e-08c.155318-.521357.703871-.81809 1.22523-.662772 .318616.0949191.567853.344156.662772.662772Z"></path><path d="M7.031 9.626l1.85629e-08 2.07557e-08c.478624.535164 1.30046.580999 1.83563.102375 .0360002-.0321968.0701782-.0663747.102375-.102375l.631-.694 -5.71835e-08 6.33896e-08c.483134-.535567 1.30895-.578073 1.84452-.0949399 .291956.263372.449713.644265.429479 1.03694l-.048.934 2.50372e-08-4.97827e-07c-.0362577.720925.518775 1.33474 1.2397 1.371 .0437389.00219977.0875607.00219979.1313 5.00743e-08l.934-.048 -6.42656e-08 3.31162e-09c.720328-.0371187 1.33436.516732 1.37148 1.23706 .0202346.392675-.137523.773568-.429479 1.03694l-.694.627 -3.23109e-08 2.88973e-08c-.535164.478624-.580999 1.30046-.102375 1.83563 .0321968.0360002.0663747.0701782.102375.102375l.694.627 -2.10013e-08-1.89452e-08c.535567.483134.578073 1.30895.0949399 1.84452 -.263372.291955-.644265.449713-1.03694.429479l-.934-.048 -6.75542e-08-3.3975e-09c-.720925-.0362574-1.33474.518775-1.371 1.2397 -.00219975.0437389-.00219975.0875607 6.79499e-09.1313l.048.934 1.49734e-09 2.90579e-08c.0371182.720328-.516733 1.33436-1.23706 1.37148 -.392674.0202343-.773567-.137523-1.03694-.429478l-.627-.694 6.0639e-08 6.78023e-08c-.478624-.535164-1.30046-.580999-1.83563-.102375 -.0360002.0321968-.0701782.0663747-.102375.102375l-.635.694 3.28485e-08-3.64135e-08c-.483134.535567-1.30895.578073-1.84452.0949399 -.291955-.263372-.449713-.644265-.429479-1.03694l.048-.934 -1.90374e-08 3.78529e-07c.0362576-.720925-.518775-1.33474-1.2397-1.371 -.0437389-.00219977-.0875607-.00219978-.1313-3.80746e-08l-.934.048 4.36209e-08-1.9888e-09c-.720535.0328513-1.33128-.524627-1.36413-1.24516 -.0177048-.388323.138495-.76435.426127-1.02584l.694-.627 5.35515e-09-4.78938e-09c.535164-.478624.580999-1.30046.102375-1.83563 -.0321968-.0360002-.0663747-.0701782-.102375-.102375l-.694-.627 5.18256e-08 4.67517e-08c-.535567-.483134-.578073-1.30895-.0949399-1.84452 .263372-.291956.644265-.449713 1.03694-.429479l.934.048 -4.65631e-08-2.3418e-09c.720925.0362574 1.33474-.518775 1.371-1.2397 .00219976-.0437389.00219976-.0875607 4.68359e-09-.1313l-.048-.937 -4.55772e-08-9.5068e-07c-.0345396-.720456.521506-1.3325 1.24196-1.36704 .388906-.0186446.765849.137203 1.02804.425043Z"></path><circle cx="8" cy="16.001" r="3.5"></circle></g></svg>