<?xml version="1.0" encoding="utf-8"?>
<!-- Generator: Adobe Illustrator 24.0.0, SVG Export Plug-In . SVG Version: 6.00 Build 0)  -->
<svg version="1.1" id="Laag_1" xmlns="http://www.w3.org/2000/svg" xmlns:xlink="http://www.w3.org/1999/xlink" x="0px" y="0px"
	 viewBox="0 0 15 15" style="enable-background:new 0 0 15 15;" xml:space="preserve">
<style type="text/css">
	.st0{fill:none;stroke:#000000;stroke-width:1;stroke-linecap:round;stroke-linejoin:round;}
</style>
<g>
	<path class="st0" d="M12.3,4.6c-0.3,0.6,0,1.2,0.5,1.5c0,0,0.1,0,0.1,0l0.8,0.3c0.6,0.2,0.9,0.9,0.7,1.5c-0.1,0.3-0.4,0.6-0.7,0.7
		L13,8.8c-0.6,0.2-0.9,0.9-0.7,1.5c0,0,0,0.1,0,0.1l0.4,0.7c0.3,0.6,0,1.2-0.5,1.5c-0.3,0.1-0.7,0.1-1,0l-0.7-0.4
		c-0.6-0.3-1.2,0-1.5,0.5c0,0,0,0.1,0,0.1l-0.3,0.8c-0.2,0.6-0.9,0.9-1.5,0.7c-0.3-0.1-0.6-0.4-0.7-0.7L6.2,13
		c-0.2-0.6-0.9-0.9-1.5-0.7c0,0-0.1,0-0.1,0l-0.7,0.4c-0.6,0.3-1.2,0-1.5-0.5c-0.1-0.3-0.1-0.7,0-1l0.4-0.7c0.3-0.6,0-1.2-0.5-1.5
		c0,0-0.1,0-0.1,0L1.3,8.6C0.7,8.4,0.4,7.7,0.6,7.1c0.1-0.3,0.4-0.6,0.7-0.7L2,6.1c0.6-0.2,0.9-0.9,0.7-1.5c0,0,0-0.1,0-0.1L2.3,3.8
		c-0.3-0.6,0-1.2,0.5-1.5c0.3-0.1,0.7-0.1,1,0l0.7,0.4c0.6,0.3,1.3,0,1.5-0.5c0,0,0-0.1,0-0.1l0.3-0.8c0.2-0.6,0.9-0.9,1.5-0.7
		c0.3,0.1,0.6,0.4,0.7,0.7L8.8,2c0.2,0.6,0.9,0.9,1.5,0.7c0,0,0.1,0,0.1,0l0.7-0.4c0.6-0.3,1.2,0,1.5,0.5c0.1,0.3,0.1,0.7,0,1
		L12.3,4.6z"/>
	<circle class="st0" cx="7.5" cy="7.5" r="2.7"/>
</g>
</svg>
