<svg viewBox="0 0 24 24" xmlns="http://www.w3.org/2000/svg"><g stroke-linecap="round" stroke="#000" fill="none" stroke-linejoin="round"><path d="M19.05 4.06a1.43 1.43 0 1 0 0 2.87 1.43 1.43 0 1 0 0-2.88Z"/><path d="M20 1.2l.32 1.07 -.01-.01c.11.36.49.58.86.5l1.09-.26 -.01 0c.53-.13 1.06.21 1.18.74 .07.31-.02.65-.25.89l-.77.83 0-.01c-.27.28-.27.72-.01 1l.76.82 0 0c.37.4.34 1.02-.06 1.4 -.24.22-.58.31-.9.24l-1.09-.26 0 0c-.38-.09-.76.13-.87.49l-.34 1.08 0-.01c-.16.52-.71.81-1.23.66 -.32-.1-.57-.35-.67-.67l-.33-1.08 0 0c-.12-.37-.5-.59-.87-.51l-1.1.25 0-.01c-.54.11-1.07-.22-1.19-.76 -.08-.32.01-.66.24-.9l.76-.83 0-.01c.26-.29.26-.73-.01-1.008l-.77-.83 0 0c-.38-.41-.36-1.03.04-1.41 .23-.23.57-.32.89-.25l1.09.25 -.01-.01c.37.08.75-.14.86-.5L17.92 1l-.01 0c.15-.53.7-.82 1.22-.67 .31.09.56.34.66.66Z"/><path d="M7.03 9.626l0 0c.47.53 1.3.58 1.83.1 .03-.04.07-.07.1-.11l.63-.7 -.01 0c.48-.54 1.3-.58 1.84-.1 .29.26.44.64.42 1.03l-.05.93 0-.01c-.04.72.51 1.33 1.23 1.37 .04 0 .08 0 .13 0l.93-.05 -.01 0c.72-.04 1.33.51 1.37 1.23 .02.39-.14.77-.43 1.03l-.7.62 -.01 0c-.54.47-.59 1.3-.11 1.83 .03.03.06.07.1.1l.69.62 -.01-.01c.53.48.57 1.3.09 1.84 -.27.29-.65.44-1.04.42l-.94-.05 -.01-.01c-.73-.04-1.34.51-1.38 1.23 -.01.04-.01.08 0 .13l.04.93 0 0c.03.72-.52 1.33-1.24 1.37 -.4.02-.78-.14-1.04-.43l-.63-.7 0 0c-.48-.54-1.31-.59-1.84-.11 -.04.03-.08.06-.11.1l-.64.69 0-.01c-.49.53-1.31.57-1.85.09 -.3-.27-.45-.65-.43-1.04l.04-.94 -.01 0c.03-.73-.52-1.34-1.24-1.38 -.05-.01-.09-.01-.14-.01l-.94.04 0-.01c-.73.03-1.34-.53-1.37-1.25 -.02-.39.13-.77.42-1.03l.694-.63 0-.01c.53-.48.58-1.31.1-1.84 -.04-.04-.07-.08-.11-.11L.7 14.15l0 0c-.54-.49-.58-1.31-.1-1.85 .26-.3.64-.45 1.03-.43l.93.04 -.01-.01c.72.03 1.33-.52 1.37-1.24 0-.05 0-.09 0-.14l-.05-.94 -.01-.01c-.04-.73.52-1.34 1.24-1.37 .38-.02.76.13 1.02.42Z"/><path d="M8 12.5a3.5 3.5 0 1 0 0 7 3.5 3.5 0 1 0 0-7Z"/></g></svg>