<?xml version="1.0" encoding="utf-8"?>
<!-- Generator: Adobe Illustrator 24.0.0, SVG Export Plug-In . SVG Version: 6.00 Build 0)  -->
<svg version="1.1" id="Laag_1" xmlns="http://www.w3.org/2000/svg" xmlns:xlink="http://www.w3.org/1999/xlink" x="0px" y="0px"
	 viewBox="0 0 15 15" style="enable-background:new 0 0 15 15;" xml:space="preserve">
<style type="text/css">
	.st0{fill:none;stroke:#000000;stroke-width:1;stroke-linecap:round;stroke-linejoin:round;}
</style>
<g>
	<circle class="st0" cx="11.8" cy="3.5" r="0.9"/>
	<path class="st0" d="M12.4,0.9l0.2,0.7c0.1,0.2,0.3,0.4,0.5,0.3l0.7-0.2c0.3-0.1,0.6,0.1,0.7,0.5c0,0.2,0,0.4-0.1,0.5l-0.5,0.5
		c-0.2,0.2-0.2,0.4,0,0.6l0.5,0.5c0.2,0.2,0.2,0.6,0,0.9c-0.1,0.1-0.3,0.2-0.5,0.1l-0.7-0.2c-0.2-0.1-0.5,0.1-0.5,0.3l-0.2,0.7
		c-0.1,0.3-0.4,0.5-0.7,0.4c-0.2-0.1-0.3-0.2-0.4-0.4L11,5.5c-0.1-0.2-0.3-0.4-0.5-0.3L9.8,5.4C9.5,5.4,9.2,5.2,9.1,4.9
		c0-0.2,0-0.4,0.1-0.5l0.5-0.5c0.2-0.2,0.2-0.4,0-0.6L9.3,2.7C9,2.5,9,2.1,9.3,1.9c0.1-0.1,0.3-0.2,0.5-0.1l0.7,0.2
		C10.7,1.9,11,1.8,11,1.6l0.2-0.7c0.1-0.3,0.4-0.5,0.7-0.4C12.2,0.6,12.3,0.7,12.4,0.9z"/>
	<path class="st0" d="M4.5,6.1c0.3,0.3,0.8,0.4,1.1,0.1c0,0,0,0,0.1-0.1L6,5.6c0.3-0.3,0.8-0.4,1.1-0.1C7.3,5.7,7.4,6,7.4,6.2l0,0.6
		c0,0.4,0.3,0.8,0.8,0.8c0,0,0.1,0,0.1,0l0.6,0c0.4,0,0.8,0.3,0.8,0.8c0,0.2-0.1,0.5-0.3,0.6L8.9,9.3c-0.3,0.3-0.4,0.8-0.1,1.1
		c0,0,0,0,0.1,0.1l0.4,0.4c0.3,0.3,0.4,0.8,0.1,1.1c-0.2,0.2-0.4,0.3-0.6,0.3l-0.6,0c-0.4,0-0.8,0.3-0.8,0.8c0,0,0,0.1,0,0.1l0,0.6
		c0,0.4-0.3,0.8-0.8,0.8c-0.2,0-0.5-0.1-0.6-0.3l-0.4-0.4c-0.3-0.3-0.8-0.4-1.1-0.1c0,0,0,0-0.1,0.1l-0.4,0.4
		c-0.3,0.3-0.8,0.4-1.1,0.1c-0.2-0.2-0.3-0.4-0.3-0.6l0-0.6c0-0.4-0.3-0.8-0.8-0.8c0,0-0.1,0-0.1,0l-0.6,0c-0.4,0-0.8-0.3-0.8-0.8
		c0-0.2,0.1-0.5,0.3-0.6l0.4-0.4c0.3-0.3,0.4-0.8,0.1-1.1c0,0,0,0-0.1-0.1L0.8,9C0.4,8.7,0.4,8.2,0.7,7.8c0.2-0.2,0.4-0.3,0.6-0.3
		l0.6,0c0.4,0,0.8-0.3,0.8-0.8c0,0,0-0.1,0-0.1l0-0.6c0-0.4,0.3-0.8,0.8-0.8c0.2,0,0.5,0.1,0.6,0.3L4.5,6.1z"/>
	<circle class="st0" cx="5.1" cy="9.9" r="2.1"/>
</g>
</svg>
