<?xml version="1.0" encoding="UTF-8"?><svg version="1.1" viewBox="0 0 24 24" xmlns="http://www.w3.org/2000/svg" xmlns:xlink="http://www.w3.org/1999/xlink"><g stroke-linecap="round" stroke-width="1" stroke="#000" fill="none" stroke-linejoin="round"><path d="M20.254 13.5h2.246l-4.37114e-08-3.55271e-15c.552285 2.41411e-08 1-.447715 1-1v-1 0c0-.552285-.447715-1-1-1h-2.247l2.58172e-07 1.2835e-06c-.203882-1.0136-.540094-1.99602-1-2.922l1.589-1.588 -3.0608e-08 3.06172e-08c.390382-.3905.390382-1.0235 6.1216e-08-1.414l-1.418-1.414 4.18572e-08 4.18445e-08c-.3905-.390382-1.0235-.390382-1.414-8.3689e-08l-1.59 1.589 9.48775e-09 4.71789e-09c-.925213-.460072-1.90698-.796295-2.91999-.999999v-2.251 0c0-.552285-.447715-1-1-1h-1 -4.37114e-08c-.552285 2.41411e-08-1 .447715-1 1 0 0 0 0 0 0v2.249l-1.12193e-06 2.2554e-07c-1.01333.203709-1.99543.53993-2.921.999999l-1.59001-1.587 4.18572e-08 4.18445e-08c-.3905-.390382-1.0235-.390382-1.414-8.3689e-08l-1.415 1.415 5.30811e-08-5.30971e-08c-.390382.3905-.390382 1.0235-1.06162e-07 1.414l1.59 1.589 4.14832e-08-8.3559e-08c-.459598.925761-.795798 1.9078-1 2.921h-2.25l-4.37114e-08 1.77636e-15c-.552285 2.41411e-08-1 .447715-1 1 0 0 0 0 0 0v1l7.10543e-15-1.50996e-07c-8.33927e-08.552285.447715 1 1 1h2.246l-7.17578e-07-3.56045e-06c.204201 1.0132.5404 1.99524.999998 2.921l-1.59 1.59 5.30811e-08-5.30971e-08c-.390382.3905-.390382 1.0235-1.06162e-07 1.414l1.419 1.41401 -6.15305e-08-6.15119e-08c.3905.390382 1.0235.390382 1.414 1.23024e-07l1.589-1.59 -3.31585e-07-1.64687e-07c.925984.459905 1.9084.796118 2.922 1v2.25l1.06581e-14 1.50996e-07c8.33927e-08.552285.447715 1 1 1h1 -4.37114e-08c.552285 2.41411e-08 1-.447715 1-1v-2.245l1.02817e-06-2.07124e-07c1.01292-.204051 1.99465-.54026 2.92-1l1.591 1.589 -6.15305e-08-6.15119e-08c.3905.390382 1.0235.390382 1.414 1.23024e-07l1.414-1.414 -3.0608e-08 3.06172e-08c.390382-.3905.390382-1.0235 6.1216e-08-1.414l-1.589-1.59 3.68561e-07-7.40606e-07c.46139-.927143.798946-1.9109 1.004-2.926Z"></path><circle cx="12" cy="12.001" r="4.5"></circle></g></svg>