<?xml version="1.0" encoding="UTF-8"?><svg version="1.1" viewBox="0 0 24 24" xmlns="http://www.w3.org/2000/svg" xmlns:xlink="http://www.w3.org/1999/xlink"><g stroke-linecap="round" stroke-width="1" stroke="#000" fill="none" stroke-linejoin="round"><line x1="7.5" x2="16.5" y1="6.5" y2="6.5"></line><path d="M12 .5h-1.09278e-07c-1.38071 6.03528e-08-2.5 1.11929-2.5 2.5 0 0 0 1.77636e-15 0 1.77636e-15v11l-3.38683e-08-6.75078e-05c.000485064.993588.58931 1.89258 1.49994 2.29004v1.71003l5.32907e-15 7.54979e-08c4.16963e-08.276142.223858.5.5.5h1l2.38498e-08 2.94875e-12c.276142 3.41488e-05.500028-.223796.500062-.499938 2.54993e-09-2.06198e-05 3.82432e-09-4.12397e-05 3.82318e-09-6.18595e-05v-1.71l9.31306e-08-4.06455e-08c.910639-.397435 1.49949-1.29641 1.5-2.29v-11 0c0-1.38071-1.11929-2.5-2.5-2.5 0 0-1.87974e-11 0-1.87974e-11 0Z"></path><path d="M13 22.5v0c0 .552285-.447715 1-1 1 -.552285 0-1-.447715-1-1l-1.29704e-08 4.28666e-08c.217425-.718583.555588-1.39491.999999-2l1.37585e-07 1.87329e-07c.444411.60509.782575 1.28142 1 2Z"></path><line x1="12" x2="12" y1="9.5" y2="14"></line></g></svg>