<?xml version="1.0" encoding="utf-8"?>
<!-- Generator: Adobe Illustrator 24.0.0, SVG Export Plug-In . SVG Version: 6.00 Build 0)  -->
<svg version="1.1" id="Laag_1" xmlns="http://www.w3.org/2000/svg" xmlns:xlink="http://www.w3.org/1999/xlink" x="0px" y="0px"
	 viewBox="0 0 15 15" style="enable-background:new 0 0 15 15;" xml:space="preserve">
<style type="text/css">
	.st0{fill:none;stroke:#000000;stroke-width:1;stroke-linecap:round;stroke-linejoin:round;}
</style>
<g>
	<line class="st0" x1="4.8" y1="4.2" x2="10.2" y2="4.2"/>
	<path class="st0" d="M7.5,0.5C6.7,0.5,6,1.2,6,2v6.7c0,0.6,0.4,1.2,0.9,1.4v1c0,0.2,0.1,0.3,0.3,0.3h0.6c0.2,0,0.3-0.1,0.3-0.3v-1
		C8.7,9.9,9,9.3,9,8.7V2C9,1.2,8.3,0.5,7.5,0.5z"/>
	<path class="st0" d="M8.1,13.9c0,0.3-0.3,0.6-0.6,0.6s-0.6-0.3-0.6-0.6C7,13.5,7.2,13,7.5,12.7C7.8,13,8,13.5,8.1,13.9z"/>
	<line class="st0" x1="7.5" y1="6" x2="7.5" y2="8.7"/>
</g>
</svg>
