<svg viewBox="0 0 24 24" xmlns="http://www.w3.org/2000/svg"><g stroke-linecap="round" stroke="#000" fill="none" stroke-linejoin="round"><path d="M21.207 4.5l-.01-.01c.18.18.29.44.29.7v17.29 0c0 .55-.45 1-1 1h-17 -.01c-.56-.01-1-.45-1-1.01 0 0 0-.001 0-.001v-21l0 0C2.46.9 2.91.45 3.46.45h13.29l0 0c.26 0 .51.1.7.29Z"/><path d="M6 16l12 0"/><path d="M6 19l12 0"/><path d="M6 13l12 0"/><path d="M6 10l12 0"/><path d="M6 7l7 0"/><path d="M6 7l7 0"/><path d="M6 10l12 0"/><path d="M6 13l12 0"/><path d="M6 16l12 0"/><path d="M6 19l12 0"/></g></svg>