<?xml version="1.0" encoding="UTF-8"?><svg version="1.1" viewBox="0 0 24 24" xmlns="http://www.w3.org/2000/svg" xmlns:xlink="http://www.w3.org/1999/xlink"><g stroke-linecap="round" stroke-width="1" stroke="#000" fill="none" stroke-linejoin="round"><path d="M9.707 3.207l1.36433e-08 1.36392e-08c.187795.187738.293209.442459.293.708v5.585 0c0 .552285-.447715 1-1 1h-6l-4.37114e-08-1.77636e-15c-.552285-2.41411e-08-1-.447715-1-1 0 0 0 0 0 0v-8l1.15463e-14 1.50996e-07c-8.33927e-08-.552285.447715-1 1-1h3.586l1.02845e-08 2.1968e-12c.265195 5.66401e-05.519507.105451.707.293Z"></path><path d="M9.707 16.207l1.36433e-08 1.36392e-08c.187795.187738.293209.442459.293.708v5.585 0c0 .552285-.447715 1-1 1h-6 -4.37114e-08c-.552285-2.41411e-08-1-.447715-1-1 0 0 0-3.55271e-15 0-3.55271e-15v-8l1.15463e-14 1.50996e-07c-8.33927e-08-.552285.447715-1 1-1h3.586l1.02845e-08 2.19735e-12c.265195 5.66401e-05.519507.105451.707.293Z"></path><path d="M21.707 3.207l1.36433e-08 1.36392e-08c.187795.187738.293209.442459.293.708v5.585 0c0 .552285-.447715 1-1 1h-6l-4.37114e-08-1.77636e-15c-.552285-2.41411e-08-1-.447715-1-1 0 0 0 0 0 0v-8l1.06581e-14 1.50996e-07c-8.33927e-08-.552285.447715-1 1-1h3.586l1.02845e-08 2.19658e-12c.265195 5.66401e-05.519507.105451.707.293Z"></path><path d="M21.707 16.207l1.36433e-08 1.36392e-08c.187795.187738.293209.442459.293.708v5.585 0c0 .552285-.447715 1-1 1h-6 -4.37114e-08c-.552285-2.41411e-08-1-.447715-1-1 0 0 0-3.55271e-15 0-3.55271e-15v-8l1.06581e-14 1.50996e-07c-8.33927e-08-.552285.447715-1 1-1h3.586l1.02845e-08 2.19735e-12c.265195 5.66401e-05.519507.105451.707.293Z"></path></g></svg>