<?xml version="1.0" encoding="UTF-8"?><svg version="1.1" viewBox="0 0 24 24" xmlns="http://www.w3.org/2000/svg" xmlns:xlink="http://www.w3.org/1999/xlink"><g stroke-linecap="round" stroke-width="1" stroke="#000" fill="none" stroke-linejoin="round"><path d="M21.207 4.5l-1.96434e-08-1.96375e-08c.187549.187493.292943.441805.293.707v17.293 0c0 .552285-.447715 1-1 1h-17 -4.37114e-08c-.552285-2.41411e-08-1-.447715-1-1 0 0 0-3.55271e-15 0-3.55271e-15v-21l1.24345e-14 1.50996e-07c-8.33927e-08-.552285.447715-1 1-1h13.293l1.02845e-08 2.1968e-12c.265195 5.66401e-05.519507.105451.707.293Z"></path><line x1="6" x2="18" y1="16" y2="16"></line><line x1="6" x2="18" y1="19" y2="19"></line><line x1="6" x2="18" y1="13" y2="13"></line><line x1="6" x2="18" y1="10" y2="10"></line><line x1="6" x2="13" y1="7" y2="7"></line><line x1="6" x2="13" y1="7" y2="7"></line><line x1="6" x2="18" y1="10" y2="10"></line><line x1="6" x2="18" y1="13" y2="13"></line><line x1="6" x2="18" y1="16" y2="16"></line><line x1="6" x2="18" y1="19" y2="19"></line></g></svg>