<?xml version="1.0" encoding="UTF-8"?><svg version="1.1" viewBox="0 0 24 24" xmlns="http://www.w3.org/2000/svg" xmlns:xlink="http://www.w3.org/1999/xlink"><g stroke-linecap="round" stroke-width="1" stroke="#000" fill="none" stroke-linejoin="round"><circle cx="13.756" cy="18.25" r="2.25"></circle><circle cx="21.256" cy="21.25" r="2.25"></circle><circle cx="21.256" cy="13.75" r="2.25"></circle><line x1="15.68" x2="19.33" y1="17.09" y2="14.9"></line><line x1="15.84" x2="19.17" y1="19.08" y2="20.42"></line><path d="M11.506 23.5h-10 -4.37114e-08c-.552285-2.41411e-08-1-.447715-1-1 0 0 0 0 0 0v-21l1.42109e-14 1.50996e-07c-8.33927e-08-.552285.447715-1 1-1h13.294l1.02845e-08 2.19647e-12c.265195 5.66401e-05.519507.105451.707.293l3.706 3.707 -1.96434e-08-1.96375e-08c.187549.187493.292943.441805.293.707v3.293"></path></g></svg>