<?xml version="1.0" encoding="UTF-8"?><svg version="1.1" viewBox="0 0 24 24" xmlns="http://www.w3.org/2000/svg" xmlns:xlink="http://www.w3.org/1999/xlink"><g stroke-linecap="round" stroke-width="1" stroke="#000" fill="none" stroke-linejoin="round"><line x1="3" x2="3" y1="17" y2="19"></line><line x1="3" x2="3" y1="13" y2="15"></line><line x1="3" x2="3" y1="9" y2="11"></line><line x1="21" x2="21" y1="17" y2="19"></line><line x1="21" x2="21" y1="13" y2="15"></line><line x1="21" x2="21" y1="9" y2="11"></line><line x1="3" x2="3" y1="5" y2="7"></line><line x1="7" x2="9" y1="1" y2="1"></line><line x1="11" x2="13" y1="1" y2="1"></line><line x1="7" x2="9" y1="23" y2="23"></line><line x1="11" x2="13" y1="23" y2="23"></line><line x1="15" x2="17" y1="23" y2="23"></line><path fill-rule="evenodd" d="M3 21v1l1.15463e-14 1.50996e-07c8.33927e-08.552285.447715 1 1 1h1"></path><path fill-rule="evenodd" d="M21 21v1 0c0 .552285-.447715 1-1 1h-1"></path><path fill-rule="evenodd" d="M3 3v-1l1.15463e-14 1.50996e-07c-8.33927e-08-.552285.447715-1 1-1h1"></path><polyline points="15,1 16,1 16.5,1.5"></polyline><polyline points="20.5,5.5 21,6 21,7.25"></polyline><line x1="18.02" x2="19" y1="3" y2="4"></line></g></svg>