<?xml version="1.0" encoding="UTF-8"?><svg version="1.1" viewBox="0 0 24 24" xmlns="http://www.w3.org/2000/svg" xmlns:xlink="http://www.w3.org/1999/xlink"><g stroke-linecap="round" stroke-width="1" stroke="#000" fill="none" stroke-linejoin="round"><path d="M2 6.4l1.06581e-14 1.35896e-07c-7.50534e-08-.497056.402944-.9.9-.9h9.178l-2.74907e-08 7.84368e-11c.269674-.000769437.528228.107412.717.3l2.922 3.006 -3.14524e-09-3.23511e-09c.182182.187387.283764.43865.283.7v13.094h1.77636e-15c0 .497056-.402944.9-.9.9h-12.2 -3.93403e-08c-.497056-2.1727e-08-.9-.402944-.9-.9Z"></path><path d="M8 5.5v-4.1l8.88178e-15-1.35896e-07c7.50534e-08-.497056.402944-.9.9-.9 0 0 0 0 0 0h9.178l-9.58178e-09 7.49978e-11c.271406-.00212436.532018.106163.722.3l2.922 3.006 -3.14523e-09-3.2351e-09c.182182.187387.283764.43865.283.7v13.094 0c0 .497056-.402944.9-.9.9h-5.105"></path></g></svg>