<?xml version="1.0" encoding="utf-8"?>
<!-- Generator: Adobe Illustrator 24.0.0, SVG Export Plug-In . SVG Version: 6.00 Build 0)  -->
<svg version="1.1" id="Laag_1" xmlns="http://www.w3.org/2000/svg" xmlns:xlink="http://www.w3.org/1999/xlink" x="0px" y="0px"
	 viewBox="0 0 15 15" style="enable-background:new 0 0 15 15;" xml:space="preserve">
<style type="text/css">
	.st0{fill:none;stroke:#000000;stroke-width:1;stroke-linecap:round;stroke-linejoin:round;}
</style>
<g>
	<path class="st0" d="M13.1,2.9c0.1,0.1,0.2,0.3,0.2,0.4v10.5c0,0.3-0.3,0.6-0.6,0.6H2.3c-0.3,0-0.6-0.3-0.6-0.6V1.1
		c0-0.3,0.3-0.6,0.6-0.6h8.1c0.2,0,0.3,0.1,0.4,0.2L13.1,2.9z"/>
	<line class="st0" x1="3.8" y1="9.9" x2="11.2" y2="9.9"/>
	<line class="st0" x1="3.8" y1="11.8" x2="11.2" y2="11.8"/>
	<line class="st0" x1="3.8" y1="8.1" x2="11.2" y2="8.1"/>
	<line class="st0" x1="3.8" y1="6.3" x2="11.2" y2="6.3"/>
	<line class="st0" x1="3.8" y1="4.5" x2="8.1" y2="4.5"/>
	<line class="st0" x1="3.8" y1="4.5" x2="8.1" y2="4.5"/>
	<line class="st0" x1="3.8" y1="6.3" x2="11.2" y2="6.3"/>
	<line class="st0" x1="3.8" y1="8.1" x2="11.2" y2="8.1"/>
	<line class="st0" x1="3.8" y1="9.9" x2="11.2" y2="9.9"/>
	<line class="st0" x1="3.8" y1="11.8" x2="11.2" y2="11.8"/>
</g>
</svg>
