<?xml version="1.0" encoding="UTF-8"?><svg version="1.1" viewBox="0 0 24 24" xmlns="http://www.w3.org/2000/svg" xmlns:xlink="http://www.w3.org/1999/xlink"><g stroke-linecap="round" stroke-width="1" stroke="#000" fill="none" stroke-linejoin="round"><path d="M17.086.5l1.02845e-08 2.19558e-12c.265195 5.66401e-05.519507.105451.707.293l3.414 3.414 -1.96434e-08-1.96375e-08c.187549.187493.292943.441805.293.707v14.586 0c0 .552285-.447715 1-1 1h-14 -4.37114e-08c-.552285-2.41411e-08-1-.447715-1-1 0 0 0-3.55271e-15 0-3.55271e-15v-18l1.15463e-14 1.50996e-07c-8.33927e-08-.552285.447715-1 1-1Z"></path><path d="M18.5 20.5v2 0c0 .552285-.447715 1-1 1h-14 -4.37114e-08c-.552285-2.41411e-08-1-.447715-1-1 0 0 0-3.55271e-15 0-3.55271e-15v-18l1.15463e-14 1.50996e-07c-8.33927e-08-.552285.447715-1 1-1h2"></path></g></svg>