<svg viewBox="0 0 24 24" xmlns="http://www.w3.org/2000/svg"><g stroke-linecap="round" stroke="#000" fill="none" stroke-linejoin="round"><path d="M16.42 8.842l-.01-.001c.25 0 .46-.21.46-.47 0-.04-.01-.07-.02-.11l-.01-.01c-.6-2.7-3.27-4.41-5.96-3.81 -1.89.41-3.37 1.88-3.8 3.76l-.01 0c-.07.26.1.53.37.6 .03 0 .07.01.11.01Z"/><path d="M8 .84s0 .45 0 1c0 1.13.91 2.21 1.6 3.11"/><path d="M16.009.84s0 .45 0 1c-.01 1.13-.93 2.21-1.609 3.11"/><path d="M7 10.842v6c0 2.12 2.95 5.11 4.318 6.38l-.01-.01c.38.35.97.35 1.36 0 1.36-1.28 4.31-4.27 4.31-6.39v-6Z"/><path d="M7 10.844H5.75c-1.39 0-2.286 1.03-3.25 2"/><path d="M7 14.846H5.75c-1.39 0-2.286 1.03-3.25 2"/><path d="M7.633 18.844H6.25c-1.39 0-2.286 1.03-3.25 2"/><path d="M17 10.844h1.25c1.38 0 2.28 1.03 3.25 2"/><path d="M17 14.846h1.25c1.38 0 2.28 1.03 3.25 2"/><path d="M16.367 18.844h1.38c1.38 0 2.28 1.03 3.25 2"/></g></svg>