<?xml version="1.0" encoding="UTF-8"?><svg version="1.1" viewBox="0 0 24 24" xmlns="http://www.w3.org/2000/svg" xmlns:xlink="http://www.w3.org/1999/xlink"><g stroke-linecap="round" stroke-width="1" stroke="#000" fill="none" stroke-linejoin="round"><circle cx="12" cy="12" r="11.5"></circle><path d="M14.968 13.641l4.30759e-08-1.03391e-07c-.202899.486998-.590002.874101-1.077 1.077l-6.678 2.782 -1.63619e-08 6.78253e-09c-.255094.105744-.547611-.0153269-.653355-.27042 -.0476428-.114932-.0507252-.243497-.00864497-.36058l2.479-6.885 4.25592e-08-1.18115e-07c.201329-.55875.641251-.998671 1.2-1.2l6.89-2.484 3.57371e-08-1.28441e-08c.259868-.0933981.546247.0415525.639645.301421 .0420802.117083.0389978.245648-.00864501.36058Z"></path><circle cx="12" cy="12" r="1.5"></circle><line x1="12" x2="12" y1="2.5" y2="3.5"></line><line x1="21.5" x2="20.5" y1="12" y2="12"></line><line x1="18.72" x2="18.01" y1="18.72" y2="18.01"></line><line x1="12" x2="12" y1="21.5" y2="20.5"></line><line x1="2.5" x2="3.5" y1="12" y2="12"></line><line x1="5.28" x2="5.99" y1="5.28" y2="5.99"></line></g></svg>