<?xml version="1.0" encoding="UTF-8"?><svg version="1.1" viewBox="0 0 24 24" xmlns="http://www.w3.org/2000/svg" xmlns:xlink="http://www.w3.org/1999/xlink"><g stroke-linecap="round" stroke-width="1" stroke="#000" fill="none" stroke-linejoin="round"><path d="M23.5 21.28l1.28495e-08 3.54012e-05c.000190686.552285-.44737 1.00015-.999655 1.00035 -.244417 8.43892e-05-.480402-.089349-.663372-.251404l-10.49-9.28 8.2827e-08 7.30465e-08c-.414214-.365302-.453864-.997224-.0885623-1.41144 .0276412-.0313422.05722-.0609209.0885622-.0885622l10.49-9.28 9.33937e-08-8.27188e-08c.413437-.366181 1.04544-.327873 1.41162.0855638 .162533.183508.252.420324.251404.66546Z"></path><rect width="6" height="23" x=".5" y=".5" rx=".55228" ry="0"></rect></g></svg>