<?xml version="1.0" encoding="UTF-8"?><svg version="1.1" viewBox="0 0 24 24" xmlns="http://www.w3.org/2000/svg" xmlns:xlink="http://www.w3.org/1999/xlink"><path d="M23.167 2.727l-1.11728e-08 3.78986e-06c.00162922-.552282-.444763-1.00132-.997046-1.00295 -.247148-.00072908-.485811.0900903-.669951.254939l-7.333 6.521v-5h1.77636e-15c0-.552285-.447715-1-1-1 -.21637 0-.426904.0701779-.6.2l-11.334 8.5 -7.79577e-08 5.84683e-08c-.441828.331371-.531371.958172-.2 1.4 .0568543.0758057.124194.143146.2.2l11.334 8.5 -7.79577e-08-5.84683e-08c.441828.331371 1.06863.241828 1.4-.2 .129822-.173096.2-.38363.2-.6v-5l7.333 6.521 5.48413e-08 4.88316e-08c.41247.36727 1.04457.330628 1.41184-.0818422 .163329-.18343.253441-.420551.253157-.666158Z" stroke-linecap="round" stroke-width="1" stroke="#000" fill="none" stroke-linejoin="round"></path></svg>