<?xml version="1.0" encoding="utf-8"?>
<!-- Generator: Adobe Illustrator 24.0.0, SVG Export Plug-In . SVG Version: 6.00 Build 0)  -->
<svg version="1.1" id="Laag_1" xmlns="http://www.w3.org/2000/svg" xmlns:xlink="http://www.w3.org/1999/xlink" x="0px" y="0px"
	 viewBox="0 0 15 15" style="enable-background:new 0 0 15 15;" xml:space="preserve">
<style type="text/css">
	.st0{fill:none;stroke:#000000;stroke-width:1;stroke-linecap:round;stroke-linejoin:round;}
</style>
<g>
	<path class="st0" d="M14.5,1.7c0-0.3-0.3-0.6-0.6-0.6c-0.2,0-0.3,0.1-0.4,0.2L8.9,5.3V2.2c0-0.3-0.3-0.6-0.6-0.6
		c-0.1,0-0.3,0-0.4,0.1L0.8,7C0.5,7.2,0.4,7.6,0.6,7.9c0,0,0.1,0.1,0.1,0.1l7.1,5.3c0.3,0.2,0.7,0.2,0.9-0.1
		c0.1-0.1,0.1-0.2,0.1-0.4V9.7l4.6,4.1c0.3,0.2,0.7,0.2,0.9-0.1c0.1-0.1,0.2-0.3,0.2-0.4L14.5,1.7z"/>
</g>
</svg>
