<?xml version="1.0" encoding="utf-8"?>
<!-- Generator: Adobe Illustrator 24.0.0, SVG Export Plug-In . SVG Version: 6.00 Build 0)  -->
<svg version="1.1" id="Laag_1" xmlns="http://www.w3.org/2000/svg" xmlns:xlink="http://www.w3.org/1999/xlink" x="0px" y="0px"
	 viewBox="0 0 15 15" style="enable-background:new 0 0 15 15;" xml:space="preserve">
<style type="text/css">
	.st0{fill:none;stroke:#000000;stroke-width:1;stroke-linecap:round;stroke-linejoin:round;}
</style>
<g>
	<path class="st0" d="M14.5,13.1c0,0.3-0.3,0.6-0.6,0.6c-0.1,0-0.3-0.1-0.4-0.2L7.1,8C6.9,7.7,6.8,7.3,7,7.1c0,0,0,0,0.1-0.1
		l6.4-5.6c0.3-0.2,0.6-0.2,0.9,0.1c0.1,0.1,0.2,0.3,0.2,0.4V13.1z"/>
	<path class="st0" d="M1.1,0.5h2.4c0.3,0,0.6,0.3,0.6,0.6v12.8c0,0.3-0.3,0.6-0.6,0.6H1.1c-0.3,0-0.6-0.3-0.6-0.6V1.1
		C0.5,0.8,0.8,0.5,1.1,0.5z"/>
</g>
</svg>
