<?xml version="1.0" encoding="utf-8"?>
<!-- Generator: Adobe Illustrator 24.0.0, SVG Export Plug-In . SVG Version: 6.00 Build 0)  -->
<svg version="1.1" id="Laag_1" xmlns="http://www.w3.org/2000/svg" xmlns:xlink="http://www.w3.org/1999/xlink" x="0px" y="0px"
	 viewBox="0 0 15 15" style="enable-background:new 0 0 15 15;" xml:space="preserve">
<style type="text/css">
	.st0{fill:none;stroke:#000000;stroke-width:1;stroke-linecap:round;stroke-linejoin:round;}
</style>
<g>
	<path class="st0" d="M2.3,0.5h2.9C5.7,0.5,6,0.8,6,1.2v12.5c0,0.4-0.3,0.7-0.7,0.7H2.3c-0.4,0-0.7-0.3-0.7-0.7V1.2
		C1.6,0.8,1.9,0.5,2.3,0.5z"/>
	<path class="st0" d="M9.7,0.5h2.9c0.4,0,0.7,0.3,0.7,0.7v12.5c0,0.4-0.3,0.7-0.7,0.7H9.7c-0.4,0-0.7-0.3-0.7-0.7V1.2
		C9,0.8,9.3,0.5,9.7,0.5z"/>
</g>
</svg>
