<?xml version="1.0" encoding="UTF-8"?><svg version="1.1" viewBox="0 0 24 24" xmlns="http://www.w3.org/2000/svg" xmlns:xlink="http://www.w3.org/1999/xlink"><g stroke-linecap="round" stroke-width="1" stroke="#000" fill="none" stroke-linejoin="round"><path d="M9.5 22.5h-8 -4.37114e-08c-.552285-2.41411e-08-1-.447715-1-1 0 0 0-3.55271e-15 0-3.55271e-15v-17l1.13243e-14 1.50996e-07c-8.33927e-08-.552285.447715-1 1-1h4"></path><path d="M13.5 3.5h4l-4.37114e-08 8.88178e-16c.552285-2.41411e-08 1 .447715 1 1v3.5"></path><path d="M11.5 2.5v0c0-1.10457-.895431-2-2-2 -1.10457 2.22045e-16-2 .895431-2 2h-2v3h8v-3Z"></path><path d="M22.5 22.5v0c0 .552285-.447715 1-1 1h-9 -4.37114e-08c-.552285-2.41411e-08-1-.447715-1-1 0 0 0-3.55271e-15 0-3.55271e-15v-11.5l1.06581e-14 1.50996e-07c-8.33927e-08-.552285.447715-1 1-1h7.086l1.02845e-08 2.19735e-12c.265195 5.66401e-05.519507.105451.707.293l1.914 1.914 -1.96434e-08-1.96375e-08c.187549.187493.292943.441805.293.707Z"></path><line x1="14.5" x2="19.5" y1="14.5" y2="14.5"></line><line x1="14.5" x2="19.5" y1="17.5" y2="17.5"></line></g></svg>