<svg viewBox="0 0 24 24" xmlns="http://www.w3.org/2000/svg"><g stroke-linecap="round" stroke="#000" fill="none" stroke-linejoin="round"><path d="M9.5 22.5h-8 -.01c-.56-.01-1-.45-1-1.01 0 0 0-.001 0-.001v-17l0 0c-.01-.56.44-1.01.99-1.01h4"/><path d="M13.5 3.5h4l-.01 0c.55-.01 1 .44 1 .99v3.5"/><path d="M11.5 2.5v0c0-1.11-.9-2-2-2 -1.11 0-2 .89-2 2h-2v3h8v-3Z"/><path d="M22.5 22.5v0c0 .55-.45 1-1 1h-9 -.01c-.56-.01-1-.45-1-1.01 0 0 0-.001 0-.001v-11.5l0 0c-.01-.56.44-1.01.99-1.01h7.086l0 0c.26 0 .51.1.7.29l1.91 1.91 -.01-.01c.18.18.29.44.29.7Z"/><path d="M14.5 14.5l5 0"/><path d="M14.5 17.5l5 0"/></g></svg>