<?xml version="1.0" encoding="UTF-8"?><svg version="1.1" viewBox="0 0 24 24" xmlns="http://www.w3.org/2000/svg" xmlns:xlink="http://www.w3.org/1999/xlink"><g stroke-linecap="round" stroke-width="1" stroke="#000" fill="none" stroke-linejoin="round"><ellipse cx="10.021" rx="9.5" ry="4" cy="4.501"></ellipse><path d="M10.021 12.5c-5.246 0-9.5-1.79-9.5-4"></path><path d="M9.021 16.979c-4.776-.21-8.5-1.911-8.5-3.979"></path><path d="M9.021 21.479c-4.776-.21-8.5-1.911-8.5-3.978v-13.001"></path><line x1="19.52" x2="19.52" y1="4.5" y2="9.5"></line><polyline points="19.02,15.501 23.52,15.501 23.52,11.001"></polyline><path d="M23.178 15.5l1.71843e-07 4.86351e-07c-1.10395-3.12441-4.53172-4.76232-7.65613-3.65837 -3.12441 1.10395-4.76232 4.53172-3.65837 7.65613 1.10395 3.12441 4.53172 4.76232 7.65613 3.65837 1.05815-.373879 1.99024-1.03703 2.69037-1.91413"></path></g></svg>