<?xml version="1.0" encoding="UTF-8"?><svg version="1.1" viewBox="0 0 24 24" xmlns="http://www.w3.org/2000/svg" xmlns:xlink="http://www.w3.org/1999/xlink"><g stroke-linecap="round" stroke-width="1" stroke="#000" fill="none" stroke-linejoin="round"><ellipse cx="10.022" rx="9.5" ry="4" cy="4.501"></ellipse><path d="M10.022 12.5c-5.246 0-9.5-1.79-9.5-4"></path><path d="M8.522 16.95c-4.533-.3-8-1.955-8-3.949"></path><path d="M9.022 21.479c-4.776-.21-8.5-1.911-8.5-3.978v-13.001"></path><line x1="19.52" x2="19.52" y1="4.5" y2="9"></line><path d="M15.72 22.3l-4.2 1.2 1.2-4.2 7.18-7.178 -8.94366e-09 8.94366e-09c.828427-.828427 2.17157-.828427 3-1.78873e-08 .828427.828427.828427 2.17157 1.78873e-08 3Z"></path><line x1="19" x2="22" y1="13.02" y2="16.02"></line><line x1="12.72" x2="15.72" y1="19.3" y2="22.3"></line></g></svg>