<?xml version="1.0" encoding="utf-8"?>
<!-- Generator: Adobe Illustrator 24.0.0, SVG Export Plug-In . SVG Version: 6.00 Build 0)  -->
<svg version="1.1" id="Laag_1" xmlns="http://www.w3.org/2000/svg" xmlns:xlink="http://www.w3.org/1999/xlink" x="0px" y="0px"
	 viewBox="0 0 15 15" style="enable-background:new 0 0 15 15;" xml:space="preserve">
<style type="text/css">
	.st0{fill:none;stroke:#000000;stroke-width:1;stroke-linecap:round;stroke-linejoin:round;}
</style>
<g>
	<ellipse class="st0" cx="6.3" cy="2.9" rx="5.8" ry="2.4"/>
	<path class="st0" d="M6.3,7.8c-3.2,0-5.8-1.1-5.8-2.4"/>
	<path class="st0" d="M5.7,10.5c-2.9-0.1-5.2-1.2-5.2-2.4"/>
	<path class="st0" d="M5.7,13.3c-2.9-0.1-5.2-1.2-5.2-2.4V2.9"/>
	<line class="st0" x1="12.1" y1="2.9" x2="12.1" y2="6"/>
	<polyline class="st0" points="9.3,11.5 7.2,11.5 7.2,13.6 	"/>
	<path class="st0" d="M14.1,12.2c-0.6,1.8-2.5,2.7-4.3,2.1c-1.3-0.4-2.1-1.5-2.3-2.9"/>
	<polyline class="st0" points="12.4,10.2 14.5,10.2 14.5,8.1 	"/>
	<path class="st0" d="M7.6,9.5c0.6-1.8,2.5-2.7,4.3-2.1c1.3,0.4,2.1,1.5,2.3,2.9"/>
</g>
</svg>
