<?xml version="1.0" encoding="UTF-8"?><svg version="1.1" viewBox="0 0 24 24" xmlns="http://www.w3.org/2000/svg" xmlns:xlink="http://www.w3.org/1999/xlink"><g stroke-linecap="round" stroke-width="1" stroke="#000" fill="none" stroke-linejoin="round"><ellipse cx="10.021" rx="9.5" ry="4" cy="4.501"></ellipse><path d="M10.021 12.5c-5.246 0-9.5-1.79-9.5-4"></path><path d="M10.021 17c-5.246 0-9.5-1.79-9.5-4"></path><path d="M10.021 21.5c-5.246 0-9.5-1.79-9.5-4v-13"></path><line x1="19.52" x2="19.52" y1="4.5" y2="9"></line><circle cx="17.77" cy="17.032" r="1.438"></circle><path d="M18.991 11.471l.424 1.392 2.4693e-09 8.22126e-09c.144229.480196.636495.765929 1.125.653l1.411-.327 -1.08977e-07 2.45633e-08c.69124-.155805 1.37791.27825 1.53371.96949 .0932008.413491-.0238349.846329-.31271 1.15651l-.988 1.064 -2.28575e-08 2.48433e-08c-.33804.367408-.33804.932592 4.5715e-08 1.3l.987 1.064 -2.17414e-08-2.33449e-08c.482918.518534.454045 1.33037-.0644897 1.81329 -.310181.288875-.743019.405911-1.15651.31271l-1.411-.327 2.3702e-08 5.45405e-09c-.488174-.112334-.979789.173275-1.124.653l-.424 1.392 3.56563e-08-1.18586e-07c-.20276.67434-.91379 1.05663-1.58813.853871 -.409908-.123251-.73062-.443962-.853871-.853871l-.424-1.387 2.2532e-08 7.50182e-08c-.144229-.480196-.636495-.765929-1.125-.653l-1.411.327 -4.41817e-10 9.95861e-11c-.69124.155805-1.37791-.27825-1.53371-.96949 -.0932008-.413491.023835-.846329.31271-1.15651l.987-1.064 4.77571e-09-5.19061e-09c.33804-.367408.33804-.932592-9.55141e-09-1.3l-.987-1.065 -5.47011e-08-5.87354e-08c-.482918-.518534-.454045-1.33037.0644898-1.81329 .310181-.288875.743019-.405911 1.15651-.31271l1.411.322 -4.44213e-08-1.02229e-08c.488426.112404.980355-.173133 1.125-.653l.424-1.392 -3.49317e-08 1.16004e-07c.203036-.674257.914222-1.05626 1.58848-.853221 .409858.123419.730438.444262.853521.854221Z"></path></g></svg>