<?xml version="1.0" encoding="UTF-8"?><svg version="1.1" viewBox="0 0 24 24" xmlns="http://www.w3.org/2000/svg" xmlns:xlink="http://www.w3.org/1999/xlink"><g stroke-linecap="round" stroke-width="1" stroke="#000" fill="none" stroke-linejoin="round"><path d="M19.523 4.526c0 2.205-4.254 4-9.5 4 -5.246 0-9.5-1.795-9.5-4 0-2.205 4.254-4.026 9.5-4.026 5.246 0 9.5 1.815 9.5 4.026Z"></path><path d="M10.023 12.526c-5.246 0-9.5-1.795-9.5-4"></path><path d="M8.523 16.975c-4.533-.3-8-1.958-8-3.949"></path><path d="M9.023 21.493c-4.776-.212-8.5-1.9-8.5-3.967v-13.026"></path><line x1="19.52" x2="19.52" y1="4.5" y2="9"></line><circle cx="17.518" cy="17.501" r="6"></circle><line x1="17.52" x2="17.52" y1="20.5" y2="14.5"></line><line x1="17.52" x2="15.27" y1="14.5" y2="16.75"></line><line x1="17.52" x2="19.77" y1="14.5" y2="16.75"></line></g></svg>