<?xml version="1.0" encoding="utf-8"?>
<!-- Generator: Adobe Illustrator 24.0.0, SVG Export Plug-In . SVG Version: 6.00 Build 0)  -->
<svg version="1.1" id="Laag_1" xmlns="http://www.w3.org/2000/svg" xmlns:xlink="http://www.w3.org/1999/xlink" x="0px" y="0px"
	 viewBox="0 0 15 15" style="enable-background:new 0 0 15 15;" xml:space="preserve">
<style type="text/css">
	.st0{fill:none;stroke:#000000;stroke-width:1;stroke-linecap:round;stroke-linejoin:round;}
</style>
<g>
	<path class="st0" d="M12.1,3c0,1.3-2.6,2.4-5.8,2.4S0.5,4.3,0.5,3s2.6-2.5,5.8-2.5S12.1,1.6,12.1,3z"/>
	<path class="st0" d="M6.3,7.8c-3.2,0-5.8-1.1-5.8-2.4"/>
	<path class="st0" d="M5.4,10.5c-2.8-0.2-4.9-1.2-4.9-2.4"/>
	<path class="st0" d="M5.7,13.3c-2.9-0.1-5.2-1.2-5.2-2.4V2.9"/>
	<line class="st0" x1="12.1" y1="2.9" x2="12.1" y2="5.7"/>
	<circle class="st0" cx="10.8" cy="10.8" r="3.7"/>
	<line class="st0" x1="12.1" y1="9.6" x2="9.6" y2="12.1"/>
	<line class="st0" x1="12.1" y1="12.1" x2="9.6" y2="9.6"/>
</g>
</svg>
