<?xml version="1.0" encoding="UTF-8"?><svg version="1.1" viewBox="0 0 24 24" xmlns="http://www.w3.org/2000/svg" xmlns:xlink="http://www.w3.org/1999/xlink"><g stroke-linecap="round" stroke-width="1" stroke="#000" fill="none" stroke-linejoin="round"><ellipse cx="13.003" rx="8.5" ry="3" cy="4.001"></ellipse><path d="M21.5 8c0 1.657-3.806 3-8.5 3 -4.694 0-8.5-1.342-8.5-3"></path><path d="M21.5 12c0 1.657-3.806 3-8.5 3 -4.694 0-8.5-1.343-8.5-3"></path><path d="M21.5 4v12c0 1.657-3.806 3-8.5 3 -4.694 0-8.5-1.343-8.5-3v-12"></path><line x1="1.5" x2="11" y1="22" y2="22"></line><line x1="12.5" x2="12.5" y1="19" y2="20.5"></line><circle cx="12.5" cy="22.001" r="1.5"></circle><line x1="14" x2="22.5" y1="22" y2="22"></line></g></svg>