<?xml version="1.0" encoding="UTF-8"?><svg version="1.1" viewBox="0 0 24 24" xmlns="http://www.w3.org/2000/svg" xmlns:xlink="http://www.w3.org/1999/xlink"><g stroke-linecap="round" stroke-width="1" stroke="#000" fill="none" stroke-linejoin="round"><ellipse cx="4.5" rx="3" ry="1.5" cy="3.001"></ellipse><path d="M7.5 5.5c0 .828-1.344 1.5-3 1.5 -1.656 0-3-.672-3-1.5"></path><path d="M7.5 3v5c0 .828-1.344 1.5-3 1.5 -1.656 0-3-.672-3-1.5v-5"></path><ellipse cx="19.5" rx="3" ry="1.5" cy="3.001"></ellipse><path d="M22.5 5.5c0 .828-1.344 1.5-3 1.5 -1.656 0-3-.672-3-1.5"></path><path d="M22.5 3v5c0 .828-1.344 1.5-3 1.5 -1.656 0-3-.672-3-1.5v-5"></path><ellipse cx="4.5" rx="3" ry="1.5" cy="16.001"></ellipse><path d="M7.5 18.5c0 .828-1.344 1.5-3 1.5 -1.656 0-3-.672-3-1.5"></path><path d="M7.5 16v5c0 .828-1.344 1.5-3 1.5 -1.656 0-3-.672-3-1.5v-5"></path><ellipse cx="19.5" rx="3" ry="1.5" cy="16.001"></ellipse><path d="M22.5 18.5c0 .828-1.344 1.5-3 1.5 -1.656 0-3-.672-3-1.5"></path><path d="M22.5 16v5c0 .828-1.344 1.5-3 1.5 -1.656 0-3-.672-3-1.5v-5"></path><line x1="7.39" x2="16.62" y1="8.41" y2="15.58"></line><line x1="7.39" x2="16.62" y1="15.58" y2="8.41"></line></g></svg>