<?xml version="1.0" encoding="UTF-8"?><svg version="1.1" viewBox="0 0 24 24" xmlns="http://www.w3.org/2000/svg" xmlns:xlink="http://www.w3.org/1999/xlink"><g stroke-linecap="round" stroke-width="1" stroke="#000" fill="none" stroke-linejoin="round"><ellipse cx="10" rx="9.5" ry="4" cy="4.501"></ellipse><path d="M12.388 12.378c-6.279.644-11.888-1.34-11.888-3.878"></path><path d="M10 17c-5.246 0-9.5-1.789-9.5-4"></path><path d="M8.737 21.465c-4.649-.259-8.237-1.935-8.237-3.965v-13"></path><line x1="19.5" x2="19.5" y1="4.5" y2="10"></line><line x1="17.5" x2="17.5" y1="20.5" y2="20.5"></line><path d="M17.5 20.5h-1.09278e-08c-.138071 6.03528e-09-.25.111929-.25.25 6.03528e-09.138071.111929.25.25.25 .138071-6.03528e-09.25-.111929.25-.25v0c0-.138071-.111929-.25-.25-.25"></path><line x1="17.5" x2="17.5" y1="18.5" y2="15.5"></line><path d="M18.338 12.5l1.74645e-08 3.27045e-08c-.247147-.462815-.822685-.637648-1.2855-.3905 -.165964.0886261-.301874.224537-.3905.3905l-5.056 9.634 -1.88159e-09 3.57567e-09c-.151936.288732-.14015.636226.031.914l1.97256e-08 3.1905e-08c.17285.279575.478307.449526.807.449h10.112l3.46157e-09 5.7625e-12c.328444.00054656.63377-.168953.807-.448l3.50015e-09-5.68068e-09c.17115-.277774.182936-.625268.031-.914Z"></path></g></svg>