<?xml version="1.0" encoding="UTF-8"?><svg version="1.1" viewBox="0 0 24 24" xmlns="http://www.w3.org/2000/svg" xmlns:xlink="http://www.w3.org/1999/xlink"><g stroke-linecap="round" stroke-width="1" stroke="#000" fill="none" stroke-linejoin="round"><path d="M19.5 4.525c0 2.206-4.254 4-9.5 4 -5.246 0-9.5-1.794-9.5-4 0-2.206 4.254-4.025 9.5-4.025 5.246 0 9.5 1.815 9.5 4.025Z"></path><path d="M10 12.525c-5.246 0-9.5-1.794-9.5-4"></path><path d="M8.5 16.975c-4.533-.3-8-1.958-8-3.949"></path><path d="M9 21.492c-4.776-.211-8.5-1.9-8.5-3.967v-13.025"></path><line x1="19.5" x2="19.5" y1="4.5" y2="9"></line><circle cx="17.5" cy="17.501" r="6"></circle><line x1="17.5" x2="17.5" y1="14.5" y2="20.5"></line><line x1="17.5" x2="15.25" y1="20.5" y2="18.25"></line><line x1="17.5" x2="19.75" y1="20.5" y2="18.25"></line></g></svg>