<?xml version="1.0" encoding="utf-8"?>
<!-- Generator: Adobe Illustrator 24.0.0, SVG Export Plug-In . SVG Version: 6.00 Build 0)  -->
<svg version="1.1" id="Laag_1" xmlns="http://www.w3.org/2000/svg" xmlns:xlink="http://www.w3.org/1999/xlink" x="0px" y="0px"
	 viewBox="0 0 15 15" style="enable-background:new 0 0 15 15;" xml:space="preserve">
<style type="text/css">
	.st0{fill:none;stroke:#000000;stroke-width:1;stroke-linecap:round;stroke-linejoin:round;}
</style>
<g>
	<ellipse class="st0" cx="6.3" cy="2.9" rx="5.8" ry="2.4"/>
	<path class="st0" d="M7.7,7.7C3.9,8.1,0.5,6.9,0.5,5.4"/>
	<path class="st0" d="M6.3,10.5c-3.2,0-5.8-1.1-5.8-2.4"/>
	<path class="st0" d="M5.5,13.3c-2.8-0.2-5-1.2-5-2.4V2.9"/>
	<line class="st0" x1="12.1" y1="2.9" x2="12.1" y2="6.3"/>
	<line class="st0" x1="10.8" y1="12.7" x2="10.8" y2="12.7"/>
	<path class="st0" d="M10.8,12.7c-0.1,0-0.2,0.1-0.2,0.2s0.1,0.2,0.2,0.2s0.2-0.1,0.2-0.2S10.9,12.7,10.8,12.7"/>
	<line class="st0" x1="10.8" y1="11.5" x2="10.8" y2="9.6"/>
	<path class="st0" d="M11.4,7.8c-0.2-0.3-0.5-0.4-0.8-0.2c-0.1,0.1-0.2,0.1-0.2,0.2l-3.1,5.9c-0.1,0.2-0.1,0.4,0,0.6
		c0.1,0.2,0.3,0.3,0.5,0.3h6.2c0.2,0,0.4-0.1,0.5-0.3c0.1-0.2,0.1-0.4,0-0.6L11.4,7.8z"/>
</g>
</svg>
