<?xml version="1.0" encoding="UTF-8"?><svg version="1.1" viewBox="0 0 24 24" xmlns="http://www.w3.org/2000/svg" xmlns:xlink="http://www.w3.org/1999/xlink"><g stroke-linecap="round" stroke-width="1" stroke="#000" fill="none" stroke-linejoin="round"><ellipse cx="10" rx="9.5" ry="4" cy="4.501"></ellipse><path d="M10 12.5c-5.246 0-9.5-1.79-9.5-4"></path><path d="M9 16.979c-4.776-.21-8.5-1.911-8.5-3.979"></path><path d="M9 21.479c-4.776-.21-8.5-1.911-8.5-3.979v-13"></path><line x1="19.5" x2="19.5" y1="4.5" y2="9.5"></line><polyline points="15,18.501 11.5,18.501 11.5,22.001"></polyline><path d="M22.917 19.734l6.34322e-08-1.85978e-07c-.993402 2.91258-4.15983 4.46838-7.0724 3.47498 -2.06118-.703012-3.52388-2.54242-3.7446-4.70898"></path><polyline points="20,16.501 23.5,16.501 23.5,13.001"></polyline><path d="M12.083 15.268l-2.71408e-07 7.95975e-07c.993148-2.91267 4.15944-4.46874 7.0721-3.47559 2.06088.702708 3.52362 2.54148 3.7449 4.70759"></path></g></svg>