<?xml version="1.0" encoding="utf-8"?>
<!-- Generator: Adobe Illustrator 24.0.0, SVG Export Plug-In . SVG Version: 6.00 Build 0)  -->
<svg version="1.1" id="Laag_1" xmlns="http://www.w3.org/2000/svg" xmlns:xlink="http://www.w3.org/1999/xlink" x="0px" y="0px"
	 viewBox="0 0 15 15" style="enable-background:new 0 0 15 15;" xml:space="preserve">
<style type="text/css">
	.st0{fill:none;stroke:#000000;stroke-width:1;stroke-linecap:round;stroke-linejoin:round;}
</style>
<g>
	<ellipse class="st0" cx="2.5" cy="1.5" rx="2" ry="1"/>
	<path class="st0" d="M4.5,3.2c0,0.6-0.9,1-2,1s-2-0.4-2-1"/>
	<path class="st0" d="M4.5,1.5v3.3c0,0.6-0.9,1-2,1s-2-0.4-2-1V1.5"/>
	<ellipse class="st0" cx="12.5" cy="1.5" rx="2" ry="1"/>
	<path class="st0" d="M14.5,3.2c0,0.6-0.9,1-2,1s-2-0.4-2-1"/>
	<path class="st0" d="M14.5,1.5v3.3c0,0.6-0.9,1-2,1s-2-0.4-2-1V1.5"/>
	<ellipse class="st0" cx="2.5" cy="10.2" rx="2" ry="1"/>
	<path class="st0" d="M4.5,11.8c0,0.6-0.9,1-2,1s-2-0.4-2-1"/>
	<path class="st0" d="M4.5,10.2v3.3c0,0.6-0.9,1-2,1s-2-0.4-2-1v-3.3"/>
	<ellipse class="st0" cx="12.5" cy="10.2" rx="2" ry="1"/>
	<path class="st0" d="M14.5,11.8c0,0.6-0.9,1-2,1s-2-0.4-2-1"/>
	<path class="st0" d="M14.5,10.2v3.3c0,0.6-0.9,1-2,1s-2-0.4-2-1v-3.3"/>
	<line class="st0" x1="4.4" y1="5.1" x2="10.6" y2="9.9"/>
	<line class="st0" x1="4.4" y1="9.9" x2="10.6" y2="5.1"/>
</g>
</svg>
