<?xml version="1.0" encoding="UTF-8"?><svg version="1.1" viewBox="0 0 24 24" xmlns="http://www.w3.org/2000/svg" xmlns:xlink="http://www.w3.org/1999/xlink"><g stroke-linecap="round" stroke-width="1" stroke="#000" fill="none" stroke-linejoin="round"><path d="M19.522 4.526c0 2.205-4.254 4-9.5 4 -5.246 0-9.5-1.795-9.5-4 0-2.205 4.254-4.026 9.5-4.026 5.246 0 9.5 1.815 9.5 4.026Z"></path><path d="M10.022 12.526c-5.246 0-9.5-1.795-9.5-4"></path><path d="M8.522 16.975c-4.533-.3-8-1.958-8-3.949"></path><path d="M9.022 21.493c-4.776-.212-8.5-1.9-8.5-3.967v-13.026"></path><line x1="19.52" x2="19.52" y1="4.5" y2="9"></line><circle cx="17.519" cy="17.501" r="6"></circle><line x1="20.52" x2="14.52" y1="17.5" y2="17.5"></line></g></svg>