<?xml version="1.0" encoding="UTF-8"?><svg version="1.1" viewBox="0 0 24 24" xmlns="http://www.w3.org/2000/svg" xmlns:xlink="http://www.w3.org/1999/xlink"><g stroke-linecap="round" stroke-width="1" stroke="#000" fill="none" stroke-linejoin="round"><path d="M19.523 4.526c0 2.205-4.255 4-9.5 4 -5.245 0-9.5-1.795-9.5-4 0-2.205 4.254-4.026 9.5-4.026 5.246 0 9.5 1.815 9.5 4.026Z"></path><path d="M10.023 12.526c-5.246 0-9.5-1.795-9.5-4"></path><path d="M8.523 16.975c-4.533-.3-8-1.958-8-3.949"></path><path d="M9.023 21.5c-4.776-.208-8.5-1.909-8.5-3.975v-13.025"></path><line x1="19.52" x2="19.52" y1="4.5" y2="9"></line><circle cx="17.518" cy="17.501" r="6"></circle><line x1="19.64" x2="15.4" y1="15.38" y2="19.62"></line><line x1="19.64" x2="15.4" y1="19.62" y2="15.38"></line></g></svg>