<?xml version="1.0" encoding="UTF-8"?><svg version="1.1" viewBox="0 0 24 24" xmlns="http://www.w3.org/2000/svg" xmlns:xlink="http://www.w3.org/1999/xlink"><g stroke-linecap="round" stroke-width="1" stroke="#000" fill="none" stroke-linejoin="round"><path d="M20.5 17.984v-12.505c0-6.611-17-6.611-17 0v12.505"></path><path d="M22.5 23.479l7.44584e-08 4.57195e-05c-.00223599-1.38071-1.12334-2.49818-2.50405-2.49595 -.181611.00029411-.36265.0203768-.53991.0598924l1.19243e-07 9.9071e-07c-.22934-1.90544-1.95992-3.26418-3.86536-3.03484 -.131453.0158219-.261895.0391436-.390687.0698512l6.49221e-08 1.48982e-07c-.771107-1.76952-2.83069-2.57889-4.60021-1.80779 -.80928.352661-1.45513.998508-1.80779 1.80779l2.32782e-07 5.51363e-08c-1.86806-.442465-3.7411.713205-4.18357 2.58126 -.0299703.126532-.0528168.254647-.0684318.383739l2.38612e-07 5.27869e-08c-1.34812-.298237-2.68275.552859-2.98099 1.90098 -.0388688.175698-.0586544.355079-.059013.535025"></path><line x1="12.5" x2="12.5" y1="5.48" y2="11.48"></line><line x1="11.5" x2="13.5" y1="11.48" y2="11.48"></line><line x1="11.5" x2="13.5" y1="5.48" y2="5.48"></line><path d="M18.5 6.984v0c0 .828427-.671573 1.5-1.5 1.5h-1.5v-3h1.5l-6.55671e-08 1.77636e-15c.828427-3.62117e-08 1.5.671573 1.5 1.5Z"></path><line x1="15.5" x2="15.5" y1="11.48" y2="8.48"></line><path d="M9.5 6.984v0c0 .828427-.671573 1.5-1.5 1.5h-1.5v-3h1.5l-6.55671e-08 1.77636e-15c.828427-3.62117e-08 1.5.671573 1.5 1.5Z"></path><line x1="6.5" x2="6.5" y1="11.48" y2="8.48"></line><line x1="9.5" x2="6.5" y1="11.48" y2="8.48"></line></g></svg>