<?xml version="1.0" encoding="utf-8"?>
<!-- Generator: Adobe Illustrator 24.0.0, SVG Export Plug-In . SVG Version: 6.00 Build 0)  -->
<svg version="1.1" id="Laag_1" xmlns="http://www.w3.org/2000/svg" xmlns:xlink="http://www.w3.org/1999/xlink" x="0px" y="0px"
	 viewBox="0 0 15 15" style="enable-background:new 0 0 15 15;" xml:space="preserve">
<style type="text/css">
	.st0{fill:none;stroke:#000000;stroke-width:1;stroke-linecap:round;stroke-linejoin:round;}
</style>
<g>
	<path class="st0" d="M12.7,11.1V3.5c0-4-10.4-4-10.4,0v7.6"/>
	<path class="st0" d="M13.9,14.5c0-0.8-0.7-1.5-1.5-1.5c-0.1,0-0.2,0-0.3,0c-0.1-1.2-1.2-2-2.4-1.9c-0.1,0-0.2,0-0.2,0
		C9,10.1,7.7,9.6,6.6,10.1c-0.5,0.2-0.9,0.6-1.1,1.1c-1.1-0.3-2.3,0.4-2.6,1.6c0,0.1,0,0.2,0,0.2c-0.8-0.2-1.6,0.3-1.8,1.2
		c0,0.1,0,0.2,0,0.3"/>
	<line class="st0" x1="7.8" y1="3.5" x2="7.8" y2="7.2"/>
	<line class="st0" x1="7.2" y1="7.2" x2="8.4" y2="7.2"/>
	<line class="st0" x1="7.2" y1="3.5" x2="8.4" y2="3.5"/>
	<path class="st0" d="M11.5,4.4c0,0.5-0.4,0.9-0.9,0.9l0,0H9.6V3.5h0.9C11.1,3.5,11.5,3.9,11.5,4.4z"/>
	<line class="st0" x1="9.6" y1="7.2" x2="9.6" y2="5.4"/>
	<path class="st0" d="M6,4.4c0,0.5-0.4,0.9-0.9,0.9l0,0H4.1V3.5h0.9C5.6,3.5,6,3.9,6,4.4z"/>
	<line class="st0" x1="4.1" y1="7.2" x2="4.1" y2="5.4"/>
	<line class="st0" x1="6" y1="7.2" x2="4.1" y2="5.4"/>
</g>
</svg>
