<?xml version="1.0" encoding="UTF-8"?><svg version="1.1" viewBox="0 0 24 24" xmlns="http://www.w3.org/2000/svg" xmlns:xlink="http://www.w3.org/1999/xlink"><g stroke-linecap="round" stroke-width="1" stroke="#000" fill="none" stroke-linejoin="round"><circle cx="5" cy="18" r="2"></circle><circle cx="19" cy="18" r="2"></circle><path d="M3 18h-1.5 -4.37114e-08c-.552285-2.41411e-08-1-.447715-1-1 0 0 0-3.55271e-15 0-3.55271e-15v-3.985l-4.53423e-09-4.14486e-06c-.000353156-.323441.155752-.62708.419003-.814998l3.081-1.2 .811-4.243 -8.45622e-09 3.37562e-08c.111459-.444931.511321-.756988.97-.757h3.719v-1l1.06581e-14 1.50996e-07c-8.33927e-08-.552285.447715-1 1-1h12l-4.37114e-08 1.77636e-15c.552285-2.41411e-08 1 .447715 1 1v12 0c0 .552285-.447715 1-1 1h-1.5"></path><line x1="7" x2="17" y1="18" y2="18"></line><line x1="9.5" x2="9.5" y1="6" y2="16"></line><line x1=".5" x2="2" y1="15" y2="15"></line><line x1="4" x2="9.5" y1="11" y2="11"></line></g></svg>