<?xml version="1.0" encoding="utf-8"?>
<!-- Generator: Adobe Illustrator 24.0.0, SVG Export Plug-In . SVG Version: 6.00 Build 0)  -->
<svg version="1.1" id="Laag_1" xmlns="http://www.w3.org/2000/svg" xmlns:xlink="http://www.w3.org/1999/xlink" x="0px" y="0px"
	 viewBox="0 0 15 15" style="enable-background:new 0 0 15 15;" xml:space="preserve">
<style type="text/css">
	.st0{fill:none;stroke:#000000;stroke-width:1;stroke-linecap:round;stroke-linejoin:round;}
</style>
<g>
	<circle class="st0" cx="3.2" cy="11.2" r="1.2"/>
	<circle class="st0" cx="11.8" cy="11.2" r="1.2"/>
	<path class="st0" d="M2,11.2H1.1c-0.3,0-0.6-0.3-0.6-0.6V8.1c0-0.2,0.1-0.4,0.3-0.5l1.9-0.7l0.5-2.6C3.2,4,3.4,3.8,3.7,3.8H6V3.2
		c0-0.3,0.3-0.6,0.6-0.6h7.3c0.3,0,0.6,0.3,0.6,0.6v7.3c0,0.3-0.3,0.6-0.6,0.6H13"/>
	<line class="st0" x1="4.5" y1="11.2" x2="10.5" y2="11.2"/>
	<line class="st0" x1="6" y1="3.8" x2="6" y2="9.9"/>
	<line class="st0" x1="0.5" y1="9.3" x2="1.4" y2="9.3"/>
	<line class="st0" x1="2.6" y1="6.9" x2="6" y2="6.9"/>
</g>
</svg>
