<?xml version="1.0" encoding="UTF-8"?><svg version="1.1" viewBox="0 0 24 24" xmlns="http://www.w3.org/2000/svg" xmlns:xlink="http://www.w3.org/1999/xlink"><g stroke-linecap="round" stroke-width="1" stroke="#000" fill="none" stroke-linejoin="round"><path d="M15.273 10.141l-12.957 12.959 7.94498e-08-7.94498e-08c-.391018.391018-1.02498.391018-1.416 1.37853e-07 -.391018-.391018-.391018-1.02498-1.37853e-07-1.416l12.959-12.957"></path><path d="M23.109 7.919c.275 0 .364-.189.2-.408l-1.865-2.473 .987-3.138c.082-.262-.065-.41-.327-.327l-3.142.987 -2.473-1.868c-.219-.165-.4-.076-.408.2l-.063 3.508 -3.009 1.741c-.238.138-.218.317.045.4l3.357 1.049 1.049 3.357c.082.263.261.283.4.045l1.74-3.01Z"></path></g></svg>