<?xml version="1.0" encoding="utf-8"?>
<!-- Generator: Adobe Illustrator 24.0.0, SVG Export Plug-In . SVG Version: 6.00 Build 0)  -->
<svg version="1.1" id="Laag_1" xmlns="http://www.w3.org/2000/svg" xmlns:xlink="http://www.w3.org/1999/xlink" x="0px" y="0px"
	 viewBox="0 0 15 15" style="enable-background:new 0 0 15 15;" xml:space="preserve">
<style type="text/css">
	.st0{fill:none;stroke:#000000;stroke-width:1;stroke-linecap:round;stroke-linejoin:round;}
</style>
<g>
	<path class="st0" d="M9.5,6.4l-8,8c-0.2,0.2-0.6,0.2-0.9,0c-0.2-0.2-0.2-0.6,0-0.9l8-8"/>
	<path class="st0" d="M14.3,5c0.2,0,0.2-0.1,0.1-0.3l-1.1-1.5l0.6-1.9c0.1-0.2,0-0.3-0.2-0.2l-1.9,0.6l-1.5-1.1
		c-0.1-0.1-0.2,0-0.3,0.1l0,2.2L8.1,3.9C8,4,8,4.1,8.1,4.1l2.1,0.6l0.6,2.1C10.9,7,11,7,11.1,6.9L12.2,5L14.3,5z"/>
</g>
</svg>
