<?xml version="1.0" encoding="UTF-8"?><svg version="1.1" viewBox="0 0 24 24" xmlns="http://www.w3.org/2000/svg" xmlns:xlink="http://www.w3.org/1999/xlink"><g stroke-linecap="round" stroke-width="1" stroke="#000" fill="none" stroke-linejoin="round"><path d="M21.207 4.5l-1.96434e-08-1.96375e-08c.187549.187493.292943.441805.293.707v17.293 0c0 .552285-.447715 1-1 1h-17 -4.37114e-08c-.552285-2.41411e-08-1-.447715-1-1 0 0 0-3.55271e-15 0-3.55271e-15v-21l1.24345e-14 1.50996e-07c-8.33927e-08-.552285.447715-1 1-1h13.293l1.02845e-08 2.1968e-12c.265195 5.66401e-05.519507.105451.707.293Z"></path><path d="M7.5 11.5v-1.5l5.32907e-15 7.54979e-08c-4.16963e-08-.276142.223858-.5.5-.5h7 -2.18557e-08c.276142-1.20706e-08.5.223858.5.5v1.5"></path><line x1="11.5" x2="11.5" y1="9.5" y2="19.5"></line><line x1="9.5" x2="13.5" y1="19.5" y2="19.5"></line></g></svg>