<?xml version="1.0" encoding="utf-8"?>
<!-- Generator: Adobe Illustrator 24.0.0, SVG Export Plug-In . SVG Version: 6.00 Build 0)  -->
<svg version="1.1" id="Laag_1" xmlns="http://www.w3.org/2000/svg" xmlns:xlink="http://www.w3.org/1999/xlink" x="0px" y="0px"
	 viewBox="0 0 15 15" style="enable-background:new 0 0 15 15;" xml:space="preserve">
<style type="text/css">
	.st0{fill:none;stroke:#000000;stroke-width:1;stroke-linecap:round;stroke-linejoin:round;}
</style>
<g>
	<path class="st0" d="M1.1,4.8h7.3C8.7,4.8,9,5,9,5.4v5.5c0,0.3-0.3,0.6-0.6,0.6H1.1c-0.3,0-0.6-0.3-0.6-0.6V5.4
		C0.5,5,0.8,4.8,1.1,4.8z"/>
	<line class="st0" x1="4.8" y1="11.5" x2="4.8" y2="13.3"/>
	<line class="st0" x1="2.9" y1="13.3" x2="6.6" y2="13.3"/>
	<path class="st0" d="M8.4,3.5V2.3C8.4,2,8.7,1.7,9,1.7h4.9c0.3,0,0.6,0.3,0.6,0.6v10.3c0,0.3-0.3,0.6-0.6,0.6H9
		c-0.3,0-0.6-0.3-0.6-0.6"/>
	<line class="st0" x1="14.5" y1="4.2" x2="10.2" y2="4.2"/>
	<line class="st0" x1="14.5" y1="6" x2="10.2" y2="6"/>
	<circle class="st0" cx="11.5" cy="9.9" r="0.9"/>
</g>
</svg>
