<?xml version="1.0" encoding="UTF-8"?><svg version="1.1" viewBox="0 0 24 24" xmlns="http://www.w3.org/2000/svg" xmlns:xlink="http://www.w3.org/1999/xlink"><g stroke-linecap="round" stroke-width="1" stroke="#000" fill="none" stroke-linejoin="round"><rect width="14" height="11" x=".5" y="7.5" rx=".55228" ry="0"></rect><line x1="7.5" x2="7.5" y1="18.5" y2="21.5"></line><line x1="4.5" x2="10.5" y1="21.5" y2="21.5"></line><path d="M13.5 5.5v-2l1.06581e-14 1.50996e-07c-8.33927e-08-.552285.447715-1 1-1h8 -4.37114e-08c.552285-2.41411e-08 1 .447715 1 1v17 0c0 .552285-.447715 1-1 1h-8 -4.37114e-08c-.552285-2.41411e-08-1-.447715-1-1 0 0 0-3.55271e-15 0-3.55271e-15"></path><line x1="23.5" x2="16.5" y1="6.5" y2="6.5"></line><line x1="23.5" x2="16.5" y1="9.5" y2="9.5"></line><circle cx="18.5" cy="16" r="1.5"></circle></g></svg>