<?xml version="1.0" encoding="UTF-8"?><svg version="1.1" viewBox="0 0 24 24" xmlns="http://www.w3.org/2000/svg" xmlns:xlink="http://www.w3.org/1999/xlink"><g stroke-linecap="round" stroke-width="1" stroke="#000" fill="none" stroke-linejoin="round"><circle cx="10.946" cy="3" r="2.5"></circle><path d="M12.446 9v0c0-.828427-.671573-1.5-1.5-1.5 -.828427 0-1.5.671573-1.5 1.5v8l1.77636e-14 2.26494e-07c1.25089e-07.828427.671573 1.5 1.5 1.5h4.5l2.49021e-08-5.68434e-14c.172395-3.98007e-07.332631.0888093.424.235l1.912 3.06 5.50773e-08 8.81236e-08c.439066.702506 1.36449.916066 2.067.477 .702506-.439066.916066-1.36449.477-2.067l-1.912-3.06 3.38462e-08 5.454e-08c-.636847-1.02622-1.76024-1.64885-2.968-1.645h-2.5 -2.18557e-08c-.276142-1.20706e-08-.5-.223858-.5-.5 0 0 0-1.77636e-15 0-1.77636e-15Z"></path><path d="M14.578 20.609l-9.10542e-09 1.50109e-08c-1.71859 2.83321-5.40856 3.73679-8.24178 2.0182 -2.83321-1.71859-3.73679-5.40856-2.0182-8.24178 .753292-1.24185 1.93149-2.16829 3.31597-2.60742"></path></g></svg>