<?xml version="1.0" encoding="UTF-8"?><svg version="1.1" viewBox="0 0 24 24" xmlns="http://www.w3.org/2000/svg" xmlns:xlink="http://www.w3.org/1999/xlink"><g stroke-linecap="round" stroke-width="1" stroke="#000" fill="none" stroke-linejoin="round"><circle cx="13" cy="3" r="2.5"></circle><line x1="13.5" x2="13.5" y1="22" y2="17"></line><path d="M8.76 13.661l1.006-2.495 8.78028e-09-2.47592e-08c.0821432-.231633.336509-.352818.568142-.270675 .0623827.0221226.119045.0578827.165858.104675v11l1.77636e-14 2.26494e-07c1.25089e-07.828427.671573 1.5 1.5 1.5 .828427-1.25089e-07 1.5-.671573 1.5-1.5l1.59872e-14 1.73927e-07c1.25089e-07.828427.671573 1.5 1.5 1.5 .828427-1.25089e-07 1.5-.671573 1.5-1.5v-6l1.77636e-14 2.26494e-07c1.25089e-07.828427.671573 1.5 1.5 1.5 .828427-1.25089e-07 1.5-.671573 1.5-1.5v-5.5 0c0-1.65685-1.34315-3-3-3h-6.414l-1.02814e-07-8.89511e-12c-1.25351-.000108431-2.37494.779154-2.812 1.954l-1.363 3.275"></path><path d="M4.5 23.5v-7.5l1.68754e-14 2.26494e-07c-1.25089e-07-.828427.671573-1.5 1.5-1.5h2.26494e-07l-6.55671e-08 1.77636e-15c.828427-3.62117e-08 1.5.671573 1.5 1.5v.5"></path></g></svg>