<?xml version="1.0" encoding="utf-8"?>
<!-- Generator: Adobe Illustrator 24.0.0, SVG Export Plug-In . SVG Version: 6.00 Build 0)  -->
<svg version="1.1" id="Light" xmlns="http://www.w3.org/2000/svg" xmlns:xlink="http://www.w3.org/1999/xlink" x="0px" y="0px"
	 viewBox="0 0 15 15" style="enable-background:new 0 0 15 15;" xml:space="preserve">
<style type="text/css">
	.st0{fill:none;stroke:#000000;stroke-width:1;stroke-linecap:round;stroke-linejoin:round;}
</style>
<g>
	<circle class="st0" cx="8.1" cy="2" r="1.5"/>
	<line class="st0" x1="8.4" y1="13.6" x2="8.4" y2="10.5"/>
	<path class="st0" d="M5.5,8.5L6.1,7c0.1-0.1,0.2-0.2,0.3-0.2c0,0,0.1,0,0.1,0.1v6.7c0,0.5,0.4,0.9,0.9,0.9s0.9-0.4,0.9-0.9
		c0,0.5,0.4,0.9,0.9,0.9s0.9-0.4,0.9-0.9V9.9c0,0.5,0.4,0.9,0.9,0.9c0.5,0,0.9-0.4,0.9-0.9V6.6c0-1-0.8-1.8-1.8-1.8H6.3
		C5.6,4.8,4.9,5.2,4.6,6l-0.8,2"/>
	<path class="st0" d="M2.9,14.5V9.9C2.9,9.4,3.3,9,3.8,9l0,0c0.5,0,0.9,0.4,0.9,0.9v0.3"/>
</g>
</svg>
