<?xml version="1.0" encoding="utf-8"?>
<!-- Generator: Adobe Illustrator 24.0.0, SVG Export Plug-In . SVG Version: 6.00 Build 0)  -->
<svg version="1.1" id="Light" xmlns="http://www.w3.org/2000/svg" xmlns:xlink="http://www.w3.org/1999/xlink" x="0px" y="0px"
	 viewBox="0 0 15 15" style="enable-background:new 0 0 15 15;" xml:space="preserve">
<style type="text/css">
	.st0{fill:none;stroke:#000000;stroke-width:1;stroke-linecap:round;stroke-linejoin:round;}
</style>
<g>
	<circle class="st0" cx="6.9" cy="2" r="1.5"/>
	<path class="st0" d="M7.8,5.7c0-0.5-0.4-0.9-0.9-0.9S5.9,5.2,5.9,5.7v4.9c0,0.5,0.4,0.9,0.9,0.9h2.7c0.1,0,0.2,0.1,0.3,0.1l1.2,1.9
		c0.3,0.4,0.8,0.6,1.3,0.3c0.4-0.3,0.6-0.8,0.3-1.3l-1.2-1.9c-0.4-0.6-1.1-1-1.8-1H8.1c-0.2,0-0.3-0.1-0.3-0.3V5.7z"/>
	<path class="st0" d="M9.1,12.7c-1,1.7-3.3,2.3-5,1.2s-2.3-3.3-1.2-5c0.5-0.8,1.2-1.3,2-1.6"/>
</g>
</svg>
