<?xml version="1.0" encoding="UTF-8"?><svg version="1.1" viewBox="0 0 24 24" xmlns="http://www.w3.org/2000/svg" xmlns:xlink="http://www.w3.org/1999/xlink"><g stroke-linecap="round" stroke-width="1" stroke="#000" fill="none" stroke-linejoin="round"><circle cx="12" cy="12" r="11.5"></circle><path d="M8.5 17.5l1.77636e-14 2.26494e-07c1.25089e-07.828427.671573 1.5 1.5 1.5 .828427-1.25089e-07 1.5-.671573 1.5-1.5v-3.5h1.5l-1.96701e-07-3.55271e-15c2.48528 1.08635e-07 4.5-2.01472 4.5-4.5 1.08635e-07-2.48528-2.01472-4.5-4.5-4.5h-2l-1.09278e-07 1.77636e-15c-1.38071 6.03528e-08-2.5 1.11929-2.5 2.5Zm4.5-6.5h-1.5v-3h1.5l-6.55671e-08 1.77636e-15c.828427-3.62117e-08 1.5.671573 1.5 1.5 3.62117e-08.828427-.671573 1.5-1.5 1.5Z"></path></g></svg>