<?xml version="1.0" encoding="utf-8"?>
<!-- Generator: Adobe Illustrator 24.0.0, SVG Export Plug-In . SVG Version: 6.00 Build 0)  -->
<svg version="1.1" id="Laag_1" xmlns="http://www.w3.org/2000/svg" xmlns:xlink="http://www.w3.org/1999/xlink" x="0px" y="0px"
	 viewBox="0 0 15 15" style="enable-background:new 0 0 15 15;" xml:space="preserve">
<style type="text/css">
	.st0{fill:none;stroke:#000000;stroke-width:1;stroke-linecap:round;stroke-linejoin:round;}
</style>
<g>
	<path class="st0" d="M14.5,9.7h-1.2c-0.3,0-0.6-0.3-0.6-0.6V1.8c0-0.3,0.3-0.6,0.6-0.6h1.2"/>
	<path class="st0" d="M12.7,3C8.2,0.7,8.4,1,4.6,1C3,1,2.2,2.1,1.7,3.6v0L0.6,7.5v0C0.4,8.2,0.7,8.9,1.4,9c0.1,0,0.2,0.1,0.3,0.1h3
		c0.7,0,1.2,0.5,1.2,1.2c0,0.1,0,0.2,0,0.3l-0.5,2c-0.1,0.6,0.2,1.1,0.7,1.3C6.5,14,7,13.9,7.2,13.5l3-4.2c0.2-0.3,0.6-0.5,1-0.5
		h1.5"/>
</g>
</svg>
