<?xml version="1.0" encoding="UTF-8"?><svg version="1.1" viewBox="0 0 24 24" xmlns="http://www.w3.org/2000/svg" xmlns:xlink="http://www.w3.org/1999/xlink"><g stroke-linecap="round" stroke-width="1" stroke="#000" fill="none" stroke-linejoin="round"><path d="M23.5 15.628h-2l-4.37114e-08-1.77636e-15c-.552285-2.41411e-08-1-.447715-1-1 0 0 0 0 0 0v-12l1.06581e-14 1.50996e-07c-8.33927e-08-.552285.447715-1 1-1h2"></path><path d="M20.5 4.628c-7.339-3.728-6.981-3.235-13.265-3.235 -2.635 0-3.958 1.715-4.735 4.228v.016l-1.907 6.4v.012l5.13084e-08-1.69637e-07c-.31978 1.05727.278071 2.17359 1.33534 2.49337 .185402.0560765.377966.0849226.571662.0856346h4.9l2.86915e-08-1.69287e-12c1.10457-6.50957e-05 2.00005.895313 2.00012 1.99988 1.01469e-05.172176-.0222129.343633-.0661179.510118l-.882 3.344 -5.03515e-08 1.91491e-07c-.240584.914962.306108 1.85172 1.22107 2.0923 .693696.182403 1.42758-.0866987 1.83893-.674302l4.89-6.928 -4.40711e-08 6.24638e-08c.374688-.531061.984064-.846937 1.634-.847h2.464"></path></g></svg>