<svg viewBox="0 0 24 24" xmlns="http://www.w3.org/2000/svg"><g stroke-linecap="round" stroke="#000" fill="none" stroke-linejoin="round"><path d="M23.5 15.62h-2l-.01-.001c-.56-.01-1-.45-1-1.01 0 0 0 0 0 0v-12l0 0c-.01-.56.44-1.01.99-1.01h2"/><path d="M20.5 4.628C13.161.89 13.519 1.388 7.23 1.388c-2.635 0-3.96 1.71-4.74 4.22v.01l-1.907 6.4v.01l0-.01c-.32 1.05.27 2.17 1.33 2.49 .18.05.37.08.57.08h4.9l0-.001c1.1-.01 2 .89 2 1.99 0 .17-.03.34-.07.51l-.89 3.34 -.01 0c-.25.91.3 1.85 1.22 2.09 .69.18 1.42-.09 1.83-.68l4.89-6.93 -.01 0c.37-.54.98-.85 1.63-.85h2.46"/></g></svg>