<?xml version="1.0" encoding="utf-8"?>
<!-- Generator: Adobe Illustrator 24.0.0, SVG Export Plug-In . SVG Version: 6.00 Build 0)  -->
<svg version="1.1" id="Laag_1" xmlns="http://www.w3.org/2000/svg" xmlns:xlink="http://www.w3.org/1999/xlink" x="0px" y="0px"
	 viewBox="0 0 15 15" style="enable-background:new 0 0 15 15;" xml:space="preserve">
<style type="text/css">
	.st0{fill:none;stroke:#000000;stroke-width:1;stroke-linecap:round;stroke-linejoin:round;}
</style>
<g>
	<path class="st0" d="M14.5,13.9c0,0.3-0.3,0.6-0.6,0.6H1.1c-0.3,0-0.6-0.3-0.6-0.6v-3.7h4.3v0.6c0,0.7,0.5,1.2,1.2,1.2h3
		c0.7,0,1.2-0.5,1.2-1.2v-0.6h4.3V13.9z"/>
	<path class="st0" d="M0.5,10.2l2-3.3C2.6,6.7,2.8,6.6,3,6.6h1.2"/>
	<path class="st0" d="M10.8,6.6H12c0.2,0,0.4,0.1,0.5,0.3l2,3.3"/>
	<line class="st0" x1="7.5" y1="7.2" x2="7.5" y2="0.5"/>
	<polyline class="st0" points="9.9,4.8 7.5,7.2 5.1,4.8 	"/>
</g>
</svg>
