<?xml version="1.0" encoding="utf-8"?>
<!-- Generator: Adobe Illustrator 24.0.0, SVG Export Plug-In . SVG Version: 6.00 Build 0)  -->
<svg version="1.1" id="Laag_1" xmlns="http://www.w3.org/2000/svg" xmlns:xlink="http://www.w3.org/1999/xlink" x="0px" y="0px"
	 viewBox="0 0 15 15" style="enable-background:new 0 0 15 15;" xml:space="preserve">
<style type="text/css">
	.st0{fill:none;stroke:#000000;stroke-width:1;stroke-linecap:round;stroke-linejoin:round;}
</style>
<g>
	<path class="st0" d="M12.1,9V1.1c0-0.3-0.3-0.6-0.6-0.6H3.5c-0.3,0-0.6,0.3-0.6,0.6V9"/>
	<path class="st0" d="M14.5,13.9c0,0.3-0.3,0.6-0.6,0.6H1.1c-0.3,0-0.6-0.3-0.6-0.6v-3.7h4.3v0.6c0,0.7,0.5,1.2,1.2,1.2h3
		c0.7,0,1.2-0.5,1.2-1.2v-0.6h4.3V13.9z"/>
	<line class="st0" x1="0.5" y1="10.2" x2="2.9" y2="6.6"/>
	<line class="st0" x1="12.1" y1="6.6" x2="14.5" y2="10.2"/>
	<line class="st0" x1="5.4" y1="2.3" x2="6.6" y2="2.3"/>
	<line class="st0" x1="6.6" y1="4.2" x2="9.6" y2="4.2"/>
	<line class="st0" x1="5.4" y1="6" x2="9.6" y2="6"/>
	<line class="st0" x1="5.4" y1="7.8" x2="9.6" y2="7.8"/>
</g>
</svg>
