<?xml version="1.0" encoding="UTF-8"?><svg version="1.1" viewBox="0 0 24 24" xmlns="http://www.w3.org/2000/svg" xmlns:xlink="http://www.w3.org/1999/xlink"><g stroke-linecap="round" stroke-width="1" stroke="#000" fill="none" stroke-linejoin="round"><path d="M23.5 17.5v0c0 .552285-.447715 1-1 1h-21 -4.37114e-08c-.552285-2.41411e-08-1-.447715-1-1 0 0 0-3.55271e-15 0-3.55271e-15v-6h7v1l2.15018e-08 7.19517e-06c.00329876 1.1032.896805 1.9967 2.00001 1.99999h5l1.08868e-07-3.25146e-10c1.1032-.00329486 1.99671-.896798 2-2v-1h7Z"></path><path d="M.5 11.5l3.211-5.5 -7.1744e-08 1.24266e-07c.178091-.308467.506816-.498922.863-.5h14.852l5.53712e-08 1.67669e-10c.356184.00107857.684909.191533.863.5l3.211 5.5"></path></g></svg>