<?xml version="1.0" encoding="UTF-8"?><svg version="1.1" viewBox="0 0 24 24" xmlns="http://www.w3.org/2000/svg" xmlns:xlink="http://www.w3.org/1999/xlink"><g stroke-linecap="round" stroke-width="1" stroke="#000" fill="none" stroke-linejoin="round"><path d="M19.5 14.5v-13 0c0-.552285-.447715-1-1-1h-13l-4.37114e-08 9.99201e-16c-.552285 2.41411e-08-1 .447715-1 1 0 2.22045e-16 0 6.66134e-16 0 6.66134e-16v13"></path><path d="M23.5 22.5v0c0 .552285-.447715 1-1 1h-21 -4.37114e-08c-.552285-2.41411e-08-1-.447715-1-1 0 0 0-3.55271e-15 0-3.55271e-15v-6h7v1l2.15018e-08 7.19517e-06c.00329876 1.1032.896805 1.9967 2.00001 1.99999h5l1.08868e-07-3.25144e-10c1.1032-.00329486 1.99671-.896798 2-2v-1h7Z"></path><line x1=".5" x2="4.5" y1="16.5" y2="10.5"></line><line x1="19.5" x2="23.5" y1="10.5" y2="16.5"></line><line x1="8.5" x2="10.5" y1="3.5" y2="3.5"></line><line x1="10.5" x2="15.5" y1="6.5" y2="6.5"></line><line x1="8.5" x2="15.5" y1="9.5" y2="9.5"></line><line x1="8.5" x2="15.5" y1="12.5" y2="12.5"></line></g></svg>