<svg viewBox="0 0 24 24" xmlns="http://www.w3.org/2000/svg"><g stroke-linecap="round" stroke="#000" fill="none" stroke-linejoin="round"><path d="M19.5 14.5v-13 0c0-.56-.45-1-1-1h-13l-.01 0c-.56 0-1 .44-1 1 0 0 0 0 0 0v13"/><path d="M23.5 22.5v0c0 .55-.45 1-1 1h-21 -.01c-.56-.01-1-.45-1-1.01 0 0 0-.001 0-.001v-6h7v1l0 0c0 1.1.89 1.99 2 1.99h5l0-.001c1.1-.01 1.99-.9 1.99-2.01v-1h7Z"/><path d="M.5 16.5l4-6"/><path d="M19.5 10.5l4 6"/><path d="M8.5 3.5l2 0"/><path d="M10.5 6.5l5 0"/><path d="M8.5 9.5l7 0"/><path d="M8.5 12.5l7 0"/></g></svg>