<?xml version="1.0" encoding="UTF-8"?><svg version="1.1" viewBox="0 0 24 24" xmlns="http://www.w3.org/2000/svg" xmlns:xlink="http://www.w3.org/1999/xlink"><g stroke-linecap="round" stroke-width="1" stroke="#000" fill="none" stroke-linejoin="round"><path d="M23.5 11.984v0c0 6.35127-5.14873 11.5-11.5 11.5 -6.35127 0-11.5-5.14873-11.5-11.5 0-6.35127 5.14873-11.5 11.5-11.5l-5.02681e-07 1.24345e-14c6.35127-2.77623e-07 11.5 5.14872 11.5 11.5Z"></path><path d="M20.147 3.869l-1.209 3.02 7.63137e-08-1.9085e-07c-.270303.675993-.886588 1.15171-1.609 1.242l-2.129.269 7.61122e-09-9.59739e-10c-.273973.0345466-.468066.284651-.43352.558624 .00703703.0558073.0234405.110027.0485195.160376l.546 1.091 1.0102e-08 2.02728e-08c.0844921.169559.257556.276804.447.277h.382l-1.41976e-08-1.4662e-11c.276142.000285163.499769.224374.499483.500516 -7.97416e-05.0772191-.0180436.15337-.0524834.222484l-1.585 3.171 2.96651e-09-5.98511e-09c-.0337531.0680989-.051537.142997-.052.219v2.446l2.1391e-08-5.94001e-05c-.000204904.593465-.263962 1.15619-.719954 1.53602l-1.9 1.58 -6.40113e-09 5.26502e-09c-.21149.173954-.523561.145422-.7-.064l-1.53-1.836 1.15011e-07 1.38682e-07c-.407117-.490907-.555703-1.14654-.4-1.765l.209-.836 4.10054e-11-1.64174e-10c.0289351-.115848.0154557-.238227-.038-.345l-.779-1.557 3.63226e-09 7.28924e-09c-.0844921-.169559-.257556-.276804-.447-.277h-1.7l4.98626e-09-2.59526e-12c-.882711.000459068-1.66134-.577822-1.916-1.423l-.667046-2.18896 -3.04343e-08-1.01965e-07c-.0487003-.163162-.0110178-.339893.1-.469l1.726-2.024 -7.10745e-08 8.32863e-08c.470446-.551276 1.20231-.804922 1.913-.663l1.3.26 -1.9922e-08-3.84165e-09c.0329614.0063561.0664323.0097032.0999996.01h3.449l-2.18557e-08-8.88178e-16c.276142 1.20706e-08.5-.223858.5-.5v-1.146l4.49505e-09-.00013409c0-.817772-.497857-1.55316-1.25712-1.85692l-.283-.113 5.5092e-08 2.17532e-08c-.256845-.101416-.382845-.391844-.281429-.648689 .0419592-.106265.119046-.194956.218429-.251311l2.77912-1.58995"></path></g></svg>