<?xml version="1.0" encoding="utf-8"?>
<!-- Generator: Adobe Illustrator 24.0.0, SVG Export Plug-In . SVG Version: 6.00 Build 0)  -->
<svg version="1.1" id="Laag_1" xmlns="http://www.w3.org/2000/svg" xmlns:xlink="http://www.w3.org/1999/xlink" x="0px" y="0px"
	 viewBox="0 0 15 15" style="enable-background:new 0 0 15 15;" xml:space="preserve">
<style type="text/css">
	.st0{fill:none;stroke:#000000;stroke-width:1;stroke-linecap:round;stroke-linejoin:round;}
</style>
<g>
	<path class="st0" d="M14.5,7.5c0,3.9-3.1,7-7,7c0,0,0,0,0,0c-3.9-0.1-7-3.3-7-7.2c0-3.7,3-6.8,6.7-6.8c0.1,0,0.2,0,0.3,0
		C11.3,0.5,14.5,3.6,14.5,7.5C14.5,7.4,14.5,7.5,14.5,7.5z"/>
	<path class="st0" d="M7.2,0.5c-3.7,4-3.7,9.1,0,14"/>
	<path class="st0" d="M7.8,0.5c3.7,4,3.7,9.1,0,14"/>
	<line class="st0" x1="1.6" y1="3.5" x2="13.3" y2="3.5"/>
	<line class="st0" x1="0.5" y1="7.2" x2="14.5" y2="7.2"/>
	<line class="st0" x1="1.4" y1="10.8" x2="13.6" y2="10.8"/>
</g>
</svg>
