<svg viewBox="0 0 24 24" xmlns="http://www.w3.org/2000/svg"><g stroke-linecap="round" stroke="#000" fill="none" stroke-linejoin="round"><path d="M23.5 11.94l0 0c0 6.37-5.17 11.54-11.54 11.54 -.01 0-.01 0-.01 0l-.01-.01C5.54 23.36.42 18.11.47 11.71l0-.01C.47 5.58 5.36.59 11.47.46c.16-.01.33-.01.5-.01l-.01 0C18.27.41 23.42 5.5 23.45 11.82c0 .02 0 .05 0 .08Z"/><path d="M11.505.5c-6 6.5-6 14.98 0 22.98"/><path d="M12.505.5c6 6.5 6 14.977 0 22.977"/><path d="M2.39 5.48l19.13 0"/><path d="M.5 11.48l23 0"/><path d="M1.99 17.48l20.09 0"/></g></svg>