<?xml version="1.0" encoding="UTF-8"?><svg version="1.1" viewBox="0 0 24 24" xmlns="http://www.w3.org/2000/svg" xmlns:xlink="http://www.w3.org/1999/xlink"><g stroke-linecap="round" stroke-width="1" stroke="#000" fill="none" stroke-linejoin="round"><path d="M23.5 11.941l1.85437e-07.00036777c.00311146 6.37226-5.1601 11.5405-11.5324 11.5436 -1.03581e-06 5.05771e-10-2.08431e-06 1.01759e-09-3.12012e-06 1.52308e-09l-3.18961e-07-5.30716e-09c-6.39951-.106481-11.5174-5.3508-11.4676-11.751l7.93645e-08-9.42987e-05c.00517086-6.11342 4.89308-11.103 11.0051-11.2339 .166-.007.332-.01.5-.01l-1.93898e-07 1.05015e-09c6.31418-.0341977 11.4606 5.05673 11.4948 11.3709 .000144588.0266964.000195669.0533932.000153242.0800899Z"></path><path d="M11.505.5c-6 6.5-6 14.98 0 22.98"></path><path d="M12.505.5c6 6.5 6 14.977 0 22.977"></path><line x1="2.39" x2="21.52" y1="5.48" y2="5.48"></line><line x1=".5" x2="23.5" y1="11.48" y2="11.48"></line><line x1="1.99" x2="22.08" y1="17.48" y2="17.48"></line></g></svg>