<?xml version="1.0" encoding="utf-8"?>
<!-- Generator: Adobe Illustrator 24.0.0, SVG Export Plug-In . SVG Version: 6.00 Build 0)  -->
<svg version="1.1" id="Laag_1" xmlns="http://www.w3.org/2000/svg" xmlns:xlink="http://www.w3.org/1999/xlink" x="0px" y="0px"
	 viewBox="0 0 15 15" style="enable-background:new 0 0 15 15;" xml:space="preserve">
<style type="text/css">
	.st0{fill:none;stroke:#000000;stroke-width:1;stroke-linecap:round;stroke-linejoin:round;}
</style>
<g>
	<path class="st0" d="M1.7,3.8h11.6c0.7,0,1.2,0.5,1.2,1.2v4.9c0,0.7-0.5,1.2-1.2,1.2H1.7c-0.7,0-1.2-0.5-1.2-1.2V5.1
		C0.5,4.4,1,3.8,1.7,3.8z"/>
	<line class="st0" x1="9" y1="5.7" x2="9" y2="9.3"/>
	<line class="st0" x1="8.4" y1="9.3" x2="9.6" y2="9.3"/>
	<line class="st0" x1="8.4" y1="5.7" x2="9.6" y2="5.7"/>
	<line class="st0" x1="5.4" y1="9.3" x2="7.2" y2="5.7"/>
	<line class="st0" x1="7.2" y1="9.3" x2="5.4" y2="5.7"/>
	<path class="st0" d="M4.2,9.3H2.9c-0.3,0-0.6-0.3-0.6-0.6V6.3c0-0.3,0.3-0.6,0.6-0.6h1.2"/>
	<line class="st0" x1="2.3" y1="7.5" x2="3.5" y2="7.5"/>
	<line class="st0" x1="10.8" y1="5.7" x2="12.7" y2="5.7"/>
	<line class="st0" x1="11.8" y1="5.7" x2="11.8" y2="9.3"/>
</g>
</svg>
