<?xml version="1.0" encoding="UTF-8"?><svg version="1.1" viewBox="0 0 24 24" xmlns="http://www.w3.org/2000/svg" xmlns:xlink="http://www.w3.org/1999/xlink"><g stroke-linecap="round" stroke-width="1" stroke="#000" fill="none" stroke-linejoin="round"><rect width="23" height="12" x=".5" y="6" rx="1.10456" ry="0"></rect><line x1="14.5" x2="14.5" y1="9" y2="15"></line><line x1="13.5" x2="15.5" y1="15" y2="15"></line><line x1="13.5" x2="15.5" y1="9" y2="9"></line><line x1="8.5" x2="11.5" y1="15" y2="9"></line><line x1="11.5" x2="8.5" y1="15" y2="9"></line><path d="M6.5 15h-2l-4.37114e-08-1.77636e-15c-.552285-2.41411e-08-1-.447715-1-1 0 0 0 0 0 0v-4l1.15463e-14 1.50996e-07c-8.33927e-08-.552285.447715-1 1-1h2"></path><line x1="3.5" x2="5.5" y1="12" y2="12"></line><line x1="17.5" x2="20.5" y1="9" y2="9"></line><line x1="19" x2="19" y1="9" y2="15"></line></g></svg>