<?xml version="1.0" encoding="utf-8"?>
<!-- Generator: Adobe Illustrator 24.0.0, SVG Export Plug-In . SVG Version: 6.00 Build 0)  -->
<svg version="1.1" id="Light" xmlns="http://www.w3.org/2000/svg" xmlns:xlink="http://www.w3.org/1999/xlink" x="0px" y="0px"
	 viewBox="0 0 15 15" style="enable-background:new 0 0 15 15;" xml:space="preserve">
<style type="text/css">
	.st0{fill:none;stroke:#000000;stroke-width:1;stroke-linecap:round;stroke-linejoin:round;}
</style>
<g>
	<circle class="st0" cx="11.5" cy="5.2" r="1.4"/>
	<path class="st0" d="M5.2,4.8C5.4,5.4,6,5.7,6.6,5.5c0.6-0.2,0.9-0.8,0.7-1.3l0,0l-1-3.7"/>
	<path class="st0" d="M2.3,13.6c0,0.5,0.4,0.9,0.9,0.9s0.9-0.4,0.9-0.9V9h1.7c0.2,0,0.3-0.1,0.3-0.3c0,0,0,0,0-0.1l-2-8.1"/>
	<path class="st0" d="M2.3,13.6c0,0.5-0.4,0.9-0.9,0.9s-0.9-0.4-0.9-0.9V9"/>
	<line class="st0" x1="2.3" y1="9" x2="2.3" y2="13.6"/>
	<path class="st0" d="M10.7,7.8c-0.2,0-0.3-0.1-0.4-0.2L8.8,6.2C8.5,5.9,8,5.9,7.7,6.2C7.4,6.4,7.4,6.9,7.7,7.2c0,0,0,0,0,0l2.1,2.4
		C9.9,9.7,9.9,9.9,9.9,10v3.7c0,0.4,0.3,0.8,0.8,0.8c0.4,0,0.8-0.3,0.8-0.8l0,0c0,0.4,0.3,0.8,0.8,0.8c0.4,0,0.8-0.3,0.8-0.8v-3
		c0,0.4,0.3,0.8,0.8,0.8c0.4,0,0.8-0.3,0.8-0.8V9c0-0.7-0.5-1.2-1.2-1.2H10.7z"/>
	<line class="st0" x1="11.5" y1="13.6" x2="11.5" y2="11.2"/>
</g>
</svg>
