<?xml version="1.0" encoding="utf-8"?>
<!-- Generator: Adobe Illustrator 24.0.0, SVG Export Plug-In . SVG Version: 6.00 Build 0)  -->
<svg version="1.1" id="Light" xmlns="http://www.w3.org/2000/svg" xmlns:xlink="http://www.w3.org/1999/xlink" x="0px" y="0px"
	 viewBox="0 0 15 15" style="enable-background:new 0 0 15 15;" xml:space="preserve">
<style type="text/css">
	.st0{fill:none;stroke:#000000;stroke-width:1;stroke-linecap:round;stroke-linejoin:round;}
</style>
<g>
	<circle class="st0" cx="10.2" cy="2.4" r="1.9"/>
	<circle class="st0" cx="1.8" cy="8.8" r="1.1"/>
	<path class="st0" d="M14.1,8.1l-1.3-1.6c-0.4-0.5-0.9-0.7-1.5-0.7H7.1L6.6,4.9c-0.3-0.6-1-0.8-1.5-0.5c-0.6,0.3-0.8,1-0.5,1.5
		L5.1,7c0.3,0.6,1,1.1,1.7,1.1h1.1L7.7,9.2H6.1c-0.8,0-1.5,0.5-1.8,1.2l-0.6,1.4c-0.2,0.6,0,1.2,0.6,1.5c0.6,0.2,1.2,0,1.5-0.6
		c0,0,0,0,0,0l0.5-1.2h0.8c0,0.4,0.2,0.7,0.4,1l1.3,1.6c0.4,0.5,1.1,0.5,1.6,0.1c0.5-0.4,0.5-1.1,0.2-1.5l-1.2-1.5l0.7-2.9
		c0-0.2,0.2-0.3,0.4-0.3h0.5l1.2,1.5c0.4,0.5,1.1,0.6,1.6,0.2C14.4,9.3,14.5,8.6,14.1,8.1L14.1,8.1z"/>
</g>
</svg>
