<?xml version="1.0" encoding="UTF-8"?><svg version="1.1" viewBox="0 0 24 24" xmlns="http://www.w3.org/2000/svg" xmlns:xlink="http://www.w3.org/1999/xlink"><g stroke-linecap="round" stroke-width="1" stroke="#000" fill="none" stroke-linejoin="round"><circle cx="11.978" cy="6.491" r="2.5"></circle><path d="M5 9.5v-2l7.99361e-14 1.05697e-06c-5.83749e-07-3.86599 3.13401-7 7-7 3.86599-5.83749e-07 7 3.13401 7 7 0 0 0 6.21725e-15 0 6.21725e-15v2"></path><path d="M10.285 11.492l-2.34256e-08-6.672e-11c-.796068-.00226729-1.5599.314287-2.121.879l-.334.334 2.28683e-08-2.42657e-08c-.196638.208654-.477143.317106-.763.295l-1.65839e-08-1.05994e-09c-.272053-.017388-.522306-.154789-.683-.375l-.6-.755 8.47743e-09 1.0289e-08c-.351194-.426241-.98143-.487078-1.40767-.135884 -.417852.344283-.485817.958586-.15333 1.38588l.6.755 1.99147e-07 2.5612e-07c.516733.664563 1.29554 1.07329 2.136 1.121 .055 0 .109 0 .164 0l-3.73374e-08-1.59659e-11c.808347.000345688 1.58486-.315067 2.164-.879l.213-.213v1.683l-2.40122e-08-9.38339e-06c.0015172.592525-.172462 1.17223-.499995 1.666l-1.269 1.9 -9.90648e-09 1.49446e-08c-.0668268.100813-.0392759.236711.0615366.303538 .0357217.0236793.0776062.036357.120463.0364621h1.08699v.882l1.71684e-08-2.19263e-05c-.000158299.205039-.0633408.405074-.180987.573004l-.693.99 -2.44248e-08 3.66152e-08c-.306518.459501-.182501 1.08048.277 1.387 .459501.306518 1.08048.182501 1.387-.277l1-1.5 -1.95012e-08 2.57121e-08c.120604-.159016.19344-.349083.209987-.547974v-1.51h2v1.51l4.41396e-10 2.78983e-07c.000312471.197479.0587402.390499.168.555l1 1.5 -2.44248e-08-3.66152e-08c.306518.459501.927499.583518 1.387.277 .459501-.306518.583518-.927499.277-1.387 0 0-1.77636e-15 0-1.77636e-15 0l-.664-1 5.42971e-08 8.14291e-08c-.109209-.16378-.16765-.356149-.168-.553v-.892h1.033l-1.31754e-09-1.07647e-12c.138071.000112934.250091-.111724.250204-.249795 4.05363e-05-.049559-.0146495-.098012-.0422044-.139205l-1.241-1.859 -7.19302e-08-1.08438e-07c-.327156-.493203-.50112-1.07216-.5-1.664v-1.683l.213.213 -1.73891e-07-1.74148e-07c.562605.563435 1.32577.880641 2.122.882 .055 0 .109 0 .164 0l-1.6533e-07 9.0668e-09c.852432-.0467479 1.64457-.454457 2.178-1.121l.6-.755 1.14855e-08-1.34507e-08c.358636-.419999.308891-1.05121-.111108-1.40984 -.419999-.358636-1.05121-.308891-1.40984.111108 -.013521.0158344-.0265441.0320872-.0390503.0487347l-.6.755 -2.56245e-08 3.19035e-08c-.178212.221881-.441914.358091-.726.375l6.4183e-08-5.14393e-09c-.285377.0228715-.565806-.0844484-.763-.292l-.334-.334 1.09193e-07 1.09774e-07c-.561349-.564335-1.32502-.880821-2.121-.879h-3.388Z"></path></g></svg>