<?xml version="1.0" encoding="utf-8"?>
<!-- Generator: Adobe Illustrator 24.0.0, SVG Export Plug-In . SVG Version: 6.00 Build 0)  -->
<svg version="1.1" id="Light" xmlns="http://www.w3.org/2000/svg" xmlns:xlink="http://www.w3.org/1999/xlink" x="0px" y="0px"
	 viewBox="0 0 15 15" style="enable-background:new 0 0 15 15;" xml:space="preserve">
<style type="text/css">
	.st0{fill:none;stroke:#000000;stroke-width:1;stroke-linecap:round;stroke-linejoin:round;}
</style>
<g>
	<circle class="st0" cx="7.5" cy="4.1" r="1.5"/>
	<path class="st0" d="M3.2,6V4.8c0-2.4,1.9-4.3,4.3-4.3s4.3,1.9,4.3,4.3V6"/>
	<path class="st0" d="M6.4,7.2C6,7.2,5.5,7.4,5.2,7.7L5,7.9C4.8,8.1,4.7,8.1,4.5,8.1C4.3,8.1,4.2,8,4.1,7.9L3.7,7.4
		C3.5,7.2,3.1,7.1,2.9,7.3C2.6,7.5,2.6,7.9,2.8,8.2l0.4,0.5C3.4,9,3.9,9.3,4.4,9.3c0,0,0.1,0,0.1,0c0.5,0,1-0.2,1.3-0.5L6,8.7v1
		c0,0.4-0.1,0.7-0.3,1l-0.8,1.2c0,0.1,0,0.1,0,0.2c0,0,0,0,0.1,0h0.7v0.5c0,0.1,0,0.2-0.1,0.3l-0.4,0.6c-0.2,0.3-0.1,0.7,0.2,0.8
		c0.3,0.2,0.7,0.1,0.8-0.2l0.6-0.9c0.1-0.1,0.1-0.2,0.1-0.3v-0.9h1.2V13c0,0.1,0,0.2,0.1,0.3l0.6,0.9c0.2,0.3,0.6,0.4,0.8,0.2
		c0.3-0.2,0.4-0.6,0.2-0.8l0,0l-0.4-0.6c-0.1-0.1-0.1-0.2-0.1-0.3v-0.5h0.6c0.1,0,0.2-0.1,0.2-0.2c0,0,0-0.1,0-0.1l-0.8-1.1
		C9.1,10.4,9,10,9,9.7v-1l0.1,0.1c0.3,0.3,0.8,0.5,1.3,0.5c0,0,0.1,0,0.1,0c0.5,0,1-0.3,1.3-0.7l0.4-0.5c0.2-0.3,0.2-0.6-0.1-0.9
		c-0.3-0.2-0.6-0.2-0.9,0.1c0,0,0,0,0,0l-0.4,0.5c-0.1,0.1-0.3,0.2-0.4,0.2c-0.2,0-0.3-0.1-0.5-0.2L9.8,7.7C9.5,7.4,9,7.2,8.5,7.2
		L6.4,7.2L6.4,7.2z"/>
</g>
</svg>
