<?xml version="1.0" encoding="UTF-8"?><svg version="1.1" viewBox="0 0 24 24" xmlns="http://www.w3.org/2000/svg" xmlns:xlink="http://www.w3.org/1999/xlink"><g stroke-linecap="round" stroke-width="1" stroke="#000" fill="none" stroke-linejoin="round"><circle cx="15.5" cy="5.249" r="2.5"></circle><circle cx="4.5" cy="13.749" r="1.5"></circle><path d="M20.671 12.811l-1.7-2.123 -5.84201e-08-7.35183e-08c-.472836-.595037-1.19197-.940975-1.952-.939h-5.592l-.585-1.171 6.33673e-08 1.26735e-07c-.370583-.741166-1.27183-1.04158-2.013-.671 -.741166.370583-1.04158 1.27183-.671 2.013 0 0 0 0 0 0l.723 1.445 -2.15918e-07-4.37118e-07c.420238.850756 1.28812 1.38809 2.237 1.385h1.46l-.375 1.5h-2.027l5.69247e-08 2.26079e-10c-1.02306-.00406315-1.94398.619538-2.32 1.571l-.749 1.871 4.78343e-08-1.16823e-07c-.313911.766649.0531061 1.64262.819756 1.95653 .766649.313911 1.64262-.0531061 1.95653-.819756 .00296223-.00723451.00586786-.0144921.00871662-.021772l.623-1.558h1.1l-1.16412e-07-1.35604e-06c.0413715.481922.221657.941493.518999 1.323l1.69 2.113 -3.16382e-09-3.67577e-09c.540428.627877 1.48753.698768 2.1154.15834 .596237-.513195.694705-1.39983.225597-2.03134l-1.535-1.921 .941-3.764 1.06061e-08-4.25243e-08c.0555354-.222664.255515-.378937.485-.379h.718l1.55 1.938 3.39737e-08 4.24536e-08c.517767.647002 1.462.751767 2.109.234 .647002-.517767.751767-1.462.234-2.109 0 0-1.39698e-08-1.74567e-08-1.39698e-08-1.74567e-08Z"></path></g></svg>