<?xml version="1.0" encoding="UTF-8"?><svg version="1.1" viewBox="0 0 24 24" xmlns="http://www.w3.org/2000/svg" xmlns:xlink="http://www.w3.org/1999/xlink"><g stroke-linecap="round" stroke-width="1" stroke="#000" fill="none" stroke-linejoin="round"><circle cx="18.5" cy="8.25" r="2.25"></circle><path d="M8.264 7.545l-1.31135e-08-4.64921e-08c.264821.938884 1.24062 1.48532 2.1795 1.2205 .938884-.264821 1.48532-1.24062 1.2205-2.1795 0 0 0-1.77636e-15 0-1.77636e-15l-1.648-6.086"></path><path d="M3.5 22l1.68754e-14 2.26494e-07c1.25089e-07.828427.671573 1.5 1.5 1.5 .828427-1.25089e-07 1.5-.671573 1.5-1.5v-7.5h2.86l2.18058e-08-6.02363e-12c.276142-7.62936e-05.499938-.223996.499862-.500138 -1.12564e-05-.0407423-.00500222-.0813306-.0148619-.120862l-3.345-13.379"></path><path d="M3.5 22v0c0 .828427-.671573 1.5-1.5 1.5 -.828427 0-1.5-.671573-1.5-1.5v-7.5"></path><line x1="3.5" x2="3.5" y1="14.5" y2="22"></line><path d="M17.33 12.5l1.61883e-10-4.9738e-14c-.255947 7.81283e-05-.502182-.0979863-.688-.274l-2.5-2.289 2.78877e-08 3.21988e-08c-.451969-.521838-1.2414-.578479-1.76323-.126509 -.521838.451969-.578479 1.2414-.126509 1.76323 .0103571.0119582.0209403.0237187.0317438.0352751l3.463 3.864 -7.90886e-09-8.88637e-09c.163465.183669.253534.421124.253.667v6.111l1.42109e-14 1.88745e-07c1.04241e-07.690356.559644 1.25 1.25 1.25 .690356-1.04241e-07 1.25-.559644 1.25-1.25v0l1.42109e-14 1.88745e-07c1.04241e-07.690356.559644 1.25 1.25 1.25 .690356-1.04241e-07 1.25-.559644 1.25-1.25v-5l1.42109e-14 1.88745e-07c1.04241e-07.690356.559644 1.25 1.25 1.25 .690356-1.04241e-07 1.25-.559644 1.25-1.25v-2.751 0c0-1.10457-.895431-2-2-2Z"></path><line x1="18.5" x2="18.5" y1="22" y2="18"></line></g></svg>