<?xml version="1.0" encoding="UTF-8"?><svg version="1.1" viewBox="0 0 24 24" xmlns="http://www.w3.org/2000/svg" xmlns:xlink="http://www.w3.org/1999/xlink"><g stroke-linecap="round" stroke-width="1" stroke="#000" fill="none" stroke-linejoin="round"><path d="M20.5 23.5h-4.37114e-08c.552285 2.41411e-08 1-.447715 1-1v-16.022l4.08626e-08-8.25196e-05c.00161128-3.2999-2.67218-5.97631-5.97208-5.97792 -.00100025-4.88404e-07-.0020005-7.25636e-07-.00300075-7.11695e-07h-12.0249 -4.37114e-08c-.552285 2.41411e-08-1 .447715-1 1 0 0 0 0 0 0v21l1.15463e-14 1.50996e-07c8.33927e-08.552285.447715 1 1 1Z"></path><path d="M16.5.584v3.916l1.06581e-14 1.50996e-07c8.33927e-08.552285.447715 1 1 1h3.92"></path><path d="M8.5 14v0c0 .828427-.671573 1.5-1.5 1.5h-1.5v-3h1.5l-6.55671e-08 1.77636e-15c.828427-3.62117e-08 1.5.671573 1.5 1.5Z"></path><line x1="5.5" x2="5.5" y1="18.5" y2="15.5"></line><path d="M18.5 14v0c0 .828427-.671573 1.5-1.5 1.5h-1.5v-3h1.5l-6.55671e-08 1.77636e-15c.828427-3.62117e-08 1.5.671573 1.5 1.5Z"></path><line x1="15.5" x2="15.5" y1="18.5" y2="15.5"></line><line x1="13.5" x2="13.5" y1="12.5" y2="18.5"></line><line x1="10.5" x2="10.5" y1="18.5" y2="12.5"></line><line x1="10.5" x2="13.5" y1="15.5" y2="15.5"></line></g></svg>