<?xml version="1.0" encoding="UTF-8"?><svg version="1.1" viewBox="0 0 24 24" xmlns="http://www.w3.org/2000/svg" xmlns:xlink="http://www.w3.org/1999/xlink"><g stroke-linecap="round" stroke-width="1" stroke="#000" fill="none" stroke-linejoin="round"><path d="M19.5 9.5v-3.022l4.08626e-08-8.25196e-05c.00161128-3.2999-2.67218-5.97631-5.97208-5.97792 -.00100025-4.88404e-07-.0020005-7.25636e-07-.00300075-7.11695e-07h-12.0249 -4.37114e-08c-.552285 2.41411e-08-1 .447715-1 1 0 0 0 0 0 0v21l1.06581e-14-1.50996e-07c-8.33927e-08.552285.447715 1 1 1h17 -4.37114e-08c.552285 2.41411e-08 1-.447715 1-1v-1"></path><path d="M14.5.584v3.916l1.06581e-14 1.50996e-07c8.33927e-08.552285.447715 1 1 1h3.92"></path><line x1="7.5" x2="7.5" y1="12.5" y2="18.5"></line><line x1="4.5" x2="4.5" y1="18.5" y2="12.5"></line><line x1="4.5" x2="7.5" y1="15.5" y2="15.5"></line><line x1="9.5" x2="13.5" y1="12.5" y2="12.5"></line><line x1="11.5" x2="11.5" y1="12.5" y2="18.5"></line><polyline points="15.5,18.504 15.5,12.504 17,15.504 18.5,12.504 18.5,18.504"></polyline><path d="M20.5 12.5v5l1.06581e-14 1.50996e-07c8.33927e-08.552285.447715 1 1 1h2"></path></g></svg>