<svg viewBox="0 0 24 24" xmlns="http://www.w3.org/2000/svg"><g stroke-linecap="round" stroke="#000" fill="none" stroke-linejoin="round"><path d="M21.207 4.5l-.01-.01c.18.18.29.44.29.7v17.29 0c0 .55-.45 1-1 1h-17 -.01c-.56-.01-1-.45-1-1.01 0 0 0-.001 0-.001v-21l0 0C2.46.9 2.91.45 3.46.45h13.29l0 0c.26 0 .52.1.7.29Z"/><path d="M10.5 8.5h-.6l0 0c-.72-.06-1.35.47-1.41 1.18 -.01.03-.01.06-.01.09v1.24l0-.01c-.02.45-.29.86-.7 1.07l-1.31.9 1.3.9 0 0c.41.2.68.61.7 1.07v1.24l-.01-.01c0 .71.58 1.29 1.3 1.29 .03-.01.06-.01.1-.01h.59"/><path d="M13.5 8.5h.59l-.01 0c.71-.06 1.34.47 1.4 1.18 0 .03 0 .06 0 .1v1.24l-.01-.01c.01.45.28.86.69 1.07l1.3.9 -1.3.9 0-.01c-.42.2-.69.61-.7 1.07v1.24l0-.01c-.01.71-.59 1.29-1.31 1.29 -.04-.01-.07-.01-.11-.01h-.6"/></g></svg>