<?xml version="1.0" encoding="utf-8"?>
<!-- Generator: Adobe Illustrator 24.0.0, SVG Export Plug-In . SVG Version: 6.00 Build 0)  -->
<svg version="1.1" id="Laag_1" xmlns="http://www.w3.org/2000/svg" xmlns:xlink="http://www.w3.org/1999/xlink" x="0px" y="0px"
	 viewBox="0 0 15 15" style="enable-background:new 0 0 15 15;" xml:space="preserve">
<style type="text/css">
	.st0{fill:none;stroke:#000000;stroke-width:1;stroke-linecap:round;stroke-linejoin:round;}
</style>
<g>
	<path class="st0" d="M12.7,14.5c0.3,0,0.6-0.3,0.6-0.6V4.1c0-2-1.6-3.6-3.6-3.6c0,0,0,0,0,0H2.3C2,0.5,1.7,0.8,1.7,1.1v12.8
		c0,0.3,0.3,0.6,0.6,0.6H12.7z"/>
	<path class="st0" d="M10.2,0.6v2.4c0,0.3,0.3,0.6,0.6,0.6h2.4"/>
	<path class="st0" d="M5.4,11.5c-1,0-1.8-0.8-1.8-1.8s0.8-1.8,1.8-1.8"/>
	<path class="st0" d="M8.4,7.8h-1c-0.4,0-0.8,0.3-0.8,0.8c0,0.3,0.1,0.5,0.4,0.7L8.1,10c0.4,0.2,0.5,0.7,0.2,1.1
		c-0.1,0.2-0.4,0.4-0.7,0.4h-1"/>
	<path class="st0" d="M11.5,7.8h-1c-0.4,0-0.8,0.3-0.8,0.8c0,0.3,0.1,0.5,0.4,0.7l1.1,0.7c0.4,0.2,0.5,0.7,0.2,1.1
		c-0.1,0.2-0.4,0.4-0.7,0.4h-1"/>
</g>
</svg>
