<?xml version="1.0" encoding="UTF-8"?><svg version="1.1" viewBox="0 0 24 24" xmlns="http://www.w3.org/2000/svg" xmlns:xlink="http://www.w3.org/1999/xlink"><g stroke-linecap="round" stroke-width="1" stroke="#000" fill="none" stroke-linejoin="round"><path d="M21.207 4.5l-1.96434e-08-1.96375e-08c.187549.187493.292943.441805.293.707v17.293 0c0 .552285-.447715 1-1 1h-17 -4.37114e-08c-.552285-2.41411e-08-1-.447715-1-1 0 0 0-3.55271e-15 0-3.55271e-15v-21l1.24345e-14 1.50996e-07c-8.33927e-08-.552285.447715-1 1-1h13.293l4.49078e-08 3.21909e-10c.266204.00190822.520659.109881.707.3Z"></path><path d="M10.5 8.5h-.594l7.13582e-08 5.83883e-09c-.715579-.0585517-1.34314.474074-1.40169 1.18965 -.00270418.0330486-.00414291.0661886-.00431304.0993473v1.241l3.83476e-08-9.6841e-07c-.0181544.458465-.287197.869716-.699999 1.07l-1.3.9 1.3.9 2.48865e-08 1.20596e-08c.412954.200112.682064.611465.7 1.07v1.24l-4.58083e-08-1.05119e-05c.0031258.717963.587684 1.29745 1.30565 1.29433 .0334905-.000145808.0669628-.00158574.100342-.00431658h.59401"></path><path d="M13.5 8.5h.592l-1.68734e-08 1.40687e-09c.715488-.0596558 1.34387.472001 1.40352 1.18749 .00281532.0337659.00430947.0676289.00447901.101512v1.241l-4.19172e-08-1.05856e-06c.0181543.458465.287197.869716.699999 1.07l1.3.9 -1.3.9 1.06694e-08-5.17025e-09c-.412954.200112-.682064.611465-.7 1.07v1.24l3.16443e-08-7.47819e-06c-.00303603.717964-.587522 1.29753-1.30549 1.29449 -.0342143-.000144681-.0684096-.00164003-.102506-.00448257h-.592007"></path></g></svg>