<?xml version="1.0" encoding="UTF-8"?><svg version="1.1" viewBox="0 0 24 24" xmlns="http://www.w3.org/2000/svg" xmlns:xlink="http://www.w3.org/1999/xlink"><g stroke-linecap="round" stroke-width="1" stroke="#000" fill="none" stroke-linejoin="round"><path d="M20.5 23.5h-4.37114e-08c.552285 2.41411e-08 1-.447715 1-1v-16.022l4.08626e-08-8.25196e-05c.00161128-3.2999-2.67218-5.97631-5.97208-5.97792 -.00100025-4.88404e-07-.0020005-7.25636e-07-.00300075-7.11695e-07h-12.0249 -4.37114e-08c-.552285 2.41411e-08-1 .447715-1 1 0 0 0 0 0 0v21l1.15463e-14 1.50996e-07c8.33927e-08.552285.447715 1 1 1Z"></path><path d="M16.5.584v3.916l1.06581e-14 1.50996e-07c8.33927e-08.552285.447715 1 1 1h3.92"></path><path d="M8.5 18.5l-1.31134e-07-3.55271e-15c-1.65685-7.24234e-08-3-1.34315-3-3 7.24234e-08-1.65685 1.34315-3 3-3"></path><path d="M13.5 12.5h-1.7l-7.95563e-09-5.18732e-11c-.717955-.00468138-1.30377.573541-1.30845 1.2915 -.00287197.440457.217481.852409.585449 1.0945l1.84 1.227 -6.47012e-08-4.24415e-08c.600337.393798.76777 1.1997.373972 1.80004 -.241059.36749-.651476.5883-1.09097.58696h-1.7"></path><path d="M18.5 12.5h-1.7l-7.95563e-09-5.18732e-11c-.717955-.00468138-1.30377.573541-1.30845 1.2915 -.00287197.440457.217481.852409.585449 1.0945l1.84 1.227 -6.47012e-08-4.24415e-08c.600337.393798.76777 1.1997.373972 1.80004 -.241059.36749-.651476.5883-1.09097.58696h-1.7"></path></g></svg>