<?xml version="1.0" encoding="utf-8"?>
<!-- Generator: Adobe Illustrator 24.0.0, SVG Export Plug-In . SVG Version: 6.00 Build 0)  -->
<svg version="1.1" id="Laag_1" xmlns="http://www.w3.org/2000/svg" xmlns:xlink="http://www.w3.org/1999/xlink" x="0px" y="0px"
	 viewBox="0 0 15 15" style="enable-background:new 0 0 15 15;" xml:space="preserve">
<style type="text/css">
	.st0{fill:none;stroke:#000000;stroke-width:1;stroke-linecap:round;stroke-linejoin:round;}
</style>
<g>
	<path class="st0" d="M12.1,6V4.1c0-2-1.6-3.6-3.6-3.6c0,0,0,0,0,0H1.1c-0.3,0-0.6,0.3-0.6,0.6v12.8c0,0.3,0.3,0.6,0.6,0.6h10.3
		c0.3,0,0.6-0.3,0.6-0.6v-0.6"/>
	<path class="st0" d="M9,0.6v2.4c0,0.3,0.3,0.6,0.6,0.6H12"/>
	<line class="st0" x1="4.8" y1="7.8" x2="4.8" y2="11.5"/>
	<line class="st0" x1="2.9" y1="11.5" x2="2.9" y2="7.8"/>
	<line class="st0" x1="2.9" y1="9.6" x2="4.8" y2="9.6"/>
	<line class="st0" x1="6" y1="7.8" x2="8.4" y2="7.8"/>
	<line class="st0" x1="7.2" y1="7.8" x2="7.2" y2="11.5"/>
	<polyline class="st0" points="9.6,11.5 9.6,7.8 10.5,9.6 11.5,7.8 11.5,11.5 	"/>
	<path class="st0" d="M12.7,7.8v3c0,0.3,0.3,0.6,0.6,0.6h1.2"/>
</g>
</svg>
