<?xml version="1.0" encoding="UTF-8"?><svg version="1.1" viewBox="0 0 24 24" xmlns="http://www.w3.org/2000/svg" xmlns:xlink="http://www.w3.org/1999/xlink"><g stroke-linecap="round" stroke-width="1" stroke="#000" fill="none" stroke-linejoin="round"><path d="M20.5 23.5h-4.37114e-08c.552285 2.41411e-08 1-.447715 1-1v-16.022l4.08626e-08-8.25196e-05c.00161128-3.2999-2.67218-5.97631-5.97208-5.97792 -.00100025-4.88404e-07-.0020005-7.25636e-07-.00300075-7.11695e-07h-12.0249 -4.37114e-08c-.552285 2.41411e-08-1 .447715-1 1 0 0 0 0 0 0v21l1.15463e-14 1.50996e-07c8.33927e-08.552285.447715 1 1 1Z"></path><path d="M16.5.584v3.916l1.06581e-14 1.50996e-07c8.33927e-08.552285.447715 1 1 1h3.92"></path><path d="M8.5 12.5h-1.7l1.04374e-08 9.33866e-11c-.717941-.00642366-1.30516.570375-1.31158 1.28832 -.00397422.444179.219119.859641.591579 1.10168l1.84 1.227 -2.7867e-08-1.85035e-08c.598125.39715.761046 1.20398.363896 1.8021 -.241083.363081-.648066.581196-1.0839.580896h-1.7"></path><path d="M13.5 16.5v0c0 .828427-.671573 1.5-1.5 1.5 -.828427 0-1.5-.671573-1.5-1.5v-2.5l1.77636e-14 2.26494e-07c-1.25089e-07-.828427.671573-1.5 1.5-1.5 .828427-1.25089e-07 1.5.671573 1.5 1.5 0 0 0 1.77636e-15 0 1.77636e-15Z"></path><line x1="13.5" x2="11.5" y1="19.5" y2="17.92"></line><path d="M15.5 12.5v5l1.06581e-14 1.50996e-07c8.33927e-08.552285.447715 1 1 1h2"></path></g></svg>