<?xml version="1.0" encoding="UTF-8"?><svg version="1.1" viewBox="0 0 24 24" xmlns="http://www.w3.org/2000/svg" xmlns:xlink="http://www.w3.org/1999/xlink"><path d="M21.8 2.1l3.52136e-09-4.69515e-09c.331371-.441828.241828-1.06863-.2-1.4 -.173096-.129822-.38363-.2-.6-.2h-18.019 -4.37114e-08c-.552285 2.41411e-08-1 .447715-1 1 9.45784e-09.21637.0701779.426904.2.6l7.808 10.491v9.909l1.24345e-14-1.50996e-07c-8.33927e-08.552285.447715 1 1 1 .21637 3.2671e-08.426904-.0701778.6-.2l2-1.5 5.57032e-08-4.17774e-08c.251806-.188854.4-.485243.4-.8v-8.41Z" stroke-linecap="round" stroke-width="1" stroke="#000" fill="none" stroke-linejoin="round"></path></svg>