<svg viewBox="0 0 24 24" xmlns="http://www.w3.org/2000/svg"><g stroke-linecap="round" stroke="#000" fill="none" stroke-linejoin="round"><path d="M16.047 2.16l0-.01c.36-.42.32-1.05-.1-1.42 -.19-.17-.42-.25-.67-.25H2.67l0-.001c-.56 0-1 .44-1 1 0 .24.08.47.24.65l5.55 6.34V14.1l-.01 0c-.01.55.44 1 .99 1 .19 0 .39-.06.55-.17l1-.67 -.01 0c.27-.19.44-.5.44-.84V8.45Z"/><path d="M17.5 14.5l4 0"/><path d="M15.5 17.5l6 0"/><path d="M15.5 20.5l6 0"/><path d="M13.5 12.5l0 0c-.01-.56.44-1.01.99-1.01h8l-.01 0c.55-.01 1 .44 1 .99v10 0c0 .55-.45 1-1 1h-8 -.01c-.56-.01-1-.45-1-1.01 0 0 0-.001 0-.001Z"/></g></svg>