<svg viewBox="0 0 24 24" xmlns="http://www.w3.org/2000/svg"><g stroke-linecap="round" stroke="#000" fill="none" stroke-linejoin="round"><path d="M23.5 1.5v0c0-.56-.45-1-1-1H3.91l0-.001c-.27 0-.52.1-.71.29L.78 3.199l0-.01c-.19.18-.3.44-.3.7v18.58l0-.01c-.01.55.44 1 .99 1h21 -.01c.55 0 1-.45 1-1Z"/><path d="M19.5 6.5v0c0 .55-.45 1-1 1h-13l-.01-.001c-.56-.01-1-.45-1-1.01 0 0 0 0 0 0v-6h15Z"/><path d="M4.5 23.5h15v-3 0c0-.56-.45-1-1-1h-13 -.01c-.56 0-1 .44-1 1 0 0 0 0 0 0Z"/><path d="M12 10.5a3 3 0 1 0 0 6 3 3 0 1 0 0-6Z"/></g></svg>