<?xml version="1.0" encoding="UTF-8"?><svg version="1.1" viewBox="0 0 24 24" xmlns="http://www.w3.org/2000/svg" xmlns:xlink="http://www.w3.org/1999/xlink"><g stroke-linecap="round" stroke-width="1" stroke="#000" fill="none" stroke-linejoin="round"><path d="M23.261 10.2l-3.67191e-09 1.79884e-08c.110458-.541126-.238667-1.06934-.779793-1.1798 -.0665415-.0135829-.134294-.0203519-.202207-.0202022h-11.859l1.4875e-08-1.79092e-11c-.475644.000572662-.885871-.333965-.981-.8l-.278-1.4 7.99083e-09 3.91471e-08c-.0951285-.466035-.505356-.800573-.981-.8h-6.46l-4.26688e-08-5.13811e-11c-.552284-.000665066-1.00054.446511-1.0012.998795 -8.13789e-05.0675787.00668773.134992.0202035.201205l2.6 13 -2.84555e-08-1.39404e-07c.0951285.466035.505356.800573.981.8h15.96l1.69115e-08 2.0357e-11c.475644.000572647.885871-.333965.981-.8 .412-2.066 1.512-7.563 2-10Z"></path><path d="M2.72 4l1.42109e-14 1.50996e-07c-8.33927e-08-.552285.447715-1 1-1h17l-4.37114e-08 8.88178e-16c.552285-2.41411e-08 1 .447715 1 1v3"></path></g></svg>