<?xml version="1.0" encoding="utf-8"?>
<!-- Generator: Adobe Illustrator 24.0.0, SVG Export Plug-In . SVG Version: 6.00 Build 0)  -->
<svg version="1.1" id="Laag_1" xmlns="http://www.w3.org/2000/svg" xmlns:xlink="http://www.w3.org/1999/xlink" x="0px" y="0px"
	 viewBox="0 0 15 15" style="enable-background:new 0 0 15 15;" xml:space="preserve">
<style type="text/css">
	.st0{fill:none;stroke:#000000;stroke-width:1;stroke-linecap:round;stroke-linejoin:round;}
</style>
<g>
	<path class="st0" d="M14.5,6.4C14.6,6,14.3,5.7,14,5.7c0,0-0.1,0-0.1,0H6.5C6.2,5.6,6,5.4,5.9,5.1L5.7,4.3C5.7,4,5.4,3.8,5.1,3.8
		h-4c-0.3,0-0.6,0.3-0.6,0.6c0,0,0,0.1,0,0.1l1.6,8.1c0.1,0.3,0.3,0.5,0.6,0.5h9.9c0.3,0,0.5-0.2,0.6-0.5
		C13.5,11.3,14.2,7.9,14.5,6.4z"/>
	<path class="st0" d="M1.7,2.5c0-0.3,0.3-0.6,0.6-0.6h10.5c0.3,0,0.6,0.3,0.6,0.6v1.9"/>
</g>
</svg>
