<?xml version="1.0" encoding="UTF-8"?><svg version="1.1" viewBox="0 0 24 24" xmlns="http://www.w3.org/2000/svg" xmlns:xlink="http://www.w3.org/1999/xlink"><path d="M11.736 5l4.60337e-08 2.45812e-11c-.378666-.000202201-.724736-.214271-.894-.553l-.948-1.894 1.68318e-08 3.36837e-08c-.169264-.338729-.515334-.552798-.894-.553h-7.5 -4.37114e-08c-.552285 2.41411e-08-1 .447715-1 1 0 0 0 0 0 0v18l1.06581e-14-1.50996e-07c-8.33927e-08.552285.447715 1 1 1h21 -4.37114e-08c.552285 2.41411e-08 1-.447715 1-1v-15 0c0-.552285-.447715-1-1-1Z" stroke-linecap="round" stroke-width="1" stroke="#000" fill="none" stroke-linejoin="round"></path></svg>