<?xml version="1.0" encoding="UTF-8"?><svg version="1.1" viewBox="0 0 24 24" xmlns="http://www.w3.org/2000/svg" xmlns:xlink="http://www.w3.org/1999/xlink"><g stroke-linecap="round" stroke-width="1" stroke="#000" fill="none" stroke-linejoin="round"><path d="M17.75 12.5v0c0 .138071-.111929.25-.25.25 -.138071 0-.25-.111929-.25-.25 0-.138071.111929-.25.25-.25h-1.09278e-08c.138071-6.03528e-09.25.111929.25.25"></path><path d="M17.75 15v0c0 .138071-.111929.25-.25.25 -.138071 0-.25-.111929-.25-.25 0-.138071.111929-.25.25-.25h-1.09278e-08c.138071-6.03528e-09.25.111929.25.25"></path><path d="M17.75 17.5v0c0 .138071-.111929.25-.25.25 -.138071 0-.25-.111929-.25-.25 0-.138071.111929-.25.25-.25h-1.09278e-08c.138071-6.03528e-09.25.111929.25.25"></path><path d="M17.75 19.75v0c0 .138071-.111929.25-.25.25 -.138071 0-.25-.111929-.25-.25 0-.138071.111929-.25.25-.25h-1.09278e-08c.138071-6.03528e-09.25.111929.25.25"></path><path d="M11.736 5l4.60337e-08 2.45812e-11c-.378666-.000202201-.724736-.214271-.894-.553l-.948-1.894 1.68318e-08 3.36837e-08c-.169264-.338729-.515334-.552798-.894-.553h-7.5 -4.37114e-08c-.552285 2.41411e-08-1 .447715-1 1 0 0 0 0 0 0v18l1.06581e-14-1.50996e-07c-8.33927e-08.552285.447715 1 1 1h21 -4.37114e-08c.552285 2.41411e-08 1-.447715 1-1v-15 0c0-.552285-.447715-1-1-1Z"></path><path d="M18.5 5l.489 3.611 -3.13712e-08-2.50204e-07c.101621.810483-.473026 1.54989-1.28351 1.65151 -.061197.00767305-.122814.0115106-.18449.0114902h-.06l4.03033e-08-1.336e-11c-.816829.00027076-1.47922-.661681-1.47949-1.47851 -2.04443e-05-.0616762.00381709-.123293.0114901-.18449l.361-3.611"></path></g></svg>