<svg viewBox="0 0 24 24" xmlns="http://www.w3.org/2000/svg"><g stroke-linecap="round" stroke="#000" fill="none" stroke-linejoin="round"><path d="M23.26 10.2l-.01 0c.11-.55-.24-1.07-.78-1.18 -.07-.02-.14-.03-.21-.03H10.4l0-.001c-.48 0-.89-.34-.99-.8l-.28-1.4 0 0c-.1-.47-.51-.81-.99-.81H1.68l-.01-.001c-.56-.01-1.01.44-1.01.99 -.01.06 0 .13.02.2l2.6 13 -.01-.01c.09.46.5.8.98.8h15.96l0 0c.47 0 .88-.34.98-.8 .41-2.07 1.51-7.57 2-10Z"/><path d="M2.72 4l0 0c-.01-.56.44-1.01.99-1.01h17l-.01 0c.55-.01 1 .44 1 .99v3"/></g></svg>