<?xml version="1.0" encoding="UTF-8"?><svg version="1.1" viewBox="0 0 24 24" xmlns="http://www.w3.org/2000/svg" xmlns:xlink="http://www.w3.org/1999/xlink"><g stroke-linecap="round" stroke-width="1" stroke="#000" fill="none" stroke-linejoin="round"><path d="M15.979 21.725l-6.526-19.113 2.10952e-08 6.1561e-08c-.0895161-.261231-.373853-.400433-.635083-.310917 -.146093.0500619-.260855.164824-.310917.310917l-6.507 19.113"></path><line x1="4.38" x2="13.59" y1="14.73" y2="14.73"></line><line x1=".5" x2="3.52" y1="21.73" y2="21.73"></line><line x1="14.48" x2="17.5" y1="21.73" y2="21.73"></line><path d="M22.5 21.725l-4.123-12.078 2.10952e-08 6.1561e-08c-.0895161-.261231-.373853-.400433-.635083-.310917 -.146093.0500619-.260855.164824-.310917.310917l-1.888 5.543"></path><line x1="16.92" x2="20.79" y1="16.73" y2="16.73"></line><line x1="21.52" x2="23.5" y1="21.73" y2="21.73"></line></g></svg>