<?xml version="1.0" encoding="utf-8"?>
<!-- Generator: Adobe Illustrator 24.0.0, SVG Export Plug-In . SVG Version: 6.00 Build 0)  -->
<svg version="1.1" id="Laag_1" xmlns="http://www.w3.org/2000/svg" xmlns:xlink="http://www.w3.org/1999/xlink" x="0px" y="0px"
	 viewBox="0 0 15 15" style="enable-background:new 0 0 15 15;" xml:space="preserve">
<style type="text/css">
	.st0{fill:none;stroke:#000000;stroke-width:1;stroke-linecap:round;stroke-linejoin:round;}
</style>
<g>
	<circle class="st0" cx="7.5" cy="9.6" r="0.9"/>
	<line class="st0" x1="8.1" y1="9" x2="11.2" y2="6"/>
	<line class="st0" x1="1.7" y1="9.9" x2="2.9" y2="9.9"/>
	<line class="st0" x1="13.3" y1="9.9" x2="12.1" y2="9.9"/>
	<line class="st0" x1="12.8" y1="7.4" x2="11.7" y2="7.9"/>
	<line class="st0" x1="9.7" y1="4.3" x2="9.2" y2="5.4"/>
	<line class="st0" x1="7.5" y1="3.8" x2="7.5" y2="5.1"/>
	<line class="st0" x1="5.3" y1="4.3" x2="5.8" y2="5.4"/>
	<line class="st0" x1="3.4" y1="5.5" x2="4.3" y2="6.4"/>
	<line class="st0" x1="2.2" y1="7.4" x2="3.3" y2="7.9"/>
	<path class="st0" d="M7.5,2.6c-3.9,0-7,3.1-7,7v2.1c0,0.3,0.3,0.6,0.6,0.6h12.8c0.3,0,0.6-0.3,0.6-0.6V9.6
		C14.5,5.8,11.4,2.6,7.5,2.6z"/>
</g>
</svg>
