<svg viewBox="0 0 24 24" xmlns="http://www.w3.org/2000/svg"><g stroke-linecap="round" stroke="#000" fill="none" stroke-linejoin="round"><path d="M12 12.5a1.5 1.5 0 1 0 0 3 1.5 1.5 0 1 0 0-3Z"/><path d="M13.06 12.94l4.95-4.95"/><path d="M2.5 14.5l2 0"/><path d="M21.5 14.5l-2 0"/><path d="M20.78 10.36l-1.85.77"/><path d="M15.64 5.22l-.77 1.85"/><path d="M12 4.5l0 2"/><path d="M8.36 5.22l.77 1.85"/><path d="M5.28 7.28L6.7 8.7"/><path d="M3.22 10.36l1.85.77"/><path d="M12 2.5l-.01 0C5.63 2.5.49 7.64.49 14s0 0 0 0v3.5l0 0c0 .55.44.99 1 .99h21 -.01c.55 0 1-.45 1-1v-3.51 0c0-6.36-5.15-11.5-11.5-11.5 0 0-.01 0-.01 0Z"/></g></svg>