<?xml version="1.0" encoding="UTF-8"?><svg version="1.1" viewBox="0 0 24 24" xmlns="http://www.w3.org/2000/svg" xmlns:xlink="http://www.w3.org/1999/xlink"><g stroke-linecap="round" stroke-width="1" stroke="#000" fill="none" stroke-linejoin="round"><circle cx="12" cy="14" r="1.5"></circle><line x1="13.06" x2="18.01" y1="12.94" y2="7.99"></line><line x1="2.5" x2="4.5" y1="14.5" y2="14.5"></line><line x1="21.5" x2="19.5" y1="14.5" y2="14.5"></line><line x1="20.78" x2="18.93" y1="10.36" y2="11.13"></line><line x1="15.64" x2="14.87" y1="5.22" y2="7.07"></line><line x1="12" x2="12" y1="4.5" y2="6.5"></line><line x1="8.36" x2="9.13" y1="5.22" y2="7.07"></line><line x1="5.28" x2="6.7" y1="7.28" y2="8.7"></line><line x1="3.22" x2="5.07" y1="10.36" y2="11.13"></line><path d="M12 2.5l-5.02681e-07 1.06581e-14c-6.35127 2.77623e-07-11.5 5.14873-11.5 11.5 0 0 0 5.32907e-15 0 5.32907e-15v3.5l1.06581e-14 1.50996e-07c8.33927e-08.552285.447715 1 1 1h21 -4.37114e-08c.552285 2.41411e-08 1-.447715 1-1v-3.5 0c0-6.35127-5.14873-11.5-11.5-11.5 0 0-1.50996e-07 1.77636e-15-1.50996e-07 1.77636e-15Z"></path></g></svg>