<?xml version="1.0" encoding="UTF-8"?><svg version="1.1" viewBox="0 0 24 24" xmlns="http://www.w3.org/2000/svg" xmlns:xlink="http://www.w3.org/1999/xlink"><g stroke-linecap="round" stroke-width="1" stroke="#000" fill="none" stroke-linejoin="round"><path d="M9.5 14.244l2.52911e-07 2.08468e-07c-2.34393-1.93204-2.67784-5.3984-.745798-7.74234 1.93204-2.34393 5.3984-2.67784 7.74234-.745798 2.34393 1.93204 2.67784 5.3984.745798 7.74234 -.933474 1.13248-2.28084 1.84492-3.74234 1.9788"></path><path d="M10.512 7.768l-7.31427e-09-6.07356e-09c2.33692 1.94052 2.65827 5.40806.717758 7.74499 -1.94052 2.33692-5.40806 2.65827-7.74499.717758 -2.33692-1.94052-2.65827-5.40806-.717758-7.74499 .933902-1.12468 2.27713-1.83129 3.73299-1.96376"></path><line x1="16.89" x2="22.5" y1="6.11" y2=".5"></line><polyline points="22.5,4.5 22.5,.5 18.5,.5"></polyline><line x1="6.5" x2="6.5" y1="17.48" y2="23.5"></line><polyline points="9.5,20.5 6.5,23.5 3.5,20.5"></polyline></g></svg>