<svg viewBox="0 0 24 24" xmlns="http://www.w3.org/2000/svg"><g stroke-linecap="round" stroke="#000" fill="none" stroke-linejoin="round"><path d="M18.25 2.251c-1.061 1.061-3.04.96-4.75-.75L12 3l8 8 3.5-3.5Z"/><path d="M11.939 9.94l-3.8-3.792 0-.01c.91-2.02.01-4.39-2-5.3C5.08.35 3.88.35 2.83.82l2.14 2.14v2h-2L.83 2.818l0-.01c-.92 2.01-.02 4.38 1.99 5.29 1.04.47 2.24.47 3.29 0l3.79 3.79"/><path d="M12.061 14.06l3.79 3.79 0-.01c-.92 2.01-.02 4.38 1.99 5.29 1.04.47 2.24.47 3.29 0l-2.15-2.15v-2h2l2.14 2.14 0-.01c.91-2.02.01-4.39-2-5.3 -1.05-.48-2.25-.48-3.3-.01l-3.8-3.8"/><path d="M15.439 6.44L.93 20.94l0-.01c-.59.58-.59 1.53 0 2.122 .58.58 1.53.58 2.12-.01l14.5-14.5"/></g></svg>