<?xml version="1.0" encoding="utf-8"?>
<!-- Generator: Adobe Illustrator 24.0.0, SVG Export Plug-In . SVG Version: 6.00 Build 0)  -->
<svg version="1.1" id="Laag_1" xmlns="http://www.w3.org/2000/svg" xmlns:xlink="http://www.w3.org/1999/xlink" x="0px" y="0px"
	 viewBox="0 0 15 15" style="enable-background:new 0 0 15 15;" xml:space="preserve">
<style type="text/css">
	.st0{fill:none;stroke:#000000;stroke-width:1;stroke-linecap:round;stroke-linejoin:round;}
</style>
<g>
	<path class="st0" d="M3.3,6.6V3.3c0-0.8,0.6-1.4,1.4-1.4s1.4,0.6,1.4,1.4v0.9"/>
	<path class="st0" d="M8.9,4.2V3.3c0-0.8,0.6-1.4,1.4-1.4s1.4,0.6,1.4,1.4v0.9"/>
	<path class="st0" d="M8.9,3.3V2.4l0,0C8.9,1.6,8.3,1,7.5,1S6.1,1.6,6.1,2.4l0,0v0.9"/>
	<path class="st0" d="M11.7,5.6V4.2c0-0.8,0.6-1.4,1.4-1.4c0.8,0,1.4,0.6,1.4,1.4v5.1c0,2.6-2.1,4.7-4.7,4.7H6.7
		c-5.3,0-6.2-4.7-6.2-6.5V6.6c0-0.9,0.5-1.9,1.4-1.9h1.4"/>
</g>
</svg>
