<?xml version="1.0" encoding="UTF-8"?><svg version="1.1" viewBox="0 0 24 24" xmlns="http://www.w3.org/2000/svg" xmlns:xlink="http://www.w3.org/1999/xlink"><g stroke-linecap="round" stroke-width="1" stroke="#000" fill="none" stroke-linejoin="round"><path d="M7.5 12.5v-3.5l1.68754e-14 2.26494e-07c-1.25089e-07-.828427.671573-1.5 1.5-1.5 .828427-1.25089e-07 1.5.671573 1.5 1.5 0 0 0 1.77636e-15 0 1.77636e-15v1"></path><path d="M13.5 10v-1l1.77636e-14 2.26494e-07c-1.25089e-07-.828427.671573-1.5 1.5-1.5 .828427-1.25089e-07 1.5.671573 1.5 1.5 0 0 0 1.77636e-15 0 1.77636e-15v1"></path><path d="M13.5 9v-1 0 0c0-.828427-.671573-1.5-1.5-1.5 -.828427 0-1.5.671573-1.5 1.5v0 1"></path><path d="M16.5 11.5v-1.5l1.77636e-14 2.26494e-07c-1.25089e-07-.828427.671573-1.5 1.5-1.5 .828427-1.25089e-07 1.5.671573 1.5 1.5 0 0 0 1.77636e-15 0 1.77636e-15v5.5 0c0 2.76142-2.23858 5-5 5h-3.335c-5.665 0-6.665-5-6.665-7v-1c0-.972.5-2 1.5-2h1.5"></path></g></svg>