<svg viewBox="0 0 24 24" xmlns="http://www.w3.org/2000/svg"><g stroke-linecap="round" stroke="#000" fill="none" stroke-linejoin="round"><path d="M7.5 12.5V9l0 0c-.01-.83.67-1.51 1.49-1.51 .82-.01 1.5.67 1.5 1.49 0 0 0 0 0 0v1"/><path d="M13.5 10V9l0 0c-.01-.83.67-1.51 1.49-1.51 .82-.01 1.5.67 1.5 1.49 0 0 0 0 0 0v1"/><path d="M13.5 9V8v0 0c0-.83-.68-1.5-1.5-1.5 -.83 0-1.5.67-1.5 1.5v0 1"/><path d="M16.5 11.5V10l0 0c-.01-.83.67-1.51 1.49-1.51 .82-.01 1.5.67 1.5 1.49 0 0 0 0 0 0v5.5 0c0 2.76-2.24 5-5 5h-3.34c-5.67 0-6.67-5-6.67-7v-1c0-.98.5-2 1.5-2h1.5"/></g></svg>