<svg viewBox="0 0 24 24" xmlns="http://www.w3.org/2000/svg"><g stroke-linecap="round" stroke="#000" fill="none" stroke-linejoin="round"><path d="M7.5 15.5v-9l0 0c-.01-.83.67-1.51 1.49-1.51 .82-.01 1.5.67 1.5 1.49 0 0 0 0 0 0v5"/><path d="M10.5 6.5v-1l0 0c-.01-.83.67-1.51 1.49-1.51 .82-.01 1.5.67 1.5 1.49 0 0 0 0 0 0v1"/><path d="M13.5 11.5v-5l0 0c-.01-.83.67-1.51 1.49-1.51 .82-.01 1.5.67 1.5 1.49 0 0 0 0 0 0v2"/><path d="M16.5 12.5v-4l0 0c-.01-.83.67-1.51 1.49-1.51 .82-.01 1.5.67 1.5 1.49 0 0 0 0 0 0v9 0c0 2.76-2.24 5-5 5h-3.34c-3.665 0-6.67-4-6.67-6v-4 -.001c0-.83.67-1.5 1.5-1.5h1.5"/></g></svg>