<?xml version="1.0" encoding="UTF-8"?><svg version="1.1" viewBox="0 0 24 24" xmlns="http://www.w3.org/2000/svg" xmlns:xlink="http://www.w3.org/1999/xlink"><g stroke-linecap="round" stroke-width="1" stroke="#000" fill="none" stroke-linejoin="round"><path d="M7.5 15.5v-9l1.68754e-14 2.26494e-07c-1.25089e-07-.828427.671573-1.5 1.5-1.5 .828427-1.25089e-07 1.5.671573 1.5 1.5 0 0 0 8.88178e-16 0 8.88178e-16v5"></path><path d="M10.5 6.5v-1l1.77636e-14 2.26494e-07c-1.25089e-07-.828427.671573-1.5 1.5-1.5 .828427-1.25089e-07 1.5.671573 1.5 1.5 0 0 0 8.88178e-16 0 8.88178e-16v1"></path><path d="M13.5 11.5v-5l1.77636e-14 2.26494e-07c-1.25089e-07-.828427.671573-1.5 1.5-1.5 .828427-1.25089e-07 1.5.671573 1.5 1.5 0 0 0 8.88178e-16 0 8.88178e-16v2"></path><path d="M16.5 12.5v-4l1.77636e-14 2.26494e-07c-1.25089e-07-.828427.671573-1.5 1.5-1.5 .828427-1.25089e-07 1.5.671573 1.5 1.5 0 0 0 1.77636e-15 0 1.77636e-15v9 0c0 2.76142-2.23858 5-5 5h-3.335c-3.665 0-6.665-4-6.665-6v-4 -1.77636e-15c1.25089e-07-.828427.671573-1.5 1.5-1.5h1.5"></path></g></svg>