<svg viewBox="0 0 24 24" xmlns="http://www.w3.org/2000/svg"><g stroke-linecap="round" stroke="#000" fill="none" stroke-linejoin="round"><path d="M16 21.5h1c1.93 0 3.5-1.07 3.5-3v-2.17"/><path d="M19.5 8.5l-.01 0c2.2-.01 4 1.78 4 3.99 0 1.69-1.07 3.21-2.67 3.77l-.01 0c-.53.18-1.1-.09-1.28-.61 -.04-.11-.06-.22-.06-.34Z"/><path d="M4.5 8.5l-.01-.001c-2.21-.01-4.01 1.78-4.01 3.99 -.01 1.69 1.06 3.21 2.66 3.77l0 0c.52.18 1.09-.09 1.27-.61 .03-.11.05-.22.05-.34Z"/><path d="M19.5 10V8v0c0-4.15-3.36-7.5-7.5-7.5C7.85.5 4.5 3.85 4.5 8v2"/><path d="M11.5 20.5h4 -.01c.27-.01.5.22.5.49v1 0c0 .27-.23.5-.5.5h-4 -.01c-.56-.01-1-.45-1-1.01 0 0 0-.001 0-.001v0l0-.01c0-.56.44-1 1-1Z"/><path d="M15.225 14.66l-.01 0c-1.79 1.78-4.67 1.78-6.45 0 -.01-.01-.01-.01-.01-.01"/><path d="M8.75 9.661h-.01c.13-.01.25.11.25.24s-.12.25-.25.25c-.14 0-.25-.12-.26-.25l0 0c-.01-.14.11-.26.24-.26"/><path d="M15.25 9.661h-.01c.13-.01.25.11.25.24s-.12.25-.25.25c-.14 0-.25-.12-.26-.25l0 0c-.01-.14.11-.26.24-.26"/></g></svg>