<svg viewBox="0 0 24 24" xmlns="http://www.w3.org/2000/svg"><g stroke-linecap="round" stroke="#000" fill="none" stroke-linejoin="round"><path d="M12 .5a11.5 11.5 0 1 0 0 23 11.5 11.5 0 1 0 0-23Z"/><path d="M12 6a6 6 0 1 0 0 12 6 6 0 1 0 0-12Z"/><path d="M21.42 5.41l-4 4"/><path d="M14.59 6.59l4.02-4.02"/><path d="M5.41 21.42l4-4"/><path d="M6.59 14.59L2.58 18.6"/><path d="M18.6 21.42l-4-4.01"/><path d="M17.42 14.58l4.01 4.01"/><path d="M2.58 5.4l4.01 4.01"/><path d="M9.42 6.58L5.41 2.57"/></g></svg>