<?xml version="1.0" encoding="UTF-8"?><svg version="1.1" viewBox="0 0 24 24" xmlns="http://www.w3.org/2000/svg" xmlns:xlink="http://www.w3.org/1999/xlink"><g stroke-linecap="round" stroke-width="1" stroke="#000" fill="none" stroke-linejoin="round"><path d="M6.5 9.5l-1.911 12.424 -1.25684e-08 8.17258e-08c-.0419736.272934.145257.528217.41819.57019 .0250859.00385787.050429.00580006.0758098.00580971h4.417v-3.5l2.84217e-14 3.77489e-07c-2.08482e-07-1.38071 1.11929-2.5 2.5-2.5 1.38071-2.08482e-07 2.5 1.11929 2.5 2.5 0 0 0 3.55271e-15 0 3.55271e-15v3.5h4.415l-5.03572e-09 1.91491e-12c.276142-.000105065.499915-.224048.49981-.50019 -9.65668e-06-.0253808-.00195184-.0507239-.00580972-.0758098l-1.909-12.424"></path><path d="M4 1.5h-2.18557e-08c-.276142 1.20706e-08-.5.223858-.5.5 0 0 0 0 0 0v6l1.77636e-14 2.26494e-07c1.25089e-07.828427.671573 1.5 1.5 1.5h14l-6.55671e-08-1.77636e-15c.828427 3.62117e-08 1.5-.671573 1.5-1.5v-6 0c0-.276142-.223858-.5-.5-.5h-2l-2.18557e-08 4.44089e-16c-.276142 1.20706e-08-.5.223858-.5.5 0 0 0 0 0 0v1 0c0 .828427-.671573 1.5-1.5 1.5 -.828427 0-1.5-.671573-1.5-1.5v-1 0c0-.276142-.223858-.5-.5-.5h-4l-2.18557e-08 4.44089e-16c-.276142 1.20706e-08-.5.223858-.5.5 0 0 0 0 0 0v1 0c0 .828427-.671573 1.5-1.5 1.5 -.828427 0-1.5-.671573-1.5-1.5v-1 0c0-.276142-.223858-.5-.5-.5Z"></path></g></svg>