<?xml version="1.0" encoding="utf-8"?>
<!-- Generator: Adobe Illustrator 24.0.0, SVG Export Plug-In . SVG Version: 6.00 Build 0)  -->
<svg version="1.1" id="Laag_1" xmlns="http://www.w3.org/2000/svg" xmlns:xlink="http://www.w3.org/1999/xlink" x="0px" y="0px"
	 viewBox="0 0 15 15" style="enable-background:new 0 0 15 15;" xml:space="preserve">
<style type="text/css">
	.st0{fill:none;stroke:#000000;stroke-width:1;stroke-linecap:round;stroke-linejoin:round;}
</style>
<g>
	<path class="st0" d="M3.8,5.8l-1.3,8.3c0,0.2,0.1,0.4,0.3,0.4c0,0,0,0,0.1,0h2.9v-2.3c0-0.9,0.7-1.7,1.7-1.7s1.7,0.7,1.7,1.7v2.3
		h2.9c0.2,0,0.3-0.1,0.3-0.3c0,0,0,0,0-0.1l-1.3-8.3"/>
	<path class="st0" d="M2.2,0.5C2,0.5,1.8,0.6,1.8,0.8v4c0,0.6,0.4,1,1,1h9.3c0.6,0,1-0.4,1-1v-4c0-0.2-0.1-0.3-0.3-0.3h-1.3
		c-0.2,0-0.3,0.1-0.3,0.3v0.7c0,0.6-0.4,1-1,1c-0.6,0-1-0.4-1-1V0.8c0-0.2-0.1-0.3-0.3-0.3H6.2C6,0.5,5.8,0.6,5.8,0.8v0.7
		c0,0.6-0.4,1-1,1s-1-0.4-1-1V0.8c0-0.2-0.1-0.3-0.3-0.3H2.2z"/>
</g>
</svg>
