<?xml version="1.0" encoding="utf-8"?>
<!-- Generator: Adobe Illustrator 24.0.0, SVG Export Plug-In . SVG Version: 6.00 Build 0)  -->
<svg version="1.1" id="Laag_1" xmlns="http://www.w3.org/2000/svg" xmlns:xlink="http://www.w3.org/1999/xlink" x="0px" y="0px"
	 viewBox="0 0 15 15" style="enable-background:new 0 0 15 15;" xml:space="preserve">
<style type="text/css">
	.st0{fill:none;stroke:#000000;stroke-width:1;stroke-linecap:round;stroke-linejoin:round;}
</style>
<g>
	<path class="st0" d="M12.1,5V2c0-0.2-0.1-0.3-0.3-0.3h-1.2c-0.2,0-0.3,0.1-0.3,0.3v1.3L7.7,0.9c-0.1-0.1-0.3-0.1-0.4,0L0.6,7.2
		c-0.1,0.1-0.1,0.3,0,0.4c0.1,0.1,0.1,0.1,0.2,0.1h1.5v5.8c0,0.3,0.3,0.6,0.6,0.6h9.1c0.3,0,0.6-0.3,0.6-0.6V7.7h1.5
		c0.2,0,0.3-0.1,0.3-0.3c0-0.1,0-0.2-0.1-0.2L12.1,5z"/>
</g>
</svg>
