<?xml version="1.0" encoding="UTF-8"?><svg version="1.1" viewBox="0 0 24 24" xmlns="http://www.w3.org/2000/svg" xmlns:xlink="http://www.w3.org/1999/xlink"><g stroke-linecap="round" stroke-width="1" stroke="#000" fill="none" stroke-linejoin="round"><path d="M3.5 10v12.5l1.06581e-14 1.50996e-07c8.33927e-08.552285.447715 1 1 1h15 -4.37114e-08c.552285 2.41411e-08 1-.447715 1-1v-12.5"></path><polyline points=".5,13 12,1.5 23.5,13"></polyline><path d="M10 15.5h4l-4.37114e-08 1.77636e-15c.552285-2.41411e-08 1 .447715 1 1v7h-6v-7l8.88178e-15-1.07284e-07c8.33927e-08-.552285.447715-1 1-1Z"></path><circle cx="12" cy="9.5" r="2"></circle></g></svg>