<?xml version="1.0" encoding="UTF-8"?><svg version="1.1" viewBox="0 0 24 24" xmlns="http://www.w3.org/2000/svg" xmlns:xlink="http://www.w3.org/1999/xlink"><path d="M19.5 8.4v-4.9 0c0-.276142-.223858-.5-.5-.5h-2 -2.18557e-08c-.276142 1.20706e-08-.5.223858-.5.5 0 0 0 0 0 0v2.14l-4.162-3.829 2.08903e-08 1.92686e-08c-.191491-.176625-.486509-.176625-.678-4.18063e-08l-11 10.321 -3.31879e-08 3.05262e-08c-.203242.186942-.216456.503249-.0295139.706491 .0950364.103323.229131.161934.369514.161509h2.5v9.5l1.06581e-14 1.50996e-07c8.33927e-08.552285.447715 1 1 1h15 -4.37114e-08c.552285 2.41411e-08 1-.447715 1-1v-9.5h2.5l-8.00257e-09-8.15525e-12c.276142.000281401.500228-.223348.500509-.49949 .000142701-.140034-.0584444-.27371-.161509-.36851Z" stroke-linecap="round" stroke-width="1" stroke="#000" fill="none" stroke-linejoin="round"></path></svg>