<?xml version="1.0" encoding="UTF-8"?><svg version="1.1" viewBox="0 0 24 24" xmlns="http://www.w3.org/2000/svg" xmlns:xlink="http://www.w3.org/1999/xlink"><g stroke-linecap="round" stroke-width="1" stroke="#000" fill="none" stroke-linejoin="round"><path d="M12.47 18.105l-4.227 4.227 -8.9386e-08 8.93394e-08c-1.55685 1.55604-4.08015 1.55604-5.637-1.78679e-07l-.939-.939 2.94922e-08 2.94989e-08c-1.55581-1.55617-1.55581-4.07883-5.89843e-08-5.635l6.106-6.107 1.09397e-08-1.0934e-08c1.55685-1.55604 4.08015-1.55604 5.637 2.1868e-08l.939.94"></path><path d="M11.53 5.893l4.227-4.226 -3.40412e-07 3.40577e-07c1.55586-1.55661 4.07903-1.55722 5.63564-.0013598 .000453149.00045293.000906188.000905969.00135912.00135912l.939.938 -1.0787e-07-1.07894e-07c1.55581 1.55617 1.55581 4.07883 2.1574e-07 5.635l-6.106 6.107 9.41301e-08-9.41755e-08c-1.55586 1.55661-4.07903 1.55722-5.63564.00135931 -.000453149-.00045293-.000906188-.000905969-.00135912-.00135912l-.939-.94"></path></g></svg>