<svg viewBox="0 0 24 24" xmlns="http://www.w3.org/2000/svg"><g stroke-linecap="round" stroke="#000" fill="none" stroke-linejoin="round"><path d="M14.8 12.56l.1.1 -.01-.01c.87.87 2.29.87 3.17 0L22.5 8.2l0-.01c1.3-1.32 1.3-3.45-.01-4.76l-1.98-1.98 0 0C19.19.14 17.06.14 15.75 1.44L11.3 5.88l0-.01c-.88.87-.88 2.29-.01 3.17l.1.1"/><path d="M9.2 11.43l-.1-.1 0 0c-.88-.88-2.3-.88-3.18-.01l-4.45 4.45 0-.01C.16 17.07.16 19.2 1.46 20.51l1.971 1.971 -.01-.01c1.31 1.31 3.44 1.31 4.75 0l4.44-4.45 0-.01c.87-.88.87-2.3 0-3.17 -.01-.01-.01-.01-.01-.01l-.1-.1"/><path d="M7.64 16.36l8.72-8.72"/></g></svg>