<?xml version="1.0" encoding="UTF-8"?><svg version="1.1" viewBox="0 0 24 24" xmlns="http://www.w3.org/2000/svg" xmlns:xlink="http://www.w3.org/1999/xlink"><g stroke-linecap="round" stroke-width="1" stroke="#000" fill="none" stroke-linejoin="round"><path d="M14.8 12.56l.1.1 -5.79991e-08-5.79961e-08c.875937.875892 2.29606.875892 3.172 1.16002e-07l4.446-4.45 2.27994e-07-2.29697e-07c1.30698-1.31674 1.30698-3.44126-4.53878e-07-4.758l-1.972-1.971 9.57215e-08 9.52524e-08c-1.3155-1.30905-3.4415-1.30905-4.757-1.90505e-07l-4.447 4.446 3.90833e-08-3.90853e-08c-.875892.875937-.875892 2.29606-7.81762e-08 3.172l.1.1"></path><path d="M9.2 11.438l-.1-.1 1.08415e-07 1.0841e-07c-.875937-.875892-2.29606-.875892-3.172-2.16829e-07l-4.447 4.45 9.70577e-08-9.76676e-08c-1.30807 1.31629-1.30807 3.44171-1.94115e-07 4.758l1.971 1.971 -2.66617e-07-2.65579e-07c1.31538 1.31026 3.44261 1.31026 4.758 5.31157e-07l4.446-4.446 1.52272e-09-1.52008e-09c.875924-.874406.877154-2.29333.0027486-3.16925 -.000915405-.000916994-.0018316-.00183319-.0027486-.0027486l-.1-.1"></path><line x1="7.64" x2="16.36" y1="16.36" y2="7.64"></line></g></svg>