<?xml version="1.0" encoding="utf-8"?>
<!-- Generator: Adobe Illustrator 24.0.0, SVG Export Plug-In . SVG Version: 6.00 Build 0)  -->
<svg version="1.1" id="Laag_1" xmlns="http://www.w3.org/2000/svg" xmlns:xlink="http://www.w3.org/1999/xlink" x="0px" y="0px"
	 viewBox="0 0 15 15" style="enable-background:new 0 0 15 15;" xml:space="preserve">
<style type="text/css">
	.st0{fill:none;stroke:#000000;stroke-width:1;stroke-linecap:round;stroke-linejoin:round;}
</style>
<g>
	<path class="st0" d="M9.2,7.8L9.2,7.8c0.6,0.6,1.5,0.6,2,0.1l2.7-2.7c0.8-0.8,0.8-2.1,0-2.9l-1.2-1.2c-0.8-0.8-2.1-0.8-2.9,0
		L7.1,3.8c-0.5,0.5-0.5,1.4,0,1.9l0.1,0.1"/>
	<path class="st0" d="M5.8,7.2L5.8,7.2c-0.6-0.6-1.5-0.6-2-0.1L1.1,9.8c-0.8,0.8-0.8,2.1,0,2.9l1.2,1.2c0.8,0.8,2.1,0.8,2.9,0
		l2.7-2.7c0.5-0.5,0.5-1.4,0-1.9c0,0,0,0,0,0L7.8,9.2"/>
	<line class="st0" x1="4.8" y1="10.2" x2="10.2" y2="4.8"/>
</g>
</svg>
