<?xml version="1.0" encoding="UTF-8"?><svg version="1.1" viewBox="0 0 24 24" xmlns="http://www.w3.org/2000/svg" xmlns:xlink="http://www.w3.org/1999/xlink"><g stroke-linecap="round" stroke-width="1" stroke="#000" fill="none" stroke-linejoin="round"><line x1="12" x2="12" y1=".5" y2="23.5"></line><line x1="2.04" x2="21.96" y1="6.25" y2="17.75"></line><line x1="2.04" x2="21.96" y1="17.75" y2="6.25"></line><polyline points="9.501,2.5 12.001,5 14.501,2.5"></polyline><polyline points="2.522,9.415 5.938,8.5 5.022,5.085"></polyline><polyline points="5.022,18.916 5.938,15.5 2.522,14.586"></polyline><polyline points="14.501,21.501 12,19 9.501,21.501"></polyline><polyline points="21.479,14.586 18.061,15.501 18.979,18.916"></polyline><polyline points="18.979,5.085 18.062,8.502 21.479,9.415"></polyline><line x1="10.5" x2="13.5" y1="7.5" y2="7.5"></line><line x1="7.35" x2="8.85" y1="11.05" y2="8.45"></line><line x1="8.85" x2="7.35" y1="15.55" y2="12.95"></line><line x1="13.5" x2="10.5" y1="16.5" y2="16.5"></line><line x1="16.65" x2="15.15" y1="12.95" y2="15.55"></line><line x1="15.15" x2="16.65" y1="8.45" y2="11.05"></line></g></svg>