<?xml version="1.0" encoding="UTF-8"?><svg version="1.1" viewBox="0 0 24 24" xmlns="http://www.w3.org/2000/svg" xmlns:xlink="http://www.w3.org/1999/xlink"><g stroke-linecap="round" stroke-width="1" stroke="#000" fill="none" stroke-linejoin="round"><circle cx="8.5" cy="9.5" r="2"></circle><path d="M13.924 12.178l-4.99448e-09-7.99122e-09c-.146354-.234169-.454829-.305356-.688998-.159002 -.0643856.0402407-.118761.0946163-.159002.159002l-2.639 4.222 -1.075-1.722 -4.99448e-09-7.99122e-09c-.146354-.234169-.454829-.305356-.688998-.159002 -.0643856.0402407-.118761.0946163-.159002.159002l-3.014 4.822h13Z"></path><path d="M21.207 4.5l-1.96434e-08-1.96375e-08c.187549.187493.292943.441805.293.707v17.293 0c0 .552285-.447715 1-1 1h-17 -4.37114e-08c-.552285-2.41411e-08-1-.447715-1-1 0 0 0-3.55271e-15 0-3.55271e-15v-21l1.24345e-14 1.50996e-07c-8.33927e-08-.552285.447715-1 1-1h13.293l1.02845e-08 2.1968e-12c.265195 5.66401e-05.519507.105451.707.293Z"></path></g></svg>