<?xml version="1.0" encoding="UTF-8"?><svg version="1.1" viewBox="0 0 24 24" xmlns="http://www.w3.org/2000/svg" xmlns:xlink="http://www.w3.org/1999/xlink"><g stroke-linecap="round" stroke-width="1" stroke="#000" fill="none" stroke-linejoin="round"><path d="M20.5 23.5h-4.37114e-08c.552285 2.41411e-08 1-.447715 1-1v-16.025 0c0-3.2999-2.6751-5.975-5.975-5.975h-12.025l-4.37114e-08 3.55271e-15c-.552285 2.41411e-08-1 .447715-1 1 0 0 0 0 0 0v21l1.15463e-14 1.50996e-07c8.33927e-08.552285.447715 1 1 1Z"></path><path d="M16.5.58v3.92l1.06581e-14 1.50996e-07c8.33927e-08.552285.447715 1 1 1h3.92"></path><path d="M8.5 12.5h-1.7l3.92806e-08 3.02631e-10c-.717949-.00553134-1.30445.571997-1.30998 1.28995 -.00340265.441653.217663.854823.586977 1.09705l1.84 1.226 -5.46728e-08-3.58633e-08c.600337.393798.76777 1.1997.373972 1.80004 -.241059.36749-.651476.5883-1.09097.58696h-1.7"></path><path d="M13.5 12.5v1.5 0c0 1.62278-.526334 3.20178-1.5 4.5l3.8485e-07 5.13133e-07c-.973666-1.29822-1.5-2.87722-1.5-4.5v-1.5"></path><path d="M18.5 14.5v-.5 0c0-.828427-.671573-1.5-1.5-1.5 -.828427 0-1.5.671573-1.5 1.5v3l1.77636e-14 2.26494e-07c1.25089e-07.828427.671573 1.5 1.5 1.5 .828427-1.25089e-07 1.5-.671573 1.5-1.5v-.5h-1"></path></g></svg>