<?xml version="1.0" encoding="UTF-8"?><svg version="1.1" viewBox="0 0 24 24" xmlns="http://www.w3.org/2000/svg" xmlns:xlink="http://www.w3.org/1999/xlink"><g stroke-linecap="round" stroke-width="1" stroke="#000" fill="none" stroke-linejoin="round"><circle cx="12" cy="12.001" r="11"></circle><path d="M14.5 17.005h-1.5 -4.37114e-08c-.552285-2.41411e-08-1-.447715-1-1 0 0 0-3.55271e-15 0-3.55271e-15v-6.5 0c0-.276142-.223858-.5-.5-.5h-1.5"></path><line x1="11.74" x2="11.74" y1="6.5" y2="6.5"></line><path d="M11.745 6.5h-1.09278e-08c-.138071 6.03528e-09-.25.111929-.25.25 6.03528e-09.138071.111929.25.25.25 .138071-6.03528e-09.25-.111929.25-.25v0c0-.138071-.111929-.25-.25-.25"></path></g></svg>