<svg viewBox="0 0 24 24" xmlns="http://www.w3.org/2000/svg"><g stroke-linecap="round" stroke="#000" fill="none" stroke-linejoin="round"><path d="M.5 3.5v-2l0 0C.49.94.94.49 1.49.49h2"/><path d="M23.5 3.5v-2 0c0-.56-.45-1-1-1h-2"/><path d="M.5 20.5v2l0 0c0 .55.44.99 1 .99h2"/><path d="M23.5 20.5v2 0c0 .55-.45 1-1 1h-2"/><path d="M12 8.5a3.5 3.5 0 1 0 0 7 3.5 3.5 0 1 0 0-7Z"/><path d="M12 11.75h-.01c.13-.01.25.11.25.24s-.12.25-.25.25c-.14 0-.25-.12-.26-.25l0 0c-.01-.14.11-.26.24-.26"/><path d="M21.85 12s-4.29 6-9.86 6c-5.58 0-9.86-6-9.86-6s4.28-6 9.85-6c5.57 0 9.85 6 9.85 6Z"/></g></svg>