<?xml version="1.0" encoding="UTF-8"?><svg version="1.1" viewBox="0 0 24 24" xmlns="http://www.w3.org/2000/svg" xmlns:xlink="http://www.w3.org/1999/xlink"><g stroke-linecap="round" stroke-width="1" stroke="#000" fill="none" stroke-linejoin="round"><rect width="23" height="10" x=".5" y="13.5" rx="1.10456" ry="0"></rect><path d="M3.5 13.5v-1l3.55271e-14 4.52987e-07c-2.50178e-07-1.65685 1.34315-3 3-3h13.5l-1.5299e-07-3.55271e-15c1.933 8.4494e-08 3.5-1.567 3.5-3.5 8.4494e-08-1.933-1.567-3.5-3.5-3.5h-6.5l-6.55671e-08-1.77636e-15c-.828427-3.62117e-08-1.5-.671573-1.5-1.5 0 0 0-3.73035e-14 0-3.73035e-14v-.5"></path><line x1="4" x2="5" y1="20.5" y2="20.5"></line><line x1="4" x2="5" y1="18.5" y2="18.5"></line><line x1="7" x2="8" y1="18.5" y2="18.5"></line><line x1="10" x2="11" y1="18.5" y2="18.5"></line><line x1="13" x2="14" y1="18.5" y2="18.5"></line><line x1="16" x2="17" y1="18.5" y2="18.5"></line><line x1="19" x2="20" y1="18.5" y2="18.5"></line><line x1="4" x2="5" y1="16.5" y2="16.5"></line><line x1="7" x2="8" y1="16.5" y2="16.5"></line><line x1="10" x2="11" y1="16.5" y2="16.5"></line><line x1="13" x2="14" y1="16.5" y2="16.5"></line><line x1="16" x2="17" y1="16.5" y2="16.5"></line><line x1="19" x2="20" y1="16.5" y2="16.5"></line><line x1="7" x2="17" y1="20.5" y2="20.5"></line><line x1="19" x2="20" y1="20.5" y2="20.5"></line></g></svg>