<svg viewBox="0 0 24 24" xmlns="http://www.w3.org/2000/svg"><g stroke-linecap="round" stroke="#000" fill="none" stroke-linejoin="round"><rect width="23" height="10" x=".5" y="13.5" rx="2"/><path d="M3.5 13.5v-1l0 0c-.01-1.66 1.34-3.01 2.99-3.01h13.5l-.01-.001c1.93 0 3.5-1.57 3.5-3.5 0-1.94-1.57-3.5-3.5-3.51h-6.5l-.01-.001c-.83-.01-1.5-.68-1.5-1.5 0 0 0-.001 0-.001v-.5"/><path d="M4 20.5l1 0"/><path d="M4 18.5l1 0"/><path d="M7 18.5l1 0"/><path d="M10 18.5l1 0"/><path d="M13 18.5l1 0"/><path d="M16 18.5l1 0"/><path d="M19 18.5l1 0"/><path d="M4 16.5l1 0"/><path d="M7 16.5l1 0"/><path d="M10 16.5l1 0"/><path d="M13 16.5l1 0"/><path d="M16 16.5l1 0"/><path d="M19 16.5l1 0"/><path d="M7 20.5l10 0"/><path d="M19 20.5l1 0"/></g></svg>