<?xml version="1.0" encoding="utf-8"?>
<!-- Generator: Adobe Illustrator 24.0.0, SVG Export Plug-In . SVG Version: 6.00 Build 0)  -->
<svg version="1.1" id="Laag_1" xmlns="http://www.w3.org/2000/svg" xmlns:xlink="http://www.w3.org/1999/xlink" x="0px" y="0px"
	 viewBox="0 0 15 15" style="enable-background:new 0 0 15 15;" xml:space="preserve">
<style type="text/css">
	.st0{fill:none;stroke:#000000;stroke-width:1;stroke-linecap:round;stroke-linejoin:round;}
</style>
<g>
	<path class="st0" d="M1.7,8.4h11.6c0.7,0,1.2,0.5,1.2,1.2v3.7c0,0.7-0.5,1.2-1.2,1.2H1.7c-0.7,0-1.2-0.5-1.2-1.2V9.6
		C0.5,9,1,8.4,1.7,8.4z"/>
	<path class="st0" d="M2.3,8.4V7.8c0-1,0.8-1.8,1.8-1.8h8.2c1.2,0,2.1-1,2.1-2.1s-1-2.1-2.1-2.1h-4c-0.5,0-0.9-0.4-0.9-0.9V0.5"/>
	<line class="st0" x1="2.6" y1="12.7" x2="3.2" y2="12.7"/>
	<line class="st0" x1="2.6" y1="11.5" x2="3.2" y2="11.5"/>
	<line class="st0" x1="4.5" y1="11.5" x2="5.1" y2="11.5"/>
	<line class="st0" x1="6.3" y1="11.5" x2="6.9" y2="11.5"/>
	<line class="st0" x1="8.1" y1="11.5" x2="8.7" y2="11.5"/>
	<line class="st0" x1="9.9" y1="11.5" x2="10.5" y2="11.5"/>
	<line class="st0" x1="11.8" y1="11.5" x2="12.4" y2="11.5"/>
	<line class="st0" x1="2.6" y1="10.2" x2="3.2" y2="10.2"/>
	<line class="st0" x1="4.5" y1="10.2" x2="5.1" y2="10.2"/>
	<line class="st0" x1="6.3" y1="10.2" x2="6.9" y2="10.2"/>
	<line class="st0" x1="8.1" y1="10.2" x2="8.7" y2="10.2"/>
	<line class="st0" x1="9.9" y1="10.2" x2="10.5" y2="10.2"/>
	<line class="st0" x1="11.8" y1="10.2" x2="12.4" y2="10.2"/>
	<line class="st0" x1="4.5" y1="12.7" x2="10.5" y2="12.7"/>
	<line class="st0" x1="11.8" y1="12.7" x2="12.4" y2="12.7"/>
</g>
</svg>
