<?xml version="1.0" encoding="UTF-8"?><svg version="1.1" viewBox="0 0 24 24" xmlns="http://www.w3.org/2000/svg" xmlns:xlink="http://www.w3.org/1999/xlink"><g stroke-linecap="round" stroke-width="1" stroke="#000" fill="none" stroke-linejoin="round"><path d="M5 23.5v-5h-1 -4.37114e-08c-.552285 2.41411e-08-1 .447715-1 1 0 0 0 3.55271e-15 0 3.55271e-15v4"></path><path d="M10.5 4.177v-1.177l1.77636e-14 2.26494e-07c-1.25089e-07-.828427.671573-1.5 1.5-1.5v0l-1.78873e-08 2.44249e-15c.828427-1.34968e-07 1.5.671573 1.5 1.5 1.24345e-14 7.64678e-08 1.77636e-14 1.50026e-07 1.95399e-14 2.26494e-07v1.177"></path><line x1="12" x2="12" y1="1.5" y2=".5"></line><line x1="11" x2="11" y1="12.5" y2="20.5"></line><line x1="13" x2="13" y1="12.5" y2="20.5"></line><line x1="7" x2="7" y1="16.5" y2="20.5"></line><path d="M10 6.03v-.53l2.30926e-14 3.01992e-07c-1.66785e-07-1.10457.89543-2 2-2 1.10457-1.66785e-07 2 .89543 2 2 0 0 0 1.77636e-15 0 1.77636e-15v.535"></path><path d="M8 14.5v-5l4.61853e-14 6.03983e-07c-3.33571e-07-2.20914 1.79086-4 4-4 2.20914-3.33571e-07 4 1.79086 4 4 0 0 0 3.55271e-15 0 3.55271e-15v5"></path><path d="M8 10.5h2v-1l2.30926e-14 3.01992e-07c-1.66785e-07-1.10457.89543-2 2-2 1.10457-1.66785e-07 2 .89543 2 2 0 0 0 1.77636e-15 0 1.77636e-15v1h2"></path><path d="M5 23.5v-8l1.15463e-14 1.50996e-07c-8.33927e-08-.552285.447715-1 1-1h2l-4.37114e-08 1.77636e-15c.552285-2.41411e-08 1 .447715 1 1v8"></path><path d="M19 23.5v-5h1 -4.37114e-08c.552285-2.41411e-08 1 .447715 1 1v4"></path><line x1="17" x2="17" y1="16.5" y2="20.5"></line><path d="M19 23.5v-8 0c0-.552285-.447715-1-1-1h-2l-4.37114e-08 1.77636e-15c-.552285 2.41411e-08-1 .447715-1 1 0 0 0 0 0 0v8"></path></g></svg>