<?xml version="1.0" encoding="utf-8"?>
<!-- Generator: Adobe Illustrator 24.0.0, SVG Export Plug-In . SVG Version: 6.00 Build 0)  -->
<svg version="1.1" id="Laag_1" xmlns="http://www.w3.org/2000/svg" xmlns:xlink="http://www.w3.org/1999/xlink" x="0px" y="0px"
	 viewBox="0 0 15 15" style="enable-background:new 0 0 15 15;" xml:space="preserve">
<style type="text/css">
	.st0{fill:none;stroke:#000000;stroke-width:1;stroke-linecap:round;stroke-linejoin:round;}
</style>
<g>
	<path class="st0" d="M3.2,14.5v-3H2.6c-0.3,0-0.6,0.3-0.6,0.6v2.4"/>
	<path class="st0" d="M6.6,2.7V2c0-0.5,0.4-0.9,0.9-0.9l0,0C8,1.1,8.4,1.5,8.4,2v0.7"/>
	<line class="st0" x1="7.5" y1="1.1" x2="7.5" y2="0.5"/>
	<line class="st0" x1="6.9" y1="7.8" x2="6.9" y2="12.7"/>
	<line class="st0" x1="8.1" y1="7.8" x2="8.1" y2="12.7"/>
	<line class="st0" x1="4.5" y1="10.2" x2="4.5" y2="12.7"/>
	<path class="st0" d="M6.3,3.9V3.5c0-0.7,0.5-1.2,1.2-1.2s1.2,0.5,1.2,1.2v0.3"/>
	<path class="st0" d="M5.1,9V6c0-1.3,1.1-2.4,2.4-2.4S9.9,4.6,9.9,6v3"/>
	<path class="st0" d="M5.1,6.6h1.2V6c0-0.7,0.5-1.2,1.2-1.2S8.7,5.3,8.7,6v0.6h1.2"/>
	<path class="st0" d="M3.2,14.5V9.6C3.2,9.3,3.5,9,3.8,9h1.2c0.3,0,0.6,0.3,0.6,0.6v4.9"/>
	<path class="st0" d="M11.8,14.5v-3h0.6c0.3,0,0.6,0.3,0.6,0.6v2.4"/>
	<line class="st0" x1="10.5" y1="10.2" x2="10.5" y2="12.7"/>
	<path class="st0" d="M11.8,14.5V9.6c0-0.3-0.3-0.6-0.6-0.6H9.9C9.6,9,9.3,9.3,9.3,9.6v4.9"/>
</g>
</svg>
