<?xml version="1.0" encoding="utf-8"?>
<!-- Generator: Adobe Illustrator 24.0.0, SVG Export Plug-In . SVG Version: 6.00 Build 0)  -->
<svg version="1.1" id="Laag_1" xmlns="http://www.w3.org/2000/svg" xmlns:xlink="http://www.w3.org/1999/xlink" x="0px" y="0px"
	 viewBox="0 0 15 15" style="enable-background:new 0 0 15 15;" xml:space="preserve">
<style type="text/css">
	.st0{fill:none;stroke:#000000;stroke-width:1;stroke-linecap:round;stroke-linejoin:round;}
</style>
<g>
	<path class="st0" d="M3.5,0.8h7.9c0.7,0,1.2,0.5,1.2,1.2v4.9c0,0.7-0.5,1.2-1.2,1.2H3.5c-0.7,0-1.2-0.5-1.2-1.2V2
		C2.3,1.3,2.9,0.8,3.5,0.8z"/>
	<path class="st0" d="M14.5,13.2c0.1,0.4-0.1,0.9-0.5,1c-0.1,0-0.2,0-0.3,0H1.3c-0.4,0-0.8-0.3-0.8-0.8c0-0.1,0-0.2,0-0.3l1.4-3.9
		c0.2-0.7,0.9-1.1,1.6-1.1h7.9c0.7,0,1.4,0.5,1.6,1.1L14.5,13.2z"/>
	<polygon class="st0" points="9.6,14.2 5.4,14.2 6,12.4 9,12.4 	"/>
	<line class="st0" x1="3.5" y1="9.9" x2="4.1" y2="9.9"/>
	<line class="st0" x1="5.4" y1="9.9" x2="6" y2="9.9"/>
	<line class="st0" x1="9" y1="9.9" x2="9.6" y2="9.9"/>
	<line class="st0" x1="10.8" y1="9.9" x2="11.5" y2="9.9"/>
	<line class="st0" x1="7.2" y1="9.9" x2="7.8" y2="9.9"/>
	<line class="st0" x1="2.9" y1="11.2" x2="3.5" y2="11.2"/>
	<line class="st0" x1="4.8" y1="11.2" x2="10.2" y2="11.2"/>
	<line class="st0" x1="11.5" y1="11.2" x2="12.1" y2="11.2"/>
</g>
</svg>
