<svg viewBox="0 0 24 24" xmlns="http://www.w3.org/2000/svg"><g stroke-linecap="round" stroke="#000" fill="none" stroke-linejoin="round"><rect width="17" height="12" x="3.5" y="1" rx="2"/><path d="M23.427 21.293l0 0c.23.66-.12 1.39-.79 1.63 -.14.04-.29.07-.43.07H1.76l-.01-.001c-.71-.01-1.29-.58-1.29-1.29 0-.15.02-.29.07-.43l2.26-6.407 0-.01c.39-1.14 1.46-1.89 2.66-1.89h13l-.01 0c1.19-.01 2.26.75 2.66 1.88Z"/><path d="M15.5 23l-7 0 1-3 5 0 1 3Z"/><path d="M5.49 16l1 0"/><path d="M8.49 16l1 0"/><path d="M14.49 16l1 0"/><path d="M17.5 16l1 0"/><path d="M11.49 16l1 0"/><path d="M4.49 18l1 0"/><path d="M7.49 18l9.01 0"/><path d="M18.5 18l1 0"/></g></svg>