<?xml version="1.0" encoding="UTF-8"?><svg version="1.1" viewBox="0 0 24 24" xmlns="http://www.w3.org/2000/svg" xmlns:xlink="http://www.w3.org/1999/xlink"><g stroke-linecap="round" stroke-width="1" stroke="#000" fill="none" stroke-linejoin="round"><rect width="17" height="12" x="3.5" y="1" rx="1.10456" ry="0"></rect><path d="M23.427 21.293l6.0402e-08 1.71294e-07c.235273.667211-.114881 1.39882-.782092 1.63409 -.136817.0482446-.280835.0728981-.425909.0729085h-20.438l-5.8657e-08-4.1922e-12c-.707477-5.05493e-05-1.28096-.573615-1.28091-1.28109 1.03655e-05-.145074.0246639-.289092.0729086-.425909l2.261-6.407 5.27098e-08-1.49323e-07c.398978-1.13028 1.46737-1.88609 2.666-1.886h13l-1.54713e-08 3.41238e-12c1.19845-.000264356 2.26665.755688 2.665 1.886Z"></path><polygon points="15.5,23 8.5,23 9.5,20 14.5,20 15.5,23"></polygon><line x1="5.49" x2="6.49" y1="16" y2="16"></line><line x1="8.49" x2="9.49" y1="16" y2="16"></line><line x1="14.49" x2="15.49" y1="16" y2="16"></line><line x1="17.5" x2="18.5" y1="16" y2="16"></line><line x1="11.49" x2="12.49" y1="16" y2="16"></line><line x1="4.49" x2="5.49" y1="18" y2="18"></line><line x1="7.49" x2="16.5" y1="18" y2="18"></line><line x1="18.5" x2="19.5" y1="18" y2="18"></line></g></svg>