<svg viewBox="0 0 24 24" xmlns="http://www.w3.org/2000/svg"><g stroke-linecap="round" stroke="#000" fill="none" stroke-linejoin="round"><path d="M22.5 10.5l-10.3 4.913 0-.01c-.13.05-.28.05-.4 0l-10.3-4.92"/><path d="M22.5 13.5l-10.3 4.913 0-.01c-.13.05-.28.05-.4 0L1.5 13.48"/><path d="M22.5 16.5l-10.3 4.913 0-.01c-.13.05-.28.05-.4 0L1.5 16.48"/><path d="M12.2 12.413l0-.01c-.13.05-.28.05-.4 0L1.55 7.94l0 0c-.26-.12-.37-.41-.26-.66 .05-.12.14-.21.25-.26l10.24-4.46 0-.01c.12-.06.27-.06.4 0L22.42 7l-.01-.01c.25.11.36.4.25.65 -.06.11-.15.2-.26.25Z"/></g></svg>