<svg viewBox="0 0 24 24" xmlns="http://www.w3.org/2000/svg"><g stroke-linecap="round" stroke="#000" fill="none" stroke-linejoin="round"><path d="M23.5 5.5v0c0 .55-.45 1-1 1h-21l-.01-.001c-.56-.01-1-.45-1-1.01 0 0 0 0 0 0v-3l0 0c-.01-.56.44-1.01.99-1.01h21l-.01 0c.55-.01 1 .44 1 .99Z"/><path d="M23.5 13.5v0c0 .55-.45 1-1 1h-21l-.01-.001c-.56-.01-1-.45-1-1.01 0 0 0 0 0 0v-3l0 0c-.01-.56.44-1.01.99-1.01h21l-.01 0c.55-.01 1 .44 1 .99Z"/><path d="M23.5 21.5v0c0 .55-.45 1-1 1h-21 -.01c-.56-.01-1-.45-1-1.01 0 0 0-.001 0-.001v-3l0 0c-.01-.56.44-1.01.99-1.01h21 -.01c.55-.01 1 .44 1 .99Z"/></g></svg>