<svg viewBox="0 0 24 24" xmlns="http://www.w3.org/2000/svg"><g stroke-linecap="round" stroke="#000" fill="none" stroke-linejoin="round"><path d="M10.5 9.5v0c0 .55-.45 1-1 1h-8 -.01c-.56-.01-1-.45-1-1.01 0 0 0 0 0 0v-8l0 0C.48.93.93.48 1.48.48h8l-.01 0c.55-.01 1 .44 1 .99Z"/><path d="M23.5 9.5v0c0 .55-.45 1-1 1h-8 -.01c-.56-.01-1-.45-1-1.01 0 0 0 0 0 0v-8l0 0c-.01-.56.44-1.01.99-1.01h8l-.01 0c.55-.01 1 .44 1 .99Z"/><path d="M10.5 22.5v0c0 .55-.45 1-1 1h-8 -.01c-.56-.01-1-.45-1-1.01 0 0 0-.001 0-.001v-8l0 0c-.01-.56.44-1.01.99-1.01h8l-.01 0c.55-.01 1 .44 1 .99Z"/><path d="M23.5 22.5v0c0 .55-.45 1-1 1h-8 -.01c-.56-.01-1-.45-1-1.01 0 0 0-.001 0-.001v-8l0 0c-.01-.56.44-1.01.99-1.01h8l-.01 0c.55-.01 1 .44 1 .99Z"/></g></svg>