<svg viewBox="0 0 24 24" xmlns="http://www.w3.org/2000/svg"><g stroke-linecap="round" stroke="#000" fill="none" stroke-linejoin="round"><path d="M12 3.5L12 22"/><path d="M1 16l3.5-7.465L8 16"/><path d="M4.5 19.5l0 0c1.88.04 3.45-1.45 3.49-3.33 0-.06 0-.12-.01-.18h-7l0-.01c-.05 1.88 1.44 3.45 3.32 3.5 .05 0 .11 0 .17 0Z"/><path d="M23 10L19.5 2.41 16 10"/><path d="M19.5 13.5l-.01 0c-1.89.04-3.46-1.45-3.5-3.33 -.01-.06-.01-.12 0-.18h7l-.01-.01c.04 1.88-1.45 3.45-3.33 3.5 -.06 0-.12 0-.18 0Z"/><path d="M13.49 4.89L20.5 2"/><path d="M2.45 9.36l11.04-4.47"/><path d="M7.5 22l9 0"/></g></svg>