<svg viewBox="0 0 24 24" xmlns="http://www.w3.org/2000/svg"><g stroke-linecap="round" stroke="#000" fill="none" stroke-linejoin="round"><path d="M13.51 23.5l-3 0"/><path d="M14.51 21.5l-5 0"/><path d="M12.01.5l0 3"/><path d="M3.53 4.01l2.12 2.13"/><path d="M20.5 4.01l-2.12 2.13"/><path d="M.51 12.5l3 0"/><path d="M23.51 12.5l-3 0"/><path d="M18.01 12.5l0-.01c0-3.32-2.68-6.01-6-6.01C8.69 6.47 6 9.15 6 12.47c-.01 1.96.95 3.8 2.57 4.93l0 0c.26.18.42.49.42.82v.76l0 0c0 .27.22.49.5.49h5 -.01c.27 0 .5-.23.5-.5v-.77l-.01-.01c-.01-.33.16-.64.42-.83l0-.01c1.61-1.12 2.57-2.96 2.57-4.92Z"/></g></svg>