<svg viewBox="0 0 24 24" xmlns="http://www.w3.org/2000/svg"><g stroke-linecap="round" stroke="#000" fill="none" stroke-linejoin="round"><path d="M.5 8.37h2l-.01 0c.55-.01 1 .44 1 .99v12 0c0 .55-.45 1-1 1h-2"/><path d="M3.5 19.372c7.339 3.72 6.98 3.23 13.265 3.23 2.63 0 3.95-1.72 4.73-4.23v-.02l1.9-6.4v-.02l-.01 0c.31-1.06-.28-2.18-1.34-2.5 -.19-.06-.38-.09-.57-.09h-4.9l0-.001c-1.11 0-2.01-.9-2.01-2 -.01-.18.02-.35.06-.52l.88-3.35 0-.01c.24-.92-.31-1.86-1.23-2.1 -.7-.19-1.43.08-1.84.67l-4.89 6.92 -.01 0c-.38.53-.99.84-1.64.84H3.42"/></g></svg>