<?xml version="1.0" encoding="utf-8"?>
<!-- Generator: Adobe Illustrator 24.0.0, SVG Export Plug-In . SVG Version: 6.00 Build 0)  -->
<svg version="1.1" id="Laag_1" xmlns="http://www.w3.org/2000/svg" xmlns:xlink="http://www.w3.org/1999/xlink" x="0px" y="0px"
	 viewBox="0 0 15 15" style="enable-background:new 0 0 15 15;" xml:space="preserve">
<style type="text/css">
	.st0{fill:none;stroke:#000000;stroke-width:1;stroke-linecap:round;stroke-linejoin:round;}
</style>
<g>
	<path class="st0" d="M0.5,5.3h1.2c0.3,0,0.6,0.3,0.6,0.6v7.3c0,0.3-0.3,0.6-0.6,0.6H0.5"/>
	<path class="st0" d="M2.3,12c4.5,2.3,4.3,2,8.1,2c1.6,0,2.4-1,2.9-2.6v0l1.2-3.9v0c0.2-0.6-0.2-1.3-0.8-1.5c-0.1,0-0.2-0.1-0.3-0.1
		h-3c-0.7,0-1.2-0.5-1.2-1.2c0-0.1,0-0.2,0-0.3l0.5-2c0.1-0.6-0.2-1.1-0.7-1.3C8.5,1,8.1,1.1,7.8,1.5l-3,4.2C4.6,6,4.2,6.2,3.8,6.2
		H2.3"/>
</g>
</svg>
