<?xml version="1.0" encoding="UTF-8"?><svg version="1.1" viewBox="0 0 24 24" xmlns="http://www.w3.org/2000/svg" xmlns:xlink="http://www.w3.org/1999/xlink"><g stroke-linecap="round" stroke-width="1" stroke="#000" fill="none" stroke-linejoin="round"><path d="M.5 8.372h2l-4.37114e-08 1.77636e-15c.552285-2.41411e-08 1 .447715 1 1v12 0c0 .552285-.447715 1-1 1h-2"></path><path d="M3.5 19.372c7.339 3.726 6.981 3.235 13.265 3.235 2.632 0 3.958-1.715 4.732-4.228v-.016l1.907-6.4v-.012l-4.37447e-08 1.44626e-07c.319788-1.05727-.278056-2.17359-1.33532-2.49337 -.184445-.0557885-.375984-.0846283-.568679-.0856253h-4.9l3.48815e-08-2.05702e-12c-1.10457 6.51308e-05-2.00005-.895313-2.00012-1.99988 -1.01524e-05-.172176.0222129-.343633.0661179-.510118l.882-3.344 2.83814e-08-1.07937e-07c.240584-.914962-.306107-1.85172-1.22107-2.0923 -.693696-.182404-1.42758.0866986-1.83893.674302l-4.888 6.925 -5.67274e-08 8.0402e-08c-.374688.531061-.984064.846937-1.634.847h-2.466"></path></g></svg>