<?xml version="1.0" encoding="UTF-8"?><svg version="1.1" viewBox="0 0 24 24" xmlns="http://www.w3.org/2000/svg" xmlns:xlink="http://www.w3.org/1999/xlink"><g stroke-linecap="round" stroke-width="1" stroke="#000" fill="none" stroke-linejoin="round"><line x1="6.5" x2="23.5" y1="4.5" y2="4.5"></line><line x1="6.5" x2="23.5" y1="12.5" y2="12.5"></line><line x1="6.5" x2="23.5" y1="20.5" y2="20.5"></line><path d="M.5 19.239l-4.29627e-08 1.58902e-07c.144146-.533142.693197-.848485 1.22634-.704339 .533142.144146.848485.693197.704339 1.22634 -.117847.43587-.513157.738701-.964677.739l1.60117e-09 3.69127e-12c.552283.00127268.998966.450018.997693 1.0023 -.00127268.552283-.450018.998966-1.0023.997693 -.448598-.00103375-.841614-.300681-.961391-.732995"></path><path d="M.5 11.5l1.14353e-14 1.50996e-07c-8.33927e-08-.552285.447715-1 1-1v0l-4.37114e-08 1.77636e-15c.552285-2.41411e-08 1 .447715 1 1 0 0 0 0 0 0v0l2.58118e-09 8.58595e-05c0 .323782-.110034.637953-.312054.890981l-1.68795 2.10893h2"></path><path d="M.5 2.5h.5l-2.18557e-08 4.44089e-16c.276142-1.20706e-08.5.223858.5.5v3.5"></path><line x1=".5" x2="2.5" y1="6.5" y2="6.5"></line></g></svg>