<svg viewBox="0 0 24 24" xmlns="http://www.w3.org/2000/svg"><g stroke-linecap="round" stroke="#000" fill="none" stroke-linejoin="round"><path d="M6.5 4.5l17 0"/><path d="M6.5 12.5l17 0"/><path d="M6.5 20.5l17 0"/><path d="M.5 19.239l-.01 0c.14-.54.69-.85 1.22-.71s.84.69.7 1.22c-.12.43-.52.73-.97.73l0 0c.55 0 .99.45.99 1 -.01.55-.46.99-1.01.99 -.45-.01-.85-.31-.97-.74"/><path d="M.5 11.5l0 0c-.01-.56.44-1.01.99-1.01v0l-.01 0c.55-.01 1 .44 1 .99 0 0 0 0 0 0v0l0 0c0 .32-.12.63-.32.89l-1.69 2.1h2"/><path d="M.5 2.5H1l-.01 0c.27-.01.5.22.5.49v3.5"/><path d="M.5 6.5l2 0"/></g></svg>