<?xml version="1.0" encoding="utf-8"?>
<!-- Generator: Adobe Illustrator 24.0.0, SVG Export Plug-In . SVG Version: 6.00 Build 0)  -->
<svg version="1.1" id="Laag_1" xmlns="http://www.w3.org/2000/svg" xmlns:xlink="http://www.w3.org/1999/xlink" x="0px" y="0px"
	 viewBox="0 0 15 15" style="enable-background:new 0 0 15 15;" xml:space="preserve">
<style type="text/css">
	.st0{fill:none;stroke:#000000;stroke-width:1;stroke-linecap:round;stroke-linejoin:round;}
</style>
<g>
	<line class="st0" x1="4.2" y1="2.6" x2="14.5" y2="2.6"/>
	<line class="st0" x1="4.2" y1="7.5" x2="14.5" y2="7.5"/>
	<line class="st0" x1="4.2" y1="12.4" x2="14.5" y2="12.4"/>
	<path class="st0" d="M0.5,11.6c0.1-0.3,0.4-0.5,0.7-0.4c0.3,0.1,0.5,0.4,0.4,0.7c-0.1,0.3-0.3,0.4-0.6,0.4c0.3,0,0.6,0.3,0.6,0.6
		c0,0.3-0.3,0.6-0.6,0.6c-0.3,0-0.5-0.2-0.6-0.4"/>
	<path class="st0" d="M0.5,6.9c0-0.3,0.3-0.6,0.6-0.6l0,0c0.3,0,0.6,0.3,0.6,0.6l0,0c0,0.2-0.1,0.4-0.2,0.5l-1,1.3h1.2"/>
	<path class="st0" d="M0.5,1.4h0.3c0.2,0,0.3,0.1,0.3,0.3v2.1"/>
	<line class="st0" x1="0.5" y1="3.8" x2="1.7" y2="3.8"/>
</g>
</svg>
