<?xml version="1.0" encoding="UTF-8"?><svg version="1.1" viewBox="0 0 24 24" xmlns="http://www.w3.org/2000/svg" xmlns:xlink="http://www.w3.org/1999/xlink"><g stroke-linecap="round" stroke-width="1" stroke="#000" fill="none" stroke-linejoin="round"><path d="M16.019 18.067c1.8.317 2.981.841 2.981 1.433 0 .967-3.135 1.75-7 1.75 -3.865 0-7-.783-7-1.75 0-.593 1.184-1.118 2.993-1.435"></path><path d="M16 16c4.377.566 7.5 2.033 7.5 3.752 0 2.209-5.149 4-11.5 4 -6.351 0-11.5-1.793-11.5-4.002 0-1.719 3.12-3.186 7.5-3.75"></path></g><circle cx="12" cy="3.5" r="2.75" fill="none" stroke="#000" stroke-linejoin="round" stroke-width="1"></circle><path d="M15.5 10.75v0c0-1.933-1.567-3.5-3.5-3.5 -1.933 0-3.5 1.567-3.5 3.5v3h1.583l.417 5h3l.417-5h1.583Z" stroke-width="1" stroke="#000" fill="none" stroke-linejoin="round"></path></svg>