<svg viewBox="0 0 24 24" xmlns="http://www.w3.org/2000/svg"><g stroke-linecap="round" stroke="#000" fill="none" stroke-linejoin="round"><path d="M16.01 18.067c1.8.31 2.98.84 2.98 1.43 0 .96-3.135 1.75-7 1.75s-7-.79-7-1.75c0-.593 1.18-1.12 2.99-1.44"/><path d="M16 16c4.37.56 7.5 2.03 7.5 3.75 0 2.2-5.15 4-11.5 4 -6.36 0-11.5-1.8-11.5-4.01 0-1.72 3.12-3.186 7.5-3.75"/></g><g stroke="#000" fill="none" stroke-linejoin="round"><path d="M12 .75a2.75 2.75 0 1 0 0 5.5 2.75 2.75 0 1 0 0-5.5Z"/><path d="M15.5 10.75v0c0-1.94-1.57-3.5-3.5-3.5 -1.94 0-3.5 1.56-3.5 3.5v3h1.58l.41 5h3l.41-5h1.58Z"/></g></svg>