<?xml version="1.0" encoding="UTF-8"?><svg version="1.1" viewBox="0 0 24 24" xmlns="http://www.w3.org/2000/svg" xmlns:xlink="http://www.w3.org/1999/xlink"><g stroke-linecap="round" stroke-width="1" stroke="#000" fill="none" stroke-linejoin="round"><path d="M6.5 6l6.30607e-14 8.30477e-07c-4.5866e-07-3.03757 2.46243-5.5 5.5-5.5 3.03757-4.5866e-07 5.5 2.46243 5.5 5.5 0 0 0 5.32907e-15 0 5.32907e-15v3.5"></path><path d="M20.5 11.5v0c0-1.10457-.895431-2-2-2h-13l-8.74228e-08 1.77636e-15c-1.10457 4.82823e-08-2 .895431-2 2 0 0 0 0 0 0v10l2.30926e-14 3.01992e-07c1.66785e-07 1.10457.895431 2 2 2h13l-8.74228e-08-3.55271e-15c1.10457 4.82823e-08 2-.89543 2-2Z"></path><circle cx="12" cy="16.5" r="1.25"></circle></g></svg>