<?xml version="1.0" encoding="UTF-8"?><svg version="1.1" viewBox="0 0 24 24" xmlns="http://www.w3.org/2000/svg" xmlns:xlink="http://www.w3.org/1999/xlink"><g stroke-linecap="round" stroke-width="1" stroke="#000" fill="none" stroke-linejoin="round"><line x1="11.5" x2="23.5" y1="12" y2="12"></line><polyline points="15.5,8 11.5,12 15.5,16"></polyline><path d="M9.5 2.5h7.5l-2.18557e-08 4.44089e-16c.276142-1.20706e-08.5.223858.5.5v2.5"></path><path d="M17.5 18.5v2.5 0c0 .276142-.223858.5-.5.5h-7.5"></path><path d="M.5 21.223l-8.86502e-09-2.39997e-05c8.0976e-05.234454.16306.437366.391977.488019l8 1.777 -4.57225e-08-1.01171e-08c.269621.0596597.536555-.110547.596215-.380168 .00783476-.0354077.0117942-.0715627.0118085-.107827v-22l8.87799e-09 2.40396e-05c-9.53428e-05-.276142-.22403-.499923-.500173-.499827 -.0362561 1.2518e-05-.0724033.00396848-.107804.0117981l-8 1.778 -4.71597e-09 1.04304e-09c-.228931.050633-.391931.253542-.392023.488005Z"></path><circle cx="6" cy="12" r="1.5"></circle></g></svg>