<?xml version="1.0" encoding="utf-8"?>
<!-- Generator: Adobe Illustrator 24.0.0, SVG Export Plug-In . SVG Version: 6.00 Build 0)  -->
<svg version="1.1" id="Laag_1" xmlns="http://www.w3.org/2000/svg" xmlns:xlink="http://www.w3.org/1999/xlink" x="0px" y="0px"
	 viewBox="0 0 15 15" style="enable-background:new 0 0 15 15;" xml:space="preserve">
<style type="text/css">
	.st0{fill:none;stroke:#000000;stroke-width:1;stroke-linecap:round;stroke-linejoin:round;}
</style>
<g>
	<path class="st0" d="M7.8,1.7h4.6c0.2,0,0.3,0.1,0.3,0.3v11c0,0.2-0.1,0.3-0.3,0.3H7.8"/>
	<path class="st0" d="M2.3,13.1c0,0.1,0.1,0.3,0.2,0.3l4.9,1.1c0.2,0,0.3-0.1,0.4-0.2c0,0,0,0,0-0.1V0.8c0-0.2-0.1-0.3-0.3-0.3
		c0,0,0,0-0.1,0L2.6,1.6c-0.1,0-0.2,0.2-0.2,0.3L2.3,13.1z"/>
	<circle class="st0" cx="5.7" cy="7.5" r="0.9"/>
</g>
</svg>
