<?xml version="1.0" encoding="UTF-8"?><svg version="1.1" viewBox="0 0 24 24" xmlns="http://www.w3.org/2000/svg" xmlns:xlink="http://www.w3.org/1999/xlink"><g stroke-linecap="round" stroke-width="1" stroke="#000" fill="none" stroke-linejoin="round"><path d="M13.5 5v-3.5 0c0-.552285-.447715-1-1-1h-11 -4.37114e-08c-.552285 2.41411e-08-1 .447715-1 1 0 0 0 3.55271e-15 0 3.55271e-15v21l1.06581e-14-1.50996e-07c-8.33927e-08.552285.447715 1 1 1h11 -4.37114e-08c.552285 2.41411e-08 1-.447715 1-1v-3.5"></path><line x1="23.5" x2="4.5" y1="12" y2="12"></line><polyline points="18.5,17 23.5,12 18.5,7"></polyline></g></svg>