<?xml version="1.0" encoding="utf-8"?>
<!-- Generator: Adobe Illustrator 24.0.0, SVG Export Plug-In . SVG Version: 6.00 Build 0)  -->
<svg version="1.1" id="Laag_1" xmlns="http://www.w3.org/2000/svg" xmlns:xlink="http://www.w3.org/1999/xlink" x="0px" y="0px"
	 viewBox="0 0 15 15" style="enable-background:new 0 0 15 15;" xml:space="preserve">
<style type="text/css">
	.st0{fill:none;stroke:#000000;stroke-width:1;stroke-linecap:round;stroke-linejoin:round;}
</style>
<g>
	<path class="st0" d="M5.9,11.6L1.5,7.1C0.5,6,0.2,4.4,0.9,3.1l0,0c0.9-1.7,3-2.4,4.8-1.5C6,1.7,6.3,1.9,6.5,2.2l1,0.9l1-0.9
		c1.4-1.4,3.7-1.4,5,0c0.3,0.3,0.5,0.5,0.6,0.9l0,0C14.6,4,14.6,5,14.2,5.9"/>
	<circle class="st0" cx="10.8" cy="10.2" r="3.7"/>
	<line class="st0" x1="12.1" y1="8.9" x2="9.6" y2="11.5"/>
	<line class="st0" x1="12.1" y1="11.5" x2="9.6" y2="8.9"/>
</g>
</svg>
