<?xml version="1.0" encoding="UTF-8"?><svg version="1.1" viewBox="0 0 24 24" xmlns="http://www.w3.org/2000/svg" xmlns:xlink="http://www.w3.org/1999/xlink"><path d="M12 21.932l-9.8-10.092 -2.61241e-07-2.56231e-07c-1.76377-1.72995-2.20357-4.40317-1.087-6.607v0l-1.7845e-07 3.46398e-07c1.47683-2.86675 4.998-3.99349 7.86475-2.51666 .523274.26957 1.00278.616714 1.42225 1.02966l1.6 1.459 1.6-1.459 3.35541e-07-3.30166e-07c2.299-2.26217 5.99656-2.23232 8.25874.0666809 .412281.418993.758942.897829 1.02826 1.42032v0l7.63552e-08 1.50802e-07c1.11591 2.20393.676174 4.87674-1.087 6.607Z" stroke-linecap="round" stroke-width="1" stroke="#000" fill="none" stroke-linejoin="round"></path></svg>