<?xml version="1.0" encoding="UTF-8"?><svg version="1.1" viewBox="0 0 24 24" xmlns="http://www.w3.org/2000/svg" xmlns:xlink="http://www.w3.org/1999/xlink"><g stroke-linecap="round" stroke-width="1" stroke="#000" fill="none" stroke-linejoin="round"><path d="M9.664 18.844l-7.464-7.687 -4.19848e-07-4.11874e-07c-1.76351-1.73002-2.20366-4.40286-1.088-6.607v0l-3.51811e-07 6.82736e-07c1.47739-2.86708 4.99928-3.99364 7.86636-2.51625 .523021.26951 1.00231.616512 1.42164 1.02925l1.6 1.459 1.6-1.459 3.35541e-07-3.30166e-07c2.299-2.26217 5.99656-2.23232 8.25874.0666809 .412281.418993.758942.897829 1.02826 1.42032v0l3.04806e-07 6.00395e-07c.743468 1.46445.813541 3.17978.192 4.7"></path><circle cx="17.5" cy="15.75" r="6"></circle><line x1="17.5" x2="17.5" y1="12.75" y2="18.75"></line><line x1="20.5" x2="14.5" y1="15.75" y2="15.75"></line></g></svg>