<?xml version="1.0" encoding="UTF-8"?><svg version="1.1" viewBox="0 0 24 24" xmlns="http://www.w3.org/2000/svg" xmlns:xlink="http://www.w3.org/1999/xlink"><g stroke-linecap="round" stroke-width="1" stroke="#000" fill="none" stroke-linejoin="round"><path d="M8.764 17.85l-6.564-6.76 -6.70995e-09-6.58034e-09c-1.76385-1.72978-2.20441-4.40265-1.089-6.607v0l-1.66968e-08 3.23902e-08c1.47758-2.86636 4.99904-3.9922 7.8654-2.51462 .523879.270054 1.00385.617869 1.4236 1.03162l1.6 1.455 1.6-1.455 3.35541e-07-3.30166e-07c2.299-2.26217 5.99656-2.23232 8.25874.0666809 .412281.418993.758942.897829 1.02826 1.42032v0l3.04806e-07 6.00395e-07c.743468 1.46445.813541 3.17978.192 4.7"></path><circle cx="17.5" cy="16.182" r="6"></circle><line x1="13.26" x2="21.74" y1="20.42" y2="11.94"></line></g></svg>