<?xml version="1.0" encoding="utf-8"?>
<!-- Generator: Adobe Illustrator 24.0.0, SVG Export Plug-In . SVG Version: 6.00 Build 0)  -->
<svg version="1.1" id="Laag_1" xmlns="http://www.w3.org/2000/svg" xmlns:xlink="http://www.w3.org/1999/xlink" x="0px" y="0px"
	 viewBox="0 0 15 15" style="enable-background:new 0 0 15 15;" xml:space="preserve">
<style type="text/css">
	.st0{fill:none;stroke:#000000;stroke-width:1;stroke-linecap:round;stroke-linejoin:round;}
</style>
<g>
	<line class="st0" x1="4.8" y1="3.6" x2="4.8" y2="13.3"/>
	<line class="st0" x1="9" y1="6.6" x2="9" y2="0.6"/>
	<path class="st0" d="M8.4,10.7l-3.5,2.5c-0.1,0.1-0.2,0.1-0.4,0l-4-2.8c-0.1-0.1-0.1-0.1-0.1-0.2v-9c0-0.2,0.1-0.3,0.3-0.3
		c0.1,0,0.1,0,0.2,0.1l3.8,2.7l4.1-2.9c0.1-0.1,0.2-0.1,0.4,0l4,2.8c0.1,0.1,0.1,0.1,0.1,0.2v2.9"/>
	<path class="st0" d="M12.1,7.9c1.3,0,2.4,1.1,2.4,2.4c0,1.1-1.6,3.2-2.2,4c-0.1,0.1-0.3,0.2-0.4,0c0,0,0,0,0,0
		c-0.6-0.8-2.2-2.9-2.2-4C9.6,8.9,10.7,7.9,12.1,7.9z"/>
	<circle class="st0" cx="12.1" cy="10.3" r="0.9"/>
</g>
</svg>
