<?xml version="1.0" encoding="utf-8"?>
<!-- Generator: Adobe Illustrator 24.0.0, SVG Export Plug-In . SVG Version: 6.00 Build 0)  -->
<svg version="1.1" id="Laag_1" xmlns="http://www.w3.org/2000/svg" xmlns:xlink="http://www.w3.org/1999/xlink" x="0px" y="0px"
	 viewBox="0 0 15 15" style="enable-background:new 0 0 15 15;" xml:space="preserve">
<style type="text/css">
	.st0{fill:none;stroke:#000000;stroke-width:1;stroke-linecap:round;stroke-linejoin:round;}
</style>
<g>
	<path class="st0" d="M5.4,14.4c-0.1,0.1-0.3,0.1-0.4,0l-4.3-3.1c-0.1-0.1-0.1-0.2-0.1-0.3V1.1c0-0.2,0.1-0.3,0.3-0.3
		c0.1,0,0.1,0,0.2,0.1l4.1,3l4.5-3.2c0.1-0.1,0.3-0.1,0.4,0l4.3,3.1c0.1,0.1,0.1,0.2,0.1,0.3v9.8c0,0.2-0.1,0.3-0.3,0.3
		c-0.1,0-0.1,0-0.2-0.1l-4.1-3L5.4,14.4z"/>
	<line class="st0" x1="5.2" y1="3.8" x2="5.2" y2="14.4"/>
	<line class="st0" x1="9.8" y1="11.2" x2="9.8" y2="0.6"/>
</g>
</svg>
