<?xml version="1.0" encoding="UTF-8"?><svg version="1.1" viewBox="0 0 24 24" xmlns="http://www.w3.org/2000/svg" xmlns:xlink="http://www.w3.org/1999/xlink"><g stroke-linecap="round" stroke-width="1" stroke="#000" fill="none" stroke-linejoin="round"><path d="M8.791 22.292l-4.69823e-09 3.36253e-09c-.174012.124541-.407988.124541-.582-6.72505e-09l-6.5-4.642 4.70798e-08 3.3695e-08c-.131292-.0939659-.209131-.245547-.209-.407v-14.771l-1.5559e-08-1.96502e-05c-.000213223-.276142.223471-.500173.499614-.500386 .10451-8.06974e-05.206418.0325888.291402.093417l6.20898 4.43499 6.709-4.792 1.76224e-08-1.26124e-08c.174012-.124541.407988-.124541.582 2.52248e-08l6.5 4.642 -9.92062e-09-7.10019e-09c.131292.0939659.209131.245547.209.407v14.771l1.56014e-08 1.97051e-05c.000213193.276142-.223472.500173-.499614.500386 -.10451 8.0686e-05-.206418-.0325888-.291402-.0934171l-6.20898-4.43499Z"></path><line x1="8.5" x2="8.5" y1="6.5" y2="22.39"></line><line x1="15.5" x2="15.5" y1="17.5" y2="1.61"></line></g></svg>