<?xml version="1.0" encoding="UTF-8"?><svg version="1.1" viewBox="0 0 24 24" xmlns="http://www.w3.org/2000/svg" xmlns:xlink="http://www.w3.org/1999/xlink"><g stroke-linecap="round" stroke-width="1" stroke="#000" fill="none" stroke-linejoin="round"><line x1="7.5" x2="7.5" y1="5.59" y2="21.48"></line><line x1="14.5" x2="14.5" y1="10.59" y2=".7"></line><path d="M13.5 17.305l-5.709 4.078 -4.69823e-09 3.36253e-09c-.174012.124541-.407988.124541-.582-6.72505e-09l-6.5-4.643 4.70798e-08 3.3695e-08c-.131292-.0939659-.209131-.245547-.209-.407v-14.771l4.63672e-09-3.88931e-06c.000330282-.276142.224455-.499732.500598-.499402 .104169.000124592.205697.0327809.290405.0934078l6.209 4.435 6.709-4.791 1.76224e-08-1.26124e-08c.174012-.124541.407988-.124541.582 2.52248e-08l6.5 4.643 -9.92062e-09-7.10019e-09c.131292.0939659.209131.245547.209.407v4.743"></path><path d="M19.5 12.591l-1.74846e-07 5.32907e-15c2.20914-9.65645e-08 4 1.79086 4 4 0 0 0 3.55271e-15 0 3.55271e-15 0 1.781-2.6 5.24-3.608 6.514l1.44799e-08-1.82876e-08c-.171418.216496-.485885.253038-.70238.0816196 -.0302662-.0239644-.0576552-.0513534-.0816196-.0816196 -1.008-1.274-3.608-4.733-3.608-6.514l4.61853e-14 6.03983e-07c-3.33571e-07-2.20914 1.79086-4 4-4Z"></path><circle cx="19.5" cy="16.591" r="1.5"></circle></g></svg>