<svg viewBox="0 0 24 24" xmlns="http://www.w3.org/2000/svg"><g stroke-linecap="round" stroke="#000" fill="none" stroke-linejoin="round"><path d="M16 21.75h2c1.93 0 3.5-1.07 3.5-3v-3"/><path d="M14.5 20.25a1.5 1.5 0 1 0 0 3 1.5 1.5 0 1 0 0-3Z"/><path d="M6.5 17.75h-2l-.01-.001c-1.11-.01-2-.9-2-2.01 0 0 0 0 0 0v-3l0 0c-.01-1.11.89-2.01 1.99-2.01h2Z"/><path d="M17.5 17.75h2l-.01-.001c1.1 0 2-.9 2-2v-3 0c0-1.11-.9-2-2-2h-2Z"/><path d="M2.5 12.75v-2.5l0 0C2.49 5 6.75.74 11.99.74c5.24-.01 9.5 4.25 9.5 9.49 0 0 0 0 0 0v2.5"/></g></svg>