<?xml version="1.0" encoding="utf-8"?>
<!-- Generator: Adobe Illustrator 24.0.0, SVG Export Plug-In . SVG Version: 6.00 Build 0)  -->
<svg version="1.1" id="Laag_1" xmlns="http://www.w3.org/2000/svg" xmlns:xlink="http://www.w3.org/1999/xlink" x="0px" y="0px"
	 viewBox="0 0 15 15" style="enable-background:new 0 0 15 15;" xml:space="preserve">
<style type="text/css">
	.st0{fill:none;stroke:#000000;stroke-width:1;stroke-linecap:round;stroke-linejoin:round;}
</style>
<g>
	<path class="st0" d="M10,13.6h1.2c1.2,0,2.2-0.7,2.2-1.9V9.8"/>
	<circle class="st0" cx="9.1" cy="13.6" r="0.9"/>
	<path class="st0" d="M4.1,11.1H2.8c-0.7,0-1.2-0.6-1.2-1.2V8c0-0.7,0.6-1.2,1.2-1.2h1.2V11.1z"/>
	<path class="st0" d="M10.9,11.1h1.2c0.7,0,1.2-0.6,1.2-1.2V8c0-0.7-0.6-1.2-1.2-1.2h-1.2V11.1z"/>
	<path class="st0" d="M1.6,8V6.4c0-3.3,2.6-5.9,5.9-5.9s5.9,2.6,5.9,5.9V8"/>
</g>
</svg>
