<?xml version="1.0" encoding="UTF-8"?><svg version="1.1" viewBox="0 0 24 24" xmlns="http://www.w3.org/2000/svg" xmlns:xlink="http://www.w3.org/1999/xlink"><g stroke-linecap="round" stroke-width="1" stroke="#000" fill="none" stroke-linejoin="round"><path d="M16 21.75h2c1.934 0 3.5-1.066 3.5-3v-3"></path><circle cx="14.5" cy="21.75" r="1.5"></circle><path d="M6.5 17.75h-2l-8.74228e-08-3.55271e-15c-1.10457-4.82823e-08-2-.895431-2-2 0 0 0 0 0 0v-3l2.30926e-14 3.01992e-07c-1.66785e-07-1.10457.89543-2 2-2h2Z"></path><path d="M17.5 17.75h2l-8.74228e-08-3.55271e-15c1.10457 4.82823e-08 2-.89543 2-2v-3 0c0-1.10457-.895431-2-2-2h-2Z"></path><path d="M2.5 12.75v-2.5l1.08358e-13 1.43446e-06c-7.9223e-07-5.24671 4.25329-9.5 9.5-9.5 5.24671-7.9223e-07 9.5 4.25329 9.5 9.5 0 0 0 7.10543e-15 0 7.10543e-15v2.5"></path></g></svg>