<?xml version="1.0" encoding="UTF-8"?><svg version="1.1" viewBox="0 0 24 24" xmlns="http://www.w3.org/2000/svg" xmlns:xlink="http://www.w3.org/1999/xlink"><g stroke-linecap="round" stroke-width="1" stroke="#000" fill="none" stroke-linejoin="round"><path d="M23.565 17.5v0c0 .552285-.447715 1-1 1h-11l-4 4v-4h-6 -4.37114e-08c-.552285-2.41411e-08-1-.447715-1-1 0 0 0-3.55271e-15 0-3.55271e-15v-15.018l1.06581e-14 1.50996e-07c-8.33927e-08-.552285.447715-1 1-1h21l-4.37114e-08 8.88178e-16c.552285-2.41411e-08 1 .447715 1 1Z"></path><line x1="12.57" x2="12.57" y1="12" y2="5"></line><path d="M12.565 14.232h-1.09278e-08c.138071-6.03528e-09.25.111929.25.25 6.03528e-09.138071-.111929.25-.25.25 -.138071 6.03528e-09-.25-.111929-.25-.25l3.55271e-15 3.7749e-08c-2.08482e-08-.138071.111929-.25.25-.25"></path></g></svg>