<?xml version="1.0" encoding="UTF-8"?><svg version="1.1" viewBox="0 0 24 24" xmlns="http://www.w3.org/2000/svg" xmlns:xlink="http://www.w3.org/1999/xlink"><g stroke-linecap="round" stroke-width="1" stroke="#000" fill="none" stroke-linejoin="round"><line x1="12" x2="12" y1="18.5" y2="23.5"></line><path d="M12 .5l-1.74846e-07 3.55271e-15c-2.20914 9.65645e-08-4 1.79086-4 4 0 0 0 1.77636e-15 0 1.77636e-15v7l4.61853e-14 6.03983e-07c3.33571e-07 2.20914 1.79086 4 4 4 2.20914-3.33571e-07 4-1.79086 4-4v-7l2.30926e-14 4.29138e-07c0-2.20914-1.79086-4-4-4Z"></path><path d="M19 8.5v3 0c0 3.86599-3.13401 7-7 7 -3.86599 0-7-3.13401-7-7v-3"></path></g></svg>