<?xml version="1.0" encoding="UTF-8"?><svg version="1.1" viewBox="0 0 24 24" xmlns="http://www.w3.org/2000/svg" xmlns:xlink="http://www.w3.org/1999/xlink"><g stroke-linecap="round" stroke-width="1" stroke="#000" fill="none" stroke-linejoin="round"><path d="M14.414 18.188l-6.31231e-09 2.12463e-09c-3.14058 1.05707-6.54346-.631945-7.60053-3.77253 -.207756-.617246-.313631-1.2642-.313472-1.91547v-2.5"></path><path d="M7.044 4l-1.85125e-07 4.04597e-07c1.37873-3.01327 4.93914-4.33832 7.95241-2.95959 2.1358.977241 3.505 3.11084 3.50359 5.45959v6l1.95093e-07.000140072c.00119177.862935-.184768 1.71586-.545058 2.49999"></path><path d="M19.46 16.492l5.39278e-08-9.56055e-08c.687006-1.21795 1.04541-2.59366 1.04-3.992v-2"></path><path d="M4.5 10.5v2l-2.32087e-07 2.61794e-05c-.0388176 4.37945 3.47996 7.96116 7.8594 7.99997 .0468736.000415468.0937499.000415313.140623-4.6426e-07l8.75975e-09 3.56017e-11c1.3926.00565923 2.76286-.349914 3.977-1.032"></path><line x1="12.5" x2="12.5" y1="20.5" y2="23.5"></line><line x1="1" x2="23" y1="1" y2="23"></line></g></svg>