<?xml version="1.0" encoding="utf-8"?>
<!-- Generator: Adobe Illustrator 24.0.0, SVG Export Plug-In . SVG Version: 6.00 Build 0)  -->
<svg version="1.1" id="Laag_1" xmlns="http://www.w3.org/2000/svg" xmlns:xlink="http://www.w3.org/1999/xlink" x="0px" y="0px"
	 viewBox="0 0 15 15" style="enable-background:new 0 0 15 15;" xml:space="preserve">
<style type="text/css">
	.st0{fill:none;stroke:#000000;stroke-width:1;stroke-linecap:round;stroke-linejoin:round;}
</style>
<g>
	<path class="st0" d="M9,11.3C7.1,11.9,5,10.9,4.3,9C4.2,8.6,4.2,8.2,4.2,7.8V6.3"/>
	<path class="st0" d="M4.5,2.6c0.8-1.8,3-2.6,4.8-1.8c1.3,0.6,2.1,1.9,2.1,3.3v3.7c0,0.5-0.1,1-0.3,1.5"/>
	<path class="st0" d="M12,10.2c0.4-0.7,0.6-1.6,0.6-2.4V6.6"/>
	<path class="st0" d="M2.9,6.6v1.2c0,2.7,2.1,4.8,4.8,4.9c0,0,0.1,0,0.1,0c0.8,0,1.7-0.2,2.4-0.6"/>
	<line class="st0" x1="7.8" y1="12.7" x2="7.8" y2="14.5"/>
	<line class="st0" x1="0.8" y1="0.8" x2="14.2" y2="14.2"/>
</g>
</svg>
