<?xml version="1.0" encoding="utf-8"?>
<!-- Generator: Adobe Illustrator 24.0.0, SVG Export Plug-In . SVG Version: 6.00 Build 0)  -->
<svg version="1.1" id="Laag_1" xmlns="http://www.w3.org/2000/svg" xmlns:xlink="http://www.w3.org/1999/xlink" x="0px" y="0px"
	 viewBox="0 0 15 15" style="enable-background:new 0 0 15 15;" xml:space="preserve">
<style type="text/css">
	.st0{fill:none;stroke:#000000;stroke-width:1;stroke-linecap:round;stroke-linejoin:round;}
</style>
<g>
	<path class="st0" d="M4.2,0.5h6.7c0.7,0,1.2,0.5,1.2,1.2v11.6c0,0.7-0.5,1.2-1.2,1.2H4.2c-0.7,0-1.2-0.5-1.2-1.2V1.7
		C2.9,1,3.5,0.5,4.2,0.5z"/>
	<line class="st0" x1="12.1" y1="12.1" x2="2.9" y2="12.1"/>
	<line class="st0" x1="6" y1="1.7" x2="9" y2="1.7"/>
	<path class="st0" d="M7.5,13c0.1,0,0.2,0.1,0.2,0.2s-0.1,0.2-0.2,0.2s-0.2-0.1-0.2-0.2S7.4,13,7.5,13"/>
</g>
</svg>
