<?xml version="1.0" encoding="UTF-8"?><svg version="1.1" viewBox="0 0 24 24" xmlns="http://www.w3.org/2000/svg" xmlns:xlink="http://www.w3.org/1999/xlink"><g stroke-linecap="round" stroke-width="1" stroke="#000" fill="none" stroke-linejoin="round"><line x1=".5" x2="23.5" y1="23.5" y2="23.5"></line><path d="M17.5 3v0c0 .276142-.223858.5-.5.5h-3.5v1.5 0c0 .276142-.223858.5-.5.5h-1.5v1.5 0c0 .276142-.223858.5-.5.5h-1.5v1.5 0c0 .276142-.223858.5-.5.5h-2 -2.18557e-08c-.276142-1.20706e-08-.5-.223858-.5-.5 0 0 0-1.77636e-15 0-1.77636e-15v-7.5l1.24345e-14 1.50996e-07c-8.33927e-08-.552285.447715-1 1-1h9l-4.37114e-08 9.99201e-16c.552285-2.41411e-08 1 .447715 1 1Z"></path><path d="M17.5 23.5v-5.506 0c0-.276142-.223858-.5-.5-.5h-3 -2.18557e-08c-.276142-1.20706e-08-.5-.223858-.5-.5 0 0 0 0 0 0v-2l5.32907e-15 7.54979e-08c-4.16963e-08-.276142.223858-.5.5-.5h3 -2.18557e-08c.276142 1.20706e-08.5-.223858.5-.5v-5 0c0-.276142-.223858-.5-.5-.5h-2 -2.18557e-08c-.276142 1.20706e-08-.5.223858-.5.5 0 0 0 1.77636e-15 0 1.77636e-15v1.5h-1.5 -2.18557e-08c-.276142 1.20706e-08-.5.223858-.5.5 0 0 0 1.77636e-15 0 1.77636e-15v1.5h-1.5 -2.18557e-08c-.276142 1.20706e-08-.5.223858-.5.5 0 0 0 1.77636e-15 0 1.77636e-15v1.5h-3.5 -2.18557e-08c-.276142 1.20706e-08-.5.223858-.5.5 0 0 0 1.77636e-15 0 1.77636e-15v8.506"></path><line x1="16.5" x2="16.5" y1="3.5" y2="8.49"></line><line x1="7.5" x2="7.5" y1="9.5" y2="14.49"></line><line x1="16.5" x2="16.5" y1="14.49" y2="17.49"></line><line x1="6.5" x2="9.5" y1="17.49" y2="17.49"></line><line x1="6.5" x2="9.5" y1="3.49" y2="3.49"></line><line x1="6.5" x2="9.5" y1="20.5" y2="20.5"></line><line x1="14.5" x2="17.5" y1="20.5" y2="20.5"></line></g></svg>