<?xml version="1.0" encoding="utf-8"?>
<!-- Generator: Adobe Illustrator 24.0.0, SVG Export Plug-In . SVG Version: 6.00 Build 0)  -->
<svg version="1.1" id="Laag_1" xmlns="http://www.w3.org/2000/svg" xmlns:xlink="http://www.w3.org/1999/xlink" x="0px" y="0px"
	 viewBox="0 0 15 15" style="enable-background:new 0 0 15 15;" xml:space="preserve">
<style type="text/css">
	.st0{fill:none;stroke:#000000;stroke-width:1;stroke-linecap:round;stroke-linejoin:round;}
</style>
<g>
	<line class="st0" x1="0.5" y1="14.5" x2="14.5" y2="14.5"/>
	<path class="st0" d="M10.8,2c0,0.2-0.1,0.3-0.3,0.3H8.4v0.9c0,0.2-0.1,0.3-0.3,0.3H7.2v0.9c0,0.2-0.1,0.3-0.3,0.3H6v0.9
		C6,5.8,5.8,6,5.7,6H4.5C4.3,6,4.2,5.8,4.2,5.7V1.1c0-0.3,0.3-0.6,0.6-0.6h5.5c0.3,0,0.6,0.3,0.6,0.6V2z"/>
	<path class="st0" d="M10.8,14.5v-3.4c0-0.2-0.1-0.3-0.3-0.3H8.7c-0.2,0-0.3-0.1-0.3-0.3V9.3C8.4,9.2,8.5,9,8.7,9h1.8
		c0.2,0,0.3-0.1,0.3-0.3v-3c0-0.2-0.1-0.3-0.3-0.3H9.3C9.2,5.4,9,5.5,9,5.7v0.9H8.1c-0.2,0-0.3,0.1-0.3,0.3v0.9H6.9
		c-0.2,0-0.3,0.1-0.3,0.3V9H4.5C4.3,9,4.2,9.2,4.2,9.3v5.2"/>
	<line class="st0" x1="10.2" y1="2.3" x2="10.2" y2="5.4"/>
	<line class="st0" x1="4.8" y1="6" x2="4.8" y2="9"/>
	<line class="st0" x1="10.2" y1="9" x2="10.2" y2="10.8"/>
	<line class="st0" x1="4.2" y1="10.8" x2="6" y2="10.8"/>
	<line class="st0" x1="4.2" y1="2.3" x2="6" y2="2.3"/>
	<line class="st0" x1="4.2" y1="12.7" x2="6" y2="12.7"/>
	<line class="st0" x1="9" y1="12.7" x2="10.8" y2="12.7"/>
</g>
</svg>
