<svg viewBox="0 0 24 24" xmlns="http://www.w3.org/2000/svg"><g stroke-linecap="round" stroke="#000" fill="none" stroke-linejoin="round"><path d="M19.94 12l-.001 0c-.24 0-.44-.16-.49-.39l0 0c-.22-1.09-1.27-1.8-2.35-1.59 -.8.15-1.43.78-1.59 1.58l0-.01c-.05.22-.26.38-.49.38h-2.06v2.051l-.01 0c-.01.23.15.43.38.48l0 0c1.08.21 1.79 1.26 1.58 2.34 -.16.79-.79 1.42-1.59 1.58l-.01 0c-.23.04-.39.25-.39.48v2.05h8 -.01c.55 0 1-.45 1-1v-8Z"/><path d="M19.94 3l-.001-.001c-.24-.01-.44.15-.49.38l0-.01c-.22 1.08-1.27 1.79-2.35 1.58 -.8-.16-1.43-.79-1.59-1.59l0 0c-.05-.23-.26-.39-.49-.39h-2.06v2.05l0 0c0 .23-.16.43-.39.48l-.01 0c-1.09.21-1.8 1.26-1.59 2.34 .15.79.78 1.42 1.58 1.58l0 0c.22.04.38.25.38.48v2.05h2.051l0 0c.23 0 .43-.16.48-.39l-.01 0c.21-1.09 1.26-1.8 2.34-1.59 .79.15 1.42.78 1.58 1.58l-.01-.01c.04.22.25.38.48.38h2.05v-8 0c0-.56-.45-1-1-1Z"/><path d="M4 5.051l-.01 0c-.01.23.15.43.38.48l0 0c1.08.21 1.79 1.26 1.58 2.34 -.16.79-.79 1.42-1.59 1.58l-.01 0c-.23.04-.39.25-.39.48v2.05h2.05l0-.001c.23-.01.43.15.48.38l-.01-.01c.21 1.08 1.26 1.79 2.34 1.58 .79-.16 1.42-.79 1.58-1.59l-.01 0c.04-.23.25-.39.48-.39h2.05V9.89l0-.01c0-.24-.16-.44-.39-.49l-.01-.01c-1.09-.22-1.8-1.27-1.59-2.35 .15-.8.78-1.43 1.58-1.59l0-.01c.22-.05.38-.26.38-.49V2.88h-8l-.01 0c-.56 0-1 .44-1 1 0 0 0 0 0 0Z"/><path d="M13.38 14.53l-.01-.01c-.23-.05-.39-.26-.39-.49v-2.06h-2.06l-.001-.001c-.24-.01-.44.15-.49.38l0-.01c-.22 1.08-1.27 1.79-2.35 1.58 -.8-.16-1.43-.79-1.59-1.59l0 0c-.05-.23-.26-.39-.49-.39H3.93v2.051l0 0c0 .23-.16.43-.39.48l-.01 0c-1.09.21-1.8 1.26-1.59 2.34 .15.79.78 1.42 1.58 1.58l0 0c.22.04.38.25.38.48v1.05l0 0c0 .55.44.99 1 .99h8v-2.06l-.01-.01c-.01-.24.15-.44.38-.49l0-.01c1.08-.22 1.79-1.27 1.58-2.35 -.16-.8-.79-1.43-1.59-1.59Z"/></g></svg>