<?xml version="1.0" encoding="UTF-8"?><svg version="1.1" viewBox="0 0 24 24" xmlns="http://www.w3.org/2000/svg" xmlns:xlink="http://www.w3.org/1999/xlink"><g stroke-linecap="round" stroke-width="1" stroke="#000" fill="none" stroke-linejoin="round"><path d="M12.5 17.5v0c0 3.31371-2.68629 6-6 6 -3.31371 0-6-2.68629-6-6v-9l3.37508e-14 4.52987e-07c-2.50178e-07-1.65685 1.34315-3 3-3h6l-1.31134e-07 3.55271e-15c1.65685-7.24234e-08 3 1.34315 3 3Z"></path><line x1=".5" x2="12.5" y1="10.5" y2="10.5"></line><path d="M6.5 10.5v-5l5.68434e-14 7.54979e-07c-4.16963e-07-2.76142 2.23858-5 5-5 2.76142-4.16963e-07 5 2.23858 5 5 0 0 0 4.44089e-15 0 4.44089e-15v2.5l3.90799e-14 5.28485e-07c2.91874e-07 1.933 1.567 3.5 3.5 3.5 1.933-2.91874e-07 3.5-1.567 3.5-3.5v-7.5"></path></g></svg>