<?xml version="1.0" encoding="UTF-8"?><svg version="1.1" viewBox="0 0 24 24" xmlns="http://www.w3.org/2000/svg" xmlns:xlink="http://www.w3.org/1999/xlink"><g stroke-linecap="round" stroke-width="1" stroke="#000" fill="none" stroke-linejoin="round"><path d="M17.5 22v-1.5c0-3.953-2.9-4.591-5.634-5.6 -.909-.337-.759-2.71-.357-3.153 .944-1.039 1.746-2.257 1.746-5.2 0-2.969-1.937-4.547-4.255-4.547 -2.318 0-4.255 1.578-4.255 4.545 0 2.942.8 4.16 1.746 5.2 .4.443.552 2.816-.357 3.153 -2.685.993-5.634 1.619-5.634 5.602v1.5Z"></path><path d="M20 22h3.5v-.853c0-3.023-2.217-3.511-4.308-4.285 -.7-.257-.581-2.072-.273-2.41l-3.7316e-08 4.04477e-08c.99131-1.07451 1.47698-2.52097 1.335-3.976l1.25443e-07-1.33628e-06c.164147-1.74858-1.12029-3.29915-2.86887-3.46329 -.128004-.0120163-.256618-.0162588-.385136-.0127042l-8.35551e-08-8.89278e-10c-.549113-.00584421-1.09151.121092-1.581.37"></path></g></svg>