<?xml version="1.0" encoding="utf-8"?>
<!-- Generator: Adobe Illustrator 24.0.0, SVG Export Plug-In . SVG Version: 6.00 Build 0)  -->
<svg version="1.1" id="Laag_1" xmlns="http://www.w3.org/2000/svg" xmlns:xlink="http://www.w3.org/1999/xlink" x="0px" y="0px"
	 viewBox="0 0 15 15" style="enable-background:new 0 0 15 15;" xml:space="preserve">
<style type="text/css">
	.st0{fill:none;stroke:#000000;stroke-width:1;stroke-linecap:round;stroke-linejoin:round;}
</style>
<g>
	<path class="st0" d="M5.9,12.6c0,1-0.9,1.9-1.9,1.9c-1.1,0-1.9-0.9-1.9-1.9s0.9-1.9,1.9-1.9h1.9V12.6z"/>
	<path class="st0" d="M12.9,10c0,1-0.9,1.9-1.9,1.9c-1.1,0-1.9-0.9-1.9-1.9S9.9,8.1,11,8.1h1.9V10z"/>
	<path class="st0" d="M5.9,10.7V3.5c0-0.3,0.2-0.5,0.4-0.6L12,0.5c0.3-0.1,0.7,0,0.8,0.3c0,0.1,0,0.2,0,0.2v7"/>
	<line class="st0" x1="5.9" y1="5.3" x2="12.9" y2="2.4"/>
</g>
</svg>
