<svg viewBox="0 0 24 24" xmlns="http://www.w3.org/2000/svg"><g stroke-linecap="round" stroke="#000" fill="none" stroke-linejoin="round"><path d="M9.5 20.005l0-.01c-.06 1.63-1.37 2.94-3 3l-.01-.001c-1.66-.01-3-1.35-3-3 0-1.66 1.34-3 3-3h3Z"/><path d="M20.5 16.005l0-.01c-.06 1.63-1.37 2.94-3 3l-.01-.001c-1.66-.01-3-1.35-3-3 0-1.66 1.34-3 3-3h3Z"/><path d="M9.5 17.005V5.677l-.01-.01c-.01-.41.24-.78.62-.93l9-3.682 0-.01c.51-.21 1.09.03 1.3.54 .04.12.07.25.07.38v11.01"/><path d="M9.5 8.51l11-4.5"/></g></svg>