<?xml version="1.0" encoding="UTF-8"?><svg version="1.1" viewBox="0 0 24 24" xmlns="http://www.w3.org/2000/svg" xmlns:xlink="http://www.w3.org/1999/xlink"><g stroke-linecap="round" stroke-width="1" stroke="#000" fill="none" stroke-linejoin="round"><path d="M9.5 20.005l1.51514e-07-4.51172e-06c-.0548585 1.63359-1.36641 2.94514-3 3l-1.31134e-07-3.55271e-15c-1.65685-7.24234e-08-3-1.34315-3-3 7.24234e-08-1.65685 1.34315-3 3-3h3Z"></path><path d="M20.5 16.005l1.51514e-07-4.51172e-06c-.0548585 1.63359-1.36641 2.94514-3 3l-1.31134e-07-3.55271e-15c-1.65685-7.24234e-08-3-1.34315-3-3 7.24234e-08-1.65685 1.34315-3 3-3h3Z"></path><path d="M9.5 17.005v-11.328l-3.09291e-09-5.14902e-06c-.00024291-.406132.24517-.772075.621005-.925997l9-3.682 5.73267e-08-2.34792e-08c.51108-.209322 1.09508.0353013 1.3044.546381 .0499814.122034.0753318.25275.0745921.384621v11.01"></path><line x1="9.5" x2="20.5" y1="8.51" y2="4.01"></line></g></svg>