<?xml version="1.0" encoding="utf-8"?>
<!-- Generator: Adobe Illustrator 24.1.1, SVG Export Plug-In . SVG Version: 6.00 Build 0)  -->
<svg version="1.1" id="Layer_1" xmlns="http://www.w3.org/2000/svg" xmlns:xlink="http://www.w3.org/1999/xlink" x="0px" y="0px"
	 viewBox="0 0 15 15" style="enable-background:new 0 0 15 15;" xml:space="preserve">
<style type="text/css">
	.st0{fill:none;stroke:#000000;stroke-width:1.05;stroke-linecap:round;stroke-linejoin:round;}
</style>
<g>
	<path class="st0" d="M14.5,5.6H7.9l0,0c-1.4,0-2.5,1.1-2.5,2.5l0,0v1.2"/>
	<polyline class="st0" points="12,8.1 14.5,5.6 12,3.2 	"/>
	<path class="st0" d="M9.2,7.8v3.4l0,0c0,0.4-0.2,0.6-0.6,0.6H1.1l0,0c-0.4,0-0.6-0.2-0.6-0.6l0,0V3.8l0,0c0-0.4,0.2-0.6,0.6-0.6
		h7.4l0,0c0.4,0,0.6,0.2,0.6,0.6v0.3"/>
</g>
</svg>
