<?xml version="1.0" encoding="UTF-8"?><svg version="1.1" viewBox="0 0 24 24" xmlns="http://www.w3.org/2000/svg" xmlns:xlink="http://www.w3.org/1999/xlink"><g stroke-linecap="round" stroke-width="1" stroke="#000" fill="none" stroke-linejoin="round"><path d="M.887 9.5h10.613l-1.74846e-07 3.55271e-15c2.20914-9.65645e-08 4 1.79086 4 4v2"></path><polyline points="4.887,13.498 .887,9.498 4.887,5.498"></polyline><path d="M9.5 13v5.5l1.06581e-14 1.50996e-07c8.33927e-08.552285.447715 1 1 1h12 -4.37114e-08c.552285 2.41411e-08 1-.447715 1-1v-12 0c0-.552285-.447715-1-1-1h-12l-4.37114e-08 8.88178e-16c-.552285 2.41411e-08-1 .447715-1 1 0 0 0 0 0 0v.5"></path></g></svg>