<?xml version="1.0" encoding="utf-8"?>
<!-- Generator: Adobe Illustrator 24.1.1, SVG Export Plug-In . SVG Version: 6.00 Build 0)  -->
<svg version="1.1" id="Layer_1" xmlns="http://www.w3.org/2000/svg" xmlns:xlink="http://www.w3.org/1999/xlink" x="0px" y="0px"
	 viewBox="0 0 23.6 15" style="enable-background:new 0 0 23.6 15;" xml:space="preserve">
<style type="text/css">
	.st0{fill:none;stroke:#000000;stroke-width:0.85;stroke-linecap:round;stroke-linejoin:round;}
</style>
<g>
	<path class="st0" d="M23.1,4.5H12.5l0,0c-2.2,0-4,1.8-4,4l0,0v2"/>
	<polyline class="st0" points="19.1,8.5 23.1,4.5 19.1,0.5 	"/>
	<path class="st0" d="M14.5,8v5.5l0,0c0,0.6-0.4,1-1,1h-12l0,0c-0.6,0-1-0.4-1-1l0,0v-12l0,0c0-0.6,0.4-1,1-1h12l0,0
		c0.6,0,1,0.4,1,1V2"/>
</g>
</svg>
