<?xml version="1.0" encoding="UTF-8"?><svg version="1.1" viewBox="0 0 24 24" xmlns="http://www.w3.org/2000/svg" xmlns:xlink="http://www.w3.org/1999/xlink"><g stroke-linecap="round" stroke-width="1" stroke="#000" fill="none" stroke-linejoin="round"><path d="M23 9.5h-10.613l-1.74846e-07 3.55271e-15c-2.20914 9.65645e-08-4 1.79086-4 4 0 0 0 1.77636e-15 0 1.77636e-15v2"></path><polyline points="19,13.498 23,9.498 19,5.498"></polyline><path d="M14.387 13v5.5 0c0 .552285-.447715 1-1 1h-12 -4.37114e-08c-.552285-2.41411e-08-1-.447715-1-1 0 0 0-3.55271e-15 0-3.55271e-15v-12l1.06581e-14 1.50996e-07c-8.33927e-08-.552285.447715-1 1-1h12l-4.37114e-08 8.88178e-16c.552285-2.41411e-08 1 .447715 1 1v.5"></path></g></svg>