<?xml version="1.0" encoding="UTF-8"?><svg version="1.1" viewBox="0 0 24 24" xmlns="http://www.w3.org/2000/svg" xmlns:xlink="http://www.w3.org/1999/xlink"><g stroke-linecap="round" stroke-width="1" stroke="#000" fill="none" stroke-linejoin="round"><path d="M20.5 6.5v0c0 .552285-.447715 1-1 1h-15l-4.37114e-08-8.88178e-16c-.552285-2.41411e-08-1-.447715-1-1 0 0 0 0 0 0v-1l1.24345e-14 1.50996e-07c-8.33927e-08-.552285.447715-1 1-1h15l-4.37114e-08 8.88178e-16c.552285-2.41411e-08 1 .447715 1 1Z"></path><path d="M20.5 12.5v0c0 .552285-.447715 1-1 1h-15l-4.37114e-08-1.77636e-15c-.552285-2.41411e-08-1-.447715-1-1 0 0 0 0 0 0v-1l1.24345e-14 1.50996e-07c-8.33927e-08-.552285.447715-1 1-1h15l-4.37114e-08 1.77636e-15c.552285-2.41411e-08 1 .447715 1 1Z"></path><path d="M20.5 18.5v0c0 .552285-.447715 1-1 1h-15 -4.37114e-08c-.552285-2.41411e-08-1-.447715-1-1 0 0 0-3.55271e-15 0-3.55271e-15v-1l1.24345e-14 1.50996e-07c-8.33927e-08-.552285.447715-1 1-1h15 -4.37114e-08c.552285-2.41411e-08 1 .447715 1 1Z"></path></g></svg>