<?xml version="1.0" encoding="UTF-8"?><svg version="1.1" viewBox="0 0 24 24" xmlns="http://www.w3.org/2000/svg" xmlns:xlink="http://www.w3.org/1999/xlink"><g stroke-linecap="round" stroke-width="1" stroke="#000" fill="none" stroke-linejoin="round"><path d="M19.5 12.5h3l-4.37114e-08 1.77636e-15c.552285-2.41411e-08 1 .447715 1 1v6.5 0c0 .276142-.223858.5-.5.5h-3.5"></path><path d="M4.5 20.5h-3.5 -2.18557e-08c-.276142-1.20706e-08-.5-.223858-.5-.5 0 0 0 0 0 0v-6.5l1.14353e-14 1.50996e-07c-8.33927e-08-.552285.447715-1 1-1h3"></path><path d="M19.5 23v0c0 .276142-.223858.5-.5.5h-14 -2.18557e-08c-.276142-1.20706e-08-.5-.223858-.5-.5 0 0 0 0 0 0v-10.5l7.129-2.851 6.16153e-08-2.48467e-08c.238021-.0959833.503979-.0959833.742 4.96934e-08l7.129 2.851Z"></path><polyline points="5.5,12.1 5.5,8.5 18.5,8.5 18.5,12.1"></polyline><path d="M5.5 8.5l7.4607e-14 9.81473e-07c-5.42052e-07-3.58985 2.91015-6.5 6.5-6.5 3.58985-5.42052e-07 6.5 2.91015 6.5 6.5 0 0 0 5.32907e-15 0 5.32907e-15"></path><line x1="12" x2="12" y1="2" y2=".5"></line><line x1="7.5" x2="7.5" y1="21.5" y2="14.5"></line><line x1="10.5" x2="10.5" y1="21.5" y2="14.5"></line><line x1="13.5" x2="13.5" y1="21.5" y2="14.5"></line><line x1="16.5" x2="16.5" y1="21.5" y2="14.5"></line><line x1="4.5" x2="19.5" y1="14.5" y2="14.5"></line><line x1="4.5" x2="19.5" y1="21.5" y2="21.5"></line></g></svg>