<?xml version="1.0" encoding="UTF-8"?><svg version="1.1" viewBox="0 0 24 24" xmlns="http://www.w3.org/2000/svg" xmlns:xlink="http://www.w3.org/1999/xlink"><g stroke-linecap="round" stroke-width="1" stroke="#000" fill="none" stroke-linejoin="round"><path d="M21.207 4.5l-1.96434e-08-1.96375e-08c.187549.187493.292943.441805.293.707v17.293 0c0 .552285-.447715 1-1 1h-17 -4.37114e-08c-.552285-2.41411e-08-1-.447715-1-1 0 0 0-3.55271e-15 0-3.55271e-15v-21l1.24345e-14 1.50996e-07c-8.33927e-08-.552285.447715-1 1-1h13.293l5.86596e-08-1.04994e-10c.264908-.000474147.51918.104184.707.291Z"></path><path d="M6.361 6.889c-.851-1.401 1.185-2.689 1.717-1.252 .911 2.467 2.376 9.141-.929 13.677 -.922 1.264-2.911.067-1.841-1.25l-1.23043e-07 1.45128e-07c3.10141-3.65806 7.66629-5.75112 12.462-5.714 1.668.063 1.582 2.432.09 2.25l-7.29825e-07-9.54408e-08c-4.8277-.63133-9.08225-3.48435-11.499-7.711Z"></path></g></svg>