<?xml version="1.0" encoding="UTF-8"?><svg version="1.1" viewBox="0 0 24 24" xmlns="http://www.w3.org/2000/svg" xmlns:xlink="http://www.w3.org/1999/xlink"><g stroke-linecap="round" stroke-width="1" stroke="#000" fill="none" stroke-linejoin="round"><path d="M21.207 4.5l-1.96434e-08-1.96375e-08c.187549.187493.292943.441805.293.707v17.293 0c0 .552285-.447715 1-1 1h-17 -4.37114e-08c-.552285-2.41411e-08-1-.447715-1-1 0 0 0-3.55271e-15 0-3.55271e-15v-21l1.24345e-14 1.50996e-07c-8.33927e-08-.552285.447715-1 1-1h13.293l5.86596e-08-1.04994e-10c.264908-.000474147.51918.104184.707.291Z"></path><path d="M18.5 18.749c0 .414-.448.75-1 .75h-11c-.552 0-1-.336-1-.75v-10.5c0-.415.448-.75 1-.75h11c.552 0 1 .335 1 .75Z"></path><line x1="5.5" x2="18.5" y1="13.5" y2="13.5"></line><line x1="5.5" x2="18.5" y1="10.5" y2="10.5"></line><line x1="5.5" x2="18.5" y1="16.5" y2="16.5"></line><line x1="9.5" x2="9.5" y1="7.5" y2="19.5"></line></g></svg>