<?xml version="1.0" encoding="utf-8"?>
<!-- Generator: Adobe Illustrator 24.0.0, SVG Export Plug-In . SVG Version: 6.00 Build 0)  -->
<svg version="1.1" id="Laag_1" xmlns="http://www.w3.org/2000/svg" xmlns:xlink="http://www.w3.org/1999/xlink" x="0px" y="0px"
	 viewBox="0 0 15 15" style="enable-background:new 0 0 15 15;" xml:space="preserve">
<style type="text/css">
	.st0{fill:none;stroke:#000000;stroke-width:1;stroke-linecap:round;stroke-linejoin:round;}
</style>
<g>
	<path class="st0" d="M13.1,2.9c0.1,0.1,0.2,0.3,0.2,0.4v10.5c0,0.3-0.3,0.6-0.6,0.6H2.3c-0.3,0-0.6-0.3-0.6-0.6V1.1
		c0-0.3,0.3-0.6,0.6-0.6h8.1c0.2,0,0.3,0.1,0.4,0.2L13.1,2.9z"/>
	<path class="st0" d="M4.1,4.4c-0.5-0.9,0.7-1.6,1-0.8C5.7,5.1,6.6,9.2,4.5,12c-0.6,0.8-1.8,0-1.1-0.8C5.3,9,8.1,7.7,11,7.7
		c1,0,1,1.5,0.1,1.4C8.1,8.7,5.5,7,4.1,4.4z"/>
</g>
</svg>
