<svg viewBox="0 0 24 24" xmlns="http://www.w3.org/2000/svg"><g stroke-linecap="round" stroke="#000" fill="none" stroke-linejoin="round"><path d="M21.207 4.5l-.01-.01c.18.18.29.44.29.7v17.29 0c0 .55-.45 1-1 1h-17 -.01c-.56-.01-1-.45-1-1.01 0 0 0-.001 0-.001v-21l0 0C2.46.9 2.91.45 3.46.45h13.29l0-.001c.26-.01.51.1.7.29Z"/><path d="M6.36 6.88C5.5 5.47 7.54 4.191 8.07 5.62c.91 2.46 2.37 9.14-.93 13.677 -.93 1.26-2.92.06-1.85-1.25l-.01 0c3.1-3.66 7.66-5.76 12.46-5.72 1.66.06 1.58 2.43.09 2.25l-.01-.01c-4.83-.64-9.09-3.49-11.5-7.72Z"/></g></svg>