<svg viewBox="0 0 24 24" xmlns="http://www.w3.org/2000/svg"><g stroke-linecap="round" stroke="#000" fill="none" stroke-linejoin="round"><path d="M9.5 3.99a4 4 0 1 0 0 8 4 4 0 1 0 0-8Z"/><path d="M6.171 10.21l3.32-2.22 0-4"/><path d="M21.207 4.5l-.01-.01c.18.18.29.44.29.7v17.29 0c0 .55-.45 1-1 1h-17 -.01c-.56-.01-1-.45-1-1.01 0 0 0-.001 0-.001v-21l0 0C2.46.9 2.91.45 3.46.45h13.29l0-.001c.26-.01.51.1.7.29Z"/><path d="M16 5.5l2.5 0"/><path d="M5.5 14.5l13 0"/><path d="M5.5 17.5l13 0"/><path d="M5.5 20.5l13 0"/><path d="M16 8.5l2.5 0"/><path d="M16 11.5l2.5 0"/></g></svg>