<?xml version="1.0" encoding="UTF-8"?><svg version="1.1" viewBox="0 0 24 24" xmlns="http://www.w3.org/2000/svg" xmlns:xlink="http://www.w3.org/1999/xlink"><g stroke-linecap="round" stroke-width="1" stroke="#000" fill="none" stroke-linejoin="round"><path d="M1.5 23.462l.886-2.662 -2.91687e-08 8.75764e-08c.0679777-.204097.25888-.341837.474-.342h18.28l1.68512e-08 1.27969e-11c.21512.000163345.406022.137903.474.342l.886 2.658"></path><rect width="17" height="11" x="3.5" y="9.462"></rect><line x1="23.5" x2=".5" y1="23.46" y2="23.46"></line><line x1="6.5" x2="6.5" y1="9.46" y2="20.46"></line><line x1="9.5" x2="9.5" y1="9.46" y2="20.46"></line><line x1="14.5" x2="14.5" y1="9.46" y2="20.46"></line><line x1="17.5" x2="17.5" y1="9.46" y2="20.46"></line><path d="M22.37 6.851l-7.39639e-10 2.21997e-09c.0752892-.225974-.0192765-.473686-.226-.592l-9.896-5.659 3.90007e-08 2.25171e-08c-.154701-.0893164-.345299-.0893164-.5-4.50342e-08l-9.9 5.655 -9.20139e-10 5.26621e-10c-.206723.118314-.301289.366026-.226.592l.764 2.273 -2.91687e-08-8.75764e-08c.0679777.204097.25888.341837.474.342h18.28l1.68512e-08-1.27933e-11c.21512-.000163345.406022-.137903.474-.342Z"></path><line x1="22.33" x2="1.66" y1="6.46" y2="6.46"></line></g></svg>