<svg viewBox="0 0 24 24" xmlns="http://www.w3.org/2000/svg"><g stroke-linecap="round" stroke="#000" fill="none" stroke-linejoin="round"><path d="M21.207 4.5l-.01-.01c.18.18.29.44.29.7v17.29 0c0 .55-.45 1-1 1h-17 -.01c-.56-.01-1-.45-1-1.01 0 0 0-.001 0-.001v-21l0 0C2.46.9 2.91.45 3.46.45h13.29l0-.001c.26-.01.51.1.7.29Z"/><path d="M18.5 18.749c0 .41-.45.75-1 .75h-11c-.56 0-1-.34-1-.75V8.24c0-.42.44-.75 1-.75h11c.55 0 1 .33 1 .75Z"/><path d="M5.5 13.5l13 0"/><path d="M5.5 10.5l13 0"/><path d="M5.5 16.5l13 0"/><path d="M9.5 7.5l0 12"/></g></svg>