<svg viewBox="0 0 24 24" xmlns="http://www.w3.org/2000/svg"><g stroke-linecap="round" stroke="#000" fill="none" stroke-linejoin="round"><path d="M21.207 4.5l-.01-.01c.18.18.29.44.29.7v17.29 0c0 .55-.45 1-1 1h-17 -.01c-.56-.01-1-.45-1-1.01 0 0 0-.001 0-.001v-21l0 0C2.46.9 2.91.45 3.46.45h13.29l0-.001c.26-.01.51.1.7.29Z"/><path d="M14.5 5.5l4 0"/><path d="M5.5 14.5l13 0"/><path d="M5.5 17.5l13 0"/><path d="M5.5 20.5l13 0"/><path d="M14.5 8.5l4 0"/><path d="M14.5 11.5l4 0"/><path d="M5.5 5.49l0-1 6 0 0 1"/><path d="M8.5 4.5l0 7"/><path d="M6.5 11.5l4 0"/></g></svg>