<?xml version="1.0" encoding="utf-8"?>
<!-- Generator: Adobe Illustrator 24.0.0, SVG Export Plug-In . SVG Version: 6.00 Build 0)  -->
<svg version="1.1" id="Laag_1" xmlns="http://www.w3.org/2000/svg" xmlns:xlink="http://www.w3.org/1999/xlink" x="0px" y="0px"
	 viewBox="0 0 15 15" style="enable-background:new 0 0 15 15;" xml:space="preserve">
<style type="text/css">
	.st0{fill:none;stroke:#000000;stroke-width:1;stroke-linecap:round;stroke-linejoin:round;}
</style>
<g>
	<path class="st0" d="M13.1,2.9c0.1,0.1,0.2,0.3,0.2,0.4v10.5c0,0.3-0.3,0.6-0.6,0.6H2.3c-0.3,0-0.6-0.3-0.6-0.6V1.1
		c0-0.3,0.3-0.6,0.6-0.6h8.1c0.2,0,0.3,0.1,0.4,0.2L13.1,2.9z"/>
	<path class="st0" d="M11.5,11.6c0,0.3-0.3,0.5-0.6,0.5H4.2c-0.3,0-0.6-0.2-0.6-0.5V5.2c0-0.3,0.3-0.5,0.6-0.5h6.7
		c0.3,0,0.6,0.2,0.6,0.5V11.6z"/>
	<line class="st0" x1="3.5" y1="8.4" x2="11.5" y2="8.4"/>
	<line class="st0" x1="3.5" y1="6.6" x2="11.5" y2="6.6"/>
	<line class="st0" x1="3.5" y1="10.2" x2="11.5" y2="10.2"/>
	<line class="st0" x1="6" y1="4.8" x2="6" y2="12.1"/>
</g>
</svg>
