<?xml version="1.0" encoding="utf-8"?>
<!-- Generator: Adobe Illustrator 24.0.0, SVG Export Plug-In . SVG Version: 6.00 Build 0)  -->
<svg version="1.1" id="Laag_1" xmlns="http://www.w3.org/2000/svg" xmlns:xlink="http://www.w3.org/1999/xlink" x="0px" y="0px"
	 viewBox="0 0 15 15" style="enable-background:new 0 0 15 15;" xml:space="preserve">
<style type="text/css">
	.st0{fill:none;stroke:#000000;stroke-width:1;stroke-linecap:round;stroke-linejoin:round;}
</style>
<g>
	<path class="st0" d="M12.1,7.8h1.8c0.3,0,0.6,0.3,0.6,0.6v4c0,0.2-0.1,0.3-0.3,0.3h-2.1"/>
	<path class="st0" d="M2.9,12.7H0.8c-0.2,0-0.3-0.1-0.3-0.3v-4c0-0.3,0.3-0.6,0.6-0.6h1.8"/>
	<path class="st0" d="M12.1,14.2c0,0.2-0.1,0.3-0.3,0.3H3.2c-0.2,0-0.3-0.1-0.3-0.3V7.8l4.3-1.7C7.4,6,7.6,6,7.7,6.1l4.3,1.7V14.2z"
		/>
	<polyline class="st0" points="3.5,7.6 3.5,5.4 11.5,5.4 11.5,7.6 	"/>
	<path class="st0" d="M3.5,5.4c0-2.2,1.8-4,4-4s4,1.8,4,4"/>
	<line class="st0" x1="7.5" y1="1.4" x2="7.5" y2="0.5"/>
	<line class="st0" x1="4.8" y1="13.3" x2="4.8" y2="9"/>
	<line class="st0" x1="6.6" y1="13.3" x2="6.6" y2="9"/>
	<line class="st0" x1="8.4" y1="13.3" x2="8.4" y2="9"/>
	<line class="st0" x1="10.2" y1="13.3" x2="10.2" y2="9"/>
	<line class="st0" x1="2.9" y1="9" x2="12.1" y2="9"/>
	<line class="st0" x1="2.9" y1="13.3" x2="12.1" y2="13.3"/>
</g>
</svg>
