<?xml version="1.0" encoding="utf-8"?>
<!-- Generator: Adobe Illustrator 24.0.0, SVG Export Plug-In . SVG Version: 6.00 Build 0)  -->
<svg version="1.1" id="Laag_1" xmlns="http://www.w3.org/2000/svg" xmlns:xlink="http://www.w3.org/1999/xlink" x="0px" y="0px"
	 viewBox="0 0 15 15" style="enable-background:new 0 0 15 15;" xml:space="preserve">
<style type="text/css">
	.st0{fill:none;stroke:#000000;stroke-width:1;stroke-linecap:round;stroke-linejoin:round;}
</style>
<g>
	<path class="st0" d="M1.1,14.5l0.5-1.6c0-0.1,0.2-0.2,0.3-0.2h11.1c0.1,0,0.2,0.1,0.3,0.2l0.5,1.6"/>
	<rect x="2.3" y="6" class="st0" width="10.3" height="6.7"/>
	<line class="st0" x1="14.5" y1="14.5" x2="0.5" y2="14.5"/>
	<line class="st0" x1="4.2" y1="6" x2="4.2" y2="12.7"/>
	<line class="st0" x1="6" y1="6" x2="6" y2="12.7"/>
	<line class="st0" x1="9" y1="6" x2="9" y2="12.7"/>
	<line class="st0" x1="10.8" y1="6" x2="10.8" y2="12.7"/>
	<path class="st0" d="M13.8,4.4c0-0.1,0-0.3-0.1-0.4l-6-3.4c-0.1-0.1-0.2-0.1-0.3,0L1.3,4C1.2,4.1,1.1,4.2,1.2,4.4l0.5,1.4
		C1.7,5.9,1.8,6,1.9,6h11.1c0.1,0,0.2-0.1,0.3-0.2L13.8,4.4z"/>
	<line class="st0" x1="13.8" y1="4.1" x2="1.2" y2="4.1"/>
</g>
</svg>
