<?xml version="1.0" encoding="UTF-8"?><svg version="1.1" viewBox="0 0 24 24" xmlns="http://www.w3.org/2000/svg" xmlns:xlink="http://www.w3.org/1999/xlink"><g stroke-linecap="round" stroke-width="1" stroke="#000" fill="none" stroke-linejoin="round"><path d="M20.5 23.5h-4.37114e-08c.552285 2.41411e-08 1-.447715 1-1v-16.027l-2.14098e-08-6.29703e-05c-.00113908-3.29912-2.67594-5.97297-5.97506-5.97294h-12.0249l-4.37114e-08 3.55271e-15c-.552285 2.41411e-08-1 .447715-1 1 0 0 0 0 0 0v21l1.15463e-14 1.50996e-07c8.33927e-08.552285.447715 1 1 1Z"></path><path d="M16.5.579v3.921l1.06581e-14 1.50996e-07c8.33927e-08.552285.447715 1 1 1h3.92"></path><path d="M8.479 15v0c0 .828427-.671573 1.5-1.5 1.5h-1.5v-3h1.5l-6.55671e-08 1.77636e-15c.828427-3.62117e-08 1.5.671573 1.5 1.5Z"></path><line x1="5.48" x2="5.48" y1="19.5" y2="16.5"></line><path d="M10.479 13.5l-1.31134e-07 3.55271e-15c1.65685-7.24234e-08 3 1.34315 3 3 7.24234e-08 1.65685-1.34315 3-3 3Z"></path><path d="M15.479 19.5v-5l8.88178e-15 1.50996e-07c-8.33927e-08-.552285.447715-1 1-1h2"></path><line x1="15.48" x2="17.48" y1="16.5" y2="16.5"></line></g></svg>