<?xml version="1.0" encoding="UTF-8"?><svg version="1.1" viewBox="0 0 24 24" xmlns="http://www.w3.org/2000/svg" xmlns:xlink="http://www.w3.org/1999/xlink"><g stroke-linecap="round" stroke-width="1" stroke="#000" fill="none" stroke-linejoin="round"><path d="M20.5 23.5h-4.37114e-08c.552285 2.41411e-08 1-.447715 1-1v-16.027l-2.14098e-08-6.29703e-05c-.00113908-3.29912-2.67594-5.97297-5.97506-5.97294h-12.0249l-4.37114e-08 3.55271e-15c-.552285 2.41411e-08-1 .447715-1 1 0 0 0 0 0 0v21l1.15463e-14 1.50996e-07c8.33927e-08.552285.447715 1 1 1Z"></path><path d="M16.5.579v3.921l1.06581e-14 1.50996e-07c8.33927e-08.552285.447715 1 1 1h3.92"></path><line x1="15" x2="18" y1="12.5" y2="12.5"></line><line x1="16.5" x2="16.5" y1="12.5" y2="18.5"></line><line x1="5" x2="8" y1="12.5" y2="12.5"></line><line x1="6.5" x2="6.5" y1="12.5" y2="18.5"></line><line x1="10" x2="13" y1="18.5" y2="12.5"></line><line x1="13" x2="10" y1="18.5" y2="12.5"></line></g></svg>