<svg viewBox="0 0 24 24" xmlns="http://www.w3.org/2000/svg"><g stroke-linecap="round" stroke="#000" fill="none" stroke-linejoin="round"><path d="M14.821 22.5l-.01-.01c-1.48-.18-2.9-.68-4.16-1.47l2.03-7.05 0 0c1.25.97 2.81 1.47 4.39 1.43l-.01 0c1.31-.03 2.61-.27 3.84-.74l-1.96 6.84 -.01 0c-1.32.59-2.73.92-4.17.97"/><path d="M8.371 20.28l-.01-.01c-1.17-.89-2.59-1.39-4.05-1.42l-.01 0c-1.32.04-2.62.33-3.83.86l2.03-7.06 0-.01c1.27-.55 2.64-.87 4.03-.93l0 0c1.4.06 2.76.53 3.91 1.34 -.27.92-1.69 5.77-2.11 7.18Z"/><path d="M12.932 3.08v0c-.42 1.43-1.657 5.67-2.08 7.08l0 0c-1.13-.86-2.5-1.35-3.91-1.41l-.01 0c-1.37.05-2.71.36-3.95.92l2-7.05 0-.01c1.19-.53 2.48-.83 3.79-.89l0 0c1.48 0 2.92.46 4.13 1.31Z"/><path d="M17.558 12.5l-.01-.01c-1.57-.01-3.09-.49-4.38-1.37l-.03-.02 2.05-7.12 0 0c1.24.95 2.77 1.47 4.34 1.45l0-.01c1.35-.03 2.69-.33 3.93-.9l-2.029 6.989 -.01 0v0l0-.01c-1.22.59-2.55.91-3.9.93"/></g></svg>