<?xml version="1.0" encoding="utf-8"?>
<!-- Generator: Adobe Illustrator 24.0.0, SVG Export Plug-In . SVG Version: 6.00 Build 0)  -->
<svg version="1.1" id="Light" xmlns="http://www.w3.org/2000/svg" xmlns:xlink="http://www.w3.org/1999/xlink" x="0px" y="0px"
	 viewBox="0 0 15 15" style="enable-background:new 0 0 15 15;" xml:space="preserve">
<style type="text/css">
	.st0{fill:none;stroke:#000000;stroke-width:1;stroke-linecap:round;stroke-linejoin:round;}
</style>
<g>
	<path class="st0" d="M7.6,8.2L6.4,6.6c0.2,0.2,0.6,0.2,0.8,0c0.2-0.2,0.2-0.6,0-0.8l0,0l-1.6-2C6.2,4.4,6.9,3.7,6.4,3L4.6,1.1
		C4.4,0.9,4,0.9,3.7,1.1c0,0,0,0,0,0L1.9,3C1.4,3.7,2.1,4.4,2.7,3.9l-1.6,2c-0.2,0.2-0.2,0.6,0,0.8s0.6,0.2,0.8,0L0.7,8.2
		C0.4,8.4,0.4,8.8,0.7,9c0.1,0.1,0.3,0.2,0.4,0.2h6.2c0.3,0,0.6-0.3,0.6-0.6C7.8,8.5,7.7,8.3,7.6,8.2z"/>
	<path class="st0" d="M14,7l-1.4-1.8c0.5,0.5,1.1-0.2,0.7-0.8l-1.4-1.9c-0.2-0.3-0.6-0.3-0.8-0.1c-0.1,0-0.1,0.1-0.1,0.1L9.6,4.4
		c-0.4,0.6,0.2,1.3,0.7,0.8L8.9,7c-0.2,0.2-0.2,0.6,0,0.8C9,7.9,9.1,7.9,9.2,8h4.6c0.3-0.1,0.5-0.4,0.4-0.7C14.2,7.2,14.1,7.1,14,7z
		"/>
	<line class="st0" x1="4.2" y1="9.2" x2="4.2" y2="11.6"/>
	<line class="st0" x1="11.5" y1="8" x2="11.5" y2="9.8"/>
	<path class="st0" d="M0.5,11.9c3.2-0.8,6.6,0,9.1,2.1"/>
	<path class="st0" d="M7.2,11.2c2.2-1.3,4.8-1.7,7.3-1.1"/>
</g>
</svg>
