<?xml version="1.0" encoding="UTF-8"?><svg version="1.1" viewBox="0 0 24 24" xmlns="http://www.w3.org/2000/svg" xmlns:xlink="http://www.w3.org/1999/xlink"><g stroke-linecap="round" stroke-width="1" stroke="#000" fill="none" stroke-linejoin="round"><path d="M12.221 13.161l-2.021-2.581 -7.10746e-08-7.29664e-08c.363127.372792.959708.380627 1.3325.0175002 .372792-.363127.380627-.959708.0175002-1.3325 -5.84211e-09-5.9976e-09-1.60658e-08-1.64934e-08-2.19079e-08-2.2491e-08l-2.66-3.207c.93.924 2.188-.36 1.263-1.4l-2.926-3.112 2.83692e-08 3.00807e-08c-.378927-.401787-1.01182-.420319-1.41361-.0413924 -.0141984.0133906-.0280018.0271939-.0413923.0413923l-2.925 3.114c-.925 1.038.333 2.322 1.262 1.4l-2.66 3.205 -3.194e-08 3.28144e-08c-.363127.373068-.355068.969873.0180001 1.333 .373068.363127.969873.355068 1.333-.0180001l-2.022 2.581 -2.15579e-08 2.15448e-08c-.368376.368153-.368557.965227-.000403796 1.3336 .176226.176333.415108.275709.664404.276397h10.115l1.80644e-08-4.98019e-11c.520803-.00143581.941832-.424794.940397-.945596 -.000687289-.249296-.100063-.488177-.276397-.664404Z"></path><path d="M22.759 11.249l-2.267-3.038c.792.876 1.738-.4 1.076-1.323l-2.268-3.047 -2.25782e-09-3.08827e-09c-.323019-.441828-.943049-.538142-1.38488-.215123 -.0823528.0602078-.154915.13277-.215123.215123l-2.263 3.047c-.662.919.284 2.2 1.077 1.323l-2.268 3.038 -3.7578e-08 4.22473e-08c-.342094.384602-.307634.973704.0769674 1.3158 .111819.0994599.245944.170531.391033.207202h7.577l-9.20454e-09 2.32646e-09c.499036-.126132.801334-.632931.675202-1.13197 -.0366715-.145089-.107742-.279214-.207202-.391033Z"></path><line x1="6.5" x2="6.5" y1="14.77" y2="18.77"></line><line x1="18.5" x2="18.5" y1="12.77" y2="15.77"></line><path d="M.5 19.246l-5.0363e-07 1.21392e-07c5.26003-1.26785 10.8095.0399052 14.95 3.523"></path><path d="M11.571 18.037l-7.71061e-07 4.7917e-07c3.56177-2.21343 7.8861-2.83876 11.929-1.725"></path></g></svg>