<?xml version="1.0" encoding="UTF-8"?><svg version="1.1" viewBox="0 0 24 24" xmlns="http://www.w3.org/2000/svg" xmlns:xlink="http://www.w3.org/1999/xlink"><g stroke-linecap="round" stroke-width="1" stroke="#000" fill="none" stroke-linejoin="round"><path d="M19.5 11.5v11 0c0 .552285-.447715 1-1 1h-17 -4.37114e-08c-.552285-2.41411e-08-1-.447715-1-1 0 0 0-3.55271e-15 0-3.55271e-15v-19l1.13243e-14 1.50996e-07c-8.33927e-08-.552285.447715-1 1-1h13"></path><polygon points="12.824,14.007 7.875,16.127 9.996,11.177 20.674,.5 23.502,3.328 12.824,14.007"></polygon><line x1="21.67" x2="18.84" y1="5.16" y2="2.34"></line><line x1="12.82" x2="10" y1="14.01" y2="11.18"></line></g></svg>