<?xml version="1.0" encoding="UTF-8"?><svg version="1.1" viewBox="0 0 24 24" xmlns="http://www.w3.org/2000/svg" xmlns:xlink="http://www.w3.org/1999/xlink"><path d="M9.086 7.4l-4.25881e-08 4.26637e-08c.902129-.90373.902129-2.36727 8.51762e-08-3.271l-2.454-2.451 2.67762e-08 2.6775e-08c-.903274-.903232-2.36773-.903232-3.271-5.355e-08l-1.345 1.346 -1.75747e-07 1.75468e-07c-1.16681 1.16496-1.35046 2.99102-.439 4.365l-1.0522e-07-1.58376e-07c3.9609 5.96189 9.0721 11.0731 15.034 15.034l6.47003e-08 4.28469e-08c1.37432.910129 3.19933.727461 4.366-.437l1.345-1.346 7.85972e-08-7.85328e-08c.903262-.902523.903861-2.3664.00133836-3.26966 -.00044599-.000446355-.000892163-.000892528-.00133852-.00133852l-2.453-2.453 4.48429e-08 4.48797e-08c-.902522-.903262-2.3664-.903861-3.26966-.00133861 -.000446355.00044599-.000892528.000892163-.00133852.00133852l-.818.818 -2.27121e-06-1.86908e-06c-2.74113-2.2558-5.25692-4.77226-7.51199-7.51399Z" stroke-linecap="round" stroke-width="1" stroke="#000" fill="none" stroke-linejoin="round"></path></svg>