<?xml version="1.0" encoding="utf-8"?>
<!-- Generator: Adobe Illustrator 24.0.0, SVG Export Plug-In . SVG Version: 6.00 Build 0)  -->
<svg version="1.1" id="Laag_1" xmlns="http://www.w3.org/2000/svg" xmlns:xlink="http://www.w3.org/1999/xlink" x="0px" y="0px"
	 viewBox="0 0 15 15" style="enable-background:new 0 0 15 15;" xml:space="preserve">
<style type="text/css">
	.st0{fill:none;stroke:#000000;stroke-width:1;stroke-linecap:round;stroke-linejoin:round;}
</style>
<g>
	<line class="st0" x1="1.7" y1="0.5" x2="1.7" y2="2.3"/>
	<line class="st0" x1="6.6" y1="0.5" x2="6.6" y2="2.3"/>
	<line class="st0" x1="2.9" y1="4.2" x2="5.4" y2="4.2"/>
	<path class="st0" d="M4.2,10.2v1.8c0,1.3,1.1,2.4,2.4,2.4S9,13.4,9,12.1v-0.5c0-1.8,1.4-3.2,3.2-3.2h2.3"/>
	<path class="st0" d="M2.9,8.2v1.4c0,0.3,0.3,0.6,0.6,0.6h1.2c0.3,0,0.6-0.3,0.6-0.6V8.2"/>
	<path class="st0" d="M7.8,4.8c0,2-1.6,3.7-3.7,3.7S0.5,6.8,0.5,4.8V2.9c0-0.3,0.3-0.6,0.6-0.6h6.1c0.3,0,0.6,0.3,0.6,0.6V4.8z"/>
</g>
</svg>
