<svg viewBox="0 0 24 24" xmlns="http://www.w3.org/2000/svg"><g stroke-linecap="round" stroke="#000" fill="none" stroke-linejoin="round"><path d="M2.5.5l0 3"/><path d="M10.5.5l0 3"/><path d="M4.5 6.5l4 0"/><path d="M6.5 16.5v3l0 0c0 2.2 1.79 3.99 4 3.99 2.2-.01 3.99-1.8 3.99-4.01v-.75l-.01 0c0-2.9 2.34-5.25 5.24-5.26h3.75"/><path d="M4.5 13.158v2.34l0 0c0 .55.44.99 1 .99h2 -.01c.55 0 1-.45 1-1v-2.35"/><path d="M12.5 7.5v0c0 3.31-2.69 6-6 6 -3.32 0-6-2.69-6-6v-3l0 0c-.01-.56.44-1.01.99-1.01h10l-.01 0c.55-.01 1 .44 1 .99Z"/></g></svg>