<?xml version="1.0" encoding="UTF-8"?><svg version="1.1" viewBox="0 0 24 24" xmlns="http://www.w3.org/2000/svg" xmlns:xlink="http://www.w3.org/1999/xlink"><g stroke-linecap="round" stroke-width="1" stroke="#000" fill="none" stroke-linejoin="round"><line x1="2.5" x2="2.5" y1=".5" y2="3.5"></line><line x1="10.5" x2="10.5" y1=".5" y2="3.5"></line><line x1="4.5" x2="8.5" y1="6.5" y2="6.5"></line><path d="M6.5 16.5v3l4.61853e-14 6.03983e-07c3.33571e-07 2.20914 1.79086 4 4 4 2.20914-3.33571e-07 4-1.79086 4-4v-.75l-9.52018e-08.000999112c4.37777e-07-2.89927 2.34973-5.2499 5.249-5.251h3.751"></path><path d="M4.5 13.158v2.342l1.15463e-14 1.50996e-07c8.33927e-08.552285.447715 1 1 1h2 -4.37114e-08c.552285 2.41411e-08 1-.447715 1-1v-2.342"></path><path d="M12.5 7.5v0c0 3.31371-2.68629 6-6 6 -3.31371 0-6-2.68629-6-6v-3l1.06581e-14 1.50996e-07c-8.33927e-08-.552285.447715-1 1-1h10l-4.37114e-08 8.88178e-16c.552285-2.41411e-08 1 .447715 1 1Z"></path></g></svg>