<?xml version="1.0" encoding="utf-8"?>
<!-- Generator: Adobe Illustrator 24.0.0, SVG Export Plug-In . SVG Version: 6.00 Build 0)  -->
<svg version="1.1" id="Laag_1" xmlns="http://www.w3.org/2000/svg" xmlns:xlink="http://www.w3.org/1999/xlink" x="0px" y="0px"
	 viewBox="0 0 15 15" style="enable-background:new 0 0 15 15;" xml:space="preserve">
<style type="text/css">
	.st0{fill:none;stroke:#000000;stroke-width:1;stroke-linecap:round;stroke-linejoin:round;}
</style>
<path class="st0" d="M5.6,4.6c0.6-0.6,0.6-1.5,0-2.1L4.1,0.9C3.5,0.4,2.6,0.4,2,0.9L1.1,1.8C0.4,2.5,0.3,3.7,0.9,4.6
	c2.5,3.8,5.8,7,9.6,9.6c0.9,0.6,2,0.5,2.8-0.3l0.9-0.9c0.6-0.6,0.6-1.5,0-2.1c0,0,0,0,0,0l-1.6-1.6c-0.6-0.6-1.5-0.6-2.1,0
	c0,0,0,0,0,0L9.9,9.9c-1.7-1.4-3.3-3-4.8-4.8L5.6,4.6z"/>
</svg>
