<svg viewBox="0 0 24 24" xmlns="http://www.w3.org/2000/svg"><path fill="none" stroke="#000" stroke-linecap="round" stroke-linejoin="round" d="M9.08 7.4l-.01 0c.9-.91.9-2.37 0-3.28L6.61 1.66l0 0C5.7.75 4.24.75 3.33 1.65L1.98 2.99l-.01 0C.8 4.15.61 5.98 1.53 7.35l-.01-.01c3.96 5.96 9.07 11.07 15.03 15.03l0 0c1.37.91 3.19.72 4.36-.44l1.34-1.35 0-.01c.9-.91.9-2.37 0-3.27 -.01-.01-.01-.01-.01-.01l-2.46-2.46 0 0c-.91-.91-2.37-.91-3.27-.01 -.01 0-.01 0-.01 0l-.82.81 -.01-.01c-2.75-2.26-5.26-4.78-7.52-7.52Z"/></svg>