<?xml version="1.0" encoding="utf-8"?>
<!-- Generator: Adobe Illustrator 24.0.0, SVG Export Plug-In . SVG Version: 6.00 Build 0)  -->
<svg version="1.1" id="Laag_1" xmlns="http://www.w3.org/2000/svg" xmlns:xlink="http://www.w3.org/1999/xlink" x="0px" y="0px"
	 viewBox="0 0 15 15" style="enable-background:new 0 0 15 15;" xml:space="preserve">
<style type="text/css">
	.st0{fill:none;stroke:#000000;stroke-width:1;stroke-linecap:round;stroke-linejoin:round;}
</style>
<g>
	<circle class="st0" cx="4.5" cy="5.4" r="2.1"/>
	<polyline class="st0" points="4.5,3.2 4.5,5.4 6.6,5.4 	"/>
	<path class="st0" d="M5.7,13.9c0.6-0.7,0.9-1.5,0.9-2.4"/>
	<path class="st0" d="M9.3,13.9c-0.6-0.7-0.9-1.5-0.9-2.4"/>
	<line class="st0" x1="4.8" y1="13.9" x2="10.2" y2="13.9"/>
	<line class="st0" x1="0.5" y1="9.6" x2="14.5" y2="9.6"/>
	<path class="st0" d="M1.1,1.1h12.8c0.3,0,0.6,0.3,0.6,0.6v9.1c0,0.3-0.3,0.6-0.6,0.6H1.1c-0.3,0-0.6-0.3-0.6-0.6V1.7
		C0.5,1.4,0.8,1.1,1.1,1.1z"/>
	<polyline class="st0" points="8.4,4.5 9.3,3.2 11.2,4.8 12.7,2.9 	"/>
	<line class="st0" x1="12.1" y1="7.8" x2="12.1" y2="6.9"/>
	<line class="st0" x1="10.8" y1="7.8" x2="10.8" y2="6.6"/>
	<line class="st0" x1="9.6" y1="7.8" x2="9.6" y2="6"/>
	<line class="st0" x1="8.4" y1="7.8" x2="8.4" y2="6.9"/>
</g>
</svg>
