<?xml version="1.0" encoding="UTF-8"?><svg version="1.1" viewBox="0 0 24 24" xmlns="http://www.w3.org/2000/svg" xmlns:xlink="http://www.w3.org/1999/xlink"><g stroke-linecap="round" stroke-width="1" stroke="#000" fill="none" stroke-linejoin="round"><circle cx="7" cy="8.5" r="3.5"></circle><polyline points="7,5 7,8.5 10.5,8.5"></polyline><path d="M9 22.5l-9.38611e-08 1.18516e-07c.905822-1.14376 1.43041-2.54265 1.5-4"></path><path d="M15 22.5l-2.6672e-08-3.36781e-08c-.905822-1.14376-1.43041-2.54265-1.5-4"></path><line x1="7.5" x2="16.5" y1="22.5" y2="22.5"></line><line x1=".5" x2="23.5" y1="15.5" y2="15.5"></line><rect width="23" height="17" x=".5" y="1.5" rx=".55228" ry="0"></rect><polyline points="13.5,7 15,5 18,7.5 20.5,4.5"></polyline><line x1="19.5" x2="19.5" y1="12.5" y2="11"></line><line x1="17.5" x2="17.5" y1="12.5" y2="10.5"></line><line x1="15.5" x2="15.5" y1="12.5" y2="9.5"></line><line x1="13.5" x2="13.5" y1="12.5" y2="11"></line></g></svg>