<svg viewBox="0 0 24 24" xmlns="http://www.w3.org/2000/svg"><g stroke-linecap="round" stroke="#000" fill="none" stroke-linejoin="round"><path d="M9.91 14.09L.5 23.5"/><path d="M21.414 8.585l-.01-.01c.27.27.72.27.99 0 0-.01 0-.01 0-.01l.79-.8 -.01 0c.39-.4.39-1.03 0-1.42L17.58.75l0 0c-.4-.4-1.03-.4-1.42-.01l-.8.79 0-.01c-.28.27-.28.72-.01.99 0 0 0 0 0 0l-.01-.01c.27.27.27.72 0 .99 -.01 0-.01 0-.01 0l-4.21 4.2 0-.01c-.19.18-.45.29-.71.29H7.23l0-.001c-.27 0-.52.1-.71.29l-.5.5 0-.01c-.4.39-.4 1.02-.01 1.41l7.586 7.58 -.01-.01c.39.39 1.02.39 1.41 0l.5-.5 -.01 0c.18-.19.29-.45.29-.71v-3.18l-.01 0c0-.27.1-.52.29-.71l4.2-4.21 0-.01c.27-.28.72-.28.99-.01 0 0 0 0 0 0Z"/></g></svg>