<?xml version="1.0" encoding="UTF-8"?><svg version="1.1" viewBox="0 0 24 24" xmlns="http://www.w3.org/2000/svg" xmlns:xlink="http://www.w3.org/1999/xlink"><g stroke-linecap="round" stroke-width="1" stroke="#000" fill="none" stroke-linejoin="round"><circle cx="12" cy="7" r="3.5"></circle><path d="M12 .5l7.41515e-08 1.08145e-11c3.78607.000552269 6.855 3.06993 6.855 6.856 0 3.215-4.942 11.185-6.434 13.517l-2.13113e-10 3.32623e-10c-.148973.232512-.458227.300234-.690739.151261 -.060742-.038918-.112343-.0905192-.151261-.151261 -1.492-2.332-6.434-10.3-6.434-13.517l-7.29502e-08-.000999039c-5.71657e-07-3.78591 3.06909-6.855 6.855-6.855 .000333382-5.03393e-11.000666765 2.42196e-08.00100015 7.28099e-08Z"></path><path d="M17 19.7c3.848.324 6.5 1.009 6.5 1.8 0 1.105-5.148 2-11.5 2 -6.352 0-11.5-.895-11.5-2 0-.79 2.635-1.473 6.458-1.8"></path></g></svg>