<?xml version="1.0" encoding="utf-8"?>
<!-- Generator: Adobe Illustrator 24.0.0, SVG Export Plug-In . SVG Version: 6.00 Build 0)  -->
<svg version="1.1" id="Laag_1" xmlns="http://www.w3.org/2000/svg" xmlns:xlink="http://www.w3.org/1999/xlink" x="0px" y="0px"
	 viewBox="0 0 15 15" style="enable-background:new 0 0 15 15;" xml:space="preserve">
<style type="text/css">
	.st0{fill:none;stroke:#000000;stroke-width:1;stroke-linecap:round;stroke-linejoin:round;}
</style>
<g>
	<circle class="st0" cx="7.5" cy="4.5" r="2.1"/>
	<path class="st0" d="M7.5,0.5c2.3,0,4.2,1.9,4.2,4.2c0,2-3,6.8-3.9,8.2C7.7,13,7.5,13.1,7.3,13c0,0-0.1-0.1-0.1-0.1
		c-0.9-1.4-3.9-6.3-3.9-8.2C3.3,2.4,5.2,0.5,7.5,0.5C7.5,0.5,7.5,0.5,7.5,0.5z"/>
	<path class="st0" d="M10.5,12.2c2.3,0.2,4,0.6,4,1.1c0,0.7-3.1,1.2-7,1.2s-7-0.5-7-1.2c0-0.5,1.6-0.9,3.9-1.1"/>
</g>
</svg>
