<?xml version="1.0" encoding="utf-8"?>
<!-- Generator: Adobe Illustrator 24.0.0, SVG Export Plug-In . SVG Version: 6.00 Build 0)  -->
<svg version="1.1" id="Laag_1" xmlns="http://www.w3.org/2000/svg" xmlns:xlink="http://www.w3.org/1999/xlink" x="0px" y="0px"
	 viewBox="0 0 15 15" style="enable-background:new 0 0 15 15;" xml:space="preserve">
<style type="text/css">
	.st0{fill:none;stroke:#000000;stroke-width:1;stroke-linecap:round;stroke-linejoin:round;}
</style>
<g>
	<path class="st0" d="M13.7,9.4l-10-3.9L3,3.5c0-0.1-0.1-0.2-0.2-0.2L1,2.6c-0.2-0.1-0.4,0-0.5,0.2c0,0,0,0.1,0,0.1v3.8
		c0,0.1,0.1,0.3,0.2,0.3l5,2l-4.5,2.1c-0.2,0.1-0.3,0.3-0.2,0.5c0,0.1,0.1,0.1,0.2,0.2l1.9,0.7c0.1,0,0.1,0,0.2,0l5.8-1.7l3.3,1.2
		c0.7,0.3,1.5-0.1,1.8-0.8C14.7,10.5,14.3,9.7,13.7,9.4z"/>
	<path class="st0" d="M10.5,8.1L8.6,3.5c0-0.1-0.1-0.2-0.2-0.2L6.9,2.7c-0.2-0.1-0.4,0-0.5,0.2c0,0.1,0,0.2,0,0.3l1.5,4"/>
</g>
</svg>
