<?xml version="1.0" encoding="UTF-8"?><svg version="1.1" viewBox="0 0 24 24" xmlns="http://www.w3.org/2000/svg" xmlns:xlink="http://www.w3.org/1999/xlink"><g stroke-linecap="round" stroke-width="1" stroke="#000" fill="none" stroke-linejoin="round"><path d="M20.513 4.912l-13.667 5.945 -2.793-1.4 4.03473e-08 2.02741e-08c-.131573-.0661141-.285599-.0708702-.421-.013l-2.608 1.122 -8.86528e-09 3.81091e-09c-.253696.109056-.370949.403124-.261893.65682 .0250653.0583092.0610029.111313.105893.15618l3.744 3.745 -1.18898e-08-1.18714e-08c.141725.141506.354214.184791.54.11l7.194-2.877 -2.553 6.808 1.47249e-08-3.93166e-08c-.0968513.258601.0342726.546752.292874.643603 .129826.0486226.274013.041161.398126-.0206032l2.716-1.357 3.88428e-08-1.94653e-08c.0964433-.0483307.174669-.126557.223-.223l3.926-7.851 4.7-1.75 2.72588e-08-1.06698e-08c1.02858-.402612 1.53603-1.56282 1.13342-2.5914 -.402612-1.02858-1.56282-1.53603-2.5914-1.13342 -.0241948.00947043-.0482027.0194114-.0720101.0298174Z"></path><path d="M16.017 6.867l-6.466-2.667 -3.14178e-08-1.29865e-08c-.122315-.0505584-.259685-.0505584-.382 2.59729e-08l-2.389.99 3.20053e-08-1.32452e-08c-.255156.105595-.376399.398041-.270804.653196 .0507501.122631.148173.220054.270804.270804l5.62 2.325"></path></g></svg>