<?xml version="1.0" encoding="utf-8"?>
<!-- Generator: Adobe Illustrator 24.0.0, SVG Export Plug-In . SVG Version: 6.00 Build 0)  -->
<svg version="1.1" id="Laag_1" xmlns="http://www.w3.org/2000/svg" xmlns:xlink="http://www.w3.org/1999/xlink" x="0px" y="0px"
	 viewBox="0 0 15 15" style="enable-background:new 0 0 15 15;" xml:space="preserve">
<style type="text/css">
	.st0{fill:none;stroke:#000000;stroke-width:1;stroke-linecap:round;stroke-linejoin:round;}
</style>
<g>
	<path class="st0" d="M13.3,6H4L2.9,4.8C2.8,4.8,2.7,4.7,2.6,4.7H0.8C0.6,4.7,0.5,4.9,0.5,5c0,0,0,0.1,0,0.1l1.5,3.1
		c0.1,0.1,0.2,0.2,0.3,0.2h4.7l-3.2,3.2c-0.1,0.1-0.1,0.3,0,0.4c0.1,0.1,0.1,0.1,0.2,0.1h2.2c0.1,0,0.2,0,0.2-0.1l3.6-3.6h3.1
		c0.7,0,1.2-0.6,1.2-1.2S13.9,6,13.3,6L13.3,6z"/>
	<path class="st0" d="M10.2,6l-3-3C7.1,2.9,7.1,2.9,7,2.9H5.4C5.2,2.9,5.1,3,5.1,3.2c0,0.1,0,0.2,0.1,0.2L7.7,6"/>
</g>
</svg>
