<?xml version="1.0" encoding="UTF-8"?><svg version="1.1" viewBox="0 0 24 24" xmlns="http://www.w3.org/2000/svg" xmlns:xlink="http://www.w3.org/1999/xlink"><g stroke-linecap="round" stroke-width="1" stroke="#000" fill="none" stroke-linejoin="round"><path d="M20.791 14.739l-14.317-5.561 -.929-2.787 1.83931e-08 5.4409e-08c-.0456578-.135061-.1468-.244208-.278-.3l-2.6-1.113 1.62231e-09 7.08036e-10c-.253089-.110457-.547801.00516824-.658258.258257 -.0276319.0633124-.0418447.131664-.0417421.200743v5.4l-1.3542e-08-.000116295c3.0847e-08.20429.124281.388033.313892.464073l7.186 2.874 -6.422 3 -5.97027e-08 2.79186e-08c-.250143.116974-.358099.414581-.241125.664725 .0553442.118351.154815.210338.277125.256275l2.73611 1.02404 2.21494e-08 8.27273e-09c.101672.0379743.21294.0418353.317.011l8.34-2.453 4.787 1.756 3.19407e-08 1.25024e-08c1.02858.402612 2.18879-.104836 2.5914-1.13342 .391561-1.00035-.0770731-2.13135-1.06141-2.56159Z"></path><path d="M16.23 12.943l-2.679-6.575 7.45018e-09 1.83023e-08c-.0495795-.121798-.145146-.219161-.266-.271l-2.229-.955 -6.0887e-09-2.60158e-09c-.253933-.108501-.547744.00939589-.656245.263329 -.0507914.118871-.0535707.252794-.00775487.373671l2.171 5.721"></path></g></svg>