<?xml version="1.0" encoding="UTF-8"?><svg version="1.1" viewBox="0 0 24 24" xmlns="http://www.w3.org/2000/svg" xmlns:xlink="http://www.w3.org/1999/xlink"><g stroke-linecap="round" stroke-width="1" stroke="#000" fill="none" stroke-linejoin="round"><path d="M21.345 9.544h-15l-1.853-1.854 2.46639e-08 2.46018e-08c-.0939507-.0937139-.221301-.146237-.354-.146h-2.983l-1.41297e-08-2.77982e-11c-.276142-.000543278-.500439.222873-.500983.499015 -.00015366.0781037.0179921.155157.0529827.224985l2.5 5 6.27312e-09 1.25188e-08c.0849324.169493.258418.276373.448.276h7.69l-5.145 5.146 -1.15586e-08 1.15294e-08c-.195509.195015-.19591.511597-.000895363.707106 .0940233.0942617.221758.147132.354895.146894h3.585l2.7658e-08-5.85842e-12c.132843-2.81507e-05.260213-.0529194.354-.147l5.853-5.853h5l-8.74228e-08-1.77636e-15c1.10457 4.82823e-08 2-.89543 2-2 4.82823e-08-1.10457-.89543-2-2-2Z"></path><path d="M16.345 9.544l-4.853-4.854 2.46639e-08 2.46018e-08c-.0939507-.0937139-.221301-.146237-.354-.146h-2.585l1.52093e-08 5.82219e-11c-.27614-.00105707-.500853.221942-.50191.498082 -.000514779.134476.0531614.263491.14891.357918l4.146 4.147"></path></g></svg>