<?xml version="1.0" encoding="utf-8"?>
<!-- Generator: Adobe Illustrator 24.0.0, SVG Export Plug-In . SVG Version: 6.00 Build 0)  -->
<svg version="1.1" id="Laag_1" xmlns="http://www.w3.org/2000/svg" xmlns:xlink="http://www.w3.org/1999/xlink" x="0px" y="0px"
	 viewBox="0 0 15 15" style="enable-background:new 0 0 15 15;" xml:space="preserve">
<style type="text/css">
	.st0{fill:none;stroke:#000000;stroke-width:1;stroke-linecap:round;stroke-linejoin:round;}
</style>
<g>
	<path class="st0" d="M12.8,3.1L4.3,6.8L2.6,5.9c-0.1,0-0.2,0-0.3,0L0.7,6.6C0.5,6.7,0.5,6.9,0.5,7c0,0,0,0.1,0.1,0.1l2.3,2.3
		C3,9.5,3.1,9.5,3.2,9.5l4.5-1.8l-1.6,4.2c-0.1,0.2,0,0.3,0.2,0.4c0.1,0,0.2,0,0.2,0l1.7-0.8c0.1,0,0.1-0.1,0.1-0.1l2.4-4.9l2.9-1.1
		c0.6-0.2,1-1,0.7-1.6C14.2,3.2,13.4,2.8,12.8,3.1C12.8,3.1,12.8,3.1,12.8,3.1L12.8,3.1z"/>
	<path class="st0" d="M10,4.3L6,2.7c-0.1,0-0.2,0-0.2,0L4.3,3.3C4.1,3.3,4,3.5,4.1,3.7c0,0.1,0.1,0.1,0.2,0.2l3.5,1.4"/>
</g>
</svg>
