<svg viewBox="0 0 24 24" xmlns="http://www.w3.org/2000/svg"><g stroke-linecap="round" stroke="#000" fill="none" stroke-linejoin="round"><path d="M7.5 19.5l9 0"/><path d="M7.5 16.5l9 0"/><path d="M5.5 16.5h-3l-.01-.001c-1.11-.01-2-.9-2-2v-6l0-.01c0-1.11.89-2 2-2h19l0 0c1.1 0 1.99.89 1.99 2v6l-.01 0c-.01 1.1-.9 1.99-2.01 1.99h-3"/><path d="M5.5 4.5v-4h9.586l0 0c.26 0 .51.1.7.29l2.41 2.414 -.01-.01c.18.18.29.44.29.7v.58"/><path d="M18.5 22.5v0c0 .55-.45 1-1 1h-11 -.01c-.56-.01-1-.45-1-1.01 0 0 0-.001 0-.001v-9h13Z"/><path d="M3.5 8.49a1 1 0 1 0 0 2 1 1 0 1 0 0-2Z"/><path d="M14.5.499l0 4 4 0"/></g></svg>