<?xml version="1.0" encoding="UTF-8"?><svg version="1.1" viewBox="0 0 24 24" xmlns="http://www.w3.org/2000/svg" xmlns:xlink="http://www.w3.org/1999/xlink"><g stroke-linecap="round" stroke-width="1" stroke="#000" fill="none" stroke-linejoin="round"><line x1="7.5" x2="16.5" y1="19.5" y2="19.5"></line><line x1="7.5" x2="16.5" y1="16.5" y2="16.5"></line><path d="M5.5 16.5h-3l-4.51046e-08-1.34708e-10c-1.1032-.00329483-1.99671-.896798-2-2v-6l2.15018e-08-7.19517e-06c.00329876-1.1032.896805-1.9967 2.00001-1.99999h19l1.08868e-07 3.25146e-10c1.1032.00329486 1.99671.896798 2 2v6l-2.11576e-08 7.08003e-06c-.00329869 1.1032-.896805 1.9967-2.00001 1.99999h-3"></path><path d="M5.5 4.5v-4h9.586l1.02845e-08 2.19647e-12c.265195 5.66401e-05.519507.105451.707.293l2.414 2.414 -1.96434e-08-1.96375e-08c.187549.187493.292943.441805.293.707v.586"></path><path d="M18.5 22.5v0c0 .552285-.447715 1-1 1h-11 -4.37114e-08c-.552285-2.41411e-08-1-.447715-1-1 0 0 0-3.55271e-15 0-3.55271e-15v-9h13Z"></path><circle cx="3.5" cy="9.499" r="1"></circle><polyline points="14.5,.499 14.5,4.499 18.5,4.499"></polyline></g></svg>