<?xml version="1.0" encoding="utf-8"?>
<!-- Generator: Adobe Illustrator 24.0.0, SVG Export Plug-In . SVG Version: 6.00 Build 0)  -->
<svg version="1.1" id="Laag_1" xmlns="http://www.w3.org/2000/svg" xmlns:xlink="http://www.w3.org/1999/xlink" x="0px" y="0px"
	 viewBox="0 0 15 15" style="enable-background:new 0 0 15 15;" xml:space="preserve">
<style type="text/css">
	.st0{fill:none;stroke:#000000;stroke-width:1;stroke-linecap:round;stroke-linejoin:round;}
</style>
<g>
	<line class="st0" x1="4.8" y1="12.1" x2="10.2" y2="12.1"/>
	<line class="st0" x1="4.8" y1="10.2" x2="10.2" y2="10.2"/>
	<path class="st0" d="M3.5,10.2H1.7C1,10.2,0.5,9.7,0.5,9V5.4c0-0.7,0.5-1.2,1.2-1.2h11.6c0.7,0,1.2,0.5,1.2,1.2V9
		c0,0.7-0.5,1.2-1.2,1.2h-1.8"/>
	<path class="st0" d="M3.5,2.9V0.5h5.8c0.2,0,0.3,0.1,0.4,0.2l1.5,1.5c0.1,0.1,0.2,0.3,0.2,0.4v0.4"/>
	<path class="st0" d="M11.5,13.9c0,0.3-0.3,0.6-0.6,0.6H4.2c-0.3,0-0.6-0.3-0.6-0.6V8.4h7.9V13.9z"/>
	<circle class="st0" cx="2.3" cy="6" r="0.6"/>
	<polyline class="st0" points="9,0.5 9,2.9 11.5,2.9 	"/>
</g>
</svg>
