<?xml version="1.0" encoding="UTF-8"?><svg version="1.1" viewBox="0 0 24 24" xmlns="http://www.w3.org/2000/svg" xmlns:xlink="http://www.w3.org/1999/xlink"><g stroke-linecap="round" stroke-width="1" stroke="#000" fill="none" stroke-linejoin="round"><path d="M1.5 15.5l.739 4.8 -2.87587e-08-1.89555e-07c.148287.977394.988421 1.69982 1.977 1.7h15.568l8.53998e-08-1.58842e-11c.988579-.000183917 1.82871-.722606 1.977-1.7l.739-4.8 -4.37114e-08-1.77636e-15c.552285 2.41411e-08 1-.447715 1-1v-6.5 0c0-1.10457-.895431-2-2-2h-19l-8.74228e-08 1.77636e-15c-1.10457 4.82823e-08-2 .895431-2 2 0 0 0 0 0 0v6.5l7.43849e-15 6.3573e-08c8.33927e-08.552285.447715 1 1 1Z"></path><path d="M16.5 6h-9v-1l3.37508e-14 4.52987e-07c-2.50178e-07-1.65685 1.34315-3 3-3h3l-1.31134e-07 2.66454e-15c1.65685-7.24234e-08 3 1.34315 3 3Z"></path><line x1="1.5" x2="10" y1="15.5" y2="15.5"></line><line x1="14" x2="22.5" y1="15.5" y2="15.5"></line><ellipse cx="12" rx="2" ry="2.5" cy="15.5"></ellipse></g></svg>