<?xml version="1.0" encoding="utf-8"?>
<!-- Generator: Adobe Illustrator 24.0.0, SVG Export Plug-In . SVG Version: 6.00 Build 0)  -->
<svg version="1.1" id="Laag_1" xmlns="http://www.w3.org/2000/svg" xmlns:xlink="http://www.w3.org/1999/xlink" x="0px" y="0px"
	 viewBox="0 0 15 15" style="enable-background:new 0 0 15 15;" xml:space="preserve">
<style type="text/css">
	.st0{fill:none;stroke:#000000;stroke-width:1;stroke-linecap:round;stroke-linejoin:round;}
</style>
<g>
	<path class="st0" d="M1.1,9.6l0.4,2.9c0.1,0.6,0.6,1,1.2,1h9.5c0.6,0,1.1-0.4,1.2-1l0.4-2.9c0.3,0,0.6-0.3,0.6-0.6v-4
		c0-0.7-0.5-1.2-1.2-1.2H1.7C1,3.8,0.5,4.4,0.5,5.1v4C0.5,9.4,0.8,9.6,1.1,9.6z"/>
	<path class="st0" d="M10.2,3.8H4.8V3.2c0-1,0.8-1.8,1.8-1.8h1.8c1,0,1.8,0.8,1.8,1.8V3.8z"/>
	<line class="st0" x1="1.1" y1="9.6" x2="6.3" y2="9.6"/>
	<line class="st0" x1="8.7" y1="9.6" x2="13.9" y2="9.6"/>
	<ellipse class="st0" cx="7.5" cy="9.6" rx="1.2" ry="1.5"/>
</g>
</svg>
