<?xml version="1.0" encoding="utf-8"?>
<!-- Generator: Adobe Illustrator 24.0.0, SVG Export Plug-In . SVG Version: 6.00 Build 0)  -->
<svg version="1.1" id="Laag_1" xmlns="http://www.w3.org/2000/svg" xmlns:xlink="http://www.w3.org/1999/xlink" x="0px" y="0px"
	 viewBox="0 0 15 15" style="enable-background:new 0 0 15 15;" xml:space="preserve">
<style type="text/css">
	.st0{fill:none;stroke:#000000;stroke-width:1;stroke-linecap:round;stroke-linejoin:round;}
</style>
<g>
	<path class="st0" d="M3.8,14.2H0.5V5.5h3.3V14.2z M9.8,8.2c-0.7,0-1.3,0.6-1.3,1.3v4.7H5.2V5.5h3.3v1c0.7-0.6,1.7-1,2.7-1
		c2,0,3.3,1.5,3.3,4.2v4.4h-3.3V9.5C11.2,8.8,10.6,8.2,9.8,8.2z M3.8,2.5c0,0.9-0.7,1.7-1.7,1.7S0.5,3.4,0.5,2.5s0.7-1.7,1.7-1.7
		S3.8,1.6,3.8,2.5z"/>
</g>
</svg>
