<?xml version="1.0" encoding="UTF-8"?><svg version="1.1" viewBox="0 0 24 24" xmlns="http://www.w3.org/2000/svg" xmlns:xlink="http://www.w3.org/1999/xlink"><path d="M6.5 22.5h-5v-13h5Zm9-9l-8.74228e-08 1.77636e-15c-1.10457 4.82823e-08-2 .895431-2 2 0 0 0 0 0 0v7h-5v-13h5v1.485l-4.14076e-08 3.50946e-08c1.1163-.946108 2.52684-1.47462 3.99-1.495 2.962 0 5.01 2.2 5.01 6.355v6.655h-5v-7 -6.57252e-14c0-1.10457-.89543-2-2-2Zm-9-8.5v0c0 1.38071-1.11929 2.5-2.5 2.5 -1.38071 0-2.5-1.11929-2.5-2.5 0-1.38071 1.11929-2.5 2.5-2.5l-1.09278e-07 2.66454e-15c1.38071-6.03528e-08 2.5 1.11929 2.5 2.5 0 0 0 8.88178e-16 0 8.88178e-16Z" stroke-linecap="round" stroke-width="1" stroke="#000" fill="none" stroke-linejoin="round"></path></svg>