<?xml version="1.0" encoding="utf-8"?>
<!-- Generator: Adobe Illustrator 24.0.0, SVG Export Plug-In . SVG Version: 6.00 Build 0)  -->
<svg version="1.1" id="Laag_1" xmlns="http://www.w3.org/2000/svg" xmlns:xlink="http://www.w3.org/1999/xlink" x="0px" y="0px"
	 viewBox="0 0 15 15" style="enable-background:new 0 0 15 15;" xml:space="preserve">
<style type="text/css">
	.st0{fill:none;stroke:#000000;stroke-width:1;stroke-linecap:round;stroke-linejoin:round;}
</style>
<g>
	<path class="st0" d="M12.7,12.3c0,0.2-0.2,0.4-0.4,0.5l-4.6,1.6c-0.1,0-0.3,0-0.4,0l-4.6-1.6c-0.2-0.1-0.4-0.3-0.4-0.5L0.6,1.2
		C0.5,0.9,0.8,0.6,1.1,0.5c0,0,0.1,0,0.1,0h12.6c0.3,0,0.6,0.3,0.6,0.6c0,0,0,0.1,0,0.1L12.7,12.3z"/>
	<path class="st0" d="M4.1,2.9h5.6c0.2,0,0.3,0.1,0.3,0.3c0,0.1-0.1,0.2-0.1,0.3L5.7,6C5.6,6.1,5.5,6.3,5.6,6.5
		c0.1,0.1,0.2,0.1,0.3,0.1h4c0.2,0,0.3,0.1,0.3,0.3c0,0,0,0,0,0l-0.5,3.7c0,0.1-0.1,0.2-0.2,0.3l-1.9,0.5c-0.1,0-0.1,0-0.2,0
		l-1.9-0.5c-0.1,0-0.2-0.1-0.2-0.2L5.1,9"/>
</g>
</svg>
