<?xml version="1.0" encoding="utf-8"?>
<!-- Generator: Adobe Illustrator 24.0.0, SVG Export Plug-In . SVG Version: 6.00 Build 0)  -->
<svg version="1.1" id="Laag_1" xmlns="http://www.w3.org/2000/svg" xmlns:xlink="http://www.w3.org/1999/xlink" x="0px" y="0px"
	 viewBox="0 0 15 15" style="enable-background:new 0 0 15 15;" xml:space="preserve">
<style type="text/css">
	.st0{fill:none;stroke:#000000;stroke-width:1;stroke-linecap:round;stroke-linejoin:round;}
</style>
<g>
	<polyline class="st0" points="9.8,7.5 11.6,9.3 9.8,11.2 	"/>
	<polyline class="st0" points="5.2,7.5 3.4,9.3 5.2,11.2 	"/>
	<line class="st0" x1="8.4" y1="7.5" x2="6.6" y2="11.2"/>
	<path class="st0" d="M1.7,2h11.6c0.7,0,1.2,0.5,1.2,1.2v8.5c0,0.7-0.5,1.2-1.2,1.2H1.7c-0.7,0-1.2-0.5-1.2-1.2V3.2
		C0.5,2.6,1,2,1.7,2z"/>
	<line class="st0" x1="0.5" y1="5.1" x2="14.5" y2="5.1"/>
	<path class="st0" d="M2.6,3.4c0.1,0,0.2,0.1,0.2,0.2S2.7,3.7,2.6,3.7S2.5,3.6,2.5,3.5S2.5,3.4,2.6,3.4"/>
	<path class="st0" d="M4.5,3.4c0.1,0,0.2,0.1,0.2,0.2S4.5,3.7,4.5,3.7c-0.1,0-0.2-0.1-0.2-0.2S4.4,3.4,4.5,3.4"/>
	<path class="st0" d="M6.3,3.4c0.1,0,0.2,0.1,0.2,0.2S6.4,3.7,6.3,3.7c-0.1,0-0.2-0.1-0.2-0.2S6.2,3.4,6.3,3.4"/>
</g>
</svg>
