<?xml version="1.0" encoding="UTF-8"?><svg version="1.1" viewBox="0 0 24 24" xmlns="http://www.w3.org/2000/svg" xmlns:xlink="http://www.w3.org/1999/xlink"><g stroke-linecap="round" stroke-width="1" stroke="#000" fill="none" stroke-linejoin="round"><polyline points="15.75,12 18.75,15 15.75,18"></polyline><polyline points="8.25,12 5.25,15 8.25,18"></polyline><line x1="13.5" x2="10.5" y1="12" y2="18"></line><rect width="23" height="18" x=".5" y="3" rx="1.10456" ry="0"></rect><line x1=".5" x2="23.5" y1="8" y2="8"></line><path d="M4 5.25h-1.09278e-08c.138071-6.03528e-09.25.111929.25.25 6.03528e-09.138071-.111929.25-.25.25 -.138071 6.03528e-09-.25-.111929-.25-.25l2.22045e-15 2.68211e-08c-2.08482e-08-.138071.111929-.25.25-.25 3.38653e-09 0 7.54132e-09-8.88178e-16 1.09278e-08-8.88178e-16"></path><path d="M7 5.25h-1.09278e-08c.138071-6.03528e-09.25.111929.25.25 6.03528e-09.138071-.111929.25-.25.25 -.138071 6.03528e-09-.25-.111929-.25-.25l2.66454e-15 2.68211e-08c-2.08482e-08-.138071.111929-.25.25-.25 3.38652e-09 0 7.54132e-09-8.88178e-16 1.09278e-08-8.88178e-16"></path><path d="M10 5.25h-1.09278e-08c.138071-6.03528e-09.25.111929.25.25 6.03528e-09.138071-.111929.25-.25.25 -.138071 6.03528e-09-.25-.111929-.25-.25l3.55271e-15 2.68211e-08c-2.08482e-08-.138071.111929-.25.25-.25 3.38653e-09 0 7.54132e-09-8.88178e-16 1.09278e-08-8.88178e-16"></path></g></svg>