<?xml version="1.0" encoding="UTF-8"?><svg version="1.1" viewBox="0 0 24 24" xmlns="http://www.w3.org/2000/svg" xmlns:xlink="http://www.w3.org/1999/xlink"><g stroke-linecap="round" stroke-width="1" stroke="#000" fill="none" stroke-linejoin="round"><path d="M20.509 19.966l2.88687e-08-1.92512e-07c-.054915.366203-.307698.672082-.657.795l-7.6 2.682 -6.62435e-08 2.33548e-08c-.215176.0758623-.449824.0758623-.665-4.67095e-08l-7.6-2.682 8.17014e-08 2.88531e-08c-.348913-.12322-.601262-.42904-.656-.795l-2.739-18.257 1.58089e-08 1.04916e-07c-.0822905-.54612.293717-1.05555.839837-1.13784 .0493725-.00743956.0992329-.0111709.149163-.0111628h20.677l4.17037e-08-6.78879e-12c.552285-8.98923e-05 1.00007.447552 1.00016.999837 8.12681e-06.0499299-.00372324.0997903-.0111628.149163Z"></path><path d="M17.419 4.56h-10.409l-1.09305e-08-2.04885e-11c-.276142-.000517635-.500419.22292-.500936.499062 -5.27204e-05.0281247.00226764.0562036.00693639.0839381l.834 5 -1.53606e-08-9.12498e-08c.0405187.240702.248911.416969.493.417h8l-2.29526e-08 2.32768e-10c.276128-.0028003.502244.218776.505045.494904 .000258165.0254568-.00142829.0508961-.00504465.0760961l-.873 6.108 -1.35494e-08 9.64773e-08c-.0274499.195454-.167311.35647-.357.411l-3.051.871 -9.90704e-09 2.83369e-09c-.0898648.0257038-.185135.0257038-.275 2.06417e-08l-3.059-.874 -6.17381e-09-1.76502e-09c-.18608-.0531981-.324748-.209005-.356-.4l-.453-2.687"></path></g></svg>