<?xml version="1.0" encoding="UTF-8"?><svg version="1.1" viewBox="0 0 24 24" xmlns="http://www.w3.org/2000/svg" xmlns:xlink="http://www.w3.org/1999/xlink"><g stroke-linecap="round" stroke-width="1" stroke="#000" fill="none" stroke-linejoin="round"><path d="M20.559 19.966l2.06691e-08-1.38188e-07c-.0547377.36596-.307087.67178-.656.795l-7.6 2.682 -3.91731e-08 1.38342e-08c-.215479.0760976-.450521.0760975-.666-2.76684e-08l-7.6-2.682 8.17014e-08 2.88532e-08c-.348913-.12322-.601262-.42904-.656-.795l-2.739-18.257 1.58089e-08 1.04916e-07c-.0822905-.54612.293717-1.05555.839837-1.13784 .0493725-.00743956.0992329-.0111709.149163-.0111628h20.678l-5.71497e-08 1.23626e-10c.552283-.00119471 1.00097.445551 1.00216.997834 .000109455.0505983-.00362153.101132-.0111608.151165Z"></path><path d="M6.47 4.56h9.2l8.33961e-09-2.92211e-12c.276142-9.67602e-05.500078.223682.500175.499825 6.16247e-05.17587-.0922789.33884-.243175.429175l-6.9 4.143 -3.16209e-08 1.90969e-08c-.236379.142757-.312275.450107-.169518.686486 .0902567.149448.25193.240995.426518.241514h6.619l1.19459e-08-1.59339e-12c.276142-3.68152e-05.50003.223791.500067.499933 3.17024e-06.0237792-.00169002.0475284-.00506667.0710667l-.873 6.108 1.27674e-08-9.05127e-08c-.0276072.195718-.16792.356803-.358.411l-3.051.871 1.13758e-08-3.30539e-09c-.0894829.0260004-.184517.0260004-.274 6.61078e-09l-3.059-.874 -6.17381e-09-1.76502e-09c-.18608-.0531981-.324748-.209005-.356-.4l-.457-2.687"></path></g></svg>