<?xml version="1.0" encoding="utf-8"?>
<!-- Generator: Adobe Illustrator 24.0.0, SVG Export Plug-In . SVG Version: 6.00 Build 0)  -->
<svg version="1.1" id="Laag_1" xmlns="http://www.w3.org/2000/svg" xmlns:xlink="http://www.w3.org/1999/xlink" x="0px" y="0px"
	 viewBox="0 0 15 15" style="enable-background:new 0 0 15 15;" xml:space="preserve">
<style type="text/css">
	.st0{fill:none;stroke:#000000;stroke-width:1;stroke-linecap:round;stroke-linejoin:round;}
</style>
<g>
	<polyline class="st0" points="4.2,6.6 5.7,8.1 4.2,9.6 	"/>
	<line class="st0" x1="7.8" y1="8.4" x2="10.2" y2="8.4"/>
	<path class="st0" d="M8.7,3.1c0.1,0,0.2,0.1,0.2,0.2S8.8,3.4,8.7,3.4c-0.1,0-0.2-0.1-0.2-0.2S8.6,3.1,8.7,3.1"/>
	<path class="st0" d="M10.5,3.1c0.1,0,0.2,0.1,0.2,0.2s-0.1,0.2-0.2,0.2c-0.1,0-0.2-0.1-0.2-0.2S10.5,3.1,10.5,3.1"/>
	<path class="st0" d="M12.4,3.1c0.1,0,0.2,0.1,0.2,0.2s-0.1,0.2-0.2,0.2s-0.2-0.1-0.2-0.2S12.3,3.1,12.4,3.1"/>
	<path class="st0" d="M1.1,1.7h12.8c0.3,0,0.6,0.3,0.6,0.6v10.3c0,0.3-0.3,0.6-0.6,0.6H1.1c-0.3,0-0.6-0.3-0.6-0.6V2.3
		C0.5,2,0.8,1.7,1.1,1.7z"/>
	<line class="st0" x1="0.5" y1="4.8" x2="14.5" y2="4.8"/>
</g>
</svg>
