<?xml version="1.0" encoding="UTF-8"?><svg version="1.1" viewBox="0 0 24 24" xmlns="http://www.w3.org/2000/svg" xmlns:xlink="http://www.w3.org/1999/xlink"><g stroke-linecap="round" stroke-width="1" stroke="#000" fill="none" stroke-linejoin="round"><circle cx="12" cy="12.001" r="11"></circle><path d="M12 17h-1.09278e-08c-.138071 6.03528e-09-.25.111929-.25.25 6.03528e-09.138071.111929.25.25.25 .138071-6.03528e-09.25-.111929.25-.25v1.09278e-08c0-.138071-.111929-.25-.25-.25v0"></path><path d="M9 10.005l-3.44432e-08.000454145c2.50178e-07-1.65685 1.34315-3 3-3 1.65685 2.50178e-07 3 1.34315 3 3 -1.80093e-07 1.1927-.706527 2.27212-1.79958 2.74936l1.03616e-07-4.51936e-08c-.729067.317994-1.2004 1.03778-1.20042 1.83318v.412"></path></g></svg>