<?xml version="1.0" encoding="UTF-8"?><svg version="1.1" viewBox="0 0 24 24" xmlns="http://www.w3.org/2000/svg" xmlns:xlink="http://www.w3.org/1999/xlink"><g stroke-linecap="round" stroke-width="1" stroke="#000" fill="none" stroke-linejoin="round"><path d="M12 12.236c0 0 1.717-2.582 7.487-2.728l-2.97129e-08 7.72799e-10c.276049-.00717973.505651.210782.512831.486831 .000114147.00438875.000170485.00877882.000169002.0131691v10.265l2.07418e-08.00014402c0 .271523-.216697.493421-.488144.499859 -5.78986.138997-7.51186 2.727-7.51186 2.727v-11.264c0 0-1.717-2.582-7.487-2.728l-1.39837e-08-3.637e-10c-.276049-.00717971-.505651.210782-.512831.486831 -.000114146.00438875-.000170485.00877882-.000169.0131691v10.265l-2.07418e-08.000143945c-4.09989e-08.271523.216697.493421.488144.499859 5.78986.138997 7.51186 2.727 7.51186 2.727"></path><polyline points="1,7.501 12,.501 23,7.501"></polyline><polyline points="17,1.501 20,1.501 20,3.501"></polyline></g></svg>