<?xml version="1.0" encoding="utf-8"?>
<!-- Generator: Adobe Illustrator 24.0.0, SVG Export Plug-In . SVG Version: 6.00 Build 0)  -->
<svg version="1.1" id="Laag_1" xmlns="http://www.w3.org/2000/svg" xmlns:xlink="http://www.w3.org/1999/xlink" x="0px" y="0px"
	 viewBox="0 0 15 15" style="enable-background:new 0 0 15 15;" xml:space="preserve">
<style type="text/css">
	.st0{fill:none;stroke:#000000;stroke-width:1;stroke-linecap:round;stroke-linejoin:round;}
</style>
<g>
	<path class="st0" d="M7.5,7.6c0,0,1-1.6,4.6-1.7c0.2,0,0.3,0.1,0.3,0.3c0,0,0,0,0,0v6.2c0,0.2-0.1,0.3-0.3,0.3
		c-3.5,0.1-4.6,1.7-4.6,1.7V7.6c0,0-1-1.6-4.6-1.7C2.8,6,2.6,6.1,2.6,6.3c0,0,0,0,0,0v6.2c0,0.2,0.1,0.3,0.3,0.3
		c3.5,0.1,4.6,1.7,4.6,1.7"/>
	<polyline class="st0" points="0.8,4.8 7.5,0.5 14.2,4.8 	"/>
	<polyline class="st0" points="10.5,1.1 12.4,1.1 12.4,2.3 	"/>
</g>
</svg>
