<?xml version="1.0" encoding="UTF-8"?><svg version="1.1" viewBox="0 0 24 24" xmlns="http://www.w3.org/2000/svg" xmlns:xlink="http://www.w3.org/1999/xlink"><g stroke-linecap="round" stroke-width="1" stroke="#000" fill="none" stroke-linejoin="round"><path d="M12 16.308v6.692l5.32907e-15 7.54979e-08c4.16963e-08.276142.223858.5.5.5h8l2.18557e-08-3.55271e-15c.276142-5.37669e-08.5-.223858.5-.5v-6.692"></path><path d="M10 18l5.854-4.953 -4.93724e-08 4.1783e-08c.372866-.31555.919134-.31555 1.292-8.35661e-08l5.854 4.953"></path><path d="M18 23.5h-3v-3l1.77636e-14 2.26494e-07c-1.25089e-07-.828427.671573-1.5 1.5-1.5 .828427-1.25089e-07 1.5.671573 1.5 1.5 0 0 0 3.55271e-15 0 3.55271e-15Z"></path><path d="M9 23.5h-7.5 -2.18557e-08c-.276142-1.20706e-08-.5-.223858-.5-.5 0 0 0 0 0 0v-21.658l-2.05098e-08-3.63306e-06c-.00155788-.276138.221033-.501255.497171-.502813 .0844534-.000476458.167651.020447.241832.0608182l10 5.455 3.71248e-08 2.01999e-08c.162714.0885335.263146.259771.260997.444998v5.7"></path><line x1="10" x2="10" y1="5.41" y2=".5"></line><line x1="1" x2="5" y1="6.5" y2="6.5"></line><line x1="1" x2="6" y1="9.5" y2="9.5"></line><line x1="1" x2="8" y1="12.5" y2="12.5"></line><path d="M5 23.5v-3.5l5.32907e-15 7.54979e-08c-4.16963e-08-.276142.223858-.5.5-.5h2 -5.96244e-09c.276142-4.49893e-08.5.223858.5.5 4.44089e-15 2.54893e-08 7.10543e-15 5.00086e-08 7.10543e-15 7.54979e-08v3.5"></path></g></svg>