<?xml version="1.0" encoding="utf-8"?>
<!-- Generator: Adobe Illustrator 24.0.0, SVG Export Plug-In . SVG Version: 6.00 Build 0)  -->
<svg version="1.1" id="Light" xmlns="http://www.w3.org/2000/svg" xmlns:xlink="http://www.w3.org/1999/xlink" x="0px" y="0px"
	 viewBox="0 0 15 15" style="enable-background:new 0 0 15 15;" xml:space="preserve">
<style type="text/css">
	.st0{fill:none;stroke:#000000;stroke-width:1;stroke-linecap:round;stroke-linejoin:round;}
</style>
<g>
	<g id="_Group_">
		<path class="st0" d="M7.5,10.1v4.1c0,0.2,0.1,0.3,0.3,0.3h4.9c0.2,0,0.3-0.1,0.3-0.3v-4.1"/>
		<path class="st0" d="M6.3,11.2l3.6-3c0.2-0.2,0.6-0.2,0.8,0l3.6,3"/>
		<path class="st0" d="M11.2,14.5H9.3v-1.8c0-0.5,0.4-0.9,0.9-0.9c0.5,0,0.9,0.4,0.9,0.9V14.5z"/>
	</g>
	<path class="st0" d="M5.7,14.5H1.1c-0.2,0-0.3-0.1-0.3-0.3V1c0-0.2,0.1-0.3,0.3-0.3c0.1,0,0.1,0,0.1,0l6.1,3.3
		c0.1,0.1,0.2,0.2,0.2,0.3v3.5"/>
	<line class="st0" x1="6.3" y1="3.5" x2="6.3" y2="0.5"/>
	<line class="st0" x1="0.8" y1="4.2" x2="3.2" y2="4.2"/>
	<line class="st0" x1="0.8" y1="6" x2="3.8" y2="6"/>
	<line class="st0" x1="0.8" y1="7.8" x2="5.1" y2="7.8"/>
	<path class="st0" d="M3.2,14.5v-2.1c0-0.2,0.1-0.3,0.3-0.3h1.2c0.2,0,0.3,0.1,0.3,0.3v2.1"/>
</g>
</svg>
