<?xml version="1.0" encoding="utf-8"?>
<!-- Generator: Adobe Illustrator 24.0.0, SVG Export Plug-In . SVG Version: 6.00 Build 0)  -->
<svg version="1.1" id="Light" xmlns="http://www.w3.org/2000/svg" xmlns:xlink="http://www.w3.org/1999/xlink" x="0px" y="0px"
	 viewBox="0 0 15 15" style="enable-background:new 0 0 15 15;" xml:space="preserve">
<style type="text/css">
	.st0{fill:none;stroke:#000000;stroke-width:1;stroke-linecap:round;stroke-linejoin:round;}
</style>
<g>
	<path class="st0" d="M3.3,10.2h3.6c0.2,0,0.3,0.1,0.3,0.3V13c0,0.2-0.1,0.3-0.3,0.3h-3c-0.4-0.1-0.7-0.2-0.9-0.5"/>
	<path class="st0" d="M2.9,12.7c0,0-1.1-1,1.6-4h1.2L3.9,6H0.5l0.9,0.9C1,7.2,0.8,7.6,0.8,8.1C0.8,8.8,2,11.3,2.9,12.7z"/>
	<path class="st0" d="M11.9,9.7L10,6.9c0-0.1-0.1-0.1,0-0.2c0-0.1,0.1-0.1,0.1-0.2L12.2,5c0.1-0.1,0.3-0.1,0.4,0.1c0,0,0,0,0,0
		l1.7,2.5c0.2,0.3,0.2,0.6,0,1"/>
	<path class="st0" d="M14.4,8.6c0,0-0.4,1.5-4.2,1V8.7l-1.8,2.7l1.7,3l0.1-1.4c0.4,0.3,0.9,0.3,1.4,0C12.2,12.7,13.6,10.1,14.4,8.6z
		"/>
	<path class="st0" d="M7.2,2.3L5.8,5.2C5.7,5.4,5.6,5.5,5.4,5.4c0,0,0,0,0,0L3.1,4.3C2.9,4.2,2.8,4,2.9,3.9l1.3-2.8
		c0.2-0.3,0.5-0.5,0.8-0.6"/>
	<path class="st0" d="M5.1,0.5c0,0,1.5,0,3,3.5L7.2,4.8h3.3l1.8-3.4l-1.2,0.5c-0.1-0.5-0.4-0.9-0.8-1.1C9.4,0.6,8.5,0.5,7.5,0.5H5.1
		z"/>
</g>
</svg>
