<?xml version="1.0" encoding="UTF-8"?><svg version="1.1" viewBox="0 0 24 24" xmlns="http://www.w3.org/2000/svg" xmlns:xlink="http://www.w3.org/1999/xlink"><g stroke-linecap="round" stroke-width="1" stroke="#000" fill="none" stroke-linejoin="round"><path d="M5.093 16.5h5.907 -2.18557e-08c.276142-1.20706e-08.5.223858.5.5v4 0c0 .276142-.223858.5-.5.5h-5l-1.5207e-07-2.06952e-08c-.613011-.0834246-1.16864-.404522-1.547-.894"></path><path d="M4.452 20.606c0 0-1.843-1.684 2.548-6.606h2l-3-4.5h-5.5l1.5 1.5 5.42071e-08-3.85823e-08c-.644976.459067-1.01973 1.20858-1 2 1.65836e-09 1.178 1.89 5.21 3.452 7.606Z"></path><path d="M19.312 15.638l-3.165-4.573 4.53576e-08 6.6193e-08c-.0750774-.109565-.104162-.244216-.0810001-.375l4.83855e-10-2.62247e-09c.024048-.130339.0988621-.245797.208-.321l3.509-2.427 -4.25079e-08 2.94148e-08c.227077-.157133.53854-.100433.695673.126643 .00145849.00210769.00290075.00422657.00432665.00635644l2.8 4.186 1.68296e-08 3.17018e-08c.258302.486562.285806 1.06306.075 1.572"></path><path d="M23.362 13.833c0 0-.69 2.542-6.863 1.667v-1.5l-3 4.5 2.815 5 .185-2.347 -1.79993e-07-1.21346e-07c.675724.455553 1.56028.455553 2.236 2.42692e-07 .965-.674 3.273-4.853 4.627-7.32Z"></path><path d="M11.507 3.452l-2.273 4.818 1.63297e-09-3.46707e-09c-.117664.24982-.415568.356953-.665388.239289 -.000204155-9.61563e-05-.000408246-.000192451-.000612271-.000288884l-3.863-1.823 -2.57615e-08-1.21604e-08c-.249488-.117768-.356442-.415358-.239-.665l2.178-4.615 1.12666e-08-2.03501e-08c.278807-.503591.784044-.841161 1.356-.906"></path><path d="M8 .5c0 0 2.5 0 4.937 5.7l-1.437 1.3h5.5l3-5.545 -2.03.745 2.13337e-08 1.83128e-07c-.0900276-.772795-.585625-1.4388-1.3-1.747l2.21874e-07 5.20238e-08c-1.52949-.358627-3.10009-.510979-4.67-.453Z"></path></g></svg>