<?xml version="1.0" encoding="UTF-8"?><svg version="1.1" viewBox="0 0 24 24" xmlns="http://www.w3.org/2000/svg" xmlns:xlink="http://www.w3.org/1999/xlink"><path d="M7.5 12l-6.293 6.293 5.30811e-08-5.30971e-08c-.390382.3905-.390382 1.0235-1.06162e-07 1.414l3.086 3.086 -6.15305e-08-6.15119e-08c.3905.390382 1.0235.390382 1.414 1.23024e-07l6.293-6.293 6.293 6.293 -6.15305e-08-6.15119e-08c.3905.390382 1.0235.390382 1.414 1.23024e-07l3.086-3.086 -3.0608e-08 3.06172e-08c.390382-.3905.390382-1.0235 6.1216e-08-1.414l-6.293-6.293 6.293-6.293 -3.0608e-08 3.06172e-08c.390382-.3905.390382-1.0235 6.1216e-08-1.414l-3.086-3.086 4.18572e-08 4.18445e-08c-.3905-.390382-1.0235-.390382-1.414-8.3689e-08l-6.293 6.293 -6.293-6.293 4.18572e-08 4.18445e-08c-.3905-.390382-1.0235-.390382-1.414-8.3689e-08l-3.086 3.086 5.30811e-08-5.30971e-08c-.390382.3905-.390382 1.0235-1.06162e-07 1.414Z" stroke-linecap="round" stroke-width="1" stroke="#000" fill="none" stroke-linejoin="round"></path></svg>