<?xml version="1.0" encoding="UTF-8"?><svg version="1.1" viewBox="0 0 24 24" xmlns="http://www.w3.org/2000/svg" xmlns:xlink="http://www.w3.org/1999/xlink"><g stroke-linecap="round" stroke-width="1" stroke="#000" fill="none" stroke-linejoin="round"><path d="M5 10.5l-3.71547e-07 8.88178e-15c4.69442-2.052e-07 8.5 3.80558 8.5 8.5"></path><path d="M5 5.5l-5.90104e-07 1.42109e-14c7.45584-3.25905e-07 13.5 6.04416 13.5 13.5"></path><circle cx="7" cy="16.998" r="1.5"></circle><path d="M23.5 20.5l-3.17363e-08 1.062e-05c-.00494804 1.6548-1.34521 2.99505-3.00001 2.99999h-17l-6.76569e-08-2.02064e-10c-1.6548-.00494224-2.99506-1.3452-3-3v-17l3.22528e-08-1.07927e-05c.00494814-1.6548 1.34521-2.99505 3.00001-2.99999h17l1.63302e-07 4.8772e-10c1.6548.00494229 2.99506 1.3452 3 3Z"></path></g></svg>