<?xml version="1.0" encoding="utf-8"?>
<!-- Generator: Adobe Illustrator 24.0.0, SVG Export Plug-In . SVG Version: 6.00 Build 0)  -->
<svg version="1.1" id="Laag_1" xmlns="http://www.w3.org/2000/svg" xmlns:xlink="http://www.w3.org/1999/xlink" x="0px" y="0px"
	 viewBox="0 0 15 15" style="enable-background:new 0 0 15 15;" xml:space="preserve">
<style type="text/css">
	.st0{fill:none;stroke:#000000;stroke-width:1;stroke-linecap:round;stroke-linejoin:round;}
</style>
<g>
	<path class="st0" d="M5.4,14.5H0.8c-0.2,0-0.3-0.1-0.3-0.3V8.7c0-0.2,0.1-0.3,0.3-0.3h4"/>
	<path class="st0" d="M10.2,8.4h4c0.2,0,0.3,0.1,0.3,0.3v5.5c0,0.2-0.1,0.3-0.3,0.3H9.6"/>
	<path class="st0" d="M11.8,9.6H13c0.2,0,0.3,0.1,0.3,0.3v0.6c0,0.2-0.1,0.3-0.3,0.3h-1.2c-0.2,0-0.3-0.1-0.3-0.3V9.9
		C11.5,9.8,11.6,9.6,11.8,9.6z"/>
	<path class="st0" d="M13.3,13.3h-1.8v-0.9c0-0.2,0.1-0.3,0.3-0.3H13c0.2,0,0.3,0.1,0.3,0.3V13.3z"/>
	<path class="st0" d="M2,9.6h1.2c0.2,0,0.3,0.1,0.3,0.3v0.6c0,0.2-0.1,0.3-0.3,0.3H2c-0.2,0-0.3-0.1-0.3-0.3V9.9
		C1.7,9.8,1.9,9.6,2,9.6z"/>
	<path class="st0" d="M2,12.1h1.2c0.2,0,0.3,0.1,0.3,0.3V13c0,0.2-0.1,0.3-0.3,0.3H2c-0.2,0-0.3-0.1-0.3-0.3v-0.6
		C1.7,12.2,1.9,12.1,2,12.1z"/>
	<path class="st0" d="M8.4,11.8c0-0.5-0.4-0.9-0.9-0.9s-0.9,0.4-0.9,0.9v2.7h1.8V11.8z"/>
	<line class="st0" x1="7.2" y1="4.2" x2="7.2" y2="2.3"/>
	<path class="st0" d="M7.2,0.5h2.4c0.2,0,0.3,0.1,0.3,0.3V2c0,0.2-0.1,0.3-0.3,0.3H7.2l0,0V0.5L7.2,0.5z"/>
	<circle class="st0" cx="7.5" cy="6.9" r="0.9"/>
	<path class="st0" d="M10.2,6.9c0-1.5-1.2-2.7-2.7-2.7S4.8,5.4,4.8,6.9v7.6h5.5V6.9z"/>
</g>
</svg>
