<?xml version="1.0" encoding="UTF-8"?><svg version="1.1" viewBox="0 0 24 24" xmlns="http://www.w3.org/2000/svg" xmlns:xlink="http://www.w3.org/1999/xlink"><g stroke-linecap="round" stroke-width="1" stroke="#000" fill="none" stroke-linejoin="round"><path d="M8.5 23.5h-7.5 -2.18557e-08c-.276142-1.20706e-08-.5-.223858-.5-.5 0 0 0 0 0 0v-9l5.77316e-15 7.54979e-08c-4.16963e-08-.276142.223858-.5.5-.5h6.5"></path><path d="M16.5 13.5h6.5 -2.18557e-08c.276142-1.20706e-08.5.223858.5.5v9 0c0 .276142-.223858.5-.5.5h-7.5"></path><rect width="3" height="2" x="18.5" y="15.5" rx=".27614" ry="0"></rect><path d="M21.5 21.5h-3v-1.5l7.10543e-15 7.54979e-08c-4.16963e-08-.276142.223858-.5.5-.5h2 -2.18557e-08c.276142-1.20706e-08.5.223858.5.5Z"></path><rect width="3" height="2" x="2.5" y="15.5" rx=".27614" ry="0"></rect><rect width="3" height="2" x="2.5" y="19.5" rx=".27614" ry="0"></rect><path d="M13.5 19v0c0-.828427-.671573-1.5-1.5-1.5 -.828427 0-1.5.671573-1.5 1.5v4.5h3Z"></path><line x1="11.5" x2="11.5" y1="6.53" y2="3.5"></line><path d="M11.5.5h4l-2.18557e-08 4.44089e-16c.276142-1.20706e-08.5.223858.5.5v2 0c0 .276142-.223858.5-.5.5h-4v-3Z"></path><circle cx="12" cy="11" r="1.5"></circle><path d="M16.5 11v0c0-2.48528-2.01472-4.5-4.5-4.5 -2.48528 8.88178e-16-4.5 2.01472-4.5 4.5v12.5h9Z"></path></g></svg>