<?xml version="1.0" encoding="UTF-8"?><svg version="1.1" viewBox="0 0 24 24" xmlns="http://www.w3.org/2000/svg" xmlns:xlink="http://www.w3.org/1999/xlink"><g stroke-linecap="round" stroke-width="1" stroke="#000" fill="none" stroke-linejoin="round"><path d="M23.5 2l-22.569 9.323 3.69642e-08-1.56022e-08c-.356171.150336-.523034.560942-.372698.917113 .0824234.195275.248887.342687.452698.400887l8.489 2.359Z"></path><path d="M23.5 2l-3.85 18.286 4.24995e-08-1.9792e-07c-.104354.485979-.582914.795346-1.06889.690992 -.109504-.0235137-.213656-.06726-.307108-.128992l-8.774-5.848Z"></path><path d="M9.5 15v6.48l-1.85581e-08-9.45803e-06c.00055981.286635.233377.518545.520013.517985 .184013-.000359385.354078-.098129.446983-.256968l2.561-4.39"></path></g></svg>