<svg viewBox="0 0 24 24" xmlns="http://www.w3.org/2000/svg"><g stroke-linecap="round" stroke="#000" fill="none" stroke-linejoin="round"><rect width="23" height="23" x=".5" y=".501" rx="1"/><path d="M12 3.5a2 2 0 1 0 0 4 2 2 0 1 0 0-4Z"/><path d="M14 5.5l6.52 0"/><path d="M3.52 5.5l6.48 0"/><path d="M8 10a2 2 0 1 0 0 4 2 2 0 1 0 0-4Z"/><path d="M10 12l10.52 0"/><path d="M3.52 12L6 12"/><path d="M10 16.5a2 2 0 1 0 0 4 2 2 0 1 0 0-4Z"/><path d="M12 18.5l8.52 0"/><path d="M3.52 18.5l4.48 0"/></g></svg>