<?xml version="1.0" encoding="utf-8"?>
<!-- Generator: Adobe Illustrator 24.0.0, SVG Export Plug-In . SVG Version: 6.00 Build 0)  -->
<svg version="1.1" id="Laag_1" xmlns="http://www.w3.org/2000/svg" xmlns:xlink="http://www.w3.org/1999/xlink" x="0px" y="0px"
	 viewBox="0 0 15 15" style="enable-background:new 0 0 15 15;" xml:space="preserve">
<style type="text/css">
	.st0{fill:none;stroke:#000000;stroke-width:1;stroke-linecap:round;stroke-linejoin:round;}
</style>
<g>
	<path class="st0" d="M1.1,0.5h12.8c0.3,0,0.6,0.3,0.6,0.6v12.8c0,0.3-0.3,0.6-0.6,0.6H1.1c-0.3,0-0.6-0.3-0.6-0.6V1.1
		C0.5,0.8,0.8,0.5,1.1,0.5z"/>
	<circle class="st0" cx="7.5" cy="3.5" r="1.2"/>
	<line class="st0" x1="8.7" y1="3.5" x2="12.7" y2="3.5"/>
	<line class="st0" x1="2.3" y1="3.5" x2="6.3" y2="3.5"/>
	<circle class="st0" cx="5.1" cy="7.5" r="1.2"/>
	<line class="st0" x1="6.3" y1="7.5" x2="12.7" y2="7.5"/>
	<line class="st0" x1="2.3" y1="7.5" x2="3.8" y2="7.5"/>
	<circle class="st0" cx="6.3" cy="11.5" r="1.2"/>
	<line class="st0" x1="7.5" y1="11.5" x2="12.7" y2="11.5"/>
	<line class="st0" x1="2.3" y1="11.5" x2="5.1" y2="11.5"/>
</g>
</svg>
