<?xml version="1.0" encoding="UTF-8"?><svg version="1.1" viewBox="0 0 24 24" xmlns="http://www.w3.org/2000/svg" xmlns:xlink="http://www.w3.org/1999/xlink"><g stroke-linecap="round" stroke-width="1" stroke="#000" fill="none" stroke-linejoin="round"><path d="M15.5 9.5v13 0c0 .552285-.447715 1-1 1h-13 -4.37114e-08c-.552285-2.41411e-08-1-.447715-1-1 0 0 0-3.55271e-15 0-3.55271e-15v-13l1.13243e-14 1.50996e-07c-8.33927e-08-.552285.447715-1 1-1h4"></path><polyline points="19.5,.499 23.5,4.499 19.5,8.499"></polyline><path d="M23.5 4.5h-9.5l-2.40413e-07 5.32907e-15c-3.03757 1.32776e-07-5.5 2.46243-5.5 5.5 0 0 0 1.77636e-15 0 1.77636e-15v1.5"></path></g></svg>