<?xml version="1.0" encoding="UTF-8"?><svg version="1.1" viewBox="0 0 24 24" xmlns="http://www.w3.org/2000/svg" xmlns:xlink="http://www.w3.org/1999/xlink"><g stroke-linecap="round" stroke-width="1" stroke="#000" fill="none" stroke-linejoin="round"><path d="M8.074 10.212l8.72002e-08 1.74627e-07c-.986933-1.97643-3.38921-2.77857-5.36564-1.79164 -1.97643.986933-2.77857 3.38921-1.79164 5.36564 .986933 1.97643 3.38921 2.77857 5.36564 1.79164 .775579-.387287 1.40435-1.01606 1.79164-1.79164"></path><path d="M19.5 8.5l1.27176e-07 3.11438e-10c2.21466.00542335 4.01438-1.78551 4.01981-4.00017 .00542335-2.21466-1.78551-4.01438-4.00017-4.01981 -2.21466-.00542335-4.01438 1.78551-4.01981 4.00017 -.001536.627233.144088 1.24608.425168 1.80681"></path><path d="M15.925 17.712l-1.60625e-07 3.21443e-07c-.987484 1.97615-.186012 4.37865 1.79014 5.36614 1.97615.987484 4.37865.186012 5.36614-1.79014 .987484-1.97615.186012-4.37865-1.79014-5.36614 -.556147-.277907-1.16942-.42235-1.79114-.421862"></path><path d="M19.5 8.5l1.22049e-07 1.10946e-10c-1.51453-.00137673-2.89839-.858016-3.575-2.213l-7.851 3.925 1.02758e-08 2.03331e-08c.568029 1.12398.568029 2.45102-2.05517e-08 3.575l7.851 3.926 1.1271e-07-2.25713e-07c.676614-1.35498 2.06047-2.21162 3.575-2.213"></path></g></svg>