<?xml version="1.0" encoding="utf-8"?>
<!-- Generator: Adobe Illustrator 24.0.0, SVG Export Plug-In . SVG Version: 6.00 Build 0)  -->
<svg version="1.1" id="Laag_1" xmlns="http://www.w3.org/2000/svg" xmlns:xlink="http://www.w3.org/1999/xlink" x="0px" y="0px"
	 viewBox="0 0 15 15" style="enable-background:new 0 0 15 15;" xml:space="preserve">
<style type="text/css">
	.st0{fill:none;stroke:#000000;stroke-width:1;stroke-linecap:round;stroke-linejoin:round;}
</style>
<g>
	<path class="st0" d="M5.1,6.4C4.5,5.2,3,4.7,1.8,5.3S0.2,7.4,0.8,8.6S2.8,10.3,4,9.7c0.5-0.2,0.9-0.6,1.1-1.1"/>
	<path class="st0" d="M12.1,5.4c1.3,0,2.4-1.1,2.4-2.4c0-1.3-1.1-2.4-2.4-2.4c-1.3,0-2.4,1.1-2.4,2.4c0,0.4,0.1,0.8,0.3,1.1"/>
	<path class="st0" d="M9.9,11c-0.6,1.2-0.1,2.7,1.1,3.3c1.2,0.6,2.7,0.1,3.3-1.1c0.6-1.2,0.1-2.7-1.1-3.3c-0.3-0.2-0.7-0.3-1.1-0.3"
		/>
	<path class="st0" d="M12.1,5.4c-0.9,0-1.8-0.5-2.2-1.3L5.1,6.4c0.3,0.7,0.3,1.5,0,2.2L9.9,11c0.4-0.8,1.3-1.3,2.2-1.3"/>
</g>
</svg>
