<?xml version="1.0" encoding="UTF-8"?><svg version="1.1" viewBox="0 0 24 24" xmlns="http://www.w3.org/2000/svg" xmlns:xlink="http://www.w3.org/1999/xlink"><g stroke-linecap="round" stroke-width="1" stroke="#000" fill="none" stroke-linejoin="round"><line x1="12" x2="12" y1="13.5" y2=".5"></line><polyline points="7.5,4.999 12,.499 16.5,4.999"></polyline><path d="M15 8.5h4l-4.37114e-08 1.77636e-15c.552285-2.41411e-08 1 .447715 1 1v13 0c0 .552285-.447715 1-1 1h-14 -4.37114e-08c-.552285-2.41411e-08-1-.447715-1-1 0 0 0-3.55271e-15 0-3.55271e-15v-13l1.15463e-14 1.50996e-07c-8.33927e-08-.552285.447715-1 1-1h4"></path></g></svg>