<?xml version="1.0" encoding="utf-8"?>
<!-- Generator: Adobe Illustrator 24.0.0, SVG Export Plug-In . SVG Version: 6.00 Build 0)  -->
<svg version="1.1" id="Laag_1" xmlns="http://www.w3.org/2000/svg" xmlns:xlink="http://www.w3.org/1999/xlink" x="0px" y="0px"
	 viewBox="0 0 15 15" style="enable-background:new 0 0 15 15;" xml:space="preserve">
<style type="text/css">
	.st0{fill:none;stroke:#000000;stroke-width:1;stroke-linecap:round;stroke-linejoin:round;}
</style>
<g>
	<path class="st0" d="M14.5,1.7h-1.6c-0.2,0-0.3,0.1-0.3,0.3l-0.2,1.6c0,0.3-0.3,0.5-0.6,0.5H1.4c-0.5,0-0.9,0.4-0.9,0.9
		c0,0.1,0,0.2,0,0.3l1,3C1.6,8.8,2,9,2.4,9h8.8c0.3,0,0.6,0.3,0.6,0.6c0,0.3-0.3,0.6-0.6,0.6H2.6"/>
	<line class="st0" x1="12.1" y1="5.4" x2="11.8" y2="7.8"/>
	<circle class="st0" cx="3.8" cy="12.4" r="0.9"/>
	<circle class="st0" cx="10.5" cy="12.4" r="0.9"/>
</g>
</svg>
