<?xml version="1.0" encoding="utf-8"?>
<!-- Generator: Adobe Illustrator 24.0.0, SVG Export Plug-In . SVG Version: 6.00 Build 0)  -->
<svg version="1.1" id="Laag_1" xmlns="http://www.w3.org/2000/svg" xmlns:xlink="http://www.w3.org/1999/xlink" x="0px" y="0px"
	 viewBox="0 0 15 15" style="enable-background:new 0 0 15 15;" xml:space="preserve">
<style type="text/css">
	.st0{fill:none;stroke:#000000;stroke-width:1;stroke-linecap:round;stroke-linejoin:round;}
</style>
<g>
	<path class="st0" d="M11.3,13.9H3.7c-0.6,0-1.1-0.3-1.2-0.9L1.7,7.8h11.6L12.5,13C12.4,13.6,11.9,13.9,11.3,13.9z"/>
	<path class="st0" d="M1.4,7.8c-0.5,0-0.9-0.4-0.9-0.9S0.9,6,1.4,6h12.2c0.5,0,0.9,0.4,0.9,0.9s-0.4,0.9-0.9,0.9H1.4z"/>
	<line class="st0" x1="2.6" y1="4.8" x2="4.8" y2="1.1"/>
	<line class="st0" x1="12.4" y1="4.8" x2="10.2" y2="1.1"/>
	<line class="st0" x1="5.4" y1="9.3" x2="5.4" y2="12.4"/>
	<line class="st0" x1="9.6" y1="9.3" x2="9.6" y2="12.4"/>
</g>
</svg>
