<?xml version="1.0" encoding="UTF-8"?><svg version="1.1" viewBox="0 0 24 24" xmlns="http://www.w3.org/2000/svg" xmlns:xlink="http://www.w3.org/1999/xlink"><g stroke-linecap="round" stroke-width="1" stroke="#000" fill="none" stroke-linejoin="round"><path d="M3.707 5.5h18.638l4.23438e-08-8.64553e-12c.552285-.000112738 1.00009.447511 1.0002.999796 1.81491e-05.0889096-.0118209.177425-.0352042.263204l-2.053 7.526 -1.96953e-08 7.22507e-08c-.355798 1.30522-1.54116 2.21083-2.894 2.211h-12.34"></path><path d="M.654.5h.378l1.17997e-07 6.13909e-12c.945743 4.92267e-05 1.76218.662541 1.957 1.588l3.331 15.824 3.05381e-08 1.45064e-07c.194823.925459 1.01126 1.58795 1.957 1.588h11.377"></path><circle cx="7.654" cy="22" r="1.5"></circle><circle cx="17.654" cy="22" r="1.5"></circle></g></svg>