<?xml version="1.0" encoding="UTF-8"?><svg version="1.1" viewBox="0 0 24 24" xmlns="http://www.w3.org/2000/svg" xmlns:xlink="http://www.w3.org/1999/xlink"><g stroke-linecap="round" stroke-width="1" stroke="#000" fill="none" stroke-linejoin="round"><path d="M23.5 2.5h-2.558l-1.61294e-08-1.20433e-10c-.253975-.00189634-.469021.186915-.5.439l-.332 2.684 4.51123e-08-3.63983e-07c-.0620614.500734-.487434.876795-.992.877h-17.118l1.34059e-08-7.58504e-12c-.828427.000468733-1.49962.672421-1.49915 1.50085 8.5609e-05.151303.0230626.301723.068151.446152l1.562 5 -2.58296e-08-8.27385e-08c.195575.626475.775707 1.05307 1.432 1.053h14.437l3.33511e-08 1.77636e-15c.552285 4.16963e-08 1 .447715 1 1 -4.16963e-08.552285-.447715 1-1 1h-14"></path><line x1="19.5" x2="19.06" y1="8.5" y2="12.48"></line><circle cx="6.001" cy="20" r="1.5"></circle><circle cx="17.001" cy="20" r="1.5"></circle></g></svg>