<?xml version="1.0" encoding="UTF-8"?><svg version="1.1" viewBox="0 0 24 24" xmlns="http://www.w3.org/2000/svg" xmlns:xlink="http://www.w3.org/1999/xlink"><g stroke-linecap="round" stroke-width="1" stroke="#000" fill="none" stroke-linejoin="round"><circle cx="8" cy="18.999" r="1.5"></circle><path d="M.5.5h2.708l4.32338e-08 1.84377e-11c.463907.00019785.866765.31942.973.771l3.819 16.229h4"></path><path d="M21.984 11.046l1.077-3.229 4.87377e-08-1.45817e-07c.175074-.523801-.107625-1.09035-.631426-1.26543 -.102381-.0342195-.209627-.0516363-.317575-.0515743h-16.7"></path><line x1="7.29" x2="11.98" y1="14.5" y2="14.5"></line><circle cx="18.5" cy="18.499" r="5"></circle><path d="M16.5 19l1.083 1.083 -3.67503e-08-3.66937e-08c.195413.195112.511995.194868.707107-.000544702 .0193082-.019338.0369986-.0402264.0528934-.0624552l2.157-3.02"></path></g></svg>