<svg viewBox="0 0 24 24" xmlns="http://www.w3.org/2000/svg"><g stroke-linecap="round" stroke="#000" fill="none" stroke-linejoin="round"><path d="M3.689 2l0-.001c-.42 0-.79.25-.94.64l-1.59 4.14 -.01 0c-.17.44-.18.93-.02 1.38l-.01-.01c.51 1.42 2.08 2.17 3.51 1.65 1.09-.4 1.81-1.43 1.82-2.59l0 0c0 1.51 1.23 2.74 2.75 2.74 1.51-.01 2.74-1.24 2.74-2.76l0 0c0 1.51 1.23 2.74 2.75 2.74 1.51-.01 2.74-1.24 2.74-2.76l-.01-.01c0 1.51 1.23 2.74 2.75 2.74 1.15-.01 2.19-.73 2.58-1.83l0-.01c.16-.45.15-.94-.02-1.39l-1.58-4.148 0 0c-.15-.39-.52-.65-.94-.65Z"/><rect width="7" height="6" x="4.957" y="13" rx=".5"/><path d="M13.957 22v-8.5l0 0c-.01-.28.22-.51.49-.51h4 -.01c.27-.01.5.22.5.49v8.5"/><path d="M20.957 9.908V21v0c0 .55-.45 1-1 1h-16 -.01c-.56-.01-1-.45-1-1.01 0 0 0-.001 0-.001V9.86"/></g></svg>