<?xml version="1.0" encoding="UTF-8"?><svg version="1.1" viewBox="0 0 24 24" xmlns="http://www.w3.org/2000/svg" xmlns:xlink="http://www.w3.org/1999/xlink"><g stroke-linecap="round" stroke-width="1" stroke="#000" fill="none" stroke-linejoin="round"><path d="M18.234 22.5h-12.468l4.80415e-08-3.19879e-09c-.928978.0618549-1.76733-.554767-1.985-1.46l-1.281-8.54h19l-1.281 8.54 1.04498e-08-4.34584e-08c-.217669.905233-1.05602 1.52185-1.985 1.46Z"></path><path d="M2 12.5l-6.55671e-08-1.77636e-15c-.828427-3.62117e-08-1.5-.671573-1.5-1.5 3.62117e-08-.828427.671573-1.5 1.5-1.5h20l-6.55671e-08 1.77636e-15c.828427-3.62117e-08 1.5.671573 1.5 1.5 3.62117e-08.828427-.671573 1.5-1.5 1.5Z"></path><line x1="4" x2="7.5" y1="7.5" y2="1.5"></line><line x1="20" x2="16.5" y1="7.5" y2="1.5"></line><line x1="8.5" x2="8.5" y1="15" y2="20"></line><line x1="15.5" x2="15.5" y1="15" y2="20"></line></g></svg>