<?xml version="1.0" encoding="UTF-8"?><svg version="1.1" viewBox="0 0 24 24" xmlns="http://www.w3.org/2000/svg" xmlns:xlink="http://www.w3.org/1999/xlink"><g stroke-linecap="round" stroke-width="1" stroke="#000" fill="none" stroke-linejoin="round"><path d="M16.987 22.5l-3.5 1 1-3.5 5.982-5.982 -2.97078e-08 2.87585e-08c.701566-.679146 1.82085-.660971 2.5.0405955 .663603.68551.663603 1.77389 5.75169e-08 2.4594Z"></path><line x1="19.72" x2="22.22" y1="14.77" y2="17.27"></line><line x1="14.49" x2="16.99" y1="20" y2="22.5"></line><line x1="3.55" x2="6.16" y1="5.5" y2=".5"></line><line x1="17.45" x2="14.84" y1="5.5" y2=".5"></line><path d="M18.647 11.282l.537-2.782h-17.368l1.477 7.656 -2.50516e-08-1.13676e-07c.175791.797683.890339 1.36028 1.707 1.344h8.511"></path><rect width="19.974" height="3" x=".513" y="5.5" rx=".55228" ry="0"></rect><line x1="10.51" x2="10.51" y1="11" y2="14.04"></line><line x1="6.61" x2="7.04" y1="11" y2="14.04"></line></g></svg>