<svg viewBox="0 0 24 24" xmlns="http://www.w3.org/2000/svg"><g stroke-linecap="round" stroke="#000" fill="none" stroke-linejoin="round"><path d="M23.5 2.5h-2.56l-.01-.001c-.26-.01-.47.18-.5.43l-.34 2.68 0-.01c-.07.5-.49.87-1 .87H1.97l0-.001c-.83 0-1.5.67-1.5 1.5 0 .15.02.3.06.44l1.56 5 -.01-.01c.19.62.77 1.05 1.43 1.05h14.43l0 0c.55 0 1 .44.99 1 -.01.55-.45.99-1 .99h-14"/><path d="M19.5 8.5l-.44 3.98"/><path d="M6 18.5a1.5 1.5 0 1 0 0 3 1.5 1.5 0 1 0 0-3Z"/><path d="M17 18.5a1.5 1.5 0 1 0 0 3 1.5 1.5 0 1 0 0-3Z"/></g></svg>