<?xml version="1.0" encoding="UTF-8"?><svg version="1.1" viewBox="0 0 24 24" xmlns="http://www.w3.org/2000/svg" xmlns:xlink="http://www.w3.org/1999/xlink"><g stroke-linecap="round" stroke-width="1" stroke="#000" fill="none" stroke-linejoin="round"><path d="M13.513 18.5l-4.56927e-10 6.68455e-05c4.16963e-07-2.76142 2.23858-5 5-5 2.76142 4.16963e-07 5 2.23858 5 5 -4.16963e-07 2.76142-2.23858 5-5 5 -.00864418-1.30524e-09-.0172883-2.24191e-05-.0259324-6.72533e-05l2.63833e-07 1.36841e-09c-2.75129-.01427-4.9741-2.24867-4.97407-5Z"></path><path d="M16.513 19l1.087 1.083 -3.67503e-08-3.66937e-08c.195413.195112.511995.194868.707107-.000544702 .0193082-.019338.0369986-.0402264.0528934-.0624552l2.153-3.02"></path><line x1="3.55" x2="6.16" y1="5.5" y2=".5"></line><line x1="17.45" x2="14.84" y1="5.5" y2=".5"></line><path d="M18.647 11.282l.537-2.782h-17.368l1.477 7.656 -2.50516e-08-1.13676e-07c.175791.797683.890339 1.36028 1.707 1.344h5.011"></path><rect width="20" height="3" x=".487" y="5.5" rx=".55228" ry="0"></rect><line x1="10.51" x2="10.51" y1="11" y2="14.04"></line><line x1="6.61" x2="7.04" y1="11" y2="14.04"></line></g></svg>