<?xml version="1.0" encoding="utf-8"?>
<!-- Generator: Adobe Illustrator 24.0.0, SVG Export Plug-In . SVG Version: 6.00 Build 0)  -->
<svg version="1.1" id="Laag_1" xmlns="http://www.w3.org/2000/svg" xmlns:xlink="http://www.w3.org/1999/xlink" x="0px" y="0px"
	 viewBox="0 0 15 15" style="enable-background:new 0 0 15 15;" xml:space="preserve">
<style type="text/css">
	.st0{fill:none;stroke:#000000;stroke-width:1;stroke-linecap:round;stroke-linejoin:round;}
</style>
<g>
	<line class="st0" x1="2.4" y1="3.5" x2="3.9" y2="0.5"/>
	<line class="st0" x1="10.8" y1="3.5" x2="9.2" y2="0.5"/>
	<circle class="st0" cx="11.4" cy="11.5" r="3"/>
	<line class="st0" x1="12.4" y1="10.5" x2="10.5" y2="12.4"/>
	<line class="st0" x1="10.5" y1="10.5" x2="12.4" y2="12.4"/>
	<path class="st0" d="M11.5,7.1l0.3-1.7H1.3L2.2,10c0.1,0.5,0.5,0.8,1,0.8h3.1"/>
	<path class="st0" d="M1.1,3.5h10.9c0.3,0,0.6,0.3,0.6,0.6v0.6c0,0.3-0.3,0.6-0.6,0.6H1.1c-0.3,0-0.6-0.3-0.6-0.6V4.2
		C0.5,3.8,0.8,3.5,1.1,3.5z"/>
	<line class="st0" x1="6.6" y1="6.9" x2="6.6" y2="8.7"/>
	<line class="st0" x1="4.2" y1="6.9" x2="4.5" y2="8.7"/>
</g>
</svg>
