<?xml version="1.0" encoding="utf-8"?>
<!-- Generator: Adobe Illustrator 24.0.0, SVG Export Plug-In . SVG Version: 6.00 Build 0)  -->
<svg version="1.1" id="Light" xmlns="http://www.w3.org/2000/svg" xmlns:xlink="http://www.w3.org/1999/xlink" x="0px" y="0px"
	 viewBox="0 0 15 15" style="enable-background:new 0 0 15 15;" xml:space="preserve">
<style type="text/css">
	.st0{fill:none;stroke:#000000;stroke-width:1;stroke-linecap:round;stroke-linejoin:round;}
</style>
<g>
	<path class="st0" d="M14.5,8.4V4.3c0-0.3-0.3-0.6-0.6-0.6c-0.1,0-0.2,0-0.2,0c-2.1,0.8-6.6,0.8-8.7,0c-0.3-0.1-0.7,0-0.8,0.3
		c0,0.1,0,0.1,0,0.2v4.1c0,3.3,4,6.1,5.2,6.1S14.5,11.8,14.5,8.4z"/>
	<path class="st0" d="M10.8,3.1v-2c0-0.3-0.3-0.6-0.6-0.6c-0.1,0-0.2,0-0.2,0c-2.1,0.8-6.6,0.8-8.7,0C1,0.4,0.7,0.6,0.5,0.9
		c0,0.1,0,0.1,0,0.2v4.1c0,1.9,1.3,3.7,2.7,4.8"/>
	<path class="st0" d="M11.2,10.2c0,1-0.8,1.8-1.8,1.8s-1.8-0.8-1.8-1.8"/>
	<path class="st0" d="M10.5,7.5c0-0.5,0.4-0.9,0.9-0.9c0.5,0,0.9,0.4,0.9,0.9"/>
	<path class="st0" d="M6.3,7.5c0-0.5,0.4-0.9,0.9-0.9S8.1,7,8.1,7.5"/>
</g>
</svg>
