<?xml version="1.0" encoding="UTF-8"?><svg version="1.1" viewBox="0 0 24 24" xmlns="http://www.w3.org/2000/svg" xmlns:xlink="http://www.w3.org/1999/xlink"><g stroke-linecap="round" stroke-width="1" stroke="#000" fill="none" stroke-linejoin="round"><path d="M23.5 13.5v-6.748l1.71268e-08-4.16058e-06c.00225864-.548966-.440936-.995823-.989902-.998081 -.131409-.000540662-.26162.0249805-.383102.075087 -3.436 1.392-10.818 1.393-14.254 0l2.47915e-08 9.9666e-09c-.512426-.206004-1.09483.0424001-1.30083.554826 -.0471906.117385-.071678.242658-.0721627.369172v6.747c0 5.5 6.5 10 8.5 10 2 0 8.5-4.5 8.5-10Z"></path><path d="M17.5 4.773v-3.273l4.26136e-08-6.94999e-06c.00336401-.548961-.43893-.996708-.98789-1.00007 -.132086-.000809416-.263008.0247151-.385116.075082 -3.43599 1.392-10.818 1.393-14.254-2.65963e-06l-4.24592e-08-1.70693e-08c-.512426-.206004-1.09483.0423996-1.30083.554826 -.0473164.117697-.0718073.243322-.0721662.370174v6.746c0 3.169 2.16 6.008 4.373 7.844"></path><path d="M18 16.5v0c0 1.65685-1.34315 3-3 3 -1.65685 0-3-1.34315-3-3"></path><path d="M17 12l1.77636e-14 2.26494e-07c-1.25089e-07-.828427.671573-1.5 1.5-1.5 .828427-1.25089e-07 1.5.671573 1.5 1.5 0 0 0 1.77636e-15 0 1.77636e-15"></path><path d="M10 12l1.77636e-14 2.26494e-07c-1.25089e-07-.828427.671573-1.5 1.5-1.5 .828427-1.25089e-07 1.5.671573 1.5 1.5 0 0 0 1.77636e-15 0 1.77636e-15"></path></g></svg>