<?xml version="1.0" encoding="UTF-8"?><svg version="1.1" viewBox="0 0 24 24" xmlns="http://www.w3.org/2000/svg" xmlns:xlink="http://www.w3.org/1999/xlink"><path d="M.5 23l4.52342e-08-1.32822e-06c.0479212-1.40711.388491-2.78881 1-4.057 .705-1.41 3.65-2.387 7.347-3.756 1-.371.836-2.981.393-3.468 -1.04-1.143-1.92-2.484-1.92-5.719 0-3.265 2.13-5 4.68-5 2.55 0 4.68 1.735 4.68 5 0 3.235-.881 4.576-1.92 5.719 -.443.487-.607 3.1.393 3.468 3.7 1.369 6.642 2.346 7.347 3.756l-3.5776e-08-7.4195e-08c.611509 1.26819.952079 2.64989 1 4.057Z" stroke-linecap="round" stroke-width="1" stroke="#000" fill="none" stroke-linejoin="round"></path></svg>