<?xml version="1.0" encoding="UTF-8"?><svg version="1.1" viewBox="0 0 24 24" xmlns="http://www.w3.org/2000/svg" xmlns:xlink="http://www.w3.org/1999/xlink"><g stroke-linecap="round" stroke-width="1" stroke="#000" fill="none" stroke-linejoin="round"><circle cx="17.5" cy="17.5" r="6"></circle><line x1="19.62" x2="15.38" y1="15.38" y2="19.62"></line><line x1="19.62" x2="15.38" y1="19.62" y2="15.38"></line><path d="M9 16.5h-8.5l-9.15562e-08 7.79856e-06c.0134126-1.1425.251253-2.27123.699997-3.322 .49-.981 2.539-1.661 5.111-2.613 .695-.258.581-2.074.273-2.413l-3.8818e-08-4.19473e-08c-.993891-1.07401-1.48149-2.52154-1.34-3.97801l4.57635e-08 4.75942e-07c-.177293-1.84386 1.17373-3.48233 3.01758-3.65962 .0792759-.00762265.158798-.0124192.238415-.0143807l-1.3102e-07-3.22774e-09c1.8518.0456198 3.316 1.58378 3.27038 3.43558 -.0019614.0796173-.00675797.159139-.0143806.238415l1.62581e-07 1.66032e-06c.142561 1.45587-.343558 2.90331-1.336 3.978 -.308.339-.422 2.155.273 2.413l1.307.480999"></path></g></svg>