<?xml version="1.0" encoding="UTF-8"?><svg version="1.1" viewBox="0 0 24 24" xmlns="http://www.w3.org/2000/svg" xmlns:xlink="http://www.w3.org/1999/xlink"><g stroke-linecap="round" stroke-width="1" stroke="#000" fill="none" stroke-linejoin="round"><line x1="13.5" x2="20.5" y1="14.5" y2="14.5"></line><line x1="13.5" x2="20.5" y1="11.5" y2="11.5"></line><line x1="16.5" x2="20" y1="8.5" y2="8.5"></line><path d="M3 14.5l-9.84402e-09 2.88398e-07c.016705-.489404.135225-.969954.348-1.411 .245-.49 1.269-.83 2.555-1.307 .348-.129.291-1.036.137-1.206l5.42661e-08 5.88353e-08c-.495828-.537576-.738826-1.26111-.668-1.989l-1.40359e-08-1.49611e-07c-.0820737-.874844.560593-1.65058 1.43544-1.73265 .0640007-.00600424.128306-.00812421.192564-.00634825l-8.36702e-08 2.31249e-09c.87835-.0242759 1.61007.668088 1.63435 1.54644 .00177594.0642569-.00034402.128562-.00634822.192563l-4.08326e-08-4.19638e-07c.0708264.727885-.172172 1.45142-.668 1.989 -.154.17-.211 1.077.137 1.206 1.286.477 2.31.817 2.555 1.307l-4.33723e-08-8.99035e-08c.212775.441046.331295.921597.348 1.411Z"></path><path d="M19.5 19.5v0c0-1.10457-.895431-2-2-2 -1.10457 0-2 .895431-2 2v.5 0c0 .276142-.223858.5-.5.5h-6.5 -2.18557e-08c-.276142-1.20706e-08-.5-.223858-.5-.5 0 0 0 0 0 0v-.5 0c0-1.10457-.895431-2-2-2 -1.10457 0-2 .895431-2 2v.5 0c0 .276142-.223858.5-.5.5h-2 -4.37114e-08c-.552285-2.41411e-08-1-.447715-1-1 0 0 0-3.55271e-15 0-3.55271e-15v-15l1.06581e-14 1.50996e-07c-8.33927e-08-.552285.447715-1 1-1h21 -4.37114e-08c.552285-2.41411e-08 1 .447715 1 1v15 0c0 .552285-.447715 1-1 1h-2.5 -2.18557e-08c-.276142-1.20706e-08-.5-.223858-.5-.5 0 0 0 0 0 0Z"></path></g></svg>