<?xml version="1.0" encoding="UTF-8"?><svg version="1.1" viewBox="0 0 24 24" xmlns="http://www.w3.org/2000/svg" xmlns:xlink="http://www.w3.org/1999/xlink"><path d="M4 20.25l-9.15562e-08 7.79856e-06c.0134126-1.1425.251253-2.27123.699997-3.322 .49-.981 2.539-1.661 5.111-2.613 .7-.258.581-2.074.273-2.413l-3.8818e-08-4.19473e-08c-.993891-1.07401-1.48149-2.52154-1.34-3.97801l4.57635e-08 4.75942e-07c-.177293-1.84386 1.17373-3.48233 3.01758-3.65962 .0792759-.00762265.158798-.0124192.238415-.0143807l-1.3102e-07-3.22773e-09c1.8518.0456198 3.316 1.58378 3.27038 3.43558 -.0019614.0796173-.00675797.159139-.0143806.238415l2.33165e-08 2.38987e-07c.141975 1.4552-.344103 2.9018-1.336 3.976 -.308.339-.422 2.155.273 2.413 2.572.952 4.621 1.632 5.111 2.613l5.47871e-08 1.28718e-07c.447628 1.05167.684114 2.18109.696 3.324Z" stroke-linecap="round" stroke-width="1" stroke="#000" fill="none" stroke-linejoin="round"></path></svg>