<?xml version="1.0" encoding="UTF-8"?><svg version="1.1" viewBox="0 0 24 24" xmlns="http://www.w3.org/2000/svg" xmlns:xlink="http://www.w3.org/1999/xlink"><g stroke-linecap="round" stroke-width="1" stroke="#000" fill="none" stroke-linejoin="round"><path d="M22.88 15.188l-7.523 7.524 -9.45692e-10 9.41426e-10c-.06976.0694456-.158466.116755-.255.136l-2.867.573 -3.22034e-10 6.41123e-11c-.270828.0539156-.534084-.121927-.588-.392754 -.0128304-.0644495-.0128304-.130796 1.28217e-10-.195246l.573-2.866 -1.28924e-08 6.38196e-08c.0195243-.096649.0671889-.185368.137-.255l7.523-7.524 5.32314e-10-5.32141e-10c.826295-.826032 2.16571-.826032 2.992 1.06428e-09l.008.009 5.73849e-08 5.73873e-08c.825918.825952.825918 2.16505-6.7956e-08 2.991Z"></path><path d="M11.5 16.569h-11l-9.15562e-08 7.79856e-06c.0134126-1.1425.251253-2.27123.699997-3.322 .49-.981 2.539-1.661 5.111-2.614 .695-.257.581-2.073.273-2.412l2.87525e-07 3.10907e-07c-.993714-1.07452-1.48126-2.52226-1.34-3.97901l-3.61386e-08-3.7576e-07c-.17728-1.84331 1.1733-3.48131 3.01661-3.65859 .0796006-.00765557.15945-.012461.239394-.0144071l1.28107e-07 3.11858e-09c1.85126.0450664 3.31547 1.58234 3.27041 3.43361 -.00194613.079944-.00675158.159793-.0144071.239393l1.01799e-07 1.04146e-06c.142334 1.45615-.343735 2.90381-1.336 3.979 -.308.339-.422 2.155.273 2.412 2.572.953 4.621 1.633 5.111 2.614"></path></g></svg>