<?xml version="1.0" encoding="utf-8"?>
<!-- Generator: Adobe Illustrator 24.0.0, SVG Export Plug-In . SVG Version: 6.00 Build 0)  -->
<svg version="1.1" id="Light" xmlns="http://www.w3.org/2000/svg" xmlns:xlink="http://www.w3.org/1999/xlink" x="0px" y="0px"
	 viewBox="0 0 15 15" style="enable-background:new 0 0 15 15;" xml:space="preserve">
<style type="text/css">
	.st0{fill:none;stroke:#000000;stroke-width:1;stroke-linecap:round;stroke-linejoin:round;}
</style>
<g>
	<line class="st0" x1="8.4" y1="9" x2="12.7" y2="9"/>
	<line class="st0" x1="8.4" y1="7.2" x2="12.7" y2="7.2"/>
	<line class="st0" x1="10.2" y1="5.4" x2="12.4" y2="5.4"/>
	<path class="st0" d="M2,9c0-0.3,0.1-0.6,0.2-0.9C2.4,7.9,3,7.7,3.8,7.4C4,7.3,4,6.7,3.9,6.6C3.6,6.3,3.4,5.9,3.5,5.4
		c0-0.5,0.3-1,0.9-1.1c0,0,0.1,0,0.1,0c0.5,0,1,0.4,1,0.9c0,0,0,0.1,0,0.1c0,0.4-0.1,0.9-0.4,1.2C4.9,6.7,4.9,7.3,5.1,7.4
		c0.8,0.3,1.4,0.5,1.6,0.8C6.8,8.4,6.9,8.7,6.9,9H2z"/>
	<path class="st0" d="M12.1,12.1c0-0.7-0.5-1.2-1.2-1.2s-1.2,0.5-1.2,1.2v0.3c0,0.2-0.1,0.3-0.3,0.3h-4c-0.2,0-0.3-0.1-0.3-0.3v-0.3
		c0-0.7-0.5-1.2-1.2-1.2s-1.2,0.5-1.2,1.2v0.3c0,0.2-0.1,0.3-0.3,0.3H1.1c-0.3,0-0.6-0.3-0.6-0.6V2.9c0-0.3,0.3-0.6,0.6-0.6h12.8
		c0.3,0,0.6,0.3,0.6,0.6v9.1c0,0.3-0.3,0.6-0.6,0.6h-1.5c-0.2,0-0.3-0.1-0.3-0.3V12.1z"/>
</g>
</svg>
