<?xml version="1.0" encoding="utf-8"?>
<!-- Generator: Adobe Illustrator 24.0.0, SVG Export Plug-In . SVG Version: 6.00 Build 0)  -->
<svg version="1.1" id="Laag_1" xmlns="http://www.w3.org/2000/svg" xmlns:xlink="http://www.w3.org/1999/xlink" x="0px" y="0px"
	 viewBox="0 0 15 15" style="enable-background:new 0 0 15 15;" xml:space="preserve">
<style type="text/css">
	.st0{fill:none;stroke:#000000;stroke-width:1;stroke-linecap:round;stroke-linejoin:round;}
</style>
<g>
	<circle class="st0" cx="7.5" cy="7.5" r="7"/>
	<path class="st0" d="M4.2,6.1c0.1,0,0.2,0.1,0.2,0.2c0,0.1-0.1,0.2-0.2,0.2C4.1,6.4,4,6.4,4,6.3C4,6.2,4.1,6.1,4.2,6.1"/>
	<path class="st0" d="M10.8,6.1c-0.1,0-0.2,0.1-0.2,0.2c0,0.1,0.1,0.2,0.2,0.2S11,6.4,11,6.3C11,6.2,10.9,6.1,10.8,6.1"/>
	<path class="st0" d="M4.8,11.8C4.8,10.2,6,9,7.5,9s2.7,1.2,2.7,2.7"/>
</g>
</svg>
