<?xml version="1.0" encoding="UTF-8"?><svg version="1.1" viewBox="0 0 24 24" xmlns="http://www.w3.org/2000/svg" xmlns:xlink="http://www.w3.org/1999/xlink"><g stroke-linecap="round" stroke-width="1" stroke="#000" fill="none" stroke-linejoin="round"><circle cx="12" cy="12" r="11.5"></circle><path d="M6.5 9.75h-1.09278e-08c.138071-6.03528e-09.25.111929.25.25 6.03528e-09.138071-.111929.25-.25.25 -.138071 6.03528e-09-.25-.111929-.25-.25l2.66454e-15 3.7749e-08c-2.08482e-08-.138071.111929-.25.25-.25"></path><path d="M17.5 9.75h-1.09278e-08c-.138071 6.03528e-09-.25.111929-.25.25 6.03528e-09.138071.111929.25.25.25 .138071-6.03528e-09.25-.111929.25-.25v0c0-.138071-.111929-.25-.25-.25"></path><path d="M7.5 19l5.15143e-14 6.79481e-07c-3.75267e-07-2.48528 2.01472-4.5 4.5-4.5 2.48528-3.75267e-07 4.5 2.01472 4.5 4.5 0 0 0 3.55271e-15 0 3.55271e-15"></path></g></svg>