<?xml version="1.0" encoding="UTF-8"?><svg version="1.1" viewBox="0 0 24 24" xmlns="http://www.w3.org/2000/svg" xmlns:xlink="http://www.w3.org/1999/xlink"><g stroke-linecap="round" stroke-width="1" stroke="#000" fill="none" stroke-linejoin="round"><path d="M12 .5l-5.02681e-07 1.06581e-14c-6.35127 2.77623e-07-11.5 5.14873-11.5 11.5 2.77623e-07 6.35127 5.14873 11.5 11.5 11.5 6.35127-2.77623e-07 11.5-5.14873 11.5-11.5l7.10543e-15 5.02681e-07c0-6.35127-5.14873-11.5-11.5-11.5Z"></path><polygon points="8.855,16.859 6.9,10.828 12.013,7.102 17.126,10.828 15.174,16.859 8.855,16.859"></polygon><polyline points="16.41,1.376 12.013,3.254 7.618,1.376"></polyline><polyline points="3.315,4.462 3.741,9.284 .54,12.968"></polyline><polyline points="2.165,17.95 6.901,19.041 9.388,23.202"></polyline><polyline points="14.647,23.194 17.126,19.039 21.841,17.953"></polyline><polyline points="23.462,12.939 20.284,9.281 20.708,4.489"></polyline><line x1="12.01" x2="12.01" y1="3.25" y2="7.1"></line><line x1="17.13" x2="20.28" y1="10.83" y2="9.28"></line><line x1="15.17" x2="17.13" y1="16.86" y2="19.04"></line><line x1="8.85" x2="6.9" y1="16.86" y2="19.04"></line><line x1="3.74" x2="6.9" y1="9.28" y2="10.83"></line></g></svg>