<?xml version="1.0" encoding="utf-8"?>
<!-- Generator: Adobe Illustrator 24.0.0, SVG Export Plug-In . SVG Version: 6.00 Build 0)  -->
<svg version="1.1" id="Light" xmlns="http://www.w3.org/2000/svg" xmlns:xlink="http://www.w3.org/1999/xlink" x="0px" y="0px"
	 viewBox="0 0 15 15" style="enable-background:new 0 0 15 15;" xml:space="preserve">
<style type="text/css">
	.st0{fill:none;stroke:#000000;stroke-width:1;stroke-linecap:round;stroke-linejoin:round;}
</style>
<g>
	<path class="st0" d="M7.5,0.5c-3.9,0-7,3.1-7,7s3.1,7,7,7s7-3.1,7-7S11.4,0.5,7.5,0.5z"/>
	<polygon class="st0" points="5.6,10.5 4.4,6.8 7.5,4.5 10.6,6.8 9.4,10.5 	"/>
	<polyline class="st0" points="10.2,1 7.5,2.2 4.8,1 	"/>
	<polyline class="st0" points="2.2,2.9 2.5,5.8 0.5,8.1 	"/>
	<polyline class="st0" points="1.5,11.1 4.4,11.8 5.9,14.3 	"/>
	<polyline class="st0" points="9.1,14.3 10.6,11.8 13.5,11.1 	"/>
	<polyline class="st0" points="14.5,8.1 12.5,5.8 12.8,2.9 	"/>
	<line class="st0" x1="7.5" y1="2.2" x2="7.5" y2="4.5"/>
	<line class="st0" x1="10.6" y1="6.8" x2="12.5" y2="5.8"/>
	<line class="st0" x1="9.4" y1="10.5" x2="10.6" y2="11.8"/>
	<line class="st0" x1="5.6" y1="10.5" x2="4.4" y2="11.8"/>
	<line class="st0" x1="2.5" y1="5.8" x2="4.4" y2="6.8"/>
</g>
</svg>
