<?xml version="1.0" encoding="UTF-8"?><svg version="1.1" viewBox="0 0 24 24" xmlns="http://www.w3.org/2000/svg" xmlns:xlink="http://www.w3.org/1999/xlink"><path d="M23 6.628l-2-.5 1-2 -2.464.7 2.57016e-08 2.39776e-08c-1.80917-1.68782-4.64405-1.58944-6.33187.219734 -.779549.835599-1.21031 1.93751-1.20413 3.08027v1c-3.539.73-6.634-1.2-9.5-4.5 -.5 2.66667 0 4.66667 1.5 6l-3-.5c.405 2.069 1.362 3.7 4 4l-2.5 1c1 2 2.566 2.31 5 2.5l-2.05762e-07 1.4702e-07c-1.89308 1.35264-4.17397 2.05445-6.5 2 12.755 5.669 20-2.664 20-10v-1.328Z" stroke-linecap="round" stroke-width="1" stroke="#000" fill="none" stroke-linejoin="round"></path></svg>