<?xml version="1.0" encoding="UTF-8"?><svg version="1.1" viewBox="0 0 24 24" xmlns="http://www.w3.org/2000/svg" xmlns:xlink="http://www.w3.org/1999/xlink"><g stroke-linecap="round" stroke-width="1" stroke="#000" fill="none" stroke-linejoin="round"><path d="M10.73 4l-1.01784e-07-9.58832e-08c1.87575 1.76701 1.96876 4.71839.208 6.6l1.3692e-08-1.28109e-08c-1.88155 1.76047-4.83247 1.66792-6.6-.207l2.11863e-07 1.99472e-07c-1.87655-1.7668-1.96914-4.71908-.207-6.6l-3.10463e-07 2.90766e-07c1.8808-1.76147 4.8323-1.66889 6.599.206999Z"></path><line x1="6.93" x2="13.93" y1="2.5" y2="2.5"></line><ellipse cx="7.532" rx="7.007" ry="4.058" cy="19.434"></ellipse><path d="M10.059 11.274c-1.454 3.671 4.48 2.565 4.48 8.16"></path><line x1="19.51" x2="19.51" y1="5" y2="14"></line><line x1="24.01" x2="15.01" y1="9.5" y2="9.5"></line></g></svg>