<svg viewBox="0 0 24 24" xmlns="http://www.w3.org/2000/svg"><g stroke-linecap="round" stroke="#000" fill="none" stroke-linejoin="round"><path class="cls-1" d="m19.03,5.11c-1.24-.81-2.13-2.1-2.41-3.61-.06-.33-.09-.66-.09-1h-3.95v15.85c-.07,1.77-1.53,3.2-3.32,3.2-.56,0-1.08-.14-1.54-.38-1.06-.56-1.78-1.67-1.78-2.94,0-1.83,1.49-3.32,3.32-3.32.34,0,.67.06.98.15v-4.04c-.32-.04-.65-.07-.98-.07-4.01,0-7.28,3.26-7.28,7.28,0,2.46,1.23,4.64,3.11,5.96,1.18.83,2.62,1.32,4.17,1.32,4.01,0,7.28-3.26,7.28-7.28v-8.04c1.55,1.11,3.45,1.77,5.5,1.77v-3.95c-1.1,0-2.13-.33-3-.89"/></g></svg>