<?xml version="1.0" encoding="UTF-8"?><svg version="1.1" viewBox="0 0 24 24" xmlns="http://www.w3.org/2000/svg" xmlns:xlink="http://www.w3.org/1999/xlink"><path d="M.5 7.393l.933 1.224c0 0 1.927-1.517 2.567-.758 .64.759 3.1 9.925 3.915 11.617 .714 1.483 2.684 3.444 4.845 2.042 2.161-1.402 9.34-7.529 10.626-14.769 1.286-7.24-8.642-5.723-9.693.583 2.627-1.577 4.03.642 2.686 3.154 -1.344 2.512-2.569 4.145-3.211 4.145 -.642 0-1.135-1.679-1.868-4.613 -.76-3.035-.755-8.5-3.911-7.882 -2.977.585-6.889 5.257-6.889 5.257Z" stroke-linecap="round" stroke-width="1" stroke="#000" fill="none" stroke-linejoin="round"></path></svg>