<?xml version="1.0" encoding="utf-8"?>
<!-- Generator: Adobe Illustrator 24.1.1, SVG Export Plug-In . SVG Version: 6.00 Build 0)  -->
<svg version="1.1" id="Layer_1" xmlns="http://www.w3.org/2000/svg" xmlns:xlink="http://www.w3.org/1999/xlink" x="0px" y="0px"
	 viewBox="0 0 15 15" style="enable-background:new 0 0 15 15;" xml:space="preserve">
<style type="text/css">
	.st0{stroke:#000000;stroke-linecap:round;stroke-linejoin:round;}
</style>
<g>
	<path class="st0" d="M8.4,4L8.4,4C6.5,2.2,3.5,2.3,1.7,4.3C0,6.2,0.1,9.2,2,11c0.9,0.8,2,1.3,3.2,1.3c3.2,0,4.4-2.3,4.4-4.7
		c0-0.1,0-0.3,0-0.5H5.3v1.2h2.9l0,0c0,1.6-1.4,2.8-3,2.7l0,0l0,0c-2,0-3.5-1.6-3.5-3.5S3.2,4,5.2,4c0.9,0,1.7,0.3,2.3,0.9L8.4,4z"
		/>
	<polygon class="st0" points="14.5,7 13.3,7 13.3,5.8 12.1,5.8 12.1,7 10.9,7 10.9,8.2 12.1,8.2 12.1,9.4 13.3,9.4 13.3,8.2 
		14.5,8.2 	"/>
</g>
</svg>
