<?xml version="1.0" encoding="UTF-8"?><svg version="1.1" viewBox="0 0 24 24" xmlns="http://www.w3.org/2000/svg" xmlns:xlink="http://www.w3.org/1999/xlink"><g stroke-linecap="round" stroke-width="1" stroke="#000" fill="none" stroke-linejoin="round"><circle cx="12" cy="12" r="11.5"></circle><path d="M18.932 11.071l-4.20568e-08-5.26139e-11c-.285716-.000357439-.561013-.107338-.772-.3l-1.7388e-07-1.42935e-07c-1.58324-1.30147-3.50948-2.11663-5.546-2.347l1.66501e-07 2.80846e-08c-2.01418-.339741-4.0836-.0911326-5.96.716l3.53082e-08-1.53986e-08c-.582171.253897-1.25994-.0122222-1.51384-.594393 -.238641-.547189-.0189152-1.18599.505834-1.47061l-3.10727e-07 1.36382e-07c2.28958-1.00492 4.82087-1.3265 7.289-.926l6.13749e-07 7.31014e-08c2.49193.296805 4.84393 1.31126 6.77 2.92l-1.75522e-08-1.59951e-08c.469443.427797.503203 1.15515.0754057 1.6246 -.21754.238717-.525436.374955-.848406.375403Z"></path><path d="M17.449 14.658l3.23423e-08-8.49578e-11c-.242111.00063599-.476113-.0872036-.658-.247l3.73613e-07 2.9788e-07c-1.36694-1.08986-3.01235-1.77414-4.749-1.975l4.62903e-07 7.68666e-08c-1.72841-.287007-3.50269-.0818556-5.12.591999l-4.37725e-08 1.95448e-08c-.504297.225173-1.09565-.00110082-1.32082-.505398 -.21841-.489149-.0125657-1.06353.466823-1.3026l7.2081e-07-3.10315e-07c1.96838-.847404 4.13839-1.11289 6.253-.765l8.08004e-07 9.46759e-08c2.1227.248722 4.13015 1.09875 5.786 2.45l-4.78929e-08-4.18519e-08c.41587.363415.458394.99515.0949796 1.41102 -.189891.217301-.4644.341974-.752979.34198Z"></path><path d="M16.338 18.4l-2.96064e-08 4.10978e-11c-.217917.000302501-.428441-.0789995-.592-.223l-8.59899e-08-6.86998e-08c-1.22756-.980735-2.70618-1.59651-4.267-1.777l3.46911e-07 5.73163e-08c-1.54362-.255035-3.12779-.0738981-4.574.523l2.64896e-08-1.57131e-08c-.427503.253586-.979635.112598-1.23322-.314905 -.253586-.427503-.112598-.979635.314905-1.23322 .0508495-.0301629.104547-.0552418.160315-.0748732l-2.1042e-07 8.96517e-08c1.7591-.749486 3.69517-.98291 5.582-.673l4.60434e-07 5.39122e-08c1.90866.223485 3.71326.9894 5.2 2.207l2.56634e-09 2.30139e-09c.370055.33185.401026.900856.0691764 1.27091 -.168651.188068-.408577.2966-.661176.299089Z"></path></g></svg>