<svg xmlns="http://www.w3.org/2000/svg" viewBox="0 0 24 24"><defs><style>.a{fill:none;stroke:currentColor;stroke-linecap:round;stroke-linejoin:round;}</style></defs><title>social-media-meetup</title><path class="a" d="M.922,13.471A40.72,40.72,0,0,1,.529,9.219c.149,0,2.223,3.975,2.435,3.975s.564-4.406,1.021-4.367C4.231,8.794,5.252,13.7,5.252,13.7"/><path class="a" d="M6.615,11.979a7.01,7.01,0,0,0,1.758.264c.071-.14.41-1.787,0-1.971-1.15-.516-2.938,3-.963,3.624a1.477,1.477,0,0,0,1.618-.526"/><path class="a" d="M9.994,11.979a7.01,7.01,0,0,0,1.758.264c.071-.14.411-1.787,0-1.971-1.149-.516-2.937,3-.963,3.624a1.476,1.476,0,0,0,1.618-.526"/><path class="a" d="M14.311,7.268a32.83,32.83,0,0,0,0,3.732c0,.892.238,3.4.238,3.4"/><path class="a" d="M12.926,11.469a8.843,8.843,0,0,0,3.045-.122"/><path class="a" d="M16.921,10.923s-.351,1.937.511,2.781c.634-.14,1.514-.615,1.725-2.781"/><path class="a" d="M20.474,13.687c7.249-1.443-1.5-9.736.234,2.992"/></svg>