<?xml version="1.0" encoding="utf-8"?>
<!-- Generator: Adobe Illustrator 24.0.0, SVG Export Plug-In . SVG Version: 6.00 Build 0)  -->
<svg version="1.1" id="Laag_1" xmlns="http://www.w3.org/2000/svg" xmlns:xlink="http://www.w3.org/1999/xlink" x="0px" y="0px"
	 viewBox="0 0 15 15" style="enable-background:new 0 0 15 15;" xml:space="preserve">
<style type="text/css">
	.st0{fill:none;stroke:#000000;stroke-width:1;stroke-linecap:round;stroke-linejoin:round;}
</style>
<g>
	<circle class="st0" cx="7.5" cy="7.5" r="7"/>
	<path class="st0" d="M11.7,6.9c-0.2,0-0.3-0.1-0.5-0.2c-1-0.8-2.1-1.3-3.4-1.4C6.6,5.1,5.4,5.3,4.2,5.8c-0.4,0.2-0.8,0-0.9-0.4
		c-0.1-0.3,0-0.7,0.3-0.9C5,3.9,6.6,3.7,8.1,3.9c1.5,0.2,2.9,0.8,4.1,1.8c0.3,0.3,0.3,0.7,0,1C12.1,6.9,11.9,6.9,11.7,6.9L11.7,6.9z
		"/>
	<path class="st0" d="M10.8,9.1c-0.1,0-0.3-0.1-0.4-0.2C9.6,8.3,8.6,7.9,7.5,7.8c-1.1-0.2-2.1,0-3.1,0.4c-0.3,0.1-0.7,0-0.8-0.3
		C3.5,7.5,3.6,7.2,3.9,7c1.2-0.5,2.5-0.7,3.8-0.5c1.3,0.2,2.5,0.7,3.5,1.5c0.3,0.2,0.3,0.6,0.1,0.9C11.2,9,11,9.1,10.8,9.1z"/>
	<path class="st0" d="M10.1,11.4c-0.1,0-0.3,0-0.4-0.1c-0.7-0.6-1.6-1-2.6-1.1c-0.9-0.2-1.9,0-2.8,0.3c-0.3,0.2-0.6,0.1-0.8-0.2
		C3.5,10,3.6,9.7,3.8,9.6c0,0,0.1,0,0.1,0C5,9.1,6.2,8.9,7.3,9.1c1.2,0.1,2.3,0.6,3.2,1.3c0.2,0.2,0.2,0.5,0,0.8
		C10.4,11.3,10.3,11.4,10.1,11.4L10.1,11.4z"/>
</g>
</svg>
