<?xml version="1.0" encoding="UTF-8"?><svg version="1.1" viewBox="0 0 24 24" xmlns="http://www.w3.org/2000/svg" xmlns:xlink="http://www.w3.org/1999/xlink"><g stroke-linecap="round" stroke-width="1" stroke="#000" fill="none" stroke-linejoin="round"><path d="M13.5 6.55l-2.20634e-07-2.03253e-07c-3.14802-2.90002-8.05093-2.69897-10.951.449048 -2.90002 3.14802-2.69897 8.05093.449048 10.951 1.43119 1.31844 3.30599 2.05024 5.2519 2.05 5.25 0 7.25-3.75 7.25-7.75 0-.253333-.0116667-.503-.035-.749h-6.965v2h4.812l1.56881e-07-3.53468e-06c-.115608 2.60477-2.32091 4.62264-4.92568 4.50703 -.045474-.00201828-.0909165-.00469413-.136313-.0080267l2.5591e-07-1.37419e-11c-3.17564.000170594-5.75014-2.57405-5.75031-5.74969 -.000170594-3.17564 2.57405-5.75014 5.74969-5.75031 1.38782-7.45532e-05 2.72884.501793 3.77561 1.413Z"></path><polygon points="23.5,11.5 21.5,11.5 21.5,9.5 19.5,9.5 19.5,11.5 17.5,11.5 17.5,13.5 19.5,13.5 19.5,15.5 21.5,15.5 21.5,13.5 23.5,13.5 23.5,11.5"></polygon></g></svg>