<?xml version="1.0" encoding="utf-8"?>
<!-- Generator: Adobe Illustrator 24.0.0, SVG Export Plug-In . SVG Version: 6.00 Build 0)  -->
<svg version="1.1" id="Laag_1" xmlns="http://www.w3.org/2000/svg" xmlns:xlink="http://www.w3.org/1999/xlink" x="0px" y="0px"
	 viewBox="0 0 15 15" style="enable-background:new 0 0 15 15;" xml:space="preserve">
<style type="text/css">
	.st0{fill:none;stroke:#000000;stroke-width:1;stroke-linecap:round;stroke-linejoin:round;}
</style>
<g>
	<path class="st0" d="M7.5,14.5c-3.9,0-7-3.1-7-7s3.1-7,7-7c1.9,0,3.8,0.8,5.1,2.2l-1.8,1.7C10,3.5,8.8,2.9,7.5,2.9
		C5,2.9,2.9,5,2.9,7.5C3,10,5,12.1,7.5,12.1c1.9,0,3.7-1.2,4.3-3H8.4V6.6h6.1v1.3C14.3,11.6,11.2,14.5,7.5,14.5z"/>
	<line class="st0" x1="3.5" y1="5.2" x2="1.6" y2="3.7"/>
	<line class="st0" x1="3.6" y1="9.8" x2="1.7" y2="11.5"/>
	<line class="st0" x1="10.2" y1="11.2" x2="11.8" y2="13"/>
</g>
</svg>
