<svg viewBox="0 0 24 24" xmlns="http://www.w3.org/2000/svg"><path fill="none" stroke="#000" stroke-linecap="round" stroke-linejoin="round" d="M13.11 4.32L8.1 17.08c-.97 2.44-1.73 4.96-4.92 5.02l0-.01c-.61.05-1.22-.03-1.79-.23l-.01-.01c-.51-.33-.66-1-.34-1.51 .08-.14.19-.25.33-.34l-.01 0c.25-.16.55-.21.85-.16 2.23.15 2.808-1.26 3.47-3.04L.59 4.26l0 0C.25 3.7.42 2.97.98 2.64c.05-.04.11-.07.17-.09l0-.01c.63-.3 1.38-.02 1.68.61 .03.07.06.15.08.23 1.32 3.32 2.71 6.79 4 10.12 .03.05.11.07.15 0l1.16-3.11c.87-2.28 1.8-4.57 2.61-6.89l-.01 0c.12-.56.62-.95 1.19-.94l-.01 0c.17-.01.35.02.51.11l0 0c.55.27.78.95.5 1.51 -.01 0-.01.01-.02.02Zm.88 4.74c.532-.61 4.666-3.93 5.5-4.12l-.01 0c.61-.19 1.26.16 1.45.77 .13.43-.01.91-.36 1.21l0-.01c-1.97 1.11-4.05 2.01-6.2 2.67 -.21.06-.52.1-.59-.02 -.1-.16.05-.38.19-.54Zm8.64 2.35l-.01-.01c.48.13.83.57.85 1.08v.02 0l-.01 0c-.02.51-.36.96-.86 1.09l0-.01c-2.09.05-4.17-.16-6.2-.63 -.52-.16-.86-.27-.88-.48 .01-.21.36-.35.87-.48l-.01 0c2.02-.5 4.11-.71 6.2-.63Zm-8.838 4.116c.07-.14.38-.08.58-.04 .89.17 5.65 2.106 6.2 2.69l0 0c.48.42.53 1.15.11 1.64 -.31.34-.78.48-1.22.34 -.84-.19-4.97-3.53-5.5-4.12 -.14-.18-.29-.39-.19-.532Z"/></svg>