<?xml version="1.0" encoding="utf-8"?>
<!-- Generator: Adobe Illustrator 24.1.1, SVG Export Plug-In . SVG Version: 6.00 Build 0)  -->
<svg version="1.1" id="Layer_1" xmlns="http://www.w3.org/2000/svg" xmlns:xlink="http://www.w3.org/1999/xlink" x="0px" y="0px"
	 viewBox="0 0 18.2 15" style="enable-background:new 0 0 18.2 15;" xml:space="preserve">
<style type="text/css">
	.st0{fill:none;stroke:#000000;stroke-width:0.85;stroke-linecap:round;stroke-linejoin:round;}
</style>
<path class="st0" d="M17.7,2.9l-1.6-0.4l0.8-1.6L15,1.4l0,0c-1.4-1.3-3.6-1.2-5,0.2C9.4,2.3,9.1,3.1,9.1,4v0.8
	C6.3,5.4,3.9,3.9,1.7,1.3C1.3,3.4,1.7,4.9,2.8,6L0.5,5.6c0.3,1.6,1.1,2.9,3.1,3.1l-2,0.8c0.8,1.6,2,1.8,3.9,2l0,0
	c-1.5,1.1-3.3,1.6-5.1,1.6c10,4.4,15.7-2.1,15.7-7.8v-1L17.7,2.9z"/>
</svg>
