<?xml version="1.0" encoding="UTF-8"?><svg version="1.1" viewBox="0 0 24 24" xmlns="http://www.w3.org/2000/svg" xmlns:xlink="http://www.w3.org/1999/xlink"><path d="M23.5 6.939l1.45433e-07-.001c0-1.89875-1.53925-3.438-3.438-3.438 -.000333382 0-.000666764 4.84919e-08-.00100015 1.45476e-07h-16.124l1.00791e-07-2.93117e-11c-1.89875.000552149-3.43755 1.54024-3.437 3.439 1.40012e-11 4.81514e-08 2.82654e-11 9.71973e-08 4.22666e-11 1.45349e-07v9.121l3.31186e-08-5.61389e-05c-.00113565 1.89875 1.53719 3.43892 3.43594 3.44006 .000333576 1.99513e-07.000667151 3.50478e-07.00100073 4.52895e-07h16.1251l2.16026e-08 3.55271e-15c1.89875 3.09346e-07 3.438-1.53924 3.438-3.438 1.08646e-10-.000666855-1.93803e-07-.00133371-5.81736e-07-.00200056Zm-14 8.5v-8.66l6.769 4.331Z" stroke-linecap="round" stroke-width="1" stroke="#000" fill="none" stroke-linejoin="round"></path></svg>