<svg xmlns="http://www.w3.org/2000/svg" viewBox="0 0 24 24"><defs><style>.a{fill:none;stroke:currentColor;stroke-linecap:round;stroke-linejoin:round;}</style></defs><title>social-media-snapchat</title><path class="a" d="M22.065,17.711a.828.828,0,0,0,.111-1.552,15.056,15.056,0,0,1-2.757-1.654,1.334,1.334,0,0,1,.091-2.189l1.206-.765A1.333,1.333,0,1,0,19.287,9.3L18,10.116V7A6,6,0,0,0,6,7v3.116L4.713,9.3a1.333,1.333,0,1,0-1.429,2.251l1.206.765a1.334,1.334,0,0,1,.091,2.189,15.056,15.056,0,0,1-2.757,1.654.828.828,0,0,0,.111,1.552l1.969.4a.82.82,0,0,1,.57.988,1.282,1.282,0,0,0,1.455,1.575l.626-.1a2.845,2.845,0,0,1,2.481.8A4.7,4.7,0,0,0,12,23a4.7,4.7,0,0,0,2.964-1.63,2.845,2.845,0,0,1,2.481-.8l.626.1A1.282,1.282,0,0,0,19.526,19.1a.82.82,0,0,1,.57-.988Z"/></svg>