<?xml version="1.0" encoding="utf-8"?>
<!-- Generator: Adobe Illustrator 24.0.0, SVG Export Plug-In . SVG Version: 6.00 Build 0)  -->
<svg version="1.1" id="Laag_1" xmlns="http://www.w3.org/2000/svg" xmlns:xlink="http://www.w3.org/1999/xlink" x="0px" y="0px"
	 viewBox="0 0 15 15" style="enable-background:new 0 0 15 15;" xml:space="preserve">
<style type="text/css">
	.st0{fill:none;stroke:#000000;stroke-width:1;stroke-linecap:round;stroke-linejoin:round;}
</style>
<path class="st0" d="M0.5,4.7l0.6,0.7c0,0,1.2-0.9,1.6-0.5s1.9,6,2.4,7.1C5.4,13,6.6,14.2,8,13.3s5.7-4.6,6.5-9
	c0.8-4.4-5.3-3.5-5.9,0.4c1.6-1,2.5,0.4,1.6,1.9s-1.6,2.5-2,2.5c-0.4,0-0.7-1-1.1-2.8C6.6,4.5,6.6,1.1,4.7,1.5
	C2.9,1.9,0.5,4.7,0.5,4.7z"/>
</svg>
