<?xml version="1.0" encoding="UTF-8"?><svg version="1.1" viewBox="0 0 24 24" xmlns="http://www.w3.org/2000/svg" xmlns:xlink="http://www.w3.org/1999/xlink"><path d="M12.637.5c-6.277 0-9.437 4.5-9.437 8.252 0 2.273.861 4.3 2.705 5.047l-4.15388e-08-2.20159e-08c.221544.11742.496328.0330117.613749-.188532 .0234416-.0442286.0394074-.0920295.0472512-.141468 .062-.231.207-.816.271-1.061l1.42473e-08-3.53418e-08c.104994-.260449.0279436-.558918-.19-.736l1.74562e-07 2.10395e-07c-.601793-.725325-.912575-1.6484-.872-2.59l-5.09632e-08-4.21005e-06c-.0418268-3.45539 2.72542-6.29045 6.18081-6.33228 .106418-.00128817.212851.000138985.319197.00428006 3.548 0 5.5 2.168 5.5 5.063 0 3.808-1.687 7.024-4.19 7.024l-8.87478e-08 4.41902e-09c-1.12802.0561678-2.088-.812744-2.14417-1.94077 -.0100533-.201902.0098856-.404179.0591663-.600232 .4-1.675 1.167-3.479 1.167-4.687l1.64015e-08-1.3455e-07c.118286-.970361-.572457-1.85288-1.54282-1.97117 -.0793464-.00967227-.159257-.0139585-.239183-.0128292 -1.413 0-2.548 1.461-2.548 3.42l-3.03923e-08 2.42447e-06c-.00900919.718698.134836 1.4311.422001 2.09l-1.7 7.2 -2.73847e-07 1.51877e-06c-.299104 1.65885-.312632 3.3566-.0399999 5.02l9.34032e-10 5.73728e-09c.0156189.095939.106055.161051.201994.145432 .0446088-.00726233.084714-.0314074.112006-.0674324l1.92526e-07-2.38354e-07c1.04249-1.29064 1.84979-2.75462 2.385-4.325 .162-.589.929-3.632.929-3.632l-1.08156e-07-1.58047e-07c.726223 1.06121 1.94157 1.68113 3.227 1.646 4.245-.00500091 7.126-3.876 7.126-9.057 0-3.918-3.318-7.569-8.363-7.569Z" stroke-linecap="round" stroke-width="1" stroke="#000" fill="none" stroke-linejoin="round"></path></svg>