<?xml version="1.0" encoding="UTF-8"?><svg version="1.1" viewBox="0 0 24 24" xmlns="http://www.w3.org/2000/svg" xmlns:xlink="http://www.w3.org/1999/xlink"><g stroke-linecap="round" stroke-width="1" stroke="#000" fill="none" stroke-linejoin="round"><path d="M23.243 9.567h-1.09278e-08c.138071-6.03528e-09.25.111929.25.25 6.03528e-09.138071-.111929.25-.25.25h-1.09278e-08c-.138071-6.03528e-09-.25-.111929-.25-.25 6.03528e-09-.138071.111929-.25.25-.25"></path><path d="M11.656 19.738l9.12759e-08-7.6165e-08c-.285344.238105-.610277.424264-.959999.55l-3.68926e-07 1.37665e-07c-1.85604.692582-3.9221-.250584-4.61468-2.10662 -.0359649-.0963814-.0677668-.194265-.0953177-.293381l-2.10519e-07-8.67813e-07c-.0593818-.244787-.101816-.493376-.127-.744 -.025-.194.008-.149-.171-.19l-2.19346e-07-3.85657e-08c-1.11635-.196279-2.04145-.97667-2.423-2.044l-1.42539e-08-3.50427e-08c-.505521-1.24281-.19616-2.66849.779-3.59l5.7135e-09-4.26225e-09c.0615321-.0459028.0742022-.132996.0282994-.194528 -.00138725-.0018596-.00282085-.00368417-.00429943-.005472l1.02587e-07 1.7785e-07c-.855447-1.48305-.346674-3.37878 1.13638-4.23422 .0181038-.0104426.0363128-.0207018.0546241-.0307761l1.1749e-07-6.49228e-08c.294204-.162572.615364-.270641.948-.319l4.28311e-09-2.67711e-10c.0884321-.00552733.164722-.0640291.193-.148l-2.59763e-07 6.34316e-07c.967801-2.36328 3.66817-3.49453 6.03145-2.52673 .237119.0971041.465756.213749.683551.348731l1.29531e-08 8.65077e-09c.0591438.0394995.133942.0473533.2.021l3.19073e-07-1.08521e-07c1.6345-.555917 3.44222-.0318958 4.526 1.312l4.20696e-08 5.23866e-08c.626738.780438.938859 1.7671.875 2.766l1.07544e-10-4.57536e-10c-.0168077.0715051.0275333.143097.0990383.159904 .00362296.0008516.00728008.00155075.0109617.00209562l4.81829e-08 1.60582e-08c1.17994.393245 1.81768 1.66856 1.42444 2.84851 -.0269582.0808888-.0584885.160181-.0944385.237495l5.86914e-08-1.29442e-07c-.127993.282285-.314035.534429-.546.74l-2.643e-09 1.6996e-09c-.0464528.0298717-.0598944.091745-.0300227.138198 .00242867.00377676.00510896.00738565.00802267.0108022l-1.71643e-07-2.84694e-07c1.11553 1.85027.519913 4.25453-1.33036 5.37007 -.525078.316571-1.11721.50529-1.72864.550932 -.122.007-.245.013-.368.009l6.21469e-09 1.03611e-09c-.0577452-.00962726-.112361.02938-.121989.0871252 -.000435371.0026114-.000772757.00523819-.00101145.00787484l-7.31006e-08 2.67994e-07c-.114194.418646-.3299.802657-.628 1.118l1.62016e-07-1.74968e-07c-.417238.450592-.980501.738955-1.59.814l-7.4548e-08 8.48644e-09c-.782439.0890718-1.56661-.151904-2.164-.665Z"></path><path d="M18.161 20.03h-4.37114e-08c.552285-2.41411e-08 1 .447715 1 1 2.41411e-08.552285-.447715 1-1 1 -.552285 2.41411e-08-1-.447715-1-1l1.06051e-08 1.49889e-06c-.00388054-.548405.437544-.996121.985949-1 .00468317-3.31384e-05.00936652-3.31455e-05.0140497-2.1208e-08"></path><path d="M1.209 10.067l3.64252e-08 9.80744e-11c.41366.0011138.748094.337354.746981.751014 -.0011138.41366-.337354.748094-.751014.746981 -.41366-.0011138-.748094-.337354-.746981-.751014 2.67517e-06-.000993546 7.32724e-06-.00198709 1.39562e-05-.00298061l-2.35913e-08-1.6942e-05c-.000566719-.410347.331626-.743459.741973-.744025 .00301466-4.16347e-06.00602932 1.00207e-05.00904381 4.25518e-05"></path><path d="M13.447 1.169l2.88585e-08-3.4505e-10c.414184-.00495223.753961.326796.758913.74098 .00495223.414184-.326796.753961-.74098.758913 -.414184.00495223-.753961-.326796-.758913-.74098 -7.62511e-06-.000637733-1.44368e-05-.00127548-2.04349e-05-.00191323l-1.5211e-08-1.88335e-06c-.00333694-.413226.327798-.75151.741002-.756998"></path><path d="M20.677 6.077l3.99917e-08-5.33209e-11c.414213-.000552263.750447.334786.750999.748999 .000552263.414213-.334786.750447-.748999.750999 -.414213.000552263-.750447-.334786-.750999-.748999 -4.44131e-07-.000333111-6.66335e-07-.000666222-6.66613e-07-.000999333l-2.91323e-13-5.5342e-07c-6.24856e-08-.413823.335178-.749448.749001-.749999"></path><path d="M4.986 4.166l-4.46184e-09-4.39622e-11c.275012.00270967.49729.224988.5.5l6.19344e-09-2.88037e-07c-.00594238.276365-.230579.4979-.507.5l-1.16805e-09-8.17657e-12c-.276142-.001933-.498433-.227358-.4965-.5035 .001933-.276142.227358-.498433.5035-.4965"></path><path d="M12.08 21.919h-2.18557e-08c.276142-1.20706e-08.5.223858.5.5 1.20706e-08.276142-.223858.5-.5.5h-2.18557e-08c-.276142-1.20706e-08-.5-.223858-.5-.5 1.20706e-08-.276142.223858-.5.5-.5"></path><path d="M22.3 12.415l-2.65845e-09 4.91926e-11c.271125-.00501698.494983.210707.5.481832 .000112053.00605551.000112053.0121126 5.82929e-11.0181681v0c0 .276142-.223858.5-.5.5 -.276142 0-.5-.223858-.5-.5l7.10543e-15 7.54979e-08c-4.16963e-08-.276142.223858-.5.5-.5"></path><path d="M7.493 1.079l9.84069e-09-1.19609e-10c.136404-.00165793.248326.107576.249984.24398 8.18452e-06.000673373 1.36152e-05.00134678 1.62918e-05.00202019l9.2212e-09 5.76293e-07c.00220882.138054-.107915.251759-.245969.253967 -.138054.00220882-.251759-.107915-.253967-.245969 -.00220882-.138054.107915-.251759.245969-.253967 .00132256-2.11606e-05.00264527-3.18245e-05.003968-3.19908e-05"></path><path d="M4.042 18.531l-1.07879e-08 3.55271e-13c.136414-4.47797e-06.247004.110578.247008.246992 2.19731e-08.000669374-2.67708e-06.00133875-8.09708e-06.0020081v0c0 .138071-.111929.25-.25.25 -.138071 0-.25-.111929-.25-.25l9.82836e-10 1.17093e-07c-.001145-.13641.108509-.24792.244918-.249065 .0026941-2.2614e-05.0053884-1.14677e-06.0080818 6.4393e-05"></path><path d="M16.361 16.018l2.31908e-08-1.17446e-08c.275422-.139482.385622-.475829.24614-.75125 -.065081-.128509-.177259-.226934-.31314-.27475l-6.72587e-08-2.58634e-08c-.0556007-.0213805-.112771-.0384312-.171-.0509999 -.232-.042-.465-.075-.7-.122l1.49704e-08 3.65878e-10c-.335689-.00820426-.601168-.286985-.592963-.622674 .00102358-.0418814.00637312-.0835449.0159634-.124326l1.88097e-08-2.604e-07c.0200745-.27791.0755222-.552124.165-.816 .2-.564.442-1.116.667-1.673 .241-.593.492-1.182.72-1.78l-1.11691e-08 2.62e-08c.127414-.298882.162249-.629111.1-.948l3.75349e-08 3.29223e-07c-.0494529-.433757-.332826-.805444-.738-.968l-8.93581e-08-3.70889e-08c-.51935-.215561-1.10878-.181669-1.6.0920001l6.35626e-09-5.12301e-09c-.136312.109864-.335876.0884246-.445741-.047887 -.00109774-.00136199-.00218418-.00273305-.00325923-.00411303 -.123-.112-.239-.232-.372-.331l-2.92975e-08-2.33892e-08c-.0956437-.0763555-.205403-.133104-.323-.167l-6.06681e-09-1.80756e-09c-.37113-.110575-.773034-.0234015-1.065.231 -.1.084-.191.174-.293.255l1.11227e-07-9.16733e-08c-.104622.0862301-.214865.165405-.329999.236999l-5.96862e-09 3.53256e-09c-.134804.0797845-.301721.0824461-.439.00699999 -.281-.135-.565-.265-.848-.4l1.03758e-07 5.18028e-08c-.239266-.119457-.510116-.160399-.774-.117l-1.84896e-08 2.16668e-09c-.606491.071071-1.13853.43762-1.421.979l-5.15179e-09 1.01661e-08c-.181629.358409-.334768.730557-.457999 1.113 -.436667 1.35467-.863333 2.71267-1.28 4.074l-6.44445e-08 1.84471e-07c-.177519.508144-.0400818 1.07316.351 1.443l-9.37261e-08-9.09705e-08c.334081.324259.793496.485804 1.257.442l-2.49109e-08 8.32971e-10c.432723-.0144694.820866-.270141 1.005-.662l1.09871e-08-1.94501e-08c.0457307-.0809557.0861493-.164799.121-.251 .511-1.278 1.69-4.134 1.69-4.134 0 0-.524 1.246-.754 1.837 -.155.4-.211.48-.368.875l-5.5187e-08 2.26631e-07c-.149746.614948.227374 1.23486.842323 1.3846 .024384.00593775.0489564.0110729.0736776.0153972l-4.58223e-08-8.49166e-09c.600009.111192 1.20117-.188164 1.474-.734 .045-.1 1.272-2.766 1.729-3.659 0 0-.62 1.415-1.131 2.454 -1.292 2.481 1.743 4.247 3.963 3.199Z"></path></g></svg>