<?xml version="1.0" encoding="UTF-8"?><svg version="1.1" viewBox="0 0 24 24" xmlns="http://www.w3.org/2000/svg" xmlns:xlink="http://www.w3.org/1999/xlink"><g stroke-linecap="round" stroke-width="1" stroke="#000" fill="none" stroke-linejoin="round"><path d="M12 23.5l3.7075e-07-1.33227e-11c-6.35127.000228376-11.5002-5.14831-11.5004-11.4996 -.000228376-6.35127 5.14831-11.5002 11.4996-11.5004 3.17566-.000114189 6.21002 1.31297 8.38383 3.628l-2.915 2.738 1.4345e-07 1.53983e-07c-1.41296-1.5167-3.39514-2.37439-5.468-2.366l1.73795e-07-3.69329e-10c-4.14213.00880232-7.49285 3.37379-7.48405 7.51592 .00880232 4.14213 3.37379 7.49285 7.51592 7.48405 3.17251-.00674181 5.99761-2.00889 7.05512-4.99997h-5.587v-4h10v2.1l3.65381e-07-6.99376e-06c-.319512 6.11582-5.37584 10.9083-11.5 10.9Z"></path><line x1="5.5" x2="2.35" y1="8.2" y2="5.68"></line><line x1="5.58" x2="2.55" y1="15.83" y2="18.56"></line><line x1="16.47" x2="19.14" y1="18.03" y2="21.03"></line></g></svg>