<?xml version="1.0" encoding="utf-8"?>
<!-- Generator: Adobe Illustrator 24.1.1, SVG Export Plug-In . SVG Version: 6.00 Build 0)  -->
<svg version="1.1" id="Layer_1" xmlns="http://www.w3.org/2000/svg" xmlns:xlink="http://www.w3.org/1999/xlink" x="0px" y="0px"
	 viewBox="0 0 21.8 15" style="enable-background:new 0 0 21.8 15;" xml:space="preserve">
<style type="text/css">
	.st0{fill:none;stroke:#000000;stroke-width:0.85;stroke-linecap:round;stroke-linejoin:round;}
</style>
<g>
	<path class="st0" d="M12.2,2.4L12.2,2.4C9.4-0.3,5-0.1,2.4,2.8c-2.6,2.8-2.4,7.3,0.4,9.9c1.3,1.2,3,1.9,4.7,1.9
		c4.7,0,6.5-3.4,6.5-7c0-0.2,0-0.5,0-0.7H7.7v1.8H12l0,0c0,2.3-2,4.1-4.4,4H7.5l0,0c-2.9,0-5.2-2.3-5.2-5.2s2.3-5.2,5.2-5.2
		c1.3,0,2.5,0.5,3.4,1.3L12.2,2.4z"/>
	<polygon class="st0" points="21.3,6.8 19.5,6.8 19.5,5 17.7,5 17.7,6.8 15.9,6.8 15.9,8.6 17.7,8.6 17.7,10.4 19.5,10.4 19.5,8.6 
		21.3,8.6 	"/>
</g>
</svg>
