<?xml version="1.0" encoding="UTF-8"?><svg version="1.1" viewBox="0 0 24 24" xmlns="http://www.w3.org/2000/svg" xmlns:xlink="http://www.w3.org/1999/xlink"><path d="M13.112 4.327l-5.007 12.763c-.967 2.445-1.725 4.969-4.912 5.025l1.9204e-07-1.79454e-08c-.603388.0563845-1.21179-.0207754-1.782-.226l-1.00273e-07-6.38768e-08c-.508654-.324028-.658323-.999051-.334295-1.50771 .0856841-.134505.199789-.248611.334295-.334295l-1.43703e-07 8.44292e-08c.256721-.15083.559202-.204084.852-.15 2.239.15 2.808-1.253 3.472-3.035l-5.083-12.535 2.96007e-08 4.84851e-08c-.339009-.555286-.163681-1.28025.391605-1.61926 .056532-.0345134.115874-.0641975.177395-.0887367l3.93938e-08-1.81809e-08c.635846-.293454 1.38919-.0158907 1.68265.619956 .0346931.0751719.0619406.153561.0813523.234044 1.328 3.32 2.712 6.79 4 10.127 .038.057.114.077.152 0l1.163-3.11c.872-2.275 1.8-4.57 2.617-6.883l-4.22585e-08 1.90324e-07c.123498-.556208.624483-.946423 1.194-.93l-5.20945e-08 2.86785e-09c.177902-.00979366.35506.0296516.512.114l8.051e-08 4.02532e-08c.557707.278841.783772.956997.504931 1.5147 -.00356851.00713733-.00721258.0142366-.0109316.0212967Zm.888 4.741c.532-.607 4.666-3.925 5.5-4.117l-5.09491e-10 1.53936e-10c.615386-.185927 1.26498.162217 1.45091.777603 .132601.438885-.00478272.914728-.350905 1.2154l2.14038e-06-1.22207e-06c-1.96054 1.11939-4.04013 2.01596-6.2 2.673 -.208.06-.512.1-.588-.018 -.094-.151.057-.38.19-.531Zm8.648 2.351l-2.38059e-08-6.59324e-09c.489859.135671.835386.573041.854 1.081v.02 0l-1.70636e-08 8.44728e-07c-.0104045.515064-.357588.962255-.854001 1.1l4.9053e-07-1.37458e-08c-2.08492.0584245-4.16869-.151633-6.2-.625 -.512-.152-.854-.266-.873-.475 .019-.208.361-.341.873-.474l-2.91482e-07 7.0742e-08c2.02814-.492225 4.1144-.70287 6.2-.626Zm-8.838 4.116c.076-.132.38-.076.588-.039 .892.172 5.652 2.106 6.2 2.694l3.31567e-08 2.89192e-08c.484473.422556.534667 1.15785.112111 1.64232 -.30037.344383-.774463.481152-1.21211.349677 -.834-.19-4.969-3.528-5.5-4.115 -.133-.173-.284-.381-.19-.532Z" stroke-linecap="round" stroke-width="1" stroke="#000" fill="none" stroke-linejoin="round"></path></svg>