<svg viewBox="0 0 24 24" xmlns="http://www.w3.org/2000/svg"><g stroke-linecap="round" stroke="#000" fill="none" stroke-linejoin="round"><path d="M23.243 9.567h-.01c.13-.01.25.11.25.24s-.12.25-.25.25h-.01c-.14-.01-.25-.12-.25-.26s.11-.25.25-.25"/><path d="M11.656 19.738l0-.01c-.29.23-.62.42-.96.54l-.01 0c-1.86.69-3.93-.26-4.62-2.11 -.04-.1-.07-.2-.1-.3l-.01-.01c-.06-.25-.11-.5-.13-.75 -.03-.2 0-.15-.18-.19l-.01-.01c-1.12-.2-2.05-.98-2.43-2.05l-.01-.01c-.51-1.25-.2-2.67.77-3.59l0-.01c.06-.05.07-.14.02-.2 -.01-.01-.01-.01-.01-.01l0 0c-.86-1.49-.35-3.38 1.13-4.24 .01-.02.03-.03.05-.04l0-.01c.29-.17.61-.28.94-.32l0-.001c.08-.01.16-.07.19-.15l-.01 0c.96-2.37 3.66-3.5 6.03-2.53 .23.09.46.21.68.34l0 0c.05.03.13.04.19.02l0-.01c1.63-.56 3.44-.04 4.52 1.31l0 0c.62.78.93 1.76.87 2.76l0-.01c-.02.07.02.14.09.15 0 0 0 0 .01 0l0 0c1.17.39 1.81 1.66 1.42 2.84 -.03.08-.06.16-.1.23l0-.01c-.13.28-.32.53-.55.74l-.01 0c-.05.02-.06.09-.04.13 0 0 0 0 0 .01l-.01-.01c1.11 1.85.51 4.25-1.34 5.37 -.53.31-1.12.5-1.73.55 -.13 0-.25.01-.37 0l0 0c-.06-.01-.12.02-.13.08 -.01 0-.01 0-.01 0l-.01 0c-.12.41-.33.8-.63 1.11l0-.01c-.42.45-.99.73-1.59.81l-.01 0c-.79.08-1.57-.16-2.17-.67Z"/><path d="M18.161 20.03h-.01c.55-.01 1 .44 1 .99s-.45 1-1 1c-.56 0-1-.45-1.01-1l0 0c-.01-.55.43-1 .98-1.01 0-.01 0-.01.01-.01"/><path d="M1.2 10.067l0 0c.41 0 .74.33.74.75 -.01.41-.34.74-.76.74 -.42-.01-.75-.34-.75-.76 0-.01 0-.01 0-.01l-.01-.01c-.01-.42.33-.75.74-.75 0-.01 0 0 0 0"/><path d="M13.447 1.169l0-.001c.41-.01.75.32.75.74 0 .41-.33.75-.75.75s-.76-.33-.76-.75c-.01-.01-.01-.01-.01-.01l-.01-.01c-.01-.42.32-.76.74-.76"/><path d="M20.67 6.077l0-.001c.41-.01.75.33.75.74s-.34.75-.75.75c-.42 0-.76-.34-.76-.75 -.01-.01-.01-.01-.01-.01l-.001-.01c-.01-.42.33-.75.74-.75"/><path d="M4.98 4.16l-.01-.001c.27 0 .49.22.5.5l0-.01c-.01.27-.24.49-.51.5l-.01-.001c-.28-.01-.5-.23-.5-.51s.22-.5.5-.5"/><path d="M12.08 21.919h-.01c.27-.01.5.22.5.49s-.23.5-.5.5h-.01c-.28-.01-.5-.23-.5-.51s.22-.5.5-.5"/><path d="M22.3 12.41l-.01 0c.27-.01.49.21.5.48 0 0 0 .01 0 .01v0c0 .27-.23.5-.5.5 -.28 0-.5-.23-.5-.5l0 0c-.01-.28.22-.51.49-.51"/><path d="M7.493 1.079l0-.001c.13-.01.24.1.24.24 0 0 0 0 0 0l0 0c0 .13-.11.25-.25.25s-.26-.11-.26-.25c-.01-.14.1-.26.24-.26 0-.01 0-.01 0-.01"/><path d="M4.042 18.53l-.01 0c.13-.01.24.11.24.24 0 0-.01 0-.01 0v0c0 .13-.12.25-.25.25 -.14 0-.25-.12-.25-.25l0 0c-.01-.14.1-.25.24-.25 0-.01 0-.01 0 0"/><path d="M16.361 16.018l0-.01c.27-.14.38-.48.24-.76 -.07-.13-.18-.23-.32-.28l-.01-.01c-.06-.03-.12-.04-.18-.06 -.24-.05-.47-.08-.7-.13l0 0c-.34-.01-.61-.29-.6-.63 0-.05 0-.09.01-.13l0-.01c.02-.28.07-.56.16-.82 .2-.57.44-1.12.66-1.673 .24-.593.49-1.19.72-1.78l-.01 0c.12-.3.16-.63.1-.95l0 0c-.05-.44-.34-.81-.74-.97l-.01-.01c-.52-.22-1.11-.19-1.6.09l0-.01c-.14.1-.34.08-.45-.05 -.01-.01-.01-.01-.01-.01 -.13-.12-.24-.24-.38-.34l-.01-.01c-.1-.08-.21-.14-.33-.17l-.01-.01c-.38-.12-.78-.03-1.07.23 -.1.08-.2.17-.3.25l0-.01c-.11.08-.22.16-.33.23l-.01 0c-.14.07-.31.08-.44 0 -.29-.14-.57-.27-.85-.4l0 0c-.24-.12-.52-.17-.78-.12l-.01 0c-.61.07-1.14.43-1.43.97l-.01 0c-.19.35-.34.73-.46 1.11 -.44 1.35-.87 2.71-1.28 4.074l-.01 0c-.18.5-.05 1.07.35 1.44l-.01-.01c.33.32.79.48 1.25.44l-.01 0c.43-.02.82-.28 1-.67l0-.01c.04-.09.08-.17.12-.26 .51-1.28 1.69-4.14 1.69-4.14s-.53 1.24-.76 1.83c-.16.4-.22.48-.37.875l-.01 0c-.15.61.22 1.23.84 1.38 .02 0 .04.01.07.01l-.01-.01c.6.11 1.2-.19 1.47-.74 .04-.1 1.27-2.766 1.72-3.66 0 0-.62 1.41-1.14 2.45 -1.3 2.48 1.74 4.24 3.96 3.19Z"/></g></svg>