<svg viewBox="0 0 24 24" xmlns="http://www.w3.org/2000/svg"><g stroke-linecap="round" stroke="#000" fill="none" stroke-linejoin="round"><path d="M6.487 13.519l-.01-.01c-1.91-3.05-.98-7.06 2.06-8.96 3.04-1.91 7.05-.98 8.95 2.06 1.31 2.11 1.31 4.79-.01 6.9"/><path d="M5 16.5l0 0c-3.55-3.87-3.3-9.88.57-13.43 3.86-3.55 9.87-3.3 13.42.57 3.32 3.62 3.33 9.18.02 12.82"/><path d="M15.253 16.72l0-.01c.12-1.1-.67-2.09-1.77-2.21 -.08-.01-.15-.02-.22-.02h-2.54l-.01-.001c-1.11-.01-2.01.89-2.01 1.99 -.01.07 0 .14.01.22l.55 5 -.01-.01c.11 1.01.96 1.77 1.98 1.78h1.42l-.01-.001c1.02 0 1.87-.77 1.99-1.78Z"/><path d="M12 7.54a2.5 2.5 0 1 0 0 5 2.5 2.5 0 1 0 0-5Z"/></g></svg>