<?xml version="1.0" encoding="utf-8"?>
<!-- Generator: Adobe Illustrator 24.0.0, SVG Export Plug-In . SVG Version: 6.00 Build 0)  -->
<svg version="1.1" id="Laag_1" xmlns="http://www.w3.org/2000/svg" xmlns:xlink="http://www.w3.org/1999/xlink" x="0px" y="0px"
	 viewBox="0 0 15 15" style="enable-background:new 0 0 15 15;" xml:space="preserve">
<style type="text/css">
	.st0{fill:none;stroke:#000000;stroke-width:1;stroke-linecap:round;stroke-linejoin:round;}
</style>
<path class="st0" d="M7.8,0.5c-3.8,0-5.7,2.7-5.7,5c0,1.4,0.5,2.6,1.6,3.1c0.1,0.1,0.3,0,0.4-0.1c0,0,0-0.1,0-0.1
	c0-0.1,0.1-0.5,0.2-0.6c0.1-0.2,0-0.3-0.1-0.4c-0.4-0.4-0.6-1-0.5-1.6c0-2.1,1.7-3.8,3.8-3.9c0.1,0,0.1,0,0.2,0C9.8,1.9,11,3.2,11,5
	c0,2.3-1,4.3-2.5,4.3C7.7,9.3,7.1,8.7,7.1,8c0-0.1,0-0.2,0-0.4c0.2-1,0.7-2.1,0.7-2.9c0.1-0.6-0.3-1.1-0.9-1.2c0,0-0.1,0-0.1,0
	c-0.9,0-1.6,0.9-1.6,2.1c0,0.4,0.1,0.9,0.3,1.3l-1,4.4c-0.2,1-0.2,2,0,3.1c0,0.1,0.1,0.1,0.1,0.1c0,0,0.1,0,0.1,0
	c0.6-0.8,1.1-1.7,1.5-2.6c0.1-0.4,0.6-2.2,0.6-2.2c0.4,0.6,1.2,1,2,1c2.6,0,4.3-2.4,4.3-5.5C12.9,2.7,10.9,0.5,7.8,0.5z"/>
</svg>
