<?xml version="1.0" encoding="UTF-8"?><svg version="1.1" viewBox="0 0 24 24" xmlns="http://www.w3.org/2000/svg" xmlns:xlink="http://www.w3.org/1999/xlink"><path d="M22.065 17.711l4.16318e-08-1.18795e-08c.43974-.125479.694498-.583679.569019-1.02342 -.0671118-.235193-.234771-.428682-.45802-.528582l-1.43029e-06-6.6184e-07c-.975401-.451349-1.89967-1.00584-2.757-1.654l3.71198e-08 2.81531e-08c-.587012-.445212-.701964-1.282-.256751-1.86901 .0959497-.12651.213714-.234874.347751-.319992l1.206-.765 -5.63051e-09 3.57441e-09c.621596-.394607.805607-1.2184.411-1.84 -.394607-.621596-1.2184-.805607-1.84-.411 -9.12911e-09 5.79542e-09-3.19519e-08 2.0284e-08-4.1081e-08 2.60794e-08l-1.287.816v-3.116 0c0-3.31371-2.68629-6-6-6 -3.31371 0-6 2.68629-6 6v3.116l-1.287-.816 -2.12499e-08-1.349e-08c-.621596-.394607-1.44539-.210596-1.84.411 -.394607.621596-.210596 1.44539.411 1.84l1.206.765 7.30053e-08 4.63611e-08c.621939.394955.805946 1.21931.410992 1.84125 -.0851184.134037-.193482.251801-.319992.347751l-1.95703e-07 1.47955e-07c-.857331.648157-1.7816 1.20265-2.757 1.654l1.13367e-09-5.07299e-10c-.417406.186782-.604364.676574-.417582 1.09398 .0998998.223248.293389.390908.528582.458019l1.969.4 1.12431e-08 3.21344e-09c.425451.1216.677692.558818.57.988l5.59007e-08-2.23923e-07c-.171491.686947.246368 1.38285.933315 1.55434 .170637.0425982.348213.049631.521685.0206609l.626-.1 -2.93799e-07 4.86114e-08c.907706-.150187 1.83201.147854 2.481.8l-1.48628e-07-1.76046e-07c.752124.890873 1.80852 1.47039 2.964 1.626l3.72073e-07-5.04158e-08c1.15606-.156645 2.21254-.737639 2.964-1.63l-1.58482e-07 1.59251e-07c.648993-.652146 1.57329-.950187 2.481-.8l.626.1 -1.20992e-07-2.00792e-08c.698476.115915 1.35867-.356344 1.47459-1.05482 .0284249-.171281.0217617-.346551-.0195852-.51518l-9.86013e-09-3.92952e-08c-.107692-.429182.144549-.8664.57-.988Z" stroke-linecap="round" stroke-width="1" stroke="#000" fill="none" stroke-linejoin="round"></path></svg>