<svg xmlns="http://www.w3.org/2000/svg" viewBox="0 0 24 24"><defs><style>.a{fill:none;stroke:currentColor;stroke-linecap:round;stroke-linejoin:round;}</style></defs><title>social-media-yammer</title><path class="a" d="M13.112,4.327,8.105,17.09c-.967,2.445-1.725,4.969-4.912,5.025a4.128,4.128,0,0,1-1.782-.226,1.092,1.092,0,0,1,0-1.842,1.238,1.238,0,0,1,.852-.15c2.239.15,2.808-1.253,3.472-3.035L.652,4.327a1.178,1.178,0,0,1,.569-1.708,1.268,1.268,0,0,1,1.764.854c1.328,3.32,2.712,6.79,4,10.127.038.057.114.077.152,0L8.3,10.49c.872-2.275,1.8-4.57,2.617-6.883a1.188,1.188,0,0,1,1.194-.93.969.969,0,0,1,.512.114,1.129,1.129,0,0,1,.494,1.536ZM14,9.068c.532-.607,4.666-3.925,5.5-4.117a1.164,1.164,0,0,1,1.1,1.993,30.274,30.274,0,0,1-6.2,2.673c-.208.06-.512.1-.588-.018-.094-.151.057-.38.19-.531Zm8.648,2.351a1.166,1.166,0,0,1,.854,1.081v.02h0a1.166,1.166,0,0,1-.854,1.1,24.317,24.317,0,0,1-6.2-.625c-.512-.152-.854-.266-.873-.475.019-.208.361-.341.873-.474a22.737,22.737,0,0,1,6.2-.626Zm-8.838,4.116c.076-.132.38-.076.588-.039.892.172,5.652,2.106,6.2,2.694a1.164,1.164,0,0,1-1.1,1.992c-.834-.19-4.969-3.528-5.5-4.115-.133-.173-.284-.381-.19-.532Z"/></svg>