<svg viewBox="0 0 24 24" xmlns="http://www.w3.org/2000/svg"><path fill="none" stroke="#000" stroke-linecap="round" stroke-linejoin="round" d="M22.06 17.71l0-.01c.43-.13.69-.59.56-1.03 -.07-.24-.24-.43-.46-.53l-.01-.01c-.98-.46-1.9-1.01-2.76-1.66l0 0c-.59-.45-.71-1.29-.26-1.87 .09-.13.21-.24.34-.32l1.2-.77 -.01 0c.62-.4.8-1.22.41-1.84 -.4-.63-1.22-.81-1.84-.42 -.01 0-.01 0-.01 0l-1.29.81V6.94v0c0-3.32-2.69-6-6-6 -3.32 0-6 2.68-6 6v3.11l-1.29-.82 -.01-.01C4 8.82 3.18 9 2.79 9.63c-.4.62-.22 1.44.41 1.84l1.2.76 0 0c.62.39.8 1.21.41 1.84 -.09.13-.2.25-.32.34l-.01 0c-.86.64-1.79 1.2-2.76 1.65l0-.01c-.42.18-.61.67-.42 1.09 .09.22.29.39.52.45l1.96.4 0 0c.42.12.67.55.57.98l0-.01c-.18.68.24 1.38.93 1.55 .17.04.34.04.52.02l.62-.1 -.01 0c.9-.16 1.83.14 2.48.79l-.01-.01c.75.89 1.8 1.47 2.96 1.62l0-.01c1.15-.16 2.21-.74 2.96-1.63l-.01 0c.64-.66 1.57-.96 2.48-.81l.62.1 -.01-.01c.69.11 1.35-.36 1.47-1.06 .02-.18.02-.35-.02-.52l-.01-.01c-.11-.43.14-.87.57-.99Z"/></svg>