<?xml version="1.0" encoding="utf-8"?>
<!-- Generator: Adobe Illustrator 24.0.0, SVG Export Plug-In . SVG Version: 6.00 Build 0)  -->
<svg version="1.1" id="Laag_1" xmlns="http://www.w3.org/2000/svg" xmlns:xlink="http://www.w3.org/1999/xlink" x="0px" y="0px"
	 viewBox="0 0 15 15" style="enable-background:new 0 0 15 15;" xml:space="preserve">
<style type="text/css">
	.st0{fill:none;stroke:#000000;stroke-width:1;stroke-linecap:round;stroke-linejoin:round;}
</style>
<g>
	<path class="st0" d="M10.4,9.5c0-0.4,0.1-0.7,0.3-1.1l0.9-1.7c0.2-0.3,0.1-0.7-0.2-0.9c-0.3-0.2-0.7-0.1-0.9,0.2l0,0L9.4,7.9
		L10,4.2c0.1-0.3-0.1-0.7-0.4-0.8C9.3,3.4,8.9,3.6,8.8,3.9c0,0,0,0,0,0.1L8.1,7.1V3.1c0-0.3-0.3-0.6-0.6-0.6S6.9,2.8,6.9,3.1v4
		L6.2,3.8C6.1,3.5,5.8,3.3,5.5,3.3C5.1,3.4,4.9,3.7,4.9,4c0,0,0,0,0,0.1l0.7,4.6L4.4,7.6C4.1,7.4,3.7,7.4,3.5,7.7
		C3.3,8,3.3,8.3,3.5,8.6l2.2,2.9c0.4,0.4,0.8,0.6,1.4,0.6h1.5C10,12.1,10.4,10.9,10.4,9.5z"/>
	<path class="st0" d="M5.2,14.5c-0.4,0-0.8-0.2-1-0.4l-3.2-3.2c-0.3-0.3-0.4-0.7-0.4-1V5.3c0-0.4,0.2-0.8,0.4-1l3.3-3.3
		c0.3-0.3,0.7-0.4,1-0.4h4.5c0.4,0,0.8,0.2,1,0.4l3.3,3.3c0.3,0.3,0.4,0.7,0.4,1v4.5c0,0.4-0.2,0.7-0.4,1l-3.3,3.2
		c-0.3,0.3-0.7,0.4-1,0.4H5.2z"/>
</g>
</svg>
