<?xml version="1.0" encoding="UTF-8"?><svg version="1.1" viewBox="0 0 24 24" xmlns="http://www.w3.org/2000/svg" xmlns:xlink="http://www.w3.org/1999/xlink"><g stroke-linecap="round" stroke-width="1" stroke="#000" fill="none" stroke-linejoin="round"><path d="M16.781 15.29l-1.21014e-07-.000152629c-.000468087-.606212.148628-1.20318.434072-1.73798l1.463-2.747 -5.75711e-09 9.38554e-09c.295748-.482145.144645-1.11275-.3375-1.4085 -.482145-.295748-1.11275-.144645-1.4085.3375l-1.85807 2.92613 1.1-6.024 2.29056e-08-8.14215e-08c.153303-.544939-.16418-1.11098-.709119-1.26428 -.544939-.153303-1.11098.16418-1.26428.709119 -.0113848.0404688-.020269.0815998-.0266025.12316l-1.15 5.09v-6.488 0c-1.77636e-15-.56554-.45846-1.024-1.024-1.024 -.56554 0-1.024.45846-1.024 1.024v6.494l-1.149-5.343 -3.81197e-10-2.25988e-09c-.0940668-.557662-.622397-.933479-1.18006-.839413 -.557662.0940668-.933479.622397-.839413 1.18006 .00512718.0303958.0116242.0605445.0194713.0903541l1.105 7.639 -2.04-1.781 -1.22032e-08-1.08462e-08c-.423121-.37607-1.07099-.337928-1.44706.0851925 -.36831.41439-.34037 1.04653.0630633 1.42681l3.592 4.781 -3.23122e-07-3.37893e-07c.580567.607107 1.38398.950652 2.224.951h2.39c2.423-.001 3.067-1.896 3.067-4.2Z"></path><path d="M8.244 23.5l-4.20163e-08-2.18363e-09c-.632543-.0328738-1.23515-.279698-1.709-.7l-5.326-5.31 6.18466e-08 6.8565e-08c-.423265-.469244-.673426-1.06907-.709-1.7v-7.458l-7.45197e-08 1.41061e-06c.0334563-.633308.28016-1.23668.699999-1.712l5.341-5.408 2.85297e-07-2.58983e-07c.469084-.425819 1.07042-.67723 1.703-.712h7.456l-1.31365e-07-7.16351e-09c.632775.0345062 1.23473.284322 1.706.708l5.39 5.414 3.17235e-09 3.56031e-09c.421963.473566.670236 1.07661.704 1.71v7.453l8.67631e-08-1.57851e-06c-.0347212.631696-.286185 1.2321-.711999 1.7l-5.378 5.315 6.19329e-09-5.47034e-09c-.475324.419839-1.07869.666543-1.712.7Z"></path></g></svg>