<svg xmlns="http://www.w3.org/2000/svg" viewBox="0 0 24 24"><defs><style>.a{fill:none;stroke:currentColor;stroke-linecap:round;stroke-miterlimit:10;}</style></defs><title>study-light-idea</title><path class="a" d="M15,17.3v2.2a3,3,0,0,1-6,0V17.3"/><line class="a" x1="12" y1="22.501" x2="12" y2="23.501"/><path class="a" d="M13,17.928V12a1.5,1.5,0,1,1,1.5,1.5h-5A1.5,1.5,0,1,1,11,12v5.927"/><line class="a" x1="9.041" y1="20.001" x2="14.959" y2="20.001"/><circle class="a" cx="12" cy="11.001" r="7"/><line class="a" x1="12" y1="0.501" x2="12" y2="1.501"/><line class="a" x1="4.575" y1="3.577" x2="5.282" y2="4.284"/><line class="a" x1="1.5" y1="11.001" x2="2.5" y2="11.001"/><line class="a" x1="4.575" y1="18.426" x2="5.282" y2="17.719"/><line class="a" x1="19.425" y1="18.426" x2="18.718" y2="17.719"/><line class="a" x1="22.5" y1="11.001" x2="21.5" y2="11.001"/><line class="a" x1="19.425" y1="3.577" x2="18.718" y2="4.284"/></svg>