<?xml version="1.0" encoding="UTF-8"?><svg version="1.1" viewBox="0 0 24 24" xmlns="http://www.w3.org/2000/svg" xmlns:xlink="http://www.w3.org/1999/xlink"><g stroke-linecap="round" stroke-width="1" stroke="#000" fill="none" stroke-linejoin="round"><polyline points=".714,10.353 3.501,14.503 6.706,10.665"></polyline><polyline points="23.286,14.655 20.501,10.503 17.294,14.342"></polyline><path d="M20.464 10.54l2.1933e-07 1.3901e-06c.701321 4.44493-2.13365 8.68171-6.51 9.729l-5.6048e-08 1.32936e-08c-2.8503.676044-5.84779-.164509-7.931-2.224"></path><path d="M3.505 14.479l2.21508e-07 8.88685e-07c-1.18252-4.74422 1.70481-9.5488 6.44904-10.7313 .0296159-.00738188.0592697-.0146106.0889604-.0216857l-5.16719e-07 1.22442e-07c3.0496-.722635 6.24934.292945 8.324 2.642"></path></g></svg>