<?xml version="1.0" encoding="UTF-8"?><svg version="1.1" viewBox="0 0 24 24" xmlns="http://www.w3.org/2000/svg" xmlns:xlink="http://www.w3.org/1999/xlink"><g stroke-linecap="round" stroke-width="1" stroke="#000" fill="none" stroke-linejoin="round"><path d="M21 16l4.05529e-08 4.05079e-08c.390741.390307.391094 1.02347.000786575 1.41421 -.000262073.000262365-.000524292.000524584-.000786657.000786656l-5.585 5.585 5.49709e-08-5.50321e-08c-.390307.390741-1.02347.391094-1.41421.000786766 -.000262365-.000262073-.000524584-.000524292-.000786657-.000786656l-12.585-12.586 -2.58954e-07-2.88685e-07c-.423248-.471843-.672678-1.07407-.707-1.707v-5l1.06581e-14 1.50996e-07c-8.33927e-08-.552285.447715-1 1-1h5l1.68183e-07 9.12007e-09c.632927.0343218 1.23516.283752 1.707.707Z"></path><path d="M3.708.707h6.171l-1.50873e-08 4.32365e-12c.530246-.000151981 1.03885.210268 1.414.585l11.707 11.708 4.05529e-08 4.05079e-08c.390741.390307.391094 1.02347.000786575 1.41421 -.000262073.000262365-.000524292.000524584-.000786657.000786656l-.293.293"></path><circle cx="5.208" cy="7.207" r="1.5"></circle></g></svg>