<?xml version="1.0" encoding="utf-8"?>
<!-- Generator: Adobe Illustrator 24.0.0, SVG Export Plug-In . SVG Version: 6.00 Build 0)  -->
<svg version="1.1" id="Laag_1" xmlns="http://www.w3.org/2000/svg" xmlns:xlink="http://www.w3.org/1999/xlink" x="0px" y="0px"
	 viewBox="0 0 15 15" style="enable-background:new 0 0 15 15;" xml:space="preserve">
<style type="text/css">
	.st0{fill:none;stroke:#000000;stroke-width:1;stroke-linecap:round;stroke-linejoin:round;}
</style>
<g>
	<path class="st0" d="M13.1,10c0.2,0.2,0.2,0.6,0,0.9c0,0,0,0,0,0l-3.5,3.5c-0.2,0.2-0.6,0.2-0.9,0c0,0,0,0,0,0L0.9,6.5
		C0.7,6.2,0.5,5.9,0.5,5.5V2.4c0-0.3,0.3-0.6,0.6-0.6h3.1c0.4,0,0.8,0.2,1.1,0.4L13.1,10z"/>
	<path class="st0" d="M2.4,0.5h3.8c0.3,0,0.6,0.1,0.9,0.4l7.3,7.3c0.2,0.2,0.2,0.6,0,0.9c0,0,0,0,0,0l-0.2,0.2"/>
	<circle class="st0" cx="3.3" cy="4.5" r="0.9"/>
</g>
</svg>
