<svg viewBox="0 0 24 24" xmlns="http://www.w3.org/2000/svg"><g stroke-linecap="round" stroke="#000" fill="none" stroke-linejoin="round"><path d="M21 16l0 0c.39.39.39 1.02 0 1.41 -.01 0-.01 0-.01 0l-5.59 5.58 0-.01c-.4.39-1.03.39-1.42 0 -.01-.01-.01-.01-.01-.01L1.38 10.38l-.01-.01C.94 9.89.69 9.29.66 8.66v-5l0 0c-.01-.56.44-1.01.99-1.01h5l0 0c.63.03 1.23.28 1.7.7Z"/><path d="M3.7.7h6.17l-.01 0c.53-.01 1.03.21 1.41.58l11.7 11.7 0 0c.39.39.39 1.02 0 1.41 -.01 0-.01 0-.01 0l-.3.29"/><path d="M5.2 5.7a1.5 1.5 0 1 0 0 3 1.5 1.5 0 1 0 0-3Z"/></g></svg>