<?xml version="1.0" encoding="UTF-8"?><svg version="1.1" viewBox="0 0 24 24" xmlns="http://www.w3.org/2000/svg" xmlns:xlink="http://www.w3.org/1999/xlink"><g stroke-linecap="round" stroke-width="1" stroke="#000" fill="none" stroke-linejoin="round"><path d="M16.542 9.049l1.8-1.837 1.03639e-07-1.1776e-07c.41931-.47644.665902-1.08024.7-1.714v-4 0c0-.552285-.447715-1-1-1l-4.258.00699994 4.74534e-08-2.63564e-09c-.632925.0351537-1.23499.284869-1.707.708l-10.828 10.828 5.30811e-08-5.30971e-08c-.390382.3905-.390382 1.0235-1.06162e-07 1.414l4.836 4.836 -7.32725e-08-7.32723e-08c.38662.386618 1.01345.386618 1.40007-1.99447e-06 .00232111-.00232112.00463067-.00465377.00692857-.00699786l1.05-1.072"></path><circle cx="15.542" cy="3.998" r="1.5"></circle></g><circle cx="17.042" cy="17.498" r="6" fill="none" stroke="#000" stroke-linejoin="round" stroke-width="1"></circle><g stroke-linecap="round" stroke-width="1" stroke="#000" fill="none" stroke-linejoin="round"><line x1="17.04" x2="17.04" y1="14.5" y2="20.5"></line><line x1="20.04" x2="14.04" y1="17.5" y2="17.5"></line></g></svg>