<?xml version="1.0" encoding="utf-8"?>
<!-- Generator: Adobe Illustrator 24.0.0, SVG Export Plug-In . SVG Version: 6.00 Build 0)  -->
<svg version="1.1" id="Laag_1" xmlns="http://www.w3.org/2000/svg" xmlns:xlink="http://www.w3.org/1999/xlink" x="0px" y="0px"
	 viewBox="0 0 15 15" style="enable-background:new 0 0 15 15;" xml:space="preserve">
<style type="text/css">
	.st0{fill:none;stroke:#000000;stroke-width:1;stroke-linecap:round;stroke-linejoin:round;}
	.st1{fill:none;stroke:#000000;stroke-width:1;stroke-linejoin:round;}
</style>
<g>
	<path class="st0" d="M10.3,5.7l1.1-1.1c0.3-0.3,0.4-0.7,0.4-1V1.1c0-0.3-0.3-0.6-0.6-0.6l-2.6,0c-0.4,0-0.8,0.2-1,0.4L1,7.5
		C0.7,7.8,0.7,8.1,1,8.4l2.9,2.9c0.2,0.2,0.6,0.2,0.9,0c0,0,0,0,0,0l0.6-0.7"/>
	<circle class="st0" cx="9.7" cy="2.6" r="0.9"/>
	<circle class="st1" cx="10.6" cy="10.8" r="3.7"/>
	<line class="st0" x1="12.4" y1="10.8" x2="8.7" y2="10.8"/>
</g>
</svg>
