<?xml version="1.0" encoding="utf-8"?>
<!-- Generator: Adobe Illustrator 24.0.0, SVG Export Plug-In . SVG Version: 6.00 Build 0)  -->
<svg version="1.1" id="Laag_1" xmlns="http://www.w3.org/2000/svg" xmlns:xlink="http://www.w3.org/1999/xlink" x="0px" y="0px"
	 viewBox="0 0 15 15" style="enable-background:new 0 0 15 15;" xml:space="preserve">
<style type="text/css">
	.st0{fill:none;stroke:#000000;stroke-width:1;stroke-linecap:round;stroke-linejoin:round;}
</style>
<g>
	<path class="st0" d="M12.9,1.9c0.5,0.4,0.8,0.9,1,1.4"/>
	<path class="st0" d="M14,5.7c-0.2,0.6-0.6,1-1.1,1.4"/>
	<path class="st0" d="M2.1,13.7c-0.5-0.4-0.8-0.9-1-1.4"/>
	<path class="st0" d="M1,9.9c0.2-0.6,0.6-1,1.1-1.4"/>
	<line class="st0" x1="9.9" y1="1.1" x2="10.8" y2="1.1"/>
	<line class="st0" x1="4.8" y1="14.5" x2="5.7" y2="14.5"/>
	<line class="st0" x1="8.7" y1="7.8" x2="10.5" y2="7.8"/>
	<line class="st0" x1="4.5" y1="7.8" x2="6.3" y2="7.8"/>
	<line class="st0" x1="7.5" y1="3.8" x2="7.5" y2="14.5"/>
	<polyline class="st0" points="5.7,5.7 7.5,3.8 9.3,5.7 	"/>
	<circle class="st0" cx="7.5" cy="1.4" r="0.9"/>
</g>
</svg>
