<?xml version="1.0" encoding="UTF-8"?><svg version="1.1" viewBox="0 0 24 24" xmlns="http://www.w3.org/2000/svg" xmlns:xlink="http://www.w3.org/1999/xlink"><g stroke-linecap="round" stroke-width="1" stroke="#000" fill="none" stroke-linejoin="round"><path d="M20.941 2.783l1.08782e-07 8.69961e-08c.772144.617508 1.36356 1.43174 1.712 2.357"></path><path d="M22.619 9.107l5.04568e-08-1.27234e-07c-.364596.919382-.970571 1.72332-1.754 2.327"></path><path d="M3.059 22.217l-4.84292e-07-3.87304e-07c-.772144-.617508-1.36356-1.43174-1.712-2.357"></path><path d="M1.381 15.893l1.3932e-08-3.51315e-08c.364596-.919382.970571-1.72332 1.754-2.327"></path><line x1="16" x2="17.5" y1="1.5" y2="1.5"></line><line x1="7.5" x2="9" y1="23.5" y2="23.5"></line><line x1="14" x2="17" y1="12.5" y2="12.5"></line><line x1="7" x2="10" y1="12.5" y2="12.5"></line><line x1="12" x2="12" y1="6" y2="23.5"></line><polyline points="9,9 12,6 15,9"></polyline><circle cx="12" cy="2" r="1.5"></circle></g></svg>