<?xml version="1.0" encoding="UTF-8"?><svg version="1.1" viewBox="0 0 24 24" xmlns="http://www.w3.org/2000/svg" xmlns:xlink="http://www.w3.org/1999/xlink"><g stroke-linecap="round" stroke-width="1" stroke="#000" fill="none" stroke-linejoin="round"><line x1="12" x2="12" y1="4.5" y2="19.5"></line><path d="M6.5.5h1.5l-1.74846e-07 3.9968e-15c2.20914-9.65645e-08 4 1.79086 4 4l4.61853e-14 6.03983e-07c-3.33571e-07-2.20914 1.79086-4 4-4h1.5"></path><path d="M6.5 23.5h1.5l-1.74846e-07-3.55271e-15c2.20914 9.65645e-08 4-1.79086 4-4l4.61853e-14 6.03983e-07c3.33571e-07 2.20914 1.79086 4 4 4h1.5"></path><line x1="9.5" x2="14.5" y1="15.5" y2="15.5"></line></g></svg>