<?xml version="1.0" encoding="UTF-8"?><svg version="1.1" viewBox="0 0 24 24" xmlns="http://www.w3.org/2000/svg" xmlns:xlink="http://www.w3.org/1999/xlink"><g stroke-linecap="round" stroke-width="1" stroke="#000" fill="none" stroke-linejoin="round"><line x1="21.5" x2="21.5" y1="5.5" y2="18.5"></line><line x1="5.5" x2="18.5" y1="2.5" y2="2.5"></line><line x1="2.5" x2="2.5" y1="18.5" y2="5.5"></line><line x1="18.5" x2="5.5" y1="21.5" y2="21.5"></line><rect width="3" height="3" x=".5" y=".498" rx=".27614" ry="0"></rect><rect width="3" height="3" x="20.5" y=".498" rx=".27614" ry="0"></rect><rect width="3" height="3" x=".5" y="20.498" rx=".27614" ry="0"></rect><rect width="3" height="3" x="20.5" y="20.498" rx=".27614" ry="0"></rect><path d="M7 8.5v-1.5l5.32907e-15 7.54979e-08c-4.16963e-08-.276142.223858-.5.5-.5h9l-5.96244e-09 1.77636e-15c.276142-4.49893e-08.5.223858.5.5 3.55271e-15 2.54893e-08 7.10543e-15 5.00086e-08 7.10543e-15 7.54979e-08v1.5"></path><line x1="12" x2="12" y1="6.5" y2="18.5"></line><line x1="10.5" x2="13.5" y1="18.5" y2="18.5"></line></g></svg>