<?xml version="1.0" encoding="UTF-8"?><svg version="1.1" viewBox="0 0 24 24" xmlns="http://www.w3.org/2000/svg" xmlns:xlink="http://www.w3.org/1999/xlink"><g stroke-linecap="round" stroke-width="1" stroke="#000" fill="none" stroke-linejoin="round"><path d="M23.5 15.471l9.16328e-09-3.10967e-07c.00720675-.244572-.166054-.457424-.407-.5l-2.48772e-07-3.36035e-08c-1.64194-.22179-2.7932-1.73264-2.57141-3.37459 .180756-1.33816 1.23325-2.39066 2.57141-2.57141l2.31369e-08-4.04646e-09c.241178-.0421801.414642-.25528.407-.5v-3.525 0c0-.276142-.223858-.5-.5-.5h-22l-2.18557e-08 1.77636e-15c-.276142 1.20706e-08-.5.223858-.5.5 0 0 0 0 0 0v3.536l-7.05163e-09-3.78484e-06c.000461785.24836.183153.458735.428996.494003l1.68202e-07 2.39675e-08c1.64029.233728 2.78053 1.75292 2.5468 3.3932 -.188202 1.32079-1.22601 2.3586-2.5468 2.5468l-5.11053e-08 7.33115e-09c-.245843.0352667-.428536.24564-.429.494v3.536l7.10543e-15-7.54979e-08c-4.16963e-08.276142.223858.5.5.5h22 -2.18557e-08c.276142 1.20706e-08.5-.223858.5-.5Z"></path><rect width="9" height="9" x="6.5" y="7.5" rx=".27614" ry="0"></rect><line x1="9.5" x2="12.5" y1="10.5" y2="10.5"></line><line x1="9.5" x2="12.5" y1="13.5" y2="13.5"></line><path d="M18.75 6.75h-1.09278e-08c.138071-6.03528e-09.25.111929.25.25"></path><path d="M18.5 7l3.55271e-15 3.77489e-08c-2.08482e-08-.138071.111929-.25.25-.25"></path><path d="M18.75 7.25h-1.09278e-08c-.138071-6.03528e-09-.25-.111929-.25-.25 0 0 0-8.88178e-16 0-8.88178e-16"></path><path d="M19 7v0c0 .138071-.111929.25-.25.25"></path><path d="M18.75 9.75h-1.09278e-08c.138071-6.03528e-09.25.111929.25.25"></path><path d="M18.5 10l3.55271e-15 3.7749e-08c-2.08482e-08-.138071.111929-.25.25-.25"></path><path d="M18.75 10.25h-1.09278e-08c-.138071-6.03528e-09-.25-.111929-.25-.25 0 0 0 0 0 0"></path><path d="M19 10v0c0 .138071-.111929.25-.25.25"></path><path d="M18.75 13.75h-1.09278e-08c.138071-6.03528e-09.25.111929.25.25"></path><path d="M18.5 14l3.55271e-15 3.7749e-08c-2.08482e-08-.138071.111929-.25.25-.25"></path><path d="M18.75 14.25h-1.09278e-08c-.138071-6.03528e-09-.25-.111929-.25-.25 0 0 0 0 0 0"></path><path d="M19 14v0c0 .138071-.111929.25-.25.25"></path><path d="M18.75 16.75h-1.09278e-08c.138071-6.03528e-09.25.111929.25.25"></path><path d="M18.5 17l3.55271e-15 3.7749e-08c-2.08482e-08-.138071.111929-.25.25-.25"></path><path d="M18.75 17.25h-1.09278e-08c-.138071-6.03528e-09-.25-.111929-.25-.25 0 0 0 0 0 0"></path><path d="M19 17v0c0 .138071-.111929.25-.25.25"></path></g></svg>