<?xml version="1.0" encoding="utf-8"?>
<!-- Generator: Adobe Illustrator 24.0.0, SVG Export Plug-In . SVG Version: 6.00 Build 0)  -->
<svg version="1.1" id="Light" xmlns="http://www.w3.org/2000/svg" xmlns:xlink="http://www.w3.org/1999/xlink" x="0px" y="0px"
	 viewBox="0 0 15 15" style="enable-background:new 0 0 15 15;" xml:space="preserve">
<style type="text/css">
	.st0{fill:none;stroke:#000000;stroke-width:1;stroke-linecap:round;stroke-linejoin:round;}
</style>
<g>
	<path class="st0" d="M14.5,9.6c0-0.1-0.1-0.3-0.2-0.3c-1-0.1-1.7-1.1-1.6-2.1c0.1-0.8,0.8-1.5,1.6-1.6c0.1,0,0.3-0.2,0.2-0.3V3.2
		c0-0.2-0.1-0.3-0.3-0.3H0.8c-0.2,0-0.3,0.1-0.3,0.3v2.2c0,0.2,0.1,0.3,0.3,0.3c1,0.1,1.7,1.1,1.6,2.1C2.2,8.6,1.6,9.2,0.8,9.3
		c-0.1,0-0.3,0.1-0.3,0.3v2.2c0,0.2,0.1,0.3,0.3,0.3h13.4c0.2,0,0.3-0.1,0.3-0.3V9.6z"/>
	<path class="st0" d="M4.5,4.8h4.9c0.2,0,0.3,0.1,0.3,0.3v4.9c0,0.2-0.1,0.3-0.3,0.3H4.5c-0.2,0-0.3-0.1-0.3-0.3V5.1
		C4.2,4.9,4.3,4.8,4.5,4.8z"/>
	<line class="st0" x1="6" y1="6.6" x2="7.8" y2="6.6"/>
	<line class="st0" x1="6" y1="8.4" x2="7.8" y2="8.4"/>
	<path class="st0" d="M11.6,4.3c0.1,0,0.2,0.1,0.2,0.2"/>
	<path class="st0" d="M11.5,4.5c0-0.1,0.1-0.2,0.2-0.2"/>
	<path class="st0" d="M11.6,4.6c-0.1,0-0.2-0.1-0.2-0.2"/>
	<path class="st0" d="M11.8,4.5c0,0.1-0.1,0.2-0.2,0.2"/>
	<path class="st0" d="M11.6,6.1c0.1,0,0.2,0.1,0.2,0.2"/>
	<path class="st0" d="M11.5,6.3c0-0.1,0.1-0.2,0.2-0.2"/>
	<path class="st0" d="M11.6,6.4c-0.1,0-0.2-0.1-0.2-0.2"/>
	<path class="st0" d="M11.8,6.3c0,0.1-0.1,0.2-0.2,0.2"/>
	<path class="st0" d="M11.6,8.6c0.1,0,0.2,0.1,0.2,0.2"/>
	<path class="st0" d="M11.5,8.7c0-0.1,0.1-0.2,0.2-0.2"/>
	<path class="st0" d="M11.6,8.9c-0.1,0-0.2-0.1-0.2-0.2"/>
	<path class="st0" d="M11.8,8.7c0,0.1-0.1,0.2-0.2,0.2"/>
	<path class="st0" d="M11.6,10.4c0.1,0,0.2,0.1,0.2,0.2"/>
	<path class="st0" d="M11.5,10.5c0-0.1,0.1-0.2,0.2-0.2"/>
	<path class="st0" d="M11.6,10.7c-0.1,0-0.2-0.1-0.2-0.2"/>
	<path class="st0" d="M11.8,10.5c0,0.1-0.1,0.2-0.2,0.2"/>
</g>
</svg>
