<?xml version="1.0" encoding="UTF-8"?><svg version="1.1" viewBox="0 0 24 24" xmlns="http://www.w3.org/2000/svg" xmlns:xlink="http://www.w3.org/1999/xlink"><g stroke-linecap="round" stroke-width="1" stroke="#000" fill="none" stroke-linejoin="round"><path d="M21.5 12.5v0c0 .552285-.447715 1-1 1h-5v-11l2.30926e-14 3.01992e-07c-1.66785e-07-1.10457.89543-2 2-2h2l-8.74228e-08 1.9984e-15c1.10457-4.82823e-08 2 .89543 2 2Z"></path><path d="M3.5 13.5l4.17035e-09-8.45444e-08c-.123976 2.51333 1.72735 4.69 4.228 4.971l-1.19779e-08-1.28573e-09c.274565.0294726.473252.275944.443779.550509 -.000771037.00718295-.00169766.0143483-.00277921.0214911l-.583 3.883 1.15877e-08-7.74329e-08c-.0408693.273101.147392.527625.420493.568494 .0246635.00369086.0495685.00553136.0745066.00550611h8.919 -2.18557e-08c.276142 1.20706e-08.5-.223858.5-.5v-3.7l-1.18437e-07.000892286c1.69938e-07-1.12545.562644-2.17639 1.49926-2.8004l-1.2319e-07 8.20269e-08c.936779-.623763 1.4997-1.67455 1.5-2.8v-.2"></path><path d="M15.5 13.5h-12.5 -2.18557e-08c-.276142-1.20706e-08-.5-.223858-.5-.5 0 0 0-1.77636e-15 0-1.77636e-15v-2l5.77316e-15 7.54979e-08c-4.16963e-08-.276142.223858-.5.5-.5h12.5Z"></path><circle cx="19" cy="4" r="1"></circle></g></svg>