<svg viewBox="0 0 24 24" xmlns="http://www.w3.org/2000/svg"><g stroke-linecap="round" stroke="#000" fill="none" stroke-linejoin="round"><path d="M8 .5a7.5 3.5 0 1 0 0 7 7.5 3.5 0 1 0 0-7Z"/><path d="M8 2.5a3.5 1.5 0 1 0 0 3 3.5 1.5 0 1 0 0-3Z"/><path d="M15.5 20c0 1.93-3.36 3.5-7.5 3.5C3.85 23.5.5 21.93.5 20V4"/><path d="M15.5 4h7.186l-.01 0c.27-.01.5.22.5.49 0 .09-.03.17-.08.25l-.9 1.48 0-.01c-.1.15-.1.35-.01.51l1.21 2.051 0 0c.08.14.09.32.01.47l-1.27 2.51 0-.01c-.08.14-.08.3-.01.44l1.26 2.529 0 0c.07.15.06.33-.02.48l-1.2 1.98 0-.01c-.1.15-.1.35-.01.51l.89 1.48 0 0c.14.23.06.54-.18.68 -.08.04-.17.07-.26.07h-7.19Z"/></g></svg>