<?xml version="1.0" encoding="utf-8"?>
<!-- Generator: Adobe Illustrator 24.0.0, SVG Export Plug-In . SVG Version: 6.00 Build 0)  -->
<svg version="1.1" id="Light" xmlns="http://www.w3.org/2000/svg" xmlns:xlink="http://www.w3.org/1999/xlink" x="0px" y="0px"
	 viewBox="0 0 15 15" style="enable-background:new 0 0 15 15;" xml:space="preserve">
<style type="text/css">
	.st0{fill:none;stroke:#000000;stroke-width:1;stroke-linecap:round;stroke-linejoin:round;}
</style>
<g>
	<path class="st0" d="M13.3,7.8c0,0.3-0.3,0.6-0.6,0.6h-3V1.7c0-0.7,0.5-1.2,1.2-1.2h1.2c0.7,0,1.2,0.5,1.2,1.2V7.8z"/>
	<path class="st0" d="M2.3,8.4c-0.1,1.5,1.1,2.9,2.6,3c0.2,0,0.3,0.2,0.3,0.3c0,0,0,0,0,0l-0.4,2.4c0,0.2,0.1,0.3,0.3,0.3
		c0,0,0,0,0,0h5.4c0.2,0,0.3-0.1,0.3-0.3v-2.3c0-0.7,0.3-1.3,0.9-1.7s0.9-1,0.9-1.7V8.4"/>
	<path class="st0" d="M9.6,8.4H2c-0.2,0-0.3-0.1-0.3-0.3V6.9c0-0.2,0.1-0.3,0.3-0.3h7.6V8.4z"/>
	<circle class="st0" cx="11.8" cy="2.6" r="0.6"/>
</g>
</svg>
