<?xml version="1.0" encoding="UTF-8"?><svg version="1.1" viewBox="0 0 24 24" xmlns="http://www.w3.org/2000/svg" xmlns:xlink="http://www.w3.org/1999/xlink"><g stroke-linecap="round" stroke-width="1" stroke="#000" fill="none" stroke-linejoin="round"><path d="M11.881 9.3l-10.531 10.514 2.70616e-08-2.58754e-08c-.726397.694557-.850286 1.80998-.294 2.647l-7.32102e-08-1.03242e-07c.638926.901026 1.8873 1.1135 2.78833.474573 .0918625-.0651406.178059-.137924.257671-.217573 0 0 10.6-10.6 10.591-10.607l2.25068e-07 1.08355e-07c2.98572 1.43742 6.57137.182274 8.00879-2.80344 .668499-1.38856.77707-2.98111.30321-4.44756l9.4184e-09 2.95458e-08c-.0848751-.266255-.369523-.413293-.635778-.328418 -.0761273.0242674-.145426.066218-.202222.122418l-3.987 3.986 -2.92087e-09 2.92871e-09c-.111116.111414-.268196.164021-.424.142l-1.856-.265 -3.50517e-08-5.03458e-09c-.220118-.0316162-.392902-.204808-.424-.425l-.266-1.856 -2.07971e-08-1.4529e-07c-.0222787-.155641.0299497-.312697.141-.424l3.987-3.987 1.4161e-08-1.43305e-08c.196426-.198778.194519-.519154-.00425908-.715579 -.0569444-.0562706-.126428-.0982266-.202741-.122421l-2.69628e-07-8.70943e-08c-3.15328-1.01856-6.53523.711971-7.55379 3.86525 -.473728 1.46658-.364946 3.0592.303795 4.44775Z"></path><path d="M3.218 20.773l-7.99998e-09-7.975e-09c.0977837.0974783.0980312.255769.000552974.353553 -.0974783.0977837-.255769.0980312-.353553.000552974 -.0977837-.0974783-.0980312-.255769-.000552974-.353553 .000184031-.000184608.000368351-.000368927.000552958-.000552958l3.0747e-09-3.0651e-09c.0975674-.0972627.255433-.0972627.353 6.1302e-09"></path></g></svg>