<?xml version="1.0" encoding="utf-8"?>
<!-- Generator: Adobe Illustrator 24.0.0, SVG Export Plug-In . SVG Version: 6.00 Build 0)  -->
<svg version="1.1" id="Laag_1" xmlns="http://www.w3.org/2000/svg" xmlns:xlink="http://www.w3.org/1999/xlink" x="0px" y="0px"
	 viewBox="0 0 15 15" style="enable-background:new 0 0 15 15;" xml:space="preserve">
<style type="text/css">
	.st0{fill:none;stroke:#000000;stroke-width:1;stroke-linecap:round;stroke-linejoin:round;}
</style>
<g>
	<path class="st0" d="M7.4,5.8l-6.5,6.5c-0.4,0.4-0.5,1.1-0.2,1.6c0.4,0.6,1.2,0.7,1.7,0.3c0.1,0,0.1-0.1,0.2-0.1
		c0,0,6.6-6.6,6.6-6.6c1.8,0.9,4.1,0.1,5-1.7C14.5,5,14.6,4,14.3,3.1c-0.1-0.2-0.2-0.3-0.4-0.2c0,0-0.1,0-0.1,0.1l-2.5,2.5
		c-0.1,0.1-0.2,0.1-0.3,0.1L9.9,5.3c-0.1,0-0.2-0.1-0.3-0.3L9.5,3.9c0-0.1,0-0.2,0.1-0.3L12,1.2c0.1-0.1,0.1-0.3,0-0.4
		c0,0-0.1-0.1-0.1-0.1c-2-0.6-4,0.4-4.7,2.4C6.9,4,7,5,7.4,5.8z"/>
	<path class="st0" d="M2.1,12.9c0.1,0.1,0.1,0.2,0,0.2c-0.1,0.1-0.2,0.1-0.2,0c-0.1-0.1-0.1-0.2,0-0.2c0,0,0,0,0,0
		C1.9,12.9,2,12.9,2.1,12.9"/>
</g>
</svg>
