<svg viewBox="0 0 24 24" xmlns="http://www.w3.org/2000/svg"><g stroke-linecap="round" stroke="#000" fill="none" stroke-linejoin="round"><path d="M6 12.92l0 6.16"/><path d="M15.317 5.917l0 0c-2.77-1.84-6.49-1.08-8.32 1.68 -.66.98-1.01 2.13-1.01 3.31"/><path d="M18 19.084v-8.167l-.01 0c0-1.19-.35-2.35-1.01-3.34"/><path d="M16 15.251v-4.334 0c0-2.21-1.8-4-4-4 -2.21 0-4 1.79-4 4v8.167"/><path d="M16 19.08l0-1.83"/><path d="M10 16.25l0 2.83"/><path d="M14 19.084v-8.167 0c0-1.11-.9-2-2-2 -1.11 0-2 .89-2 2v3.333"/><path d="M12 11.25l0 5.33"/><path d="M12 18.58l0 .5"/><path d="M17.25.5h5.25 -.01c.55-.01 1 .44 1 .99v21 0c0 .55-.45 1-1 1h-5.25"/><path d="M6.75 23.5H1.5h-.01c-.56-.01-1-.45-1-1.01 0 0 0-.001 0-.001v-21l0 0C.48.92.93.47 1.48.47h5.25"/></g></svg>