<?xml version="1.0" encoding="UTF-8"?><svg version="1.1" viewBox="0 0 24 24" xmlns="http://www.w3.org/2000/svg" xmlns:xlink="http://www.w3.org/1999/xlink"><g stroke-linecap="round" stroke-width="1" stroke="#000" fill="none" stroke-linejoin="round"><line x1="12" x2="12" y1="23.5" y2="6.89"></line><polyline points="16,11.885 12,6.885 8,11.885"></polyline><path d="M9.5 16.5h-4.5 -4.37114e-08c-.552285-2.41411e-08-1-.447715-1-1 0 0 0 0 0 0v-14l1.24345e-14 1.50996e-07c-8.33927e-08-.552285.447715-1 1-1h14l-4.37114e-08 1.77636e-15c.552285-2.41411e-08 1 .447715 1 1v14 0c0 .552285-.447715 1-1 1h-4.5"></path></g></svg>