<svg viewBox="0 0 24 24" xmlns="http://www.w3.org/2000/svg"><g stroke-linecap="round" stroke="#000" fill="none" stroke-linejoin="round"><path d="M12 9.49a3 3 0 1 0 0 6 3 3 0 1 0 0-6Z"/><path d="M16.5 23.5c-.32-3.4-2.24-6-4.5-6 -2.27 0-4.188 2.6-4.5 6Z"/><path d="M17.3 17.3l-.01 0c2.93-2.93 2.93-7.68 0-10.61 -2.93-2.94-7.68-2.94-10.61-.01 -2.94 2.92-2.94 7.67-.01 10.6 0 0 0 0 0 0"/><path d="M20.132 20.13l0-.01c4.49-4.5 4.49-11.78-.01-16.27 -4.5-4.5-11.78-4.5-16.27 0 -4.5 4.49-4.5 11.77 0 16.26"/></g></svg>