<?xml version="1.0" encoding="utf-8"?>
<!-- Generator: Adobe Illustrator 24.0.0, SVG Export Plug-In . SVG Version: 6.00 Build 0)  -->
<svg version="1.1" id="Laag_1" xmlns="http://www.w3.org/2000/svg" xmlns:xlink="http://www.w3.org/1999/xlink" x="0px" y="0px"
	 viewBox="0 0 15 15" style="enable-background:new 0 0 15 15;" xml:space="preserve">
<style type="text/css">
	.st0{fill:none;stroke:#000000;stroke-width:1;stroke-linecap:round;stroke-linejoin:round;}
</style>
<g>
	<path class="st0" d="M13.1,2.9c0.1,0.1,0.2,0.3,0.2,0.4v10.5c0,0.3-0.3,0.6-0.6,0.6H2.3c-0.3,0-0.6-0.3-0.6-0.6V1.1
		c0-0.3,0.3-0.6,0.6-0.6h8.1c0.2,0,0.3,0.1,0.4,0.2L13.1,2.9z"/>
	<path class="st0" d="M10.3,7.2L8.4,8.1V7.2c0-0.3-0.3-0.6-0.6-0.6h-3c-0.3,0-0.6,0.3-0.6,0.6v3c0,0.3,0.3,0.6,0.6,0.6h3
		c0.3,0,0.6-0.3,0.6-0.6V9.3l1.9,0.9c0.2,0.1,0.4,0,0.5-0.1c0-0.1,0.1-0.2,0-0.2V7.6c0-0.2-0.1-0.4-0.3-0.4
		C10.4,7.2,10.4,7.2,10.3,7.2z"/>
</g>
</svg>
