<?xml version="1.0" encoding="UTF-8"?><svg version="1.1" viewBox="0 0 24 24" xmlns="http://www.w3.org/2000/svg" xmlns:xlink="http://www.w3.org/1999/xlink"><g stroke-linecap="round" stroke-width="1" stroke="#000" fill="none" stroke-linejoin="round"><path d="M21.207 4.5l-1.96434e-08-1.96375e-08c.187549.187493.292943.441805.293.707v17.293 0c0 .552285-.447715 1-1 1h-17 -4.37114e-08c-.552285-2.41411e-08-1-.447715-1-1 0 0 0-3.55271e-15 0-3.55271e-15v-21l1.24345e-14 1.50996e-07c-8.33927e-08-.552285.447715-1 1-1h13.293l1.02845e-08 2.1968e-12c.265195 5.66401e-05.519507.105451.707.293Z"></path><path d="M16.577 11.542l-3.077 1.458v-1.5 0c0-.552285-.447715-1-1-1h-5l-4.37114e-08 1.77636e-15c-.552285 2.41411e-08-1 .447715-1 1 0 0 0 0 0 0v5l1.24345e-14 1.50996e-07c8.33927e-08.552285.447715 1 1 1h5 -4.37114e-08c.552285 2.41411e-08 1-.447715 1-1v-1.5l3.077 1.459 -4.78599e-08-2.73842e-08c.297205.170053.675993.0669761.846046-.230229 .066846-.116828.0938573-.252236.0769537-.385771v-3.686l-2.92688e-09 2.28482e-08c.0434383-.339093-.196238-.649196-.535331-.692635 -.134235-.0171957-.270407.0100741-.387669.0776347Z"></path></g></svg>