<?xml version="1.0" encoding="utf-8"?>
<!-- Generator: Adobe Illustrator 24.0.0, SVG Export Plug-In . SVG Version: 6.00 Build 0)  -->
<svg version="1.1" id="Laag_1" xmlns="http://www.w3.org/2000/svg" xmlns:xlink="http://www.w3.org/1999/xlink" x="0px" y="0px"
	 viewBox="0 0 15 15" style="enable-background:new 0 0 15 15;" xml:space="preserve">
<style type="text/css">
	.st0{fill:none;stroke:#000000;stroke-width:1;stroke-linecap:round;stroke-linejoin:round;}
</style>
<g>
	<path class="st0" d="M12.7,14.5c0.3,0,0.6-0.3,0.6-0.6V4.1c0-2-1.6-3.6-3.6-3.6c0,0,0,0,0,0H2.3C2,0.5,1.7,0.8,1.7,1.1v12.8
		c0,0.3,0.3,0.6,0.6,0.6H12.7z"/>
	<path class="st0" d="M10.2,0.5v2.4c0,0.3,0.3,0.6,0.6,0.6h2.4"/>
	<polyline class="st0" points="3.5,11.5 3.5,7.8 4.5,9.6 5.4,7.8 5.4,11.5 	"/>
	<path class="st0" d="M8.4,10.5c0,0.5-0.4,0.9-0.9,0.9S6.6,11,6.6,10.5V8.7c0-0.5,0.4-0.9,0.9-0.9s0.9,0.4,0.9,0.9V10.5z"/>
	<path class="st0" d="M11.5,7.8v0.9c0,1-0.3,1.9-0.9,2.7C10,10.7,9.6,9.7,9.6,8.7V7.8"/>
</g>
</svg>
