<?xml version="1.0" encoding="UTF-8"?><svg version="1.1" viewBox="0 0 24 24" xmlns="http://www.w3.org/2000/svg" xmlns:xlink="http://www.w3.org/1999/xlink"><g stroke-linecap="round" stroke-width="1" stroke="#000" fill="none" stroke-linejoin="round"><path d="M20.5 23.5h-4.37114e-08c.552285 2.41411e-08 1-.447715 1-1v-16.025 0c0-3.2999-2.6751-5.975-5.975-5.975h-12.025l-4.37114e-08 3.55271e-15c-.552285 2.41411e-08-1 .447715-1 1 0 0 0 0 0 0v21l1.15463e-14 1.50996e-07c8.33927e-08.552285.447715 1 1 1Z"></path><path d="M16.5.58v3.92l1.06581e-14 1.50996e-07c8.33927e-08.552285.447715 1 1 1h3.92"></path><polyline points="5.5,18.5 5.5,12.5 7,15.5 8.5,12.5 8.5,18.5"></polyline><path d="M13.5 17v0c0 .828427-.671573 1.5-1.5 1.5 -.828427 0-1.5-.671573-1.5-1.5v-3l1.77636e-14 2.26494e-07c-1.25089e-07-.828427.671573-1.5 1.5-1.5 .828427-1.25089e-07 1.5.671573 1.5 1.5 0 0 0 1.77636e-15 0 1.77636e-15Z"></path><path d="M18.5 12.5v1.5 0c0 1.62278-.526334 3.20178-1.5 4.5l3.8485e-07 5.13133e-07c-.973666-1.29822-1.5-2.87722-1.5-4.5v-1.5"></path></g></svg>