<svg viewBox="0 0 24 24" xmlns="http://www.w3.org/2000/svg"><g stroke-linecap="round" stroke="#000" fill="none" stroke-linejoin="round"><path d="M21.207 4.5l-.01-.01c.18.18.29.44.29.7v17.29 0c0 .55-.45 1-1 1h-17 -.01c-.56-.01-1-.45-1-1.01 0 0 0-.001 0-.001v-21l0 0C2.46.9 2.91.45 3.46.45h13.29l0 0c.26 0 .51.1.7.29Z"/><path d="M16.577 11.542l-3.08 1.45v-1.5 0c0-.56-.45-1-1-1h-5l-.01 0c-.56 0-1 .44-1 1 0 0 0 0 0 0v5l0 0c0 .55.44.99 1 .99h5 -.01c.55 0 1-.45 1-1v-1.51l3.077 1.45 -.01-.01c.29.17.67.06.84-.24 .06-.12.09-.26.07-.39v-3.69l-.01 0c.04-.34-.2-.65-.54-.7 -.14-.02-.28.01-.39.07Z"/></g></svg>