<?xml version="1.0" encoding="UTF-8"?><svg version="1.1" viewBox="0 0 24 24" xmlns="http://www.w3.org/2000/svg" xmlns:xlink="http://www.w3.org/1999/xlink"><g stroke-linecap="round" stroke-width="1" stroke="#000" fill="none" stroke-linejoin="round"><path d="M20.5 23.486h-4.37114e-08c.552285 2.41411e-08 1-.447715 1-1v-16.025 0c0-3.2999-2.6751-5.975-5.975-5.975h-12.025 -4.37114e-08c-.552285 2.41411e-08-1 .447715-1 1 0 0 0 0 0 0v21l1.15463e-14 1.50996e-07c8.33927e-08.552285.447715 1 1 1Z"></path><path d="M16.5.566v3.92l1.06581e-14 1.50996e-07c8.33927e-08.552285.447715 1 1 1h3.92"></path><polyline points="5.513,18.486 5.513,12.486 7.013,15.486 8.513,12.486 8.513,18.486"></polyline><path d="M13.513 13.986v0c0 .828427-.671573 1.5-1.5 1.5h-1.5v-3h1.5l-6.55671e-08 1.77636e-15c.828427-3.62117e-08 1.5.671573 1.5 1.5Z"></path><line x1="10.51" x2="10.51" y1="18.49" y2="15.49"></line><line x1="18.5" x2="18.5" y1="18.49" y2="16.49"></line><path d="M18.5 16.486v-3.986l1.17189e-07-5.77589e-08c-1.57575.776639-2.68569 2.25929-2.987 3.99h2.987"></path></g></svg>