<?xml version="1.0" encoding="utf-8"?>
<!-- Generator: Adobe Illustrator 24.0.0, SVG Export Plug-In . SVG Version: 6.00 Build 0)  -->
<svg version="1.1" id="Laag_1" xmlns="http://www.w3.org/2000/svg" xmlns:xlink="http://www.w3.org/1999/xlink" x="0px" y="0px"
	 viewBox="0 0 15 15" style="enable-background:new 0 0 15 15;" xml:space="preserve">
<style type="text/css">
	.st0{fill:none;stroke:#000000;stroke-width:1;stroke-linecap:round;stroke-linejoin:round;}
</style>
<g>
	<path class="st0" d="M12.7,14.5c0.3,0,0.6-0.3,0.6-0.6V4.1c0-2-1.6-3.6-3.6-3.6c0,0,0,0,0,0H2.3C2,0.5,1.7,0.8,1.7,1.1v12.8
		c0,0.3,0.3,0.6,0.6,0.6H12.7z"/>
	<path class="st0" d="M10.2,0.5v2.4c0,0.3,0.3,0.6,0.6,0.6h2.4"/>
	<path class="st0" d="M4.2,11.5V8.7c0-0.5,0.4-0.9,0.9-0.9S6,8.2,6,8.7v2.7"/>
	<line class="st0" x1="4.2" y1="9.6" x2="6" y2="9.6"/>
	<path class="st0" d="M9,7.8v0.9c0,1-0.3,1.9-0.9,2.7c-0.6-0.8-0.9-1.8-0.9-2.7V7.8"/>
	<line class="st0" x1="10.8" y1="7.8" x2="10.8" y2="11.5"/>
	<line class="st0" x1="10.2" y1="11.5" x2="11.5" y2="11.5"/>
	<line class="st0" x1="10.2" y1="7.8" x2="11.5" y2="7.8"/>
</g>
</svg>
