<?xml version="1.0" encoding="UTF-8"?><svg version="1.1" viewBox="0 0 24 24" xmlns="http://www.w3.org/2000/svg" xmlns:xlink="http://www.w3.org/1999/xlink"><g stroke-linecap="round" stroke-width="1" stroke="#000" fill="none" stroke-linejoin="round"><path d="M19.518 8.288l4.86588e-07 3.52477e-07c1.47517 1.06859 2.81263 2.31537 3.982 3.712 0 0-5.148 6.5-11.5 6.5l1.74774e-07 9.69912e-10c-1.01743-.00564625-2.02841-.162011-3-.464"></path><path d="M4.468 15.7l1.76363e-06 1.27897e-06c-1.46958-1.06572-2.80228-2.30841-3.968-3.7 0 0 5.148-6.5 11.5-6.5l-7.70313e-08-3.25047e-10c.843632.00355982 1.6835.112742 2.5.325"></path><path d="M8 12l4.61853e-14 6.03983e-07c-3.33571e-07-2.20914 1.79086-4 4-4"></path><path d="M16 12v0c0 2.20914-1.79086 4-4 4"></path><line x1="21.75" x2="2.25" y1="2.25" y2="21.75"></line></g></svg>