<?xml version="1.0" encoding="utf-8"?>
<!-- Generator: Adobe Illustrator 24.0.0, SVG Export Plug-In . SVG Version: 6.00 Build 0)  -->
<svg version="1.1" id="Laag_1" xmlns="http://www.w3.org/2000/svg" xmlns:xlink="http://www.w3.org/1999/xlink" x="0px" y="0px"
	 viewBox="0 0 15 15" style="enable-background:new 0 0 15 15;" xml:space="preserve">
<style type="text/css">
	.st0{fill:none;stroke:#000000;stroke-width:1;stroke-linecap:round;stroke-linejoin:round;}
</style>
<g>
	<path class="st0" d="M12.1,5.2c0.9,0.7,1.7,1.4,2.4,2.3c0,0-3.1,4-7,4c-0.6,0-1.2-0.1-1.8-0.3"/>
	<path class="st0" d="M2.9,9.8C2,9.1,1.2,8.3,0.5,7.5c0,0,3.1-4,7-4c0.5,0,1,0.1,1.5,0.2"/>
	<path class="st0" d="M5.1,7.5c0-1.3,1.1-2.4,2.4-2.4"/>
	<path class="st0" d="M9.9,7.5c0,1.3-1.1,2.4-2.4,2.4"/>
	<line class="st0" x1="13.4" y1="1.6" x2="1.6" y2="13.4"/>
</g>
</svg>
