<?xml version="1.0" encoding="utf-8"?>
<!-- Generator: Adobe Illustrator 24.0.0, SVG Export Plug-In . SVG Version: 6.00 Build 0)  -->
<svg version="1.1" id="Laag_1" xmlns="http://www.w3.org/2000/svg" xmlns:xlink="http://www.w3.org/1999/xlink" x="0px" y="0px"
	 viewBox="0 0 15 15" style="enable-background:new 0 0 15 15;" xml:space="preserve">
<style type="text/css">
	.st0{fill:none;stroke:#000000;stroke-width:1;stroke-linecap:round;stroke-linejoin:round;}
</style>
<g>
	<path class="st0" d="M1.7,11.8c0,0.6,0.6,1.2,3.3,1.2h1.8c2.7,0,3.3-0.6,3.3-1.2V6.9c0-0.6-0.6-1.2-3.3-1.2H5.1
		c-2.7,0-3.3,0.6-3.3,1.2V11.8z"/>
	<path class="st0" d="M9.9,4.5V4.1C9.3,2.8,7.7,2.2,6.3,2.9c-0.5,0.3-1,0.7-1.2,1.2v0.3"/>
	<line class="st0" x1="8.7" y1="2.9" x2="10.8" y2="0.8"/>
	<line class="st0" x1="6.3" y1="2.9" x2="4.2" y2="0.8"/>
	<path class="st0" d="M2.3,4.5h10.3c1,0,1.8,0.8,1.8,1.8v6.1c0,1-0.8,1.8-1.8,1.8H2.3c-1,0-1.8-0.8-1.8-1.8V6.3
		C0.5,5.3,1.3,4.5,2.3,4.5z"/>
	<path class="st0" d="M13.3,7.2c0,0.5-0.4,0.9-0.9,0.9l0,0c-0.5,0-0.9-0.4-0.9-0.9l0,0c0-0.5,0.4-0.9,0.9-0.9l0,0
		C12.9,6.3,13.3,6.7,13.3,7.2z"/>
	<path class="st0" d="M13.3,10.2c0,0.5-0.4,0.9-0.9,0.9l0,0c-0.5,0-0.9-0.4-0.9-0.9l0,0c0-0.5,0.4-0.9,0.9-0.9l0,0
		C12.9,9.3,13.3,9.7,13.3,10.2z"/>
</g>
</svg>
