<?xml version="1.0" encoding="UTF-8"?><svg version="1.1" viewBox="0 0 24 24" xmlns="http://www.w3.org/2000/svg" xmlns:xlink="http://www.w3.org/1999/xlink"><g stroke-linecap="round" stroke-width="1" stroke="#000" fill="none" stroke-linejoin="round"><path d="M2.5 18.994c0 1 1 2 5.5 2h3c4.5 0 5.5-1 5.5-2v-8c0-1-1-2-5.5-2h-3c-4.5 0-5.5 1-5.5 2Z"></path><path d="M16 6.994v-.5l1.191e-07 2.44308e-07c-1.07696-2.20914-3.74086-3.12696-5.95-2.05 -.893009.435342-1.61466 1.15699-2.05 2.05v.5"></path><line x1="14.02" x2="17.5" y1="4.47" y2=".99"></line><line x1="9.98" x2="6.5" y1="4.47" y2=".99"></line><rect width="23" height="16.01" x=".5" y="6.997" rx="1.65684" ry="0"></rect><path d="M21.5 11.494v0c0 .828427-.671573 1.5-1.5 1.5v0l-6.55671e-08-1.77636e-15c-.828427-3.62117e-08-1.5-.671573-1.5-1.5 0 0 0-1.77636e-15 0-1.77636e-15v0l1.77636e-14 2.26494e-07c-1.25089e-07-.828427.671573-1.5 1.5-1.5v0l-6.55671e-08 1.77636e-15c.828427-3.62117e-08 1.5.671573 1.5 1.5Z"></path><path d="M21.5 16.494v0c0 .828427-.671573 1.5-1.5 1.5v0h-6.55671e-08c-.828427-3.62117e-08-1.5-.671573-1.5-1.5 0 0 0 0 0 0v0l1.77636e-14 2.26494e-07c-1.25089e-07-.828427.671573-1.5 1.5-1.5v0l-6.55671e-08 1.77636e-15c.828427-3.62117e-08 1.5.671573 1.5 1.5Z"></path></g></svg>