<svg viewBox="0 0 24 24" xmlns="http://www.w3.org/2000/svg"><g stroke-linecap="round" stroke="#000" fill="none" stroke-linejoin="round"><path d="M5.5 9H2l-.01 0c-.83 0-1.5.67-1.5 1.5 0 0 0 0 0 0v3l0 0c0 .82.67 1.49 1.5 1.49h3.49l6.14 6.14 0 0c.19.19.51.19.7-.01 .09-.1.14-.22.14-.36V3.17l-.01-.01c-.01-.28-.23-.5-.51-.5 -.14 0-.26.05-.36.14Z"/><path d="M20 4l0 0c4.41 4.08 4.69 10.97.6 15.39 -.2.21-.4.41-.61.6"/><path d="M17.5 6l0 0c3.31 2.51 3.95 7.24 1.44 10.55 -.42.54-.9 1.02-1.45 1.44"/><path d="M15.5 8.5c2.67 1.94 2.66 5.06 0 7"/></g></svg>