<?xml version="1.0" encoding="UTF-8"?><svg version="1.1" viewBox="0 0 24 24" xmlns="http://www.w3.org/2000/svg" xmlns:xlink="http://www.w3.org/1999/xlink"><g stroke-linecap="round" stroke-width="1" stroke="#000" fill="none" stroke-linejoin="round"><line x1="23.5" x2="15.5" y1="12" y2="12"></line><path d="M5.5 9h-3.5l-6.55671e-08 1.77636e-15c-.828427 3.62117e-08-1.5.671573-1.5 1.5 0 0 0 1.77636e-15 0 1.77636e-15v3l1.59872e-14 1.60927e-07c1.25089e-07.828427.671573 1.5 1.5 1.5h3.5l6.146 6.146 -2.40038e-08-2.40645e-08c.195015.195509.511597.195909.707106.000893854 .0940157-.0937783.146866-.221103.146894-.353894v-17.586l1.12795e-08.000106205c0-.276142-.223858-.5-.5-.5 -.13279 0-.260127.0528229-.353925.146819Z"></path></g></svg>