<?xml version="1.0" encoding="UTF-8"?><svg version="1.1" viewBox="0 0 24 24" xmlns="http://www.w3.org/2000/svg" xmlns:xlink="http://www.w3.org/1999/xlink"><g stroke-linecap="round" stroke-width="1" stroke="#000" fill="none" stroke-linejoin="round"><path d="M9 18.5l2.647 2.646 4.45585e-08 4.44196e-08c.195567.194957.512149.194463.707106-.00110357 .0931607-.0934519.145603-.219942.145894-.351897v-7.293"></path><path d="M12.5 7.5v-4.293l-1.53221e-09-6.93279e-07c-.000610492-.276142-.224962-.499504-.501104-.498893 -.131955.000291725-.258445.0527338-.351896.145895l-6.147 6.146h-3.5l-6.55671e-08 1.77636e-15c-.828427 3.62117e-08-1.5.671573-1.5 1.5 0 0 0 1.77636e-15 0 1.77636e-15v3l1.55431e-14 1.60927e-07c1.25089e-07.828427.671573 1.5 1.5 1.5h2.5"></path><path d="M15.5 12v0c0 1.38071-1.11929 2.5-2.5 2.5h-.5"></path><line x1="1.5" x2="21.5" y1="22" y2="2"></line></g></svg>