<?xml version="1.0" encoding="UTF-8"?><svg version="1.1" viewBox="0 0 24 24" xmlns="http://www.w3.org/2000/svg" xmlns:xlink="http://www.w3.org/1999/xlink"><g stroke-linecap="round" stroke-width="1" stroke="#000" fill="none" stroke-linejoin="round"><path d="M5.5 9h-3.5l-6.55671e-08 1.77636e-15c-.828427 3.62117e-08-1.5.671573-1.5 1.5 0 0 0 1.77636e-15 0 1.77636e-15v3l1.59872e-14 1.60927e-07c1.25089e-07.828427.671573 1.5 1.5 1.5h3.5l6.147 6.146 4.45585e-08 4.44196e-08c.195567.194957.512149.194463.707106-.00110357 .0931607-.0934519.145603-.219942.145894-.351897v-17.586l-1.53221e-09-6.93279e-07c-.000610492-.276142-.224962-.499504-.501104-.498893 -.131955.000291725-.258445.0527338-.351896.145895Z"></path><path d="M20 4l1.17008e-08 1.08131e-08c4.41828 4.08308 4.69001 10.9748.606932 15.3931 -.194258.210206-.396726.412674-.606932.606932"></path><path d="M17.5 6l1.28461e-07 9.75898e-08c3.31371 2.51737 3.95927 7.24439 1.44191 10.5581 -.413078.543751-.898154 1.02883-1.44191 1.44191"></path><path d="M15.5 8.5c2.677 1.947 2.669 5.06 0 7"></path></g></svg>