<?xml version="1.0" encoding="utf-8"?>
<!-- Generator: Adobe Illustrator 24.0.0, SVG Export Plug-In . SVG Version: 6.00 Build 0)  -->
<svg version="1.1" id="Laag_1" xmlns="http://www.w3.org/2000/svg" xmlns:xlink="http://www.w3.org/1999/xlink" x="0px" y="0px"
	 viewBox="0 0 15 15" style="enable-background:new 0 0 15 15;" xml:space="preserve">
<style type="text/css">
	.st0{fill:none;stroke:#000000;stroke-width:1;stroke-linecap:round;stroke-linejoin:round;}
</style>
<g>
	<path class="st0" d="M3.5,5.7H1.4c-0.5,0-0.9,0.4-0.9,0.9v1.8c0,0.5,0.4,0.9,0.9,0.9h2.1l3.7,3.7c0.1,0.1,0.3,0.1,0.4,0
		c0.1-0.1,0.1-0.1,0.1-0.2V2.1c0-0.2-0.1-0.3-0.3-0.3c-0.1,0-0.2,0-0.2,0.1L3.5,5.7z"/>
	<path class="st0" d="M12.4,2.6c2.7,2.5,2.9,6.7,0.4,9.4c-0.1,0.1-0.2,0.3-0.4,0.4"/>
	<path class="st0" d="M10.8,3.8c2,1.5,2.4,4.4,0.9,6.4c-0.3,0.3-0.5,0.6-0.9,0.9"/>
	<path class="st0" d="M9.6,5.4c1.6,1.2,1.6,3.1,0,4.3"/>
</g>
</svg>
