<?xml version="1.0" encoding="utf-8"?>
<!-- Generator: Adobe Illustrator 24.0.0, SVG Export Plug-In . SVG Version: 6.00 Build 0)  -->
<svg version="1.1" id="Laag_1" xmlns="http://www.w3.org/2000/svg" xmlns:xlink="http://www.w3.org/1999/xlink" x="0px" y="0px"
	 viewBox="0 0 15 15" style="enable-background:new 0 0 15 15;" xml:space="preserve">
<style type="text/css">
	.st0{fill:none;stroke:#000000;stroke-width:1;stroke-linecap:round;stroke-linejoin:round;}
</style>
<g>
	<path class="st0" d="M6.2,11.8l1.8,1.8c0.1,0.1,0.3,0.1,0.5,0c0.1-0.1,0.1-0.1,0.1-0.2V8.5"/>
	<path class="st0" d="M8.5,4.5V1.6c0-0.2-0.1-0.3-0.3-0.3c-0.1,0-0.2,0-0.2,0.1L3.8,5.5H1.5c-0.6,0-1,0.4-1,1v2c0,0.6,0.4,1,1,1h1.7
		"/>
	<path class="st0" d="M10.5,7.5c0,0.9-0.7,1.7-1.7,1.7H8.5"/>
	<line class="st0" x1="1.2" y1="14.2" x2="14.5" y2="0.8"/>
</g>
</svg>
