<?xml version="1.0" encoding="UTF-8"?><svg version="1.1" viewBox="0 0 24 24" xmlns="http://www.w3.org/2000/svg" xmlns:xlink="http://www.w3.org/1999/xlink"><g stroke-linecap="round" stroke-width="1" stroke="#000" fill="none" stroke-linejoin="round"><circle cx="14" cy="3.5" r="2.5"></circle><path d="M3 23h-6.55671e-08c-.828427-3.62117e-08-1.5-.671573-1.5-1.5 0 0 0 0 0 0v-10l-2.68164e-09-8.94673e-05c-5.63417e-08-.373134.139071-.732873.39006-1.00898l5-5.5 9.50496e-08-1.04452e-07c.557559-.612715 1.50625-.657427 2.11897-.0998673 .2432.221308.406942.516399.466032.839868l.636 3.5 -6.84446e-08-3.84857e-07c.103893.58418.544704 1.05092 1.122 1.188l.917.093 -1.04592e-08-1.05117e-09c.824285.0828427 1.42534.818215 1.3425 1.6425 -.0828427.824285-.818215 1.42534-1.6425 1.3425 -1.062-.107-1.046-.1-1.145-.122l-2.27487e-07-4.45041e-08c-1.81507-.355089-3.22444-1.79063-3.54606-3.61193l-.093-.507 -2.566 2.824v9.42 0c0 .828427-.671573 1.5-1.5 1.5Z"></path><path d="M22.5 20c-4.242 0-6.791-3.3-6.988-7.476l-7.90076e-10-1.64407e-08c-.013255-.275824.199599-.510169.475423-.523424 .00818627-.000393399.016381-.000585463.0245767-.000576015h6.488Z"></path><line x1="20.5" x2="20.5" y1="12" y2="10.5"></line><path stroke-dasharray="2.007 2.007" d="M20.357 8.509l-3.75105e-08-1.01538e-07c-.360827-.976734-1.33074-1.59112-2.368-1.5"></path><path d="M17.033 7.311l-3.28253e-07 1.9016e-07c-.268927.155792-.503619.364293-.69.613l-.343.458"></path></g></svg>