<?xml version="1.0" encoding="utf-8"?>
<!-- Generator: Adobe Illustrator 24.0.0, SVG Export Plug-In . SVG Version: 6.00 Build 0)  -->
<svg version="1.1" id="Light" xmlns="http://www.w3.org/2000/svg" xmlns:xlink="http://www.w3.org/1999/xlink" x="0px" y="0px"
	 viewBox="0 0 15 15" style="enable-background:new 0 0 15 15;" xml:space="preserve">
<style type="text/css">
	.st0{fill:none;stroke:#000000;stroke-width:1;stroke-linecap:round;stroke-linejoin:round;}
	.st1{fill:none;stroke:#000000;stroke-width:1;stroke-linecap:round;stroke-linejoin:round;stroke-dasharray:1.2772,1.2772;}
</style>
<g>
	<circle class="st0" cx="8.8" cy="2.1" r="1.6"/>
	<path class="st0" d="M1.8,14.5c-0.5,0-1-0.4-1-1V7.2c0-0.2,0.1-0.5,0.2-0.6L4.2,3c0.4-0.4,1-0.4,1.3-0.1c0.2,0.1,0.3,0.3,0.3,0.5
		l0.4,2.2C6.4,6.1,6.6,6.4,7,6.5l0.6,0.1c0.5,0.1,0.9,0.5,0.9,1s-0.5,0.9-1,0.9C6.7,8.4,6.7,8.4,6.7,8.4C5.5,8.1,4.6,7.2,4.4,6.1
		L4.4,5.8L2.7,7.6v6C2.7,14.1,2.3,14.5,1.8,14.5z"/>
	<path class="st0" d="M14.2,12.6c-2.7,0-4.3-2.1-4.4-4.8c0-0.2,0.1-0.3,0.3-0.3c0,0,0,0,0,0h4.1V12.6z"/>
	<line class="st0" x1="12.9" y1="7.5" x2="12.9" y2="6.5"/>
	<path class="st1" d="M12.8,5.3c-0.2-0.6-0.8-1-1.5-1"/>
	<path class="st0" d="M10.7,4.5c-0.2,0.1-0.3,0.2-0.4,0.4L10,5.2"/>
</g>
</svg>
