<?xml version="1.0" encoding="UTF-8"?><svg version="1.1" viewBox="0 0 24 24" xmlns="http://www.w3.org/2000/svg" xmlns:xlink="http://www.w3.org/1999/xlink"><g stroke-linecap="round" stroke-width="1" stroke="#000" fill="none" stroke-linejoin="round"><path d="M18.743 16.225l-1.99412e-08 4.60667e-08c.658193-1.52051-.0408515-3.2867-1.56136-3.94489 -.490927-.212511-1.02975-.289887-1.56064-.224111l1.56624e-07 4.00892e-07c-1.10537-2.8293-4.29506-4.22683-7.12436-3.12145 -1.94022.758019-3.28572 2.54709-3.47564 4.62145l1.05956e-07-8.96609e-09c-2.74113.231957-4.77522 2.64212-4.54327 5.38326 .219881 2.59844 2.40669 4.58745 5.01427 4.56074h11l-1.24281e-07-7.06944e-10c2.1964.0124938 3.98706-1.75791 3.99956-3.95431 .0075551-1.32818-.648433-2.57247-1.74856-3.31669Z"></path><path d="M11.424 6.924l3.66636e-07-5.08949e-07c2.80795-3.89789 7.26646-6.27122 12.068-6.424"></path><path d="M15.494 8.248l1.45774e-07-1.60199e-07c2.06393-2.26817 4.94994-3.61574 8.014-3.742"></path><path d="M18.689 10.693l5.25657e-07-5.27401e-07c1.28639-1.29066 3.00035-2.06637 4.819-2.181"></path></g></svg>