<?xml version="1.0" encoding="UTF-8"?><svg version="1.1" viewBox="0 0 24 24" xmlns="http://www.w3.org/2000/svg" xmlns:xlink="http://www.w3.org/1999/xlink"><path d="M21.306 12.126l3.66703e-08-1.06171e-07c.631056-1.82709-.338518-3.8198-2.1656-4.45086 -.476102-.164441-.982089-.224181-1.4834-.175139l1.92994e-07 5.46011e-07c-1.10431-3.12428-4.53227-4.76179-7.65656-3.65748 -2.39249.845652-3.9943 3.10494-4.00044 5.64248l-1.35175e-07 3.55271e-15c-3.04585 1.33138e-07-5.515 2.46915-5.515 5.515 1.33138e-07 3.04585 2.46915 5.515 5.515 5.515h13l6.59116e-08-2.40469e-10c2.4941-.00909941 4.50859-2.03834 4.49949-4.53245 -.00576746-1.58083-.837727-3.04356-2.19349-3.85655Z" stroke-linecap="round" stroke-width="1" stroke="#000" fill="none" stroke-linejoin="round"></path></svg>