<?xml version="1.0" encoding="UTF-8"?><svg version="1.1" viewBox="0 0 24 24" xmlns="http://www.w3.org/2000/svg" xmlns:xlink="http://www.w3.org/1999/xlink"><g stroke-linecap="round" stroke-width="1" stroke="#000" fill="none" stroke-linejoin="round"><path d="M19 12v0c0-3.86599-3.13401-7-7-7v0l-3.0598e-07 7.10543e-15c-3.86599 1.68988e-07-7 3.13401-7 7 0 0 0 1.77636e-15 0 1.77636e-15h-7.10543e-15l7.99361e-14 1.05697e-06c5.83749e-07 3.86599 3.13401 7 7 7v0l-3.0598e-07-7.10543e-15c3.86599 1.68988e-07 7-3.13401 7-7Z"></path><line x1="12" x2="12" y1="21" y2="23"></line><line x1="21" x2="23" y1="12" y2="12"></line><line x1="12" x2="12" y1="3" y2="1"></line><line x1="3" x2="1" y1="12" y2="12"></line><line x1="5.64" x2="4.22" y1="18.36" y2="19.78"></line><line x1="18.36" x2="19.78" y1="18.36" y2="19.78"></line><line x1="18.36" x2="19.78" y1="5.64" y2="4.22"></line><line x1="5.64" x2="4.22" y1="5.64" y2="4.22"></line></g></svg>