<?xml version="1.0" encoding="UTF-8"?><svg version="1.1" viewBox="0 0 24 24" xmlns="http://www.w3.org/2000/svg" xmlns:xlink="http://www.w3.org/1999/xlink"><g stroke-linecap="round" stroke-width="1" stroke="#000" fill="none" stroke-linejoin="round"><line x1="1.5" x2="6.5" y1="23.5" y2="18.5"></line><line x1="5.5" x2="9.5" y1="22.5" y2="18.5"></line><line x1="7.5" x2="12.5" y1="23.5" y2="18.5"></line><line x1="11.5" x2="15.5" y1="22.5" y2="18.5"></line><line x1="13.5" x2="18.5" y1="23.5" y2="18.5"></line><path d="M20.752 8.193l1.76004e-08-4.06966e-08c.657682-1.52073-.0419566-3.28668-1.56269-3.94436 -.490873-.212292-1.02957-.289502-1.56031-.223636l1.37591e-07 3.54729e-07c-1.09846-2.83199-4.28473-4.2373-7.11672-3.13883 -1.95079.756668-3.30326 2.55471-3.48928 4.63883l-2.7965e-07 2.8043e-08c-2.74764.275531-4.75169 2.7263-4.47615 5.47394 .255419 2.54708 2.39333 4.48985 4.95316 4.50106h11l5.16415e-08 2.224e-11c2.20914.000951316 4.00077-1.78914 4.00172-3.99828 .000570403-1.32458-.654622-2.56355-1.74972-3.30872Z"></path></g></svg>