<?xml version="1.0" encoding="UTF-8"?><svg version="1.1" viewBox="0 0 24 24" xmlns="http://www.w3.org/2000/svg" xmlns:xlink="http://www.w3.org/1999/xlink"><path d="M23.021 2.978l-2.521 2.522h-2v-2l2.521-2.522 5.62308e-08 2.82874e-08c-2.22018-1.11688-4.9254-.222481-6.04228 1.9977 -.519281 1.03225-.621584 2.22469-.285716 3.3303l-8.386 8.387 -3.69089e-07-1.12124e-07c-2.37798-.722393-4.89132.619723-5.61372 2.9977 -.335868 1.10561-.233565 2.29806.285716 3.3303l2.521-2.521h2v2l-2.521 2.521 7.15507e-08 3.59942e-08c2.22018 1.11688 4.9254.222481 6.04228-1.9977 .519281-1.03225.621584-2.22469.285716-3.3303l8.386-8.387 -7.32742e-09-2.22596e-09c2.37798.722393 4.89132-.619722 5.61372-2.9977 .335868-1.10561.233565-2.29806-.285716-3.3303Z" stroke-linecap="round" stroke-width="1" stroke="#000" fill="none" stroke-linejoin="round"></path></svg>