<?xml version="1.0" encoding="utf-8"?>
<!-- Generator: Adobe Illustrator 24.0.0, SVG Export Plug-In . SVG Version: 6.00 Build 0)  -->
<svg version="1.1" id="Laag_1" xmlns="http://www.w3.org/2000/svg" xmlns:xlink="http://www.w3.org/1999/xlink" x="0px" y="0px"
	 viewBox="0 0 15 15" style="enable-background:new 0 0 15 15;" xml:space="preserve">
<style type="text/css">
	.st0{fill:none;stroke:#000000;stroke-width:1;stroke-linecap:round;stroke-linejoin:round;}
</style>
<g>
	<path class="st0" d="M2.5,6.4c2.8-2.8,7.2-2.8,10,0"/>
	<path class="st0" d="M14.5,3.7c-3.9-3.9-10.1-3.9-14,0c0,0,0,0,0,0"/>
	<path class="st0" d="M4.5,9.1c1.7-1.7,4.3-1.7,6,0c0,0,0,0,0,0"/>
	<path class="st0" d="M12.5,6.4c-2.8-2.8-7.2-2.8-10,0"/>
	<path class="st0" d="M10.5,9.1c-1.7-1.7-4.3-1.7-6,0c0,0,0,0,0,0"/>
	<circle class="st0" cx="7.5" cy="12.8" r="1.4"/>
</g>
</svg>
