<svg viewBox="0 0 24 24" xmlns="http://www.w3.org/2000/svg"><g stroke-linecap="round" stroke="#000" fill="none" stroke-linejoin="round"><path d="M5.03 10.43l-.01 0c3.9-3.91 10.23-3.91 14.14-.01"/><path d="M22 6.6l0 0C16.53 1.13 7.66 1.13 2.2 6.59c-.01 0-.01 0-.01 0"/><path d="M7.85 14.257l0-.01c2.34-2.35 6.14-2.35 8.48-.01 0 0 0 0 0 0"/><path d="M19.172 10.43l-.01-.01c-3.91-3.91-10.24-3.91-14.15 0"/><path d="M16.344 14.257l0 0c-2.35-2.35-6.15-2.35-8.49-.01 -.01 0-.01 0-.01 0"/><path d="M12.1 17.5a2 2 0 1 0 0 4 2 2 0 1 0 0-4Z"/></g></svg>