<?xml version="1.0" encoding="UTF-8"?><svg version="1.1" viewBox="0 0 24 24" xmlns="http://www.w3.org/2000/svg" xmlns:xlink="http://www.w3.org/1999/xlink"><g stroke-linecap="round" stroke-width="1" stroke="#000" fill="none" stroke-linejoin="round"><path d="M5.03 10.43l-4.18748e-07 4.1874e-07c3.90523-3.90515 10.2368-3.90515 14.142-8.37479e-07"></path><path d="M22 6.6l3.85235e-07 3.85275e-07c-5.46706-5.46762-14.3314-5.46807-19.799-.00101092 -.000336735.0003367-.000673452.000673418-.00101015.00101015"></path><path d="M7.857 14.257l2.11634e-07-2.1167e-07c2.34295-2.34334 6.14194-2.34367 8.48528-.000718233 .000239572.000239532.000479124.000479084.000718656.000718656"></path><path d="M19.172 10.43l-1.99431e-07-1.99427e-07c-3.90523-3.90515-10.2368-3.90515-14.142 3.98854e-07"></path><path d="M16.344 14.257l1.76073e-07 1.76103e-07c-2.34295-2.34334-6.14194-2.34367-8.48528-.000719008 -.000239572.000239532-.000479124.000479084-.000718656.000718656"></path><circle cx="12.1" cy="19.5" r="2"></circle></g></svg>