<?xml version="1.0" encoding="UTF-8"?><svg version="1.1" viewBox="0 0 24 24" xmlns="http://www.w3.org/2000/svg" xmlns:xlink="http://www.w3.org/1999/xlink"><g stroke-linecap="round" stroke-width="1" stroke="#000" fill="none" stroke-linejoin="round"><path d="M21.207 4.5l-1.96434e-08-1.96375e-08c.187549.187493.292943.441805.293.707v17.293 0c0 .552285-.447715 1-1 1h-17 -4.37114e-08c-.552285-2.41411e-08-1-.447715-1-1 0 0 0-3.55271e-15 0-3.55271e-15v-21l1.24345e-14 1.50996e-07c-8.33927e-08-.552285.447715-1 1-1h13.293l1.02845e-08 2.1968e-12c.265195 5.66401e-05.519507.105451.707.293Z"></path><path d="M9.755 8v0c0 .138071-.111929.25-.25.25 -.138071 0-.25-.111929-.25-.25 0-.138071.111929-.25.25-.25h-1.09278e-08c.138071-6.03528e-09.25.111929.25.25"></path><path d="M9.755 10.5v0c0 .138071-.111929.25-.25.25 -.138071 0-.25-.111929-.25-.25 0-.138071.111929-.25.25-.25h-1.09278e-08c.138071-6.03528e-09.25.111929.25.25"></path><path d="M9.755 13v0c0 .138071-.111929.25-.25.25 -.138071 0-.25-.111929-.25-.25 0-.138071.111929-.25.25-.25h-1.09278e-08c.138071-6.03528e-09.25.111929.25.25"></path><path d="M9.745 15.5v0c0 .138071-.111929.25-.25.25 -.138071 0-.25-.111929-.25-.25 0-.138071.111929-.25.25-.25l-4.88309e-09 1.96501e-11c.137518-.000553401.249447.110478.25.247996 2.68821e-06.000668008 2.68822e-06.00133602 3.93001e-11.00200403"></path><path d="M9.745 18.021v0c0 .138071-.111929.25-.25.25 -.138071 0-.25-.111929-.25-.25 0-.138071.111929-.25.25-.25l-4.88309e-09 1.96501e-11c.137518-.000553401.249447.110478.25.247996 2.68821e-06.000668008 2.68822e-06.00133602 3.93001e-11.00200403"></path><path d="M9.745 20.562v0c0 .138071-.111929.25-.25.25 -.138071 0-.25-.111929-.25-.25 0-.138071.111929-.25.25-.25l-4.88309e-09 1.96501e-11c.137518-.000553401.249447.110478.25.247996 2.68821e-06.000668008 2.68822e-06.00133602 3.93001e-11.00200403"></path><path d="M10.989 4.111l1.6039e-08 1.29428e-07c.0521498.420826-.0777225.843911-.357 1.163l4.32714e-08-4.93654e-08c-.277818.316943-.678533.499086-1.1.5h-.062l-3.65432e-09-7.92255e-12c-.421467-.000913686-.822182-.183057-1.1-.5l3.88653e-08 4.44056e-08c-.279278-.319089-.40915-.742174-.357-1.163l.357-3.611h2.13Z"></path></g></svg>