<svg viewBox="0 0 24 24" xmlns="http://www.w3.org/2000/svg"><g stroke-linecap="round" stroke="#000" fill="none" stroke-linejoin="round"><path d="M21.207 4.5l-.01-.01c.18.18.29.44.29.7v17.29 0c0 .55-.45 1-1 1h-17 -.01c-.56-.01-1-.45-1-1.01 0 0 0-.001 0-.001v-21l0 0C2.46.9 2.91.45 3.46.45h13.29l0 0c.26 0 .51.1.7.29Z"/><path d="M9.755 8v0c0 .13-.12.25-.25.25 -.14 0-.25-.12-.25-.25 0-.14.11-.25.25-.25h-.01c.13-.01.25.11.25.24"/><path d="M9.755 10.5v0c0 .13-.12.25-.25.25 -.14 0-.25-.12-.25-.25 0-.14.11-.25.25-.25h-.01c.13-.01.25.11.25.24"/><path d="M9.755 13v0c0 .13-.12.25-.25.25 -.14 0-.25-.12-.25-.25 0-.14.11-.25.25-.25h-.01c.13-.01.25.11.25.24"/><path d="M9.745 15.5v0c0 .13-.12.25-.25.25 -.14 0-.25-.12-.25-.25 0-.14.11-.25.25-.25l-.01 0c.13-.01.24.11.25.24 0 0 0 0 0 0"/><path d="M9.745 18.021v0c0 .13-.12.25-.25.25 -.14 0-.25-.12-.25-.25 0-.14.11-.25.25-.25l-.01 0c.13-.01.24.11.25.24 0 0 0 0 0 0"/><path d="M9.745 20.56v0c0 .13-.12.25-.25.25 -.14 0-.25-.12-.25-.25 0-.14.11-.25.25-.25l-.01 0c.13-.01.24.11.25.24 0 0 0 0 0 0"/><path d="M10.989 4.111l0 0c.05.42-.08.84-.36 1.16l0-.01c-.28.31-.68.49-1.1.5h-.07l-.01-.001c-.43-.01-.83-.19-1.1-.5l0 0c-.28-.32-.41-.75-.36-1.17L8.33.47h2.13Z"/></g></svg>