<?xml version="1.0" encoding="UTF-8"?><svg version="1.1" viewBox="0 0 24 24" xmlns="http://www.w3.org/2000/svg" xmlns:xlink="http://www.w3.org/1999/xlink"><g stroke-linecap="round" stroke-width="1" stroke="#000" fill="none" stroke-linejoin="round"><path d="M20.5 23.5h-4.37114e-08c.552285 2.41411e-08 1-.447715 1-1v-16.025 0c0-3.2999-2.6751-5.975-5.975-5.975h-12.025l-4.37114e-08 3.55271e-15c-.552285 2.41411e-08-1 .447715-1 1 0 0 0 0 0 0v21l1.15463e-14 1.50996e-07c8.33927e-08.552285.447715 1 1 1Z"></path><path d="M16.5.58v3.92l1.06581e-14 1.50996e-07c8.33927e-08.552285.447715 1 1 1h3.92"></path><path d="M9.5 18.5h-2.5l8.54898e-11 4.61853e-14c-.276142-.000142649-.499884-.224116-.499742-.500258 5.08732e-05-.0984812.029183-.194754.0837416-.276742l2.832-4.446 -2.00277e-08 3.00964e-08c.152983-.229893.0906349-.540275-.139258-.693258 -.0819873-.0545586-.178261-.0836908-.276742-.0837417h-2.5"></path><line x1="12.5" x2="12.5" y1="12.5" y2="18.5"></line><line x1="11.5" x2="13.5" y1="18.5" y2="18.5"></line><line x1="11.5" x2="13.5" y1="12.5" y2="12.5"></line><path d="M18.5 14v0c0 .828427-.671573 1.5-1.5 1.5h-1.5v-3h1.5l-6.55671e-08 1.77636e-15c.828427-3.62117e-08 1.5.671573 1.5 1.5Z"></path><line x1="15.5" x2="15.5" y1="18.5" y2="15.5"></line></g></svg>