<?xml version="1.0" encoding="UTF-8"?><svg version="1.1" viewBox="0 0 24 24" xmlns="http://www.w3.org/2000/svg" xmlns:xlink="http://www.w3.org/1999/xlink"><g stroke-linecap="round" stroke-width="1" stroke="#000" fill="none" stroke-linejoin="round"><path d="M9.489 23.5h-7.989 -4.37114e-08c-.552285-2.41411e-08-1-.447715-1-1 0 0 0 0 0 0v-21l1.42109e-14 1.50996e-07c-8.33927e-08-.552285.447715-1 1-1h13.293l1.02845e-08 2.19647e-12c.265195 5.66401e-05.519507.105451.707.293l3.707 3.707 -1.96434e-08-1.96375e-08c.187549.187493.292943.441805.293.707l-.011 3.293"></path><path d="M7.255 8l2.66454e-15 3.7749e-08c-2.08482e-08-.138071.111929-.25.25-.25 .138071-2.08482e-08.25.111929.25.25 2.08482e-08.138071-.111929.25-.25.25l4.73118e-09-1.90408e-11c-.137518.000553422-.249447-.110478-.25-.247996 -2.68836e-06-.000668021-2.68842e-06-.00133605-1.89383e-10-.00200407"></path><path d="M7.255 10.5l2.66454e-15 3.7749e-08c-2.08482e-08-.138071.111929-.25.25-.25 .138071-2.08482e-08.25.111929.25.25 2.08482e-08.138071-.111929.25-.25.25l1.27979e-08-5.15019e-11c-.137518.000553405-.249447-.110478-.25-.247996 -2.68823e-06-.000668008-2.68826e-06-.00133602-1.03002e-10-.00200403"></path><path d="M7.255 13l2.66454e-15 3.7749e-08c-2.08482e-08-.138071.111929-.25.25-.25 .138071-2.08482e-08.25.111929.25.25 2.08482e-08.138071-.111929.25-.25.25l1.27979e-08-5.15019e-11c-.137518.000553405-.249447-.110478-.25-.247996 -2.68823e-06-.000668008-2.68826e-06-.00133602-1.03002e-10-.00200403"></path><path d="M7.245 15.5l2.66454e-15 3.7749e-08c-2.08482e-08-.138071.111929-.25.25-.25 .138071-2.08482e-08.25.111929.25.25 2.08482e-08.138071-.111929.25-.25.25h-1.09278e-08c-.138071-6.03528e-09-.25-.111929-.25-.25 0 0 0 0 0 0"></path><path d="M7.245 18.021l2.66454e-15 3.7749e-08c-2.08482e-08-.138071.111929-.25.25-.25 .138071-2.08482e-08.25.111929.25.25 2.08482e-08.138071-.111929.25-.25.25h-1.09278e-08c-.138071-6.03528e-09-.25-.111929-.25-.25 0 0 0 0 0 0"></path><path d="M7.245 20.562l2.66454e-15 3.7749e-08c-2.08482e-08-.138071.111929-.25.25-.25 .138071-2.08482e-08.25.111929.25.25 2.08482e-08.138071-.111929.25-.25.25h-1.09278e-08c-.138071-6.03528e-09-.25-.111929-.25-.25 0 0 0 0 0 0"></path><path d="M8.989 4.111l1.6039e-08 1.29428e-07c.0521498.420826-.0777225.843911-.357 1.163l4.32714e-08-4.93654e-08c-.277818.316943-.678533.499086-1.1.5h-.062l-3.65432e-09-7.92255e-12c-.421467-.000913686-.822182-.183057-1.1-.5l3.88653e-08 4.44056e-08c-.279278-.319089-.40915-.742174-.357-1.163l.357-3.611h2.13Z"></path><circle cx="17.5" cy="17.5" r="6"></circle><line x1="17.5" x2="17.5" y1="14.5" y2="20.5"></line><line x1="17.5" x2="15.25" y1="20.5" y2="18.25"></line><line x1="17.5" x2="19.75" y1="20.5" y2="18.25"></line></g></svg>