<?xml version="1.0" encoding="utf-8"?>
<!-- Generator: Adobe Illustrator 24.1.1, SVG Export Plug-In . SVG Version: 6.00 Build 0)  -->
<svg version="1.1" id="Layer_1" xmlns="http://www.w3.org/2000/svg" xmlns:xlink="http://www.w3.org/1999/xlink" x="0px" y="0px"
	 viewBox="0 0 15 15" style="enable-background:new 0 0 15 15;" xml:space="preserve">
<style type="text/css">
	.st0{fill:none;stroke:#000000;stroke-width:1.05;stroke-linecap:round;stroke-linejoin:round;}
</style>
<g>
	<path class="st0" d="M12.7,10.8v-4l0,0c0-2.2-1.3-4.1-3.4-4.8l0,0C9.1,1,8.2,0.4,7.2,0.5C6.4,0.7,5.8,1.3,5.7,2l0,0
		c-2,0.8-3.4,2.7-3.4,4.8v4l0,0c0,1-0.8,1.8-1.8,1.8h14l0,0C13.5,12.7,12.7,11.9,12.7,10.8z"/>
	<path class="st0" d="M9.3,12.7L9.3,12.7c0,1-0.8,1.8-1.8,1.8s-1.8-0.8-1.8-1.8"/>
</g>
</svg>
