<?xml version="1.0" encoding="utf-8"?>
<!-- Generator: Adobe Illustrator 24.1.1, SVG Export Plug-In . SVG Version: 6.00 Build 0)  -->
<svg version="1.1" id="Layer_1" xmlns="http://www.w3.org/2000/svg" xmlns:xlink="http://www.w3.org/1999/xlink" x="0px" y="0px"
	 viewBox="0 0 15 15" style="enable-background:new 0 0 15 15;" xml:space="preserve">
<style type="text/css">
	.st0{fill:none;stroke:#000000;stroke-width:1.05;stroke-linecap:round;stroke-linejoin:round;}
</style>
<g>
	<path class="st0" d="M14.4,13.9L14.4,13.9c0.1,0.2,0.1,0.4-0.1,0.5c-0.1,0.1-0.2,0.1-0.3,0.1H1l0,0c-0.2,0-0.4-0.1-0.4-0.3
		c0-0.1,0-0.2,0.1-0.3L7.3,0.7c0.2-0.3,0.4-0.3,0.6,0L14.4,13.9z"/>
	<line class="st0" x1="7.5" y1="10.3" x2="7.5" y2="5.7"/>
	<path class="st0" d="M7.5,11.6L7.5,11.6c-0.1,0-0.2,0.1-0.2,0.2l0,0l0,0c0,0.1,0.1,0.2,0.2,0.2l0,0l0,0c0.1,0,0.2-0.1,0.2-0.2l0,0
		l0,0C7.7,11.6,7.6,11.6,7.5,11.6L7.5,11.6"/>
</g>
</svg>
