<?xml version="1.0" encoding="utf-8"?>
<!-- Generator: Adobe Illustrator 24.1.1, SVG Export Plug-In . SVG Version: 6.00 Build 0)  -->
<svg version="1.1" id="Layer_1" xmlns="http://www.w3.org/2000/svg" xmlns:xlink="http://www.w3.org/1999/xlink" x="0px" y="0px"
	 viewBox="0 0 15 15" style="enable-background:new 0 0 15 15;" xml:space="preserve">
<style type="text/css">
	.st0{fill:none;stroke:#000000;stroke-width:0.85;stroke-linecap:round;stroke-linejoin:round;}
</style>
<path class="st0" d="M9.1,0.8v8.3l3.8-3.3l0,0c0.1-0.1,0.3-0.1,0.4,0c0,0.1,0.1,0.1,0.1,0.2v3.2l0,0c0,0.1,0,0.2-0.1,0.2l-5.5,5l0,0
	c-0.1,0.1-0.3,0.1-0.4,0l-5.5-5l0,0c-0.2,0-0.2-0.1-0.2-0.2V6l0,0c0-0.2,0.1-0.3,0.3-0.3c0.1,0,0.1,0,0.2,0.1l3.8,3.3V0.8l0,0
	c0-0.2,0.1-0.3,0.3-0.3h2.5l0,0C8.9,0.5,9.1,0.6,9.1,0.8L9.1,0.8z"/>
</svg>
