<?xml version="1.0" encoding="utf-8"?>
<!-- Generator: Adobe Illustrator 24.1.1, SVG Export Plug-In . SVG Version: 6.00 Build 0)  -->
<svg version="1.1" id="Layer_1" xmlns="http://www.w3.org/2000/svg" xmlns:xlink="http://www.w3.org/1999/xlink" x="0px" y="0px"
	 viewBox="0 0 15 15" style="enable-background:new 0 0 15 15;" xml:space="preserve">
<style type="text/css">
	.st0{fill:none;stroke:#000000;stroke-width:1.25;stroke-linecap:round;stroke-linejoin:round;}
</style>
<path class="st0" d="M14.2,9.1H5.9l3.3,3.8l0,0c0.1,0.1,0.1,0.3,0,0.4c-0.1,0-0.1,0.1-0.2,0.1H5.8l0,0c-0.1,0-0.2,0-0.2-0.1l-5-5.5
	l0,0c-0.1-0.1-0.1-0.3,0-0.4l5-5.5l0,0c0-0.2,0.1-0.2,0.2-0.2H9l0,0c0.2,0,0.3,0.1,0.3,0.3c0,0.1,0,0.1-0.1,0.2L5.9,5.9h8.3l0,0
	c0.2,0,0.3,0.1,0.3,0.3v2.5l0,0C14.5,8.9,14.4,9.1,14.2,9.1L14.2,9.1z"/>
</svg>
