<?xml version="1.0" encoding="utf-8"?>
<!-- Generator: Adobe Illustrator 24.1.1, SVG Export Plug-In . SVG Version: 6.00 Build 0)  -->
<svg version="1.1" id="Layer_1" xmlns="http://www.w3.org/2000/svg" xmlns:xlink="http://www.w3.org/1999/xlink" x="0px" y="0px"
	 viewBox="0 0 15 15" style="enable-background:new 0 0 15 15;" xml:space="preserve">
<style type="text/css">
	.st0{fill:none;stroke:#000000;stroke-width:0.85;stroke-linecap:round;stroke-linejoin:round;}
</style>
<path class="st0" d="M14.5,3.8l-1.3-0.3l0.6-1.3l-1.5,0.4l0,0c-1.1-1.1-2.9-1-4,0.2C7.8,3.3,7.5,3.9,7.5,4.7v0.6
	c-2.3,0.5-4.2-0.7-6-2.8c-0.3,1.7,0,2.9,0.9,3.8L0.6,5.9c0.2,1.3,0.9,2.3,2.5,2.5L1.5,9.1c0.6,1.3,1.6,1.5,3.2,1.6l0,0
	C3.4,11.6,2,12,0.5,12c8.1,3.6,12.7-1.7,12.7-6.3V4.9L14.5,3.8z"/>
</svg>
