<?xml version="1.0" standalone="no"?>
<!DOCTYPE svg PUBLIC "-//W3C//DTD SVG 1.1//EN" "http://www.w3.org/Graphics/SVG/1.1/DTD/svg11.dtd" >
<svg xmlns="http://www.w3.org/2000/svg" xmlns:xlink="http://www.w3.org/1999/xlink" version="1.1">
<metadata></metadata>
<defs>
<font id="antwerpen_smallcapsregular" horiz-adv-x="1248" >
<font-face units-per-em="2048" ascent="1638" descent="-410" />
<missing-glyph horiz-adv-x="500" />
<glyph horiz-adv-x="0" />
<glyph horiz-adv-x="682" />
<glyph unicode=" "  horiz-adv-x="500" />
<glyph unicode="&#x09;" horiz-adv-x="500" />
<glyph unicode="&#xa0;" horiz-adv-x="500" />
<glyph unicode="!" horiz-adv-x="560" d="M150 58v144q0 24 16.5 41t40.5 17h146q24 0 40.5 -17t16.5 -41v-144q0 -24 -16.5 -41t-40.5 -17h-146q-24 0 -40.5 17t-16.5 41zM150 557v861q0 24 17 40.5t41 16.5h144q24 0 41 -16.5t17 -40.5v-861q0 -24 -17 -40.5t-41 -16.5h-144q-24 0 -41 16.5t-17 40.5z" />
<glyph unicode="&#x22;" horiz-adv-x="1020" d="M150 1042v511q0 24 17 40.5t41 16.5h144q24 0 41 -16.5t17 -40.5v-511q0 -24 -17 -40.5t-41 -16.5h-144q-24 0 -41 16.5t-17 40.5zM610 1042v511q0 24 17 40.5t41 16.5h144q24 0 41 -16.5t17 -40.5v-511q0 -24 -17 -40.5t-41 -16.5h-144q-24 0 -41 16.5t-17 40.5z" />
<glyph unicode="#" horiz-adv-x="1586" d="M100 668q0 24 16.5 41t40.5 17h223l38 214h-262q-24 0 -40 17t-15 41l-1 144q0 24 16.5 41t40.5 17h306l63 355q4 24 23.5 37t43.5 8l142 -25q23 -4 37 -22.5t10 -43.5l-54 -309h227l63 355q4 24 23.5 37t43.5 8l142 -25q23 -4 37 -22.5t10 -43.5l-54 -309h210 q24 0 40 -17t16 -41v-144q0 -24 -16.5 -41t-40.5 -17h-255l-38 -214h294q24 0 40 -17t16 -41v-144q0 -24 -16.5 -41t-40.5 -17h-339l-74 -421q-4 -24 -23.5 -37t-43.5 -8l-142 25q-24 4 -37.5 23t-9.5 43l66 375h-228l-74 -421q-4 -24 -23.5 -37t-43.5 -8l-142 25 q-24 4 -37.5 23t-9.5 43l66 375h-178q-24 0 -40 17t-15 41zM644 726h228l38 214h-228z" />
<glyph unicode="$" horiz-adv-x="1132" d="M90 892q0 159 97.5 253.5t296.5 103.5v133q0 30 20 49t50 19h60q30 0 50 -19t20 -49v-132h270q24 0 40.5 -17t16.5 -41v-134q0 -24 -16.5 -41t-40.5 -17h-430q-183 0 -183 -124q0 -53 40.5 -89.5t142.5 -36.5h81q220 0 328.5 -94.5t108.5 -262.5t-105 -277.5t-311 -115.5 v-132q0 -30 -20 -49t-50 -19h-60q-30 0 -50 19t-20 49v132h-261q-24 0 -40.5 17t-16.5 41v134q0 24 16.5 41t40.5 17h443q183 0 183 125t-183 125h-83q-110 0 -194.5 30.5t-136.5 84.5t-78 124t-26 153z" />
<glyph unicode="%" horiz-adv-x="1829" d="M100 1142q0 94 13 152t51.5 101.5t108.5 61.5t183 18t183 -18t109 -62t52.5 -103t13.5 -155q0 -95 -14.5 -157t-52.5 -108.5t-108 -67t-178 -20.5q-112 0 -184 22t-110.5 70t-52.5 110t-14 156zM327 1141q0 -73 25 -95.5t107 -22.5q81 0 104.5 21t23.5 91q0 69 -22 85 t-109 16q-86 0 -107.5 -15t-21.5 -80zM375 147q-5 22 9 43l831 1233q13 20 36.5 24t43.5 -10l119 -80q20 -14 24.5 -36.5t-8.5 -42.5l-831 -1233q-13 -20 -36.5 -24t-42.5 10l-120 80q-20 14 -25 36zM1015 348q0 94 13 152t51.5 101.5t108.5 61.5t183 18t183 -18t109 -62 t52.5 -103t13.5 -155q0 -95 -14.5 -157t-52.5 -108.5t-108 -67t-178 -20.5q-112 0 -184 22t-110.5 70t-52.5 110t-14 156zM1242 347q0 -73 25 -95.5t107 -22.5q81 0 104.5 21t23.5 91q0 69 -22 85t-109 16q-86 0 -107.5 -15t-21.5 -80z" />
<glyph unicode="&#x26;" horiz-adv-x="1317" d="M100 454v22q0 220 106 339q-104 118 -106 335q0 73 12.5 137t43.5 124.5t79 103.5t125 69t176 26h203q24 0 40.5 -17t16.5 -41v-134q0 -24 -16.5 -41t-40.5 -17h-193q-46 0 -78 -12.5t-49 -30.5t-26 -49t-11 -55.5t-2 -62.5t2 -62.5t11 -55.5t26 -49t49 -30.5t78 -12.5 h250v213q0 24 17 40.5t41 16.5h145q24 0 41 -16.5t17 -40.5v-212h153q24 0 40.5 -17t16.5 -41v-134q0 -24 -16.5 -41t-40.5 -17h-153v-253q0 -133 -22.5 -222.5t-67.5 -138t-101 -68t-134 -19.5h-196q-100 0 -177 26.5t-125 69.5t-79 104.5t-43 125.5t-12 138zM100 1146v8 v-4v-4zM380 454q0 -32 1.5 -53t6 -49t15.5 -45t28.5 -34t46.5 -25t68 -8h136q67 0 91 57.5t24 197.5v195h-251q-39 0 -68 -8t-46.5 -25t-28.5 -34t-15.5 -45t-6 -49t-1.5 -53v-22z" />
<glyph unicode="'" horiz-adv-x="560" d="M150 1042v511q0 24 17 40.5t41 16.5h144q24 0 41 -16.5t17 -40.5v-511q0 -24 -17 -40.5t-41 -16.5h-144q-24 0 -41 16.5t-17 40.5z" />
<glyph unicode="(" horiz-adv-x="825" d="M100 750q1 110 7.5 193t23.5 162t46 134.5t73.5 102t106.5 74.5t146 43.5t191 15.5h24q24 0 40.5 -17t16.5 -41v-134q0 -24 -16.5 -41t-40.5 -17h-21q-67 0 -113 -8t-84.5 -29.5t-62 -57t-39.5 -94t-22 -135.5t-6 -186q0 -92 4 -164t14.5 -127t23.5 -94t35 -66.5 t44.5 -44t57 -25t67.5 -11.5t81 -3h21q24 0 40.5 -17t16.5 -41v-134q0 -24 -16.5 -41t-40.5 -17h-24q-95 0 -169 9.5t-134 31.5t-103.5 53.5t-76.5 82t-53.5 109.5t-33.5 143t-18 176.5t-6 214.5z" />
<glyph unicode=")" horiz-adv-x="825" d="M50 -12v134q0 24 16.5 41t40.5 17h21q48 0 81 3t67.5 11.5t57 25t44.5 44t35 66.5t23.5 94t14.5 127t4 164q0 109 -6 186t-22 135.5t-39.5 94t-62 57t-84.5 29.5t-113 8h-21q-24 0 -40.5 17t-16.5 41v134q0 24 16.5 41t40.5 17h24q107 0 191 -15.5t146 -43.5t106.5 -74.5 t73.5 -102t46 -134.5t23.5 -162t7.5 -193q-1 -122 -6 -214.5t-18 -176.5t-33.5 -143t-53.5 -109.5t-76.5 -82t-103.5 -53.5t-134 -31.5t-169 -9.5h-24q-24 0 -40.5 17t-16.5 41z" />
<glyph unicode="*" horiz-adv-x="1240" d="M101.5 883q5.5 23 26.5 35l242 140l-242 139q-20 12 -26 35t6 44l67 116q12 20 35 27t43 -5l242 -140v279q0 24 17 40.5t41 16.5h134q24 0 41 -16.5t17 -40.5v-279l242 140q20 12 43 5t35 -27l67 -116q12 -21 6 -44t-26 -35l-242 -139l242 -140q21 -12 26.5 -35t-6.5 -44 l-67 -116q-12 -21 -34.5 -27.5t-43.5 5.5l-242 140v-279q0 -24 -17 -40.5t-41 -16.5h-134q-24 0 -41 16.5t-17 40.5v279l-242 -140q-21 -12 -43.5 -5.5t-34.5 27.5l-67 116q-12 21 -6.5 44z" />
<glyph unicode="+" horiz-adv-x="1100" d="M100 533v134q0 24 16.5 41t40.5 17h268v268q0 24 17 40.5t41 16.5h134q24 0 41 -16.5t17 -40.5v-268h268q24 0 40.5 -17t16.5 -41v-134q0 -24 -16.5 -41t-40.5 -17h-268v-268q0 -24 -17 -40.5t-41 -16.5h-134q-24 0 -41 16.5t-17 40.5v268h-268q-24 0 -40.5 17t-16.5 41z " />
<glyph unicode="," horiz-adv-x="560" d="M150 58v134q0 24 16.5 41t40.5 17h146q24 0 40.5 -17t16.5 -41v-394q0 -24 -16.5 -41t-40.5 -17h-32q-24 0 -40.5 17t-16.5 41v144q0 24 -16.5 41t-40.5 17t-40.5 17t-16.5 41z" />
<glyph unicode="-" horiz-adv-x="750" d="M100 733v134q0 24 16.5 41t40.5 17h436q24 0 40.5 -17t16.5 -41v-134q0 -24 -16.5 -41t-40.5 -17h-436q-24 0 -40.5 17t-16.5 41z" />
<glyph unicode="." horiz-adv-x="560" d="M150 58v144q0 24 16.5 41t40.5 17h146q24 0 40.5 -17t16.5 -41v-144q0 -24 -16.5 -41t-40.5 -17h-146q-24 0 -40.5 17t-16.5 41z" />
<glyph unicode="/" horiz-adv-x="751" d="M54 146l400 1104q8 23 29.5 32t44.5 1l135 -49q23 -8 33 -29t2 -44l-400 -1104q-8 -23 -29.5 -32t-44.5 -1l-135 49q-23 8 -33 29t-2 44z" />
<glyph unicode="0" horiz-adv-x="1162" d="M100 530v205q0 98 7.5 167.5t27 130t53 99t86.5 66.5t126 40t173 12h12q100 0 173.5 -12t126.5 -39.5t87 -66t54.5 -98.5t28 -130t7.5 -167v-212q0 -119 -11.5 -201t-42 -149.5t-84 -105.5t-135.5 -58.5t-200 -20.5h-16q-116 0 -198.5 21t-136 61t-84 108t-42.5 150 t-12 200zM350 539q0 -99 8 -154.5t34.5 -89.5t66.5 -44.5t113 -10.5h18q74 0 113 8.5t66 40.5t35 86t8 153v209q0 61 -3 100.5t-13 71t-24.5 48t-42 27t-60 13.5t-84.5 3h-12q-51 0 -83.5 -3t-59.5 -14t-41 -27.5t-23.5 -48t-12.5 -70.5t-3 -101v-197z" />
<glyph unicode="1" horiz-adv-x="700" d="M80 58v134q0 24 16.5 41t40.5 17h78v750h-78q-24 0 -40.5 17t-16.5 41v134q0 24 16.5 41t40.5 17h291q24 0 40.5 -17t16.5 -41v-942h78q24 0 40.5 -17t16.5 -41v-134q0 -24 -16.5 -41t-40.5 -17h-426q-24 0 -40.5 17t-16.5 41z" />
<glyph unicode="2" horiz-adv-x="1269" d="M120 796q0 74 12 138t43 125.5t79 104.5t125 69.5t177 26.5h128q100 0 177 -26.5t125 -69.5t79 -104.5t43 -125.5t12 -138v-133q0 -28 -16 -40l-496 -373h484q24 0 40.5 -17t16.5 -41v-134q0 -24 -16.5 -41t-40.5 -17h-877q-26 0 -41.5 16.5t-15.5 41.5v134q0 30 21 46 l1 1l670 520v37q0 32 -1.5 53t-6 49t-15.5 45t-28.5 34t-46.5 25t-68 8h-118q-46 0 -79.5 -13t-51.5 -31.5t-28.5 -49t-13 -57t-2.5 -63.5q0 -24 -16.5 -41t-40.5 -17h-156q-24 0 -40.5 17t-16.5 41h-1z" />
<glyph unicode="3" horiz-adv-x="1156" d="M80 58v134q0 24 16.5 41t40.5 17h494q98 0 131.5 30.5t33.5 101.5t-33.5 103t-129.5 32h-337q-24 0 -40.5 17t-16.5 41v134q0 24 16.5 41t40.5 17l414 126v107h-573q-26 0 -41.5 16.5t-15.5 41.5v134q0 25 15.5 41.5t41.5 16.5h785q24 0 41 -16.5t17 -40.5v-402 q0 -34 -16 -40l-87 -30q58 -28 100 -72t62 -92t28.5 -90t8.5 -83q0 -49 -11 -97.5t-41.5 -101.5t-77 -93t-125.5 -66t-180 -26h-504q-24 0 -40.5 17t-16.5 41z" />
<glyph unicode="4" horiz-adv-x="1159" d="M50 298v272q0 25 16 40l687 621q17 19 44 19h154q24 0 41 -16.5t17 -40.5v-703h43q24 0 40.5 -17t16.5 -41v-134q0 -24 -16.5 -41t-40.5 -17h-43v-183q0 -24 -17 -40.5t-41 -16.5h-154q-24 0 -41 16.5t-17 40.5v183h-632q-26 0 -41.5 16.5t-15.5 41.5zM320 490h419v378 l-419 -372v-6zM738 1149l1 1v4z" />
<glyph unicode="5" horiz-adv-x="1185" d="M125 58v134q0 24 16.5 41t40.5 17h457q61 0 93.5 4.5t49 22t20 38t3.5 65.5q0 46 -3.5 67.5t-20 41t-49.5 25.5t-93 6h-456q-24 0 -41 16.5t-17 40.5v616q0 25 17 40q15 17 40 17h800q26 0 41.5 -16.5t15.5 -41.5v-134q0 -25 -15.5 -41.5t-41.5 -16.5h-587v-230h254 q101 0 176.5 -19t124.5 -52t79.5 -83t43 -107t12.5 -130q0 -91 -20.5 -157.5t-69 -118t-135 -77.5t-211.5 -26h-467q-24 0 -40.5 17t-16.5 41z" />
<glyph unicode="6" horiz-adv-x="1222" d="M125 786q0 74 12 138t43 125.5t79 104.5t125 69.5t177 26.5h399q24 0 40.5 -17t16.5 -41v-134q0 -24 -16.5 -41t-40.5 -17h-399q-45 0 -76.5 -12t-48.5 -29t-26.5 -46t-12 -53.5t-2.5 -60.5q75 24 166 24h126q101 0 180 -30t125.5 -74.5t77 -103t41.5 -109.5t11 -99 q0 -32 -4.5 -65.5t-17 -75.5t-32.5 -79.5t-54 -74t-78 -63t-108 -43t-141 -16.5h-126q-77 0 -141 16.5t-108 43t-78 63t-54 74t-32.5 79.5t-17 75.5t-4.5 65.5zM406 407q0 -36 7 -63.5t24 -52.5t51 -38t83 -13h106q49 0 83 13t51 38t24 52.5t7 63.5t-7 63.5t-24 52t-51 37.5 t-83 13h-106q-49 0 -83 -13t-51 -37.5t-24 -52t-7 -63.5z" />
<glyph unicode="7" horiz-adv-x="1191" d="M100 1058v134q0 25 15.5 41.5t41.5 16.5h877q25 0 40 -17q17 -15 17 -40v-547q0 -33 -16 -40l-613 -260v-289q0 -24 -17 -40.5t-41 -16.5h-154q-24 0 -41 16.5t-17 40.5v424q0 34 16 40l613 260v219h-664q-26 0 -41.5 16.5t-15.5 41.5z" />
<glyph unicode="8" horiz-adv-x="1266" d="M135 379q0 157 93 261q-93 100 -93 250q0 36 7 72.5t23 80.5t48.5 81t78.5 68.5t117.5 49.5t160.5 18h126q89 0 160.5 -18t117.5 -49.5t78.5 -68.5t48.5 -81t23 -80.5t7 -72.5q0 -150 -93 -250q93 -104 93 -261q0 -49 -11 -98t-41.5 -103t-77 -94.5t-125.5 -67 t-180 -26.5h-126q-101 0 -180 26.5t-125.5 67t-77 94.5t-41.5 103t-11 98zM415 377q0 -72 34 -104.5t131 -32.5h106q97 0 131 32.5t34 104.5q0 71 -34 105.5t-129 34.5h-110q-95 0 -129 -34.5t-34 -105.5zM415 888q0 -68 33 -94.5t132 -26.5h106q99 0 132 26.5t33 94.5 q0 69 -33 95.5t-132 26.5h-106q-99 0 -132 -26.5t-33 -95.5z" />
<glyph unicode="9" horiz-adv-x="1222" d="M100 843q0 32 4.5 65.5t17 75.5t32.5 79.5t54 74t78 63t108 43t141 16.5h126q77 0 141 -16.5t108 -43t78 -63t54 -74t32.5 -79.5t17 -75.5t4.5 -65.5l1 -379q0 -74 -12 -138t-43 -125.5t-79 -104.5t-125 -69.5t-177 -26.5h-399q-24 0 -40.5 17t-16.5 41v134q0 24 16.5 41 t40.5 17h399q45 0 76.5 12t48.5 29t26.5 46t12 53.5t2.5 60.5q-75 -24 -166 -24h-126q-101 0 -180 30t-125.5 74.5t-77 103t-41.5 109.5t-11 99zM380 843q0 -36 7 -63.5t24 -52t51 -37.5t83 -13h106q49 0 83 13t51 37.5t24 52t7 63.5t-7 63.5t-24 52.5t-51 38t-83 13h-106 q-49 0 -83 -13t-51 -38t-24 -52.5t-7 -63.5z" />
<glyph unicode=":" horiz-adv-x="560" d="M150 58v144q0 24 16.5 41t40.5 17h146q24 0 40.5 -17t16.5 -41v-144q0 -24 -16.5 -41t-40.5 -17h-146q-24 0 -40.5 17t-16.5 41zM150 998v144q0 24 16.5 41t40.5 17h146q24 0 40.5 -17t16.5 -41v-144q0 -24 -16.5 -41t-40.5 -17h-146q-24 0 -40.5 17t-16.5 41z" />
<glyph unicode=";" horiz-adv-x="560" d="M150 58v134q0 24 16.5 41t40.5 17h146q24 0 40.5 -17t16.5 -41v-394q0 -24 -16.5 -41t-40.5 -17h-32q-24 0 -40.5 17t-16.5 41v144q0 24 -16.5 41t-40.5 17t-40.5 17t-16.5 41zM150 1008v134q0 24 16.5 41t40.5 17h146q24 0 40.5 -17t16.5 -41v-134q0 -24 -16.5 -41 t-40.5 -17h-146q-24 0 -40.5 17t-16.5 41z" />
<glyph unicode="&#x3c;" horiz-adv-x="966" d="M99 601q0 23 18 40l556 556q17 17 40.5 17t40.5 -17l95 -95q17 -17 17 -40.5t-17 -40.5l-421 -420l421 -421q17 -17 17 -40.5t-17 -40.5l-95 -95q-17 -17 -40.5 -17t-40.5 17l-556 556q-18 18 -18 41z" />
<glyph unicode="=" horiz-adv-x="1100" d="M100 283v134q0 24 16.5 41t40.5 17h786q24 0 40.5 -17t16.5 -41v-134q0 -24 -16.5 -41t-40.5 -17h-786q-24 0 -40.5 17t-16.5 41zM100 783v134q0 24 16.5 41t40.5 17h786q24 0 40.5 -17t16.5 -41v-134q0 -24 -16.5 -41t-40.5 -17h-786q-24 0 -40.5 17t-16.5 41z" />
<glyph unicode="&#x3e;" horiz-adv-x="966" d="M100 139.5q0 23.5 17 40.5l421 421l-421 420q-17 17 -17 40.5t17 40.5l95 95q17 17 40.5 17t40.5 -17l556 -556q19 -17 17 -40q2 -23 -17 -41l-556 -556q-17 -17 -40.5 -17t-40.5 17l-95 95q-17 17 -17 40.5z" />
<glyph unicode="?" horiz-adv-x="1200" d="M100 1031q0 73 12 135.5t43 120.5t79 98.5t125 65t177 24.5h128q100 0 177 -24.5t125 -65t79 -98.5t43 -120.5t12 -135.5v-38q0 -391 -338 -438q-57 -14 -78 -49t-21 -94q0 -24 -17 -40.5t-41 -16.5h-144q-24 0 -41 16.5t-17 40.5q0 75 17 138.5t53.5 117.5t100 90 t150.5 48q36 8 58.5 24.5t32.5 44.5t12.5 52.5t2.5 65.5v38q0 39 -2 61.5t-10.5 51t-25.5 44t-49.5 26.5t-78.5 11h-118q-58 0 -94.5 -14.5t-53.5 -44.5t-22 -59.5t-5 -75.5q0 -24 -16.5 -41t-40.5 -17h-156q-24 0 -40.5 17t-16.5 41h-1zM403 58v144q0 24 16.5 41t40.5 17 h146q24 0 40.5 -17t16.5 -41v-144q0 -24 -16.5 -41t-40.5 -17h-146q-24 0 -40.5 17t-16.5 41z" />
<glyph unicode="@" horiz-adv-x="1476" d="M150 262v684q0 74 12 138t43 125.5t79 104.5t125 69.5t177 26.5h304q100 0 177 -26.5t125 -69.5t79 -104.5t43 -125.5t12 -138v-747q0 -20 -14.5 -34t-35.5 -14h-180q-20 0 -35 14t-15 34v55q-76 -63 -129 -86.5t-117 -23.5q-149 0 -214.5 105t-65.5 331q0 102 13 177 t35.5 122.5t58.5 76t77 39.5t96 11h244q-5 72 -40 113t-124 41h-294q-39 0 -68 -8t-46.5 -25t-28.5 -34t-15.5 -45t-6 -49t-1.5 -53v-682q0 -32 1.5 -53t6 -49t15.5 -45t28.5 -34t46.5 -25t68 -8h683q24 0 40.5 -17t16.5 -41v-134q0 -24 -16.5 -41t-40.5 -17h-693 q-99 0 -175 26.5t-123 69.5t-76.5 104.5t-40.5 124.5t-11 137zM770 583q0 -115 20.5 -151.5t61.5 -36.5q18 0 33.5 3.5t31.5 12.5t27 15.5t27 22.5l24 24t26 29t25 28v226h-188q-51 0 -69.5 -40t-18.5 -133z" />
<glyph unicode="A" horiz-adv-x="1378" d="M150 57v790q0 29 16 40l489 362q15 11 34 11t34 -11l489 -362q16 -11 16 -40v-790q0 -24 -17 -40.5t-41 -16.5h-154q-24 0 -41 16.5t-17 40.5v268h-538v-268q0 -24 -17 -40.5t-41 -16.5h-154q-24 0 -41 16.5t-17 40.5zM420 575h538v166l-269 194l-269 -194v-166z" />
<glyph unicode="B" horiz-adv-x="1314" d="M150 57v1136q0 24 17 40.5t41 16.5h473q110 0 195.5 -29.5t135.5 -81t75.5 -114t25.5 -134.5q0 -139 -69 -233q150 -117 150 -314q0 -69 -25.5 -130t-76 -109.5t-135 -76.5t-193.5 -28h-556q-24 0 -41 16.5t-17 40.5zM420 250h334q80 0 119 36.5t39 89.5q0 52 -38.5 88 t-119.5 36h-334v-250zM420 750h251q82 0 121.5 35.5t39.5 87.5q0 53 -40 90t-121 37h-251v-250z" />
<glyph unicode="C" horiz-adv-x="1226" d="M100 615q0 635 586 635h314q24 0 40.5 -17t16.5 -41v-134q0 -24 -16.5 -41t-40.5 -17h-317q-80 0 -140 -31.5t-94.5 -86.5t-51.5 -120.5t-17 -141.5q0 -70 18 -134.5t54 -119.5q34 -54 96 -86q56 -29 128 -29h14q97 4 160 28t175 93q20 12 36 12q25 0 43 -26l79 -107 q15 -20 12 -42.5t-22 -38.5q-118 -96 -234.5 -138t-276.5 -42q-100 0 -183 22.5t-140 60t-101 90.5t-69.5 107.5t-41.5 118.5t-21.5 117.5t-5.5 108.5z" />
<glyph unicode="D" horiz-adv-x="1410" d="M150 57v1136q0 24 17 40.5t41 16.5h508q107 0 194 -18t148 -48t106.5 -77t73 -97.5t44 -116.5t22.5 -128.5t6 -137.5q0 -108 -12 -191.5t-49.5 -168.5t-100.5 -141t-171.5 -91t-255.5 -35h-513q-24 0 -41 16.5t-17 40.5zM420 250h300q169 0 239.5 91t70.5 284t-71.5 284 t-245.5 91h-293v-750z" />
<glyph unicode="E" horiz-adv-x="1210" d="M140 444v749q0 24 17 40.5t41 16.5h855q24 0 40.5 -17t16.5 -41v-134q0 -24 -16.5 -41t-40.5 -17h-643v-250h489q24 0 40.5 -17t16.5 -41v-134q0 -24 -16.5 -41t-40.5 -17h-489v-58q0 -83 68.5 -137.5t210.5 -54.5h364q24 0 40.5 -17t16.5 -41v-134q0 -24 -16.5 -41 t-40.5 -17h-352q-138 0 -242.5 28.5t-163.5 72t-95.5 105t-48 117.5t-11.5 121z" />
<glyph unicode="F" horiz-adv-x="1180" d="M150 57v1136q0 24 17 40.5t41 16.5h855q24 0 40.5 -17t16.5 -41v-134q0 -24 -16.5 -41t-40.5 -17h-643v-300h489q24 0 40.5 -17t16.5 -41v-134q0 -24 -16.5 -41t-40.5 -17h-489v-393q0 -24 -17 -40.5t-41 -16.5h-154q-24 0 -41 16.5t-17 40.5z" />
<glyph unicode="G" horiz-adv-x="1380" d="M100 627q0 75 6 137.5t22.5 128.5t44 116.5t73 97.5t106.5 77t148 48t194 18h379q24 0 40.5 -17t16.5 -41v-134q0 -24 -16.5 -41t-40.5 -17h-376q-174 0 -245.5 -91t-71.5 -284t70.5 -284t239.5 -91h300v230h-248q-24 0 -40.5 17t-16.5 41v134q0 24 16.5 41t40.5 17h460 q24 0 41 -16.5t17 -40.5v-616q0 -24 -17 -40.5t-41 -16.5h-513q-147 0 -255.5 35t-171.5 91t-100.5 141t-49.5 168.5t-12 191.5z" />
<glyph unicode="H" horiz-adv-x="1382" d="M150 57v1136q0 24 17 40.5t41 16.5h154q24 0 41 -16.5t17 -40.5v-443h542v443q0 24 17 40.5t41 16.5h154q24 0 41 -16.5t17 -40.5v-1136q0 -24 -17 -40.5t-41 -16.5h-154q-24 0 -41 16.5t-17 40.5v443h-542v-443q0 -24 -17 -40.5t-41 -16.5h-154q-24 0 -41 16.5t-17 40.5 z" />
<glyph unicode="I" horiz-adv-x="740" d="M100 58v134q0 24 16.5 41t40.5 17h78v750h-78q-24 0 -40.5 17t-16.5 41v134q0 24 16.5 41t40.5 17h426q24 0 40.5 -17t16.5 -41v-134q0 -24 -16.5 -41t-40.5 -17h-78v-750h78q24 0 40.5 -17t16.5 -41v-134q0 -24 -16.5 -41t-40.5 -17h-426q-24 0 -40.5 17t-16.5 41z" />
<glyph unicode="J" horiz-adv-x="1029" d="M100 58v134q0 24 16.5 41t40.5 17h173q142 0 210.5 54.5t68.5 137.5v558h-452q-24 0 -40.5 17t-16.5 41v134q0 24 16.5 41t40.5 17h664q24 0 41 -16.5t17 -40.5v-749q0 -65 -11.5 -121t-48 -117.5t-95.5 -105t-163.5 -72t-242.5 -28.5h-161q-24 0 -40.5 17t-16.5 41z" />
<glyph unicode="K" horiz-adv-x="1143" d="M150 57v1136q0 24 17 40.5t41 16.5h154q24 0 41 -16.5t17 -40.5v-404h94l302 440q5 8 12 13t16.5 6.5t15.5 2t18.5 0t17.5 -0.5h197q22 0 22.5 -30.5t-15.5 -50.5l-391 -547l393 -541q16 -20 15.5 -50.5t-22.5 -30.5h-194q-4 0 -17 -0.5t-18.5 0t-15 2t-16.5 6.5t-13 13 l-307 442h-94v-406q0 -24 -17 -40.5t-41 -16.5h-154q-24 0 -41 16.5t-17 40.5z" />
<glyph unicode="L" horiz-adv-x="1222" d="M150 57v1136q0 24 17 40.5t41 16.5h154q24 0 41 -16.5t17 -40.5v-943h685q24 0 40.5 -17t16.5 -41v-134q0 -24 -16.5 -41t-40.5 -17h-897q-24 0 -41 16.5t-17 40.5z" />
<glyph unicode="M" horiz-adv-x="2065" d="M150 57v1136q0 24 17 40.5t41 16.5h154q24 0 41 -16.5t17 -40.5v-40q206 107 335 107q222 0 330 -157q277 157 430 157q205 0 315 -136.5t110 -415.5v-651q0 -24 -17 -40.5t-41 -16.5h-154q-24 0 -41 16.5t-17 40.5v622q0 46 -1.5 79.5t-6.5 73t-15.5 66.5t-27 51t-43 36 t-60.5 12q-111 0 -346 -136q10 -67 10 -153v-651q0 -24 -17 -40.5t-41 -16.5h-154q-24 0 -41 16.5t-17 40.5v622q0 46 -1.5 79.5t-6.5 73t-15.5 66.5t-27 51t-43 36t-60.5 12q-108 0 -336 -131v-809q0 -24 -17 -40.5t-41 -16.5h-154q-24 0 -41 16.5t-17 40.5z" />
<glyph unicode="N" horiz-adv-x="1368" d="M150 57v1136q0 24 17 40.5t41 16.5h154q24 0 41 -16.5t17 -40.5v-73q157 86 245 113t153 27q205 0 315 -136.5t110 -415.5v-651q0 -24 -17 -40.5t-41 -16.5h-154q-24 0 -41 16.5t-17 40.5v622q0 46 -1.5 79.5t-6.5 73t-15.5 66.5t-27 51t-43 36t-60.5 12 q-121 0 -399 -168v-772q0 -24 -17 -40.5t-41 -16.5h-154q-24 0 -41 16.5t-17 40.5z" />
<glyph unicode="O" horiz-adv-x="1366" d="M100 632q0 131 13 227.5t44 167t74.5 115t112 71.5t148.5 37t191 10t191 -10t148.5 -37t112 -71.5t74.5 -115t44 -167t13 -227.5q0 -106 -10 -193t-29 -149.5t-45 -112t-58 -80.5t-69 -53.5t-76.5 -32t-81.5 -16.5q-35 -6 -70 -6q-7 1 -15 1q-26 1 -51 0h-34h-14.5h-14 h-15.5q-85 0 -147.5 5t-122.5 17.5t-101.5 34t-79 55.5t-60.5 81t-40 112.5t-24.5 148t-7.5 188.5zM381 631q0 -82 8.5 -143t27 -102.5t42 -68.5t60 -41.5t74 -20t90.5 -5.5q80 0 130.5 13.5t92.5 53t60.5 116.5t18.5 198q0 96 -13 163.5t-35.5 107.5t-62 62t-82 29 t-106.5 7q-67 0 -110 -7t-83.5 -28.5t-63 -62t-35.5 -107.5t-13 -164z" />
<glyph unicode="P" horiz-adv-x="1285" d="M150 57v1136q0 24 17 40.5t41 16.5h558q102 0 177 -20t123 -55.5t77 -91.5t40.5 -122t11.5 -154q0 -85 -11.5 -151t-41 -125t-77 -97.5t-122.5 -61t-175 -22.5h-348v-293q0 -24 -17 -40.5t-41 -16.5h-154q-24 0 -41 16.5t-17 40.5zM420 600h336q33 0 57.5 4t41.5 10 t28 20.5t17.5 26.5t9.5 37.5t3.5 45t0.5 56.5q0 36 -0.5 55t-3.5 44.5t-9.5 38t-17.5 27t-28 20.5t-41.5 10.5t-57.5 4.5h-336v-400z" />
<glyph unicode="Q" horiz-adv-x="1436" d="M100 632q0 131 13 227.5t44 167t74.5 115t112 71.5t148.5 37t191 10t191 -10t148.5 -37t112 -71.5t74.5 -115t44 -167t13 -227.5q0 -242 -55 -392h118q24 0 40.5 -17t16.5 -41v-134q0 -24 -16.5 -41t-40.5 -17h-509h-137q-85 0 -147.5 5t-122.5 17.5t-101.5 34t-79 55.5 t-60.5 81t-40 112.5t-24.5 148t-7.5 188.5zM381 631q0 -82 8.5 -143t27 -102.5t42 -68.5t60 -41.5t74 -20t90.5 -5.5q80 0 130.5 13.5t92.5 53t60.5 116.5t18.5 198q0 96 -13 163.5t-35.5 107.5t-62 62t-82 29t-106.5 7q-67 0 -110 -7t-83.5 -28.5t-63 -62t-35.5 -107.5 t-13 -164z" />
<glyph unicode="R" horiz-adv-x="1285" d="M150 57v1136q0 24 17 40.5t41 16.5h558q102 0 177 -20t123 -55.5t77 -91.5t40.5 -122t11.5 -154q0 -151 -41.5 -253.5t-140.5 -154.5l165 -354q10 -21 -3.5 -33t-39.5 -12h-168h-5q-15 0 -22.5 0.5t-18.5 3t-18.5 8.5t-12.5 16l-151 322h-319v-293q0 -24 -17 -40.5 t-41 -16.5h-154q-24 0 -41 16.5t-17 40.5zM420 600h336q33 0 57.5 4t41.5 10t28 20.5t17.5 26.5t9.5 37.5t3.5 45t0.5 56.5q0 36 -0.5 55t-3.5 44.5t-9.5 38t-17.5 27t-28 20.5t-41.5 10.5t-57.5 4.5h-336v-400z" />
<glyph unicode="S" horiz-adv-x="1132" d="M90 892q0 168 108.5 263t328.5 95h427q24 0 40.5 -17t16.5 -41v-134q0 -24 -16.5 -41t-40.5 -17h-430q-183 0 -183 -124q0 -53 40.5 -89.5t142.5 -36.5h81q220 0 328.5 -94.5t108.5 -262.5q0 -83 -26 -153t-78 -124.5t-136.5 -85t-194.5 -30.5h-442q-24 0 -40.5 17 t-16.5 41v134q0 24 16.5 41t40.5 17h443q183 0 183 125t-183 125h-83q-110 0 -194.5 30.5t-136.5 84.5t-78 124t-26 153z" />
<glyph unicode="T" horiz-adv-x="1290" d="M60 1058v134q0 24 16.5 41t40.5 17h1056q24 0 40.5 -17t16.5 -41v-134q0 -24 -16.5 -41t-40.5 -17h-393v-943q0 -24 -17 -40.5t-41 -16.5h-154q-24 0 -41 16.5t-17 40.5v943h-393q-24 0 -40.5 17t-16.5 41z" />
<glyph unicode="U" horiz-adv-x="1370" d="M125 703v490q0 24 17 40.5t41 16.5h154q24 0 41 -16.5t17 -40.5v-466q0 -101 6.5 -176t15 -126.5t31 -84.5t39 -51.5t55 -27t64 -10t79.5 -1.5t79.5 2t64 10t55 26.5t39 51.5t31 84.5t15 126.5t6.5 176v466q0 24 17 40.5t41 16.5h154q24 0 41 -16.5t17 -40.5v-487 q0 -140 -8.5 -238.5t-32 -183t-63 -137t-102.5 -89.5t-149 -52.5t-205 -15.5t-205 15.5t-149 52.5t-102.5 89t-63 136t-32 182t-8.5 238z" />
<glyph unicode="V" horiz-adv-x="1298" d="M110 850v343q0 24 17 40.5t41 16.5h154q24 0 41 -16.5t17 -40.5v-343l270 -525l268 525v343q0 24 17 40.5t41 16.5h154q24 0 41 -16.5t17 -40.5v-343l-386 -812q-6 -17 -21 -27.5t-34 -10.5h-192q-19 0 -34 10.5t-21 27.5z" />
<glyph unicode="W" horiz-adv-x="1760" d="M125 359v834q0 24 17 40.5t41 16.5h154q24 0 41 -16.5t17 -40.5v-699l175 -169l175 169v699q0 24 17 40.5t41 16.5h154q24 0 41 -16.5t17 -40.5v-699l175 -169l175 169v699q0 24 17 40.5t41 16.5h154q24 0 41 -16.5t17 -40.5v-834q0 -28 -16 -40l-395 -308 q-13 -11 -34 -11q-19 0 -34 11l-276 215l-276 -215q-13 -11 -34 -11q-19 0 -34 11l-395 308q-16 12 -16 40z" />
<glyph unicode="X" horiz-adv-x="1378" d="M150 57v368q0 30 16 40l248 157l-248 156q-16 10 -16 40v375q0 24 17 40.5t41 16.5h154q24 0 41 -16.5t17 -40.5v-240l269 -169l269 169v240q0 24 17 40.5t41 16.5h154q24 0 41 -16.5t17 -40.5v-375q0 -30 -16 -40l-248 -156l248 -157q16 -10 16 -40v-368 q0 -24 -17 -40.5t-41 -16.5h-154q-24 0 -41 16.5t-17 40.5v233l-269 169l-269 -169v-233q0 -24 -17 -40.5t-41 -16.5h-154q-24 0 -41 16.5t-17 40.5z" />
<glyph unicode="Y" horiz-adv-x="1338" d="M130 727v466q0 24 17 40.5t41 16.5h154q24 0 41 -16.5t17 -40.5v-331l269 -170l269 170v331q0 24 17 40.5t41 16.5h154q24 0 41 -16.5t17 -40.5v-466q0 -30 -16 -40l-389 -245v-385q0 -24 -17 -40.5t-41 -16.5h-154q-24 0 -41 16.5t-17 40.5v385l-387 245q-16 10 -16 40z " />
<glyph unicode="Z" horiz-adv-x="1270" d="M100 58v134q0 23 14 40l663 768h-620q-24 0 -40.5 17t-16.5 41v134q0 24 16.5 41t40.5 17h956q24 0 40.5 -17t16.5 -41v-134q0 -20 -9 -32l-657 -776h609q24 0 40.5 -17t16.5 -41v-134q0 -24 -16.5 -41t-40.5 -17h-956q-24 0 -40.5 17t-16.5 41z" />
<glyph unicode="[" horiz-adv-x="710" d="M150 -23v1441q0 24 17 40.5t41 16.5h395q24 0 40.5 -17t16.5 -41v-134q0 -24 -16.5 -41t-40.5 -17h-193v-1055h193q24 0 40.5 -17t16.5 -41v-134q0 -24 -16.5 -41t-40.5 -17h-395q-24 0 -41 16.5t-17 40.5z" />
<glyph unicode="\" horiz-adv-x="750" d="M53 1161q-8 23 2 44t33 29l135 49q23 8 44.5 -1t29.5 -32l400 -1104q8 -23 -2 -44t-33 -29l-135 -49q-23 -8 -44.5 1t-29.5 32z" />
<glyph unicode="]" horiz-adv-x="710" d="M50 -22v134q0 24 16.5 41t40.5 17h193v1055h-193q-24 0 -40.5 17t-16.5 41v134q0 24 16.5 41t40.5 17h395q24 0 41 -16.5t17 -40.5v-1441q0 -24 -17 -40.5t-41 -16.5h-395q-24 0 -40.5 17t-16.5 41z" />
<glyph unicode="_" horiz-adv-x="1000" d="M50 58v134q0 24 16.5 41t40.5 17h786q24 0 40.5 -17t16.5 -41v-134q0 -24 -16.5 -41t-40.5 -17h-786q-24 0 -40.5 17t-16.5 41z" />
<glyph unicode="`" horiz-adv-x="721" d="M75.5 1497.5q-2.5 26.5 11.5 45.5l77 110q14 20 37 24.5t43 -9.5l358 -251q19 -13 23 -36t-10 -43q-23 -33 -80 -16l-434 141q-23 8 -25.5 34.5z" />
<glyph unicode="a" d="M100 603q0 143 18 248t49.5 171.5t81.5 106.5t108 55.5t135 15.5h536q29 0 49.5 -19.5t20.5 -48.5v-1064q0 -28 -20.5 -48t-49.5 -20h-120q-29 0 -49.5 20t-20.5 48v77q-107 -89 -182 -122t-166 -33q-208 0 -299 147.5t-91 465.5zM350 598q0 -157 13.5 -230t47 -100.5 t106.5 -27.5q53 0 92 9.5t78.5 37t68 55.5t82.5 87v521h-365q-74 0 -98.5 -71.5t-24.5 -280.5z" />
<glyph unicode="b" d="M150 65v1342q0 28 20.5 48t49.5 20h120q29 0 49.5 -20t20.5 -48v-354q103 85 192.5 119.5t186.5 34.5q84 0 145 -24t102.5 -70.5t66 -122.5t35 -171t10.5 -224q0 -145 -14.5 -249t-42 -171.5t-73 -107t-100.5 -55t-132 -15.5h-566q-29 0 -49.5 19.5t-20.5 48.5zM410 247 h362q75 0 100 72.5t26 283.5q0 139 -19 218.5t-52 107.5t-87 28q-76 0 -162 -50t-168 -150v-510z" />
<glyph unicode="c" horiz-adv-x="1128" d="M100 602v2q0 143 17.5 247.5t49 171.5t82 106.5t108 55t135.5 15.5h428q30 0 49 -20t19 -50v-110q0 -30 -19 -50t-49 -20h-454q-69 0 -92 -87.5t-23 -268.5q0 -30 1 -51t7.5 -61t16.5 -69t31.5 -63.5t50.5 -57t75 -37.5t103 -15q53 0 97.5 21t185.5 109q24 15 42 15 q33 0 53 -31l49 -79q15 -24 15 -44q0 -32 -27 -53q-141 -114 -237 -151t-191 -37q-243 0 -382.5 151t-140.5 461z" />
<glyph unicode="d" d="M100 603q0 143 18 248t49.5 171.5t81.5 106.5t108 55.5t135 15.5h346v218q0 24 17 40.5t41 16.5h144q24 0 41 -16.5t17 -40.5v-1350q0 -28 -20.5 -48t-49.5 -20h-120q-29 0 -49.5 20t-20.5 48v77q-107 -89 -182 -122t-166 -33q-208 0 -299 147.5t-91 465.5zM350 598 q0 -157 13.5 -230t47 -100.5t106.5 -27.5q53 0 92 9.5t78.5 37t68 55.5t82.5 87v521h-365q-74 0 -98.5 -71.5t-24.5 -280.5z" />
<glyph unicode="e" horiz-adv-x="1163" d="M100 602q0 3 1 5v1q0 120 7.5 204t27.5 155t53 114t86.5 73.5t125.5 43t173 12.5h12q119 0 199.5 -19t135.5 -57.5t85.5 -109.5t43 -162t13.5 -229v-4v-71q0 -29 -19.5 -49.5t-49.5 -20.5h-640q4 -61 18 -103.5t46 -77.5q30 -35 88 -51q54 -15 133 -15h10q117 2 267 79 q29 15 52 15q28 0 42 -32l42 -92q16 -34 16 -53q0 -31 -28 -44q-142 -75 -218 -99.5t-173 -24.5q-549 0 -549 612zM352 698h460q-2 74 -10.5 119.5t-22 75.5t-42 44t-61 18.5t-90.5 4.5h-12q-70 0 -106.5 -7t-65 -35t-38 -78.5t-12.5 -141.5z" />
<glyph unicode="f" horiz-adv-x="704" d="M50 883v134q0 24 16.5 41t40.5 17h80q4 118 28.5 198t69 123.5t98.5 61t128 17.5h186q24 0 40.5 -17t16.5 -41v-134q0 -24 -16.5 -41t-40.5 -17h-136q-53 0 -78.5 -35.5t-32.5 -114.5h148q24 0 40.5 -17t16.5 -41v-134q0 -24 -16.5 -41t-40.5 -17h-152v-768 q0 -24 -17 -40.5t-41 -16.5h-144q-24 0 -41 16.5t-17 40.5v768h-79q-24 0 -40.5 17t-16.5 41z" />
<glyph unicode="g" d="M100 603q0 143 18 248t49.5 171.5t81.5 106.5t108 55.5t135 15.5h536q29 0 49.5 -19.5t20.5 -48.5v-927v-21v-116q0 -12 -5 -25q-5 -55 -15 -100.5t-33.5 -92t-57.5 -78.5t-89 -52t-126 -20h-433q-24 0 -40.5 17t-16.5 41v134q0 24 16.5 41t40.5 17h394q54 0 77 43.5 t27 150.5q-103 -85 -177.5 -114.5t-169.5 -29.5q-209 0 -299.5 143.5t-90.5 459.5zM350 598q0 -95 4.5 -153.5t14 -100t30 -60.5t47 -26.5t71.5 -7.5q102 0 163 36.5t158 142.5v521h-365q-74 0 -98.5 -71.5t-24.5 -280.5z" />
<glyph unicode="h" horiz-adv-x="1176" d="M150 57v1361q0 24 17 40.5t41 16.5h144q24 0 41 -16.5t17 -40.5v-338q157 130 313 130q170 0 249 -126.5t79 -373.5v-653q0 -24 -17 -40.5t-41 -16.5h-144q-24 0 -41 16.5t-17 40.5v572q0 197 -21 263t-96 66q-114 0 -264 -158v-743q0 -24 -17 -40.5t-41 -16.5h-144 q-24 0 -41 16.5t-17 40.5z" />
<glyph unicode="i" horiz-adv-x="690" d="M75 58v134q0 24 16.5 41t40.5 17h87v700h-87q-24 0 -40.5 17t-16.5 41v134q0 24 16.5 41t40.5 17h289q24 0 41 -16.5t17 -40.5v-893h79q24 0 40.5 -17t16.5 -41v-134q0 -24 -16.5 -41t-40.5 -17h-426q-24 0 -40.5 17t-16.5 41zM219 1478v144q0 24 16.5 41t40.5 17h146 q24 0 40.5 -17t16.5 -41v-144q0 -24 -16.5 -41t-40.5 -17h-146q-24 0 -40.5 17t-16.5 41z" />
<glyph unicode="j" horiz-adv-x="636" d="M-70 -108q0 24 16.5 41t40.5 17h123q67 0 91 57.5t24 197.5v745h-87q-24 0 -40.5 17t-16.5 41v134q0 24 16.5 41t40.5 17h289q24 0 41 -16.5t17 -40.5v-995q0 -107 -15.5 -186t-42.5 -128.5t-69.5 -80t-89.5 -42t-109 -11.5h-172q-24 0 -40.5 17t-16.5 41v134zM226 1471 v134q0 24 16.5 41t40.5 17h146q24 0 40.5 -17t16.5 -41v-134q0 -24 -16.5 -41t-40.5 -17h-146q-24 0 -40.5 17t-16.5 41z" />
<glyph unicode="k" horiz-adv-x="1121" d="M150 57v1361q0 24 17 40.5t41 16.5h144q24 0 41 -16.5t17 -40.5v-593h97l232 354q5 8 11.5 12.5t16.5 6.5t15.5 2.5t19.5 0t17 -0.5h193q22 0 22.5 -30.5t-15.5 -50.5l-320 -453l382 -585q15 -20 15 -50.5t-22 -30.5h-194q-5 0 -18 -0.5t-19 0t-15.5 2t-16 6.5t-11.5 13 l-293 478h-97v-442q0 -24 -17 -40.5t-41 -16.5h-144q-24 0 -41 16.5t-17 40.5z" />
<glyph unicode="l" horiz-adv-x="640" d="M50 1283v134q0 24 16.5 41t40.5 17h289q24 0 41 -16.5t17 -40.5v-1168h79q24 0 40.5 -17t16.5 -41v-134q0 -24 -16.5 -41t-40.5 -17h-293v1q-20 4 -33 19.5t-13 36.5v1168h-87q-24 0 -40.5 17t-16.5 41z" />
<glyph unicode="m" horiz-adv-x="1685" d="M150 57v1086q0 24 17 40.5t41 16.5h144q24 0 41 -16.5t17 -40.5v-56q18 21 27.5 31.5t34.5 31t48.5 31.5t62 20t82.5 9q165 0 246 -127q110 78 176.5 102.5t144.5 24.5q170 0 249 -126.5t79 -373.5v-653q0 -24 -17 -40.5t-41 -16.5h-144q-24 0 -41 16.5t-17 40.5v572 q0 197 -21 263t-96 66q-88 0 -201 -105q8 -70 8 -143v-653q0 -24 -17 -40.5t-41 -16.5h-144q-24 0 -41 16.5t-17 40.5v572q0 198 -21 263.5t-97 65.5q-49 0 -95.5 -27.5t-106.5 -87.5v-786q0 -24 -17 -40.5t-41 -16.5h-144q-24 0 -41 16.5t-17 40.5z" />
<glyph unicode="n" horiz-adv-x="1176" d="M150 57v1086q0 24 17 40.5t41 16.5h144q24 0 41 -16.5t17 -40.5v-63q157 130 313 130q170 0 249 -126.5t79 -373.5v-653q0 -24 -17 -40.5t-41 -16.5h-144q-24 0 -41 16.5t-17 40.5v572q0 196 -21 262t-96 66q-114 0 -264 -158v-742q0 -24 -17 -40.5t-41 -16.5h-144 q-24 0 -41 16.5t-17 40.5z" />
<glyph unicode="o" horiz-adv-x="1162" d="M100 608q0 120 7.5 204t27.5 155t53 114t86.5 73.5t125.5 43t173 12.5h12q101 0 173.5 -12t126.5 -42.5t87.5 -74t54 -114.5t28 -155.5t7.5 -204.5t-7.5 -205.5t-28 -158t-53.5 -118t-86.5 -77t-126 -45t-171.5 -13.5h-16q-100 0 -172 13t-125.5 45t-87 77.5t-53.5 118 t-27.5 158t-7.5 206.5zM350 607q0 -87 3 -143.5t13.5 -99.5t24.5 -65.5t41.5 -37t58 -18t81.5 -3.5h18q51 0 81.5 4t58 18t41.5 37t24.5 66t13.5 99.5t3 143.5q0 85 -3 138.5t-13.5 95.5t-24 63.5t-42 35t-60 16.5t-84.5 3h-12q-39 0 -64.5 -1.5t-50.5 -8t-39.5 -16.5 t-28 -29.5t-20 -43.5t-12 -62.5t-7 -83.5t-1.5 -108z" />
<glyph unicode="p" d="M150 -232v1364q0 28 20.5 48t49.5 20h120q29 0 49.5 -20t20.5 -48v-76q103 85 192.5 119.5t186.5 34.5q84 0 145 -24t102.5 -70.5t66 -122.5t35 -171t10.5 -224q0 -145 -14.5 -249t-42 -171.5t-73 -107t-100.5 -55t-132 -15.5h-376v-232q0 -29 -20.5 -48.5t-49.5 -19.5 h-120q-29 0 -49.5 19.5t-20.5 48.5zM410 250h362q75 0 100 72.5t26 283.5q0 139 -19 218.5t-52 107.5t-87 28q-76 0 -162 -50t-168 -150v-510z" />
<glyph unicode="q" d="M100 603q0 143 18 248t49.5 171.5t81.5 106.5t108 55.5t135 15.5h536q29 0 49.5 -19.5t20.5 -48.5v-1375q0 -24 -17 -40.5t-41 -16.5h-144q-24 0 -41 16.5t-17 40.5v388q-107 -89 -182 -122t-166 -33q-208 0 -299 147.5t-91 465.5zM350 598q0 -157 13.5 -230t47 -100.5 t106.5 -27.5q53 0 92 9.5t78.5 37t68 55.5t82.5 87v521h-365q-74 0 -98.5 -71.5t-24.5 -280.5z" />
<glyph unicode="r" horiz-adv-x="805" d="M150 57v1086q0 24 17 40.5t41 16.5h144q24 0 41 -16.5t17 -40.5v-56q42 47 105 85t136 38q48 0 76 -21t28 -47v-124q0 -24 -16.5 -41t-40.5 -17h-86q-50 0 -97 -25.5t-105 -82.5v-795q0 -24 -17 -40.5t-41 -16.5h-144q-24 0 -41 16.5t-17 40.5z" />
<glyph unicode="s" horiz-adv-x="956" d="M90 70v110q0 30 19.5 50t49.5 20h276q181 0 181 91q0 34 -29 59.5t-75.5 43.5t-102.5 37t-112 49.5t-102.5 73t-75.5 114t-29 165.5q0 50 8 89.5t35.5 84t73.5 74.5t128.5 49.5t194.5 19.5h229q29 0 48.5 -20.5t19.5 -49.5v-110q0 -29 -19.5 -49.5t-48.5 -20.5h-209 q-127 0 -168.5 -14.5t-41.5 -65.5q0 -47 29 -81.5t75.5 -56t102.5 -41.5t112 -45.5t102.5 -60.5t75.5 -94.5t29 -139.5q0 -41 -8 -79.5t-26.5 -79.5t-52.5 -74.5t-82 -60.5t-120 -42t-161 -15h-257q-30 0 -49.5 20t-19.5 50z" />
<glyph unicode="t" horiz-adv-x="804" d="M50 883v134q0 24 16.5 41t40.5 17h79v343q0 24 17 40.5t41 16.5h144q24 0 41 -16.5t17 -40.5v-343h152q24 0 40.5 -17t16.5 -41v-134q0 -24 -16.5 -41t-40.5 -17h-152v-320q0 -140 24 -197.5t91 -57.5h136q24 0 40.5 -17t16.5 -41v-134q0 -24 -16.5 -41t-40.5 -17h-186 q-78 0 -134 19.5t-101 68t-67.5 138t-22.5 222.5v377h-79q-24 0 -40.5 17t-16.5 41z" />
<glyph unicode="u" horiz-adv-x="1176" d="M125 490v653q0 24 17 40.5t41 16.5h144q24 0 41 -16.5t17 -40.5v-572q0 -197 21 -263t96 -66q65 0 126 38.5t138 119.5v743q0 24 17 40.5t41 16.5h144q24 0 41 -16.5t17 -40.5v-1086q0 -24 -17 -40.5t-41 -16.5h-144q-24 0 -41 16.5t-17 40.5v63q-157 -130 -313 -130 q-170 0 -249 126.5t-79 373.5z" />
<glyph unicode="v" horiz-adv-x="1202" d="M100 781v362q0 24 17 40.5t41 16.5h154q24 0 41 -16.5t17 -40.5v-277l231 -516l231 516v277q0 24 17 40.5t41 16.5h154q24 0 41 -16.5t17 -40.5v-362q0 -8 -16 -40l-334 -702q-5 -17 -20.5 -28t-34.5 -11h-192q-19 0 -34.5 11t-20.5 28l-334 702q-16 32 -16 40z" />
<glyph unicode="w" horiz-adv-x="1780" d="M135 349v794q0 24 17 40.5t41 16.5h154q24 0 41 -16.5t17 -40.5v-659l175 -169l175 169v659q0 24 17 40.5t41 16.5h154q24 0 41 -16.5t17 -40.5v-659l175 -169l175 169v659q0 24 17 40.5t41 16.5h154q24 0 41 -16.5t17 -40.5v-794q0 -28 -16 -40l-395 -308 q-13 -11 -34 -11q-19 0 -34 11l-276 215l-276 -215q-13 -11 -34 -11q-19 0 -34 11l-395 308q-16 12 -16 40z" />
<glyph unicode="x" horiz-adv-x="1109" d="M135 57v380q0 29 16 40l186 129l-186 135q-16 11 -16 40v362q0 24 17 40.5t41 16.5h144q24 0 41 -16.5t17 -40.5v-277l160 -110l159 110v277q0 24 17 40.5t41 16.5h144q24 0 41 -16.5t17 -40.5v-362q0 -29 -16 -40l-186 -135l186 -129q16 -11 16 -40v-281 q0 -91 -15 -123.5t-43 -32.5h-144q-24 0 -41 16.5t-17 40.5v276l-159 116l-160 -116v-276q0 -24 -17 -40.5t-41 -16.5h-144q-24 0 -41 16.5t-17 40.5z" />
<glyph unicode="y" horiz-adv-x="1149" d="M135 -112q0 28 16 40l218 177l-218 187q-16 14 -16 40v811q0 24 17 40.5t41 16.5h144q24 0 41 -16.5t17 -40.5v-726l182 -144l177 144v726q0 24 17 40.5t41 16.5h144q24 0 41 -16.5t17 -40.5v-811q0 -26 -16 -40l-603 -508v-27q0 -24 -17 -40.5t-41 -16.5h-144 q-24 0 -41 16.5t-17 40.5v131z" />
<glyph unicode="z" horiz-adv-x="1005" d="M90 58v134q0 17 14 40l468 718h-425q-24 0 -40.5 17t-16.5 41v134q0 24 16.5 41t40.5 17h711q24 0 40.5 -17t16.5 -41v-134q0 -17 -9 -32l-473 -726h425q24 0 40.5 -17t16.5 -41v-134q0 -24 -16.5 -41t-40.5 -17h-711q-24 0 -40.5 17t-16.5 41z" />
<glyph unicode="{" horiz-adv-x="918" d="M100 631v134q0 24 16.5 41t40.5 17h41q67 0 91 57.5t24 197.5q0 96 16.5 167t44.5 114.5t71 70t89 36t105 9.5h172q24 0 40.5 -17t16.5 -41v-134q0 -24 -16.5 -41t-40.5 -17h-123q-67 0 -91 -57.5t-24 -197.5q0 -165 -63 -272q63 -107 63 -272q0 -140 24 -197.5t91 -57.5 h123q24 0 40.5 -17t16.5 -41v-134q0 -24 -16.5 -41t-40.5 -17h-172q-75 0 -130.5 17t-101.5 59t-70 120.5t-24 193.5q0 145 -23.5 203.5t-91.5 58.5h-41q-24 0 -40.5 17t-16.5 41z" />
<glyph unicode="|" horiz-adv-x="560" d="M150 -243v1661q0 24 17 40.5t41 16.5h144q24 0 41 -16.5t17 -40.5v-1661q0 -24 -17 -40.5t-41 -16.5h-144q-24 0 -41 16.5t-17 40.5z" />
<glyph unicode="}" horiz-adv-x="918" d="M50 -21v134q0 24 16.5 41t40.5 17h123q67 0 91 57.5t24 197.5q0 165 63 272q-63 107 -63 272q0 140 -24 197.5t-91 57.5h-123q-24 0 -40.5 17t-16.5 41v134q0 24 16.5 41t40.5 17h172q59 0 105 -9.5t89 -36t71 -70t44.5 -114.5t16.5 -167q0 -140 24 -197.5t91 -57.5h41 q24 0 40.5 -17t16.5 -41v-134q0 -24 -16.5 -41t-40.5 -17h-41q-68 0 -91.5 -58.5t-23.5 -203.5q0 -115 -24 -193.5t-70 -120.5t-101.5 -59t-130.5 -17h-172q-24 0 -40.5 17t-16.5 41z" />
<glyph unicode="~" horiz-adv-x="1211" d="M114 699q35 57 124.5 109.5t182.5 52.5q53 0 107.5 -20t91.5 -44t77.5 -44t67.5 -20q55 0 133 74q40 40 81 7l111 -93q38 -30 7 -81q-35 -57 -125 -112t-183 -55q-52 0 -106.5 21t-91 45.5t-76.5 45.5t-68 21q-57 0 -134 -74q-40 -40 -81 -7l-111 93q-38 30 -7 81z" />
<glyph unicode="&#xa1;" horiz-adv-x="560" d="M150 -218v861q0 24 17 40.5t41 16.5h144q24 0 41 -16.5t17 -40.5v-861q0 -24 -17 -40.5t-41 -16.5h-144q-24 0 -41 16.5t-17 40.5zM150 998v144q0 24 16.5 41t40.5 17h146q24 0 40.5 -17t16.5 -41v-144q0 -24 -16.5 -41t-40.5 -17h-146q-24 0 -40.5 17t-16.5 41z" />
<glyph unicode="&#xa2;" horiz-adv-x="1185" d="M100 602v2q0 143 17.5 247.5t49 171.5t82 106.5t108 55t135.5 15.5h46v175q0 30 20 49t50 19h60q30 0 50 -19t20 -49v-175h182q30 0 49 -20t19 -50v-110q0 -30 -19 -50t-49 -20h-454q-69 0 -92 -87.5t-23 -268.5q0 -23 1 -42.5t6.5 -58t15 -69t29.5 -67t47.5 -60.5 t71 -40.5t97.5 -16.5q66 0 127 29t220 127q24 15 42 15q33 0 53 -31l49 -79q15 -24 15 -44q0 -32 -27 -53q-192 -155 -360 -197v-193q0 -30 -20 -49t-50 -19h-60q-30 0 -50 19t-20 49v179q-197 20 -317 172.5t-121 436.5z" />
<glyph unicode="&#xa3;" horiz-adv-x="1345" d="M25 58v134q0 24 16.5 41t40.5 17h105q83 0 137.5 68.5t54.5 210.5v86h-157q-30 0 -49 20t-19 50v60q0 30 19 50t49 20h157v216q0 65 11.5 121t48 117.5t95.5 105t163.5 72t242.5 28.5h258q24 0 40.5 -17t16.5 -41v-134q0 -24 -16.5 -41t-40.5 -17h-270 q-142 0 -210.5 -54.5t-68.5 -137.5v-218h182q30 0 49 -20t19 -50v-60q0 -30 -19 -50t-49 -20h-183v-54q0 -185 -50 -311h596q24 0 40.5 -17t16.5 -41v-134q0 -24 -16.5 -41t-40.5 -17h-1112q-24 0 -40.5 17t-16.5 41z" />
<glyph unicode="&#xa4;" horiz-adv-x="1171" d="M100 211q-1 28 20 49l82 82q-71 112 -71 244q0 130 70 241l-81 81q-21 21 -20 49t22 48l42 43q21 21 48.5 21.5t49.5 -20.5l80 -80q110 71 242 71q134 0 244 -72l81 81q22 21 49.5 20.5t48.5 -21.5l42 -43q21 -20 22 -48t-20 -49l-82 -82q69 -110 69 -240 q0 -132 -71 -242l84 -84q21 -21 20 -49t-22 -48l-42 -43q-21 -21 -48.5 -21.5t-49.5 20.5l-84 84q-109 -70 -241 -70q-131 0 -239 69l-83 -83q-22 -21 -49.5 -20.5t-48.5 21.5l-42 43q-21 20 -22 48zM352 586q0 -97 67 -164t164 -67q98 0 165.5 67t67.5 164t-67.5 164.5 t-165.5 67.5q-97 0 -164 -67.5t-67 -164.5z" />
<glyph unicode="&#xa5;" horiz-adv-x="1278" d="M100 851v567q0 24 17 40.5t41 16.5h154q24 0 41 -16.5t17 -40.5v-432l269 -169l269 169v432q0 24 17 40.5t41 16.5h154q24 0 41 -16.5t17 -40.5v-567q0 -30 -16 -40l-259 -163h102q30 0 49 -20t19 -50v-60q0 -30 -19 -50t-49 -20h-232v-48h232q30 0 49 -20t19 -50v-60 q0 -30 -19 -50t-49 -20h-232v-143q0 -24 -17 -40.5t-41 -16.5h-154q-24 0 -41 16.5t-17 40.5v143h-232q-30 0 -49 20t-19 50v60q0 30 19 50t49 20h232v48h-232q-30 0 -49 20t-19 50v60q0 30 19 50t49 20h104l-259 163q-16 10 -16 40z" />
<glyph unicode="&#xa6;" horiz-adv-x="560" d="M150 227q0 24 17 40.5t41 16.5h144q24 0 41 -16.5t17 -40.5v-470q0 -24 -17 -40.5t-41 -16.5h-144q-24 0 -41 16.5t-17 40.5v470zM150 948v470q0 24 17 40.5t41 16.5h144q24 0 41 -16.5t17 -40.5v-470q0 -24 -17 -40.5t-41 -16.5h-144q-24 0 -41 16.5t-17 40.5z" />
<glyph unicode="&#xa7;" horiz-adv-x="1131" d="M100 586q0 162 101 279q-101 71 -101 214q0 76 27.5 145t82 126.5t146.5 91t210 33.5q247 0 440 -151q18 -14 20.5 -34t-11.5 -37l-67 -88q-29 -38 -71 -13q-57 41 -143.5 67t-171.5 26q-118 0 -172.5 -46t-54.5 -99q0 -39 38.5 -64.5t100 -40t135.5 -28t148 -38 t135.5 -61.5t100 -106t38.5 -164q0 -160 -101 -279q101 -71 101 -214q0 -76 -27.5 -145t-82 -126.5t-146.5 -91t-210 -33.5q-247 0 -440 151q-18 14 -20.5 34t11.5 38l67 87q29 37 71 14q56 -41 143 -67t172 -26q118 0 172.5 45.5t54.5 98.5q0 39 -38.5 64.5t-100 40 t-135.5 28t-148 38t-135.5 61.5t-100 106t-38.5 164zM335 591q0 -33 10 -59t34 -44.5t45.5 -30.5t63 -22t68 -14.5t77.5 -12.5q73 7 118 60.5t45 124.5q0 25 -6 46t-19.5 37t-27 28.5t-38 22.5t-43 16.5t-51.5 13t-53.5 10t-57.5 9.5q-75 -6 -120 -60t-45 -125z" />
<glyph unicode="&#xa8;" horiz-adv-x="895" d="M100 1398v144q0 24 16.5 41t40.5 17h146q24 0 40.5 -17t16.5 -41v-144q0 -24 -16.5 -41t-40.5 -17h-146q-24 0 -40.5 17t-16.5 41zM535 1398v144q0 24 16.5 41t40.5 17h146q24 0 40.5 -17t16.5 -41v-144q0 -24 -16.5 -41t-40.5 -17h-146q-24 0 -40.5 17t-16.5 41z" />
<glyph unicode="&#xa9;" horiz-adv-x="1969" d="M100 591q0 -180 70 -344t188.5 -282.5t282.5 -188.5t344 -70t344 70t282 188.5t188 282.5t70 344t-70 343.5t-188 282t-282 188.5t-344 70t-344 -70t-282.5 -188.5t-188.5 -282t-70 -343.5zM294 591q0 140 55 267.5t147.5 220t220.5 147.5t268 55q187 0 346 -92.5 t251.5 -251.5t92.5 -346t-92.5 -346.5t-251.5 -252t-346 -92.5q-140 0 -268 55t-220.5 147.5t-147.5 220.5t-55 268zM557 579q0 66 9.5 125t39.5 124.5t78.5 112.5t133 77.5t196.5 30.5h233q19 0 31.5 -13t12.5 -32v-122q0 -20 -12.5 -33t-31.5 -13h-236q-62 0 -106.5 -21.5 t-68 -59.5t-34 -82t-10.5 -97q0 -41 6 -77t21.5 -71t40 -59.5t65 -39t92.5 -12.5q16 0 30.5 1.5t29 6.5t24 7t24.5 11.5t21 12.5t23 16.5t20.5 16.5t24 20.5t24.5 20.5q34 27 62 -11l70 -94q23 -33 -8 -64q-91 -87 -172.5 -125t-196.5 -38q-106 0 -187 32.5t-127 81t-75 116 t-38 127t-9 124.5z" />
<glyph unicode="&#xab;" horiz-adv-x="1260" d="M100 619q0 19 12 35l315 403q15 19 38.5 21.5t42.5 -12.5l113 -89q19 -15 22.5 -37.5t-11.5 -42.5l-217 -278l217 -278q15 -20 11.5 -42.5t-22.5 -37.5l-113 -89q-19 -15 -42.5 -12.5t-38.5 21.5l-315 403q-12 16 -12 35zM616 619q0 19 12 35l315 403q15 19 38.5 21.5 t42.5 -12.5l113 -89q19 -15 22.5 -37.5t-11.5 -42.5l-217 -278l217 -278q15 -20 11.5 -42.5t-22.5 -37.5l-113 -89q-19 -15 -42.5 -12.5t-38.5 21.5l-315 403q-12 16 -12 35z" />
<glyph unicode="&#xad;" horiz-adv-x="750" d="M100 733v134q0 24 16.5 41t40.5 17h436q24 0 40.5 -17t16.5 -41v-134q0 -24 -16.5 -41t-40.5 -17h-436q-24 0 -40.5 17t-16.5 41z" />
<glyph unicode="&#xae;" horiz-adv-x="1969" d="M100 591q0 180 70 343.5t188.5 282t282.5 188.5t344 70t344 -70t282 -188.5t188 -282t70 -343.5t-70 -344t-188 -282.5t-282 -188.5t-344 -70t-344 70t-282.5 188.5t-188.5 282.5t-70 344zM294 591q0 -140 55 -268t147.5 -220.5t220.5 -147.5t268 -55q187 0 346 92.5 t251.5 252t92.5 346.5t-92.5 346t-251.5 251.5t-346 92.5q-140 0 -268 -55t-220.5 -147.5t-147.5 -220t-55 -267.5zM583 176v877q0 22 15.5 36.5t37.5 14.5h422q115 0 192.5 -23t120 -71t59.5 -110t17 -152q0 -229 -136 -317l123 -266q9 -19 -3 -29.5t-36 -10.5h-152h-5 q-17 0 -26.5 0.5t-21 6.5t-17.5 18l-103 221h-10h-233v-195q0 -22 -15 -36.5t-37 -14.5h-139q-22 0 -37.5 14.5t-15.5 36.5zM827 597h222q30 0 52.5 3.5t37.5 8.5t25.5 16.5t16 20.5t8 27.5t3 31t0.5 37.5q0 44 -2.5 64t-16 39.5t-43 26t-81.5 6.5h-222v-281z" />
<glyph unicode="&#xaf;" horiz-adv-x="925" d="M100 1458v84q0 24 16.5 41t40.5 17h611q24 0 40.5 -17t16.5 -41v-84q0 -24 -16.5 -41t-40.5 -17h-611q-24 0 -40.5 17t-16.5 41z" />
<glyph unicode="&#xb0;" horiz-adv-x="827" d="M100 1161q0 130 91.5 222t221.5 92t222 -92t92 -222t-92 -221.5t-222 -91.5t-221.5 91.5t-91.5 221.5zM282 1161q0 -55 38 -93t93 -38t93.5 38t38.5 93t-38.5 93.5t-93.5 38.5t-93 -38.5t-38 -93.5z" />
<glyph unicode="&#xb1;" horiz-adv-x="1100" d="M100 58v134q0 24 16.5 41t40.5 17h786q24 0 40.5 -17t16.5 -41v-134q0 -24 -16.5 -41t-40.5 -17h-786q-24 0 -40.5 17t-16.5 41zM100 703v134q0 24 16.5 41t40.5 17h268v248q0 24 17 40.5t41 16.5h134q24 0 41 -16.5t17 -40.5v-248h268q24 0 40.5 -17t16.5 -41v-134 q0 -24 -16.5 -41t-40.5 -17h-268v-248q0 -24 -17 -40.5t-41 -16.5h-134q-24 0 -41 16.5t-17 40.5v248h-268q-24 0 -40.5 17t-16.5 41z" />
<glyph unicode="&#xb4;" horiz-adv-x="721" d="M76 1381q4 23 23 36l358 251q20 14 43 9.5t37 -24.5l77 -110q14 -19 11.5 -45.5t-25.5 -34.5l-434 -141q-57 -17 -80 16q-14 20 -10 43z" />
<glyph unicode="&#xb6;" horiz-adv-x="1543" d="M100 1016q0 88 28.5 169t82.5 146.5t140.5 104.5t193.5 39h270q24 0 41 -16.5t17 -40.5v-1361q0 -24 -17 -40.5t-41 -16.5h-144q-24 0 -41 16.5t-17 40.5v503h-68q-107 0 -194 39t-140.5 104t-82 145.5t-28.5 167.5zM1133 57v1361q0 24 17 40.5t41 16.5h144 q24 0 41 -16.5t17 -40.5v-1361q0 -24 -17 -40.5t-41 -16.5h-144q-24 0 -41 16.5t-17 40.5z" />
<glyph unicode="&#xb7;" horiz-adv-x="560" d="M150 528v134q0 24 16.5 41t40.5 17h146q24 0 40.5 -17t16.5 -41v-134q0 -24 -16.5 -41t-40.5 -17h-146q-24 0 -40.5 17t-16.5 41z" />
<glyph unicode="&#xb8;" horiz-adv-x="600" d="M143 -303.5q0 23.5 17 41.5l12 13q17 18 39 20t39 -14q21 -24 52 -24q29 0 49.5 20t20.5 49t-20.5 49.5t-49.5 20.5q-24 0 -40.5 17t-16.5 41v75h57q84 0 143.5 -59.5t59.5 -143.5t-59.5 -143t-143.5 -59q-82 0 -141 57q-18 16 -18 39.5z" />
<glyph unicode="&#xbb;" horiz-adv-x="1260" d="M100.5 298.5q-3.5 22.5 11.5 42.5l217 278l-217 278q-15 20 -11.5 42.5t22.5 37.5l113 89q19 15 42.5 12.5t38.5 -21.5l315 -403q12 -17 12 -35q0 -19 -12 -35l-315 -403q-15 -19 -38.5 -21.5t-42.5 12.5l-113 89q-19 15 -22.5 37.5zM616.5 298.5q-3.5 22.5 11.5 42.5 l217 278l-217 278q-15 20 -11.5 42.5t22.5 37.5l113 89q19 15 42.5 12.5t38.5 -21.5l315 -403q12 -17 12 -35q0 -19 -12 -35l-315 -403q-15 -19 -38.5 -21.5t-42.5 12.5l-113 89q-19 15 -22.5 37.5z" />
<glyph unicode="&#xbf;" horiz-adv-x="1200" d="M100 169v38q0 391 338 438q57 14 78 49t21 94q0 24 17 40.5t41 16.5h144q24 0 41 -16.5t17 -40.5q0 -75 -17 -138.5t-53.5 -117.5t-100 -90t-150.5 -48q-36 -8 -58.5 -24.5t-32.5 -44.5t-12.5 -52.5t-2.5 -65.5v-38q0 -32 1.5 -51.5t6 -45t15.5 -40.5t28.5 -29.5 t46.5 -21t68 -6.5h118q58 0 94.5 14.5t53.5 44.5t22 59.5t5 75.5q0 24 16.5 41t40.5 17h156q24 0 40.5 -17t17.5 -41q0 -73 -12 -135.5t-43 -120.5t-79 -98.5t-125 -65t-177 -24.5h-128q-100 0 -177 24.5t-125 65t-79 98.5t-43 120.5t-12 135.5zM537 998v144q0 24 16.5 41 t40.5 17h146q24 0 40.5 -17t16.5 -41v-144q0 -24 -16.5 -41t-40.5 -17h-146q-24 0 -40.5 17t-16.5 41z" />
<glyph unicode="&#xc0;" horiz-adv-x="1378" d="M150 57v790q0 29 16 40l489 362q15 11 34 11t34 -11l489 -362q16 -11 16 -40v-790q0 -24 -17 -40.5t-41 -16.5h-154q-24 0 -41 16.5t-17 40.5v268h-538v-268q0 -24 -17 -40.5t-41 -16.5h-154q-24 0 -41 16.5t-17 40.5zM420 575h538v166l-269 194l-269 -194v-166z M450.5 1497.5q-2.5 26.5 11.5 45.5l77 110q14 20 37 24.5t43 -9.5l358 -251q19 -13 23 -36t-10 -43q-23 -33 -80 -16l-434 141q-23 8 -25.5 34.5z" />
<glyph unicode="&#xc1;" horiz-adv-x="1378" d="M150 57v790q0 29 16 40l489 362q15 11 34 11t34 -11l489 -362q16 -11 16 -40v-790q0 -24 -17 -40.5t-41 -16.5h-154q-24 0 -41 16.5t-17 40.5v268h-538v-268q0 -24 -17 -40.5t-41 -16.5h-154q-24 0 -41 16.5t-17 40.5zM364 1381q4 23 23 36l358 251q20 14 43 9.5 t37 -24.5l77 -110q14 -19 11.5 -45.5t-25.5 -34.5l-434 -141q-57 -17 -80 16q-14 20 -10 43zM420 575h538v166l-269 194l-269 -194v-166z" />
<glyph unicode="&#xc2;" horiz-adv-x="1378" d="M150 57v790q0 29 16 40l489 362q15 11 34 11t34 -11l489 -362q16 -11 16 -40v-790q0 -24 -17 -40.5t-41 -16.5h-154q-24 0 -41 16.5t-17 40.5v268h-538v-268q0 -24 -17 -40.5t-41 -16.5h-154q-24 0 -41 16.5t-17 40.5zM273.5 1314q-0.5 24 16.5 40l309 309q18 18 40 16 q22 2 40 -16l309 -309q17 -16 16.5 -40t-17.5 -41q-29 -29 -81 -1l-267 142l-267 -142q-52 -28 -81 1q-17 17 -17.5 41zM420 575h538v166l-269 194l-269 -194v-166z" />
<glyph unicode="&#xc3;" horiz-adv-x="1378" d="M150 57v790q0 29 16 40l489 362q15 11 34 11t34 -11l489 -362q16 -11 16 -40v-790q0 -24 -17 -40.5t-41 -16.5h-154q-24 0 -41 16.5t-17 40.5v268h-538v-268q0 -24 -17 -40.5t-41 -16.5h-154q-24 0 -41 16.5t-17 40.5zM216 1458q4 22 27 37l34 23q70 47 138.5 69.5 t118.5 22.5q42 0 81.5 -16.5t65 -36.5t54.5 -36.5t52 -16.5q30 0 72 27l87 56q19 13 42 9t37 -26l57 -88q14 -20 10 -42t-27 -37l-34 -23q-137 -92 -260 -92q-44 0 -83.5 16.5t-63.5 37t-51.5 37t-49.5 16.5q-31 0 -74 -28l-87 -56q-19 -13 -42 -9t-37 26l-57 88 q-14 20 -10 42zM420 575h538v166l-269 194l-269 -194v-166z" />
<glyph unicode="&#xc4;" horiz-adv-x="1378" d="M150 57v790q0 29 16 40l489 362q15 11 34 11t34 -11l489 -362q16 -11 16 -40v-790q0 -24 -17 -40.5t-41 -16.5h-154q-24 0 -41 16.5t-17 40.5v268h-538v-268q0 -24 -17 -40.5t-41 -16.5h-154q-24 0 -41 16.5t-17 40.5zM289 1398v144q0 24 16.5 41t40.5 17h146 q24 0 40.5 -17t16.5 -41v-144q0 -24 -16.5 -41t-40.5 -17h-146q-24 0 -40.5 17t-16.5 41zM420 575h538v166l-269 194l-269 -194v-166zM724 1398v144q0 24 16.5 41t40.5 17h146q24 0 40.5 -17t16.5 -41v-144q0 -24 -16.5 -41t-40.5 -17h-146q-24 0 -40.5 17t-16.5 41z" />
<glyph unicode="&#xc5;" horiz-adv-x="1378" d="M150 57v790q0 29 16 40l489 362q15 11 34 11t34 -11l489 -362q16 -11 16 -40v-790q0 -24 -17 -40.5t-41 -16.5h-154q-24 0 -41 16.5t-17 40.5v268h-538v-268q0 -24 -17 -40.5t-41 -16.5h-154q-24 0 -41 16.5t-17 40.5zM420 575h538v166l-269 194l-269 -194v-166z M440 1477q0 84 59 143.5t143 59.5t143.5 -59.5t59.5 -143.5t-59.5 -143t-143.5 -59t-143 59t-59 143zM560 1477q0 -34 24 -58t58 -24t58.5 24t24.5 58q0 35 -24.5 59t-58.5 24t-58 -24.5t-24 -58.5z" />
<glyph unicode="&#xc6;" horiz-adv-x="2028" d="M150 57v790q0 29 16 40l489 362q15 11 34 11t34 -11l235 -174v118q0 24 17 40.5t41 16.5h855q24 0 40.5 -17t16.5 -41v-134q0 -24 -16.5 -41t-40.5 -17h-643v-250h489q24 0 40.5 -17t16.5 -41v-134q0 -24 -16.5 -41t-40.5 -17h-489v-58q0 -83 68.5 -137.5t210.5 -54.5 h364q24 0 40.5 -17t16.5 -41v-134q0 -24 -16.5 -41t-40.5 -17h-352q-477 0 -549 325h-550v-268q0 -24 -17 -40.5t-41 -16.5h-154q-24 0 -41 16.5t-17 40.5zM420 575h538v166l-269 194l-269 -194v-166z" />
<glyph unicode="&#xc7;" horiz-adv-x="1226" d="M100 615q0 635 586 635h314q24 0 40.5 -17t16.5 -41v-134q0 -24 -16.5 -41t-40.5 -17h-317q-80 0 -140 -31.5t-94.5 -86.5t-51.5 -120.5t-17 -141.5q0 -70 18 -134.5t53.5 -119.5t97 -86.5t141.5 -28.5q97 4 160 28t175 93q49 29 79 -14l79 -107q15 -20 12 -42.5 t-22 -38.5q-112 -92 -223.5 -134t-259.5 -46q56 -23 91.5 -74t35.5 -114q0 -84 -59.5 -143t-143.5 -59q-82 0 -141 57q-18 16 -18 39.5t17 41.5l12 13q17 18 39 20t39 -14q21 -24 52 -24q29 0 49.5 20t20.5 49t-20.5 49.5t-49.5 20.5q-24 0 -40.5 17t-16.5 41v67 q-81 11 -148 40t-113.5 68t-82 90t-56.5 102.5t-34.5 110t-18 107.5t-4.5 100z" />
<glyph unicode="&#xc8;" horiz-adv-x="1210" d="M140 444v749q0 24 17 40.5t41 16.5h855q24 0 40.5 -17t16.5 -41v-134q0 -24 -16.5 -41t-40.5 -17h-643v-250h489q24 0 40.5 -17t16.5 -41v-134q0 -24 -16.5 -41t-40.5 -17h-489v-58q0 -83 68.5 -137.5t210.5 -54.5h364q24 0 40.5 -17t16.5 -41v-134q0 -24 -16.5 -41 t-40.5 -17h-352q-138 0 -242.5 28.5t-163.5 72t-95.5 105t-48 117.5t-11.5 121zM300.5 1597.5q-2.5 26.5 11.5 45.5l77 110q14 20 37 24.5t43 -9.5l358 -251q19 -13 23 -36t-10 -43q-23 -33 -80 -16l-434 141q-23 8 -25.5 34.5z" />
<glyph unicode="&#xc9;" horiz-adv-x="1210" d="M140 444v749q0 24 17 40.5t41 16.5h855q24 0 40.5 -17t16.5 -41v-134q0 -24 -16.5 -41t-40.5 -17h-643v-250h489q24 0 40.5 -17t16.5 -41v-134q0 -24 -16.5 -41t-40.5 -17h-489v-58q0 -83 68.5 -137.5t210.5 -54.5h364q24 0 40.5 -17t16.5 -41v-134q0 -24 -16.5 -41 t-40.5 -17h-352q-138 0 -242.5 28.5t-163.5 72t-95.5 105t-48 117.5t-11.5 121zM364 1481q4 23 23 36l358 251q20 14 43 9.5t37 -24.5l77 -110q14 -19 11.5 -45.5t-25.5 -34.5l-434 -141q-57 -17 -80 16q-14 20 -10 43z" />
<glyph unicode="&#xca;" horiz-adv-x="1210" d="M140 444v749q0 24 17 40.5t41 16.5h855q24 0 40.5 -17t16.5 -41v-134q0 -24 -16.5 -41t-40.5 -17h-643v-250h489q24 0 40.5 -17t16.5 -41v-134q0 -24 -16.5 -41t-40.5 -17h-489v-58q0 -83 68.5 -137.5t210.5 -54.5h364q24 0 40.5 -17t16.5 -41v-134q0 -24 -16.5 -41 t-40.5 -17h-352q-138 0 -242.5 28.5t-163.5 72t-95.5 105t-48 117.5t-11.5 121zM226.5 1439q-0.5 24 16.5 40l309 309q18 18 40 16q22 2 40 -16l309 -309q17 -16 16.5 -40t-17.5 -41q-29 -29 -81 -1l-267 142l-267 -142q-52 -28 -81 1q-17 17 -17.5 41z" />
<glyph unicode="&#xcb;" horiz-adv-x="1210" d="M140 444v749q0 24 17 40.5t41 16.5h855q24 0 40.5 -17t16.5 -41v-134q0 -24 -16.5 -41t-40.5 -17h-643v-250h489q24 0 40.5 -17t16.5 -41v-134q0 -24 -16.5 -41t-40.5 -17h-489v-58q0 -83 68.5 -137.5t210.5 -54.5h364q24 0 40.5 -17t16.5 -41v-134q0 -24 -16.5 -41 t-40.5 -17h-352q-138 0 -242.5 28.5t-163.5 72t-95.5 105t-48 117.5t-11.5 121zM254 1498v144q0 24 16.5 41t40.5 17h146q24 0 40.5 -17t16.5 -41v-144q0 -24 -16.5 -41t-40.5 -17h-146q-24 0 -40.5 17t-16.5 41zM689 1498v144q0 24 16.5 41t40.5 17h146q24 0 40.5 -17 t16.5 -41v-144q0 -24 -16.5 -41t-40.5 -17h-146q-24 0 -40.5 17t-16.5 41z" />
<glyph unicode="&#xcc;" horiz-adv-x="740" d="M75.5 1597.5q-2.5 26.5 11.5 45.5l77 110q14 20 37 24.5t43 -9.5l358 -251q19 -13 23 -36t-10 -43q-23 -33 -80 -16l-434 141q-23 8 -25.5 34.5zM100 58v134q0 24 16.5 41t40.5 17h78v750h-78q-24 0 -40.5 17t-16.5 41v134q0 24 16.5 41t40.5 17h426q24 0 40.5 -17 t16.5 -41v-134q0 -24 -16.5 -41t-40.5 -17h-78v-750h78q24 0 40.5 -17t16.5 -41v-134q0 -24 -16.5 -41t-40.5 -17h-426q-24 0 -40.5 17t-16.5 41z" />
<glyph unicode="&#xcd;" horiz-adv-x="740" d="M100 58v134q0 24 16.5 41t40.5 17h78v750h-78q-24 0 -40.5 17t-16.5 41v134q0 24 16.5 41t40.5 17h426q24 0 40.5 -17t16.5 -41v-134q0 -24 -16.5 -41t-40.5 -17h-78v-750h78q24 0 40.5 -17t16.5 -41v-134q0 -24 -16.5 -41t-40.5 -17h-426q-24 0 -40.5 17t-16.5 41z M111 1481q4 23 23 36l358 251q20 14 43 9.5t37 -24.5l77 -110q14 -19 11.5 -45.5t-25.5 -34.5l-434 -141q-57 -17 -80 16q-14 20 -10 43z" />
<glyph unicode="&#xce;" horiz-adv-x="740" d="M-0.5 1414q-0.5 24 16.5 40l309 309q18 18 40 16q22 2 40 -16l309 -309q17 -16 16.5 -40t-17.5 -41q-29 -29 -81 -1l-267 142l-267 -142q-52 -28 -81 1q-17 17 -17.5 41zM100 58v134q0 24 16.5 41t40.5 17h78v750h-78q-24 0 -40.5 17t-16.5 41v134q0 24 16.5 41t40.5 17 h426q24 0 40.5 -17t16.5 -41v-134q0 -24 -16.5 -41t-40.5 -17h-78v-750h78q24 0 40.5 -17t16.5 -41v-134q0 -24 -16.5 -41t-40.5 -17h-426q-24 0 -40.5 17t-16.5 41z" />
<glyph unicode="&#xcf;" horiz-adv-x="740" d="M30 1498v144q0 24 16.5 41t40.5 17h146q24 0 40.5 -17t16.5 -41v-144q0 -24 -16.5 -41t-40.5 -17h-146q-24 0 -40.5 17t-16.5 41zM100 58v134q0 24 16.5 41t40.5 17h78v750h-78q-24 0 -40.5 17t-16.5 41v134q0 24 16.5 41t40.5 17h426q24 0 40.5 -17t16.5 -41v-134 q0 -24 -16.5 -41t-40.5 -17h-78v-750h78q24 0 40.5 -17t16.5 -41v-134q0 -24 -16.5 -41t-40.5 -17h-426q-24 0 -40.5 17t-16.5 41zM465 1498v144q0 24 16.5 41t40.5 17h146q24 0 40.5 -17t16.5 -41v-144q0 -24 -16.5 -41t-40.5 -17h-146q-24 0 -40.5 17t-16.5 41z" />
<glyph unicode="&#xd0;" horiz-adv-x="1410" d="M5 563v134q0 24 16.5 41t40.5 17h88v438q0 24 17 40.5t41 16.5h508q107 0 194 -18t148 -48t106.5 -77t73 -97.5t44 -116.5t22.5 -128.5t6 -137.5q0 -108 -12 -191.5t-49.5 -168.5t-100.5 -141t-171.5 -91t-255.5 -35h-513q-24 0 -41 16.5t-17 40.5v448h-88 q-24 0 -40.5 17t-16.5 41zM420 250h300q169 0 239.5 91t70.5 284t-71.5 284t-245.5 91h-293v-245h78q24 0 40.5 -17t16.5 -41v-134q0 -24 -16.5 -41t-40.5 -17h-78v-255z" />
<glyph unicode="&#xd1;" horiz-adv-x="1368" d="M150 57v1136q0 24 17 40.5t41 16.5h154q24 0 41 -16.5t17 -40.5v-73q157 86 245 113t153 27q205 0 315 -136.5t110 -415.5v-651q0 -24 -17 -40.5t-41 -16.5h-154q-24 0 -41 16.5t-17 40.5v622q0 46 -1.5 79.5t-6.5 73t-15.5 66.5t-27 51t-43 36t-60.5 12 q-121 0 -399 -168v-772q0 -24 -17 -40.5t-41 -16.5h-154q-24 0 -41 16.5t-17 40.5zM234 1558q4 22 27 37l34 23q70 47 138.5 69.5t118.5 22.5q42 0 81.5 -16.5t65 -36.5t54.5 -36.5t52 -16.5q30 0 72 27l87 56q19 13 42 9t37 -26l57 -88q14 -20 10 -42t-27 -37l-34 -23 q-137 -92 -260 -92q-44 0 -83.5 16.5t-63.5 37t-51.5 37t-49.5 16.5q-31 0 -74 -28l-87 -56q-19 -13 -42 -9t-37 26l-57 88q-14 20 -10 42z" />
<glyph unicode="&#xd2;" horiz-adv-x="1366" d="M100 632q0 131 13 227.5t44 167t74.5 115t112 71.5t148.5 37t191 10t191 -10t148.5 -37t112 -71.5t74.5 -115t44 -167t13 -227.5q0 -106 -10 -193t-29 -149.5t-45 -112t-58 -80.5t-69 -53.5t-76.5 -32t-81.5 -16.5t-84.5 -5.5t-85.5 0.5h-14.5h-14h-15.5q-85 0 -147.5 5 t-122.5 17.5t-101.5 34t-79 55.5t-60.5 81t-40 112.5t-24.5 148t-7.5 188.5zM381 631q0 -82 8.5 -143t27 -102.5t42 -68.5t60 -41.5t74 -20t90.5 -5.5q80 0 130.5 13.5t92.5 53t60.5 116.5t18.5 198q0 96 -13 163.5t-35.5 107.5t-62 62t-82 29t-106.5 7q-67 0 -110 -7 t-83.5 -28.5t-63 -62t-35.5 -107.5t-13 -164zM399.5 1597.5q-2.5 26.5 11.5 45.5l77 110q14 20 37 24.5t43 -9.5l358 -251q19 -13 23 -36t-10 -43q-23 -33 -80 -16l-434 141q-23 8 -25.5 34.5z" />
<glyph unicode="&#xd3;" horiz-adv-x="1366" d="M100 632q0 131 13 227.5t44 167t74.5 115t112 71.5t148.5 37t191 10t191 -10t148.5 -37t112 -71.5t74.5 -115t44 -167t13 -227.5q0 -106 -10 -193t-29 -149.5t-45 -112t-58 -80.5t-69 -53.5t-76.5 -32t-81.5 -16.5t-84.5 -5.5t-85.5 0.5h-14.5h-14h-15.5q-85 0 -147.5 5 t-122.5 17.5t-101.5 34t-79 55.5t-60.5 81t-40 112.5t-24.5 148t-7.5 188.5zM364 1481q4 23 23 36l358 251q20 14 43 9.5t37 -24.5l77 -110q14 -19 11.5 -45.5t-25.5 -34.5l-434 -141q-57 -17 -80 16q-14 20 -10 43zM381 631q0 -82 8.5 -143t27 -102.5t42 -68.5t60 -41.5 t74 -20t90.5 -5.5q80 0 130.5 13.5t92.5 53t60.5 116.5t18.5 198q0 96 -13 163.5t-35.5 107.5t-62 62t-82 29t-106.5 7q-67 0 -110 -7t-83.5 -28.5t-63 -62t-35.5 -107.5t-13 -164z" />
<glyph unicode="&#xd4;" horiz-adv-x="1366" d="M100 632q0 131 13 227.5t44 167t74.5 115t112 71.5t148.5 37t191 10t191 -10t148.5 -37t112 -71.5t74.5 -115t44 -167t13 -227.5q0 -106 -10 -193t-29 -149.5t-45 -112t-58 -80.5t-69 -53.5t-76.5 -32t-81.5 -16.5t-84.5 -5.5t-85.5 0.5h-14.5h-14h-15.5q-85 0 -147.5 5 t-122.5 17.5t-101.5 34t-79 55.5t-60.5 81t-40 112.5t-24.5 148t-7.5 188.5zM288.5 1414q-0.5 24 16.5 40l309 309q18 18 40 16q22 2 40 -16l309 -309q17 -16 16.5 -40t-17.5 -41q-29 -29 -81 -1l-267 142l-267 -142q-52 -28 -81 1q-17 17 -17.5 41zM381 631q0 -82 8.5 -143 t27 -102.5t42 -68.5t60 -41.5t74 -20t90.5 -5.5q80 0 130.5 13.5t92.5 53t60.5 116.5t18.5 198q0 96 -13 163.5t-35.5 107.5t-62 62t-82 29t-106.5 7q-67 0 -110 -7t-83.5 -28.5t-63 -62t-35.5 -107.5t-13 -164z" />
<glyph unicode="&#xd5;" horiz-adv-x="1366" d="M100 632q0 131 13 227.5t44 167t74.5 115t112 71.5t148.5 37t191 10t191 -10t148.5 -37t112 -71.5t74.5 -115t44 -167t13 -227.5q0 -106 -10 -193t-29 -149.5t-45 -112t-58 -80.5t-69 -53.5t-76.5 -32t-81.5 -16.5t-84.5 -5.5t-85.5 0.5h-14.5h-14h-15.5q-85 0 -147.5 5 t-122.5 17.5t-101.5 34t-79 55.5t-60.5 81t-40 112.5t-24.5 148t-7.5 188.5zM232 1558q4 22 27 37l34 23q70 47 138.5 69.5t118.5 22.5q42 0 81.5 -16.5t65 -36.5t54.5 -36.5t52 -16.5q30 0 72 27l87 56q19 13 42 9t37 -26l57 -88q14 -20 10 -42t-27 -37l-34 -23 q-137 -92 -260 -92q-44 0 -83.5 16.5t-63.5 37t-51.5 37t-49.5 16.5q-31 0 -74 -28l-87 -56q-19 -13 -42 -9t-37 26l-57 88q-14 20 -10 42zM381 631q0 -82 8.5 -143t27 -102.5t42 -68.5t60 -41.5t74 -20t90.5 -5.5q80 0 130.5 13.5t92.5 53t60.5 116.5t18.5 198 q0 96 -13 163.5t-35.5 107.5t-62 62t-82 29t-106.5 7q-67 0 -110 -7t-83.5 -28.5t-63 -62t-35.5 -107.5t-13 -164z" />
<glyph unicode="&#xd6;" horiz-adv-x="1366" d="M100 632q0 131 13 227.5t44 167t74.5 115t112 71.5t148.5 37t191 10t191 -10t148.5 -37t112 -71.5t74.5 -115t44 -167t13 -227.5q0 -106 -10 -193t-29 -149.5t-45 -112t-58 -80.5t-69 -53.5t-76.5 -32t-81.5 -16.5t-84.5 -5.5t-85.5 0.5h-14.5h-14h-15.5q-85 0 -147.5 5 t-122.5 17.5t-101.5 34t-79 55.5t-60.5 81t-40 112.5t-24.5 148t-7.5 188.5zM289 1498v144q0 24 16.5 41t40.5 17h146q24 0 40.5 -17t16.5 -41v-144q0 -24 -16.5 -41t-40.5 -17h-146q-24 0 -40.5 17t-16.5 41zM381 631q0 -82 8.5 -143t27 -102.5t42 -68.5t60 -41.5t74 -20 t90.5 -5.5q80 0 130.5 13.5t92.5 53t60.5 116.5t18.5 198q0 96 -13 163.5t-35.5 107.5t-62 62t-82 29t-106.5 7q-67 0 -110 -7t-83.5 -28.5t-63 -62t-35.5 -107.5t-13 -164zM724 1498v144q0 24 16.5 41t40.5 17h146q24 0 40.5 -17t16.5 -41v-144q0 -24 -16.5 -41t-40.5 -17 h-146q-24 0 -40.5 17t-16.5 41z" />
<glyph unicode="&#xd7;" horiz-adv-x="966" d="M100.5 369.5q-0.5 23.5 16.5 40.5l190 190l-190 190q-17 17 -16.5 40.5t17.5 40.5l94 95q18 17 41 17.5t41 -17.5l190 -189l189 189q18 18 40.5 17.5t40.5 -17.5l95 -95q17 -18 17.5 -40.5t-16.5 -40.5l-190 -190l190 -190q16 -17 16 -40.5t-17 -40.5l-95 -95 q-17 -17 -40.5 -17t-40.5 17l-189 190l-190 -190q-17 -17 -41 -17t-41 17l-94 95q-17 17 -17.5 40.5z" />
<glyph unicode="&#xd8;" horiz-adv-x="1366" d="M100 632q0 131 13 227.5t44 167t74.5 115t112 71.5t148.5 37t191 10t191 -10t148.5 -37t112 -71.5t74.5 -115t44 -167t13 -227.5q0 -106 -10 -193t-29 -149.5t-45 -112t-58 -80.5t-69 -53.5t-76.5 -32t-81.5 -16.5t-84.5 -5.5t-85.5 0.5h-14.5h-14h-15.5q-59 0 -111 3 l-38 -104q-8 -23 -29.5 -32t-44.5 -1l-135 49q-23 8 -33 29t-2 44l24 67q-114 55 -164 190t-50 397zM381 631q0 -185 47 -271l232 640q-76 -2 -123 -15.5t-85 -52t-54.5 -112t-16.5 -189.5zM665 250h18q80 0 130.5 13.5t92.5 53t60.5 116.5t18.5 198q0 222 -72 302z" />
<glyph unicode="&#xd9;" horiz-adv-x="1370" d="M125 703v490q0 24 17 40.5t41 16.5h154q24 0 41 -16.5t17 -40.5v-466q0 -101 6.5 -176t15 -126.5t31 -84.5t39 -51.5t55 -27t64 -10t79.5 -1.5t79.5 1.5t64 10t55 27t39 51.5t31 84.5t15 126.5t6.5 176v466q0 24 17 40.5t41 16.5h154q24 0 41 -16.5t17 -40.5v-487 q0 -140 -8.5 -238.5t-32 -183t-63 -137t-102.5 -89.5t-149 -52.5t-205 -15.5t-205 15.5t-149 52.5t-102.5 89t-63 136t-32 182t-8.5 238zM373.5 1597.5q-2.5 26.5 11.5 45.5l77 110q14 20 37 24.5t43 -9.5l358 -251q19 -13 23 -36t-10 -43q-23 -33 -80 -16l-434 141 q-23 8 -25.5 34.5z" />
<glyph unicode="&#xda;" horiz-adv-x="1370" d="M125 703v490q0 24 17 40.5t41 16.5h154q24 0 41 -16.5t17 -40.5v-466q0 -101 6.5 -176t15 -126.5t31 -84.5t39 -51.5t55 -27t64 -10t79.5 -1.5t79.5 1.5t64 10t55 27t39 51.5t31 84.5t15 126.5t6.5 176v466q0 24 17 40.5t41 16.5h154q24 0 41 -16.5t17 -40.5v-487 q0 -140 -8.5 -238.5t-32 -183t-63 -137t-102.5 -89.5t-149 -52.5t-205 -15.5t-205 15.5t-149 52.5t-102.5 89t-63 136t-32 182t-8.5 238zM420 1481q4 23 23 36l358 251q20 14 43 9.5t37 -24.5l77 -110q14 -19 11.5 -45.5t-25.5 -34.5l-434 -141q-57 -17 -80 16 q-14 20 -10 43z" />
<glyph unicode="&#xdb;" horiz-adv-x="1370" d="M125 703v490q0 24 17 40.5t41 16.5h154q24 0 41 -16.5t17 -40.5v-466q0 -101 6.5 -176t15 -126.5t31 -84.5t39 -51.5t55 -27t64 -10t79.5 -1.5t79.5 1.5t64 10t55 27t39 51.5t31 84.5t15 126.5t6.5 176v466q0 24 17 40.5t41 16.5h154q24 0 41 -16.5t17 -40.5v-487 q0 -140 -8.5 -238.5t-32 -183t-63 -137t-102.5 -89.5t-149 -52.5t-205 -15.5t-205 15.5t-149 52.5t-102.5 89t-63 136t-32 182t-8.5 238zM273.5 1414q-0.5 24 16.5 40l309 309q18 18 40 16q22 2 40 -16l309 -309q17 -16 16.5 -40t-17.5 -41q-29 -29 -81 -1l-267 142 l-267 -142q-52 -28 -81 1q-17 17 -17.5 41z" />
<glyph unicode="&#xdc;" horiz-adv-x="1370" d="M125 703v490q0 24 17 40.5t41 16.5h154q24 0 41 -16.5t17 -40.5v-466q0 -101 6.5 -176t15 -126.5t31 -84.5t39 -51.5t55 -27t64 -10t79.5 -1.5t79.5 1.5t64 10t55 27t39 51.5t31 84.5t15 126.5t6.5 176v466q0 24 17 40.5t41 16.5h154q24 0 41 -16.5t17 -40.5v-487 q0 -140 -8.5 -238.5t-32 -183t-63 -137t-102.5 -89.5t-149 -52.5t-205 -15.5t-205 15.5t-149 52.5t-102.5 89t-63 136t-32 182t-8.5 238zM289 1498v144q0 24 16.5 41t40.5 17h146q24 0 40.5 -17t16.5 -41v-144q0 -24 -16.5 -41t-40.5 -17h-146q-24 0 -40.5 17t-16.5 41z M724 1498v144q0 24 16.5 41t40.5 17h146q24 0 40.5 -17t16.5 -41v-144q0 -24 -16.5 -41t-40.5 -17h-146q-24 0 -40.5 17t-16.5 41z" />
<glyph unicode="&#xdd;" horiz-adv-x="1338" d="M130 727v466q0 24 17 40.5t41 16.5h154q24 0 41 -16.5t17 -40.5v-331l269 -170l269 170v331q0 24 17 40.5t41 16.5h154q24 0 41 -16.5t17 -40.5v-466q0 -30 -16 -40l-389 -245v-385q0 -24 -17 -40.5t-41 -16.5h-154q-24 0 -41 16.5t-17 40.5v385l-387 245q-16 10 -16 40z M389 1481q4 23 23 36l358 251q20 14 43 9.5t37 -24.5l77 -110q14 -19 11.5 -45.5t-25.5 -34.5l-434 -141q-57 -17 -80 16q-14 20 -10 43z" />
<glyph unicode="&#xde;" horiz-adv-x="1285" d="M150 57v1136q0 24 17 40.5t41 16.5h154q24 0 41 -16.5t17 -40.5v-118h346q102 0 177 -20t123 -55.5t77 -91.5t40.5 -122t11.5 -154q0 -85 -11.5 -151t-41 -125t-77 -97.5t-122.5 -61t-175 -22.5h-348v-118q0 -24 -17 -40.5t-41 -16.5h-154q-24 0 -41 16.5t-17 40.5z M420 425h336q33 0 57.5 4t41.5 10t28 20.5t17.5 26.5t9.5 37.5t3.5 45t0.5 56.5q0 36 -0.5 55t-3.5 44.5t-9.5 38t-17.5 27t-28 20.5t-41.5 10.5t-57.5 4.5h-336v-400z" />
<glyph unicode="&#xdf;" horiz-adv-x="1407" d="M150 57v970q1 72 14 134t44.5 121t79.5 101t124 67t173 25h85q100 0 177 -26.5t125 -69.5t79 -104.5t43 -125.5t12 -138v-193q211 -102 211 -417v-1q0 -49 -12.5 -99.5t-44 -105.5t-78.5 -97.5t-125 -70t-176 -27.5h-214q-24 0 -40.5 17t-16.5 41v134q0 24 16.5 41 t40.5 17h204q45 0 78 14t49.5 32t26 42.5t11 38t1.5 25.5q0 38 -2 62.5t-11 56t-26 49.5t-49 31t-78 13h-298q-24 0 -40.5 17t-16.5 41v134q0 24 16.5 41t40.5 17h263v147q0 40 -2 64.5t-10.5 56.5t-25.5 49.5t-49.5 30.5t-78.5 13h-75q-58 0 -96 -17t-56.5 -49t-25.5 -66.5 t-7 -81.5v-954q0 -24 -17 -40.5t-41 -16.5h-144q-24 0 -41 16.5t-17 40.5z" />
<glyph unicode="&#xe0;" d="M100 603q0 143 18 248t49.5 171.5t81.5 106.5t108 55.5t135 15.5h536q29 0 49.5 -19.5t20.5 -48.5v-1064q0 -28 -20.5 -48t-49.5 -20h-120q-29 0 -49.5 20t-20.5 48v77q-107 -89 -182 -122t-166 -33q-208 0 -299 147.5t-91 465.5zM350 598q0 -157 13.5 -230t47 -100.5 t106.5 -27.5q53 0 92 9.5t78.5 37t68 55.5t82.5 87v521h-365q-74 0 -98.5 -71.5t-24.5 -280.5zM362.5 1497.5q-2.5 26.5 11.5 45.5l77 110q14 20 37 24.5t43 -9.5l358 -251q19 -13 23 -36t-10 -43q-23 -33 -80 -16l-434 141q-23 8 -25.5 34.5z" />
<glyph unicode="&#xe1;" d="M100 603q0 143 18 248t49.5 171.5t81.5 106.5t108 55.5t135 15.5h536q29 0 49.5 -19.5t20.5 -48.5v-1064q0 -28 -20.5 -48t-49.5 -20h-120q-29 0 -49.5 20t-20.5 48v77q-107 -89 -182 -122t-166 -33q-208 0 -299 147.5t-91 465.5zM350 598q0 -157 13.5 -230t47 -100.5 t106.5 -27.5q53 0 92 9.5t78.5 37t68 55.5t82.5 87v521h-365q-74 0 -98.5 -71.5t-24.5 -280.5zM395 1381q4 23 23 36l358 251q20 14 43 9.5t37 -24.5l77 -110q14 -19 11.5 -45.5t-25.5 -34.5l-434 -141q-57 -17 -80 16q-14 20 -10 43z" />
<glyph unicode="&#xe2;" d="M100 603q0 143 18 248t49.5 171.5t81.5 106.5t108 55.5t135 15.5h536q29 0 49.5 -19.5t20.5 -48.5v-1064q0 -28 -20.5 -48t-49.5 -20h-120q-29 0 -49.5 20t-20.5 48v77q-107 -89 -182 -122t-166 -33q-208 0 -299 147.5t-91 465.5zM234.5 1314q-0.5 24 16.5 40l309 309 q18 18 40 16q22 2 40 -16l309 -309q17 -16 16.5 -40t-17.5 -41q-29 -29 -81 -1l-267 142l-267 -142q-52 -28 -81 1q-17 17 -17.5 41zM350 598q0 -157 13.5 -230t47 -100.5t106.5 -27.5q53 0 92 9.5t78.5 37t68 55.5t82.5 87v521h-365q-74 0 -98.5 -71.5t-24.5 -280.5z" />
<glyph unicode="&#xe3;" d="M100 603q0 143 18 248t49.5 171.5t81.5 106.5t108 55.5t135 15.5h536q29 0 49.5 -19.5t20.5 -48.5v-1064q0 -28 -20.5 -48t-49.5 -20h-120q-29 0 -49.5 20t-20.5 48v77q-107 -89 -182 -122t-166 -33q-208 0 -299 147.5t-91 465.5zM199 1458q4 22 27 37l34 23 q70 47 138.5 69.5t118.5 22.5q42 0 81.5 -16.5t65 -36.5t54.5 -36.5t52 -16.5q30 0 72 27l87 56q19 13 42 9t37 -26l57 -88q14 -20 10 -42t-27 -37l-34 -23q-137 -92 -260 -92q-44 0 -83.5 16.5t-63.5 37t-51.5 37t-49.5 16.5q-31 0 -74 -28l-87 -56q-19 -13 -42 -9t-37 26 l-57 88q-14 20 -10 42zM350 598q0 -157 13.5 -230t47 -100.5t106.5 -27.5q53 0 92 9.5t78.5 37t68 55.5t82.5 87v521h-365q-74 0 -98.5 -71.5t-24.5 -280.5z" />
<glyph unicode="&#xe4;" d="M100 603q0 143 18 248t49.5 171.5t81.5 106.5t108 55.5t135 15.5h536q29 0 49.5 -19.5t20.5 -48.5v-1064q0 -28 -20.5 -48t-49.5 -20h-120q-29 0 -49.5 20t-20.5 48v77q-107 -89 -182 -122t-166 -33q-208 0 -299 147.5t-91 465.5zM290 1398v144q0 24 16.5 41t40.5 17h146 q24 0 40.5 -17t16.5 -41v-144q0 -24 -16.5 -41t-40.5 -17h-146q-24 0 -40.5 17t-16.5 41zM350 598q0 -157 13.5 -230t47 -100.5t106.5 -27.5q53 0 92 9.5t78.5 37t68 55.5t82.5 87v521h-365q-74 0 -98.5 -71.5t-24.5 -280.5zM725 1398v144q0 24 16.5 41t40.5 17h146 q24 0 40.5 -17t16.5 -41v-144q0 -24 -16.5 -41t-40.5 -17h-146q-24 0 -40.5 17t-16.5 41z" />
<glyph unicode="&#xe5;" d="M100 603q0 143 18 248t49.5 171.5t81.5 106.5t108 55.5t135 15.5h536q29 0 49.5 -19.5t20.5 -48.5v-1064q0 -28 -20.5 -48t-49.5 -20h-120q-29 0 -49.5 20t-20.5 48v77q-107 -89 -182 -122t-166 -33q-208 0 -299 147.5t-91 465.5zM350 598q0 -157 13.5 -230t47 -100.5 t106.5 -27.5q53 0 92 9.5t78.5 37t68 55.5t82.5 87v521h-365q-74 0 -98.5 -71.5t-24.5 -280.5zM430 1477q0 84 59 143.5t143 59.5t143.5 -59.5t59.5 -143.5t-59.5 -143t-143.5 -59t-143 59t-59 143zM550 1477q0 -34 24 -58t58 -24t58.5 24t24.5 58q0 35 -24.5 59t-58.5 24 t-58 -24.5t-24 -58.5z" />
<glyph unicode="&#xe6;" horiz-adv-x="1901" d="M100 410q0 100 27 166.5t82 101t121 47.5t162 13h346q0 38 -2 62.5t-11 56t-26 49.5t-49 31t-78 13h-432q-24 0 -40.5 17t-16.5 41v134q0 24 16.5 41t40.5 17h432q182 0 284 -87q100 97 356 97h12q119 0 199.5 -19t135.5 -57.5t85.5 -109.5t43 -162t13.5 -229v-4v-71 q0 -29 -19.5 -49.5t-49.5 -20.5h-640q4 -61 18 -103.5t45.5 -77.5t89 -51t142.5 -15q117 2 267 79q29 15 52 15q28 0 42 -32l42 -92q16 -34 16 -53q0 -31 -28 -44q-142 -75 -218 -99.5t-173 -24.5q-332 0 -463 222q-69 -73 -125 -119.5t-103 -68t-81.5 -28t-79.5 -6.5 q-102 0 -180.5 25t-125.5 65t-77 96.5t-41 113t-11 120.5zM350 395q0 -72 37 -113.5t137 -41.5q50 0 88.5 10.5t77 38t68 56t80.5 84.5v59h-365q-74 0 -98.5 -18.5t-24.5 -74.5zM1090 698h460q-2 74 -10.5 119.5t-22 75.5t-42 44t-61 18.5t-90.5 4.5h-12q-70 0 -106.5 -7 t-65 -35t-38 -78.5t-12.5 -141.5z" />
<glyph unicode="&#xe7;" horiz-adv-x="1128" d="M100 602v2q0 143 17.5 247.5t49 171.5t82 106.5t108 55t135.5 15.5h428q30 0 49 -20t19 -50v-110q0 -30 -19 -50t-49 -20h-454q-69 0 -92 -87.5t-23 -268.5q0 -30 1 -51t7.5 -61t16.5 -69t31.5 -63.5t50.5 -57t75 -37.5t103 -15q53 0 97.5 21t185.5 109q24 15 42 15 q33 0 53 -31l49 -79q15 -24 15 -44q0 -32 -27 -53q-137 -111 -231.5 -148.5t-186.5 -39.5q57 -23 92 -74t35 -114q0 -84 -59.5 -143t-143.5 -59q-82 0 -141 57q-18 16 -18 39.5t17 41.5l12 13q17 18 39 20t39 -14q21 -24 52 -24q29 0 49.5 20t20.5 49t-20.5 49.5t-49.5 20.5 q-24 0 -40.5 17t-16.5 41v71q-188 34 -293.5 183.5t-106.5 417.5z" />
<glyph unicode="&#xe8;" horiz-adv-x="1163" d="M100 602q0 3 1 5v1q0 120 7.5 204t27.5 155t53 114t86.5 73.5t125.5 43t173 12.5h12q119 0 199.5 -19t135.5 -57.5t85.5 -109.5t43 -162t13.5 -229v-4v-71q0 -29 -19.5 -49.5t-49.5 -20.5h-640q4 -61 18 -103.5t45.5 -77.5t89 -51t142.5 -15q117 2 267 79q29 15 52 15 q28 0 42 -32l42 -92q16 -34 16 -53q0 -31 -28 -44q-142 -75 -218 -99.5t-173 -24.5q-549 0 -549 612zM305.5 1497.5q-2.5 26.5 11.5 45.5l77 110q14 20 37 24.5t43 -9.5l358 -251q19 -13 23 -36t-10 -43q-23 -33 -80 -16l-434 141q-23 8 -25.5 34.5zM352 698h460 q-2 74 -10.5 119.5t-22 75.5t-42 44t-61 18.5t-90.5 4.5h-12q-70 0 -106.5 -7t-65 -35t-38 -78.5t-12.5 -141.5z" />
<glyph unicode="&#xe9;" horiz-adv-x="1163" d="M100 602q0 3 1 5v1q0 120 7.5 204t27.5 155t53 114t86.5 73.5t125.5 43t173 12.5h12q119 0 199.5 -19t135.5 -57.5t85.5 -109.5t43 -162t13.5 -229v-4v-71q0 -29 -19.5 -49.5t-49.5 -20.5h-640q4 -61 18 -103.5t45.5 -77.5t89 -51t142.5 -15q117 2 267 79q29 15 52 15 q28 0 42 -32l42 -92q16 -34 16 -53q0 -31 -28 -44q-142 -75 -218 -99.5t-173 -24.5q-549 0 -549 612zM297 1381q4 23 23 36l358 251q20 14 43 9.5t37 -24.5l77 -110q14 -19 11.5 -45.5t-25.5 -34.5l-434 -141q-57 -17 -80 16q-14 20 -10 43zM352 698h460q-2 74 -10.5 119.5 t-22 75.5t-42 44t-61 18.5t-90.5 4.5h-12q-70 0 -106.5 -7t-65 -35t-38 -78.5t-12.5 -141.5z" />
<glyph unicode="&#xea;" horiz-adv-x="1163" d="M100 602q0 3 1 5v1q0 120 7.5 204t27.5 155t53 114t86.5 73.5t125.5 43t173 12.5h12q119 0 199.5 -19t135.5 -57.5t85.5 -109.5t43 -162t13.5 -229v-4v-71q0 -29 -19.5 -49.5t-49.5 -20.5h-640q4 -61 18 -103.5t45.5 -77.5t89 -51t142.5 -15q117 2 267 79q29 15 52 15 q28 0 42 -32l42 -92q16 -34 16 -53q0 -31 -28 -44q-142 -75 -218 -99.5t-173 -24.5q-549 0 -549 612zM203.5 1314q-0.5 24 16.5 40l309 309q18 18 40 16q22 2 40 -16l309 -309q17 -16 16.5 -40t-17.5 -41q-29 -29 -81 -1l-267 142l-267 -142q-52 -28 -81 1q-17 17 -17.5 41z M352 698h460q-2 74 -10.5 119.5t-22 75.5t-42 44t-61 18.5t-90.5 4.5h-12q-70 0 -106.5 -7t-65 -35t-38 -78.5t-12.5 -141.5z" />
<glyph unicode="&#xeb;" horiz-adv-x="1163" d="M100 602q0 3 1 5v1q0 120 7.5 204t27.5 155t53 114t86.5 73.5t125.5 43t173 12.5h12q119 0 199.5 -19t135.5 -57.5t85.5 -109.5t43 -162t13.5 -229v-4v-71q0 -29 -19.5 -49.5t-49.5 -20.5h-640q4 -61 18 -103.5t45.5 -77.5t89 -51t142.5 -15q117 2 267 79q29 15 52 15 q28 0 42 -32l42 -92q16 -34 16 -53q0 -31 -28 -44q-142 -75 -218 -99.5t-173 -24.5q-549 0 -549 612zM219 1398v144q0 24 16.5 41t40.5 17h146q24 0 40.5 -17t16.5 -41v-144q0 -24 -16.5 -41t-40.5 -17h-146q-24 0 -40.5 17t-16.5 41zM352 698h460q-2 74 -10.5 119.5 t-22 75.5t-42 44t-61 18.5t-90.5 4.5h-12q-70 0 -106.5 -7t-65 -35t-38 -78.5t-12.5 -141.5zM654 1398v144q0 24 16.5 41t40.5 17h146q24 0 40.5 -17t16.5 -41v-144q0 -24 -16.5 -41t-40.5 -17h-146q-24 0 -40.5 17t-16.5 41z" />
<glyph unicode="&#xec;" horiz-adv-x="640" d="M50 58v134q0 24 16.5 41t40.5 17h87v700h-87q-24 0 -40.5 17t-16.5 41v134q0 24 16.5 41t40.5 17h289q24 0 41 -16.5t17 -40.5v-893h79q24 0 40.5 -17t16.5 -41v-134q0 -24 -16.5 -41t-40.5 -17h-426q-24 0 -40.5 17t-16.5 41zM75.5 1497.5q-2.5 26.5 11.5 45.5l77 110 q14 20 37 24.5t43 -9.5l358 -251q19 -13 23 -36t-10 -43q-23 -33 -80 -16l-434 141q-23 8 -25.5 34.5z" />
<glyph unicode="&#xed;" horiz-adv-x="640" d="M-17 1381q4 23 23 36l358 251q20 14 43 9.5t37 -24.5l77 -110q14 -19 11.5 -45.5t-25.5 -34.5l-434 -141q-57 -17 -80 16q-14 20 -10 43zM50 58v134q0 24 16.5 41t40.5 17h87v700h-87q-24 0 -40.5 17t-16.5 41v134q0 24 16.5 41t40.5 17h289q24 0 41 -16.5t17 -40.5v-893 h79q24 0 40.5 -17t16.5 -41v-134q0 -24 -16.5 -41t-40.5 -17h-426q-24 0 -40.5 17t-16.5 41z" />
<glyph unicode="&#xee;" horiz-adv-x="640" d="M-59.5 1314q-0.5 24 16.5 40l309 309q18 18 40 16q22 2 40 -16l309 -309q17 -16 16.5 -40t-17.5 -41q-29 -29 -81 -1l-267 142l-267 -142q-52 -28 -81 1q-17 17 -17.5 41zM50 58v134q0 24 16.5 41t40.5 17h87v700h-87q-24 0 -40.5 17t-16.5 41v134q0 24 16.5 41t40.5 17 h289q24 0 41 -16.5t17 -40.5v-893h79q24 0 40.5 -17t16.5 -41v-134q0 -24 -16.5 -41t-40.5 -17h-426q-24 0 -40.5 17t-16.5 41z" />
<glyph unicode="&#xef;" horiz-adv-x="640" d="M-32 1398v144q0 24 16.5 41t40.5 17h146q24 0 40.5 -17t16.5 -41v-144q0 -24 -16.5 -41t-40.5 -17h-146q-24 0 -40.5 17t-16.5 41zM50 58v134q0 24 16.5 41t40.5 17h87v700h-87q-24 0 -40.5 17t-16.5 41v134q0 24 16.5 41t40.5 17h289q24 0 41 -16.5t17 -40.5v-893h79 q24 0 40.5 -17t16.5 -41v-134q0 -24 -16.5 -41t-40.5 -17h-426q-24 0 -40.5 17t-16.5 41zM403 1398v144q0 24 16.5 41t40.5 17h146q24 0 40.5 -17t16.5 -41v-144q0 -24 -16.5 -41t-40.5 -17h-146q-24 0 -40.5 17t-16.5 41z" />
<glyph unicode="&#xf0;" horiz-adv-x="1193" d="M100 552q0 273 95 394t297 121h355q-5 74 -40 116t-125 42h-126q-24 0 -40.5 17t-16.5 41v134q0 24 16.5 41t40.5 17h126q263 0 360 -183l89 48q27 13 53 4.5t40 -34.5l10 -18q14 -25 6.5 -52.5t-33.5 -41.5l-117 -62q5 -34 7 -81l1 2v-989q0 -28 -20.5 -48t-49.5 -20 h-120q-29 0 -49.5 20t-20.5 48v77q-105 -87 -180 -121t-166 -34q-392 0 -392 562zM350 549q0 -131 16.5 -197t50.5 -89t102 -23q42 0 77 8t61.5 20t58.5 39t56 51.5t66 70.5l10 24v364h-375q-39 0 -64.5 -18.5t-38 -57.5t-16.5 -82.5t-4 -109.5z" />
<glyph unicode="&#xf1;" horiz-adv-x="1176" d="M132 1458q4 22 27 37l34 23q70 47 138.5 69.5t118.5 22.5q42 0 81.5 -16.5t65 -36.5t54.5 -36.5t52 -16.5q30 0 72 27l87 56q19 13 42 9t37 -26l57 -88q14 -20 10 -42t-27 -37l-34 -23q-137 -92 -260 -92q-44 0 -83.5 16.5t-63.5 37t-51.5 37t-49.5 16.5q-31 0 -74 -28 l-87 -56q-19 -13 -42 -9t-37 26l-57 88q-14 20 -10 42zM150 57v1086q0 24 17 40.5t41 16.5h144q24 0 41 -16.5t17 -40.5v-63q157 130 313 130q170 0 249 -126.5t79 -373.5v-653q0 -24 -17 -40.5t-41 -16.5h-144q-24 0 -41 16.5t-17 40.5v572q0 196 -21 262t-96 66 q-114 0 -264 -158v-742q0 -24 -17 -40.5t-41 -16.5h-144q-24 0 -41 16.5t-17 40.5z" />
<glyph unicode="&#xf2;" horiz-adv-x="1162" d="M75.5 1497.5q-2.5 26.5 11.5 45.5l77 110q14 20 37 24.5t43 -9.5l358 -251q19 -13 23 -36t-10 -43q-23 -33 -80 -16l-434 141q-23 8 -25.5 34.5zM100 608q0 120 7.5 204t27.5 155t53 114t86.5 73.5t125.5 43t173 12.5h12q101 0 173.5 -12t126.5 -42.5t87.5 -74t54 -114.5 t28 -155.5t7.5 -204.5t-7.5 -205.5t-28 -158t-53.5 -118t-86.5 -77t-126 -45t-171.5 -13.5h-16q-100 0 -172 13t-125.5 45t-87 77.5t-53.5 118t-27.5 158t-7.5 206.5zM350 607q0 -87 3 -143.5t13.5 -99.5t24.5 -65.5t41.5 -37t58 -18t81.5 -3.5h18q51 0 81.5 4t58 18 t41.5 37t24.5 66t13.5 99.5t3 143.5q0 85 -3 138.5t-13.5 95.5t-24 63.5t-42 35t-60 16.5t-84.5 3h-12q-39 0 -64.5 -1.5t-50.5 -8t-39.5 -16.5t-28 -29.5t-20 -43.5t-12 -62.5t-7 -83.5t-1.5 -108z" />
<glyph unicode="&#xf3;" horiz-adv-x="1162" d="M100 608q0 120 7.5 204t27.5 155t53 114t86.5 73.5t125.5 43t173 12.5h12q101 0 173.5 -12t126.5 -42.5t87.5 -74t54 -114.5t28 -155.5t7.5 -204.5t-7.5 -205.5t-28 -158t-53.5 -118t-86.5 -77t-126 -45t-171.5 -13.5h-16q-100 0 -172 13t-125.5 45t-87 77.5t-53.5 118 t-27.5 158t-7.5 206.5zM276 1381q4 23 23 36l358 251q20 14 43 9.5t37 -24.5l77 -110q14 -19 11.5 -45.5t-25.5 -34.5l-434 -141q-57 -17 -80 16q-14 20 -10 43zM350 607q0 -87 3 -143.5t13.5 -99.5t24.5 -65.5t41.5 -37t58 -18t81.5 -3.5h18q51 0 81.5 4t58 18t41.5 37 t24.5 66t13.5 99.5t3 143.5q0 85 -3 138.5t-13.5 95.5t-24 63.5t-42 35t-60 16.5t-84.5 3h-12q-39 0 -64.5 -1.5t-50.5 -8t-39.5 -16.5t-28 -29.5t-20 -43.5t-12 -62.5t-7 -83.5t-1.5 -108z" />
<glyph unicode="&#xf4;" horiz-adv-x="1162" d="M100 608q0 120 7.5 204t27.5 155t53 114t86.5 73.5t125.5 43t173 12.5h12q101 0 173.5 -12t126.5 -42.5t87.5 -74t54 -114.5t28 -155.5t7.5 -204.5t-7.5 -205.5t-28 -158t-53.5 -118t-86.5 -77t-126 -45t-171.5 -13.5h-16q-100 0 -172 13t-125.5 45t-87 77.5t-53.5 118 t-27.5 158t-7.5 206.5zM187.5 1314q-0.5 24 16.5 40l309 309q18 18 40 16q22 2 40 -16l309 -309q17 -16 16.5 -40t-17.5 -41q-29 -29 -81 -1l-267 142l-267 -142q-52 -28 -81 1q-17 17 -17.5 41zM350 607q0 -87 3 -143.5t13.5 -99.5t24.5 -65.5t41.5 -37t58 -18t81.5 -3.5 h18q51 0 81.5 4t58 18t41.5 37t24.5 66t13.5 99.5t3 143.5q0 85 -3 138.5t-13.5 95.5t-24 63.5t-42 35t-60 16.5t-84.5 3h-12q-39 0 -64.5 -1.5t-50.5 -8t-39.5 -16.5t-28 -29.5t-20 -43.5t-12 -62.5t-7 -83.5t-1.5 -108z" />
<glyph unicode="&#xf5;" horiz-adv-x="1162" d="M100 608q0 120 7.5 204t27.5 155t53 114t86.5 73.5t125.5 43t173 12.5h12q101 0 173.5 -12t126.5 -42.5t87.5 -74t54 -114.5t28 -155.5t7.5 -204.5t-7.5 -205.5t-28 -158t-53.5 -118t-86.5 -77t-126 -45t-171.5 -13.5h-16q-100 0 -172 13t-125.5 45t-87 77.5t-53.5 118 t-27.5 158t-7.5 206.5zM101 1458q4 22 27 37l34 23q70 47 138.5 69.5t118.5 22.5q42 0 81.5 -16.5t65 -36.5t54.5 -36.5t52 -16.5q30 0 72 27l87 56q19 13 42 9t37 -26l57 -88q14 -20 10 -42t-27 -37l-34 -23q-137 -92 -260 -92q-44 0 -83.5 16.5t-63.5 37t-51.5 37 t-49.5 16.5q-31 0 -74 -28l-87 -56q-19 -13 -42 -9t-37 26l-57 88q-14 20 -10 42zM350 607q0 -87 3 -143.5t13.5 -99.5t24.5 -65.5t41.5 -37t58 -18t81.5 -3.5h18q51 0 81.5 4t58 18t41.5 37t24.5 66t13.5 99.5t3 143.5q0 85 -3 138.5t-13.5 95.5t-24 63.5t-42 35t-60 16.5 t-84.5 3h-12q-39 0 -64.5 -1.5t-50.5 -8t-39.5 -16.5t-28 -29.5t-20 -43.5t-12 -62.5t-7 -83.5t-1.5 -108z" />
<glyph unicode="&#xf6;" horiz-adv-x="1162" d="M100 608q0 120 7.5 204t27.5 155t53 114t86.5 73.5t125.5 43t173 12.5h12q101 0 173.5 -12t126.5 -42.5t87.5 -74t54 -114.5t28 -155.5t7.5 -204.5t-7.5 -205.5t-28 -158t-53.5 -118t-86.5 -77t-126 -45t-171.5 -13.5h-16q-100 0 -172 13t-125.5 45t-87 77.5t-53.5 118 t-27.5 158t-7.5 206.5zM206 1398v144q0 24 16.5 41t40.5 17h146q24 0 40.5 -17t16.5 -41v-144q0 -24 -16.5 -41t-40.5 -17h-146q-24 0 -40.5 17t-16.5 41zM350 607q0 -87 3 -143.5t13.5 -99.5t24.5 -65.5t41.5 -37t58 -18t81.5 -3.5h18q51 0 81.5 4t58 18t41.5 37t24.5 66 t13.5 99.5t3 143.5q0 85 -3 138.5t-13.5 95.5t-24 63.5t-42 35t-60 16.5t-84.5 3h-12q-39 0 -64.5 -1.5t-50.5 -8t-39.5 -16.5t-28 -29.5t-20 -43.5t-12 -62.5t-7 -83.5t-1.5 -108zM641 1398v144q0 24 16.5 41t40.5 17h146q24 0 40.5 -17t16.5 -41v-144q0 -24 -16.5 -41 t-40.5 -17h-146q-24 0 -40.5 17t-16.5 41z" />
<glyph unicode="&#xf7;" horiz-adv-x="1100" d="M100 533v134q0 24 16.5 41t40.5 17h786q24 0 40.5 -17t16.5 -41v-134q0 -24 -16.5 -41t-40.5 -17h-786q-24 0 -40.5 17t-16.5 41zM420 58v144q0 24 16.5 41t40.5 17h146q24 0 40.5 -17t16.5 -41v-144q0 -24 -16.5 -41t-40.5 -17h-146q-24 0 -40.5 17t-16.5 41zM420 998 v144q0 24 16.5 41t40.5 17h146q24 0 40.5 -17t16.5 -41v-144q0 -24 -16.5 -41t-40.5 -17h-146q-24 0 -40.5 17t-16.5 41z" />
<glyph unicode="&#xf8;" horiz-adv-x="1162" d="M100 608q0 120 7.5 204t27.5 155t53 114t86.5 73.5t125.5 43t173 12.5h12q101 0 173.5 -12t126.5 -42.5t87.5 -74t54 -114.5t28 -155.5t7.5 -204.5t-7.5 -205.5t-28 -158t-53.5 -118t-86.5 -77t-126 -45t-171.5 -13.5h-16q-100 0 -172 13t-125.5 45t-87 77.5t-53.5 118 t-27.5 158t-7.5 206.5zM350 607q0 -181 19 -256l222 609h-6h-12q-39 0 -64.5 -1.5t-50.5 -8t-39.5 -16.5t-28 -29.5t-20 -43.5t-12 -62.5t-7 -83.5t-1.5 -108zM606 240q69 1 105.5 12t61.5 52t32 109.5t7 194.5t-7 181z" />
<glyph unicode="&#xf9;" horiz-adv-x="1176" d="M125 490v653q0 24 17 40.5t41 16.5h144q24 0 41 -16.5t17 -40.5v-572q0 -197 21 -263t96 -66q65 0 126 38.5t138 119.5v743q0 24 17 40.5t41 16.5h144q24 0 41 -16.5t17 -40.5v-1086q0 -24 -17 -40.5t-41 -16.5h-144q-24 0 -41 16.5t-17 40.5v63q-157 -130 -313 -130 q-170 0 -249 126.5t-79 373.5zM196.5 1497.5q-2.5 26.5 11.5 45.5l77 110q14 20 37 24.5t43 -9.5l358 -251q19 -13 23 -36t-10 -43q-23 -33 -80 -16l-434 141q-23 8 -25.5 34.5z" />
<glyph unicode="&#xfa;" horiz-adv-x="1176" d="M125 490v653q0 24 17 40.5t41 16.5h144q24 0 41 -16.5t17 -40.5v-572q0 -197 21 -263t96 -66q65 0 126 38.5t138 119.5v743q0 24 17 40.5t41 16.5h144q24 0 41 -16.5t17 -40.5v-1086q0 -24 -17 -40.5t-41 -16.5h-144q-24 0 -41 16.5t-17 40.5v63q-157 -130 -313 -130 q-170 0 -249 126.5t-79 373.5zM277 1381q4 23 23 36l358 251q20 14 43 9.5t37 -24.5l77 -110q14 -19 11.5 -45.5t-25.5 -34.5l-434 -141q-57 -17 -80 16q-14 20 -10 43z" />
<glyph unicode="&#xfb;" horiz-adv-x="1176" d="M125 490v653q0 24 17 40.5t41 16.5h144q24 0 41 -16.5t17 -40.5v-572q0 -197 21 -263t96 -66q65 0 126 38.5t138 119.5v743q0 24 17 40.5t41 16.5h144q24 0 41 -16.5t17 -40.5v-1086q0 -24 -17 -40.5t-41 -16.5h-144q-24 0 -41 16.5t-17 40.5v63q-157 -130 -313 -130 q-170 0 -249 126.5t-79 373.5zM168.5 1314q-0.5 24 16.5 40l309 309q18 18 40 16q22 2 40 -16l309 -309q17 -16 16.5 -40t-17.5 -41q-29 -29 -81 -1l-267 142l-267 -142q-52 -28 -81 1q-17 17 -17.5 41z" />
<glyph unicode="&#xfc;" horiz-adv-x="1176" d="M125 490v653q0 24 17 40.5t41 16.5h144q24 0 41 -16.5t17 -40.5v-572q0 -197 21 -263t96 -66q65 0 126 38.5t138 119.5v743q0 24 17 40.5t41 16.5h144q24 0 41 -16.5t17 -40.5v-1086q0 -24 -17 -40.5t-41 -16.5h-144q-24 0 -41 16.5t-17 40.5v63q-157 -130 -313 -130 q-170 0 -249 126.5t-79 373.5zM196 1398v144q0 24 16.5 41t40.5 17h146q24 0 40.5 -17t16.5 -41v-144q0 -24 -16.5 -41t-40.5 -17h-146q-24 0 -40.5 17t-16.5 41zM631 1398v144q0 24 16.5 41t40.5 17h146q24 0 40.5 -17t16.5 -41v-144q0 -24 -16.5 -41t-40.5 -17h-146 q-24 0 -40.5 17t-16.5 41z" />
<glyph unicode="&#xfd;" horiz-adv-x="1149" d="M135 -112q0 28 16 40l218 177l-218 187q-16 14 -16 40v811q0 24 17 40.5t41 16.5h144q24 0 41 -16.5t17 -40.5v-726l182 -144l177 144v726q0 24 17 40.5t41 16.5h144q24 0 41 -16.5t17 -40.5v-811q0 -26 -16 -40l-603 -508v-27q0 -24 -17 -40.5t-41 -16.5h-144 q-24 0 -41 16.5t-17 40.5v131zM251 1381q4 23 23 36l358 251q20 14 43 9.5t37 -24.5l77 -110q14 -19 11.5 -45.5t-25.5 -34.5l-434 -141q-57 -17 -80 16q-14 20 -10 43z" />
<glyph unicode="&#xfe;" d="M150 -232v1639q0 28 20.5 48t49.5 20h120q29 0 49.5 -20t20.5 -48v-351q103 85 192.5 119.5t186.5 34.5q84 0 145 -24t102.5 -70.5t66 -122.5t35 -171t10.5 -224q0 -145 -14.5 -249t-42 -171.5t-73 -107t-100.5 -55t-132 -15.5h-376v-232q0 -29 -20.5 -48.5t-49.5 -19.5 h-120q-29 0 -49.5 19.5t-20.5 48.5zM410 250h362q75 0 100 72.5t26 283.5q0 139 -19 218.5t-52 107.5t-87 28q-76 0 -162 -50t-168 -150v-510z" />
<glyph unicode="&#xff;" horiz-adv-x="1149" d="M135 -112q0 28 16 40l218 177l-218 187q-16 14 -16 40v811q0 24 17 40.5t41 16.5h144q24 0 41 -16.5t17 -40.5v-726l182 -144l177 144v726q0 24 17 40.5t41 16.5h144q24 0 41 -16.5t17 -40.5v-811q0 -26 -16 -40l-603 -508v-27q0 -24 -17 -40.5t-41 -16.5h-144 q-24 0 -41 16.5t-17 40.5v131zM200 1398v144q0 24 16.5 41t40.5 17h146q24 0 40.5 -17t16.5 -41v-144q0 -24 -16.5 -41t-40.5 -17h-146q-24 0 -40.5 17t-16.5 41zM635 1398v144q0 24 16.5 41t40.5 17h146q24 0 40.5 -17t16.5 -41v-144q0 -24 -16.5 -41t-40.5 -17h-146 q-24 0 -40.5 17t-16.5 41z" />
<glyph unicode="&#x152;" horiz-adv-x="2060" d="M100 632q0 131 13 227.5t44 167t74.5 115t112 71.5t148.5 37t191 10q202 0 315 -38q16 28 50 28h855q24 0 40.5 -17t16.5 -41v-134q0 -24 -16.5 -41t-40.5 -17h-643v-250h489q24 0 40.5 -17t16.5 -41v-134q0 -24 -16.5 -41t-40.5 -17h-489v-58q0 -83 68.5 -137.5 t210.5 -54.5h364q24 0 40.5 -17t16.5 -41v-134q0 -24 -16.5 -41t-40.5 -17h-352q-275 0 -416 109q-22 -25 -48.5 -44t-48.5 -31.5t-58 -21.5t-55.5 -13.5t-62 -6.5t-58 -2.5t-63 0t-58.5 0.5q-85 0 -147.5 5t-122.5 17.5t-101.5 34t-79 55.5t-60.5 81t-40 112.5t-24.5 148 t-7.5 188.5zM381 631q0 -82 8.5 -143t27 -102.5t42 -68.5t60 -41.5t74 -20t90.5 -5.5q80 0 130.5 13.5t92.5 53t60.5 116.5t18.5 198q0 96 -13 163.5t-35.5 107.5t-62 62t-82 29t-106.5 7q-67 0 -110 -7t-83.5 -28.5t-63 -62t-35.5 -107.5t-13 -164z" />
<glyph unicode="&#x153;" horiz-adv-x="1870" d="M100 609q0 120 7.5 204t27.5 155t53 114t86.5 73.5t125.5 43t173 12.5h12q251 0 352 -91q101 90 349 90h12q119 0 199.5 -19t135.5 -57.5t85.5 -109.5t43 -162t13.5 -229v-4v-71q0 -29 -19.5 -49.5t-49.5 -20.5h-640q4 -61 18 -103.5t45.5 -77.5t89 -51t142.5 -15 q117 2 267 79q29 15 52 15q28 0 42 -32l42 -92q16 -34 16 -53q0 -31 -28 -44q-142 -75 -218 -99.5t-173 -24.5q-257 0 -392 132q-52 -69 -143 -100t-237 -31h-16q-100 0 -172 13t-125.5 45t-87 77.5t-53.5 118t-27.5 158t-7.5 206.5zM350 608q0 -87 3 -143.5t13.5 -99.5 t24.5 -65.5t41.5 -37t58 -18t81.5 -3.5h18q51 0 81.5 4t58 18t41.5 37t24.5 66t13.5 99.5t3 143.5q0 85 -3 138.5t-13.5 95.5t-24 63.5t-42 35t-60 16.5t-84.5 3h-12q-39 0 -64.5 -1.5t-50.5 -8t-39.5 -16.5t-28 -29.5t-20 -43.5t-12 -62.5t-7 -83.5t-1.5 -108zM1064 698 h460q-2 74 -10.5 119.5t-22 75.5t-42 44t-61 18.5t-90.5 4.5h-12q-70 0 -106.5 -7t-65 -35t-38 -78.5t-12.5 -141.5z" />
<glyph unicode="&#x178;" horiz-adv-x="1338" d="M130 727v466q0 24 17 40.5t41 16.5h154q24 0 41 -16.5t17 -40.5v-331l269 -170l269 170v331q0 24 17 40.5t41 16.5h154q24 0 41 -16.5t17 -40.5v-466q0 -30 -16 -40l-389 -245v-385q0 -24 -17 -40.5t-41 -16.5h-154q-24 0 -41 16.5t-17 40.5v385l-387 245q-16 10 -16 40z M289 1498v144q0 24 16.5 41t40.5 17h146q24 0 40.5 -17t16.5 -41v-144q0 -24 -16.5 -41t-40.5 -17h-146q-24 0 -40.5 17t-16.5 41zM724 1498v144q0 24 16.5 41t40.5 17h146q24 0 40.5 -17t16.5 -41v-144q0 -24 -16.5 -41t-40.5 -17h-146q-24 0 -40.5 17t-16.5 41z" />
<glyph unicode="&#x2c6;" horiz-adv-x="930" d="M99.5 1314q-0.5 24 16.5 40l309 309q18 18 40 16q22 2 40 -16l309 -309q17 -16 16.5 -40t-17.5 -41q-29 -29 -81 -1l-267 142l-267 -142q-52 -28 -81 1q-17 17 -17.5 41z" />
<glyph unicode="&#x2dc;" horiz-adv-x="1078" d="M101 1458q4 22 27 37l34 23q70 47 138.5 69.5t118.5 22.5q42 0 81.5 -16.5t65 -36.5t54.5 -36.5t52 -16.5q30 0 72 27l87 56q19 13 42 9t37 -26l57 -88q14 -20 10 -42t-27 -37l-34 -23q-137 -92 -260 -92q-44 0 -83.5 16.5t-63.5 37t-51.5 37t-49.5 16.5q-31 0 -74 -28 l-87 -56q-19 -13 -42 -9t-37 26l-57 88q-14 20 -10 42z" />
<glyph unicode="&#x2000;" horiz-adv-x="902" />
<glyph unicode="&#x2001;" horiz-adv-x="1804" />
<glyph unicode="&#x2002;" horiz-adv-x="902" />
<glyph unicode="&#x2003;" horiz-adv-x="1804" />
<glyph unicode="&#x2004;" horiz-adv-x="601" />
<glyph unicode="&#x2005;" horiz-adv-x="451" />
<glyph unicode="&#x2006;" horiz-adv-x="300" />
<glyph unicode="&#x2007;" horiz-adv-x="300" />
<glyph unicode="&#x2008;" horiz-adv-x="225" />
<glyph unicode="&#x2009;" horiz-adv-x="360" />
<glyph unicode="&#x200a;" horiz-adv-x="100" />
<glyph unicode="&#x2010;" horiz-adv-x="750" d="M100 733v134q0 24 16.5 41t40.5 17h436q24 0 40.5 -17t16.5 -41v-134q0 -24 -16.5 -41t-40.5 -17h-436q-24 0 -40.5 17t-16.5 41z" />
<glyph unicode="&#x2011;" horiz-adv-x="750" d="M100 733v134q0 24 16.5 41t40.5 17h436q24 0 40.5 -17t16.5 -41v-134q0 -24 -16.5 -41t-40.5 -17h-436q-24 0 -40.5 17t-16.5 41z" />
<glyph unicode="&#x2012;" horiz-adv-x="750" d="M100 733v134q0 24 16.5 41t40.5 17h436q24 0 40.5 -17t16.5 -41v-134q0 -24 -16.5 -41t-40.5 -17h-436q-24 0 -40.5 17t-16.5 41z" />
<glyph unicode="&#x2013;" horiz-adv-x="1293" d="M100 432v134q0 24 16.5 41t40.5 17h979q24 0 40.5 -17t16.5 -41v-134q0 -24 -16.5 -41t-40.5 -17h-979q-24 0 -40.5 17t-16.5 41z" />
<glyph unicode="&#x2014;" horiz-adv-x="1990" d="M100 432v134q0 24 16.5 41t40.5 17h1676q24 0 40.5 -17t16.5 -41v-134q0 -24 -16.5 -41t-40.5 -17h-1676q-24 0 -40.5 17t-16.5 41z" />
<glyph unicode="&#x2018;" horiz-adv-x="560" d="M150 1228v394q0 24 16.5 41t40.5 17h32q24 0 40.5 -17t16.5 -41v-144q0 -24 16.5 -41t40.5 -17t40.5 -17t16.5 -41v-134q0 -24 -16.5 -41t-40.5 -17h-146q-24 0 -40.5 17t-16.5 41z" />
<glyph unicode="&#x2019;" horiz-adv-x="560" d="M150 1488v134q0 24 16.5 41t40.5 17h146q24 0 40.5 -17t16.5 -41v-394q0 -24 -16.5 -41t-40.5 -17h-32q-24 0 -40.5 17t-16.5 41v144q0 24 -16.5 41t-40.5 17t-40.5 17t-16.5 41z" />
<glyph unicode="&#x201a;" horiz-adv-x="560" d="M150 58v134q0 24 16.5 41t40.5 17h146q24 0 40.5 -17t16.5 -41v-394q0 -24 -16.5 -41t-40.5 -17h-32q-24 0 -40.5 17t-16.5 41v144q0 24 -16.5 41t-40.5 17t-40.5 17t-16.5 41z" />
<glyph unicode="&#x201c;" horiz-adv-x="970" d="M150 1228v394q0 24 16.5 41t40.5 17h32q24 0 40.5 -17t16.5 -41v-144q0 -24 16.5 -41t40.5 -17t40.5 -17t16.5 -41v-134q0 -24 -16.5 -41t-40.5 -17h-146q-24 0 -40.5 17t-16.5 41zM560 1228v394q0 24 16.5 41t40.5 17h32q24 0 40.5 -17t16.5 -41v-144q0 -24 16.5 -41 t40.5 -17t40.5 -17t16.5 -41v-134q0 -24 -16.5 -41t-40.5 -17h-146q-24 0 -40.5 17t-16.5 41z" />
<glyph unicode="&#x201d;" horiz-adv-x="970" d="M150 1488v134q0 24 16.5 41t40.5 17h146q24 0 40.5 -17t16.5 -41v-394q0 -24 -16.5 -41t-40.5 -17h-32q-24 0 -40.5 17t-16.5 41v144q0 24 -16.5 41t-40.5 17t-40.5 17t-16.5 41zM560 1488v134q0 24 16.5 41t40.5 17h146q24 0 40.5 -17t16.5 -41v-394q0 -24 -16.5 -41 t-40.5 -17h-32q-24 0 -40.5 17t-16.5 41v144q0 24 -16.5 41t-40.5 17t-40.5 17t-16.5 41z" />
<glyph unicode="&#x201e;" horiz-adv-x="600" d="M150 58v134q0 24 16.5 41t40.5 17h146q24 0 40.5 -17t16.5 -41v-394q0 -24 -16.5 -41t-40.5 -17h-32q-24 0 -40.5 17t-16.5 41v144q0 24 -16.5 41t-40.5 17t-40.5 17t-16.5 41z" />
<glyph unicode="&#x2022;" horiz-adv-x="827" d="M100 621q0 130 91.5 222t221.5 92t222 -92t92 -222t-92 -221.5t-222 -91.5t-221.5 91.5t-91.5 221.5z" />
<glyph unicode="&#x2026;" horiz-adv-x="1600" d="M200 58v144q0 24 16.5 41t40.5 17h146q24 0 40.5 -17t16.5 -41v-144q0 -24 -16.5 -41t-40.5 -17h-146q-24 0 -40.5 17t-16.5 41zM720 58v144q0 24 16.5 41t40.5 17h146q24 0 40.5 -17t16.5 -41v-144q0 -24 -16.5 -41t-40.5 -17h-146q-24 0 -40.5 17t-16.5 41zM1240 58 v144q0 24 16.5 41t40.5 17h146q24 0 40.5 -17t16.5 -41v-144q0 -24 -16.5 -41t-40.5 -17h-146q-24 0 -40.5 17t-16.5 41z" />
<glyph unicode="&#x202f;" horiz-adv-x="360" />
<glyph unicode="&#x2039;" horiz-adv-x="744" d="M100 619q0 19 12 35l315 403q15 19 38.5 21.5t42.5 -12.5l113 -89q19 -15 22.5 -37.5t-11.5 -42.5l-217 -278l217 -278q15 -20 11.5 -42.5t-22.5 -37.5l-113 -89q-19 -15 -42.5 -12.5t-38.5 21.5l-315 403q-12 16 -12 35z" />
<glyph unicode="&#x203a;" horiz-adv-x="744" d="M100.5 298.5q-3.5 22.5 11.5 42.5l217 278l-217 278q-15 20 -11.5 42.5t22.5 37.5l113 89q19 15 42.5 12.5t38.5 -21.5l315 -403q12 -17 12 -35q0 -19 -12 -35l-315 -403q-15 -19 -38.5 -21.5t-42.5 12.5l-113 89q-19 15 -22.5 37.5z" />
<glyph unicode="&#x205f;" horiz-adv-x="451" />
<glyph unicode="&#x20ac;" horiz-adv-x="1222" d="M50 474v60q0 30 19 50t49 20h122v182h-122q-30 0 -49 20t-19 50v60q0 30 19 50t49 20h122v42q0 74 12 136t43 121t79 100t125 65.5t177 24.5h399q24 0 40.5 -17t16.5 -41v-134q0 -24 -16.5 -41t-40.5 -17h-399q-46 0 -78.5 -11.5t-49.5 -27t-25.5 -44.5t-10.5 -52t-2 -62 v-42h336q30 0 49 -20t19 -50v-60q0 -30 -19 -50t-49 -20h-336v-182h336q30 0 49 -20t19 -50v-60q0 -30 -19 -50t-49 -20h-334q5 -72 40 -113t124 -41h399q24 0 40.5 -17t16.5 -41v-134q0 -24 -16.5 -41t-40.5 -17h-399q-91 0 -163.5 22t-120 59t-80.5 90t-49 110t-21 123 h-124q-30 0 -49 20t-19 50z" />
<glyph unicode="&#x2122;" horiz-adv-x="2058" d="M60 1283v134q0 24 16.5 41t40.5 17h670q24 0 40.5 -17t16.5 -41v-134q0 -24 -16.5 -41t-40.5 -17h-200v-388q0 -24 -17 -40.5t-41 -16.5h-154q-24 0 -41 16.5t-17 40.5v388h-200q-24 0 -40.5 17t-16.5 41zM917 837v581q0 24 17 40.5t41 16.5h146q26 3 44 -12q9 -7 13 -14 l234 -279l239 285q19 25 52 20h147q24 0 41 -16.5t17 -40.5v-581q0 -24 -17 -40.5t-41 -16.5h-154q-24 0 -41 16.5t-17 40.5v182l-183 -218l-4 -4l-1 -2q-4 -4 -10 -7q-14 -8 -28 -8t-28 8q-6 3 -10 7l-1 2l-4 4l-182 217v-181q0 -24 -17 -40.5t-41 -16.5h-154 q-24 0 -41 16.5t-17 40.5z" />
<glyph unicode="&#x25fc;" horiz-adv-x="1200" d="M0 0v1200h1200v-1200h-1200z" />
<glyph unicode="&#xfb01;" horiz-adv-x="1314" d="M50 883v134q0 24 16.5 41t40.5 17h80q4 118 28.5 198t69 123.5t98.5 61t128 17.5h535q24 0 40.5 -17t16.5 -41v-134q0 -24 -16.5 -41t-40.5 -17h-485q-53 0 -78.5 -35.5t-32.5 -114.5h595q24 0 41 -16.5t17 -40.5v-768h79q24 0 40.5 -17t16.5 -41v-134q0 -24 -16.5 -41 t-40.5 -17h-426q-24 0 -40.5 17t-16.5 41v134q0 24 16.5 41t40.5 17h87v575h-397v-768q0 -24 -17 -40.5t-41 -16.5h-144q-24 0 -41 16.5t-17 40.5v768h-79q-24 0 -40.5 17t-16.5 41z" />
<glyph unicode="&#xfb02;" horiz-adv-x="1294" d="M50 883v134q0 24 16.5 41t40.5 17h80q4 118 28.5 198t69 123.5t98.5 61t128 17.5h539q24 0 41 -16.5t17 -40.5v-1168h79q24 0 40.5 -17t16.5 -41v-134q0 -24 -16.5 -41t-40.5 -17h-293v1q-20 4 -33 19.5t-13 36.5v1168h-287q-53 0 -78.5 -35.5t-32.5 -114.5h148 q24 0 40.5 -17t16.5 -41v-134q0 -24 -16.5 -41t-40.5 -17h-152v-768q0 -24 -17 -40.5t-41 -16.5h-144q-24 0 -41 16.5t-17 40.5v768h-79q-24 0 -40.5 17t-16.5 41z" />
</font>
</defs>
</svg>
