<?xml version="1.0" encoding="UTF-8"?>
<svg xmlns="http://www.w3.org/2000/svg" xmlns:xlink="http://www.w3.org/1999/xlink" version="1.2" >
<font id="Antwerpen">
<font-face  font-family="Antwerpen" units-per-em="2048" ascent="1680" descent="-400" font-style="normal" font-weight="400" font-stretch="normal" cap-height="1600" x-height="1200" underline-position="-75" underline-thickness="50" />
<missing-glyph  horiz-adv-x="500" d="M0 0 L500 0 L500 700 L0 700 L0 0 Z M250 395 L80 650 L420 650 L250 395 Z M280 350 L450 605 L450 95 L280 350 Z M80 50 L250 305 L420 50 L80 50 Z M50 605 L220 350 L50 95 L50 605 Z " />
<glyph glyph-name="NULL" d="" />
<glyph glyph-name="CR" unicode="&#xd;" horiz-adv-x="512" d="" />
<glyph glyph-name="space" unicode="&#x20;" horiz-adv-x="500" d="" />
<glyph glyph-name="exclam" unicode="&#x21;" horiz-adv-x="560" d="M208 1680 C176 1680 150 1656 150 1623 L150 557 C150 524 176 500 208 500 L352 500 C384 500 410 524 410 557 L410 1623 C410 1656 384 1680 352 1680 L208 1680 Z M207 260 C174 260 150 234 150 202 L150 58 C150 26 174 0 207 0 L353 0 C386 0 410 26 410 58 L410 202 C410 234 386 260 353 260 L207 260 Z " />
<glyph glyph-name="quotedbl" unicode="&#x22;" horiz-adv-x="1020" d="M208 1610 C176 1610 150 1586 150 1553 L150 1042 C150 1009 176 985 208 985 L352 985 C384 985 410 1009 410 1042 L410 1553 C410 1586 384 1610 352 1610 L208 1610 Z M668 1610 C636 1610 610 1586 610 1553 L610 1042 C610 1009 636 985 668 985 L812 985 C844 985 870 1009 870 1042 L870 1553 C870 1586 844 1610 812 1610 L668 1610 Z " />
<glyph glyph-name="numbersign" unicode="&#x23;" horiz-adv-x="1586" d="M1174 940 L1429 940 C1462 940 1486 966 1486 998 L1486 1142 C1486 1174 1462 1200 1430 1200 L1220 1200 L1274 1509 C1279 1542 1258 1570 1227 1575 L1085 1600 C1054 1606 1023 1587 1018 1555 L955 1200 L728 1200 L782 1509 C787 1542 766 1570 735 1575 L593 1600 C562 1606 531 1587 526 1555 L463 1200 L157 1200 C124 1200 100 1174 100 1142 L101 998 C100 967 124 940 156 940 L418 940 L380 726 L157 726 C124 726 100 700 100 668 L101 524 C100 493 124 466 156 466 L334 466 L268 91 C262 58 284 30 315 25 L457 0 C488 -6 519 13 524 45 L598 466 L826 466 L760 91 C754 58 776 30 807 25 L949 0 C980 -6 1011 13 1016 45 L1090 466 L1429 466 C1462 466 1486 492 1486 524 L1486 668 C1486 700 1462 726 1430 726 L1136 726 L1174 940 Z M910 940 L872 726 L644 726 L682 940 L910 940 Z " />
<glyph glyph-name="dollar" unicode="&#x24;" horiz-adv-x="1134" d="M1044 444 C1044 1002 370 833 370 1157 C370 1259 437 1350 639 1350 L955 1350 C988 1350 1012 1376 1012 1408 L1012 1542 C1012 1574 988 1600 955 1600 L684 1600 L684 1732 C684 1772 653 1800 614 1800 L554 1800 C515 1800 484 1772 484 1732 L484 1588 C151 1536 90 1323 90 1156 C90 597 764 761 764 442 C764 341 697 250 495 250 L166 250 C133 250 109 224 109 192 L109 58 C109 26 133 0 166 0 L426 0 L426 -132 C426 -172 457 -200 496 -200 L556 -200 C595 -200 626 -172 626 -132 L626 9 C980 54 1044 273 1044 444 L1044 444 Z " />
<glyph glyph-name="percent" unicode="&#x25;" horiz-adv-x="1831" d="M814 1215 C814 1502 757 1610 456 1610 C154 1610 100 1501 100 1220 C100 928 159 805 461 805 C753 805 814 919 814 1215 L814 1215 Z M1300 1503 C1273 1521 1238 1516 1220 1489 L389 256 C370 229 379 195 405 177 L525 97 C551 79 586 84 604 111 L1435 1344 C1453 1371 1445 1405 1419 1423 L1300 1503 Z M587 1213 C587 1064 568 1044 459 1044 C350 1044 327 1065 327 1219 C327 1355 345 1371 456 1371 C569 1371 587 1354 587 1213 L587 1213 Z M1731 400 C1731 687 1674 795 1373 795 C1071 795 1017 687 1017 405 C1017 113 1076 -10 1378 -10 C1670 -10 1731 104 1731 400 L1731 400 Z M1504 398 C1504 249 1485 229 1376 229 C1267 229 1244 250 1244 404 C1244 540 1262 556 1373 556 C1486 556 1504 539 1504 398 L1504 398 Z " />
<glyph glyph-name="ampersand" unicode="&#x26;" horiz-adv-x="1317" d="M1057 941 L1057 1153 C1057 1186 1031 1210 999 1210 L854 1210 C822 1210 796 1186 796 1153 L796 940 L546 940 C388 940 380 1046 380 1150 C380 1254 388 1360 546 1360 L739 1360 C772 1360 796 1386 796 1418 L796 1552 C796 1584 772 1610 739 1610 L536 1610 C195 1610 101 1381 100 1150 C101 1026 128 903 206 815 C127 726 100 601 100 476 L100 454 C100 222 193 -10 536 -10 L732 -10 C927 -10 1057 75 1057 438 L1057 691 L1210 691 C1243 691 1267 717 1267 749 L1267 883 C1267 915 1243 941 1210 941 L1057 941 Z M100 1154 L100 1146 C100 1147 100 1149 100 1150 L100 1154 Z M797 690 L797 495 C797 316 775 240 682 240 L546 240 C386 240 380 349 380 454 L380 476 C380 581 386 690 546 690 L797 690 Z " />
<glyph glyph-name="quotesingle" unicode="&#x27;" horiz-adv-x="560" d="M208 1610 C176 1610 150 1586 150 1553 L150 1042 C150 1009 176 985 208 985 L352 985 C384 985 410 1009 410 1042 L410 1553 C410 1586 384 1610 352 1610 L208 1610 Z " />
<glyph glyph-name="parenleft" unicode="&#x28;" horiz-adv-x="825" d="M718 1360 C751 1360 775 1386 775 1418 L775 1552 C775 1584 751 1610 718 1610 L694 1610 C192 1610 103 1389 100 770 C103 147 194 -70 694 -70 L718 -70 C751 -70 775 -44 775 -12 L775 122 C775 154 751 180 718 180 L697 180 C453 180 370 244 370 770 C370 1296 453 1360 697 1360 L718 1360 Z " />
<glyph glyph-name="parenright" unicode="&#x29;" horiz-adv-x="825" d="M107 1610 C74 1610 50 1584 50 1552 L50 1418 C50 1386 74 1360 107 1360 L128 1360 C372 1360 455 1296 455 770 C455 244 372 180 128 180 L107 180 C74 180 50 154 50 122 L50 -12 C50 -44 74 -70 107 -70 L131 -70 C631 -70 722 147 725 770 C722 1389 633 1610 131 1610 L107 1610 Z " />
<glyph glyph-name="asterisk" unicode="&#x2a;" horiz-adv-x="1240" d="M870 1058 L1112 1197 C1139 1213 1148 1248 1132 1276 L1065 1392 C1049 1419 1014 1430 987 1414 L745 1274 L745 1553 C745 1585 719 1610 687 1610 L553 1610 C521 1610 495 1585 495 1553 L495 1274 L253 1414 C226 1430 191 1419 175 1392 L108 1276 C92 1248 101 1213 128 1197 L370 1058 L128 918 C100 902 92 867 108 839 L175 723 C191 696 225 685 253 701 L495 841 L495 562 C495 529 521 505 553 505 L687 505 C719 505 745 529 745 562 L745 841 L987 701 C1015 685 1049 696 1065 723 L1132 839 C1148 867 1140 902 1112 918 L870 1058 Z " />
<glyph glyph-name="plus" unicode="&#x2b;" horiz-adv-x="1100" d="M675 725 L675 993 C675 1026 649 1050 617 1050 L483 1050 C451 1050 425 1026 425 993 L425 725 L157 725 C125 725 100 699 100 667 L100 533 C100 501 125 475 157 475 L425 475 L425 207 C425 175 451 150 483 150 L617 150 C649 150 675 175 675 207 L675 475 L943 475 C976 475 1000 501 1000 533 L1000 667 C1000 699 976 725 943 725 L675 725 Z " />
<glyph glyph-name="comma" unicode="&#x2c;" horiz-adv-x="560" d="M207 250 C174 250 150 224 150 192 L150 58 C150 26 174 0 207 0 C240 0 264 -26 264 -58 L264 -202 C264 -234 288 -260 321 -260 L353 -260 C386 -260 410 -234 410 -202 L410 192 C410 224 386 250 353 250 L207 250 Z " />
<glyph glyph-name="hyphen" unicode="&#x2d;" horiz-adv-x="750" d="M650 867 C650 899 626 925 593 925 L157 925 C125 925 100 899 100 867 L100 733 C100 701 125 675 157 675 L593 675 C626 675 650 701 650 733 L650 867 Z " />
<glyph glyph-name="period" unicode="&#x2e;" horiz-adv-x="560" d="M207 260 C174 260 150 234 150 202 L150 58 C150 26 174 0 207 0 L353 0 C386 0 410 26 410 58 L410 202 C410 234 386 260 353 260 L207 260 Z " />
<glyph glyph-name="slash" unicode="&#x2f;" horiz-adv-x="859" d="M636 1576 C606 1587 573 1574 562 1543 L54 146 C42 115 59 84 89 73 L224 24 C254 13 287 26 298 57 L806 1454 C817 1485 801 1516 771 1527 L636 1576 Z " />
<glyph glyph-name="zero" unicode="0" horiz-adv-x="1162" d="M1062 1095 C1062 1465 982 1608 585 1608 L573 1608 C176 1608 100 1463 100 1093 L100 530 C100 157 184 -10 573 -10 L589 -10 C981 -10 1062 148 1062 525 L1062 1095 Z M812 528 C812 274 774 240 590 240 L572 240 C388 240 350 285 350 539 L350 1094 C350 1327 381 1358 573 1358 L585 1358 C779 1358 812 1328 812 1095 L812 528 Z " />
<glyph glyph-name="one" unicode="1" horiz-adv-x="740" d="M505 250 L505 1542 C505 1574 481 1600 448 1600 L157 1600 C125 1600 100 1574 100 1542 L100 1408 C100 1376 125 1350 157 1350 L235 1350 L235 250 L157 250 C125 250 100 224 100 192 L100 58 C100 26 125 0 157 0 L583 0 C616 0 640 26 640 58 L640 192 C640 224 616 250 583 250 L505 250 Z " />
<glyph glyph-name="two" unicode="2" horiz-adv-x="1269" d="M428 250 L428 256 L1104 973 C1115 985 1120 998 1120 1013 L1120 1146 C1120 1378 1027 1610 684 1610 L556 1610 C213 1610 120 1378 120 1146 L121 1146 C121 1114 145 1088 178 1088 L334 1088 C367 1088 391 1114 391 1146 C391 1251 406 1360 566 1360 L684 1360 C844 1360 850 1251 850 1146 L850 1109 L174 370 C164 359 158 345 158 330 L158 58 C158 26 180 0 215 0 L1092 0 C1125 0 1149 26 1149 58 L1149 192 C1149 224 1125 250 1092 250 L428 250 Z " />
<glyph glyph-name="three" unicode="3" horiz-adv-x="1120" d="M1040 462 L1040 464 C1040 656 975 847 759 907 L964 1026 C977 1034 980 1051 980 1066 L980 1543 C980 1576 954 1600 922 1600 L137 1600 C102 1600 80 1574 80 1542 L80 1408 C80 1376 102 1350 137 1350 L710 1350 L710 1168 L274 921 C253 913 239 892 239 868 L239 734 C239 702 264 676 296 676 L594 676 C753 676 760 568 760 463 C760 358 753 250 594 250 L137 250 C105 250 80 224 80 192 L80 58 C80 26 105 0 137 0 L604 0 C946 0 1039 231 1040 462 L1040 462 Z " />
<glyph glyph-name="four" unicode="4" horiz-adv-x="1159" d="M1009 637 L1009 1543 C1009 1576 983 1600 951 1600 L797 1600 C779 1600 764 1593 753 1581 L66 757 C57 746 50 732 50 717 L50 445 C50 413 72 387 107 387 L739 387 L739 57 C739 24 765 0 797 0 L951 0 C983 0 1009 24 1009 57 L1009 387 L1052 387 C1085 387 1109 413 1109 445 L1109 579 C1109 611 1085 637 1052 637 L1009 637 Z M739 1500 C738 1497 738 1498 739 1504 L739 1500 Z M320 643 L739 1142 L739 637 L320 637 L320 643 Z " />
<glyph glyph-name="five" unicode="5" horiz-adv-x="1185" d="M1085 462 L1085 464 C1084 695 991 926 649 926 L395 926 L395 1350 L982 1350 C1017 1350 1039 1376 1039 1408 L1039 1542 C1039 1574 1017 1600 982 1600 L182 1600 C166 1600 152 1594 142 1583 C131 1573 125 1559 125 1543 L125 733 C125 700 151 676 183 676 L639 676 C798 676 805 568 805 463 C805 358 798 250 639 250 L182 250 C150 250 125 224 125 192 L125 58 C125 26 150 0 182 0 L649 0 C991 0 1084 231 1085 462 L1085 462 Z " />
<glyph glyph-name="six" unicode="6" horiz-adv-x="1217" d="M561 1030 C497 1030 442 1022 395 1008 L395 1136 C395 1241 401 1350 561 1350 L960 1350 C993 1350 1017 1376 1017 1408 L1017 1542 C1017 1574 993 1600 960 1600 L561 1600 C218 1600 125 1368 125 1136 L125 454 C125 222 218 -10 561 -10 L681 -10 C1024 -10 1117 222 1117 454 L1117 566 C1117 798 1024 1030 681 1030 L561 1030 Z M571 240 C411 240 405 349 405 454 L405 566 C405 671 411 780 571 780 L671 780 C831 780 837 671 837 566 L837 454 C837 349 831 240 671 240 L571 240 Z " />
<glyph glyph-name="seven" unicode="7" horiz-adv-x="1191" d="M1074 1583 C1064 1594 1050 1600 1034 1600 L157 1600 C122 1600 100 1574 100 1542 L100 1408 C100 1376 122 1350 157 1350 L821 1350 L821 1131 L208 643 C197 635 192 618 192 603 L192 57 C192 24 218 0 250 0 L404 0 C436 0 462 24 462 57 L462 468 L1075 956 C1087 966 1091 981 1091 996 L1091 1543 C1091 1559 1085 1573 1074 1583 L1074 1583 Z " />
<glyph glyph-name="eight" unicode="8" horiz-adv-x="1262" d="M571 1610 C230 1610 136 1381 135 1150 C136 1026 163 903 241 815 C162 726 135 601 135 476 L135 454 C135 222 228 -10 571 -10 L691 -10 C1034 -10 1127 222 1127 454 L1127 476 C1127 601 1100 726 1021 815 C1099 903 1126 1026 1127 1150 C1126 1381 1032 1610 691 1610 L571 1610 Z M681 1360 C839 1360 847 1254 847 1150 C847 1046 839 940 681 940 L581 940 C423 940 415 1046 415 1150 C415 1254 423 1360 581 1360 L681 1360 Z M135 1154 L135 1146 C135 1147 135 1149 135 1150 L135 1154 Z M1127 1146 L1127 1154 C1127 1153 1127 1151 1127 1150 L1127 1146 Z M847 454 C847 349 841 240 681 240 L581 240 C421 240 415 349 415 454 L415 476 C415 581 421 690 581 690 L681 690 C841 690 847 581 847 476 L847 454 Z " />
<glyph glyph-name="nine" unicode="9" horiz-adv-x="1217" d="M536 1610 C193 1610 100 1378 100 1146 L100 1034 C100 802 193 570 536 570 L656 570 C720 570 775 578 822 592 L822 464 C822 359 816 250 656 250 L257 250 C224 250 200 224 200 192 L200 58 C200 26 224 0 257 0 L656 0 C999 0 1092 232 1092 464 L1092 1146 C1092 1378 999 1610 656 1610 L536 1610 Z M812 1034 C812 929 806 820 646 820 L546 820 C386 820 380 929 380 1034 L380 1146 C380 1251 386 1360 546 1360 L646 1360 C806 1360 812 1251 812 1146 L812 1034 Z " />
<glyph glyph-name="colon" unicode="&#x3a;" horiz-adv-x="560" d="M207 1200 C174 1200 150 1174 150 1142 L150 998 C150 966 174 940 207 940 L353 940 C386 940 410 966 410 998 L410 1142 C410 1174 386 1200 353 1200 L207 1200 Z M207 260 C174 260 150 234 150 202 L150 58 C150 26 174 0 207 0 L353 0 C386 0 410 26 410 58 L410 202 C410 234 386 260 353 260 L207 260 Z " />
<glyph glyph-name="semicolon" unicode="&#x3b;" horiz-adv-x="560" d="M207 1200 C174 1200 150 1174 150 1142 L150 1008 C150 976 174 950 207 950 L353 950 C386 950 410 976 410 1008 L410 1142 C410 1174 386 1200 353 1200 L207 1200 Z M207 250 C174 250 150 224 150 192 L150 58 C150 26 174 0 207 0 C240 0 264 -26 264 -58 L264 -202 C264 -234 288 -260 321 -260 L353 -260 C386 -260 410 -234 410 -202 L410 192 C410 224 386 250 353 250 L207 250 Z " />
<glyph glyph-name="less" unicode="&#x3c;" horiz-adv-x="966" d="M428 601 L849 1021 C872 1043 871 1079 849 1102 L754 1197 C731 1219 695 1220 673 1197 L117 641 C105 630 99 615 99 601 C99 586 105 572 117 560 L673 4 C695 -19 731 -18 754 4 L849 99 C871 122 872 158 849 180 L428 601 Z " />
<glyph glyph-name="equal" unicode="&#x3d;" horiz-adv-x="1100" d="M1000 917 C1000 949 976 975 943 975 L157 975 C125 975 100 949 100 917 L100 783 C100 751 125 725 157 725 L943 725 C976 725 1000 751 1000 783 L1000 917 Z M1000 417 C1000 449 976 475 943 475 L157 475 C125 475 100 449 100 417 L100 283 C100 251 125 225 157 225 L943 225 C976 225 1000 251 1000 283 L1000 417 Z " />
<glyph glyph-name="greater" unicode="&#x3e;" horiz-adv-x="966" d="M293 1197 C271 1220 235 1219 212 1197 L117 1102 C95 1079 94 1043 117 1021 L538 601 L117 180 C94 158 95 122 117 99 L212 4 C235 -18 271 -19 293 4 L849 560 C861 572 867 586 866 601 C867 615 861 630 849 641 L293 1197 Z " />
<glyph glyph-name="question" unicode="&#x3f;" horiz-adv-x="1200" d="M536 1680 C193 1680 100 1448 100 1216 L101 1216 C101 1184 125 1158 158 1158 L314 1158 C347 1158 371 1184 371 1216 C371 1321 386 1430 546 1430 L664 1430 C824 1430 830 1321 830 1216 L830 1178 C830 1084 825 987 710 968 C482 925 403 746 403 557 C403 524 429 500 461 500 L605 500 C637 500 663 524 663 557 C663 635 685 706 779 724 C972 761 1100 898 1100 1178 L1100 1216 C1100 1448 1007 1680 664 1680 L536 1680 Z M460 260 C427 260 403 234 403 202 L403 58 C403 26 427 0 460 0 L606 0 C639 0 663 26 663 58 L663 202 C663 234 639 260 606 260 L460 260 Z " />
<glyph glyph-name="at" unicode="&#x40;" horiz-adv-x="1476" d="M1276 151 C1304 151 1326 172 1326 199 L1326 946 C1326 1178 1233 1410 890 1410 L586 1410 C243 1410 150 1178 150 946 L150 262 C150 31 234 -200 576 -200 L1269 -200 C1302 -200 1326 -174 1326 -142 L1326 -8 C1326 24 1302 50 1269 50 L586 50 C426 50 420 159 420 264 L420 946 C420 1051 426 1160 586 1160 L880 1160 C1009 1160 1038 1089 1044 1006 L800 1006 C626 1006 520 926 520 580 C520 283 598 144 800 144 C885 144 944 169 1046 254 L1046 199 C1046 172 1069 151 1096 151 L1276 151 Z M852 395 C806 395 770 416 770 583 C770 701 788 756 858 756 L1046 756 L1046 530 C985 463 936 395 852 395 L852 395 Z " />
<glyph glyph-name="A" unicode="A" horiz-adv-x="1378" d="M723 1619 C711 1628 702 1630 689 1630 C676 1630 667 1628 655 1619 L166 1257 C153 1248 150 1232 150 1217 L150 57 C150 24 176 0 208 0 L362 0 C394 0 420 24 420 57 L420 450 L958 450 L958 57 C958 24 984 0 1016 0 L1170 0 C1202 0 1228 24 1228 57 L1228 1217 C1228 1232 1225 1248 1212 1257 L723 1619 Z M689 1305 L958 1111 L958 700 L420 700 L420 1111 L689 1305 Z " />
<glyph glyph-name="B" unicode="B" horiz-adv-x="1320" d="M1050 846 C1101 929 1120 1033 1120 1136 C1120 1368 1024 1600 681 1600 L208 1600 C176 1600 150 1575 150 1543 L150 57 C150 24 176 0 208 0 L764 0 C1107 0 1200 232 1200 464 C1200 611 1163 758 1050 846 L1050 846 Z M840 1132 C840 1031 837 930 671 930 C554 930 475 930 420 931 L420 1336 L671 1339 C834 1341 840 1237 840 1132 L840 1132 Z M420 265 L420 667 C465 669 555 670 754 670 C920 670 920 569 920 468 C920 363 917 259 754 261 L420 265 Z " />
<glyph glyph-name="C" unicode="C" horiz-adv-x="1226" d="M1104 357 C1084 386 1055 389 1025 371 C888 287 827 255 690 250 C468 242 380 321 380 816 C380 1293 462 1350 683 1350 L1000 1350 C1033 1350 1057 1376 1057 1408 L1057 1542 C1057 1574 1033 1600 1000 1600 L686 1600 C184 1600 100 1380 100 811 C100 260 179 -11 662 -11 C879 -11 1019 44 1173 169 C1199 190 1203 223 1183 250 L1104 357 Z " />
<glyph glyph-name="D" unicode="D" horiz-adv-x="1410" d="M208 1600 C176 1600 150 1575 150 1543 L150 57 C150 24 176 0 208 0 L721 0 C1228 0 1310 235 1310 804 C1310 1370 1229 1600 716 1600 L208 1600 Z M420 250 L420 1350 L713 1350 C953 1350 1030 1284 1030 803 C1030 316 951 250 720 250 L420 250 Z " />
<glyph glyph-name="E" unicode="E" horiz-adv-x="1210" d="M410 925 L410 1350 L1053 1350 C1086 1350 1110 1376 1110 1408 L1110 1542 C1110 1574 1086 1600 1053 1600 L198 1600 C166 1600 140 1575 140 1543 L140 444 C140 252 220 0 701 0 L1053 0 C1086 0 1110 26 1110 58 L1110 192 C1110 224 1086 250 1053 250 L689 250 C487 250 410 341 410 442 L410 675 L899 675 C932 675 956 701 956 733 L956 867 C956 899 932 925 899 925 L410 925 Z " />
<glyph glyph-name="F" unicode="F" horiz-adv-x="1180" d="M208 1600 C176 1600 150 1575 150 1543 L150 57 C150 24 176 0 208 0 L362 0 C394 0 420 24 420 57 L420 675 L909 675 C942 675 966 701 966 733 L966 867 C966 899 942 925 909 925 L420 925 L420 1350 L1063 1350 C1096 1350 1120 1376 1120 1408 L1120 1542 C1120 1574 1096 1600 1063 1600 L208 1600 Z " />
<glyph glyph-name="G" unicode="G" horiz-adv-x="1374" d="M736 925 C703 925 679 899 679 867 L679 733 C679 701 703 675 736 675 L984 675 L984 250 L692 250 C468 250 380 321 380 816 C380 1293 462 1350 683 1350 L1067 1350 C1100 1350 1124 1376 1124 1408 L1124 1542 C1124 1574 1100 1600 1067 1600 L686 1600 C184 1600 100 1380 100 811 C100 260 179 0 662 0 L1196 0 C1228 0 1254 25 1254 57 L1254 868 C1254 900 1228 925 1196 925 L736 925 Z " />
<glyph glyph-name="H" unicode="H" horiz-adv-x="1382" d="M1020 1600 C988 1600 962 1575 962 1543 L962 907 L420 907 L420 1543 C420 1575 394 1600 362 1600 L208 1600 C176 1600 150 1575 150 1543 L150 57 C150 24 176 0 208 0 L362 0 C394 0 420 24 420 57 L420 657 L962 657 L962 57 C962 24 988 0 1020 0 L1174 0 C1206 0 1232 24 1232 57 L1232 1543 C1232 1575 1206 1600 1174 1600 L1020 1600 Z " />
<glyph glyph-name="I" unicode="I" horiz-adv-x="740" d="M505 250 L505 1350 L583 1350 C616 1350 640 1376 640 1408 L640 1542 C640 1574 616 1600 583 1600 L157 1600 C125 1600 100 1574 100 1542 L100 1408 C100 1376 125 1350 157 1350 L235 1350 L235 250 L157 250 C125 250 100 224 100 192 L100 58 C100 26 125 0 157 0 L583 0 C616 0 640 26 640 58 L640 192 C640 224 616 250 583 250 L505 250 Z " />
<glyph glyph-name="J" unicode="J" horiz-adv-x="1029" d="M157 1600 C124 1600 100 1574 100 1542 L100 1408 C100 1376 124 1350 157 1350 L609 1350 L609 442 C609 341 532 250 330 250 L157 250 C124 250 100 224 100 192 L100 58 C100 26 124 0 157 0 L318 0 C799 0 879 252 879 444 L879 1543 C879 1575 853 1600 821 1600 L157 1600 Z " />
<glyph glyph-name="K" unicode="K" horiz-adv-x="1354" d="M709 796 L1313 1515 C1334 1540 1337 1596 1306 1596 L1109 1596 C1079 1596 1050 1600 1029 1575 L514 963 L420 963 L420 1543 C420 1576 394 1600 362 1600 L208 1600 C176 1600 150 1576 150 1543 L150 57 C150 24 176 0 208 0 L362 0 C394 0 420 24 420 57 L420 637 L514 637 L1030 21 C1051 -4 1081 0 1110 0 L1306 0 C1337 0 1334 56 1313 81 L709 796 Z " />
<glyph glyph-name="L" unicode="L" horiz-adv-x="1222" d="M420 250 L420 1543 C420 1575 394 1600 362 1600 L208 1600 C176 1600 150 1575 150 1543 L150 57 C150 24 176 0 208 0 L1105 0 C1138 0 1162 26 1162 58 L1162 192 C1162 224 1138 250 1105 250 L420 250 Z " />
<glyph glyph-name="M" unicode="M" horiz-adv-x="2065" d="M1515 1610 C1408 1610 1279 1563 1085 1453 C1012 1559 899 1610 755 1610 C695 1610 609 1601 420 1503 L420 1543 C420 1575 394 1600 362 1600 L208 1600 C176 1600 150 1575 150 1543 L150 57 C150 24 176 0 208 0 L362 0 C394 0 420 24 420 57 L420 1216 C603 1321 699 1347 756 1347 C898 1347 910 1188 910 1029 L910 57 C910 24 936 0 968 0 L1122 0 C1154 0 1180 24 1180 57 L1180 1058 C1180 1113 1177 1164 1170 1211 C1343 1311 1452 1347 1516 1347 C1658 1347 1670 1188 1670 1029 L1670 57 C1670 24 1696 0 1728 0 L1882 0 C1914 0 1940 24 1940 57 L1940 1058 C1940 1438 1781 1610 1515 1610 L1515 1610 Z " />
<glyph glyph-name="N" unicode="N" horiz-adv-x="1368" d="M818 1610 C751 1610 654 1599 420 1470 L420 1543 C420 1575 394 1600 362 1600 L208 1600 C176 1600 150 1575 150 1543 L150 57 C150 24 176 0 208 0 L362 0 C394 0 420 24 420 57 L420 1179 C645 1315 755 1347 819 1347 C961 1347 973 1188 973 1029 L973 57 C973 24 999 0 1031 0 L1185 0 C1217 0 1243 24 1243 57 L1243 1058 C1243 1438 1084 1610 818 1610 L818 1610 Z " />
<glyph glyph-name="O" unicode="O" horiz-adv-x="1380" d="M686 1610 C183 1610 100 1380 100 808 C100 236 183 -10 691 -10 C1198 -10 1280 235 1280 804 C1280 1370 1199 1610 686 1610 L686 1610 Z M683 1350 C923 1350 1000 1284 1000 803 C1000 316 921 250 690 250 C461 250 380 315 380 807 C380 1293 459 1350 683 1350 L683 1350 Z " />
<glyph glyph-name="P" unicode="P" horiz-adv-x="1285" d="M208 1600 C176 1600 150 1575 150 1543 L150 57 C150 24 176 0 208 0 L362 0 C394 0 420 24 420 57 L420 440 L768 440 C1110 440 1195 764 1195 1048 C1195 1325 1110 1600 766 1600 L208 1600 Z M420 700 L420 1336 L756 1339 C910 1340 914 1179 914 1019 C914 875 910 700 756 700 L420 700 Z " />
<glyph glyph-name="Q" unicode="Q" horiz-adv-x="1436" d="M1206 240 C1265 371 1280 557 1280 804 C1280 1370 1199 1610 686 1610 C183 1610 100 1380 100 808 C100 236 183 -10 690 -10 L1329 -10 C1362 -10 1386 16 1386 48 L1386 182 C1386 214 1362 240 1329 240 L1206 240 Z M380 807 C380 1293 459 1350 683 1350 C923 1350 1000 1284 1000 803 C1000 316 921 250 690 250 C461 250 380 315 380 807 L380 807 Z " />
<glyph glyph-name="R" unicode="R" horiz-adv-x="1285" d="M971 490 C1146 592 1195 832 1195 1048 C1195 1325 1110 1600 766 1600 L208 1600 C176 1600 150 1575 150 1543 L150 57 C150 24 176 0 208 0 L362 0 C394 0 420 24 420 57 L420 440 L698 440 L890 28 C904 -2 937 0 967 0 L1135 0 C1167 0 1192 15 1178 45 L971 490 Z M420 700 L420 1336 L756 1339 C910 1340 914 1179 914 1019 C914 875 910 700 756 700 L420 700 Z " />
<glyph glyph-name="S" unicode="S" horiz-adv-x="1134" d="M1044 444 C1044 1002 370 833 370 1157 C370 1259 437 1350 639 1350 L955 1350 C988 1350 1012 1376 1012 1408 L1012 1542 C1012 1574 988 1600 955 1600 L651 1600 C170 1600 90 1348 90 1156 C90 597 764 761 764 442 C764 341 697 250 495 250 L166 250 C133 250 109 224 109 192 L109 58 C109 26 133 0 166 0 L483 0 C964 0 1044 252 1044 444 L1044 444 Z " />
<glyph glyph-name="T" unicode="T" horiz-adv-x="1290" d="M117 1600 C85 1600 60 1574 60 1542 L60 1408 C60 1376 85 1350 117 1350 L510 1350 L510 57 C510 24 536 0 568 0 L722 0 C754 0 780 24 780 57 L780 1350 L1173 1350 C1206 1350 1230 1376 1230 1408 L1230 1542 C1230 1574 1206 1600 1173 1600 L117 1600 Z " />
<glyph glyph-name="U" unicode="U" horiz-adv-x="1370" d="M1033 1600 C1001 1600 975 1575 975 1543 L975 727 C975 252 883 251 685 250 C487 251 395 252 395 727 L395 1543 C395 1575 369 1600 337 1600 L183 1600 C151 1600 125 1575 125 1543 L125 703 C125 173 215 -10 685 -10 C1155 -10 1245 173 1245 706 L1245 1543 C1245 1575 1219 1600 1187 1600 L1033 1600 Z " />
<glyph glyph-name="V" unicode="V" horiz-adv-x="1296" d="M974 1600 C942 1600 916 1576 916 1543 L916 1131 L648 468 L380 1131 L380 1543 C380 1576 354 1600 322 1600 L168 1600 C136 1600 110 1576 110 1543 L110 996 C110 981 121 968 126 956 L497 38 C505 15 527 0 552 0 L744 0 C769 0 791 15 799 38 L1170 956 C1175 968 1186 981 1186 996 L1186 1543 C1186 1576 1160 1600 1128 1600 L974 1600 Z " />
<glyph glyph-name="W" unicode="W" horiz-adv-x="1760" d="M1423 1600 C1391 1600 1365 1576 1365 1543 L1365 484 L1190 315 L1015 484 L1015 1543 C1015 1576 989 1600 957 1600 L803 1600 C771 1600 745 1576 745 1543 L745 484 L570 315 L395 484 L395 1543 C395 1576 369 1600 337 1600 L183 1600 C151 1600 125 1576 125 1543 L125 349 C125 334 128 319 141 309 L536 1 C548 -8 557 -10 570 -10 C583 -10 592 -9 604 1 L880 216 L1156 1 C1168 -8 1177 -10 1190 -10 C1203 -10 1212 -9 1224 1 L1619 309 C1632 319 1635 334 1635 349 L1635 1543 C1635 1576 1609 1600 1577 1600 L1423 1600 Z " />
<glyph glyph-name="X" unicode="X" horiz-adv-x="1378" d="M1016 1600 C984 1600 958 1576 958 1543 L958 1131 L689 962 L420 1131 L420 1543 C420 1576 394 1600 362 1600 L208 1600 C176 1600 150 1576 150 1543 L150 996 C150 981 153 964 166 956 L414 800 L166 643 C153 635 150 618 150 603 L150 57 C150 24 176 0 208 0 L362 0 C394 0 420 24 420 57 L420 468 L689 637 L958 468 L958 57 C958 24 984 0 1016 0 L1170 0 C1202 0 1228 24 1228 57 L1228 603 C1228 618 1225 635 1212 643 L964 800 L1212 956 C1225 964 1228 981 1228 996 L1228 1543 C1228 1576 1202 1600 1170 1600 L1016 1600 Z " />
<glyph glyph-name="Y" unicode="Y" horiz-adv-x="1338" d="M996 1600 C964 1600 938 1576 938 1543 L938 986 L669 817 L400 986 L400 1543 C400 1576 374 1600 342 1600 L188 1600 C156 1600 130 1576 130 1543 L130 851 C130 836 133 819 146 811 L533 567 L533 57 C533 25 559 0 591 0 L745 0 C777 0 803 25 803 57 L803 566 L1192 811 C1205 819 1208 836 1208 851 L1208 1543 C1208 1576 1182 1600 1150 1600 L996 1600 Z " />
<glyph glyph-name="Z" unicode="Z" horiz-adv-x="1270" d="M1170 1542 C1170 1574 1146 1600 1113 1600 L157 1600 C125 1600 100 1574 100 1542 L100 1408 C100 1376 125 1350 157 1350 L827 1350 L114 232 C106 220 100 207 100 192 L100 58 C100 26 125 0 157 0 L1113 0 C1146 0 1170 26 1170 58 L1170 192 C1170 224 1146 250 1113 250 L444 250 L1161 1376 C1167 1385 1170 1396 1170 1408 L1170 1542 Z " />
<glyph glyph-name="bracketleft" unicode="&#x5b;" horiz-adv-x="710" d="M410 1350 L603 1350 C636 1350 660 1376 660 1408 L660 1542 C660 1574 636 1600 603 1600 L208 1600 C176 1600 150 1576 150 1543 L150 -23 C150 -56 176 -80 208 -80 L603 -80 C636 -80 660 -54 660 -22 L660 112 C660 144 636 170 603 170 L410 170 L410 1350 Z " />
<glyph glyph-name="backslash" unicode="&#x5c;" horiz-adv-x="860" d="M89 1527 C59 1516 43 1485 54 1454 L562 57 C573 26 606 13 636 24 L771 73 C801 84 818 115 806 146 L298 1543 C287 1574 254 1587 224 1576 L89 1527 Z " />
<glyph glyph-name="bracketright" unicode="&#x5d;" horiz-adv-x="710" d="M107 1600 C74 1600 50 1574 50 1542 L50 1408 C50 1376 74 1350 107 1350 L300 1350 L300 170 L107 170 C74 170 50 144 50 112 L50 -22 C50 -54 74 -80 107 -80 L502 -80 C534 -80 560 -56 560 -23 L560 1543 C560 1576 534 1600 502 1600 L107 1600 Z " />
<glyph glyph-name="underscore" unicode="&#x5f;" horiz-adv-x="1000" d="M950 192 C950 224 926 250 893 250 L107 250 C75 250 50 224 50 192 L50 58 C50 26 75 0 107 0 L893 0 C926 0 950 26 950 58 L950 192 Z " />
<glyph glyph-name="grave" unicode="&#x60;" horiz-adv-x="721" d="M87 1543 C70 1517 68 1474 101 1463 L535 1322 C566 1313 596 1311 615 1338 C634 1364 627 1400 602 1417 L244 1668 C217 1687 183 1679 164 1653 L87 1543 Z " />
<glyph glyph-name="a" unicode="a" horiz-adv-x="1248" d="M492 1200 C248 1200 100 1088 100 603 C100 186 209 -10 490 -10 C611 -10 694 26 838 145 L838 68 C838 30 869 0 908 0 L1028 0 C1067 0 1098 30 1098 68 L1098 1132 C1098 1171 1067 1200 1028 1200 L492 1200 Z M517 240 C378 240 350 294 350 598 C350 873 373 950 473 950 L838 950 L838 429 C717 297 660 240 517 240 L517 240 Z " />
<glyph glyph-name="b" unicode="b" horiz-adv-x="1248" d="M789 1210 C667 1210 554 1175 410 1056 L410 1612 C410 1650 379 1680 340 1680 L220 1680 C181 1680 150 1650 150 1612 L150 68 C150 29 181 0 220 0 L786 0 C1030 0 1148 112 1148 598 C1148 1015 1069 1210 789 1210 L789 1210 Z M898 606 C897 326 872 250 772 250 L410 250 L410 760 C524 899 644 960 740 960 C841 960 899 892 898 606 L898 606 Z " />
<glyph glyph-name="c" unicode="c" horiz-adv-x="1128" d="M1014 354 C1001 374 981 385 961 385 C948 385 935 380 919 370 C739 258 709 240 636 240 C358 240 352 497 351 594 C351 809 367 950 466 950 L920 950 C960 950 988 981 988 1020 L988 1130 C988 1169 960 1200 920 1200 L492 1200 C247 1200 100 1088 100 604 C100 603 100 602 100 602 C101 173 313 -10 623 -10 C730 -10 845 12 1051 178 C1069 192 1078 213 1078 231 C1078 247 1071 262 1063 275 L1014 354 Z " />
<glyph glyph-name="d" unicode="d" horiz-adv-x="1248" d="M896 1680 C864 1680 838 1655 838 1623 L838 1200 L492 1200 C248 1200 100 1088 100 603 C100 186 209 -10 490 -10 C611 -10 694 26 838 145 L838 68 C838 30 869 0 908 0 L1028 0 C1067 0 1098 30 1098 68 L1098 1623 C1098 1655 1072 1680 1040 1680 L896 1680 Z M838 950 L838 429 C717 297 660 240 517 240 C378 240 350 294 350 598 C350 873 373 950 473 950 L838 950 Z " />
<glyph glyph-name="e" unicode="e" horiz-adv-x="1163" d="M1010 303 C1000 326 985 335 968 335 C955 335 937 331 916 320 C822 272 747 243 649 241 C416 237 364 337 354 488 L994 488 C1034 488 1063 520 1063 558 L1063 629 L1063 633 C1060 1071 976 1210 586 1210 L574 1210 C178 1210 101 1065 101 608 L101 607 C100 605 100 604 100 602 C100 172 300 -10 649 -10 C780 -10 854 16 1040 114 C1059 123 1068 139 1068 158 C1068 174 1061 192 1052 211 L1010 303 Z M586 960 C760 960 804 937 812 698 L352 698 C359 936 403 960 574 960 L586 960 Z " />
<glyph glyph-name="f" unicode="f" horiz-adv-x="654" d="M511 1600 C325 1600 198 1523 187 1200 L107 1200 C75 1200 50 1174 50 1142 L50 1008 C50 976 75 950 107 950 L186 950 L186 57 C186 24 212 0 244 0 L388 0 C420 0 446 24 446 57 L446 950 L598 950 C631 950 655 976 655 1008 L655 1142 C655 1174 631 1200 598 1200 L450 1200 C459 1304 489 1350 561 1350 L697 1350 C730 1350 754 1376 754 1408 L754 1542 C754 1574 730 1600 697 1600 L511 1600 Z " />
<glyph glyph-name="g" unicode="g" horiz-adv-x="1248" d="M1098 68 L1098 84 L1098 105 L1098 1132 C1098 1171 1067 1200 1028 1200 L492 1200 C248 1200 100 1088 100 603 C100 186 209 -10 490 -10 C611 -10 694 26 838 145 L838 105 C838 -84 816 -150 733 -150 L341 -150 C308 -150 284 -176 284 -208 L284 -342 C284 -374 308 -400 341 -400 L772 -400 C1080 -400 1097 -126 1098 65 L1098 68 Z M517 240 C378 240 350 294 350 598 C350 873 373 950 473 950 L838 950 L838 429 C717 297 660 240 517 240 L517 240 Z " />
<glyph glyph-name="h" unicode="h" horiz-adv-x="1176" d="M723 1210 C621 1210 525 1175 410 1080 L410 1623 C410 1655 384 1680 352 1680 L208 1680 C176 1680 150 1655 150 1623 L150 57 C150 24 176 0 208 0 L352 0 C384 0 410 24 410 57 L410 800 C506 901 593 958 674 958 C778 958 791 879 791 629 L791 57 C791 24 817 0 849 0 L993 0 C1025 0 1051 24 1051 57 L1051 710 C1051 1032 954 1210 723 1210 L723 1210 Z " />
<glyph glyph-name="i" unicode="i" horiz-adv-x="690" d="M422 1420 C455 1420 479 1446 479 1478 L479 1622 C479 1654 455 1680 422 1680 L276 1680 C243 1680 219 1654 219 1622 L219 1478 C219 1446 243 1420 276 1420 L422 1420 Z M479 250 L479 1143 C479 1176 453 1200 421 1200 L132 1200 C99 1200 75 1174 75 1142 L75 1008 C75 976 99 950 132 950 L219 950 L219 250 L132 250 C99 250 75 224 75 192 L75 58 C75 26 99 0 132 0 L558 0 C591 0 615 26 615 58 L615 192 C615 224 591 250 558 250 L479 250 Z " />
<glyph glyph-name="j" unicode="j" horiz-adv-x="636" d="M283 1680 C250 1680 226 1654 226 1622 L226 1488 C226 1456 250 1430 283 1430 L429 1430 C462 1430 486 1456 486 1488 L486 1622 C486 1654 462 1680 429 1680 L283 1680 Z M138 1200 C105 1200 81 1174 81 1142 L81 1008 C81 976 105 950 138 950 L225 950 L225 105 C225 -74 203 -150 110 -150 L-13 -150 C-46 -150 -70 -176 -70 -208 L-70 -342 C-70 -374 -46 -400 -13 -400 L159 -400 C354 -400 485 -315 485 48 L485 1143 C485 1176 459 1200 427 1200 L138 1200 Z " />
<glyph glyph-name="k" unicode="k" horiz-adv-x="1121" d="M699 666 L1019 1119 C1038 1146 1043 1200 1012 1200 L819 1200 C790 1200 757 1206 739 1179 L507 825 L410 825 L410 1623 C410 1656 384 1680 352 1680 L208 1680 C176 1680 150 1656 150 1623 L150 57 C150 24 176 0 208 0 L352 0 C384 0 410 24 410 57 L410 499 L507 499 L800 21 C817 -7 850 0 880 0 L1074 0 C1105 0 1099 54 1081 81 L699 666 Z " />
<glyph glyph-name="l" unicode="l" horiz-adv-x="640" d="M454 250 L454 1623 C454 1656 428 1680 396 1680 L107 1680 C74 1680 50 1654 50 1622 L50 1488 C50 1456 74 1430 107 1430 L194 1430 L194 57 C194 28 214 6 240 1 L240 0 L533 0 C566 0 590 26 590 58 L590 192 C590 224 566 250 533 250 L454 250 Z " />
<glyph glyph-name="m" unicode="m" horiz-adv-x="1685" d="M1232 1210 C1137 1210 1067 1194 911 1083 C858 1166 778 1210 665 1210 C511 1210 449 1133 410 1087 L410 1143 C410 1176 384 1200 352 1200 L208 1200 C176 1200 150 1176 150 1143 L150 57 C150 24 176 0 208 0 L352 0 C384 0 410 24 410 57 L410 843 C485 918 543 958 612 958 C717 958 730 880 730 629 L730 57 C730 24 756 0 788 0 L932 0 C964 0 990 24 990 57 L990 710 C990 761 987 809 982 853 C1055 921 1118 958 1183 958 C1287 958 1300 879 1300 629 L1300 57 C1300 24 1326 0 1358 0 L1502 0 C1534 0 1560 24 1560 57 L1560 710 C1560 1032 1463 1210 1232 1210 L1232 1210 Z " />
<glyph glyph-name="n" unicode="n" horiz-adv-x="1176" d="M723 1210 C621 1210 525 1175 410 1080 L410 1143 C410 1175 384 1200 352 1200 L208 1200 C176 1200 150 1175 150 1143 L150 57 C150 24 176 0 208 0 L352 0 C384 0 410 24 410 57 L410 799 C506 900 593 957 674 957 C778 957 791 878 791 629 L791 57 C791 24 817 0 849 0 L993 0 C1025 0 1051 24 1051 57 L1051 710 C1051 1032 954 1210 723 1210 L723 1210 Z " />
<glyph glyph-name="o" unicode="o" horiz-adv-x="1162" d="M589 -10 C982 -10 1062 148 1062 607 C1062 1066 982 1210 585 1210 L573 1210 C177 1210 100 1065 100 608 C100 147 179 -10 573 -10 L589 -10 Z M585 960 C779 960 812 931 812 608 C812 275 776 240 590 240 L572 240 C386 240 350 274 350 607 C350 930 383 960 573 960 L585 960 Z " />
<glyph glyph-name="p" unicode="p" horiz-adv-x="1248" d="M789 1210 C667 1210 554 1175 410 1056 L410 1132 C410 1170 379 1200 340 1200 L220 1200 C181 1200 150 1170 150 1132 L150 -332 C150 -371 181 -400 220 -400 L340 -400 C379 -400 410 -371 410 -332 L410 0 L786 0 C1030 0 1148 112 1148 598 C1148 1015 1069 1210 789 1210 L789 1210 Z M898 606 C897 326 872 250 772 250 L410 250 L410 760 C524 899 644 960 740 960 C841 960 899 892 898 606 L898 606 Z " />
<glyph glyph-name="q" unicode="q" horiz-adv-x="1248" d="M492 1200 C248 1200 100 1088 100 603 C100 186 209 -10 490 -10 C611 -10 694 26 838 145 L838 -343 C838 -376 864 -400 896 -400 L1040 -400 C1072 -400 1098 -376 1098 -343 L1098 1132 C1098 1171 1067 1200 1028 1200 L492 1200 Z M517 240 C378 240 350 294 350 598 C350 873 373 950 473 950 L838 950 L838 429 C717 297 660 240 517 240 L517 240 Z " />
<glyph glyph-name="r" unicode="r" horiz-adv-x="805" d="M651 1210 C541 1210 451 1133 410 1087 L410 1143 C410 1176 384 1200 352 1200 L208 1200 C176 1200 150 1176 150 1143 L150 57 C150 24 176 0 208 0 L352 0 C384 0 410 24 410 57 L410 852 C485 925 543 960 612 960 L698 960 C731 960 755 986 755 1018 L755 1142 C755 1174 719 1210 651 1210 L651 1210 Z " />
<glyph glyph-name="s" unicode="s" horiz-adv-x="956" d="M759 950 C798 950 827 981 827 1020 L827 1130 C827 1169 798 1200 759 1200 L530 1200 C142 1200 90 1028 90 883 C90 422 616 513 616 341 C616 262 507 250 435 250 L159 250 C119 250 90 219 90 180 L90 70 C90 31 119 0 159 0 L416 0 C785 0 866 197 866 351 C866 744 340 634 340 870 C340 940 387 950 550 950 L759 950 Z " />
<glyph glyph-name="t" unicode="t" horiz-adv-x="804" d="M561 250 C468 250 446 326 446 505 L446 950 L598 950 C631 950 655 976 655 1008 L655 1142 C655 1174 631 1200 598 1200 L446 1200 L446 1443 C446 1476 420 1500 388 1500 L244 1500 C212 1500 186 1476 186 1443 L186 1200 L107 1200 C75 1200 50 1174 50 1142 L50 1008 C50 976 75 950 107 950 L186 950 L186 448 C186 85 316 0 511 0 L697 0 C730 0 754 26 754 58 L754 192 C754 224 730 250 697 250 L561 250 Z " />
<glyph glyph-name="u" unicode="u" horiz-adv-x="1176" d="M453 -10 C555 -10 651 25 766 120 L766 57 C766 25 792 0 824 0 L968 0 C1000 0 1026 25 1026 57 L1026 1143 C1026 1176 1000 1200 968 1200 L824 1200 C792 1200 766 1176 766 1143 L766 400 C670 299 593 242 502 242 C398 242 385 321 385 571 L385 1143 C385 1176 359 1200 327 1200 L183 1200 C151 1200 125 1176 125 1143 L125 490 C125 168 222 -10 453 -10 L453 -10 Z " />
<glyph glyph-name="v" unicode="v" horiz-adv-x="1202" d="M890 1200 C858 1200 832 1176 832 1143 L832 866 L601 350 L370 866 L370 1143 C370 1176 344 1200 312 1200 L158 1200 C126 1200 100 1176 100 1143 L100 781 C100 766 109 755 116 741 L450 39 C457 16 479 0 505 0 L697 0 C723 0 745 16 752 39 L1086 741 C1093 755 1102 766 1102 781 L1102 1143 C1102 1176 1076 1200 1044 1200 L890 1200 Z " />
<glyph glyph-name="w" unicode="w" horiz-adv-x="1780" d="M1433 1200 C1401 1200 1375 1176 1375 1143 L1375 484 L1200 315 L1025 484 L1025 1143 C1025 1176 999 1200 967 1200 L813 1200 C781 1200 755 1176 755 1143 L755 484 L580 315 L405 484 L405 1143 C405 1176 379 1200 347 1200 L193 1200 C161 1200 135 1176 135 1143 L135 349 C135 334 138 319 151 309 L546 1 C558 -8 567 -10 580 -10 C593 -10 602 -9 614 1 L890 216 L1166 1 C1178 -8 1187 -10 1200 -10 C1213 -10 1222 -9 1234 1 L1629 309 C1642 319 1645 334 1645 349 L1645 1143 C1645 1176 1619 1200 1587 1200 L1433 1200 Z " />
<glyph glyph-name="x" unicode="x" horiz-adv-x="1109" d="M974 1143 C974 1176 948 1200 916 1200 L772 1200 C740 1200 714 1176 714 1143 L714 866 L555 756 L395 866 L395 1143 C395 1176 369 1200 337 1200 L193 1200 C161 1200 135 1176 135 1143 L135 781 C135 766 138 750 151 741 L337 606 L151 477 C138 468 135 452 135 437 L135 57 C135 24 161 0 193 0 L337 0 C369 0 395 24 395 57 L395 333 L555 449 L714 333 L714 57 C714 24 740 0 772 0 L916 0 C948 0 974 24 974 156 L974 437 C974 452 971 468 958 477 L772 606 L958 741 C971 750 974 766 974 781 L974 1143 Z " />
<glyph glyph-name="y" unicode="y" horiz-adv-x="1149" d="M812 1200 C780 1200 754 1176 754 1143 L754 417 L577 273 L395 417 L395 1143 C395 1176 369 1200 337 1200 L193 1200 C161 1200 135 1176 135 1143 L135 332 C135 317 138 303 151 292 L369 105 L151 -72 C138 -82 135 -97 135 -112 L135 -343 C135 -376 161 -400 193 -400 L337 -400 C369 -400 395 -376 395 -343 L395 -216 L998 292 C1011 303 1014 317 1014 332 L1014 1143 C1014 1176 988 1200 956 1200 L812 1200 Z " />
<glyph glyph-name="z" unicode="z" horiz-adv-x="1005" d="M915 1142 C915 1174 891 1200 858 1200 L147 1200 C115 1200 90 1174 90 1142 L90 1008 C90 976 115 950 147 950 L572 950 L104 232 C96 219 90 207 90 192 L90 58 C90 26 115 0 147 0 L858 0 C891 0 915 26 915 58 L915 192 C915 224 891 250 858 250 L433 250 L906 976 C912 986 915 996 915 1008 L915 1142 Z " />
<glyph glyph-name="braceleft" unicode="&#x7b;" horiz-adv-x="918" d="M573 1095 C573 1274 595 1350 688 1350 L811 1350 C844 1350 868 1376 868 1408 L868 1542 C868 1574 844 1600 811 1600 L639 1600 C444 1600 313 1515 313 1152 L313 1139 C313 977 295 899 222 886 L157 886 C124 886 100 860 100 828 L100 692 C100 660 124 634 157 634 L222 634 C295 621 313 543 313 381 L313 368 C313 5 444 -80 639 -80 L811 -80 C844 -80 868 -54 868 -22 L868 112 C868 144 844 170 811 170 L688 170 C595 170 573 246 573 425 L573 451 C572 595 549 693 510 760 C549 827 572 925 573 1069 L573 1095 Z " />
<glyph glyph-name="bar" unicode="&#x7c;" horiz-adv-x="560" d="M208 1680 C176 1680 150 1656 150 1623 L150 -343 C150 -376 176 -400 208 -400 L352 -400 C384 -400 410 -376 410 -343 L410 1623 C410 1656 384 1680 352 1680 L208 1680 Z " />
<glyph glyph-name="braceright" unicode="&#x7d;" horiz-adv-x="918" d="M696 886 C623 899 605 977 605 1139 L605 1152 C605 1515 474 1600 279 1600 L107 1600 C74 1600 50 1574 50 1542 L50 1408 C50 1376 74 1350 107 1350 L230 1350 C323 1350 345 1274 345 1095 L345 1069 C346 925 369 827 408 760 C369 693 346 595 345 451 L345 425 C345 246 323 170 230 170 L107 170 C74 170 50 144 50 112 L50 -22 C50 -54 74 -80 107 -80 L279 -80 C474 -80 605 5 605 368 L605 381 C605 543 623 621 696 634 L761 634 C794 634 818 660 818 692 L818 828 C818 860 794 886 761 886 L696 886 Z " />
<glyph glyph-name="asciitilde" unicode="&#x7e;" horiz-adv-x="1211" d="M979 814 C952 836 923 832 898 807 C857 768 809 733 765 733 C681 733 577 861 421 861 C287 861 155 766 114 699 C95 668 93 640 121 618 L232 525 C259 503 288 507 313 532 C358 575 406 606 447 606 C533 606 634 473 789 473 C925 473 1057 575 1097 640 C1116 671 1118 699 1090 721 L979 814 Z " />
<glyph glyph-name="exclamdown" unicode="&#xa1;" horiz-adv-x="560" d="M353 940 C386 940 410 966 410 998 L410 1142 C410 1174 386 1200 353 1200 L207 1200 C174 1200 150 1174 150 1142 L150 998 C150 966 174 940 207 940 L353 940 Z M352 -400 C384 -400 410 -376 410 -343 L410 643 C410 676 384 700 352 700 L208 700 C176 700 150 676 150 643 L150 -343 C150 -376 176 -400 208 -400 L352 -400 Z " />
<glyph glyph-name="cent" unicode="&#xa2;" horiz-adv-x="1185" d="M1061 380 C1048 400 1028 411 1008 411 C995 411 982 406 966 396 C772 276 712 240 619 240 C356 240 351 523 351 594 C351 809 367 950 466 950 L920 950 C960 950 988 981 988 1020 L988 1130 C988 1169 960 1200 920 1200 L738 1200 L738 1375 C738 1415 707 1443 668 1443 L608 1443 C569 1443 538 1415 538 1375 L538 1200 L492 1200 C247 1200 100 1088 100 604 C100 603 100 603 100 602 C101 205 291 18 538 -7 L538 -186 C538 -226 569 -254 608 -254 L668 -254 C707 -254 738 -226 738 -186 L738 7 C842 33 958 91 1098 204 C1116 218 1125 239 1125 257 C1125 273 1118 288 1110 301 L1061 380 Z " />
<glyph glyph-name="sterling" unicode="&#xa3;" horiz-adv-x="1345" d="M649 889 L649 1158 C649 1259 726 1350 928 1350 L1198 1350 C1231 1350 1255 1376 1255 1408 L1255 1542 C1255 1574 1231 1600 1198 1600 L940 1600 C459 1600 379 1348 379 1156 L379 889 L222 889 C182 889 154 858 154 819 L154 759 C154 720 182 689 222 689 L379 689 L379 529 C379 327 288 250 187 250 L82 250 C49 250 25 224 25 192 L25 58 C25 26 49 0 82 0 L1194 0 C1227 0 1251 26 1251 58 L1251 192 C1251 224 1227 250 1194 250 L598 250 C629 328 648 430 648 561 L648 626 L649 627 L649 689 L831 689 C871 689 899 720 899 759 L899 819 C899 858 871 889 831 889 L649 889 Z " />
<glyph glyph-name="currency" unicode="&#xa4;" horiz-adv-x="1171" d="M967 514 C1012 584 1038 667 1038 756 C1038 844 1013 926 969 996 L1051 1078 C1079 1106 1077 1148 1049 1175 L1007 1218 C979 1245 938 1248 909 1219 L828 1138 C758 1184 674 1210 584 1210 C495 1210 412 1184 342 1139 L262 1219 C233 1248 192 1245 164 1218 L122 1175 C94 1148 92 1106 120 1078 L201 997 C157 927 131 845 131 756 C131 666 157 583 202 512 L120 430 C92 402 94 360 122 333 L164 290 C192 263 233 260 262 289 L345 372 C414 328 496 303 584 303 C673 303 755 328 825 373 L909 289 C938 260 979 263 1007 290 L1049 333 C1077 360 1079 402 1051 430 L967 514 Z M583 525 C454 525 352 626 352 756 C352 886 454 988 583 988 C713 988 816 886 816 756 C816 626 713 525 583 525 L583 525 Z " />
<glyph glyph-name="yen" unicode="&#xa5;" horiz-adv-x="1278" d="M966 1600 C934 1600 908 1576 908 1543 L908 986 L639 817 L370 986 L370 1543 C370 1576 344 1600 312 1600 L158 1600 C126 1600 100 1576 100 1543 L100 851 C100 836 103 819 116 811 L375 648 L271 648 C231 648 203 617 203 578 L203 518 C203 479 231 448 271 448 L503 448 L503 400 L271 400 C231 400 203 369 203 330 L203 270 C203 231 231 200 271 200 L503 200 L503 57 C503 25 529 0 561 0 L715 0 C747 0 773 25 773 57 L773 200 L1005 200 C1045 200 1073 231 1073 270 L1073 330 C1073 369 1045 400 1005 400 L773 400 L773 448 L1005 448 C1045 448 1073 479 1073 518 L1073 578 C1073 617 1045 648 1005 648 L903 648 L1162 811 C1175 819 1178 836 1178 851 L1178 1543 C1178 1576 1152 1600 1120 1600 L966 1600 Z " />
<glyph glyph-name="brokenbar" unicode="&#xa6;" horiz-adv-x="560" d="M208 1680 C176 1680 150 1656 150 1623 L150 948 C150 915 176 891 208 891 L352 891 C384 891 410 915 410 948 L410 1623 C410 1656 384 1680 352 1680 L208 1680 Z M208 389 C176 389 150 365 150 332 L150 -343 C150 -376 176 -400 208 -400 L352 -400 C384 -400 410 -376 410 -343 L410 332 C410 365 384 389 352 389 L208 389 Z " />
<glyph glyph-name="section" unicode="&#xa7;" horiz-adv-x="1249" d="M1035 307 C1105 389 1149 497 1149 622 C1149 1149 364 965 364 1188 C364 1249 422 1350 620 1350 C750 1350 892 1306 976 1246 C1006 1228 1033 1232 1055 1260 L1131 1359 C1152 1386 1147 1419 1121 1440 C996 1538 835 1610 625 1610 C256 1610 100 1386 100 1164 C100 1045 145 971 214 923 C144 841 100 733 100 608 C100 81 885 265 885 42 C885 -19 827 -120 629 -120 C499 -120 357 -76 273 -16 C243 2 216 -2 194 -30 L118 -129 C97 -156 102 -189 128 -210 C253 -308 414 -380 624 -380 C993 -380 1149 -156 1149 66 C1149 185 1104 259 1035 307 L1035 307 Z M365 614 C365 717 435 813 550 822 C725 795 884 770 884 616 C884 513 814 417 699 408 C524 435 365 460 365 614 L365 614 Z " />
<glyph glyph-name="dieresis" unicode="&#xa8;" horiz-adv-x="895" d="M157 1600 C124 1600 100 1574 100 1542 L100 1398 C100 1366 124 1340 157 1340 L303 1340 C336 1340 360 1366 360 1398 L360 1542 C360 1574 336 1600 303 1600 L157 1600 Z M592 1600 C559 1600 535 1574 535 1542 L535 1398 C535 1366 559 1340 592 1340 L738 1340 C771 1340 795 1366 795 1398 L795 1542 C795 1574 771 1600 738 1600 L592 1600 Z " />
<glyph glyph-name="copyright" unicode="&#xa9;" horiz-adv-x="2155" d="M1078 -345 C538 -345 100 93 100 633 C100 1172 538 1610 1078 1610 C1618 1610 2055 1172 2055 633 C2055 93 1618 -345 1078 -345 L1078 -345 Z M1078 -130 C1499 -130 1840 212 1840 633 C1840 1053 1499 1395 1078 1395 C657 1395 315 1053 315 633 C315 212 657 -130 1078 -130 L1078 -130 Z M1426 443 C1406 471 1380 473 1358 455 C1271 382 1223 333 1113 330 C915 324 865 474 865 617 C865 762 917 904 1107 904 L1367 904 C1395 904 1416 926 1416 954 L1416 1089 C1416 1117 1395 1139 1367 1139 L1110 1139 C680 1139 605 837 605 620 C605 408 677 89 1087 89 C1264 89 1367 148 1494 269 C1516 290 1520 316 1503 339 L1426 443 Z " />
<glyph glyph-name="guillemotleft" unicode="&#xab;" horiz-adv-x="1260" d="M415 619 L632 897 C652 923 646 957 621 977 L508 1066 C482 1086 447 1083 427 1057 L112 654 C104 643 100 631 100 619 C100 607 104 595 112 584 L427 181 C447 155 482 152 508 172 L621 261 C646 281 652 315 632 341 L415 619 Z M931 619 L1148 897 C1168 923 1162 957 1137 977 L1024 1066 C998 1086 963 1083 943 1057 L628 654 C620 643 616 631 616 619 C616 607 620 595 628 584 L943 181 C963 155 998 152 1024 172 L1137 261 C1162 281 1168 315 1148 341 L931 619 Z " />
<glyph glyph-name="registered" unicode="&#xae;" horiz-adv-x="2155" d="M1078 1610 C538 1610 100 1172 100 633 C100 93 538 -345 1078 -345 C1618 -345 2055 93 2055 633 C2055 1172 1618 1610 1078 1610 L1078 1610 Z M1078 -130 C657 -130 315 212 315 633 C315 1053 657 1395 1078 1395 C1499 1395 1840 1053 1840 633 C1840 212 1499 -130 1078 -130 L1078 -130 Z M1588 807 C1588 1056 1504 1200 1159 1200 L692 1200 C660 1200 634 1175 634 1143 L634 175 C634 142 660 118 692 118 L846 118 C878 118 904 142 904 175 L904 390 L1161 390 L1172 390 L1286 146 C1300 116 1333 118 1363 118 L1531 118 C1563 118 1588 133 1574 163 L1438 456 C1553 531 1588 661 1588 807 L1588 807 Z M904 640 L904 950 L1149 950 C1303 950 1307 908 1307 800 C1307 698 1304 640 1149 640 L904 640 Z " />
<glyph glyph-name="macron" unicode="&#xaf;" horiz-adv-x="925" d="M825 1542 C825 1574 801 1600 768 1600 L157 1600 C125 1600 100 1574 100 1542 L100 1458 C100 1426 125 1400 157 1400 L768 1400 C801 1400 825 1426 825 1458 L825 1542 Z " />
<glyph glyph-name="degree" unicode="&#xb0;" horiz-adv-x="827" d="M413 983 C586 983 727 1123 727 1296 C727 1469 586 1610 413 1610 C240 1610 100 1469 100 1296 C100 1123 240 983 413 983 L413 983 Z M413 1165 C340 1165 282 1223 282 1296 C282 1369 340 1428 413 1428 C486 1428 545 1369 545 1296 C545 1223 486 1165 413 1165 L413 1165 Z " />
<glyph glyph-name="plusminus" unicode="&#xb1;" horiz-adv-x="1100" d="M675 895 L675 1143 C675 1176 649 1200 617 1200 L483 1200 C451 1200 425 1176 425 1143 L425 895 L157 895 C125 895 100 869 100 837 L100 703 C100 671 125 645 157 645 L425 645 L425 397 C425 365 451 340 483 340 L617 340 C649 340 675 365 675 397 L675 645 L943 645 C976 645 1000 671 1000 703 L1000 837 C1000 869 976 895 943 895 L675 895 Z M157 250 C125 250 100 224 100 192 L100 58 C100 26 125 0 157 0 L943 0 C976 0 1000 26 1000 58 L1000 192 C1000 224 976 250 943 250 L157 250 Z " />
<glyph glyph-name="acute" unicode="&#xb4;" horiz-adv-x="721" d="M537 1653 C518 1679 484 1687 457 1668 L99 1417 C74 1400 67 1364 86 1338 C105 1311 135 1313 166 1322 L600 1463 C633 1474 631 1517 614 1543 L537 1653 Z " />
<glyph glyph-name="paragraph" unicode="&#xb6;" horiz-adv-x="1543" d="M545 1600 C249 1600 100 1370 100 1141 C100 913 248 685 545 685 L613 685 L613 57 C613 24 639 0 671 0 L815 0 C847 0 873 24 873 57 L873 1543 C873 1576 847 1600 815 1600 L545 1600 Z M1191 1600 C1159 1600 1133 1576 1133 1543 L1133 57 C1133 24 1159 0 1191 0 L1335 0 C1367 0 1393 24 1393 57 L1393 1543 C1393 1576 1367 1600 1335 1600 L1191 1600 Z " />
<glyph glyph-name="periodcentered" unicode="&#xb7;" horiz-adv-x="560" d="M207 720 C174 720 150 694 150 662 L150 528 C150 496 174 470 207 470 L353 470 C386 470 410 496 410 528 L410 662 C410 694 386 720 353 720 L207 720 Z " />
<glyph glyph-name="cedilla" unicode="&#xb8;" horiz-adv-x="600" d="M245 5 L245 -70 C245 -102 270 -128 302 -128 C341 -128 372 -159 372 -198 C372 -236 341 -267 302 -267 C281 -267 263 -258 250 -243 C228 -221 194 -225 172 -249 L160 -262 C138 -286 137 -321 161 -343 C197 -378 247 -400 302 -400 C414 -400 505 -310 505 -198 C505 -86 414 5 302 5 L245 5 Z " />
<glyph glyph-name="guillemotright" unicode="&#xbb;" horiz-adv-x="1260" d="M644 619 C644 631 640 643 632 654 L317 1057 C297 1083 262 1086 236 1066 L123 977 C98 957 92 923 112 897 L329 619 L112 341 C92 315 98 281 123 261 L236 172 C262 152 297 155 317 181 L632 584 C640 595 644 607 644 619 L644 619 Z M833 1057 C813 1083 778 1086 752 1066 L639 977 C614 957 608 923 628 897 L845 619 L628 341 C608 315 614 281 639 261 L752 172 C778 152 813 155 833 181 L1148 584 C1156 595 1160 607 1160 619 C1160 631 1156 643 1148 654 L833 1057 Z " />
<glyph glyph-name="questiondown" unicode="&#xbf;" horiz-adv-x="1200" d="M740 940 C773 940 797 966 797 998 L797 1142 C797 1174 773 1200 740 1200 L594 1200 C561 1200 537 1174 537 1142 L537 998 C537 966 561 940 594 940 L740 940 Z M1100 -16 C1099 16 1075 42 1042 42 L886 42 C853 42 829 16 829 -16 C829 -121 814 -230 654 -230 L536 -230 C376 -230 370 -121 370 -16 L370 22 C370 116 375 213 490 232 C718 275 797 454 797 643 C797 676 771 700 739 700 L595 700 C563 700 537 676 537 643 C537 565 515 494 421 476 C228 439 100 302 100 22 L100 -16 C100 -248 193 -480 536 -480 L664 -480 C1007 -480 1100 -248 1100 -16 L1100 -16 Z " />
<glyph glyph-name="Agrave" unicode="&#xc0;" horiz-adv-x="1378" d="M462 1918 C445 1892 443 1849 476 1838 L910 1697 C941 1688 971 1686 990 1713 C1009 1739 1002 1775 977 1792 L619 2043 C592 2062 558 2054 539 2028 L462 1918 Z M723 1619 C711 1628 702 1630 689 1630 C676 1630 667 1628 655 1619 L166 1257 C153 1248 150 1232 150 1217 L150 57 C150 24 176 0 208 0 L362 0 C394 0 420 24 420 57 L420 450 L958 450 L958 57 C958 24 984 0 1016 0 L1170 0 C1202 0 1228 24 1228 57 L1228 1217 C1228 1232 1225 1248 1212 1257 L723 1619 Z M689 1305 L958 1111 L958 700 L420 700 L420 1111 L689 1305 Z " />
<glyph glyph-name="Aacute" unicode="&#xc1;" horiz-adv-x="1378" d="M825 2028 C806 2054 772 2062 745 2043 L387 1792 C362 1775 355 1739 374 1713 C393 1686 423 1688 454 1697 L888 1838 C921 1849 919 1892 902 1918 L825 2028 Z M723 1619 C711 1628 702 1630 689 1630 C676 1630 667 1628 655 1619 L166 1257 C153 1248 150 1232 150 1217 L150 57 C150 24 176 0 208 0 L362 0 C394 0 420 24 420 57 L420 450 L958 450 L958 57 C958 24 984 0 1016 0 L1170 0 C1202 0 1228 24 1228 57 L1228 1217 C1228 1232 1225 1248 1212 1257 L723 1619 Z M689 1305 L958 1111 L958 700 L420 700 L420 1111 L689 1305 Z " />
<glyph glyph-name="Acircumflex" unicode="&#xc2;" horiz-adv-x="1378" d="M639 1789 L906 1647 C934 1632 964 1625 987 1648 C1010 1671 1010 1707 988 1729 L679 2038 C668 2049 653 2055 639 2054 C625 2055 610 2049 599 2038 L290 1729 C268 1707 268 1671 291 1648 C314 1625 344 1632 372 1647 L639 1789 Z M723 1619 C711 1628 702 1630 689 1630 C676 1630 667 1628 655 1619 L166 1257 C153 1248 150 1232 150 1217 L150 57 C150 24 176 0 208 0 L362 0 C394 0 420 24 420 57 L420 450 L958 450 L958 57 C958 24 984 0 1016 0 L1170 0 C1202 0 1228 24 1228 57 L1228 1217 C1228 1232 1225 1248 1212 1257 L723 1619 Z M958 1111 L958 700 L420 700 L420 1111 L689 1305 L958 1111 Z " />
<glyph glyph-name="Atilde" unicode="&#xc3;" horiz-adv-x="1378" d="M1025 1945 C1006 1975 972 1979 946 1962 L859 1906 C834 1890 810 1879 787 1879 C716 1879 658 1985 534 1985 C474 1985 377 1960 277 1893 L243 1870 C212 1850 208 1818 226 1791 L283 1703 C302 1673 336 1669 362 1686 L449 1742 C480 1762 504 1770 523 1770 C592 1770 641 1663 771 1663 C835 1663 931 1688 1031 1755 L1065 1778 C1096 1798 1100 1830 1082 1857 L1025 1945 Z M723 1619 C711 1628 702 1630 689 1630 C676 1630 667 1628 655 1619 L166 1257 C153 1248 150 1232 150 1217 L150 57 C150 24 176 0 208 0 L362 0 C394 0 420 24 420 57 L420 450 L958 450 L958 57 C958 24 984 0 1016 0 L1170 0 C1202 0 1228 24 1228 57 L1228 1217 C1228 1232 1225 1248 1212 1257 L723 1619 Z M689 1305 L958 1111 L958 700 L420 700 L420 1111 L689 1305 Z " />
<glyph glyph-name="Adieresis" unicode="&#xc4;" horiz-adv-x="1378" d="M346 1975 C313 1975 289 1949 289 1917 L289 1773 C289 1741 313 1715 346 1715 L492 1715 C525 1715 549 1741 549 1773 L549 1917 C549 1949 525 1975 492 1975 L346 1975 Z M781 1975 C748 1975 724 1949 724 1917 L724 1773 C724 1741 748 1715 781 1715 L927 1715 C960 1715 984 1741 984 1773 L984 1917 C984 1949 960 1975 927 1975 L781 1975 Z M723 1619 C711 1628 702 1630 689 1630 C676 1630 667 1628 655 1619 L166 1257 C153 1248 150 1232 150 1217 L150 57 C150 24 176 0 208 0 L362 0 C394 0 420 24 420 57 L420 450 L958 450 L958 57 C958 24 984 0 1016 0 L1170 0 C1202 0 1228 24 1228 57 L1228 1217 C1228 1232 1225 1248 1212 1257 L723 1619 Z M689 1305 L958 1111 L958 700 L420 700 L420 1111 L689 1305 Z " />
<glyph glyph-name="Aring" unicode="&#xc5;" horiz-adv-x="1378" d="M642 1650 C754 1650 845 1740 845 1852 C845 1964 754 2055 642 2055 C530 2055 440 1964 440 1852 C440 1740 530 1650 642 1650 L642 1650 Z M642 1770 C597 1770 560 1807 560 1852 C560 1898 597 1935 642 1935 C688 1935 725 1898 725 1852 C725 1807 688 1770 642 1770 L642 1770 Z M723 1619 C711 1628 702 1630 689 1630 C676 1630 667 1628 655 1619 L166 1257 C153 1248 150 1232 150 1217 L150 57 C150 24 176 0 208 0 L362 0 C394 0 420 24 420 57 L420 450 L958 450 L958 57 C958 24 984 0 1016 0 L1170 0 C1202 0 1228 24 1228 57 L1228 1217 C1228 1232 1225 1248 1212 1257 L723 1619 Z M689 1305 L958 1111 L958 700 L420 700 L420 1111 L689 1305 Z " />
<glyph glyph-name="AE" unicode="&#xc6;" horiz-adv-x="2028" d="M1228 925 L1228 1350 L1871 1350 C1904 1350 1928 1376 1928 1408 L1928 1542 C1928 1574 1904 1600 1871 1600 L1016 1600 C984 1600 958 1575 958 1543 L958 1445 L723 1619 C711 1628 702 1630 689 1630 C676 1630 667 1628 655 1619 L166 1257 C153 1248 150 1232 150 1217 L150 57 C150 24 176 0 208 0 L362 0 C394 0 420 24 420 57 L420 450 L958 450 L958 411 C968 224 1065 0 1519 0 L1871 0 C1904 0 1928 26 1928 58 L1928 192 C1928 224 1904 250 1871 250 L1507 250 C1305 250 1228 341 1228 442 L1228 675 L1717 675 C1750 675 1774 701 1774 733 L1774 867 C1774 899 1750 925 1717 925 L1228 925 Z M958 700 L420 700 L420 1111 L689 1305 L958 1111 L958 700 Z " />
<glyph glyph-name="Ccedilla" unicode="&#xc7;" horiz-adv-x="1226" d="M1104 357 C1084 386 1055 389 1025 371 C888 287 827 255 690 250 C468 242 380 321 380 816 C380 1293 462 1350 683 1350 L1000 1350 C1033 1350 1057 1376 1057 1408 L1057 1542 C1057 1574 1033 1600 1000 1600 L686 1600 C184 1600 100 1380 100 811 C100 303 167 33 557 -6 L557 -70 C557 -102 582 -128 614 -128 C653 -128 684 -159 684 -198 C684 -236 653 -267 614 -267 C593 -267 575 -258 562 -243 C540 -221 506 -225 484 -249 L472 -262 C450 -286 449 -321 473 -343 C509 -378 559 -400 614 -400 C726 -400 817 -310 817 -198 C817 -114 765 -41 692 -11 C892 -6 1026 50 1173 169 C1199 190 1203 223 1183 250 L1104 357 Z " />
<glyph glyph-name="Egrave" unicode="&#xc8;" horiz-adv-x="1210" d="M312 1918 C295 1892 293 1849 326 1838 L760 1697 C791 1688 821 1686 840 1713 C859 1739 852 1775 827 1792 L469 2043 C442 2062 408 2054 389 2028 L312 1918 Z M410 925 L410 1350 L1053 1350 C1086 1350 1110 1376 1110 1408 L1110 1542 C1110 1574 1086 1600 1053 1600 L198 1600 C166 1600 140 1575 140 1543 L140 444 C140 252 220 0 701 0 L1053 0 C1086 0 1110 26 1110 58 L1110 192 C1110 224 1086 250 1053 250 L689 250 C487 250 410 341 410 442 L410 675 L899 675 C932 675 956 701 956 733 L956 867 C956 899 932 925 899 925 L410 925 Z " />
<glyph glyph-name="Eacute" unicode="&#xc9;" horiz-adv-x="1210" d="M825 2028 C806 2054 772 2062 745 2043 L387 1792 C362 1775 355 1739 374 1713 C393 1686 423 1688 454 1697 L888 1838 C921 1849 919 1892 902 1918 L825 2028 Z M410 925 L410 1350 L1053 1350 C1086 1350 1110 1376 1110 1408 L1110 1542 C1110 1574 1086 1600 1053 1600 L198 1600 C166 1600 140 1575 140 1543 L140 444 C140 252 220 0 701 0 L1053 0 C1086 0 1110 26 1110 58 L1110 192 C1110 224 1086 250 1053 250 L689 250 C487 250 410 341 410 442 L410 675 L899 675 C932 675 956 701 956 733 L956 867 C956 899 932 925 899 925 L410 925 Z " />
<glyph glyph-name="Ecircumflex" unicode="&#xca;" horiz-adv-x="1210" d="M592 1789 L859 1647 C887 1632 917 1625 940 1648 C963 1671 963 1707 941 1729 L632 2038 C621 2049 606 2055 592 2054 C578 2055 563 2049 552 2038 L243 1729 C221 1707 221 1671 244 1648 C267 1625 297 1632 325 1647 L592 1789 Z M410 1350 L1053 1350 C1086 1350 1110 1376 1110 1408 L1110 1542 C1110 1574 1086 1600 1053 1600 L198 1600 C166 1600 140 1575 140 1543 L140 444 C140 252 220 0 701 0 L1053 0 C1086 0 1110 26 1110 58 L1110 192 C1110 224 1086 250 1053 250 L689 250 C487 250 410 341 410 442 L410 675 L899 675 C932 675 956 701 956 733 L956 867 C956 899 932 925 899 925 L410 925 L410 1350 Z " />
<glyph glyph-name="Edieresis" unicode="&#xcb;" horiz-adv-x="1210" d="M311 1975 C278 1975 254 1949 254 1917 L254 1773 C254 1741 278 1715 311 1715 L457 1715 C490 1715 514 1741 514 1773 L514 1917 C514 1949 490 1975 457 1975 L311 1975 Z M746 1975 C713 1975 689 1949 689 1917 L689 1773 C689 1741 713 1715 746 1715 L892 1715 C925 1715 949 1741 949 1773 L949 1917 C949 1949 925 1975 892 1975 L746 1975 Z M410 925 L410 1350 L1053 1350 C1086 1350 1110 1376 1110 1408 L1110 1542 C1110 1574 1086 1600 1053 1600 L198 1600 C166 1600 140 1575 140 1543 L140 444 C140 252 220 0 701 0 L1053 0 C1086 0 1110 26 1110 58 L1110 192 C1110 224 1086 250 1053 250 L689 250 C487 250 410 341 410 442 L410 675 L899 675 C932 675 956 701 956 733 L956 867 C956 899 932 925 899 925 L410 925 Z " />
<glyph glyph-name="Igrave" unicode="&#xcc;" horiz-adv-x="740" d="M87 1918 C70 1892 68 1849 101 1838 L535 1697 C566 1688 596 1686 615 1713 C634 1739 627 1775 602 1792 L244 2043 C217 2062 183 2054 164 2028 L87 1918 Z M505 250 L505 1350 L583 1350 C616 1350 640 1376 640 1408 L640 1542 C640 1574 616 1600 583 1600 L157 1600 C125 1600 100 1574 100 1542 L100 1408 C100 1376 125 1350 157 1350 L235 1350 L235 250 L157 250 C125 250 100 224 100 192 L100 58 C100 26 125 0 157 0 L583 0 C616 0 640 26 640 58 L640 192 C640 224 616 250 583 250 L505 250 Z " />
<glyph glyph-name="Iacute" unicode="&#xcd;" horiz-adv-x="740" d="M572 2028 C553 2054 519 2062 492 2043 L134 1792 C109 1775 102 1739 121 1713 C140 1686 170 1688 201 1697 L635 1838 C668 1849 666 1892 649 1918 L572 2028 Z M505 250 L505 1350 L583 1350 C616 1350 640 1376 640 1408 L640 1542 C640 1574 616 1600 583 1600 L157 1600 C125 1600 100 1574 100 1542 L100 1408 C100 1376 125 1350 157 1350 L235 1350 L235 250 L157 250 C125 250 100 224 100 192 L100 58 C100 26 125 0 157 0 L583 0 C616 0 640 26 640 58 L640 192 C640 224 616 250 583 250 L505 250 Z " />
<glyph glyph-name="Icircumflex" unicode="&#xce;" horiz-adv-x="740" d="M405 2038 C394 2049 379 2055 365 2054 C351 2055 336 2049 325 2038 L16 1729 C-6 1707 -6 1671 17 1648 C40 1625 70 1632 98 1647 L365 1789 L632 1647 C660 1632 690 1625 713 1648 C736 1671 736 1707 714 1729 L405 2038 Z M157 1600 C125 1600 100 1574 100 1542 L100 1408 C100 1376 125 1350 157 1350 L235 1350 L235 250 L157 250 C125 250 100 224 100 192 L100 58 C100 26 125 0 157 0 L583 0 C616 0 640 26 640 58 L640 192 C640 224 616 250 583 250 L505 250 L505 1350 L583 1350 C616 1350 640 1376 640 1408 L640 1542 C640 1574 616 1600 583 1600 L157 1600 Z " />
<glyph glyph-name="Idieresis" unicode="&#xcf;" horiz-adv-x="740" d="M87 1975 C54 1975 30 1949 30 1917 L30 1773 C30 1741 54 1715 87 1715 L233 1715 C266 1715 290 1741 290 1773 L290 1917 C290 1949 266 1975 233 1975 L87 1975 Z M522 1975 C489 1975 465 1949 465 1917 L465 1773 C465 1741 489 1715 522 1715 L668 1715 C701 1715 725 1741 725 1773 L725 1917 C725 1949 701 1975 668 1975 L522 1975 Z M505 250 L505 1350 L583 1350 C616 1350 640 1376 640 1408 L640 1542 C640 1574 616 1600 583 1600 L157 1600 C125 1600 100 1574 100 1542 L100 1408 C100 1376 125 1350 157 1350 L235 1350 L235 250 L157 250 C125 250 100 224 100 192 L100 58 C100 26 125 0 157 0 L583 0 C616 0 640 26 640 58 L640 192 C640 224 616 250 583 250 L505 250 Z " />
<glyph glyph-name="Eth" unicode="&#xd0;" horiz-adv-x="1350" d="M208 1600 C176 1600 150 1575 150 1543 L150 920 L52 920 C20 920 -5 894 -5 862 L-5 728 C-5 696 20 670 52 670 L150 670 L150 57 C150 24 176 0 208 0 L721 0 C1228 0 1310 235 1310 804 C1310 1370 1229 1600 716 1600 L208 1600 Z M420 250 L420 670 L488 670 C521 670 545 696 545 728 L545 862 C545 894 521 920 488 920 L420 920 L420 1350 L713 1350 C953 1350 1030 1284 1030 803 C1030 316 951 250 720 250 L420 250 Z " />
<glyph glyph-name="Ntilde" unicode="&#xd1;" horiz-adv-x="1368" d="M1043 1945 C1024 1975 990 1979 964 1962 L877 1906 C852 1890 828 1879 805 1879 C734 1879 676 1985 552 1985 C492 1985 395 1960 295 1893 L261 1870 C230 1850 226 1818 244 1791 L301 1703 C320 1673 354 1669 380 1686 L467 1742 C498 1762 522 1770 541 1770 C610 1770 659 1663 789 1663 C853 1663 949 1688 1049 1755 L1083 1778 C1114 1798 1118 1830 1100 1857 L1043 1945 Z M818 1610 C751 1610 654 1599 420 1470 L420 1543 C420 1575 394 1600 362 1600 L208 1600 C176 1600 150 1575 150 1543 L150 57 C150 24 176 0 208 0 L362 0 C394 0 420 24 420 57 L420 1179 C645 1315 755 1347 819 1347 C961 1347 973 1188 973 1029 L973 57 C973 24 999 0 1031 0 L1185 0 C1217 0 1243 24 1243 57 L1243 1058 C1243 1438 1084 1610 818 1610 L818 1610 Z " />
<glyph glyph-name="Ograve" unicode="&#xd2;" horiz-adv-x="1380" d="M411 1918 C394 1892 392 1849 425 1838 L859 1697 C890 1688 920 1686 939 1713 C958 1739 951 1775 926 1792 L568 2043 C541 2062 507 2054 488 2028 L411 1918 Z M686 1610 C183 1610 100 1380 100 808 C100 236 183 -10 691 -10 C1198 -10 1280 235 1280 804 C1280 1370 1199 1610 686 1610 L686 1610 Z M683 1350 C923 1350 1000 1284 1000 803 C1000 316 921 250 690 250 C461 250 380 315 380 807 C380 1293 459 1350 683 1350 L683 1350 Z " />
<glyph glyph-name="Oacute" unicode="&#xd3;" horiz-adv-x="1380" d="M825 2028 C806 2054 772 2062 745 2043 L387 1792 C362 1775 355 1739 374 1713 C393 1686 423 1688 454 1697 L888 1838 C921 1849 919 1892 902 1918 L825 2028 Z M686 1610 C183 1610 100 1380 100 808 C100 236 183 -10 691 -10 C1198 -10 1280 235 1280 804 C1280 1370 1199 1610 686 1610 L686 1610 Z M683 1350 C923 1350 1000 1284 1000 803 C1000 316 921 250 690 250 C461 250 380 315 380 807 C380 1293 459 1350 683 1350 L683 1350 Z " />
<glyph glyph-name="Ocircumflex" unicode="&#xd4;" horiz-adv-x="1380" d="M654 1789 L921 1647 C949 1632 979 1625 1002 1648 C1025 1671 1025 1707 1003 1729 L694 2038 C683 2049 668 2055 654 2054 C640 2055 625 2049 614 2038 L305 1729 C283 1707 283 1671 306 1648 C329 1625 359 1632 387 1647 L654 1789 Z M686 1610 C183 1610 100 1380 100 808 C100 236 183 -10 691 -10 C1198 -10 1280 235 1280 804 C1280 1370 1199 1610 686 1610 L686 1610 Z M690 250 C461 250 380 315 380 807 C380 1293 459 1350 683 1350 C923 1350 1000 1284 1000 803 C1000 316 921 250 690 250 L690 250 Z " />
<glyph glyph-name="Otilde" unicode="&#xd5;" horiz-adv-x="1380" d="M1041 1945 C1022 1975 988 1979 962 1962 L875 1906 C850 1890 826 1879 803 1879 C732 1879 674 1985 550 1985 C490 1985 393 1960 293 1893 L259 1870 C228 1850 224 1818 242 1791 L299 1703 C318 1673 352 1669 378 1686 L465 1742 C496 1762 520 1770 539 1770 C608 1770 657 1663 787 1663 C851 1663 947 1688 1047 1755 L1081 1778 C1112 1798 1116 1830 1098 1857 L1041 1945 Z M686 1610 C183 1610 100 1380 100 808 C100 236 183 -10 691 -10 C1198 -10 1280 235 1280 804 C1280 1370 1199 1610 686 1610 L686 1610 Z M683 1350 C923 1350 1000 1284 1000 803 C1000 316 921 250 690 250 C461 250 380 315 380 807 C380 1293 459 1350 683 1350 L683 1350 Z " />
<glyph glyph-name="Odieresis" unicode="&#xd6;" horiz-adv-x="1380" d="M346 1975 C313 1975 289 1949 289 1917 L289 1773 C289 1741 313 1715 346 1715 L492 1715 C525 1715 549 1741 549 1773 L549 1917 C549 1949 525 1975 492 1975 L346 1975 Z M781 1975 C748 1975 724 1949 724 1917 L724 1773 C724 1741 748 1715 781 1715 L927 1715 C960 1715 984 1741 984 1773 L984 1917 C984 1949 960 1975 927 1975 L781 1975 Z M686 1610 C183 1610 100 1380 100 808 C100 236 183 -10 691 -10 C1198 -10 1280 235 1280 804 C1280 1370 1199 1610 686 1610 L686 1610 Z M683 1350 C923 1350 1000 1284 1000 803 C1000 316 921 250 690 250 C461 250 380 315 380 807 C380 1293 459 1350 683 1350 L683 1350 Z " />
<glyph glyph-name="multiply" unicode="&#xd7;" horiz-adv-x="966" d="M660 600 L850 790 C873 813 871 848 849 871 L754 966 C731 988 696 990 673 966 L484 777 L294 966 C270 990 235 988 212 966 L118 871 C95 848 94 813 117 790 L307 600 L117 410 C94 388 95 352 118 329 L212 234 C235 212 271 211 294 234 L484 424 L673 234 C695 211 731 212 754 234 L849 329 C871 352 872 388 850 410 L660 600 Z " />
<glyph glyph-name="Oslash" unicode="&#xd8;" horiz-adv-x="1380" d="M686 1610 C183 1610 100 1380 100 808 C100 236 183 -10 691 -10 C1198 -10 1280 235 1280 804 C1280 1370 1199 1610 686 1610 L686 1610 Z M683 1350 C699 1350 713 1350 727 1349 L405 463 C388 544 380 655 380 807 C380 1293 459 1350 683 1350 L683 1350 Z M690 250 C660 250 632 251 606 254 L954 1212 C987 1131 1000 1003 1000 803 C1000 316 921 250 690 250 L690 250 Z " />
<glyph glyph-name="Ugrave" unicode="&#xd9;" horiz-adv-x="1370" d="M385 1918 C368 1892 366 1849 399 1838 L833 1697 C864 1688 894 1686 913 1713 C932 1739 925 1775 900 1792 L542 2043 C515 2062 481 2054 462 2028 L385 1918 Z M1033 1600 C1001 1600 975 1575 975 1543 L975 727 C975 252 883 251 685 250 C487 251 395 252 395 727 L395 1543 C395 1575 369 1600 337 1600 L183 1600 C151 1600 125 1575 125 1543 L125 703 C125 173 215 -10 685 -10 C1155 -10 1245 173 1245 706 L1245 1543 C1245 1575 1219 1600 1187 1600 L1033 1600 Z " />
<glyph glyph-name="Uacute" unicode="&#xda;" horiz-adv-x="1370" d="M881 2028 C862 2054 828 2062 801 2043 L443 1792 C418 1775 411 1739 430 1713 C449 1686 479 1688 510 1697 L944 1838 C977 1849 975 1892 958 1918 L881 2028 Z M1033 1600 C1001 1600 975 1575 975 1543 L975 727 C975 252 883 251 685 250 C487 251 395 252 395 727 L395 1543 C395 1575 369 1600 337 1600 L183 1600 C151 1600 125 1575 125 1543 L125 703 C125 173 215 -10 685 -10 C1155 -10 1245 173 1245 706 L1245 1543 C1245 1575 1219 1600 1187 1600 L1033 1600 Z " />
<glyph glyph-name="Ucircumflex" unicode="&#xdb;" horiz-adv-x="1370" d="M639 1789 L906 1647 C934 1632 964 1625 987 1648 C1010 1671 1010 1707 988 1729 L679 2038 C668 2049 653 2055 639 2054 C625 2055 610 2049 599 2038 L290 1729 C268 1707 268 1671 291 1648 C314 1625 344 1632 372 1647 L639 1789 Z M1033 1600 C1001 1600 975 1575 975 1543 L975 727 C975 252 883 251 685 250 C487 251 395 252 395 727 L395 1543 C395 1575 369 1600 337 1600 L183 1600 C151 1600 125 1575 125 1543 L125 703 C125 173 215 -10 685 -10 C1155 -10 1245 173 1245 706 L1245 1543 C1245 1575 1219 1600 1187 1600 L1033 1600 Z " />
<glyph glyph-name="Udieresis" unicode="&#xdc;" horiz-adv-x="1370" d="M346 1975 C313 1975 289 1949 289 1917 L289 1773 C289 1741 313 1715 346 1715 L492 1715 C525 1715 549 1741 549 1773 L549 1917 C549 1949 525 1975 492 1975 L346 1975 Z M781 1975 C748 1975 724 1949 724 1917 L724 1773 C724 1741 748 1715 781 1715 L927 1715 C960 1715 984 1741 984 1773 L984 1917 C984 1949 960 1975 927 1975 L781 1975 Z M1033 1600 C1001 1600 975 1575 975 1543 L975 727 C975 252 883 251 685 250 C487 251 395 252 395 727 L395 1543 C395 1575 369 1600 337 1600 L183 1600 C151 1600 125 1575 125 1543 L125 703 C125 173 215 -10 685 -10 C1155 -10 1245 173 1245 706 L1245 1543 C1245 1575 1219 1600 1187 1600 L1033 1600 Z " />
<glyph glyph-name="Yacute" unicode="&#xdd;" horiz-adv-x="1338" d="M850 2028 C831 2054 797 2062 770 2043 L412 1792 C387 1775 380 1739 399 1713 C418 1686 448 1688 479 1697 L913 1838 C946 1849 944 1892 927 1918 L850 2028 Z M996 1600 C964 1600 938 1576 938 1543 L938 986 L669 817 L400 986 L400 1543 C400 1576 374 1600 342 1600 L188 1600 C156 1600 130 1576 130 1543 L130 851 C130 836 133 819 146 811 L533 567 L533 57 C533 25 559 0 591 0 L745 0 C777 0 803 25 803 57 L803 566 L1192 811 C1205 819 1208 836 1208 851 L1208 1543 C1208 1576 1182 1600 1150 1600 L996 1600 Z " />
<glyph glyph-name="Thorn" unicode="&#xde;" horiz-adv-x="1285" d="M420 1380 L420 1543 C420 1576 394 1600 362 1600 L208 1600 C176 1600 150 1576 150 1543 L150 57 C150 24 176 0 208 0 L362 0 C394 0 420 24 420 57 L420 220 L768 220 C1110 220 1195 544 1195 828 C1195 1105 1110 1380 766 1380 L420 1380 Z M420 480 L420 1116 L756 1119 C910 1120 914 959 914 799 C914 655 910 480 756 480 L420 480 Z " />
<glyph glyph-name="germandbls" unicode="&#xdf;" horiz-adv-x="1417" d="M1317 462 L1317 464 C1316 684 1232 904 929 924 L1134 1074 C1146 1083 1150 1099 1150 1114 L1150 1217 C1150 1449 1057 1681 714 1681 L585 1681 C250 1681 154 1460 150 1233 L150 57 C150 24 176 0 208 0 L352 0 C384 0 410 24 410 57 L410 1217 C410 1329 435 1431 595 1431 L714 1431 C874 1431 880 1325 880 1217 L880 1168 L543 917 C527 907 516 889 516 868 L516 734 C516 702 541 676 573 676 L871 676 C1030 676 1037 568 1037 463 C1037 358 1030 250 871 250 L667 250 C635 250 610 224 610 192 L610 58 C610 26 635 0 667 0 L881 0 C1223 0 1316 231 1317 462 L1317 462 Z " />
<glyph glyph-name="agrave" unicode="&#xe0;" horiz-adv-x="1248" d="M822 1322 C853 1313 883 1311 902 1338 C921 1364 914 1400 889 1417 L531 1668 C504 1687 470 1679 451 1653 L374 1543 C357 1517 355 1474 388 1463 L822 1322 Z M492 1200 C248 1200 100 1088 100 603 C100 186 209 -10 490 -10 C611 -10 694 26 838 145 L838 68 C838 30 869 0 908 0 L1028 0 C1067 0 1098 30 1098 68 L1098 1132 C1098 1171 1067 1200 1028 1200 L492 1200 Z M517 240 C378 240 350 294 350 598 C350 873 373 950 473 950 L838 950 L838 429 C717 297 660 240 517 240 L517 240 Z " />
<glyph glyph-name="aacute" unicode="&#xe1;" horiz-adv-x="1248" d="M919 1463 C952 1474 950 1517 933 1543 L856 1653 C837 1679 803 1687 776 1668 L418 1417 C393 1400 386 1364 405 1338 C424 1311 454 1313 485 1322 L919 1463 Z M492 1200 C248 1200 100 1088 100 603 C100 186 209 -10 490 -10 C611 -10 694 26 838 145 L838 68 C838 30 869 0 908 0 L1028 0 C1067 0 1098 30 1098 68 L1098 1132 C1098 1171 1067 1200 1028 1200 L492 1200 Z M517 240 C378 240 350 294 350 598 C350 873 373 950 473 950 L838 950 L838 429 C717 297 660 240 517 240 L517 240 Z " />
<glyph glyph-name="acircumflex" unicode="&#xe2;" horiz-adv-x="1248" d="M600 1414 L867 1272 C895 1257 925 1250 948 1273 C971 1296 971 1332 949 1354 L640 1663 C629 1674 614 1680 600 1679 C586 1680 571 1674 560 1663 L251 1354 C229 1332 229 1296 252 1273 C275 1250 305 1257 333 1272 L600 1414 Z M492 1200 C248 1200 100 1088 100 603 C100 186 209 -10 490 -10 C611 -10 694 26 838 145 L838 68 C838 30 869 0 908 0 L1028 0 C1067 0 1098 30 1098 68 L1098 1132 C1098 1171 1067 1200 1028 1200 L492 1200 Z M517 240 C378 240 350 294 350 598 C350 873 373 950 473 950 L838 950 L838 429 C717 297 660 240 517 240 L517 240 Z " />
<glyph glyph-name="atilde" unicode="&#xe3;" horiz-adv-x="1248" d="M266 1328 C285 1298 319 1294 345 1311 L432 1367 C463 1387 487 1395 506 1395 C575 1395 624 1288 754 1288 C818 1288 914 1313 1014 1380 L1048 1403 C1079 1423 1083 1455 1065 1482 L1008 1570 C989 1600 955 1604 929 1587 L842 1531 C817 1515 793 1504 770 1504 C699 1504 641 1610 517 1610 C457 1610 360 1585 260 1518 L226 1495 C195 1475 191 1443 209 1416 L266 1328 Z M492 1200 C248 1200 100 1088 100 603 C100 186 209 -10 490 -10 C611 -10 694 26 838 145 L838 68 C838 30 869 0 908 0 L1028 0 C1067 0 1098 30 1098 68 L1098 1132 C1098 1171 1067 1200 1028 1200 L492 1200 Z M517 240 C378 240 350 294 350 598 C350 873 373 950 473 950 L838 950 L838 429 C717 297 660 240 517 240 L517 240 Z " />
<glyph glyph-name="adieresis" unicode="&#xe4;" horiz-adv-x="1248" d="M493 1340 C526 1340 550 1366 550 1398 L550 1542 C550 1574 526 1600 493 1600 L347 1600 C314 1600 290 1574 290 1542 L290 1398 C290 1366 314 1340 347 1340 L493 1340 Z M928 1340 C961 1340 985 1366 985 1398 L985 1542 C985 1574 961 1600 928 1600 L782 1600 C749 1600 725 1574 725 1542 L725 1398 C725 1366 749 1340 782 1340 L928 1340 Z M492 1200 C248 1200 100 1088 100 603 C100 186 209 -10 490 -10 C611 -10 694 26 838 145 L838 68 C838 30 869 0 908 0 L1028 0 C1067 0 1098 30 1098 68 L1098 1132 C1098 1171 1067 1200 1028 1200 L492 1200 Z M517 240 C378 240 350 294 350 598 C350 873 373 950 473 950 L838 950 L838 429 C717 297 660 240 517 240 L517 240 Z " />
<glyph glyph-name="aring" unicode="&#xe5;" horiz-adv-x="1248" d="M632 1275 C744 1275 835 1365 835 1477 C835 1589 744 1680 632 1680 C520 1680 430 1589 430 1477 C430 1365 520 1275 632 1275 L632 1275 Z M632 1560 C678 1560 715 1523 715 1477 C715 1432 678 1395 632 1395 C587 1395 550 1432 550 1477 C550 1523 587 1560 632 1560 L632 1560 Z M492 1200 C248 1200 100 1088 100 603 C100 186 209 -10 490 -10 C611 -10 694 26 838 145 L838 68 C838 30 869 0 908 0 L1028 0 C1067 0 1098 30 1098 68 L1098 1132 C1098 1171 1067 1200 1028 1200 L492 1200 Z M517 240 C378 240 350 294 350 598 C350 873 373 950 473 950 L838 950 L838 429 C717 297 660 240 517 240 L517 240 Z " />
<glyph glyph-name="ae" unicode="&#xe6;" horiz-adv-x="1901" d="M1748 303 C1738 326 1723 335 1706 335 C1693 335 1675 331 1654 320 C1560 272 1485 243 1387 241 C1154 237 1102 337 1092 488 L1732 488 C1772 488 1801 520 1801 558 L1801 629 L1801 633 C1798 1071 1714 1210 1324 1210 L1312 1210 C1139 1210 1027 1182 956 1113 C893 1167 802 1200 672 1200 L240 1200 C207 1200 183 1174 183 1142 L183 1008 C183 976 207 950 240 950 L672 950 C831 950 838 842 838 738 L492 738 C257 738 100 685 100 410 C100 211 182 -10 535 -10 C640 -10 733 10 924 212 C1014 59 1172 -10 1387 -10 C1518 -10 1592 16 1778 114 C1797 123 1806 139 1806 158 C1806 174 1799 192 1790 211 L1748 303 Z M1324 960 C1498 960 1542 937 1550 698 L1090 698 C1097 936 1141 960 1312 960 L1324 960 Z M524 240 C378 240 350 313 350 395 C350 470 374 488 473 488 L838 488 L838 429 C722 302 659 240 524 240 L524 240 Z " />
<glyph glyph-name="ccedilla" unicode="&#xe7;" horiz-adv-x="1128" d="M1014 354 C1001 374 981 385 961 385 C948 385 935 380 919 370 C739 258 709 240 636 240 C358 240 352 497 351 594 C351 809 367 950 466 950 L920 950 C960 950 988 981 988 1020 L988 1130 C988 1169 960 1200 920 1200 L492 1200 C247 1200 100 1088 100 604 C100 603 100 602 100 602 C101 233 258 45 500 1 L500 -70 C500 -102 525 -128 557 -128 C596 -128 627 -159 627 -198 C627 -236 596 -267 557 -267 C536 -267 518 -258 505 -243 C483 -221 449 -225 427 -249 L415 -262 C393 -286 392 -321 416 -343 C452 -378 502 -400 557 -400 C669 -400 760 -310 760 -198 C760 -113 708 -40 633 -10 C738 -8 852 17 1051 178 C1069 192 1078 213 1078 231 C1078 247 1071 262 1063 275 L1014 354 Z " />
<glyph glyph-name="egrave" unicode="&#xe8;" horiz-adv-x="1163" d="M765 1322 C796 1313 826 1311 845 1338 C864 1364 857 1400 832 1417 L474 1668 C447 1687 413 1679 394 1653 L317 1543 C300 1517 298 1474 331 1463 L765 1322 Z M1010 303 C1000 326 985 335 968 335 C955 335 937 331 916 320 C822 272 747 243 649 241 C416 237 364 337 354 488 L994 488 C1034 488 1063 520 1063 558 L1063 629 L1063 633 C1060 1071 976 1210 586 1210 L574 1210 C178 1210 101 1065 101 608 L101 607 C100 605 100 604 100 602 C100 172 300 -10 649 -10 C780 -10 854 16 1040 114 C1059 123 1068 139 1068 158 C1068 174 1061 192 1052 211 L1010 303 Z M586 960 C760 960 804 937 812 698 L352 698 C359 936 403 960 574 960 L586 960 Z " />
<glyph glyph-name="eacute" unicode="&#xe9;" horiz-adv-x="1163" d="M821 1463 C854 1474 852 1517 835 1543 L758 1653 C739 1679 705 1687 678 1668 L320 1417 C295 1400 288 1364 307 1338 C326 1311 356 1313 387 1322 L821 1463 Z M1010 303 C1000 326 985 335 968 335 C955 335 937 331 916 320 C822 272 747 243 649 241 C416 237 364 337 354 488 L994 488 C1034 488 1063 520 1063 558 L1063 629 L1063 633 C1060 1071 976 1210 586 1210 L574 1210 C178 1210 101 1065 101 608 L101 607 C100 605 100 604 100 602 C100 172 300 -10 649 -10 C780 -10 854 16 1040 114 C1059 123 1068 139 1068 158 C1068 174 1061 192 1052 211 L1010 303 Z M586 960 C760 960 804 937 812 698 L352 698 C359 936 403 960 574 960 L586 960 Z " />
<glyph glyph-name="ecircumflex" unicode="&#xea;" horiz-adv-x="1163" d="M569 1414 L836 1272 C864 1257 894 1250 917 1273 C940 1296 940 1332 918 1354 L609 1663 C598 1674 583 1680 569 1679 C555 1680 540 1674 529 1663 L220 1354 C198 1332 198 1296 221 1273 C244 1250 274 1257 302 1272 L569 1414 Z M1010 303 C1000 326 985 335 968 335 C955 335 937 331 916 320 C822 272 747 243 649 241 C416 237 364 337 354 488 L994 488 C1034 488 1063 520 1063 558 L1063 629 L1063 633 C1060 1071 976 1210 586 1210 L574 1210 C178 1210 101 1065 101 608 L101 607 C100 605 100 604 100 602 C100 172 300 -10 649 -10 C780 -10 854 16 1040 114 C1059 123 1068 139 1068 158 C1068 174 1061 192 1052 211 L1010 303 Z M586 960 C760 960 804 937 812 698 L352 698 C359 936 403 960 574 960 L586 960 Z " />
<glyph glyph-name="edieresis" unicode="&#xeb;" horiz-adv-x="1163" d="M422 1340 C455 1340 479 1366 479 1398 L479 1542 C479 1574 455 1600 422 1600 L276 1600 C243 1600 219 1574 219 1542 L219 1398 C219 1366 243 1340 276 1340 L422 1340 Z M857 1340 C890 1340 914 1366 914 1398 L914 1542 C914 1574 890 1600 857 1600 L711 1600 C678 1600 654 1574 654 1542 L654 1398 C654 1366 678 1340 711 1340 L857 1340 Z M1010 303 C1000 326 985 335 968 335 C955 335 937 331 916 320 C822 272 747 243 649 241 C416 237 364 337 354 488 L994 488 C1034 488 1063 520 1063 558 L1063 629 L1063 633 C1060 1071 976 1210 586 1210 L574 1210 C178 1210 101 1065 101 608 L101 607 C100 605 100 604 100 602 C100 172 300 -10 649 -10 C780 -10 854 16 1040 114 C1059 123 1068 139 1068 158 C1068 174 1061 192 1052 211 L1010 303 Z M586 960 C760 960 804 937 812 698 L352 698 C359 936 403 960 574 960 L586 960 Z " />
<glyph glyph-name="igrave" unicode="&#xec;" horiz-adv-x="640" d="M244 1668 C217 1687 183 1679 164 1653 L87 1543 C70 1517 68 1474 101 1463 L535 1322 C566 1313 596 1311 615 1338 C634 1364 627 1400 602 1417 L244 1668 Z M454 250 L454 1143 C454 1176 428 1200 396 1200 L107 1200 C74 1200 50 1174 50 1142 L50 1008 C50 976 74 950 107 950 L194 950 L194 250 L107 250 C74 250 50 224 50 192 L50 58 C50 26 74 0 107 0 L533 0 C566 0 590 26 590 58 L590 192 C590 224 566 250 533 250 L454 250 Z " />
<glyph glyph-name="iacute" unicode="&#xed;" horiz-adv-x="640" d="M507 1463 C540 1474 538 1517 521 1543 L444 1653 C425 1679 391 1687 364 1668 L6 1417 C-19 1400 -26 1364 -7 1338 C12 1311 42 1313 73 1322 L507 1463 Z M454 250 L454 1143 C454 1176 428 1200 396 1200 L107 1200 C74 1200 50 1174 50 1142 L50 1008 C50 976 74 950 107 950 L194 950 L194 250 L107 250 C74 250 50 224 50 192 L50 58 C50 26 74 0 107 0 L533 0 C566 0 590 26 590 58 L590 192 C590 224 566 250 533 250 L454 250 Z " />
<glyph glyph-name="icircumflex" unicode="&#xee;" horiz-adv-x="640" d="M346 1663 C335 1674 320 1680 306 1679 C292 1680 277 1674 266 1663 L-43 1354 C-65 1332 -65 1296 -42 1273 C-19 1250 11 1257 39 1272 L306 1414 L573 1272 C601 1257 631 1250 654 1273 C677 1296 677 1332 655 1354 L346 1663 Z M454 250 L454 1143 C454 1176 428 1200 396 1200 L107 1200 C74 1200 50 1174 50 1142 L50 1008 C50 976 74 950 107 950 L194 950 L194 250 L107 250 C74 250 50 224 50 192 L50 58 C50 26 74 0 107 0 L533 0 C566 0 590 26 590 58 L590 192 C590 224 566 250 533 250 L454 250 Z " />
<glyph glyph-name="idieresis" unicode="&#xef;" horiz-adv-x="640" d="M228 1542 C228 1574 204 1600 171 1600 L25 1600 C-8 1600 -32 1574 -32 1542 L-32 1398 C-32 1366 -8 1340 25 1340 L171 1340 C204 1340 228 1366 228 1398 L228 1542 Z M460 1600 C427 1600 403 1574 403 1542 L403 1398 C403 1366 427 1340 460 1340 L606 1340 C639 1340 663 1366 663 1398 L663 1542 C663 1574 639 1600 606 1600 L460 1600 Z M454 250 L454 1143 C454 1176 428 1200 396 1200 L107 1200 C74 1200 50 1174 50 1142 L50 1008 C50 976 74 950 107 950 L194 950 L194 250 L107 250 C74 250 50 224 50 192 L50 58 C50 26 74 0 107 0 L533 0 C566 0 590 26 590 58 L590 192 C590 224 566 250 533 250 L454 250 Z " />
<glyph glyph-name="eth" unicode="&#xf0;" horiz-adv-x="1202" d="M1234 1377 C1224 1415 1189 1438 1150 1427 L1050 1400 C996 1517 887 1600 682 1600 L556 1600 C523 1600 499 1574 499 1542 L499 1408 C499 1376 523 1350 556 1350 L682 1350 C725 1350 757 1342 781 1328 L672 1299 C634 1289 615 1251 625 1214 L640 1156 C650 1118 685 1095 724 1106 L848 1139 L848 1136 L848 1067 L492 1067 C226 1067 100 921 100 552 C100 186 224 -10 492 -10 C616 -10 701 32 838 145 L838 68 C838 30 869 0 908 0 L1028 0 C1067 0 1098 30 1098 68 L1098 1136 C1098 1159 1097 1182 1096 1205 L1202 1234 C1240 1244 1259 1282 1249 1319 L1234 1377 Z M848 453 L838 429 C719 299 660 240 519 240 C391 240 350 289 350 549 C350 707 365 817 473 817 L848 817 L848 453 Z " />
<glyph glyph-name="ntilde" unicode="&#xf1;" horiz-adv-x="1176" d="M941 1570 C922 1600 888 1604 862 1587 L775 1531 C750 1515 726 1504 703 1504 C632 1504 574 1610 450 1610 C390 1610 293 1585 193 1518 L159 1495 C128 1475 124 1443 142 1416 L199 1328 C218 1298 252 1294 278 1311 L365 1367 C396 1387 420 1395 439 1395 C508 1395 557 1288 687 1288 C751 1288 847 1313 947 1380 L981 1403 C1012 1423 1016 1455 998 1482 L941 1570 Z M723 1210 C621 1210 525 1175 410 1080 L410 1143 C410 1175 384 1200 352 1200 L208 1200 C176 1200 150 1175 150 1143 L150 57 C150 24 176 0 208 0 L352 0 C384 0 410 24 410 57 L410 799 C506 900 593 957 674 957 C778 957 791 878 791 629 L791 57 C791 24 817 0 849 0 L993 0 C1025 0 1051 24 1051 57 L1051 710 C1051 1032 954 1210 723 1210 L723 1210 Z " />
<glyph glyph-name="ograve" unicode="&#xf2;" horiz-adv-x="1162" d="M87 1543 C70 1517 68 1474 101 1463 L535 1322 C566 1313 596 1311 615 1338 C634 1364 627 1400 602 1417 L244 1668 C217 1687 183 1679 164 1653 L87 1543 Z M589 -10 C982 -10 1062 148 1062 607 C1062 1066 982 1210 585 1210 L573 1210 C177 1210 100 1065 100 608 C100 147 179 -10 573 -10 L589 -10 Z M585 960 C779 960 812 931 812 608 C812 275 776 240 590 240 L572 240 C386 240 350 274 350 607 C350 930 383 960 573 960 L585 960 Z " />
<glyph glyph-name="oacute" unicode="&#xf3;" horiz-adv-x="1162" d="M737 1653 C718 1679 684 1687 657 1668 L299 1417 C274 1400 267 1364 286 1338 C305 1311 335 1313 366 1322 L800 1463 C833 1474 831 1517 814 1543 L737 1653 Z M589 -10 C982 -10 1062 148 1062 607 C1062 1066 982 1210 585 1210 L573 1210 C177 1210 100 1065 100 608 C100 147 179 -10 573 -10 L589 -10 Z M585 960 C779 960 812 931 812 608 C812 275 776 240 590 240 L572 240 C386 240 350 274 350 607 C350 930 383 960 573 960 L585 960 Z " />
<glyph glyph-name="ocircumflex" unicode="&#xf4;" horiz-adv-x="1162" d="M553 1414 L820 1272 C848 1257 878 1250 901 1273 C924 1296 924 1332 902 1354 L593 1663 C582 1674 567 1680 553 1679 C539 1680 524 1674 513 1663 L204 1354 C182 1332 182 1296 205 1273 C228 1250 258 1257 286 1272 L553 1414 Z M573 1210 C177 1210 100 1065 100 608 C100 147 179 -10 573 -10 L589 -10 C982 -10 1062 148 1062 607 C1062 1066 982 1210 585 1210 L573 1210 Z M572 240 C386 240 350 274 350 607 C350 930 383 960 573 960 L585 960 C779 960 812 931 812 608 C812 275 776 240 590 240 L572 240 Z " />
<glyph glyph-name="otilde" unicode="&#xf5;" horiz-adv-x="1162" d="M910 1570 C891 1600 857 1604 831 1587 L744 1531 C719 1515 695 1504 672 1504 C601 1504 543 1610 419 1610 C359 1610 262 1585 162 1518 L128 1495 C97 1475 93 1443 111 1416 L168 1328 C187 1298 221 1294 247 1311 L334 1367 C365 1387 389 1395 408 1395 C477 1395 526 1288 656 1288 C720 1288 816 1313 916 1380 L950 1403 C981 1423 985 1455 967 1482 L910 1570 Z M589 -10 C982 -10 1062 148 1062 607 C1062 1066 982 1210 585 1210 L573 1210 C177 1210 100 1065 100 608 C100 147 179 -10 573 -10 L589 -10 Z M585 960 C779 960 812 931 812 608 C812 275 776 240 590 240 L572 240 C386 240 350 274 350 607 C350 930 383 960 573 960 L585 960 Z " />
<glyph glyph-name="odieresis" unicode="&#xf6;" horiz-adv-x="1162" d="M263 1600 C230 1600 206 1574 206 1542 L206 1398 C206 1366 230 1340 263 1340 L409 1340 C442 1340 466 1366 466 1398 L466 1542 C466 1574 442 1600 409 1600 L263 1600 Z M698 1600 C665 1600 641 1574 641 1542 L641 1398 C641 1366 665 1340 698 1340 L844 1340 C877 1340 901 1366 901 1398 L901 1542 C901 1574 877 1600 844 1600 L698 1600 Z M589 -10 C982 -10 1062 148 1062 607 C1062 1066 982 1210 585 1210 L573 1210 C177 1210 100 1065 100 608 C100 147 179 -10 573 -10 L589 -10 Z M585 960 C779 960 812 931 812 608 C812 275 776 240 590 240 L572 240 C386 240 350 274 350 607 C350 930 383 960 573 960 L585 960 Z " />
<glyph glyph-name="divide" unicode="&#xf7;" horiz-adv-x="1100" d="M623 940 C656 940 680 966 680 998 L680 1142 C680 1174 656 1200 623 1200 L477 1200 C444 1200 420 1174 420 1142 L420 998 C420 966 444 940 477 940 L623 940 Z M1000 667 C1000 699 976 725 943 725 L157 725 C125 725 100 699 100 667 L100 533 C100 501 125 475 157 475 L943 475 C976 475 1000 501 1000 533 L1000 667 Z M623 0 C656 0 680 26 680 58 L680 202 C680 234 656 260 623 260 L477 260 C444 260 420 234 420 202 L420 58 C420 26 444 0 477 0 L623 0 Z " />
<glyph glyph-name="oslash" unicode="&#xf8;" horiz-adv-x="1162" d="M951 1259 C962 1290 946 1321 916 1332 L781 1381 C751 1392 718 1379 707 1348 L656 1208 C634 1209 610 1210 585 1210 L573 1210 C177 1210 100 1065 100 608 C100 326 129 158 242 70 L199 -49 C187 -80 204 -111 234 -122 L369 -171 C399 -182 432 -169 443 -138 L491 -7 C516 -9 544 -10 573 -10 L589 -10 C982 -10 1062 148 1062 607 C1062 896 1030 1060 908 1142 L951 1259 Z M350 607 C350 926 382 959 566 960 L360 395 C353 447 350 516 350 607 L350 607 Z M580 240 L797 837 C808 785 812 712 812 608 C812 275 776 240 590 240 L580 240 Z " />
<glyph glyph-name="ugrave" unicode="&#xf9;" horiz-adv-x="1176" d="M208 1543 C191 1517 189 1474 222 1463 L656 1322 C687 1313 717 1311 736 1338 C755 1364 748 1400 723 1417 L365 1668 C338 1687 304 1679 285 1653 L208 1543 Z M453 -10 C555 -10 651 25 766 120 L766 57 C766 25 792 0 824 0 L968 0 C1000 0 1026 25 1026 57 L1026 1143 C1026 1176 1000 1200 968 1200 L824 1200 C792 1200 766 1176 766 1143 L766 400 C670 299 593 242 502 242 C398 242 385 321 385 571 L385 1143 C385 1176 359 1200 327 1200 L183 1200 C151 1200 125 1176 125 1143 L125 490 C125 168 222 -10 453 -10 L453 -10 Z " />
<glyph glyph-name="uacute" unicode="&#xfa;" horiz-adv-x="1176" d="M738 1653 C719 1679 685 1687 658 1668 L300 1417 C275 1400 268 1364 287 1338 C306 1311 336 1313 367 1322 L801 1463 C834 1474 832 1517 815 1543 L738 1653 Z M453 -10 C555 -10 651 25 766 120 L766 57 C766 25 792 0 824 0 L968 0 C1000 0 1026 25 1026 57 L1026 1143 C1026 1176 1000 1200 968 1200 L824 1200 C792 1200 766 1176 766 1143 L766 400 C670 299 593 242 502 242 C398 242 385 321 385 571 L385 1143 C385 1176 359 1200 327 1200 L183 1200 C151 1200 125 1176 125 1143 L125 490 C125 168 222 -10 453 -10 L453 -10 Z " />
<glyph glyph-name="ucircumflex" unicode="&#xfb;" horiz-adv-x="1176" d="M534 1414 L801 1272 C829 1257 859 1250 882 1273 C905 1296 905 1332 883 1354 L574 1663 C563 1674 548 1680 534 1679 C520 1680 505 1674 494 1663 L185 1354 C163 1332 163 1296 186 1273 C209 1250 239 1257 267 1272 L534 1414 Z M824 1200 C792 1200 766 1176 766 1143 L766 400 C670 299 593 242 502 242 C398 242 385 321 385 571 L385 1143 C385 1176 359 1200 327 1200 L183 1200 C151 1200 125 1176 125 1143 L125 490 C125 168 222 -10 453 -10 C555 -10 651 25 766 120 L766 57 C766 25 792 0 824 0 L968 0 C1000 0 1026 25 1026 57 L1026 1143 C1026 1176 1000 1200 968 1200 L824 1200 Z " />
<glyph glyph-name="udieresis" unicode="&#xfc;" horiz-adv-x="1176" d="M253 1600 C220 1600 196 1574 196 1542 L196 1398 C196 1366 220 1340 253 1340 L399 1340 C432 1340 456 1366 456 1398 L456 1542 C456 1574 432 1600 399 1600 L253 1600 Z M688 1600 C655 1600 631 1574 631 1542 L631 1398 C631 1366 655 1340 688 1340 L834 1340 C867 1340 891 1366 891 1398 L891 1542 C891 1574 867 1600 834 1600 L688 1600 Z M453 -10 C555 -10 651 25 766 120 L766 57 C766 25 792 0 824 0 L968 0 C1000 0 1026 25 1026 57 L1026 1143 C1026 1176 1000 1200 968 1200 L824 1200 C792 1200 766 1176 766 1143 L766 400 C670 299 593 242 502 242 C398 242 385 321 385 571 L385 1143 C385 1176 359 1200 327 1200 L183 1200 C151 1200 125 1176 125 1143 L125 490 C125 168 222 -10 453 -10 L453 -10 Z " />
<glyph glyph-name="yacute" unicode="&#xfd;" horiz-adv-x="1149" d="M775 1463 C808 1474 806 1517 789 1543 L712 1653 C693 1679 659 1687 632 1668 L274 1417 C249 1400 242 1364 261 1338 C280 1311 310 1313 341 1322 L775 1463 Z M812 1200 C780 1200 754 1176 754 1143 L754 417 L577 273 L395 417 L395 1143 C395 1176 369 1200 337 1200 L193 1200 C161 1200 135 1176 135 1143 L135 332 C135 317 138 303 151 292 L369 105 L151 -72 C138 -82 135 -97 135 -112 L135 -343 C135 -376 161 -400 193 -400 L337 -400 C369 -400 395 -376 395 -343 L395 -216 L998 292 C1011 303 1014 317 1014 332 L1014 1143 C1014 1176 988 1200 956 1200 L812 1200 Z " />
<glyph glyph-name="thorn" unicode="&#xfe;" horiz-adv-x="1248" d="M789 1210 C667 1210 554 1175 410 1056 L410 1612 C410 1650 379 1680 340 1680 L220 1680 C181 1680 150 1650 150 1612 L150 -332 C150 -371 181 -400 220 -400 L340 -400 C379 -400 410 -371 410 -332 L410 0 L786 0 C1030 0 1148 112 1148 598 C1148 1015 1069 1210 789 1210 L789 1210 Z M898 606 C897 326 872 250 772 250 L410 250 L410 760 C524 899 644 960 740 960 C841 960 899 892 898 606 L898 606 Z " />
<glyph glyph-name="ydieresis" unicode="&#xff;" horiz-adv-x="1149" d="M403 1340 C436 1340 460 1366 460 1398 L460 1542 C460 1574 436 1600 403 1600 L257 1600 C224 1600 200 1574 200 1542 L200 1398 C200 1366 224 1340 257 1340 L403 1340 Z M838 1340 C871 1340 895 1366 895 1398 L895 1542 C895 1574 871 1600 838 1600 L692 1600 C659 1600 635 1574 635 1542 L635 1398 C635 1366 659 1340 692 1340 L838 1340 Z M812 1200 C780 1200 754 1176 754 1143 L754 417 L577 273 L395 417 L395 1143 C395 1176 369 1200 337 1200 L193 1200 C161 1200 135 1176 135 1143 L135 332 C135 317 138 303 151 292 L369 105 L151 -72 C138 -82 135 -97 135 -112 L135 -343 C135 -376 161 -400 193 -400 L337 -400 C369 -400 395 -376 395 -343 L395 -216 L998 292 C1011 303 1014 317 1014 332 L1014 1143 C1014 1176 988 1200 956 1200 L812 1200 Z " />
<glyph glyph-name="Amacron" unicode="&#x100;" horiz-adv-x="1378" d="M1012 1917 C1012 1949 988 1975 955 1975 L344 1975 C312 1975 287 1949 287 1917 L287 1833 C287 1801 312 1775 344 1775 L955 1775 C988 1775 1012 1801 1012 1833 L1012 1917 Z M723 1619 C711 1628 702 1630 689 1630 C676 1630 667 1628 655 1619 L166 1257 C153 1248 150 1232 150 1217 L150 57 C150 24 176 0 208 0 L362 0 C394 0 420 24 420 57 L420 450 L958 450 L958 57 C958 24 984 0 1016 0 L1170 0 C1202 0 1228 24 1228 57 L1228 1217 C1228 1232 1225 1248 1212 1257 L723 1619 Z M689 1305 L958 1111 L958 700 L420 700 L420 1111 L689 1305 Z " />
<glyph glyph-name="amacron" unicode="&#x101;" horiz-adv-x="1248" d="M921 1400 C954 1400 978 1426 978 1458 L978 1542 C978 1574 954 1600 921 1600 L310 1600 C278 1600 253 1574 253 1542 L253 1458 C253 1426 278 1400 310 1400 L921 1400 Z M492 1200 C248 1200 100 1088 100 603 C100 186 209 -10 490 -10 C611 -10 694 26 838 145 L838 68 C838 30 869 0 908 0 L1028 0 C1067 0 1098 30 1098 68 L1098 1132 C1098 1171 1067 1200 1028 1200 L492 1200 Z M517 240 C378 240 350 294 350 598 C350 873 373 950 473 950 L838 950 L838 429 C717 297 660 240 517 240 L517 240 Z " />
<glyph glyph-name="Abreve" unicode="&#x102;" horiz-adv-x="1378" d="M969 2005 C868 1931 754 1887 651 1887 C548 1887 434 1931 333 2005 L235 1817 C365 1733 513 1687 651 1687 C789 1687 937 1733 1067 1817 L969 2005 Z M723 1619 C711 1628 702 1630 689 1630 C676 1630 667 1628 655 1619 L166 1257 C153 1248 150 1232 150 1217 L150 57 C150 24 176 0 208 0 L362 0 C394 0 420 24 420 57 L420 450 L958 450 L958 57 C958 24 984 0 1016 0 L1170 0 C1202 0 1228 24 1228 57 L1228 1217 C1228 1232 1225 1248 1212 1257 L723 1619 Z M689 1305 L958 1111 L958 700 L420 700 L420 1111 L689 1305 Z " />
<glyph glyph-name="abreve" unicode="&#x103;" horiz-adv-x="1248" d="M941 1680 C840 1606 726 1562 623 1562 C520 1562 406 1606 305 1680 L207 1492 C337 1408 485 1362 623 1362 C761 1362 909 1408 1039 1492 L941 1680 Z M492 1200 C248 1200 100 1088 100 603 C100 186 209 -10 490 -10 C611 -10 694 26 838 145 L838 68 C838 30 869 0 908 0 L1028 0 C1067 0 1098 30 1098 68 L1098 1132 C1098 1171 1067 1200 1028 1200 L492 1200 Z M517 240 C378 240 350 294 350 598 C350 873 373 950 473 950 L838 950 L838 429 C717 297 660 240 517 240 L517 240 Z " />
<glyph glyph-name="Aogonek" unicode="&#x104;" horiz-adv-x="1378" d="M1238 -171 C1226 -158 1210 -151 1194 -151 C1182 -151 1170 -155 1160 -165 C1147 -180 1131 -189 1105 -189 C1058 -189 1020 -161 1020 -115 C1020 -67 1062 -26 1131 0 L1170 0 C1202 0 1228 24 1228 57 L1228 1217 C1228 1232 1225 1248 1212 1257 L723 1619 C711 1628 702 1630 689 1630 C676 1630 667 1628 655 1619 L166 1257 C153 1248 150 1232 150 1217 L150 57 C150 24 176 0 208 0 L362 0 C394 0 420 24 420 57 L420 450 L958 450 L958 57 L958 50 C906 7 889 -42 889 -103 C889 -243 980 -322 1101 -322 C1165 -322 1213 -300 1249 -265 C1261 -254 1267 -240 1267 -225 C1267 -211 1261 -196 1250 -184 L1238 -171 Z M958 1111 L958 700 L420 700 L420 1111 L689 1305 L958 1111 Z " />
<glyph glyph-name="aogonek" unicode="&#x105;" horiz-adv-x="1248" d="M1128 -171 C1116 -158 1100 -151 1084 -151 C1072 -151 1060 -155 1050 -165 C1037 -180 1021 -189 995 -189 C948 -189 910 -161 910 -115 C910 -67 952 -26 1021 0 L1028 0 C1067 0 1098 30 1098 68 L1098 1132 C1098 1171 1067 1200 1028 1200 L492 1200 C248 1200 100 1088 100 603 C100 186 209 -10 490 -10 C611 -10 694 26 838 145 L838 68 C838 60 839 52 842 44 C795 3 779 -44 779 -103 C779 -243 870 -322 991 -322 C1055 -322 1103 -300 1139 -265 C1151 -254 1157 -240 1157 -225 C1157 -211 1151 -196 1140 -184 L1128 -171 Z M517 240 C378 240 350 294 350 598 C350 873 373 950 473 950 L838 950 L838 429 C717 297 660 240 517 240 L517 240 Z " />
<glyph glyph-name="Cacute" unicode="&#x106;" horiz-adv-x="1226" d="M825 2028 C806 2054 772 2062 745 2043 L387 1792 C362 1775 355 1739 374 1713 C393 1686 423 1688 454 1697 L888 1838 C921 1849 919 1892 902 1918 L825 2028 Z M1104 357 C1084 386 1055 389 1025 371 C888 287 827 255 690 250 C468 242 380 321 380 816 C380 1293 462 1350 683 1350 L1000 1350 C1033 1350 1057 1376 1057 1408 L1057 1542 C1057 1574 1033 1600 1000 1600 L686 1600 C184 1600 100 1380 100 811 C100 260 179 -11 662 -11 C879 -11 1019 44 1173 169 C1199 190 1203 223 1183 250 L1104 357 Z " />
<glyph glyph-name="cacute" unicode="&#x107;" horiz-adv-x="1128" d="M830 1463 C863 1474 861 1517 844 1543 L767 1653 C748 1679 714 1687 687 1668 L329 1417 C304 1400 297 1364 316 1338 C335 1311 365 1313 396 1322 L830 1463 Z M1014 354 C1001 374 981 385 961 385 C948 385 935 380 919 370 C739 258 709 240 636 240 C358 240 352 497 351 594 C351 809 367 950 466 950 L920 950 C960 950 988 981 988 1020 L988 1130 C988 1169 960 1200 920 1200 L492 1200 C247 1200 100 1088 100 604 C100 603 100 602 100 602 C101 173 313 -10 623 -10 C730 -10 845 12 1051 178 C1069 192 1078 213 1078 231 C1078 247 1071 262 1063 275 L1014 354 Z " />
<glyph glyph-name="Cdotaccent" unicode="&#x10a;" horiz-adv-x="1226" d="M555 1975 C522 1975 498 1949 498 1917 L498 1773 C498 1741 522 1715 555 1715 L701 1715 C734 1715 758 1741 758 1773 L758 1917 C758 1949 734 1975 701 1975 L555 1975 Z M1104 357 C1084 386 1055 389 1025 371 C888 287 827 255 690 250 C468 242 380 321 380 816 C380 1293 462 1350 683 1350 L1000 1350 C1033 1350 1057 1376 1057 1408 L1057 1542 C1057 1574 1033 1600 1000 1600 L686 1600 C184 1600 100 1380 100 811 C100 260 179 -11 662 -11 C879 -11 1019 44 1173 169 C1199 190 1203 223 1183 250 L1104 357 Z " />
<glyph glyph-name="cdotaccent" unicode="&#x10b;" horiz-adv-x="1128" d="M648 1340 C681 1340 705 1366 705 1398 L705 1542 C705 1574 681 1600 648 1600 L502 1600 C469 1600 445 1574 445 1542 L445 1398 C445 1366 469 1340 502 1340 L648 1340 Z M1014 354 C1001 374 981 385 961 385 C948 385 935 380 919 370 C739 258 709 240 636 240 C358 240 352 497 351 594 C351 809 367 950 466 950 L920 950 C960 950 988 981 988 1020 L988 1130 C988 1169 960 1200 920 1200 L492 1200 C247 1200 100 1088 100 604 C100 603 100 602 100 602 C101 173 313 -10 623 -10 C730 -10 845 12 1051 178 C1069 192 1078 213 1078 231 C1078 247 1071 262 1063 275 L1014 354 Z " />
<glyph glyph-name="Ccaron" unicode="&#x10c;" horiz-adv-x="1226" d="M595 1650 C606 1639 621 1633 635 1634 C649 1633 664 1639 675 1650 L984 1959 C1006 1981 1006 2017 983 2040 C960 2063 930 2056 902 2041 L635 1899 L368 2041 C340 2056 310 2063 287 2040 C264 2017 264 1981 286 1959 L595 1650 Z M1104 357 C1084 386 1055 389 1025 371 C888 287 827 255 690 250 C468 242 380 321 380 816 C380 1293 462 1350 683 1350 L1000 1350 C1033 1350 1057 1376 1057 1408 L1057 1542 C1057 1574 1033 1600 1000 1600 L686 1600 C184 1600 100 1380 100 811 C100 260 179 -11 662 -11 C879 -11 1019 44 1173 169 C1199 190 1203 223 1183 250 L1104 357 Z " />
<glyph glyph-name="ccaron" unicode="&#x10d;" horiz-adv-x="1128" d="M510 1275 C521 1264 536 1258 550 1259 C564 1258 579 1264 590 1275 L899 1584 C921 1606 921 1642 898 1665 C875 1688 845 1681 817 1666 L550 1524 L283 1666 C255 1681 225 1688 202 1665 C179 1642 179 1606 201 1584 L510 1275 Z M1014 354 C1001 374 981 385 961 385 C948 385 935 380 919 370 C739 258 709 240 636 240 C358 240 352 497 351 594 C351 809 367 950 466 950 L920 950 C960 950 988 981 988 1020 L988 1130 C988 1169 960 1200 920 1200 L492 1200 C247 1200 100 1088 100 604 C100 603 100 602 100 602 C101 173 313 -10 623 -10 C730 -10 845 12 1051 178 C1069 192 1078 213 1078 231 C1078 247 1071 262 1063 275 L1014 354 Z " />
<glyph glyph-name="Dcaron" unicode="&#x10e;" horiz-adv-x="1410" d="M595 1650 C606 1639 621 1633 635 1634 C649 1633 664 1639 675 1650 L984 1959 C1006 1981 1006 2017 983 2040 C960 2063 930 2056 902 2041 L635 1899 L368 2041 C340 2056 310 2063 287 2040 C264 2017 264 1981 286 1959 L595 1650 Z M208 1600 C176 1600 150 1575 150 1543 L150 57 C150 24 176 0 208 0 L721 0 C1228 0 1310 235 1310 804 C1310 1370 1229 1600 716 1600 L208 1600 Z M420 250 L420 1350 L713 1350 C953 1350 1030 1284 1030 803 C1030 316 951 250 720 250 L420 250 Z " />
<glyph glyph-name="dcaron" unicode="&#x10f;" horiz-adv-x="1460" d="M896 1680 C864 1680 838 1655 838 1623 L838 1200 L492 1200 C248 1200 100 1088 100 603 C100 186 209 -10 490 -10 C611 -10 694 26 838 145 L838 68 C838 30 869 0 908 0 L1028 0 C1067 0 1098 30 1098 68 L1098 1623 C1098 1655 1072 1680 1040 1680 L896 1680 Z M1357 1680 C1324 1680 1300 1654 1300 1622 L1300 1488 C1300 1456 1324 1430 1357 1430 C1390 1430 1414 1404 1414 1372 L1414 1228 C1414 1196 1438 1170 1471 1170 L1503 1170 C1536 1170 1560 1196 1560 1228 L1560 1622 C1560 1654 1536 1680 1503 1680 L1357 1680 Z M838 950 L838 429 C717 297 660 240 517 240 C378 240 350 294 350 598 C350 873 373 950 473 950 L838 950 Z " />
<glyph glyph-name="Dcroat" unicode="&#x110;" horiz-adv-x="1350" d="M158 1600 C126 1600 100 1575 100 1543 L100 920 L12 920 C-20 920 -45 894 -45 862 L-45 728 C-45 696 -20 670 12 670 L100 670 L100 57 C100 24 126 0 158 0 L671 0 C1178 0 1260 235 1260 804 C1260 1370 1179 1600 666 1600 L158 1600 Z M370 250 L370 670 L448 670 C481 670 505 696 505 728 L505 862 C505 894 481 920 448 920 L370 920 L370 1350 L663 1350 C903 1350 980 1284 980 803 C980 316 901 250 670 250 L370 250 Z " />
<glyph glyph-name="dcroat" unicode="&#x111;" horiz-adv-x="1178" d="M1098 1523 L1098 1623 C1098 1655 1072 1680 1040 1680 L896 1680 C864 1680 838 1655 838 1623 L838 1523 L729 1523 C689 1523 661 1492 661 1453 L661 1393 C661 1354 689 1323 729 1323 L838 1323 L838 1200 L492 1200 C248 1200 100 1088 100 603 C100 186 209 -10 490 -10 C611 -10 694 26 838 145 L838 68 C838 30 869 0 908 0 L1028 0 C1067 0 1098 30 1098 68 L1098 1323 L1155 1323 C1195 1323 1223 1354 1223 1393 L1223 1453 C1223 1492 1195 1523 1155 1523 L1098 1523 Z M838 950 L838 429 C717 297 660 240 517 240 C378 240 350 294 350 598 C350 873 373 950 473 950 L838 950 Z " />
<glyph glyph-name="Emacron" unicode="&#x112;" horiz-adv-x="1210" d="M948 1917 C948 1949 924 1975 891 1975 L280 1975 C248 1975 223 1949 223 1917 L223 1833 C223 1801 248 1775 280 1775 L891 1775 C924 1775 948 1801 948 1833 L948 1917 Z M410 925 L410 1350 L1053 1350 C1086 1350 1110 1376 1110 1408 L1110 1542 C1110 1574 1086 1600 1053 1600 L198 1600 C166 1600 140 1575 140 1543 L140 444 C140 252 220 0 701 0 L1053 0 C1086 0 1110 26 1110 58 L1110 192 C1110 224 1086 250 1053 250 L689 250 C487 250 410 341 410 442 L410 675 L899 675 C932 675 956 701 956 733 L956 867 C956 899 932 925 899 925 L410 925 Z " />
<glyph glyph-name="emacron" unicode="&#x113;" horiz-adv-x="1163" d="M868 1400 C901 1400 925 1426 925 1458 L925 1542 C925 1574 901 1600 868 1600 L257 1600 C225 1600 200 1574 200 1542 L200 1458 C200 1426 225 1400 257 1400 L868 1400 Z M1010 303 C1000 326 985 335 968 335 C955 335 937 331 916 320 C822 272 747 243 649 241 C416 237 364 337 354 488 L994 488 C1034 488 1063 520 1063 558 L1063 629 L1063 633 C1060 1071 976 1210 586 1210 L574 1210 C178 1210 101 1065 101 608 L101 607 C100 605 100 604 100 602 C100 172 300 -10 649 -10 C780 -10 854 16 1040 114 C1059 123 1068 139 1068 158 C1068 174 1061 192 1052 211 L1010 303 Z M586 960 C760 960 804 937 812 698 L352 698 C359 936 403 960 574 960 L586 960 Z " />
<glyph glyph-name="Edotaccent" unicode="&#x116;" horiz-adv-x="1210" d="M560 1975 C527 1975 503 1949 503 1917 L503 1773 C503 1741 527 1715 560 1715 L706 1715 C739 1715 763 1741 763 1773 L763 1917 C763 1949 739 1975 706 1975 L560 1975 Z M410 925 L410 1350 L1053 1350 C1086 1350 1110 1376 1110 1408 L1110 1542 C1110 1574 1086 1600 1053 1600 L198 1600 C166 1600 140 1575 140 1543 L140 444 C140 252 220 0 701 0 L1053 0 C1086 0 1110 26 1110 58 L1110 192 C1110 224 1086 250 1053 250 L689 250 C487 250 410 341 410 442 L410 675 L899 675 C932 675 956 701 956 733 L956 867 C956 899 932 925 899 925 L410 925 Z " />
<glyph glyph-name="edotaccent" unicode="&#x117;" horiz-adv-x="1163" d="M627 1340 C660 1340 684 1366 684 1398 L684 1542 C684 1574 660 1600 627 1600 L481 1600 C448 1600 424 1574 424 1542 L424 1398 C424 1366 448 1340 481 1340 L627 1340 Z M1010 303 C1000 326 985 335 968 335 C955 335 937 331 916 320 C822 272 747 243 649 241 C416 237 364 337 354 488 L994 488 C1034 488 1063 520 1063 558 L1063 629 L1063 633 C1060 1071 976 1210 586 1210 L574 1210 C178 1210 101 1065 101 608 L101 607 C100 605 100 604 100 602 C100 172 300 -10 649 -10 C780 -10 854 16 1040 114 C1059 123 1068 139 1068 158 C1068 174 1061 192 1052 211 L1010 303 Z M586 960 C760 960 804 937 812 698 L352 698 C359 936 403 960 574 960 L586 960 Z " />
<glyph glyph-name="Eogonek" unicode="&#x118;" horiz-adv-x="1210" d="M1130 -171 C1118 -158 1102 -151 1086 -151 C1074 -151 1062 -155 1052 -165 C1039 -180 1023 -189 997 -189 C950 -189 912 -161 912 -115 C912 -67 954 -26 1023 0 L1053 0 C1086 0 1110 26 1110 58 L1110 192 C1110 224 1086 250 1053 250 L689 250 C487 250 410 341 410 442 L410 675 L899 675 C932 675 956 701 956 733 L956 867 C956 899 932 925 899 925 L410 925 L410 1350 L1053 1350 C1086 1350 1110 1376 1110 1408 L1110 1542 C1110 1574 1086 1600 1053 1600 L198 1600 C166 1600 140 1575 140 1543 L140 444 C140 252 220 0 701 0 L806 0 C788 -30 781 -64 781 -103 C781 -243 872 -322 993 -322 C1057 -322 1105 -300 1141 -265 C1153 -254 1159 -240 1159 -225 C1159 -211 1153 -196 1142 -184 L1130 -171 Z " />
<glyph glyph-name="eogonek" unicode="&#x119;" horiz-adv-x="1098" d="M990 303 C980 326 965 335 948 335 C935 335 917 331 896 320 C798 270 720 241 615 241 C393 241 344 340 334 488 L974 488 C1014 488 1043 520 1043 558 L1043 629 L1043 633 C1040 1071 956 1210 566 1210 L554 1210 C158 1210 81 1065 81 608 L81 607 C80 605 80 604 80 602 C80 213 244 27 533 -5 C517 -34 511 -66 511 -103 C511 -243 602 -322 723 -322 C787 -322 835 -300 871 -265 C883 -254 889 -240 889 -225 C889 -211 883 -196 872 -184 L860 -171 C848 -158 832 -151 816 -151 C804 -151 792 -155 782 -165 C769 -180 753 -189 727 -189 C680 -189 642 -161 642 -115 C642 -64 688 -22 764 4 C833 20 905 54 1020 114 C1039 123 1048 139 1048 158 C1048 174 1041 192 1032 211 L990 303 Z M566 960 C740 960 784 937 792 698 L332 698 C339 936 383 960 554 960 L566 960 Z " />
<glyph glyph-name="Ecaron" unicode="&#x11a;" horiz-adv-x="1210" d="M565 1650 C576 1639 591 1633 605 1634 C619 1633 634 1639 645 1650 L954 1959 C976 1981 976 2017 953 2040 C930 2063 900 2056 872 2041 L605 1899 L338 2041 C310 2056 280 2063 257 2040 C234 2017 234 1981 256 1959 L565 1650 Z M410 1350 L1053 1350 C1086 1350 1110 1376 1110 1408 L1110 1542 C1110 1574 1086 1600 1053 1600 L198 1600 C166 1600 140 1575 140 1543 L140 444 C140 252 220 0 701 0 L1053 0 C1086 0 1110 26 1110 58 L1110 192 C1110 224 1086 250 1053 250 L689 250 C487 250 410 341 410 442 L410 675 L899 675 C932 675 956 701 956 733 L956 867 C956 899 932 925 899 925 L410 925 L410 1350 Z " />
<glyph glyph-name="ecaron" unicode="&#x11b;" horiz-adv-x="1163" d="M524 1275 C535 1264 550 1258 564 1259 C578 1258 593 1264 604 1275 L913 1584 C935 1606 935 1642 912 1665 C889 1688 859 1681 831 1666 L564 1524 L297 1666 C269 1681 239 1688 216 1665 C193 1642 193 1606 215 1584 L524 1275 Z M1010 303 C1000 326 985 335 968 335 C955 335 937 331 916 320 C822 272 747 243 649 241 C416 237 364 337 354 488 L994 488 C1034 488 1063 520 1063 558 L1063 629 L1063 633 C1060 1071 976 1210 586 1210 L574 1210 C178 1210 101 1065 101 608 L101 607 C100 605 100 604 100 602 C100 172 300 -10 649 -10 C780 -10 854 16 1040 114 C1059 123 1068 139 1068 158 C1068 174 1061 192 1052 211 L1010 303 Z M586 960 C760 960 804 937 812 698 L352 698 C359 936 403 960 574 960 L586 960 Z " />
<glyph glyph-name="Gbreve" unicode="&#x11e;" horiz-adv-x="1374" d="M1007 2005 C906 1931 792 1887 689 1887 C586 1887 472 1931 371 2005 L273 1817 C403 1733 551 1687 689 1687 C827 1687 975 1733 1105 1817 L1007 2005 Z M736 925 C703 925 679 899 679 867 L679 733 C679 701 703 675 736 675 L984 675 L984 250 L692 250 C468 250 380 321 380 816 C380 1293 462 1350 683 1350 L1067 1350 C1100 1350 1124 1376 1124 1408 L1124 1542 C1124 1574 1100 1600 1067 1600 L686 1600 C184 1600 100 1380 100 811 C100 260 179 0 662 0 L1196 0 C1228 0 1254 25 1254 57 L1254 868 C1254 900 1228 925 1196 925 L736 925 Z " />
<glyph glyph-name="gbreve" unicode="&#x11f;" horiz-adv-x="1248" d="M949 1680 C848 1606 734 1562 631 1562 C528 1562 414 1606 313 1680 L215 1492 C345 1408 493 1362 631 1362 C769 1362 917 1408 1047 1492 L949 1680 Z M1098 68 L1098 84 L1098 105 L1098 1132 C1098 1171 1067 1200 1028 1200 L492 1200 C248 1200 100 1088 100 603 C100 186 209 -10 490 -10 C611 -10 694 26 838 145 L838 105 C838 -84 816 -150 733 -150 L341 -150 C308 -150 284 -176 284 -208 L284 -342 C284 -374 308 -400 341 -400 L772 -400 C1080 -400 1097 -126 1098 65 L1098 68 Z M517 240 C378 240 350 294 350 598 C350 873 373 950 473 950 L838 950 L838 429 C717 297 660 240 517 240 L517 240 Z " />
<glyph glyph-name="Gdotaccent" unicode="&#x120;" horiz-adv-x="1374" d="M613 1975 C580 1975 556 1949 556 1917 L556 1773 C556 1741 580 1715 613 1715 L759 1715 C792 1715 816 1741 816 1773 L816 1917 C816 1949 792 1975 759 1975 L613 1975 Z M736 925 C703 925 679 899 679 867 L679 733 C679 701 703 675 736 675 L984 675 L984 250 L692 250 C468 250 380 321 380 816 C380 1293 462 1350 683 1350 L1067 1350 C1100 1350 1124 1376 1124 1408 L1124 1542 C1124 1574 1100 1600 1067 1600 L686 1600 C184 1600 100 1380 100 811 C100 260 179 0 662 0 L1196 0 C1228 0 1254 25 1254 57 L1254 868 C1254 900 1228 925 1196 925 L736 925 Z " />
<glyph glyph-name="gdotaccent" unicode="&#x121;" horiz-adv-x="1248" d="M717 1340 C750 1340 774 1366 774 1398 L774 1542 C774 1574 750 1600 717 1600 L571 1600 C538 1600 514 1574 514 1542 L514 1398 C514 1366 538 1340 571 1340 L717 1340 Z M1098 68 L1098 84 L1098 105 L1098 1132 C1098 1171 1067 1200 1028 1200 L492 1200 C248 1200 100 1088 100 603 C100 186 209 -10 490 -10 C611 -10 694 26 838 145 L838 105 C838 -84 816 -150 733 -150 L341 -150 C308 -150 284 -176 284 -208 L284 -342 C284 -374 308 -400 341 -400 L772 -400 C1080 -400 1097 -126 1098 65 L1098 68 Z M517 240 C378 240 350 294 350 598 C350 873 373 950 473 950 L838 950 L838 429 C717 297 660 240 517 240 L517 240 Z " />
<glyph glyph-name="Gcommaaccent" unicode="&#x122;" horiz-adv-x="1374" d="M736 925 C703 925 679 899 679 867 L679 733 C679 701 703 675 736 675 L984 675 L984 250 L692 250 C468 250 380 321 380 816 C380 1293 462 1350 683 1350 L1067 1350 C1100 1350 1124 1376 1124 1408 L1124 1542 C1124 1574 1100 1600 1067 1600 L686 1600 C184 1600 100 1380 100 811 C100 260 179 0 662 0 L1196 0 C1228 0 1254 25 1254 57 L1254 868 C1254 900 1228 925 1196 925 L736 925 Z M708 -125 C675 -125 651 -151 651 -183 L651 -317 C651 -349 675 -375 708 -375 C741 -375 765 -401 765 -433 L765 -577 C765 -609 789 -635 822 -635 L854 -635 C887 -635 911 -609 911 -577 L911 -183 C911 -151 887 -125 854 -125 L708 -125 Z " />
<glyph glyph-name="gcommaaccent" unicode="&#x123;" horiz-adv-x="1248" d="M767 1340 C800 1340 824 1366 824 1398 L824 1532 C824 1564 800 1590 767 1590 C734 1590 710 1616 710 1648 L710 1792 C710 1824 686 1850 653 1850 L621 1850 C588 1850 564 1824 564 1792 L564 1398 C564 1366 588 1340 621 1340 L767 1340 Z M1098 68 L1098 84 L1098 105 L1098 1132 C1098 1171 1067 1200 1028 1200 L492 1200 C248 1200 100 1088 100 603 C100 186 209 -10 490 -10 C611 -10 694 26 838 145 L838 105 C838 -84 816 -150 733 -150 L341 -150 C308 -150 284 -176 284 -208 L284 -342 C284 -374 308 -400 341 -400 L772 -400 C1080 -400 1097 -126 1098 65 L1098 68 Z M517 240 C378 240 350 294 350 598 C350 873 373 950 473 950 L838 950 L838 429 C717 297 660 240 517 240 L517 240 Z " />
<glyph glyph-name="Hbar" unicode="&#x126;" horiz-adv-x="1382" d="M1020 1600 C988 1600 962 1575 962 1543 L962 1329 L420 1329 L420 1543 C420 1575 394 1600 362 1600 L208 1600 C176 1600 150 1575 150 1543 L150 57 C150 24 176 0 208 0 L362 0 C394 0 420 24 420 57 L420 657 L962 657 L962 57 C962 24 988 0 1020 0 L1174 0 C1206 0 1232 24 1232 57 L1232 1543 C1232 1575 1206 1600 1174 1600 L1020 1600 Z M962 907 L420 907 L420 1079 L962 1079 L962 907 Z " />
<glyph glyph-name="hbar" unicode="&#x127;" horiz-adv-x="1176" d="M723 1210 C621 1210 525 1175 410 1080 L410 1297 L603 1297 C636 1297 660 1323 660 1355 L660 1439 C660 1471 636 1497 603 1497 L410 1497 L410 1623 C410 1655 384 1680 352 1680 L208 1680 C176 1680 150 1655 150 1623 L150 1497 L-8 1497 C-40 1497 -65 1471 -65 1439 L-65 1355 C-65 1323 -40 1297 -8 1297 L150 1297 L150 57 C150 24 176 0 208 0 L352 0 C384 0 410 24 410 57 L410 800 C506 901 593 958 674 958 C778 958 791 879 791 629 L791 57 C791 24 817 0 849 0 L993 0 C1025 0 1051 24 1051 57 L1051 710 C1051 1032 954 1210 723 1210 L723 1210 Z " />
<glyph glyph-name="Imacron" unicode="&#x12a;" horiz-adv-x="740" d="M730 1917 C730 1949 706 1975 673 1975 L62 1975 C30 1975 5 1949 5 1917 L5 1833 C5 1801 30 1775 62 1775 L673 1775 C706 1775 730 1801 730 1833 L730 1917 Z M505 250 L505 1350 L583 1350 C616 1350 640 1376 640 1408 L640 1542 C640 1574 616 1600 583 1600 L157 1600 C125 1600 100 1574 100 1542 L100 1408 C100 1376 125 1350 157 1350 L235 1350 L235 250 L157 250 C125 250 100 224 100 192 L100 58 C100 26 125 0 157 0 L583 0 C616 0 640 26 640 58 L640 192 C640 224 616 250 583 250 L505 250 Z " />
<glyph glyph-name="imacron" unicode="&#x12b;" horiz-adv-x="640" d="M4 1600 C-28 1600 -53 1574 -53 1542 L-53 1458 C-53 1426 -28 1400 4 1400 L615 1400 C648 1400 672 1426 672 1458 L672 1542 C672 1574 648 1600 615 1600 L4 1600 Z M454 250 L454 1143 C454 1176 428 1200 396 1200 L107 1200 C74 1200 50 1174 50 1142 L50 1008 C50 976 74 950 107 950 L194 950 L194 250 L107 250 C74 250 50 224 50 192 L50 58 C50 26 74 0 107 0 L533 0 C566 0 590 26 590 58 L590 192 C590 224 566 250 533 250 L454 250 Z " />
<glyph glyph-name="Iogonek" unicode="&#x12e;" horiz-adv-x="740" d="M700 -171 C688 -158 672 -151 656 -151 C644 -151 632 -155 622 -165 C609 -180 593 -189 567 -189 C520 -189 482 -161 482 -115 C482 -65 526 -24 598 2 C623 8 640 31 640 58 L640 192 C640 224 616 250 583 250 L505 250 L505 1350 L583 1350 C616 1350 640 1376 640 1408 L640 1542 C640 1574 616 1600 583 1600 L157 1600 C125 1600 100 1574 100 1542 L100 1408 C100 1376 125 1350 157 1350 L235 1350 L235 250 L157 250 C125 250 100 224 100 192 L100 58 C100 26 125 0 157 0 L376 0 C358 -30 351 -64 351 -103 C351 -243 442 -322 563 -322 C627 -322 675 -300 711 -265 C723 -254 729 -240 729 -225 C729 -211 723 -196 712 -184 L700 -171 Z " />
<glyph glyph-name="iogonek" unicode="&#x12f;" horiz-adv-x="690" d="M422 1420 C455 1420 479 1446 479 1478 L479 1622 C479 1654 455 1680 422 1680 L276 1680 C243 1680 219 1654 219 1622 L219 1478 C219 1446 243 1420 276 1420 L422 1420 Z M650 -171 C638 -158 622 -151 606 -151 C594 -151 582 -155 572 -165 C559 -180 543 -189 517 -189 C470 -189 432 -161 432 -115 C432 -67 474 -26 543 0 L558 0 C591 0 615 26 615 58 L615 192 C615 224 591 250 558 250 L479 250 L479 1143 C479 1176 453 1200 421 1200 L132 1200 C99 1200 75 1174 75 1142 L75 1008 C75 976 99 950 132 950 L219 950 L219 250 L132 250 C99 250 75 224 75 192 L75 58 C75 26 99 0 132 0 L326 0 C308 -30 301 -64 301 -103 C301 -243 392 -322 513 -322 C577 -322 625 -300 661 -265 C673 -254 679 -240 679 -225 C679 -211 673 -196 662 -184 L650 -171 Z " />
<glyph glyph-name="Idotaccent" unicode="&#x130;" horiz-adv-x="740" d="M306 1976 C273 1976 249 1950 249 1918 L249 1774 C249 1742 273 1716 306 1716 L452 1716 C485 1716 509 1742 509 1774 L509 1918 C509 1950 485 1976 452 1976 L306 1976 Z M505 250 L505 1350 L583 1350 C616 1350 640 1376 640 1408 L640 1542 C640 1574 616 1600 583 1600 L157 1600 C125 1600 100 1574 100 1542 L100 1408 C100 1376 125 1350 157 1350 L235 1350 L235 250 L157 250 C125 250 100 224 100 192 L100 58 C100 26 125 0 157 0 L583 0 C616 0 640 26 640 58 L640 192 C640 224 616 250 583 250 L505 250 Z " />
<glyph glyph-name="dotlessi" unicode="&#x131;" horiz-adv-x="640" d="M454 250 L454 1143 C454 1176 428 1200 396 1200 L107 1200 C74 1200 50 1174 50 1142 L50 1008 C50 976 74 950 107 950 L194 950 L194 250 L107 250 C74 250 50 224 50 192 L50 58 C50 26 74 0 107 0 L533 0 C566 0 590 26 590 58 L590 192 C590 224 566 250 533 250 L454 250 Z " />
<glyph glyph-name="IJ" unicode="&#x132;" horiz-adv-x="1769" d="M505 250 L505 1350 L583 1350 C616 1350 640 1376 640 1408 L640 1542 C640 1574 616 1600 583 1600 L157 1600 C125 1600 100 1574 100 1542 L100 1408 C100 1376 125 1350 157 1350 L235 1350 L235 250 L157 250 C125 250 100 224 100 192 L100 58 C100 26 125 0 157 0 L583 0 C616 0 640 26 640 58 L640 192 C640 224 616 250 583 250 L505 250 Z M897 1600 C864 1600 840 1574 840 1542 L840 1408 C840 1376 864 1350 897 1350 L1349 1350 L1349 442 C1349 341 1272 250 1070 250 L897 250 C864 250 840 224 840 192 L840 58 C840 26 864 0 897 0 L1058 0 C1539 0 1619 252 1619 444 L1619 1543 C1619 1575 1593 1600 1561 1600 L897 1600 Z " />
<glyph glyph-name="ij" unicode="&#x133;" horiz-adv-x="1172" d="M323 1430 C356 1430 380 1456 380 1488 L380 1622 C380 1654 356 1680 323 1680 L177 1680 C144 1680 120 1654 120 1622 L120 1488 C120 1456 144 1430 177 1430 L323 1430 Z M819 1680 C786 1680 762 1654 762 1622 L762 1488 C762 1456 786 1430 819 1430 L965 1430 C998 1430 1022 1456 1022 1488 L1022 1622 C1022 1654 998 1680 965 1680 L819 1680 Z M819 1200 C787 1200 761 1176 761 1143 L761 410 C665 309 588 252 497 252 C393 252 380 331 380 581 L380 1143 C380 1176 354 1200 322 1200 L178 1200 C146 1200 120 1176 120 1143 L120 500 C120 178 217 0 448 0 C550 0 646 35 761 130 L761 105 C761 -74 739 -150 646 -150 L523 -150 C490 -150 466 -176 466 -208 L466 -342 C466 -374 490 -400 523 -400 L695 -400 C890 -400 1021 -315 1021 48 L1021 1143 C1021 1176 995 1200 963 1200 L819 1200 Z " />
<glyph glyph-name="Kcommaaccent" unicode="&#x136;" horiz-adv-x="1354" d="M709 796 L1313 1515 C1334 1540 1337 1596 1306 1596 L1109 1596 C1079 1596 1050 1600 1029 1575 L514 963 L420 963 L420 1543 C420 1576 394 1600 362 1600 L208 1600 C176 1600 150 1576 150 1543 L150 57 C150 24 176 0 208 0 L362 0 C394 0 420 24 420 57 L420 637 L514 637 L1030 21 C1051 -4 1081 0 1110 0 L1306 0 C1337 0 1334 56 1313 81 L709 796 Z M603 -10 C570 -10 546 -36 546 -68 L546 -202 C546 -234 570 -260 603 -260 C636 -260 660 -286 660 -318 L660 -462 C660 -494 684 -520 717 -520 L749 -520 C782 -520 806 -494 806 -462 L806 -68 C806 -36 782 -10 749 -10 L603 -10 Z " />
<glyph glyph-name="kcommaaccent" unicode="&#x137;" horiz-adv-x="1121" d="M699 666 L1019 1119 C1038 1146 1043 1200 1012 1200 L819 1200 C790 1200 757 1206 739 1179 L507 825 L410 825 L410 1623 C410 1656 384 1680 352 1680 L208 1680 C176 1680 150 1656 150 1623 L150 57 C150 24 176 0 208 0 L352 0 C384 0 410 24 410 57 L410 499 L507 499 L800 21 C817 -7 850 0 880 0 L1074 0 C1105 0 1099 54 1081 81 L699 666 Z M506 -100 C473 -100 449 -126 449 -158 L449 -292 C449 -324 473 -350 506 -350 C539 -350 563 -376 563 -408 L563 -552 C563 -584 587 -610 620 -610 L652 -610 C685 -610 709 -584 709 -552 L709 -158 C709 -126 685 -100 652 -100 L506 -100 Z " />
<glyph glyph-name="Lacute" unicode="&#x139;" horiz-adv-x="1222" d="M459 2028 C440 2054 406 2062 379 2043 L21 1792 C-4 1775 -11 1739 8 1713 C27 1686 57 1688 88 1697 L522 1838 C555 1849 553 1892 536 1918 L459 2028 Z M420 250 L420 1543 C420 1575 394 1600 362 1600 L208 1600 C176 1600 150 1575 150 1543 L150 57 C150 24 176 0 208 0 L1105 0 C1138 0 1162 26 1162 58 L1162 192 C1162 224 1138 250 1105 250 L420 250 Z " />
<glyph glyph-name="lacute" unicode="&#x13a;" horiz-adv-x="640" d="M522 1885 C555 1896 553 1939 536 1965 L459 2075 C440 2101 406 2109 379 2090 L21 1839 C-4 1822 -11 1786 8 1760 C27 1733 57 1735 88 1744 L522 1885 Z M454 250 L454 1623 C454 1656 428 1680 396 1680 L107 1680 C74 1680 50 1654 50 1622 L50 1488 C50 1456 74 1430 107 1430 L194 1430 L194 57 C194 28 214 6 240 1 L240 0 L533 0 C566 0 590 26 590 58 L590 192 C590 224 566 250 533 250 L454 250 Z " />
<glyph glyph-name="Lcommaaccent" unicode="&#x13b;" horiz-adv-x="1222" d="M420 250 L420 1543 C420 1575 394 1600 362 1600 L208 1600 C176 1600 150 1575 150 1543 L150 57 C150 24 176 0 208 0 L1105 0 C1138 0 1162 26 1162 58 L1162 192 C1162 224 1138 250 1105 250 L420 250 Z M573 -125 C540 -125 516 -151 516 -183 L516 -317 C516 -349 540 -375 573 -375 C606 -375 630 -401 630 -433 L630 -577 C630 -609 654 -635 687 -635 L719 -635 C752 -635 776 -609 776 -577 L776 -183 C776 -151 752 -125 719 -125 L573 -125 Z " />
<glyph glyph-name="lcommaaccent" unicode="&#x13c;" horiz-adv-x="640" d="M454 250 L454 1623 C454 1656 428 1680 396 1680 L107 1680 C74 1680 50 1654 50 1622 L50 1488 C50 1456 74 1430 107 1430 L194 1430 L194 57 C194 28 214 6 240 1 L240 0 L533 0 C566 0 590 26 590 58 L590 192 C590 224 566 250 533 250 L454 250 Z M301 -125 C268 -125 244 -151 244 -183 L244 -317 C244 -349 268 -375 301 -375 C334 -375 358 -401 358 -433 L358 -577 C358 -609 382 -635 415 -635 L447 -635 C480 -635 504 -609 504 -577 L504 -183 C504 -151 480 -125 447 -125 L301 -125 Z " />
<glyph glyph-name="Lcaron" unicode="&#x13d;" horiz-adv-x="1222" d="M759 1680 C726 1680 702 1654 702 1622 L702 1488 C702 1456 726 1430 759 1430 C792 1430 816 1404 816 1372 L816 1228 C816 1196 840 1170 873 1170 L905 1170 C938 1170 962 1196 962 1228 L962 1622 C962 1654 938 1680 905 1680 L759 1680 Z M420 250 L420 1543 C420 1575 394 1600 362 1600 L208 1600 C176 1600 150 1575 150 1543 L150 57 C150 24 176 0 208 0 L1105 0 C1138 0 1162 26 1162 58 L1162 192 C1162 224 1138 250 1105 250 L420 250 Z " />
<glyph glyph-name="lcaron" unicode="&#x13e;" horiz-adv-x="952" d="M454 250 L454 1623 C454 1656 428 1680 396 1680 L107 1680 C74 1680 50 1654 50 1622 L50 1488 C50 1456 74 1430 107 1430 L194 1430 L194 57 C194 28 214 6 240 1 L240 0 L533 0 C566 0 590 26 590 58 L590 192 C590 224 566 250 533 250 L454 250 Z M739 1680 C706 1680 682 1654 682 1622 L682 1488 C682 1456 706 1430 739 1430 C772 1430 796 1404 796 1372 L796 1228 C796 1196 820 1170 853 1170 L885 1170 C918 1170 942 1196 942 1228 L942 1622 C942 1654 918 1680 885 1680 L739 1680 Z " />
<glyph glyph-name="Ldot" unicode="&#x13f;" horiz-adv-x="1222" d="M207 1975 C174 1975 150 1949 150 1917 L150 1773 C150 1741 174 1715 207 1715 L353 1715 C386 1715 410 1741 410 1773 L410 1917 C410 1949 386 1975 353 1975 L207 1975 Z M420 250 L420 1543 C420 1575 394 1600 362 1600 L208 1600 C176 1600 150 1575 150 1543 L150 57 C150 24 176 0 208 0 L1105 0 C1138 0 1162 26 1162 58 L1162 192 C1162 224 1138 250 1105 250 L420 250 Z " />
<glyph glyph-name="ldot" unicode="&#x140;" horiz-adv-x="947" d="M454 250 L454 1623 C454 1656 428 1680 396 1680 L107 1680 C74 1680 50 1654 50 1622 L50 1488 C50 1456 74 1430 107 1430 L194 1430 L194 57 C194 28 214 6 240 1 L240 0 L533 0 C566 0 590 26 590 58 L590 192 C590 224 566 250 533 250 L454 250 Z M694 1200 C661 1200 637 1174 637 1142 L637 1008 C637 976 661 950 694 950 L840 950 C873 950 897 976 897 1008 L897 1142 C897 1174 873 1200 840 1200 L694 1200 Z " />
<glyph glyph-name="Lslash" unicode="&#x141;" horiz-adv-x="1176" d="M374 250 L374 774 L579 874 C609 889 619 922 605 951 L568 1027 C554 1055 521 1068 491 1054 L374 997 L374 1543 C374 1575 348 1600 316 1600 L162 1600 C130 1600 104 1575 104 1543 L104 865 L-58 786 C-87 772 -98 738 -84 709 L-47 633 C-33 605 1 592 30 606 L104 642 L104 57 C104 24 130 0 162 0 L1059 0 C1092 0 1116 26 1116 58 L1116 192 C1116 224 1092 250 1059 250 L374 250 Z " />
<glyph glyph-name="lslash" unicode="&#x142;" horiz-adv-x="640" d="M653 1027 C639 1055 606 1068 576 1054 L454 994 L454 1623 C454 1656 428 1680 396 1680 L107 1680 C74 1680 50 1654 50 1622 L50 1488 C50 1456 74 1430 107 1430 L194 1430 L194 868 L27 786 C-2 772 -13 738 1 709 L38 633 C52 605 86 592 115 606 L194 645 L194 57 C194 28 214 6 240 1 L240 0 L533 0 C566 0 590 26 590 58 L590 192 C590 224 566 250 533 250 L454 250 L454 771 L664 874 C694 889 704 922 690 951 L653 1027 Z " />
<glyph glyph-name="Nacute" unicode="&#x143;" horiz-adv-x="1368" d="M825 2028 C806 2054 772 2062 745 2043 L387 1792 C362 1775 355 1739 374 1713 C393 1686 423 1688 454 1697 L888 1838 C921 1849 919 1892 902 1918 L825 2028 Z M818 1610 C751 1610 654 1599 420 1470 L420 1543 C420 1575 394 1600 362 1600 L208 1600 C176 1600 150 1575 150 1543 L150 57 C150 24 176 0 208 0 L362 0 C394 0 420 24 420 57 L420 1179 C645 1315 755 1347 819 1347 C961 1347 973 1188 973 1029 L973 57 C973 24 999 0 1031 0 L1185 0 C1217 0 1243 24 1243 57 L1243 1058 C1243 1438 1084 1610 818 1610 L818 1610 Z " />
<glyph glyph-name="nacute" unicode="&#x144;" horiz-adv-x="1176" d="M748 1653 C729 1679 695 1687 668 1668 L310 1417 C285 1400 278 1364 297 1338 C316 1311 346 1313 377 1322 L811 1463 C844 1474 842 1517 825 1543 L748 1653 Z M723 1210 C621 1210 525 1175 410 1080 L410 1143 C410 1175 384 1200 352 1200 L208 1200 C176 1200 150 1175 150 1143 L150 57 C150 24 176 0 208 0 L352 0 C384 0 410 24 410 57 L410 799 C506 900 593 957 674 957 C778 957 791 878 791 629 L791 57 C791 24 817 0 849 0 L993 0 C1025 0 1051 24 1051 57 L1051 710 C1051 1032 954 1210 723 1210 L723 1210 Z " />
<glyph glyph-name="Ncommaaccent" unicode="&#x145;" horiz-adv-x="1368" d="M818 1610 C751 1610 654 1599 420 1470 L420 1543 C420 1575 394 1600 362 1600 L208 1600 C176 1600 150 1575 150 1543 L150 57 C150 24 176 0 208 0 L362 0 C394 0 420 24 420 57 L420 1179 C645 1315 755 1347 819 1347 C961 1347 973 1188 973 1029 L973 57 C973 24 999 0 1031 0 L1185 0 C1217 0 1243 24 1243 57 L1243 1058 C1243 1438 1084 1610 818 1610 L818 1610 Z M610 -10 C577 -10 553 -36 553 -68 L553 -202 C553 -234 577 -260 610 -260 C643 -260 667 -286 667 -318 L667 -462 C667 -494 691 -520 724 -520 L756 -520 C789 -520 813 -494 813 -462 L813 -68 C813 -36 789 -10 756 -10 L610 -10 Z " />
<glyph glyph-name="ncommaaccent" unicode="&#x146;" horiz-adv-x="1176" d="M723 1210 C621 1210 525 1175 410 1080 L410 1143 C410 1175 384 1200 352 1200 L208 1200 C176 1200 150 1175 150 1143 L150 57 C150 24 176 0 208 0 L352 0 C384 0 410 24 410 57 L410 799 C506 900 593 957 674 957 C778 957 791 878 791 629 L791 57 C791 24 817 0 849 0 L993 0 C1025 0 1051 24 1051 57 L1051 710 C1051 1032 954 1210 723 1210 L723 1210 Z M530 -100 C497 -100 473 -126 473 -158 L473 -292 C473 -324 497 -350 530 -350 C563 -350 587 -376 587 -408 L587 -552 C587 -584 611 -610 644 -610 L676 -610 C709 -610 733 -584 733 -552 L733 -158 C733 -126 709 -100 676 -100 L530 -100 Z " />
<glyph glyph-name="Ncaron" unicode="&#x147;" horiz-adv-x="1368" d="M595 1650 C606 1639 621 1633 635 1634 C649 1633 664 1639 675 1650 L984 1959 C1006 1981 1006 2017 983 2040 C960 2063 930 2056 902 2041 L635 1899 L368 2041 C340 2056 310 2063 287 2040 C264 2017 264 1981 286 1959 L595 1650 Z M818 1610 C751 1610 654 1599 420 1470 L420 1543 C420 1575 394 1600 362 1600 L208 1600 C176 1600 150 1575 150 1543 L150 57 C150 24 176 0 208 0 L362 0 C394 0 420 24 420 57 L420 1179 C645 1315 755 1347 819 1347 C961 1347 973 1188 973 1029 L973 57 C973 24 999 0 1031 0 L1185 0 C1217 0 1243 24 1243 57 L1243 1058 C1243 1438 1084 1610 818 1610 L818 1610 Z " />
<glyph glyph-name="ncaron" unicode="&#x148;" horiz-adv-x="1176" d="M497 1275 C508 1264 523 1258 537 1259 C551 1258 566 1264 577 1275 L886 1584 C908 1606 908 1642 885 1665 C862 1688 832 1681 804 1666 L537 1524 L270 1666 C242 1681 212 1688 189 1665 C166 1642 166 1606 188 1584 L497 1275 Z M723 1210 C621 1210 525 1175 410 1080 L410 1143 C410 1175 384 1200 352 1200 L208 1200 C176 1200 150 1175 150 1143 L150 57 C150 24 176 0 208 0 L352 0 C384 0 410 24 410 57 L410 799 C506 900 593 957 674 957 C778 957 791 878 791 629 L791 57 C791 24 817 0 849 0 L993 0 C1025 0 1051 24 1051 57 L1051 710 C1051 1032 954 1210 723 1210 L723 1210 Z " />
<glyph glyph-name="Eng" unicode="&#x14a;" horiz-adv-x="1393" d="M818 1610 C751 1610 654 1599 420 1470 L420 1543 C420 1575 394 1600 362 1600 L208 1600 C176 1600 150 1575 150 1543 L150 57 C150 24 176 0 208 0 L362 0 C394 0 420 24 420 57 L420 1179 C645 1315 755 1347 819 1347 C961 1347 973 1188 973 1029 L973 105 C973 -74 951 -150 858 -150 L735 -150 C702 -150 678 -176 678 -208 L678 -342 C678 -374 702 -400 735 -400 L907 -400 C1102 -400 1243 -315 1243 48 L1243 1058 C1243 1438 1084 1610 818 1610 L818 1610 Z " />
<glyph glyph-name="eng" unicode="&#x14b;" horiz-adv-x="1201" d="M723 1210 C621 1210 525 1175 410 1080 L410 1143 C410 1175 384 1200 352 1200 L208 1200 C176 1200 150 1175 150 1143 L150 57 C150 24 176 0 208 0 L352 0 C384 0 410 24 410 57 L410 799 C506 900 593 957 674 957 C778 957 791 878 791 629 L791 105 C791 -74 769 -150 676 -150 L553 -150 C520 -150 496 -176 496 -208 L496 -342 C496 -374 520 -400 553 -400 L715 -400 C899 -400 1051 -315 1051 48 L1051 710 C1051 1032 954 1210 723 1210 L723 1210 Z " />
<glyph glyph-name="Omacron" unicode="&#x14c;" horiz-adv-x="1380" d="M1037 1917 C1037 1949 1013 1975 980 1975 L369 1975 C337 1975 312 1949 312 1917 L312 1833 C312 1801 337 1775 369 1775 L980 1775 C1013 1775 1037 1801 1037 1833 L1037 1917 Z M686 1610 C183 1610 100 1380 100 808 C100 236 183 -10 691 -10 C1198 -10 1280 235 1280 804 C1280 1370 1199 1610 686 1610 L686 1610 Z M683 1350 C923 1350 1000 1284 1000 803 C1000 316 921 250 690 250 C461 250 380 315 380 807 C380 1293 459 1350 683 1350 L683 1350 Z " />
<glyph glyph-name="omacron" unicode="&#x14d;" horiz-adv-x="1162" d="M915 1542 C915 1574 891 1600 858 1600 L247 1600 C215 1600 190 1574 190 1542 L190 1458 C190 1426 215 1400 247 1400 L858 1400 C891 1400 915 1426 915 1458 L915 1542 Z M589 -10 C982 -10 1062 148 1062 607 C1062 1066 982 1210 585 1210 L573 1210 C177 1210 100 1065 100 608 C100 147 179 -10 573 -10 L589 -10 Z M585 960 C779 960 812 931 812 608 C812 275 776 240 590 240 L572 240 C386 240 350 274 350 607 C350 930 383 960 573 960 L585 960 Z " />
<glyph glyph-name="Ohungarumlaut" unicode="&#x150;" horiz-adv-x="1380" d="M649 2050 C620 2062 587 2052 573 2023 L430 1719 C417 1690 430 1656 459 1643 C488 1628 511 1648 535 1670 L798 1917 C825 1943 800 1979 770 1993 L649 2050 Z M973 2050 C944 2062 911 2052 897 2023 L754 1719 C741 1690 754 1656 783 1643 C812 1628 835 1648 859 1670 L1122 1917 C1149 1943 1124 1979 1094 1993 L973 2050 Z M686 1610 C183 1610 100 1380 100 808 C100 236 183 -10 691 -10 C1198 -10 1280 235 1280 804 C1280 1370 1199 1610 686 1610 L686 1610 Z M683 1350 C923 1350 1000 1284 1000 803 C1000 316 921 250 690 250 C461 250 380 315 380 807 C380 1293 459 1350 683 1350 L683 1350 Z " />
<glyph glyph-name="ohungarumlaut" unicode="&#x151;" horiz-adv-x="1162" d="M495 1675 C466 1687 433 1677 419 1648 L276 1344 C263 1315 276 1281 305 1268 C334 1253 357 1273 381 1295 L644 1542 C671 1568 646 1604 616 1618 L495 1675 Z M819 1675 C790 1687 757 1677 743 1648 L600 1344 C587 1315 600 1281 629 1268 C658 1253 681 1273 705 1295 L968 1542 C995 1568 970 1604 940 1618 L819 1675 Z M589 -10 C982 -10 1062 148 1062 607 C1062 1066 982 1210 585 1210 L573 1210 C177 1210 100 1065 100 608 C100 147 179 -10 573 -10 L589 -10 Z M585 960 C779 960 812 931 812 608 C812 275 776 240 590 240 L572 240 C386 240 350 274 350 607 C350 930 383 960 573 960 L585 960 Z " />
<glyph glyph-name="OE" unicode="&#x152;" horiz-adv-x="2070" d="M1270 1350 L1913 1350 C1946 1350 1970 1376 1970 1408 L1970 1542 C1970 1574 1946 1600 1913 1600 L1058 1600 C1032 1600 1010 1584 1003 1561 C922 1594 818 1610 686 1610 C183 1610 100 1380 100 808 C100 236 183 -10 691 -10 C902 -10 1039 32 1128 123 C1211 50 1346 0 1561 0 L1913 0 C1946 0 1970 26 1970 58 L1970 192 C1970 224 1946 250 1913 250 L1549 250 C1347 250 1270 341 1270 442 L1270 675 L1759 675 C1792 675 1816 701 1816 733 L1816 867 C1816 899 1792 925 1759 925 L1270 925 L1270 1350 Z M690 250 C461 250 380 315 380 807 C380 1293 459 1350 683 1350 C923 1350 1000 1284 1000 803 C1000 316 921 250 690 250 L690 250 Z " />
<glyph glyph-name="oe" unicode="&#x153;" horiz-adv-x="1870" d="M1722 303 C1712 326 1697 335 1680 335 C1667 335 1649 331 1628 320 C1534 272 1459 243 1361 241 C1128 237 1076 337 1066 488 L1706 488 C1746 488 1775 520 1775 558 L1775 629 L1775 633 C1772 1071 1688 1210 1298 1210 L1286 1210 C1119 1210 1009 1184 937 1120 C865 1185 753 1211 585 1211 L573 1211 C177 1211 100 1066 100 609 C100 148 179 -9 573 -9 L589 -9 C782 -9 899 29 969 122 C1062 31 1194 -10 1361 -10 C1492 -10 1566 16 1752 114 C1771 123 1780 139 1780 158 C1780 174 1773 192 1764 211 L1722 303 Z M572 241 C386 241 350 275 350 608 C350 931 383 961 573 961 L585 961 C779 961 812 932 812 609 C812 276 776 241 590 241 L572 241 Z M1298 960 C1472 960 1516 937 1524 698 L1064 698 C1071 936 1115 960 1286 960 L1298 960 Z " />
<glyph glyph-name="Racute" unicode="&#x154;" horiz-adv-x="1285" d="M744 2028 C725 2054 691 2062 664 2043 L306 1792 C281 1775 274 1739 293 1713 C312 1686 342 1688 373 1697 L807 1838 C840 1849 838 1892 821 1918 L744 2028 Z M971 490 C1146 592 1195 832 1195 1048 C1195 1325 1110 1600 766 1600 L208 1600 C176 1600 150 1575 150 1543 L150 57 C150 24 176 0 208 0 L362 0 C394 0 420 24 420 57 L420 440 L698 440 L890 28 C904 -2 937 0 967 0 L1135 0 C1167 0 1192 15 1178 45 L971 490 Z M420 700 L420 1336 L756 1339 C910 1340 914 1179 914 1019 C914 875 910 700 756 700 L420 700 Z " />
<glyph glyph-name="racute" unicode="&#x155;" horiz-adv-x="805" d="M600 1463 C633 1474 631 1517 614 1543 L537 1653 C518 1679 484 1687 457 1668 L99 1417 C74 1400 67 1364 86 1338 C105 1311 135 1313 166 1322 L600 1463 Z M651 1210 C541 1210 451 1133 410 1087 L410 1143 C410 1176 384 1200 352 1200 L208 1200 C176 1200 150 1176 150 1143 L150 57 C150 24 176 0 208 0 L352 0 C384 0 410 24 410 57 L410 852 C485 925 543 960 612 960 L698 960 C731 960 755 986 755 1018 L755 1142 C755 1174 719 1210 651 1210 L651 1210 Z " />
<glyph glyph-name="Rcommaaccent" unicode="&#x156;" horiz-adv-x="1285" d="M971 490 C1146 592 1195 832 1195 1048 C1195 1325 1110 1600 766 1600 L208 1600 C176 1600 150 1575 150 1543 L150 57 C150 24 176 0 208 0 L362 0 C394 0 420 24 420 57 L420 440 L698 440 L890 28 C904 -2 937 0 967 0 L1135 0 C1167 0 1192 15 1178 45 L971 490 Z M420 700 L420 1336 L756 1339 C910 1340 914 1179 914 1019 C914 875 910 700 756 700 L420 700 Z M561 -10 C528 -10 504 -36 504 -68 L504 -202 C504 -234 528 -260 561 -260 C594 -260 618 -286 618 -318 L618 -462 C618 -494 642 -520 675 -520 L707 -520 C740 -520 764 -494 764 -462 L764 -68 C764 -36 740 -10 707 -10 L561 -10 Z " />
<glyph glyph-name="rcommaaccent" unicode="&#x157;" horiz-adv-x="805" d="M651 1210 C541 1210 451 1133 410 1087 L410 1143 C410 1176 384 1200 352 1200 L208 1200 C176 1200 150 1176 150 1143 L150 57 C150 24 176 0 208 0 L352 0 C384 0 410 24 410 57 L410 852 C485 925 543 960 612 960 L698 960 C731 960 755 986 755 1018 L755 1142 C755 1174 719 1210 651 1210 L651 1210 Z M207 -125 C174 -125 150 -151 150 -183 L150 -317 C150 -349 174 -375 207 -375 C240 -375 264 -401 264 -433 L264 -577 C264 -609 288 -635 321 -635 L353 -635 C386 -635 410 -609 410 -577 L410 -183 C410 -151 386 -125 353 -125 L207 -125 Z " />
<glyph glyph-name="Rcaron" unicode="&#x158;" horiz-adv-x="1285" d="M535 1650 C546 1639 561 1633 575 1634 C589 1633 604 1639 615 1650 L924 1959 C946 1981 946 2017 923 2040 C900 2063 870 2056 842 2041 L575 1899 L308 2041 C280 2056 250 2063 227 2040 C204 2017 204 1981 226 1959 L535 1650 Z M971 490 C1146 592 1195 832 1195 1048 C1195 1325 1110 1600 766 1600 L208 1600 C176 1600 150 1575 150 1543 L150 57 C150 24 176 0 208 0 L362 0 C394 0 420 24 420 57 L420 440 L698 440 L890 28 C904 -2 937 0 967 0 L1135 0 C1167 0 1192 15 1178 45 L971 490 Z M420 700 L420 1336 L756 1339 C910 1340 914 1179 914 1019 C914 875 910 700 756 700 L420 700 Z " />
<glyph glyph-name="rcaron" unicode="&#x159;" horiz-adv-x="805" d="M757 1665 C734 1688 704 1681 676 1666 L409 1524 L142 1666 C114 1681 84 1688 61 1665 C38 1642 38 1606 60 1584 L369 1275 C380 1264 395 1258 409 1259 C423 1258 438 1264 449 1275 L758 1584 C780 1606 780 1642 757 1665 L757 1665 Z M651 1210 C541 1210 451 1133 410 1087 L410 1143 C410 1176 384 1200 352 1200 L208 1200 C176 1200 150 1176 150 1143 L150 57 C150 24 176 0 208 0 L352 0 C384 0 410 24 410 57 L410 852 C485 925 543 960 612 960 L698 960 C731 960 755 986 755 1018 L755 1142 C755 1174 719 1210 651 1210 L651 1210 Z " />
<glyph glyph-name="Sacute" unicode="&#x15a;" horiz-adv-x="1134" d="M825 2028 C806 2054 772 2062 745 2043 L387 1792 C362 1775 355 1739 374 1713 C393 1686 423 1688 454 1697 L888 1838 C921 1849 919 1892 902 1918 L825 2028 Z M1044 444 C1044 1002 370 833 370 1157 C370 1259 437 1350 639 1350 L955 1350 C988 1350 1012 1376 1012 1408 L1012 1542 C1012 1574 988 1600 955 1600 L651 1600 C170 1600 90 1348 90 1156 C90 597 764 761 764 442 C764 341 697 250 495 250 L166 250 C133 250 109 224 109 192 L109 58 C109 26 133 0 166 0 L483 0 C964 0 1044 252 1044 444 L1044 444 Z " />
<glyph glyph-name="sacute" unicode="&#x15b;" horiz-adv-x="956" d="M681 1653 C662 1679 628 1687 601 1668 L243 1417 C218 1400 211 1364 230 1338 C249 1311 279 1313 310 1322 L744 1463 C777 1474 775 1517 758 1543 L681 1653 Z M759 950 C798 950 827 981 827 1020 L827 1130 C827 1169 798 1200 759 1200 L530 1200 C142 1200 90 1028 90 883 C90 422 616 513 616 341 C616 262 507 250 435 250 L159 250 C119 250 90 219 90 180 L90 70 C90 31 119 0 159 0 L416 0 C785 0 866 197 866 351 C866 744 340 634 340 870 C340 940 387 950 550 950 L759 950 Z " />
<glyph glyph-name="Scedilla" unicode="&#x15e;" horiz-adv-x="1134" d="M1044 444 C1044 1002 370 833 370 1157 C370 1259 437 1350 639 1350 L955 1350 C988 1350 1012 1376 1012 1408 L1012 1542 C1012 1574 988 1600 955 1600 L651 1600 C170 1600 90 1348 90 1156 C90 597 764 761 764 442 C764 341 697 250 495 250 L166 250 C133 250 109 224 109 192 L109 58 C109 26 133 0 166 0 L453 0 L453 -70 C453 -102 478 -128 510 -128 C549 -128 580 -159 580 -198 C580 -236 549 -267 510 -267 C489 -267 471 -258 458 -243 C436 -221 402 -225 380 -249 L368 -262 C346 -286 345 -321 369 -343 C405 -378 455 -400 510 -400 C622 -400 713 -310 713 -198 C713 -99 641 -16 547 2 C971 23 1044 261 1044 444 L1044 444 Z " />
<glyph glyph-name="scedilla" unicode="&#x15f;" horiz-adv-x="956" d="M866 351 C866 744 340 634 340 870 C340 940 387 950 550 950 L759 950 C798 950 827 981 827 1020 L827 1130 C827 1169 798 1200 759 1200 L530 1200 C142 1200 90 1028 90 883 C90 422 616 513 616 341 C616 262 507 250 435 250 L159 250 C119 250 90 219 90 180 L90 70 C90 31 119 0 159 0 L339 0 L339 -70 C339 -102 364 -128 396 -128 C435 -128 466 -159 466 -198 C466 -236 435 -267 396 -267 C375 -267 357 -258 344 -243 C322 -221 288 -225 266 -249 L254 -262 C232 -286 231 -321 255 -343 C291 -378 341 -400 396 -400 C508 -400 599 -310 599 -198 C599 -101 531 -20 440 0 C788 9 866 200 866 351 L866 351 Z " />
<glyph glyph-name="Scaron" unicode="&#x160;" horiz-adv-x="1134" d="M514 1650 C525 1639 540 1633 554 1634 C568 1633 583 1639 594 1650 L903 1959 C925 1981 925 2017 902 2040 C879 2063 849 2056 821 2041 L554 1899 L287 2041 C259 2056 229 2063 206 2040 C183 2017 183 1981 205 1959 L514 1650 Z M370 1157 C370 1259 437 1350 639 1350 L955 1350 C988 1350 1012 1376 1012 1408 L1012 1542 C1012 1574 988 1600 955 1600 L651 1600 C170 1600 90 1348 90 1156 C90 597 764 761 764 442 C764 341 697 250 495 250 L166 250 C133 250 109 224 109 192 L109 58 C109 26 133 0 166 0 L483 0 C964 0 1044 252 1044 444 C1044 1002 370 833 370 1157 L370 1157 Z " />
<glyph glyph-name="scaron" unicode="&#x161;" horiz-adv-x="956" d="M443 1275 C454 1264 469 1258 483 1259 C497 1258 512 1264 523 1275 L832 1584 C854 1606 854 1642 831 1665 C808 1688 778 1681 750 1666 L483 1524 L216 1666 C188 1681 158 1688 135 1665 C112 1642 112 1606 134 1584 L443 1275 Z M340 870 C340 940 387 950 550 950 L759 950 C798 950 827 981 827 1020 L827 1130 C827 1169 798 1200 759 1200 L530 1200 C142 1200 90 1028 90 883 C90 422 616 513 616 341 C616 262 507 250 435 250 L159 250 C119 250 90 219 90 180 L90 70 C90 31 119 0 159 0 L416 0 C785 0 866 197 866 351 C866 744 340 634 340 870 L340 870 Z " />
<glyph glyph-name="Tcedilla" unicode="&#x162;" horiz-adv-x="1290" d="M117 1600 C85 1600 60 1574 60 1542 L60 1408 C60 1376 85 1350 117 1350 L510 1350 L510 57 C510 24 536 0 568 0 L586 0 L586 -70 C586 -102 611 -128 643 -128 C682 -128 713 -159 713 -198 C713 -236 682 -267 643 -267 C622 -267 604 -258 591 -243 C569 -221 535 -225 513 -249 L501 -262 C479 -286 478 -321 502 -343 C538 -378 588 -400 643 -400 C755 -400 846 -310 846 -198 C846 -101 778 -20 688 0 L722 0 C754 0 780 24 780 57 L780 1350 L1173 1350 C1206 1350 1230 1376 1230 1408 L1230 1542 C1230 1574 1206 1600 1173 1600 L117 1600 Z " />
<glyph glyph-name="tcedilla" unicode="&#x163;" horiz-adv-x="804" d="M561 250 C468 250 446 326 446 505 L446 950 L598 950 C631 950 655 976 655 1008 L655 1142 C655 1174 631 1200 598 1200 L446 1200 L446 1443 C446 1476 420 1500 388 1500 L244 1500 C212 1500 186 1476 186 1443 L186 1200 L107 1200 C75 1200 50 1174 50 1142 L50 1008 C50 976 75 950 107 950 L186 950 L186 448 C186 133 284 28 437 5 L395 5 L395 -70 C395 -102 420 -128 452 -128 C491 -128 522 -159 522 -198 C522 -236 491 -267 452 -267 C431 -267 413 -258 400 -243 C378 -221 344 -225 322 -249 L310 -262 C288 -286 287 -321 311 -343 C347 -378 397 -400 452 -400 C564 -400 655 -310 655 -198 C655 -101 587 -20 496 0 L511 0 L697 0 C730 0 754 26 754 58 L754 192 C754 224 730 250 697 250 L561 250 Z " />
<glyph glyph-name="Tcaron" unicode="&#x164;" horiz-adv-x="1290" d="M595 1650 C606 1639 621 1633 635 1634 C649 1633 664 1639 675 1650 L984 1959 C1006 1981 1006 2017 983 2040 C960 2063 930 2056 902 2041 L635 1899 L368 2041 C340 2056 310 2063 287 2040 C264 2017 264 1981 286 1959 L595 1650 Z M117 1600 C85 1600 60 1574 60 1542 L60 1408 C60 1376 85 1350 117 1350 L510 1350 L510 57 C510 24 536 0 568 0 L722 0 C754 0 780 24 780 57 L780 1350 L1173 1350 C1206 1350 1230 1376 1230 1408 L1230 1542 C1230 1574 1206 1600 1173 1600 L117 1600 Z " />
<glyph glyph-name="tcaron" unicode="&#x165;" horiz-adv-x="952" d="M739 1680 C706 1680 682 1654 682 1622 L682 1488 C682 1456 706 1430 739 1430 C772 1430 796 1404 796 1372 L796 1228 C796 1196 820 1170 853 1170 L885 1170 C918 1170 942 1196 942 1228 L942 1622 C942 1654 918 1680 885 1680 L739 1680 Z M561 250 C468 250 446 326 446 505 L446 950 L598 950 C631 950 655 976 655 1008 L655 1142 C655 1174 631 1200 598 1200 L446 1200 L446 1443 C446 1476 420 1500 388 1500 L244 1500 C212 1500 186 1476 186 1443 L186 1200 L107 1200 C75 1200 50 1174 50 1142 L50 1008 C50 976 75 950 107 950 L186 950 L186 448 C186 85 316 0 511 0 L697 0 C730 0 754 26 754 58 L754 192 C754 224 730 250 697 250 L561 250 Z " />
<glyph glyph-name="Tbar" unicode="&#x166;" horiz-adv-x="1290" d="M117 1600 C85 1600 60 1574 60 1542 L60 1408 C60 1376 85 1350 117 1350 L510 1350 L510 888 L340 888 C308 888 283 862 283 830 L283 746 C283 714 308 688 340 688 L510 688 L510 57 C510 24 536 0 568 0 L722 0 C754 0 780 24 780 57 L780 688 L951 688 C984 688 1008 714 1008 746 L1008 830 C1008 862 984 888 951 888 L780 888 L780 1350 L1173 1350 C1206 1350 1230 1376 1230 1408 L1230 1542 C1230 1574 1206 1600 1173 1600 L117 1600 Z " />
<glyph glyph-name="tbar" unicode="&#x167;" horiz-adv-x="804" d="M561 250 C468 250 446 326 446 505 L446 579 L603 579 C636 579 660 605 660 637 L660 721 C660 753 636 779 603 779 L446 779 L446 950 L598 950 C631 950 655 976 655 1008 L655 1142 C655 1174 631 1200 598 1200 L446 1200 L446 1443 C446 1476 420 1500 388 1500 L244 1500 C212 1500 186 1476 186 1443 L186 1200 L107 1200 C75 1200 50 1174 50 1142 L50 1008 C50 976 75 950 107 950 L186 950 L186 779 L-8 779 C-40 779 -65 753 -65 721 L-65 637 C-65 605 -40 579 -8 579 L186 579 L186 448 C186 85 316 0 511 0 L697 0 C730 0 754 26 754 58 L754 192 C754 224 730 250 697 250 L561 250 Z " />
<glyph glyph-name="Umacron" unicode="&#x16a;" horiz-adv-x="1370" d="M1003 1917 C1003 1949 979 1975 946 1975 L335 1975 C303 1975 278 1949 278 1917 L278 1833 C278 1801 303 1775 335 1775 L946 1775 C979 1775 1003 1801 1003 1833 L1003 1917 Z M1033 1600 C1001 1600 975 1575 975 1543 L975 727 C975 252 883 251 685 250 C487 251 395 252 395 727 L395 1543 C395 1575 369 1600 337 1600 L183 1600 C151 1600 125 1575 125 1543 L125 703 C125 173 215 -10 685 -10 C1155 -10 1245 173 1245 706 L1245 1543 C1245 1575 1219 1600 1187 1600 L1033 1600 Z " />
<glyph glyph-name="umacron" unicode="&#x16b;" horiz-adv-x="1176" d="M900 1542 C900 1574 876 1600 843 1600 L232 1600 C200 1600 175 1574 175 1542 L175 1458 C175 1426 200 1400 232 1400 L843 1400 C876 1400 900 1426 900 1458 L900 1542 Z M453 -10 C555 -10 651 25 766 120 L766 57 C766 25 792 0 824 0 L968 0 C1000 0 1026 25 1026 57 L1026 1143 C1026 1176 1000 1200 968 1200 L824 1200 C792 1200 766 1176 766 1143 L766 400 C670 299 593 242 502 242 C398 242 385 321 385 571 L385 1143 C385 1176 359 1200 327 1200 L183 1200 C151 1200 125 1176 125 1143 L125 490 C125 168 222 -10 453 -10 L453 -10 Z " />
<glyph glyph-name="Uring" unicode="&#x16e;" horiz-adv-x="1370" d="M658 1481 C770 1481 861 1571 861 1683 C861 1795 770 1886 658 1886 C546 1886 456 1795 456 1683 C456 1571 546 1481 658 1481 L658 1481 Z M658 1601 C613 1601 576 1638 576 1683 C576 1729 613 1766 658 1766 C704 1766 741 1729 741 1683 C741 1638 704 1601 658 1601 L658 1601 Z M1033 1600 C1001 1600 975 1575 975 1543 L975 727 C975 252 883 251 685 250 C487 251 395 252 395 727 L395 1543 C395 1575 369 1600 337 1600 L183 1600 C151 1600 125 1575 125 1543 L125 703 C125 173 215 -10 685 -10 C1155 -10 1245 173 1245 706 L1245 1543 C1245 1575 1219 1600 1187 1600 L1033 1600 Z " />
<glyph glyph-name="uring" unicode="&#x16f;" horiz-adv-x="1176" d="M541 1275 C653 1275 744 1365 744 1477 C744 1589 653 1680 541 1680 C429 1680 339 1589 339 1477 C339 1365 429 1275 541 1275 L541 1275 Z M541 1395 C496 1395 459 1432 459 1477 C459 1523 496 1560 541 1560 C587 1560 624 1523 624 1477 C624 1432 587 1395 541 1395 L541 1395 Z M453 -10 C555 -10 651 25 766 120 L766 57 C766 25 792 0 824 0 L968 0 C1000 0 1026 25 1026 57 L1026 1143 C1026 1176 1000 1200 968 1200 L824 1200 C792 1200 766 1176 766 1143 L766 400 C670 299 593 242 502 242 C398 242 385 321 385 571 L385 1143 C385 1176 359 1200 327 1200 L183 1200 C151 1200 125 1176 125 1143 L125 490 C125 168 222 -10 453 -10 L453 -10 Z " />
<glyph glyph-name="Uhungarumlaut" unicode="&#x170;" horiz-adv-x="1370" d="M649 2050 C620 2062 587 2052 573 2023 L430 1719 C417 1690 430 1656 459 1643 C488 1628 511 1648 535 1670 L798 1917 C825 1943 800 1979 770 1993 L649 2050 Z M973 2050 C944 2062 911 2052 897 2023 L754 1719 C741 1690 754 1656 783 1643 C812 1628 835 1648 859 1670 L1122 1917 C1149 1943 1124 1979 1094 1993 L973 2050 Z M1033 1600 C1001 1600 975 1575 975 1543 L975 727 C975 252 883 251 685 250 C487 251 395 252 395 727 L395 1543 C395 1575 369 1600 337 1600 L183 1600 C151 1600 125 1575 125 1543 L125 703 C125 173 215 -10 685 -10 C1155 -10 1245 173 1245 706 L1245 1543 C1245 1575 1219 1600 1187 1600 L1033 1600 Z " />
<glyph glyph-name="uhungarumlaut" unicode="&#x171;" horiz-adv-x="1176" d="M541 1675 C512 1687 479 1677 465 1648 L322 1344 C309 1315 322 1281 351 1268 C380 1253 403 1273 427 1295 L690 1542 C717 1568 692 1604 662 1618 L541 1675 Z M865 1675 C836 1687 803 1677 789 1648 L646 1344 C633 1315 646 1281 675 1268 C704 1253 727 1273 751 1295 L1014 1542 C1041 1568 1016 1604 986 1618 L865 1675 Z M453 -10 C555 -10 651 25 766 120 L766 57 C766 25 792 0 824 0 L968 0 C1000 0 1026 25 1026 57 L1026 1143 C1026 1176 1000 1200 968 1200 L824 1200 C792 1200 766 1176 766 1143 L766 400 C670 299 593 242 502 242 C398 242 385 321 385 571 L385 1143 C385 1176 359 1200 327 1200 L183 1200 C151 1200 125 1176 125 1143 L125 490 C125 168 222 -10 453 -10 L453 -10 Z " />
<glyph glyph-name="Uogonek" unicode="&#x172;" horiz-adv-x="1370" d="M1033 1600 C1001 1600 975 1575 975 1543 L975 727 C975 252 883 251 685 250 C487 251 395 252 395 727 L395 1543 C395 1575 369 1600 337 1600 L183 1600 C151 1600 125 1575 125 1543 L125 703 C125 402 154 213 265 106 C137 49 100 -13 100 -103 C100 -243 191 -322 312 -322 C376 -322 424 -300 460 -265 C472 -254 478 -240 478 -225 C478 -211 472 -196 461 -184 L449 -171 C437 -158 421 -151 405 -151 C393 -151 381 -155 371 -165 C358 -180 342 -189 316 -189 C269 -189 231 -161 231 -115 C231 -64 277 -22 353 4 L350 47 C432 7 540 -10 685 -10 C1155 -10 1245 173 1245 706 L1245 1543 C1245 1575 1219 1600 1187 1600 L1033 1600 Z " />
<glyph glyph-name="uogonek" unicode="&#x173;" horiz-adv-x="1176" d="M1050 -171 C1038 -158 1022 -151 1006 -151 C994 -151 982 -155 972 -165 C959 -180 943 -189 917 -189 C870 -189 832 -161 832 -115 C832 -67 874 -26 943 0 L968 0 C1000 0 1026 25 1026 57 L1026 1143 C1026 1176 1000 1200 968 1200 L824 1200 C792 1200 766 1176 766 1143 L766 400 C670 299 593 242 502 242 C398 242 385 321 385 571 L385 1143 C385 1176 359 1200 327 1200 L183 1200 C151 1200 125 1176 125 1143 L125 490 C125 168 222 -10 453 -10 C555 -10 651 25 766 120 L766 57 C766 54 766 50 767 47 C718 5 701 -43 701 -103 C701 -243 792 -322 913 -322 C977 -322 1025 -300 1061 -265 C1073 -254 1079 -240 1079 -225 C1079 -211 1073 -196 1062 -184 L1050 -171 Z " />
<glyph glyph-name="Wcircumflex" unicode="&#x174;" horiz-adv-x="1760" d="M854 1789 L1121 1647 C1149 1632 1179 1625 1202 1648 C1225 1671 1225 1707 1203 1729 L894 2038 C883 2049 868 2055 854 2054 C840 2055 825 2049 814 2038 L505 1729 C483 1707 483 1671 506 1648 C529 1625 559 1632 587 1647 L854 1789 Z M1423 1600 C1391 1600 1365 1576 1365 1543 L1365 484 L1190 315 L1015 484 L1015 1543 C1015 1576 989 1600 957 1600 L803 1600 C771 1600 745 1576 745 1543 L745 484 L570 315 L395 484 L395 1543 C395 1576 369 1600 337 1600 L183 1600 C151 1600 125 1576 125 1543 L125 349 C125 334 128 319 141 309 L536 1 C548 -8 557 -10 570 -10 C583 -10 592 -9 604 1 L880 216 L1156 1 C1168 -8 1177 -10 1190 -10 C1203 -10 1212 -9 1224 1 L1619 309 C1632 319 1635 334 1635 349 L1635 1543 C1635 1576 1609 1600 1577 1600 L1423 1600 Z " />
<glyph glyph-name="wcircumflex" unicode="&#x175;" horiz-adv-x="1780" d="M850 1414 L1117 1272 C1145 1257 1175 1250 1198 1273 C1221 1296 1221 1332 1199 1354 L890 1663 C879 1674 864 1680 850 1679 C836 1680 821 1674 810 1663 L501 1354 C479 1332 479 1296 502 1273 C525 1250 555 1257 583 1272 L850 1414 Z M1433 1200 C1401 1200 1375 1176 1375 1143 L1375 484 L1200 315 L1025 484 L1025 1143 C1025 1176 999 1200 967 1200 L813 1200 C781 1200 755 1176 755 1143 L755 484 L580 315 L405 484 L405 1143 C405 1176 379 1200 347 1200 L193 1200 C161 1200 135 1176 135 1143 L135 349 C135 334 138 319 151 309 L546 1 C558 -8 567 -10 580 -10 C593 -10 602 -9 614 1 L890 216 L1166 1 C1178 -8 1187 -10 1200 -10 C1213 -10 1222 -9 1234 1 L1629 309 C1642 319 1645 334 1645 349 L1645 1143 C1645 1176 1619 1200 1587 1200 L1433 1200 Z " />
<glyph glyph-name="Ycircumflex" unicode="&#x176;" horiz-adv-x="1338" d="M639 1789 L906 1647 C934 1632 964 1625 987 1648 C1010 1671 1010 1707 988 1729 L679 2038 C668 2049 653 2055 639 2054 C625 2055 610 2049 599 2038 L290 1729 C268 1707 268 1671 291 1648 C314 1625 344 1632 372 1647 L639 1789 Z M996 1600 C964 1600 938 1576 938 1543 L938 986 L669 817 L400 986 L400 1543 C400 1576 374 1600 342 1600 L188 1600 C156 1600 130 1576 130 1543 L130 851 C130 836 133 819 146 811 L533 567 L533 57 C533 25 559 0 591 0 L745 0 C777 0 803 25 803 57 L803 566 L1192 811 C1205 819 1208 836 1208 851 L1208 1543 C1208 1576 1182 1600 1150 1600 L996 1600 Z " />
<glyph glyph-name="ycircumflex" unicode="&#x177;" horiz-adv-x="1149" d="M535 1414 L802 1272 C830 1257 860 1250 883 1273 C906 1296 906 1332 884 1354 L575 1663 C564 1674 549 1680 535 1679 C521 1680 506 1674 495 1663 L186 1354 C164 1332 164 1296 187 1273 C210 1250 240 1257 268 1272 L535 1414 Z M812 1200 C780 1200 754 1176 754 1143 L754 417 L577 273 L395 417 L395 1143 C395 1176 369 1200 337 1200 L193 1200 C161 1200 135 1176 135 1143 L135 332 C135 317 138 303 151 292 L369 105 L151 -72 C138 -82 135 -97 135 -112 L135 -343 C135 -376 161 -400 193 -400 L337 -400 C369 -400 395 -376 395 -343 L395 -216 L998 292 C1011 303 1014 317 1014 332 L1014 1143 C1014 1176 988 1200 956 1200 L812 1200 Z " />
<glyph glyph-name="Ydieresis" unicode="&#x178;" horiz-adv-x="1338" d="M346 1975 C313 1975 289 1949 289 1917 L289 1773 C289 1741 313 1715 346 1715 L492 1715 C525 1715 549 1741 549 1773 L549 1917 C549 1949 525 1975 492 1975 L346 1975 Z M781 1975 C748 1975 724 1949 724 1917 L724 1773 C724 1741 748 1715 781 1715 L927 1715 C960 1715 984 1741 984 1773 L984 1917 C984 1949 960 1975 927 1975 L781 1975 Z M996 1600 C964 1600 938 1576 938 1543 L938 986 L669 817 L400 986 L400 1543 C400 1576 374 1600 342 1600 L188 1600 C156 1600 130 1576 130 1543 L130 851 C130 836 133 819 146 811 L533 567 L533 57 C533 25 559 0 591 0 L745 0 C777 0 803 25 803 57 L803 566 L1192 811 C1205 819 1208 836 1208 851 L1208 1543 C1208 1576 1182 1600 1150 1600 L996 1600 Z " />
<glyph glyph-name="Zacute" unicode="&#x179;" horiz-adv-x="1270" d="M887 2028 C868 2054 834 2062 807 2043 L449 1792 C424 1775 417 1739 436 1713 C455 1686 485 1688 516 1697 L950 1838 C983 1849 981 1892 964 1918 L887 2028 Z M1170 1542 C1170 1574 1146 1600 1113 1600 L157 1600 C125 1600 100 1574 100 1542 L100 1408 C100 1376 125 1350 157 1350 L827 1350 L114 232 C106 220 100 207 100 192 L100 58 C100 26 125 0 157 0 L1113 0 C1146 0 1170 26 1170 58 L1170 192 C1170 224 1146 250 1113 250 L444 250 L1161 1376 C1167 1385 1170 1396 1170 1408 L1170 1542 Z " />
<glyph glyph-name="zacute" unicode="&#x17a;" horiz-adv-x="1005" d="M647 1653 C628 1679 594 1687 567 1668 L209 1417 C184 1400 177 1364 196 1338 C215 1311 245 1313 276 1322 L710 1463 C743 1474 741 1517 724 1543 L647 1653 Z M915 1142 C915 1174 891 1200 858 1200 L147 1200 C115 1200 90 1174 90 1142 L90 1008 C90 976 115 950 147 950 L572 950 L104 232 C96 219 90 207 90 192 L90 58 C90 26 115 0 147 0 L858 0 C891 0 915 26 915 58 L915 192 C915 224 891 250 858 250 L433 250 L906 976 C912 986 915 996 915 1008 L915 1142 Z " />
<glyph glyph-name="Zdotaccent" unicode="&#x17b;" horiz-adv-x="1270" d="M577 1975 C544 1975 520 1949 520 1917 L520 1773 C520 1741 544 1715 577 1715 L723 1715 C756 1715 780 1741 780 1773 L780 1917 C780 1949 756 1975 723 1975 L577 1975 Z M1170 1542 C1170 1574 1146 1600 1113 1600 L157 1600 C125 1600 100 1574 100 1542 L100 1408 C100 1376 125 1350 157 1350 L827 1350 L114 232 C106 220 100 207 100 192 L100 58 C100 26 125 0 157 0 L1113 0 C1146 0 1170 26 1170 58 L1170 192 C1170 224 1146 250 1113 250 L444 250 L1161 1376 C1167 1385 1170 1396 1170 1408 L1170 1542 Z " />
<glyph glyph-name="zdotaccent" unicode="&#x17c;" horiz-adv-x="1005" d="M417 1600 C384 1600 360 1574 360 1542 L360 1398 C360 1366 384 1340 417 1340 L563 1340 C596 1340 620 1366 620 1398 L620 1542 C620 1574 596 1600 563 1600 L417 1600 Z M915 1142 C915 1174 891 1200 858 1200 L147 1200 C115 1200 90 1174 90 1142 L90 1008 C90 976 115 950 147 950 L572 950 L104 232 C96 219 90 207 90 192 L90 58 C90 26 115 0 147 0 L858 0 C891 0 915 26 915 58 L915 192 C915 224 891 250 858 250 L433 250 L906 976 C912 986 915 996 915 1008 L915 1142 Z " />
<glyph glyph-name="Zcaron" unicode="&#x17d;" horiz-adv-x="1270" d="M623 1650 C634 1639 649 1633 663 1634 C677 1633 692 1639 703 1650 L1012 1959 C1034 1981 1034 2017 1011 2040 C988 2063 958 2056 930 2041 L663 1899 L396 2041 C368 2056 338 2063 315 2040 C292 2017 292 1981 314 1959 L623 1650 Z M1170 1542 C1170 1574 1146 1600 1113 1600 L157 1600 C125 1600 100 1574 100 1542 L100 1408 C100 1376 125 1350 157 1350 L827 1350 L114 232 C106 220 100 207 100 192 L100 58 C100 26 125 0 157 0 L1113 0 C1146 0 1170 26 1170 58 L1170 192 C1170 224 1146 250 1113 250 L444 250 L1161 1376 C1167 1385 1170 1396 1170 1408 L1170 1542 Z " />
<glyph glyph-name="zcaron" unicode="&#x17e;" horiz-adv-x="1005" d="M440 1275 C451 1264 466 1258 480 1259 C494 1258 509 1264 520 1275 L829 1584 C851 1606 851 1642 828 1665 C805 1688 775 1681 747 1666 L480 1524 L213 1666 C185 1681 155 1688 132 1665 C109 1642 109 1606 131 1584 L440 1275 Z M915 1142 C915 1174 891 1200 858 1200 L147 1200 C115 1200 90 1174 90 1142 L90 1008 C90 976 115 950 147 950 L572 950 L104 232 C96 219 90 207 90 192 L90 58 C90 26 115 0 147 0 L858 0 C891 0 915 26 915 58 L915 192 C915 224 891 250 858 250 L433 250 L906 976 C912 986 915 996 915 1008 L915 1142 Z " />
<glyph glyph-name="Scommaaccent" unicode="&#x218;" horiz-adv-x="1134" d="M1044 444 C1044 1002 370 833 370 1157 C370 1259 437 1350 639 1350 L955 1350 C988 1350 1012 1376 1012 1408 L1012 1542 C1012 1574 988 1600 955 1600 L651 1600 C170 1600 90 1348 90 1156 C90 597 764 761 764 442 C764 341 697 250 495 250 L166 250 C133 250 109 224 109 192 L109 58 C109 26 133 0 166 0 L483 0 C964 0 1044 252 1044 444 L1044 444 Z M506 -125 C473 -125 449 -151 449 -183 L449 -317 C449 -349 473 -375 506 -375 C539 -375 563 -401 563 -433 L563 -577 C563 -609 587 -635 620 -635 L652 -635 C685 -635 709 -609 709 -577 L709 -183 C709 -151 685 -125 652 -125 L506 -125 Z " />
<glyph glyph-name="scommaaccent" unicode="&#x219;" horiz-adv-x="956" d="M759 950 C798 950 827 981 827 1020 L827 1130 C827 1169 798 1200 759 1200 L530 1200 C142 1200 90 1028 90 883 C90 422 616 513 616 341 C616 262 507 250 435 250 L159 250 C119 250 90 219 90 180 L90 70 C90 31 119 0 159 0 L416 0 C785 0 866 197 866 351 C866 744 340 634 340 870 C340 940 387 950 550 950 L759 950 Z M441 -125 C408 -125 384 -151 384 -183 L384 -317 C384 -349 408 -375 441 -375 C474 -375 498 -401 498 -433 L498 -577 C498 -609 522 -635 555 -635 L587 -635 C620 -635 644 -609 644 -577 L644 -183 C644 -151 620 -125 587 -125 L441 -125 Z " />
<glyph glyph-name="uni021A" unicode="&#x21a;" horiz-adv-x="1290" d="M117 1600 C85 1600 60 1574 60 1542 L60 1408 C60 1376 85 1350 117 1350 L510 1350 L510 57 C510 24 536 0 568 0 L722 0 C754 0 780 24 780 57 L780 1350 L1173 1350 C1206 1350 1230 1376 1230 1408 L1230 1542 C1230 1574 1206 1600 1173 1600 L117 1600 Z M617 -125 C584 -125 560 -151 560 -183 L560 -317 C560 -349 584 -375 617 -375 C650 -375 674 -401 674 -433 L674 -577 C674 -609 698 -635 731 -635 L763 -635 C796 -635 820 -609 820 -577 L820 -183 C820 -151 796 -125 763 -125 L617 -125 Z " />
<glyph glyph-name="uni021B" unicode="&#x21b;" horiz-adv-x="804" d="M561 250 C468 250 446 326 446 505 L446 950 L598 950 C631 950 655 976 655 1008 L655 1142 C655 1174 631 1200 598 1200 L446 1200 L446 1443 C446 1476 420 1500 388 1500 L244 1500 C212 1500 186 1476 186 1443 L186 1200 L107 1200 C75 1200 50 1174 50 1142 L50 1008 C50 976 75 950 107 950 L186 950 L186 448 C186 85 316 0 511 0 L697 0 C730 0 754 26 754 58 L754 192 C754 224 730 250 697 250 L561 250 Z M394 -125 C361 -125 337 -151 337 -183 L337 -317 C337 -349 361 -375 394 -375 C427 -375 451 -401 451 -433 L451 -577 C451 -609 475 -635 508 -635 L540 -635 C573 -635 597 -609 597 -577 L597 -183 C597 -151 573 -125 540 -125 L394 -125 Z " />
<glyph glyph-name="circumflex" unicode="&#x2c6;" horiz-adv-x="930" d="M505 1663 C494 1674 479 1680 465 1679 C451 1680 436 1674 425 1663 L116 1354 C94 1332 94 1296 117 1273 C140 1250 170 1257 198 1272 L465 1414 L732 1272 C760 1257 790 1250 813 1273 C836 1296 836 1332 814 1354 L505 1663 Z " />
<glyph glyph-name="caron" unicode="&#x2c7;" horiz-adv-x="930" d="M813 1665 C790 1688 760 1681 732 1666 L465 1524 L198 1666 C170 1681 140 1688 117 1665 C94 1642 94 1606 116 1584 L425 1275 C436 1264 451 1258 465 1259 C479 1258 494 1264 505 1275 L814 1584 C836 1606 836 1642 813 1665 L813 1665 Z " />
<glyph glyph-name="breve" unicode="&#x2d8;" horiz-adv-x="1152" d="M894 1680 C793 1606 679 1562 576 1562 C473 1562 359 1606 258 1680 L160 1492 C290 1408 438 1362 576 1362 C714 1362 862 1408 992 1492 L894 1680 Z " />
<glyph glyph-name="dotaccent" unicode="&#x2d9;" horiz-adv-x="460" d="M157 1600 C124 1600 100 1574 100 1542 L100 1398 C100 1366 124 1340 157 1340 L303 1340 C336 1340 360 1366 360 1398 L360 1542 C360 1574 336 1600 303 1600 L157 1600 Z " />
<glyph glyph-name="ring" unicode="&#x2da;" horiz-adv-x="605" d="M302 1275 C414 1275 505 1365 505 1477 C505 1589 414 1680 302 1680 C190 1680 100 1589 100 1477 C100 1365 190 1275 302 1275 L302 1275 Z M302 1395 C257 1395 220 1432 220 1477 C220 1523 257 1560 302 1560 C348 1560 385 1523 385 1477 C385 1432 348 1395 302 1395 L302 1395 Z " />
<glyph glyph-name="ogonek" unicode="&#x2db;" horiz-adv-x="578" d="M449 -171 C437 -158 421 -151 405 -151 C393 -151 381 -155 371 -165 C358 -180 342 -189 316 -189 C269 -189 231 -161 231 -115 C231 -64 277 -22 353 4 L345 137 C152 71 100 3 100 -103 C100 -243 191 -322 312 -322 C376 -322 424 -300 460 -265 C472 -254 478 -240 478 -225 C478 -211 472 -196 461 -184 L449 -171 Z " />
<glyph glyph-name="tilde" unicode="&#x2dc;" horiz-adv-x="1078" d="M910 1570 C891 1600 857 1604 831 1587 L744 1531 C719 1515 695 1504 672 1504 C601 1504 543 1610 419 1610 C359 1610 262 1585 162 1518 L128 1495 C97 1475 93 1443 111 1416 L168 1328 C187 1298 221 1294 247 1311 L334 1367 C365 1387 389 1395 408 1395 C477 1395 526 1288 656 1288 C720 1288 816 1313 916 1380 L950 1403 C981 1423 985 1455 967 1482 L910 1570 Z " />
<glyph glyph-name="hungarumlaut" unicode="&#x2dd;" horiz-adv-x="909" d="M324 1675 C295 1687 262 1677 248 1648 L105 1344 C92 1315 105 1281 134 1268 C163 1253 186 1273 210 1295 L473 1542 C500 1568 475 1604 445 1618 L324 1675 Z M648 1675 C619 1687 586 1677 572 1648 L429 1344 C416 1315 429 1281 458 1268 C487 1253 510 1273 534 1295 L797 1542 C824 1568 799 1604 769 1618 L648 1675 Z " />
<glyph glyph-name="Wgrave" unicode="&#x1e80;" horiz-adv-x="1760" d="M607 1918 C590 1892 588 1849 621 1838 L1055 1697 C1086 1688 1116 1686 1135 1713 C1154 1739 1147 1775 1122 1792 L764 2043 C737 2062 703 2054 684 2028 L607 1918 Z M1423 1600 C1391 1600 1365 1576 1365 1543 L1365 484 L1190 315 L1015 484 L1015 1543 C1015 1576 989 1600 957 1600 L803 1600 C771 1600 745 1576 745 1543 L745 484 L570 315 L395 484 L395 1543 C395 1576 369 1600 337 1600 L183 1600 C151 1600 125 1576 125 1543 L125 349 C125 334 128 319 141 309 L536 1 C548 -8 557 -10 570 -10 C583 -10 592 -9 604 1 L880 216 L1156 1 C1168 -8 1177 -10 1190 -10 C1203 -10 1212 -9 1224 1 L1619 309 C1632 319 1635 334 1635 349 L1635 1543 C1635 1576 1609 1600 1577 1600 L1423 1600 Z " />
<glyph glyph-name="wgrave" unicode="&#x1e81;" horiz-adv-x="1780" d="M577 1543 C560 1517 558 1474 591 1463 L1025 1322 C1056 1313 1086 1311 1105 1338 C1124 1364 1117 1400 1092 1417 L734 1668 C707 1687 673 1679 654 1653 L577 1543 Z M1433 1200 C1401 1200 1375 1176 1375 1143 L1375 484 L1200 315 L1025 484 L1025 1143 C1025 1176 999 1200 967 1200 L813 1200 C781 1200 755 1176 755 1143 L755 484 L580 315 L405 484 L405 1143 C405 1176 379 1200 347 1200 L193 1200 C161 1200 135 1176 135 1143 L135 349 C135 334 138 319 151 309 L546 1 C558 -8 567 -10 580 -10 C593 -10 602 -9 614 1 L890 216 L1166 1 C1178 -8 1187 -10 1200 -10 C1213 -10 1222 -9 1234 1 L1629 309 C1642 319 1645 334 1645 349 L1645 1143 C1645 1176 1619 1200 1587 1200 L1433 1200 Z " />
<glyph glyph-name="Wacute" unicode="&#x1e82;" horiz-adv-x="1760" d="M1045 2028 C1026 2054 992 2062 965 2043 L607 1792 C582 1775 575 1739 594 1713 C613 1686 643 1688 674 1697 L1108 1838 C1141 1849 1139 1892 1122 1918 L1045 2028 Z M1423 1600 C1391 1600 1365 1576 1365 1543 L1365 484 L1190 315 L1015 484 L1015 1543 C1015 1576 989 1600 957 1600 L803 1600 C771 1600 745 1576 745 1543 L745 484 L570 315 L395 484 L395 1543 C395 1576 369 1600 337 1600 L183 1600 C151 1600 125 1576 125 1543 L125 349 C125 334 128 319 141 309 L536 1 C548 -8 557 -10 570 -10 C583 -10 592 -9 604 1 L880 216 L1156 1 C1168 -8 1177 -10 1190 -10 C1203 -10 1212 -9 1224 1 L1619 309 C1632 319 1635 334 1635 349 L1635 1543 C1635 1576 1609 1600 1577 1600 L1423 1600 Z " />
<glyph glyph-name="wacute" unicode="&#x1e83;" horiz-adv-x="1780" d="M1027 1653 C1008 1679 974 1687 947 1668 L589 1417 C564 1400 557 1364 576 1338 C595 1311 625 1313 656 1322 L1090 1463 C1123 1474 1121 1517 1104 1543 L1027 1653 Z M1433 1200 C1401 1200 1375 1176 1375 1143 L1375 484 L1200 315 L1025 484 L1025 1143 C1025 1176 999 1200 967 1200 L813 1200 C781 1200 755 1176 755 1143 L755 484 L580 315 L405 484 L405 1143 C405 1176 379 1200 347 1200 L193 1200 C161 1200 135 1176 135 1143 L135 349 C135 334 138 319 151 309 L546 1 C558 -8 567 -10 580 -10 C593 -10 602 -9 614 1 L890 216 L1166 1 C1178 -8 1187 -10 1200 -10 C1213 -10 1222 -9 1234 1 L1629 309 C1642 319 1645 334 1645 349 L1645 1143 C1645 1176 1619 1200 1587 1200 L1433 1200 Z " />
<glyph glyph-name="Wdieresis" unicode="&#x1e84;" horiz-adv-x="1760" d="M563 1975 C530 1975 506 1949 506 1917 L506 1773 C506 1741 530 1715 563 1715 L709 1715 C742 1715 766 1741 766 1773 L766 1917 C766 1949 742 1975 709 1975 L563 1975 Z M998 1975 C965 1975 941 1949 941 1917 L941 1773 C941 1741 965 1715 998 1715 L1144 1715 C1177 1715 1201 1741 1201 1773 L1201 1917 C1201 1949 1177 1975 1144 1975 L998 1975 Z M1423 1600 C1391 1600 1365 1576 1365 1543 L1365 484 L1190 315 L1015 484 L1015 1543 C1015 1576 989 1600 957 1600 L803 1600 C771 1600 745 1576 745 1543 L745 484 L570 315 L395 484 L395 1543 C395 1576 369 1600 337 1600 L183 1600 C151 1600 125 1576 125 1543 L125 349 C125 334 128 319 141 309 L536 1 C548 -8 557 -10 570 -10 C583 -10 592 -9 604 1 L880 216 L1156 1 C1168 -8 1177 -10 1190 -10 C1203 -10 1212 -9 1224 1 L1619 309 C1632 319 1635 334 1635 349 L1635 1543 C1635 1576 1609 1600 1577 1600 L1423 1600 Z " />
<glyph glyph-name="wdieresis" unicode="&#x1e85;" horiz-adv-x="1780" d="M568 1600 C535 1600 511 1574 511 1542 L511 1398 C511 1366 535 1340 568 1340 L714 1340 C747 1340 771 1366 771 1398 L771 1542 C771 1574 747 1600 714 1600 L568 1600 Z M1003 1600 C970 1600 946 1574 946 1542 L946 1398 C946 1366 970 1340 1003 1340 L1149 1340 C1182 1340 1206 1366 1206 1398 L1206 1542 C1206 1574 1182 1600 1149 1600 L1003 1600 Z M1433 1200 C1401 1200 1375 1176 1375 1143 L1375 484 L1200 315 L1025 484 L1025 1143 C1025 1176 999 1200 967 1200 L813 1200 C781 1200 755 1176 755 1143 L755 484 L580 315 L405 484 L405 1143 C405 1176 379 1200 347 1200 L193 1200 C161 1200 135 1176 135 1143 L135 349 C135 334 138 319 151 309 L546 1 C558 -8 567 -10 580 -10 C593 -10 602 -9 614 1 L890 216 L1166 1 C1178 -8 1187 -10 1200 -10 C1213 -10 1222 -9 1234 1 L1629 309 C1642 319 1645 334 1645 349 L1645 1143 C1645 1176 1619 1200 1587 1200 L1433 1200 Z " />
<glyph glyph-name="Ygrave" unicode="&#x1ef2;" horiz-adv-x="1338" d="M357 1918 C340 1892 338 1849 371 1838 L805 1697 C836 1688 866 1686 885 1713 C904 1739 897 1775 872 1792 L514 2043 C487 2062 453 2054 434 2028 L357 1918 Z M996 1600 C964 1600 938 1576 938 1543 L938 986 L669 817 L400 986 L400 1543 C400 1576 374 1600 342 1600 L188 1600 C156 1600 130 1576 130 1543 L130 851 C130 836 133 819 146 811 L533 567 L533 57 C533 25 559 0 591 0 L745 0 C777 0 803 25 803 57 L803 566 L1192 811 C1205 819 1208 836 1208 851 L1208 1543 C1208 1576 1182 1600 1150 1600 L996 1600 Z " />
<glyph glyph-name="ygrave" unicode="&#x1ef3;" horiz-adv-x="1149" d="M680 1322 C711 1313 741 1311 760 1338 C779 1364 772 1400 747 1417 L389 1668 C362 1687 328 1679 309 1653 L232 1543 C215 1517 213 1474 246 1463 L680 1322 Z M812 1200 C780 1200 754 1176 754 1143 L754 417 L577 273 L395 417 L395 1143 C395 1176 369 1200 337 1200 L193 1200 C161 1200 135 1176 135 1143 L135 332 C135 317 138 303 151 292 L369 105 L151 -72 C138 -82 135 -97 135 -112 L135 -343 C135 -376 161 -400 193 -400 L337 -400 C369 -400 395 -376 395 -343 L395 -216 L998 292 C1011 303 1014 317 1014 332 L1014 1143 C1014 1176 988 1200 956 1200 L812 1200 Z " />
<glyph glyph-name="endash" unicode="&#x2013;" horiz-adv-x="1293" d="M1193 566 C1193 598 1169 624 1136 624 L157 624 C125 624 100 598 100 566 L100 432 C100 400 125 374 157 374 L1136 374 C1169 374 1193 400 1193 432 L1193 566 Z " />
<glyph glyph-name="emdash" unicode="&#x2014;" horiz-adv-x="1990" d="M1890 566 C1890 598 1866 624 1833 624 L157 624 C125 624 100 598 100 566 L100 432 C100 400 125 374 157 374 L1833 374 C1866 374 1890 400 1890 432 L1890 566 Z " />
<glyph glyph-name="quoteleft" unicode="&#x2018;" horiz-adv-x="560" d="M353 1170 C386 1170 410 1196 410 1228 L410 1362 C410 1394 386 1420 353 1420 C320 1420 296 1446 296 1478 L296 1622 C296 1654 272 1680 239 1680 L207 1680 C174 1680 150 1654 150 1622 L150 1228 C150 1196 174 1170 207 1170 L353 1170 Z " />
<glyph glyph-name="quoteright" unicode="&#x2019;" horiz-adv-x="560" d="M207 1680 C174 1680 150 1654 150 1622 L150 1488 C150 1456 174 1430 207 1430 C240 1430 264 1404 264 1372 L264 1228 C264 1196 288 1170 321 1170 L353 1170 C386 1170 410 1196 410 1228 L410 1622 C410 1654 386 1680 353 1680 L207 1680 Z " />
<glyph glyph-name="quotesinglbase" unicode="&#x201a;" horiz-adv-x="560" d="M207 250 C174 250 150 224 150 192 L150 58 C150 26 174 0 207 0 C240 0 264 -26 264 -58 L264 -202 C264 -234 288 -260 321 -260 L353 -260 C386 -260 410 -234 410 -202 L410 192 C410 224 386 250 353 250 L207 250 Z " />
<glyph glyph-name="quotedblleft" unicode="&#x201c;" horiz-adv-x="970" d="M353 1170 C386 1170 410 1196 410 1228 L410 1362 C410 1394 386 1420 353 1420 C320 1420 296 1446 296 1478 L296 1622 C296 1654 272 1680 239 1680 L207 1680 C174 1680 150 1654 150 1622 L150 1228 C150 1196 174 1170 207 1170 L353 1170 Z M763 1170 C796 1170 820 1196 820 1228 L820 1362 C820 1394 796 1420 763 1420 C730 1420 706 1446 706 1478 L706 1622 C706 1654 682 1680 649 1680 L617 1680 C584 1680 560 1654 560 1622 L560 1228 C560 1196 584 1170 617 1170 L763 1170 Z " />
<glyph glyph-name="quotedblright" unicode="&#x201d;" horiz-adv-x="970" d="M207 1680 C174 1680 150 1654 150 1622 L150 1488 C150 1456 174 1430 207 1430 C240 1430 264 1404 264 1372 L264 1228 C264 1196 288 1170 321 1170 L353 1170 C386 1170 410 1196 410 1228 L410 1622 C410 1654 386 1680 353 1680 L207 1680 Z M617 1680 C584 1680 560 1654 560 1622 L560 1488 C560 1456 584 1430 617 1430 C650 1430 674 1404 674 1372 L674 1228 C674 1196 698 1170 731 1170 L763 1170 C796 1170 820 1196 820 1228 L820 1622 C820 1654 796 1680 763 1680 L617 1680 Z " />
<glyph glyph-name="quotedblbase" unicode="&#x201e;" horiz-adv-x="560" d="M207 250 C174 250 150 224 150 192 L150 58 C150 26 174 0 207 0 C240 0 264 -26 264 -58 L264 -202 C264 -234 288 -260 321 -260 L353 -260 C386 -260 410 -234 410 -202 L410 192 C410 224 386 250 353 250 L207 250 Z " />
<glyph glyph-name="dagger" unicode="&#x2020;" horiz-adv-x="1192" d="M726 1200 L726 1623 C726 1656 700 1680 668 1680 L524 1680 C492 1680 466 1656 466 1623 L466 1200 L107 1200 C75 1200 50 1174 50 1142 L50 1008 C50 976 75 950 107 950 L466 950 L466 -343 C466 -376 492 -400 524 -400 L668 -400 C700 -400 726 -376 726 -343 L726 950 L1085 950 C1118 950 1142 976 1142 1008 L1142 1142 C1142 1174 1118 1200 1085 1200 L726 1200 Z " />
<glyph glyph-name="daggerdbl" unicode="&#x2021;" horiz-adv-x="1192" d="M726 950 L1085 950 C1118 950 1142 976 1142 1008 L1142 1142 C1142 1174 1118 1200 1085 1200 L726 1200 L726 1623 C726 1656 700 1680 668 1680 L524 1680 C492 1680 466 1656 466 1623 L466 1200 L107 1200 C75 1200 50 1174 50 1142 L50 1008 C50 976 75 950 107 950 L466 950 L466 250 L107 250 C75 250 50 224 50 192 L50 58 C50 26 75 0 107 0 L466 0 L466 -343 C466 -376 492 -400 524 -400 L668 -400 C700 -400 726 -376 726 -343 L726 0 L1085 0 C1118 0 1142 26 1142 58 L1142 192 C1142 224 1118 250 1085 250 L726 250 L726 950 Z " />
<glyph glyph-name="bullet" unicode="&#x2022;" horiz-adv-x="827" d="M413 308 C586 308 727 448 727 621 C727 794 586 935 413 935 C240 935 100 794 100 621 C100 448 240 308 413 308 L413 308 Z " />
<glyph glyph-name="ellipsis" unicode="&#x2026;" horiz-adv-x="1600" d="M207 260 C174 260 150 234 150 202 L150 58 C150 26 174 0 207 0 L353 0 C386 0 410 26 410 58 L410 202 C410 234 386 260 353 260 L207 260 Z M727 260 C694 260 670 234 670 202 L670 58 C670 26 694 0 727 0 L873 0 C906 0 930 26 930 58 L930 202 C930 234 906 260 873 260 L727 260 Z M1247 260 C1214 260 1190 234 1190 202 L1190 58 C1190 26 1214 0 1247 0 L1393 0 C1426 0 1450 26 1450 58 L1450 202 C1450 234 1426 260 1393 260 L1247 260 Z " />
<glyph glyph-name="perthousand" unicode="&#x2030;" horiz-adv-x="2655" d="M814 1215 C814 1502 757 1610 456 1610 C154 1610 100 1501 100 1220 C100 928 159 805 461 805 C753 805 814 919 814 1215 L814 1215 Z M1300 1503 C1273 1521 1238 1516 1220 1489 L389 256 C370 229 379 195 405 177 L525 97 C551 79 586 84 604 111 L1435 1344 C1453 1371 1445 1405 1419 1423 L1300 1503 Z M587 1213 C587 1064 568 1044 459 1044 C350 1044 327 1065 327 1219 C327 1355 345 1371 456 1371 C569 1371 587 1354 587 1213 L587 1213 Z M1731 400 C1731 687 1674 795 1373 795 C1071 795 1017 687 1017 405 C1017 113 1076 -10 1378 -10 C1670 -10 1731 104 1731 400 L1731 400 Z M2555 400 C2555 687 2498 795 2197 795 C1895 795 1841 687 1841 405 C1841 113 1900 -10 2202 -10 C2494 -10 2555 104 2555 400 L2555 400 Z M1504 398 C1504 249 1485 229 1376 229 C1267 229 1244 250 1244 404 C1244 540 1262 556 1373 556 C1486 556 1504 539 1504 398 L1504 398 Z M2328 398 C2328 249 2309 229 2200 229 C2091 229 2068 250 2068 404 C2068 540 2086 556 2197 556 C2310 556 2328 539 2328 398 L2328 398 Z " />
<glyph glyph-name="guilsinglleft" unicode="&#x2039;" horiz-adv-x="744" d="M415 619 L632 897 C652 923 646 957 621 977 L508 1066 C482 1086 447 1083 427 1057 L112 654 C104 643 100 631 100 619 C100 607 104 595 112 584 L427 181 C447 155 482 152 508 172 L621 261 C646 281 652 315 632 341 L415 619 Z " />
<glyph glyph-name="guilsinglright" unicode="&#x203a;" horiz-adv-x="744" d="M317 1057 C297 1083 262 1086 236 1066 L123 977 C98 957 92 923 112 897 L329 619 L112 341 C92 315 98 281 123 261 L236 172 C262 152 297 155 317 181 L632 584 C640 595 644 607 644 619 C644 631 640 643 632 654 L317 1057 Z " />
<glyph glyph-name="fraction" unicode="&#x2044;" horiz-adv-x="1085" d="M872 1673 C843 1687 809 1677 795 1648 L56 135 C42 106 55 73 83 59 L213 -4 C242 -18 276 -8 290 21 L1029 1534 C1043 1563 1030 1596 1002 1610 L872 1673 Z " />
<glyph glyph-name="Euro" unicode="&#x20ac;" horiz-adv-x="1222" d="M1075 1350 C1108 1350 1132 1376 1132 1408 L1132 1542 C1132 1574 1108 1600 1075 1600 L676 1600 C333 1600 240 1385 240 1153 L240 1070 L118 1070 C78 1070 50 1039 50 1000 L50 940 C50 901 78 870 118 870 L240 870 L240 730 L118 730 C78 730 50 699 50 660 L50 600 C50 561 78 530 118 530 L240 530 L240 464 C240 232 333 0 676 0 L1075 0 C1108 0 1132 26 1132 58 L1132 192 C1132 224 1108 250 1075 250 L676 250 C516 250 510 359 510 464 L510 530 L846 530 C886 530 914 561 914 600 L914 660 C914 699 886 730 846 730 L510 730 L510 870 L846 870 C886 870 914 901 914 940 L914 1000 C914 1039 886 1070 846 1070 L510 1070 L510 1153 C510 1258 516 1350 676 1350 L1075 1350 Z " />
<glyph glyph-name="trademark" unicode="&#x2122;" horiz-adv-x="2058" d="M1703 1600 C1684 1603 1664 1597 1651 1580 L1412 1295 L1178 1574 C1175 1579 1170 1584 1165 1588 C1152 1599 1137 1602 1121 1600 L975 1600 C943 1600 917 1576 917 1543 L917 962 C917 929 943 905 975 905 L1129 905 C1161 905 1187 929 1187 962 L1187 1143 L1369 926 L1373 922 L1374 920 C1377 917 1380 915 1384 913 C1393 908 1402 905 1412 905 C1422 905 1431 908 1440 913 C1444 915 1447 917 1450 920 L1451 922 L1455 926 L1638 1144 L1638 962 C1638 929 1664 905 1696 905 L1850 905 C1882 905 1908 929 1908 962 L1908 1543 C1908 1576 1882 1600 1850 1600 L1703 1600 Z M117 1600 C85 1600 60 1574 60 1542 L60 1408 C60 1376 85 1350 117 1350 L317 1350 L317 962 C317 929 343 905 375 905 L529 905 C561 905 587 929 587 962 L587 1350 L787 1350 C820 1350 844 1376 844 1408 L844 1542 C844 1574 820 1600 787 1600 L117 1600 Z " />
<glyph glyph-name="minus" unicode="&#x2212;" horiz-adv-x="1100" d="M1000 667 C1000 699 976 725 943 725 L157 725 C125 725 100 699 100 667 L100 533 C100 501 125 475 157 475 L943 475 C976 475 1000 501 1000 533 L1000 667 Z " />
<glyph glyph-name="approxequal" unicode="&#x2248;" horiz-adv-x="1211" d="M979 977 C952 999 923 995 898 970 C857 931 809 896 765 896 C681 896 577 1024 421 1024 C287 1024 155 929 114 862 C95 831 93 803 121 781 L232 688 C259 666 288 670 313 695 C358 738 406 769 447 769 C533 769 634 636 789 636 C925 636 1057 738 1097 803 C1116 834 1118 862 1090 884 L979 977 Z M979 492 C952 514 923 510 898 485 C857 446 809 411 765 411 C681 411 577 539 421 539 C287 539 155 444 114 377 C95 346 93 318 121 296 L232 203 C259 181 288 185 313 210 C358 253 406 284 447 284 C533 284 634 151 789 151 C925 151 1057 253 1097 318 C1116 349 1118 377 1090 399 L979 492 Z " />
<glyph glyph-name="notequal" unicode="&#x2260;" horiz-adv-x="1100" d="M734 725 L943 725 C976 725 1000 751 1000 783 L1000 917 C1000 949 976 975 943 975 L825 975 L936 1280 C947 1311 931 1342 901 1353 L766 1402 C736 1413 703 1400 692 1369 L549 975 L157 975 C125 975 100 949 100 917 L100 783 C100 751 125 725 157 725 L458 725 L367 475 L157 475 C125 475 100 449 100 417 L100 283 C100 251 125 225 157 225 L276 225 L184 -28 C172 -59 189 -90 219 -101 L354 -150 C384 -161 417 -148 428 -117 L552 225 L943 225 C976 225 1000 251 1000 283 L1000 417 C1000 449 976 475 943 475 L643 475 L734 725 Z " />
<glyph glyph-name="lessequal" unicode="&#x2264;" horiz-adv-x="1100" d="M109 737 C114 730 120 724 129 719 L846 332 C873 317 908 326 924 353 L991 470 C1007 497 999 534 971 549 L567 768 L971 986 C999 1001 1007 1038 991 1065 L924 1182 C908 1209 873 1218 846 1203 L129 816 C120 811 114 805 109 798 L108 797 C103 788 100 778 100 768 C100 757 103 747 108 738 L109 737 Z M157 250 C124 250 100 224 100 192 L100 58 C100 26 124 0 157 0 L943 0 C975 0 1000 26 1000 58 L1000 192 C1000 224 975 250 943 250 L157 250 Z " />
<glyph glyph-name="greaterequal" unicode="&#x2265;" horiz-adv-x="1100" d="M176 353 C192 326 227 317 254 332 L971 719 C980 724 986 730 991 737 L992 738 C997 747 1000 757 1000 768 C1000 778 997 788 992 797 L991 798 C986 805 980 811 971 816 L254 1203 C227 1218 192 1209 176 1182 L109 1065 C93 1038 101 1001 129 986 L533 768 L129 549 C101 534 93 497 109 470 L176 353 Z M157 250 C125 250 100 224 100 192 L100 58 C100 26 125 0 157 0 L943 0 C976 0 1000 26 1000 58 L1000 192 C1000 224 976 250 943 250 L157 250 Z " />
</font>
</svg>
