<?xml version="1.0" encoding="UTF-8"?><svg xmlns="http://www.w3.org/2000/svg" xmlns:xlink="http://www.w3.org/1999/xlink"><symbol viewBox="-1 -1 26 26" id="add" xmlns="http://www.w3.org/2000/svg"><g stroke-linecap="round" fill="none" stroke-linejoin="round"><path d="M12 1v22M23 12H1"/></g></symbol><symbol viewBox="-1 -1 26 26" id="add-bold" xmlns="http://www.w3.org/2000/svg"><path d="M23.5 9.5a1 1 0 00-1-1h-7v-7a1 1 0 00-1-1h-5a1 1 0 00-1 1v7h-7a1 1 0 00-1 1v5a1 1 0 001 1h7v7a1 1 0 001 1h5a1 1 0 001-1v-7h7a1 1 0 001-1z" fill="none"/></symbol><symbol viewBox="-1 -1 26 26" id="alert-circle" xmlns="http://www.w3.org/2000/svg"><g stroke-linecap="round" fill="none" stroke-linejoin="round"><path d="M23 11.811c.015 6.113-4.888 11.1-11 11.189C6.015 23.09 1.09 18.312 1 12.327L1 12.192C.983 6.078 5.887 1.089 12 1 17.985.91 22.91 5.69 23 11.675l.001.136zM12 14.01v-7"/><path d="M11.991 16.005a.245.245 0 00-.241.255.254.254 0 00.253.245.246.246 0 00.241-.255.253.253 0 00-.244-.245h-.005"/></g></symbol><symbol viewBox="-1 -1 26 26" id="alert-diamond" xmlns="http://www.w3.org/2000/svg"><rect width="15.556" height="15.556" x="4.199" y="4.307" fill="none" rx=".552" ry="0" transform="rotate(-45 11.976 12.085)"/><g stroke-linecap="round" fill="none" stroke-linejoin="round"><path d="M12 14.11v-7M11.987 16.11a.245.245 0 00-.237.255.254.254 0 00.25.245h.009a.246.246 0 00.237-.255.253.253 0 00-.246-.245M12 16.11h-.009"/></g></symbol><symbol viewBox="-1 -1 26 26" id="alert-triangle" xmlns="http://www.w3.org/2000/svg"><g stroke-linecap="round" fill="none" stroke-linejoin="round"><path d="M22.553 22.581a.569.569 0 01-.553.894H2a.569.569 0 01-.553-.894L11.553 2.37c.246-.492.648-.492.894 0zM12 16.98v-7"/><path d="M11.991 18.979a.246.246 0 00-.241.255.255.255 0 00.254.245h.005a.246.246 0 00.241-.255.255.255 0 00-.25-.245h-.005"/></g></symbol><symbol viewBox="-1 -1 26 26" id="angle-brackets" xmlns="http://www.w3.org/2000/svg"><g stroke-linecap="round" fill="none" stroke-linejoin="round"><path d="M9 3.5l-7.793 7.791a1 1 0 000 1.414L9 20.5M15 3.5l7.793 7.793a1 1 0 010 1.414L15 20.5"/></g></symbol><symbol viewBox="-1 -1 26 26" id="arrange-letter" xmlns="http://www.w3.org/2000/svg"><g stroke-linecap="round" fill="none" stroke-linejoin="round"><path d="M5.5 4.5v15M2.5 16.498l3 3 3-3M20.4 23.5h-3.6a.5.5 0 01-.424-.765l4.044-6.47A.5.5 0 0020 15.5h-3.6M16.5 9.5v-6a2 2 0 114 0v6M16.5 5.5h4"/></g></symbol><symbol viewBox="-1 -1 26 26" id="arrange-number" xmlns="http://www.w3.org/2000/svg"><g stroke-linecap="round" fill="none" stroke-linejoin="round"><path d="M5.5 4.5v15M2.5 16.498l3 3 3-3M16 8.5h5M18.5 8.5V1a.5.5 0 00-.812-.39L16 1.958"/><circle cx="18" cy="17.998" r="2.5"/><path d="M20.5 18v2.5a3 3 0 01-3 3H17"/></g></symbol><symbol viewBox="-1 -1 26 26" id="arrow-button-circle-down" xmlns="http://www.w3.org/2000/svg"><g stroke-linecap="round" fill="none" stroke-linejoin="round"><path d="M6.427 8.245a.5.5 0 01.435-.745h10.276a.5.5 0 01.435.749l-5.139 9a.5.5 0 01-.868 0z"/><circle cx="12" cy="12" r="11.5"/></g></symbol><symbol viewBox="-1 -1 26 26" id="arrow-button-circle-left" xmlns="http://www.w3.org/2000/svg"><g stroke-linecap="round" fill="none" stroke-linejoin="round"><path d="M14.752 6.431a.5.5 0 01.748.434v10.277a.5.5 0 01-.748.434L5.76 12.438a.5.5 0 010-.868z"/><circle cx="12" cy="12" r="11.499"/></g></symbol><symbol viewBox="-1 -1 26 26" id="arrow-button-circle-right" xmlns="http://www.w3.org/2000/svg"><g stroke-linecap="round" fill="none" stroke-linejoin="round"><path d="M9.248 17.572a.5.5 0 01-.748-.434V6.862a.5.5 0 01.748-.434l8.992 5.138a.5.5 0 010 .868z"/><circle cx="12" cy="12" r="11.499"/></g></symbol><symbol viewBox="-1 -1 26 26" id="arrow-button-circle-up" xmlns="http://www.w3.org/2000/svg"><g stroke-linecap="round" fill="none" stroke-linejoin="round"><path d="M17.573 15.752a.5.5 0 01-.435.748H6.862a.5.5 0 01-.435-.748l5.139-8.992a.5.5 0 01.868 0z"/><circle cx="12" cy="12" r="11.5"/></g></symbol><symbol viewBox="-1 -1 26 26" id="arrow-button-down-1" xmlns="http://www.w3.org/2000/svg"><g stroke-linecap="round" fill="none" stroke-linejoin="round"><path d="M23.5.707L12.707 11.5a1 1 0 01-1.414 0L.5.707M23.5 12.207L12.707 23a1 1 0 01-1.414 0L.5 12.207"/></g></symbol><symbol viewBox="-1 -1 26 26" id="arrow-button-left-1" xmlns="http://www.w3.org/2000/svg"><g stroke-linecap="round" fill="none" stroke-linejoin="round"><path d="M23.4 23.5L12.6 12.707a1 1 0 010-1.414L23.4.5M11.9 23.5L1.1 12.707a1 1 0 010-1.414L11.9.5"/></g></symbol><symbol viewBox="-1 -1 26 26" id="arrow-button-right-1" xmlns="http://www.w3.org/2000/svg"><g stroke-linecap="round" fill="none" stroke-linejoin="round"><path d="M.8.5l10.792 10.793a1 1 0 010 1.414L.8 23.5M12.3.5l10.792 10.793a1 1 0 010 1.414L12.3 23.5"/></g></symbol><symbol viewBox="-1 -1 26 26" id="arrow-button-up-1" xmlns="http://www.w3.org/2000/svg"><g stroke-linecap="round" fill="none" stroke-linejoin="round"><path d="M.581 23.293L11.373 12.5a1 1 0 011.415 0l10.793 10.793M.581 11.793L11.373 1a1 1 0 011.415 0l10.793 10.793"/></g></symbol><symbol viewBox="-1 -1 26 26" id="arrow-down-1" xmlns="http://www.w3.org/2000/svg"><path d="M.541 5.627L11.666 18.2a.5.5 0 00.749 0L23.541 5.627" fill="none"/></symbol><symbol viewBox="-1 -1 26 26" id="arrow-left-1" xmlns="http://www.w3.org/2000/svg"><path d="M18.4.5L5.825 11.626a.5.5 0 000 .748L18.4 23.5" fill="none"/></symbol><symbol viewBox="-1 -1 26 26" id="arrow-right-1" xmlns="http://www.w3.org/2000/svg"><path d="M5.651 23.5l12.576-11.126a.5.5 0 000-.748L5.651.5" fill="none"/></symbol><symbol viewBox="-1 -1 26 26" id="arrow-thick-down-2" xmlns="http://www.w3.org/2000/svg"><path d="M12 .6a2 2 0 00-2 2v13l-5-5.2a2.111 2.111 0 00-2.975.074 2.112 2.112 0 00-.075 2.975l9.7 9.793a.5.5 0 00.707 0l9.721-9.623a2.161 2.161 0 00-3.049-3.049L14 15.6v-13a2 2 0 00-2-2z" fill="none"/></symbol><symbol viewBox="-1 -1 26 26" id="arrow-thick-left-2" xmlns="http://www.w3.org/2000/svg"><path d="M23.4 12a2 2 0 00-2-2h-13l5.2-5c.8-.846.763-2.178-.08-2.98a2.112 2.112 0 00-2.975-.075l-9.793 9.7a.5.5 0 000 .707l9.623 9.721a2.161 2.161 0 003.049-3.049L8.4 14h13a2 2 0 002-2z" fill="none"/></symbol><symbol viewBox="-1 -1 26 26" id="arrow-thick-right-2" xmlns="http://www.w3.org/2000/svg"><path d="M.6 12a2 2 0 002 2h13l-5.2 5a2.159 2.159 0 003.049 3.05l9.793-9.7a.5.5 0 000-.707l-9.613-9.715a2.1 2.1 0 00-2.952.1 2.091 2.091 0 00-.1 2.949L15.6 10h-13a2 2 0 00-2 2z" fill="none"/></symbol><symbol viewBox="-1 -1 26 26" id="arrow-thick-up-2" xmlns="http://www.w3.org/2000/svg"><path d="M12 23.4a2 2 0 002-2v-13l5 5.2a2.159 2.159 0 003.05-3.049L12.356.752a.5.5 0 00-.707 0l-9.721 9.619a2.1 2.1 0 00.1 2.952c.788.84 2.106.884 2.949.1L10 8.4v13a2 2 0 002 2z" fill="none"/></symbol><symbol viewBox="-1 -1 26 26" id="arrow-up-1" xmlns="http://www.w3.org/2000/svg"><path d="M23.535 18.373L12.409 5.8a.5.5 0 00-.749 0L.535 18.373" fill="none"/></symbol><symbol viewBox="-1 -1 26 26" id="attachment" xmlns="http://www.w3.org/2000/svg"><path d="M7.618 15.345l8.666-8.666a2.039 2.039 0 112.883 2.883L7.461 21.305a4.078 4.078 0 01-5.767-5.768L13.928 3.305a5.606 5.606 0 117.929 7.928L13.192 19.9" fill="none"/></symbol><symbol viewBox="-1 -1 26 26" id="bin-1" xmlns="http://www.w3.org/2000/svg"><g stroke-linecap="round" fill="none" stroke-linejoin="round"><path d="M21 4.5l-1.812 17.209A2 2 0 0117.2 23.5H6.8a2 2 0 01-1.989-1.791L3 4.5M.5 4.5h23M7.5 4.5v-3a1 1 0 011-1h7a1 1 0 011 1v3M12 9v10.5M16.5 9L16 19.5M7.5 9L8 19.5"/></g></symbol><symbol viewBox="-1 -1 26 26" id="binocular" xmlns="http://www.w3.org/2000/svg"><g stroke-linecap="round" fill="none" stroke-linejoin="round"><circle cx="5.5" cy="18.5" r="5"/><path d="M10.5 7V3c-.86-.75-2.14-.75-3 0L6 7 4.5 8.5l-3 7"/><circle cx="18.5" cy="18.5" r="5"/><path d="M13.5 7V3.063c.86-.75 2.14-.75 3 0L18 7l1.5 1.5 3 7M8 11c0-1.1 1.791-2 4-2s4 .895 4 2M10.5 18.5V9.15M13.5 18.5V9.15"/></g></symbol><symbol viewBox="-1 -1 26 26" id="calendar-3" xmlns="http://www.w3.org/2000/svg"><g stroke-linecap="round" fill="none" stroke-linejoin="round"><rect width="23" height="21" x=".5" y="2.501" rx=".552" ry="0"/><path d="M5.5.5v5M18.5.5v5M.5 7.5h23M12 7.5v16M6 7.5v16M18 7.5v16M.5 15.5h23M.5 11.5h23M.5 19.5h23"/></g></symbol><symbol viewBox="-1 -1 26 26" id="camera-1" xmlns="http://www.w3.org/2000/svg"><g stroke-linecap="round" fill="none" stroke-linejoin="round"><path d="M2.5 6.5l.028-1c.008-.538.434-.977.972-1h.944c.56.005 1.02.441 1.056 1v1"/><path d="M20.13 6.5a1 1 0 01-.906-.577C18.682 4.762 18.1 3.5 17 3.5h-5c-.931 0-1.4.834-2.7 2.592a1 1 0 01-.8.408h-6c-1.5 0-2 .679-2 1.723v10.388c0 1.043.5 1.889 2.056 1.889h18.888c1.556 0 2.056-.846 2.056-1.889V8.223c0-1.044-.5-1.723-2.056-1.723z"/><circle cx="14.5" cy="13" r="5.5"/><circle cx="14.5" cy="13" r="3"/><circle cx="4" cy="10" r="1.5"/></g></symbol><symbol viewBox="-1 -1 26 26" id="cell-border-full" xmlns="http://www.w3.org/2000/svg"><g stroke-linecap="round" fill="none" stroke-linejoin="round"><rect width="22" height="22" x="1" y=".999" rx=".552" ry="0"/><path d="M12 1v22M23 12H1"/></g></symbol><symbol viewBox="-1 -1 26 26" id="check" xmlns="http://www.w3.org/2000/svg"><path d="M.854 15.646a1.206 1.206 0 000 1.707l5.792 5.793a1.21 1.21 0 001.708 0L23.146 8.353a1.206 1.206 0 000-1.707l-2.292-2.293a1.207 1.207 0 00-1.708 0L7.5 16l-2.646-2.647a1.207 1.207 0 00-1.708 0z" fill="none"/></symbol><symbol viewBox="-1 -1 26 26" id="check-1" xmlns="http://www.w3.org/2000/svg"><path fill="none" d="M23.5.499l-16.5 23-6.5-6.5"/></symbol><symbol viewBox="-1 -1 26 26" id="cloud-download" xmlns="http://www.w3.org/2000/svg"><g stroke-linecap="round" fill="none" stroke-linejoin="round"><path d="M17.24 15.891h1.46s4.3-.561 4.3-4.783a4.773 4.773 0 00-4.955-4.773A6.685 6.685 0 005.324 8.794 3.586 3.586 0 001 12.3c0 3.645 3.826 3.588 3.826 3.588h1.906M12 21V11M9 18.391l3 3 3-3"/></g></symbol><symbol viewBox="-1 -1 26 26" id="cloud-upload" xmlns="http://www.w3.org/2000/svg"><g stroke-linecap="round" fill="none" stroke-linejoin="round"><path d="M16.3 15.891h2.4s4.3-.561 4.3-4.783a4.773 4.773 0 00-4.955-4.773A6.685 6.685 0 005.324 8.794 3.586 3.586 0 001 12.3c0 3.645 3.826 3.588 3.826 3.588h2.863M12 10.39v11"/><path d="M15 13.391l-3-3-3 3"/></g></symbol><symbol viewBox="-1 -1 26 26" id="cog" xmlns="http://www.w3.org/2000/svg"><g stroke-linecap="round" fill="none" stroke-linejoin="round"><path d="M20.254 13.5H22.5a1 1 0 001-1v-1a1 1 0 00-1-1h-2.247a11.8 11.8 0 00-1-2.922l1.589-1.588a1 1 0 000-1.414l-1.418-1.414a1 1 0 00-1.414 0l-1.59 1.589a11.769 11.769 0 00-2.92-1V1.5a1 1 0 00-1-1h-1a1 1 0 00-1 1v2.249c-1.013.204-1.995.54-2.921 1l-1.59-1.587a1 1 0 00-1.414 0L3.16 4.577a1 1 0 000 1.414L4.75 7.58c-.46.926-.796 1.908-1 2.921H1.5a1 1 0 00-1 1v1a1 1 0 001 1h2.246c.204 1.013.54 1.995 1 2.921l-1.59 1.59a1 1 0 000 1.414l1.419 1.414a1 1 0 001.414 0l1.589-1.59a11.8 11.8 0 002.922 1v2.25a1 1 0 001 1h1a1 1 0 001-1v-2.245a11.8 11.8 0 002.92-1l1.591 1.589a1 1 0 001.414 0l1.414-1.414a1 1 0 000-1.414l-1.589-1.59c.461-.927.799-1.91 1.004-2.926z"/><circle cx="12" cy="12.001" r="4.5"/></g></symbol><symbol viewBox="-1 -1 26 26" id="cog-double-1" xmlns="http://www.w3.org/2000/svg"><g stroke-linecap="round" fill="none" stroke-linejoin="round"><path d="M5.813 11.212a1.062 1.062 0 001.578 0l.51-.564a1.063 1.063 0 011.85.766l-.039.76a1.063 1.063 0 001.115 1.115l.76-.039a1.063 1.063 0 01.767 1.85l-.565.51a1.062 1.062 0 000 1.578l.565.51a1.063 1.063 0 01-.767 1.85l-.76-.039a1.063 1.063 0 00-1.115 1.115l.039.76a1.063 1.063 0 01-1.85.766l-.51-.564a1.062 1.062 0 00-1.578 0l-.51.564a1.063 1.063 0 01-1.85-.766l.039-.76a1.063 1.063 0 00-1.115-1.115l-.76.039A1.063 1.063 0 01.851 17.7l.564-.51a1.062 1.062 0 000-1.578L.851 15.1a1.063 1.063 0 01.766-1.85l.76.039a1.063 1.063 0 001.115-1.115l-.039-.76a1.063 1.063 0 011.85-.766z"/><circle cx="6.602" cy="16.399" r="2.441"/><path d="M18.187 12.79a1.062 1.062 0 00-1.578 0l-.51.565a1.063 1.063 0 01-1.85-.767l.039-.76a1.063 1.063 0 00-1.115-1.115l-.76.039a1.063 1.063 0 01-.767-1.85l.565-.51a1.062 1.062 0 000-1.578l-.565-.51a1.063 1.063 0 01.767-1.85l.76.039a1.063 1.063 0 001.115-1.115l-.039-.76a1.063 1.063 0 011.85-.766l.51.564a1.062 1.062 0 001.578 0l.51-.564a1.063 1.063 0 011.85.766l-.039.76a1.063 1.063 0 001.115 1.115l.76-.039a1.063 1.063 0 01.766 1.85l-.564.51a1.062 1.062 0 000 1.578l.564.51a1.063 1.063 0 01-.766 1.85l-.76-.039a1.063 1.063 0 00-1.115 1.115l.039.76a1.063 1.063 0 01-1.85.767z"/><circle cx="17.398" cy="7.603" r="2.441"/></g></symbol><symbol viewBox="-1 -1 26 26" id="common-file-dash" xmlns="http://www.w3.org/2000/svg"><g stroke-linecap="round" fill="none" stroke-linejoin="round"><path d="M3 17v2M3 13v2M3 9v2M21 17v2M21 13v2M21 9v2M3 5v2M7 1h2M11 1h2M7 23h2M11 23h2M15 23h2M3 21v1a1 1 0 001 1h1M21 21v1a1 1 0 01-1 1h-1M3 3V2a1 1 0 011-1h1M15 1h1l.5.5M20.5 5.5l.5.5v1.25M18.02 3L19 4"/></g></symbol><symbol viewBox="-1 -1 26 26" id="common-file-double" xmlns="http://www.w3.org/2000/svg"><g stroke-linecap="round" fill="none" stroke-linejoin="round"><path d="M17.086.5a1 1 0 01.707.293l3.414 3.414a1 1 0 01.293.707V19.5a1 1 0 01-1 1h-14a1 1 0 01-1-1v-18a1 1 0 011-1z"/><path d="M18.5 20.5v2a1 1 0 01-1 1h-14a1 1 0 01-1-1v-18a1 1 0 011-1h2"/></g></symbol><symbol viewBox="-1 -1 26 26" id="common-file-double-2" xmlns="http://www.w3.org/2000/svg"><g stroke-linecap="round" fill="none" stroke-linejoin="round"><path d="M2 6.4a.9.9 0 01.9-.9h9.178a1 1 0 01.717.3l2.922 3.006a1 1 0 01.283.7V22.6a.9.9 0 01-.9.9H2.9a.9.9 0 01-.9-.9z"/><path d="M8 5.5V1.4a.9.9 0 01.9-.9h9.178a1 1 0 01.722.3l2.922 3.006a1 1 0 01.283.7V17.6a.9.9 0 01-.9.9H16"/></g></symbol><symbol viewBox="-1 -1 26 26" id="common-file-download" xmlns="http://www.w3.org/2000/svg"><g stroke-linecap="round" fill="none" stroke-linejoin="round"><circle cx="17.5" cy="17.5" r="6"/><path d="M17.5 14.5v6M17.5 20.5l-2.25-2.25M17.5 20.5l2.25-2.25M10.5 23.5h-9a1 1 0 01-1-1v-21a1 1 0 011-1h13.293a1 1 0 01.707.293L19.207 4.5a1 1 0 01.293.707V8.5"/></g></symbol><symbol viewBox="-1 -1 26 26" id="common-file-empty" xmlns="http://www.w3.org/2000/svg"><path d="M21.207 4.5a1 1 0 01.293.707V22.5a1 1 0 01-1 1h-17a1 1 0 01-1-1v-21a1 1 0 011-1h13.293a1 1 0 01.707.293z" fill="none"/></symbol><symbol viewBox="-1 -1 26 26" id="common-file-module" xmlns="http://www.w3.org/2000/svg"><g stroke-linecap="round" fill="none" stroke-linejoin="round"><path d="M9.707 3.207a1 1 0 01.293.708V9.5a1 1 0 01-1 1H3a1 1 0 01-1-1v-8a1 1 0 011-1h3.586a1 1 0 01.707.293zM9.707 16.207a1 1 0 01.293.708V22.5a1 1 0 01-1 1H3a1 1 0 01-1-1v-8a1 1 0 011-1h3.586a1 1 0 01.707.293zM21.707 3.207a1 1 0 01.293.708V9.5a1 1 0 01-1 1h-6a1 1 0 01-1-1v-8a1 1 0 011-1h3.586a1 1 0 01.707.293zM21.707 16.207a1 1 0 01.293.708V22.5a1 1 0 01-1 1h-6a1 1 0 01-1-1v-8a1 1 0 011-1h3.586a1 1 0 01.707.293z"/></g></symbol><symbol viewBox="-1 -1 26 26" id="common-file-search" xmlns="http://www.w3.org/2000/svg"><g stroke-linecap="round" fill="none" stroke-linejoin="round"><circle cx="17.029" cy="17.029" r="4.529"/><path d="M23.5 23.5l-3.25-3.25M11.5 23.5h-10a1 1 0 01-1-1v-21a1 1 0 011-1h13.293a1 1 0 01.707.293L19.207 4.5a1 1 0 01.293.707V9.5"/></g></symbol><symbol viewBox="-1 -1 26 26" id="common-file-share" xmlns="http://www.w3.org/2000/svg"><g stroke-linecap="round" fill="none" stroke-linejoin="round"><circle cx="13.756" cy="18.25" r="2.25"/><circle cx="21.256" cy="21.25" r="2.25"/><circle cx="21.256" cy="13.75" r="2.25"/><path d="M15.68 17.09l3.65-2.19M15.84 19.08l3.33 1.34M11.506 23.5h-10a1 1 0 01-1-1v-21a1 1 0 011-1H14.8a1 1 0 01.707.293L19.213 4.5a1 1 0 01.293.707V8.5"/></g></symbol><symbol viewBox="-1 -1 26 26" id="compass-1" xmlns="http://www.w3.org/2000/svg"><g stroke-linecap="round" fill="none" stroke-linejoin="round"><circle cx="12" cy="12" r="11.5"/><path d="M14.968 13.641a2 2 0 01-1.077 1.077L7.213 17.5a.5.5 0 01-.662-.631L9.03 9.984a1.994 1.994 0 011.2-1.2L17.12 6.3a.5.5 0 01.631.662z"/><circle cx="12" cy="12" r="1.5"/><path d="M12 2.5v1M21.5 12h-1M18.72 18.72l-.71-.71M12 21.5v-1M2.5 12h1M5.28 5.28l.71.71"/></g></symbol><symbol viewBox="-1 -1 26 26" id="compass-arrow" xmlns="http://www.w3.org/2000/svg"><path d="M12.013 22.122a.5.5 0 01-.943-.231V12.93H2.109a.5.5 0 01-.231-.943L21.66 1.666a.5.5 0 01.674.674z" fill="none"/></symbol><symbol viewBox="-1 -1 26 26" id="copy-paste-1" xmlns="http://www.w3.org/2000/svg"><g stroke-linecap="round" fill="none" stroke-linejoin="round"><path d="M9.5 22.5h-8a1 1 0 01-1-1v-17a1 1 0 011-1h4M13.5 3.5h4a1 1 0 011 1V8"/><path d="M11.5 2.5a2 2 0 10-4 0h-2v3h8v-3zM22.5 22.5a1 1 0 01-1 1h-9a1 1 0 01-1-1V11a1 1 0 011-1h7.086a1 1 0 01.707.293l1.914 1.914a1 1 0 01.293.707zM14.5 14.5h5M14.5 17.5h5"/></g></symbol><symbol viewBox="-1 -1 26 26" id="cursor-hand-2" xmlns="http://www.w3.org/2000/svg"><g stroke-linecap="round" fill="none" stroke-linejoin="round"><path d="M11.5 5.5v-2a1.5 1.5 0 013 0v2M14.5 11.5v-6a1.5 1.5 0 013 0v3"/><path d="M17.5 13V8.5a1.5 1.5 0 013 0v10a5 5 0 01-5 5h-3.335a5.007 5.007 0 01-4.223-2.321C6.22 18.467 4.083 14 4.083 14a1.2 1.2 0 011.761-1.6L8.5 15.5v-10a1.5 1.5 0 013 0v6"/></g></symbol><symbol viewBox="-1 -1 26 26" id="cursor-target" xmlns="http://www.w3.org/2000/svg"><g stroke-linecap="round" fill="none" stroke-linejoin="round"><circle cx="12" cy="11.998" r="9"/><circle cx="12" cy="11.998" r="4.5"/><path d="M12 1v22M23 12H1"/></g></symbol><symbol viewBox="-1 -1 26 26" id="delete" xmlns="http://www.w3.org/2000/svg"><g stroke-linecap="round" fill="none" stroke-linejoin="round"><circle cx="12" cy="12" r="11.5"/><path d="M3.87 20.13L20.13 3.87"/></g></symbol><symbol viewBox="-1 -1 26 26" id="delete-2" xmlns="http://www.w3.org/2000/svg"><g stroke-linecap="round" fill="none" stroke-linejoin="round"><circle cx="12" cy="12" r="11.5"/><path d="M7 7l10 10M17 7L7 17"/></g></symbol><symbol viewBox="-1 -1 26 26" id="disable" xmlns="http://www.w3.org/2000/svg"><g stroke-linecap="round" fill="none" stroke-linejoin="round"><circle cx="12" cy="12" r="11.5"/><path d="M12 4.333a7.666 7.666 0 00-6.341 11.975l10.65-10.649A7.633 7.633 0 0012 4.333zM7.691 18.341a7.666 7.666 0 0010.65-10.65z"/></g></symbol><symbol viewBox="-1 -1 26 26" id="download-bottom" xmlns="http://www.w3.org/2000/svg"><g stroke-linecap="round" fill="none" stroke-linejoin="round"><path d="M23 18.218v1.913A2.87 2.87 0 0120.131 23H3.869A2.869 2.869 0 011 20.131v-1.913M12 18.11V1M19 11.108l-7 7-7-7"/></g></symbol><symbol viewBox="-1 -1 26 26" id="earth-2" xmlns="http://www.w3.org/2000/svg"><g stroke-linecap="round" fill="none" stroke-linejoin="round"><path d="M23.5 11.984c0 6.351-5.149 11.5-11.5 11.5S.5 18.335.5 11.984 5.649.484 12 .484s11.5 5.149 11.5 11.5z"/><path d="M20.147 3.869l-1.209 3.02a2 2 0 01-1.609 1.242L15.2 8.4a.5.5 0 00-.385.719l.546 1.091a.5.5 0 00.447.277h.382a.5.5 0 01.447.723l-1.585 3.171A.5.5 0 0015 14.6v2.446a2 2 0 01-.72 1.536l-1.9 1.58a.5.5 0 01-.7-.064l-1.53-1.836a2 2 0 01-.4-1.765l.209-.836a.5.5 0 00-.038-.345l-.779-1.557a.5.5 0 00-.447-.277h-1.7a2 2 0 01-1.916-1.423L4.412 9.87a.5.5 0 01.1-.469l1.726-2.024a2 2 0 011.913-.663l1.3.26c.033.006.066.01.1.01H13a.5.5 0 00.5-.5V5.338a2 2 0 00-1.257-1.857l-.283-.113a.5.5 0 01-.063-.9l2.779-1.59"/></g></symbol><symbol viewBox="-1 -1 26 26" id="earth-3" xmlns="http://www.w3.org/2000/svg"><g stroke-linecap="round" fill="none" stroke-linejoin="round"><path d="M23.5 11.941c.003 6.373-5.16 11.54-11.532 11.544C5.568 23.378.45 18.135.5 11.734.505 5.62 5.393.63 11.505.5c.166-.007.332-.01.5-.01A11.433 11.433 0 0123.5 11.941zM11.505.5c-6 6.5-6 14.98 0 22.98M12.505.5c6 6.5 6 14.977 0 22.977M2.39 5.48h19.13M.5 11.48h23M1.99 17.48h20.09"/></g></symbol><symbol viewBox="-1 -1 26 26" id="email-action-unread" xmlns="http://www.w3.org/2000/svg"><g stroke-linecap="round" fill="none" stroke-linejoin="round"><rect width="23" height="16" x=".5" y="3.954" rx="1.105" ry="0"/><path d="M22.911 4.536L12 13.454 1.089 4.536"/></g></symbol><symbol viewBox="-1 -1 26 26" id="file-code-1" xmlns="http://www.w3.org/2000/svg"><g stroke-linecap="round" fill="none" stroke-linejoin="round"><path d="M21.207 4.5a1 1 0 01.293.707V22.5a1 1 0 01-1 1h-17a1 1 0 01-1-1v-21a1 1 0 011-1h13.293a1 1 0 01.707.3z"/><path d="M10.5 8.5h-.594A1.3 1.3 0 008.5 9.789v1.241c-.018.458-.287.87-.7 1.07l-1.3.9 1.3.9c.413.2.682.611.7 1.07v1.24a1.3 1.3 0 001.406 1.29h.594M13.5 8.5h.592A1.3 1.3 0 0115.5 9.789v1.241c.018.458.287.87.7 1.07l1.3.9-1.3.9c-.413.2-.682.611-.7 1.07v1.24a1.3 1.3 0 01-1.408 1.29H13.5"/></g></symbol><symbol viewBox="-1 -1 26 26" id="folder-empty" xmlns="http://www.w3.org/2000/svg"><path d="M11.736 5a1 1 0 01-.894-.553l-.948-1.894A1 1 0 009 2H1.5a1 1 0 00-1 1v18a1 1 0 001 1h21a1 1 0 001-1V6a1 1 0 00-1-1z" fill="none"/></symbol><symbol viewBox="-1 -1 26 26" id="font-size" xmlns="http://www.w3.org/2000/svg"><g stroke-linecap="round" fill="none" stroke-linejoin="round"><path d="M15.979 21.725L9.453 2.612a.5.5 0 00-.946 0L2 21.725M4.38 14.73h9.21M.5 21.73h3.02M14.48 21.73h3.02M22.5 21.725L18.377 9.647a.5.5 0 00-.946 0l-1.888 5.543M16.92 16.73h3.87M21.52 21.73h1.98"/></g></symbol><symbol viewBox="-1 -1 26 26" id="gauge-dashboard" xmlns="http://www.w3.org/2000/svg"><g stroke-linecap="round" fill="none" stroke-linejoin="round"><circle cx="12" cy="14" r="1.5"/><path d="M13.06 12.94l4.95-4.95M2.5 14.5h2M21.5 14.5h-2M20.78 10.36l-1.85.77M15.64 5.22l-.77 1.85M12 4.5v2M8.36 5.22l.77 1.85M5.28 7.28L6.7 8.7M3.22 10.36l1.85.77M12 2.5C5.649 2.5.5 7.649.5 14v3.5a1 1 0 001 1h21a1 1 0 001-1V14c0-6.351-5.149-11.5-11.5-11.5z"/></g></symbol><symbol viewBox="-1 -1 26 26" id="gender-female" xmlns="http://www.w3.org/2000/svg"><g stroke-linecap="round" fill="none" stroke-linejoin="round"><circle cx="12" cy="7.5" r="7"/><path d="M12 14.5v9M9 20.5h6"/></g></symbol><symbol viewBox="-1 -1 26 26" id="gender-gay" xmlns="http://www.w3.org/2000/svg"><g stroke-linecap="round" fill="none" stroke-linejoin="round"><path d="M9.5 14.244a5.5 5.5 0 114 1.233M10.512 7.768A5.5 5.5 0 116.5 6.522M16.89 6.11L22.5.5M22.5 4.5v-4h-4M6.5 17.48v6.02M9.5 20.5l-3 3-3-3"/></g></symbol><symbol viewBox="-1 -1 26 26" id="gender-hetero" xmlns="http://www.w3.org/2000/svg"><g stroke-linecap="round" fill="none" stroke-linejoin="round"><path d="M9.5 14.244a5.5 5.5 0 114 1.233M10.512 7.768A5.5 5.5 0 116.5 6.522M17 6L22.5.5M22.5 4.5v-4h-4M6.5 17.5v6M4.5 21.5h4"/></g></symbol><symbol viewBox="-1 -1 26 26" id="gender-lesbian" xmlns="http://www.w3.org/2000/svg"><g stroke-linecap="round" fill="none" stroke-linejoin="round"><path d="M9.5 14.244a5.5 5.5 0 114 1.233M10.512 7.768A5.5 5.5 0 116.5 6.522M16.89 6.11L22.5.5M6.5 17.48v6.02M4.5 21.5h4M18.5.5l4 4"/></g></symbol><symbol viewBox="-1 -1 26 26" id="gender-male" xmlns="http://www.w3.org/2000/svg"><g stroke-linecap="round" fill="none" stroke-linejoin="round"><path d="M14.17 9.83L23.5.5"/><circle cx="8.5" cy="15.5" r="8"/><path d="M23.5 7.5v-7h-7"/></g></symbol><symbol viewBox="-1 -1 26 26" id="gender-transgender" xmlns="http://www.w3.org/2000/svg"><g stroke-linecap="round" fill="none" stroke-linejoin="round"><circle cx="12" cy="10.5" r="5.5"/><path d="M12 16v7M9 20h6M18 1h3.5v3.5M2.5 4.5V1H6M21.5 1L16 6.5M2.5 1L8 6.5M7.75 3.25L5 6"/></g></symbol><symbol viewBox="-1 -1 26 26" id="graph-stats" xmlns="http://www.w3.org/2000/svg"><path fill="none" d="M.5 12.001h6l3-10 3 19 3-14 2 5h6"/></symbol><symbol viewBox="-1 -1 26 26" id="hand-drag" xmlns="http://www.w3.org/2000/svg"><g stroke-linecap="round" fill="none" stroke-linejoin="round"><path d="M7.5 15.5v-9a1.5 1.5 0 013 0v5M10.5 6.5v-1a1.5 1.5 0 013 0v1M13.5 11.5v-5a1.5 1.5 0 013 0v2"/><path d="M16.5 12.5v-4a1.5 1.5 0 013 0v9a5 5 0 01-5 5h-3.335c-3.665 0-6.665-4-6.665-6v-4A1.5 1.5 0 016 11h1.5"/></g></symbol><symbol viewBox="-1 -1 26 26" id="hand-drag-1" xmlns="http://www.w3.org/2000/svg"><g stroke-linecap="round" fill="none" stroke-linejoin="round"><path d="M7.5 12.5V9a1.5 1.5 0 013 0v1M13.5 10V9a1.5 1.5 0 013 0v1M13.5 9V8a1.5 1.5 0 00-3 0v1"/><path d="M16.5 11.5V10a1.5 1.5 0 013 0v5.5a5 5 0 01-5 5h-3.335c-5.665 0-6.665-5-6.665-7v-1c0-.972.5-2 1.5-2h1.5"/></g></symbol><symbol viewBox="-1 -1 26 26" id="house-3" xmlns="http://www.w3.org/2000/svg"><g stroke-linecap="round" fill="none" stroke-linejoin="round"><path d="M3.5 10v12.5a1 1 0 001 1h15a1 1 0 001-1V10"/><path d="M.5 13L12 1.5 23.5 13M10 15.5h4a1 1 0 011 1v7H9v-7a1 1 0 011-1z"/><circle cx="12" cy="9.5" r="2"/></g></symbol><symbol viewBox="-1 -1 26 26" id="hyperlink-3" xmlns="http://www.w3.org/2000/svg"><g stroke-linecap="round" fill="none" stroke-linejoin="round"><path d="M12.47 18.105l-4.227 4.227a3.987 3.987 0 01-5.637 0l-.939-.939a3.985 3.985 0 010-5.635l6.106-6.107a3.987 3.987 0 015.637 0l.939.94"/><path d="M11.53 5.893l4.227-4.226a3.985 3.985 0 015.637 0l.939.938a3.985 3.985 0 010 5.635l-6.106 6.107a3.985 3.985 0 01-5.637 0l-.939-.94"/></g></symbol><symbol viewBox="-1 -1 26 26" id="ice-snowflake" xmlns="http://www.w3.org/2000/svg"><g stroke-linecap="round" fill="none" stroke-linejoin="round"><path d="M12 .5v23M2.04 6.25l19.92 11.5M2.04 17.75l19.92-11.5M9.501 2.5l2.5 2.5 2.5-2.5M2.522 9.415L5.938 8.5l-.916-3.415M5.022 18.916l.916-3.416-3.416-.914M14.501 21.501L12 19l-2.499 2.501M21.479 14.586l-3.418.915.918 3.415M18.979 5.085l-.917 3.417 3.417.913M10.5 7.5h3M7.35 11.05l1.5-2.6M8.85 15.55l-1.5-2.6M13.5 16.5h-3M16.65 12.95l-1.5 2.6M15.15 8.45l1.5 2.6"/></g></symbol><symbol viewBox="-1 -1 26 26" id="list-bullets" xmlns="http://www.w3.org/2000/svg"><g stroke-linecap="round" fill="none" stroke-linejoin="round"><circle cx="2.5" cy="4.498" r="2"/><path d="M8.5 4.5h15"/><circle cx="2.5" cy="12.498" r="2"/><path d="M8.5 12.5h15"/><circle cx="2.5" cy="20.498" r="2"/><path d="M8.5 20.5h15"/></g></symbol><symbol viewBox="-1 -1 26 26" id="list-numbers" xmlns="http://www.w3.org/2000/svg"><g stroke-linecap="round" fill="none" stroke-linejoin="round"><path d="M6.5 4.5h17M6.5 12.5h17M6.5 20.5h17M.5 19.239a1 1 0 11.966 1.261A1 1 0 11.5 21.767M.5 11.5a1 1 0 112 0c0 .324-.11.638-.312.891L.5 14.5h2M.5 2.5H1a.5.5 0 01.5.5v3.5M.5 6.5h2"/></g></symbol><symbol viewBox="-1 -1 26 26" id="location-target" xmlns="http://www.w3.org/2000/svg"><g stroke-linecap="round" fill="none" stroke-linejoin="round"><circle cx="12" cy="12" r="8"/><circle cx="12" cy="12" r="3.5"/><path d="M12 1v3M12 20v3M23 12h-3M4 12H1"/></g></symbol><symbol viewBox="-1 -1 26 26" id="location-target-1" xmlns="http://www.w3.org/2000/svg"><g stroke-linecap="round" fill="none" stroke-linejoin="round"><circle cx="12" cy="12" r="8"/><path d="M12 1v3M12 20v3M23 12.02h-3M4 12.02H1"/></g></symbol><symbol viewBox="-1 -1 26 26" id="location-user" xmlns="http://www.w3.org/2000/svg"><g stroke-linecap="round" fill="none" stroke-linejoin="round"><path d="M16.019 18.067c1.8.317 2.981.841 2.981 1.433 0 .967-3.135 1.75-7 1.75s-7-.783-7-1.75c0-.593 1.184-1.118 2.993-1.435"/><path d="M16 16c4.377.566 7.5 2.033 7.5 3.752 0 2.209-5.149 4-11.5 4S.5 21.959.5 19.75C.5 18.031 3.62 16.564 8 16"/></g><circle cx="12" cy="3.5" r="2.75" fill="none"/><path d="M15.5 10.75a3.5 3.5 0 10-7 0v3h1.583l.417 5h3l.417-5H15.5z" fill="none"/></symbol><symbol viewBox="-1 -1 26 26" id="login" xmlns="http://www.w3.org/2000/svg"><g stroke-linecap="round" fill="none" stroke-linejoin="round"><path d="M22.586 7.5c-2.485-5.845-9.238-8.568-15.083-6.083C1.658 3.902-1.065 10.655 1.42 16.5c2.485 5.845 9.238 8.568 15.083 6.083a11.5 11.5 0 006.083-6.083"/><path d="M11.5 8l-4 4 4 4M7.5 12h16"/></g></symbol><symbol viewBox="-1 -1 26 26" id="logout" xmlns="http://www.w3.org/2000/svg"><g stroke-linecap="round" fill="none" stroke-linejoin="round"><path d="M1.414 16.5c2.485 5.845 9.238 8.568 15.083 6.083 5.845-2.485 8.568-9.238 6.083-15.083-2.485-5.845-9.238-8.568-15.083-6.083A11.5 11.5 0 001.414 7.5"/><path d="M12.5 16l4-4-4-4M16.5 12H.5"/></g></symbol><symbol viewBox="-1 -1 26 26" id="love-it" xmlns="http://www.w3.org/2000/svg"><path d="M12 21.932L2.2 11.84a5.667 5.667 0 01-1.087-6.607A5.839 5.839 0 0110.4 3.746L12 5.205l1.6-1.459a5.84 5.84 0 019.287 1.487A5.669 5.669 0 0121.8 11.84z" fill="none"/></symbol><symbol viewBox="-1 -1 26 26" id="maps" xmlns="http://www.w3.org/2000/svg"><g stroke-linecap="round" fill="none" stroke-linejoin="round"><path d="M8.791 22.292a.5.5 0 01-.582 0l-6.5-4.642a.5.5 0 01-.209-.407V2.472a.5.5 0 01.791-.407L8.5 6.5l6.709-4.792a.5.5 0 01.582 0l6.5 4.642a.5.5 0 01.209.407v14.771a.5.5 0 01-.791.407L15.5 17.5zM8.5 6.5v15.89M15.5 17.5V1.61"/></g></symbol><symbol viewBox="-1 -1 26 26" id="meeting-camera" xmlns="http://www.w3.org/2000/svg"><g stroke-linecap="round" fill="none" stroke-linejoin="round"><rect width="15" height="13" x=".5" y="5.5" rx=".552" ry="0"/><path d="M23.5 17.5l-6-3v-5l6-3v11z"/></g></symbol><symbol viewBox="-1 -1 26 26" id="messages-bubble-square-warning" xmlns="http://www.w3.org/2000/svg"><g stroke-linecap="round" fill="none" stroke-linejoin="round"><path d="M23.565 17.5a1 1 0 01-1 1h-11l-4 4v-4h-6a1 1 0 01-1-1V2.482a1 1 0 011-1h21a1 1 0 011 1zM12.57 12V5"/><path d="M12.565 14.232a.25.25 0 11-.25.25.25.25 0 01.25-.25"/></g></symbol><symbol viewBox="-1 -1 26 26" id="navigation-menu" xmlns="http://www.w3.org/2000/svg"><g stroke-linecap="round" fill="none" stroke-linejoin="round"><path d="M21 7H3M21 12H3M21 17H3"/></g></symbol><symbol viewBox="-1 -1 26 26" id="navigation-menu-1" xmlns="http://www.w3.org/2000/svg"><g stroke-linecap="round" fill="none" stroke-linejoin="round"><path d="M20.5 6.5a1 1 0 01-1 1h-15a1 1 0 01-1-1v-1a1 1 0 011-1h15a1 1 0 011 1zM20.5 12.5a1 1 0 01-1 1h-15a1 1 0 01-1-1v-1a1 1 0 011-1h15a1 1 0 011 1zM20.5 18.5a1 1 0 01-1 1h-15a1 1 0 01-1-1v-1a1 1 0 011-1h15a1 1 0 011 1z"/></g></symbol><symbol viewBox="-1 -1 26 26" id="navigation-menu-3" xmlns="http://www.w3.org/2000/svg"><g stroke-linecap="round" fill="none" stroke-linejoin="round"><path d="M17.25 8H6.75M17.25 12H6.75M17.25 16H6.75"/><circle cx="12" cy="12" r="11.5"/></g></symbol><symbol viewBox="-1 -1 26 26" id="navigation-menu-4" xmlns="http://www.w3.org/2000/svg"><g stroke-linecap="round" fill="none" stroke-linejoin="round"><path d="M17.25 8H6.75M17.25 12H6.75M17.25 16H6.75"/><rect width="23" height="23" x=".5" y=".5" rx="1.105" ry="0"/></g></symbol><symbol viewBox="-1 -1 26 26" id="navigation-right-circle-1" xmlns="http://www.w3.org/2000/svg"><g stroke-linecap="round" fill="none" stroke-linejoin="round"><circle cx="12" cy="11.998" r="11"/><path d="M18 10H9a3 3 0 000 6h1.5"/><path d="M14.997 12.998l3-3-3-3"/></g></symbol><symbol viewBox="-1 -1 26 26" id="office-folder" xmlns="http://www.w3.org/2000/svg"><g stroke-linecap="round" fill="none" stroke-linejoin="round"><path d="M23.261 12.2a1 1 0 00-.982-1.2H10.42a1 1 0 01-.981-.8l-.278-1.4A1 1 0 008.18 8H1.72a1 1 0 00-.981 1.2l2.6 13a1 1 0 00.981.8h15.96a1 1 0 00.981-.8c.412-2.068 1.512-7.564 2-10zM4.5 6V2a1 1 0 011-1h13a1 1 0 011 1v7M7.5 4H16M11.5 7H16"/></g></symbol><symbol viewBox="-1 -1 26 26" id="paragraph-center-align" xmlns="http://www.w3.org/2000/svg"><g stroke-linecap="round" fill="none" stroke-linejoin="round"><path d="M.5 22.5h23M2.5 2.5h19M3.5 7.5h17M.5 12.5h23M4.5 17.5h15"/></g></symbol><symbol viewBox="-1 -1 26 26" id="paragraph-justified-align" xmlns="http://www.w3.org/2000/svg"><g stroke-linecap="round" fill="none" stroke-linejoin="round"><path d="M.5 22.5h17M.5 2.5h23M.5 7.5h23M.5 12.5h23M.5 17.5h23"/></g></symbol><symbol viewBox="-1 -1 26 26" id="paragraph-left-align" xmlns="http://www.w3.org/2000/svg"><g stroke-linecap="round" fill="none" stroke-linejoin="round"><path d="M.5 22.5h23M.5 2.5h20M.5 7.5h16M.5 12.5h23M.5 17.5h19"/></g></symbol><symbol viewBox="-1 -1 26 26" id="paragraph-right-align" xmlns="http://www.w3.org/2000/svg"><g stroke-linecap="round" fill="none" stroke-linejoin="round"><path d="M.5 22.5h23M4.5 2.5h19M7.5 7.5h16M.5 12.5h23M4.5 17.5h19"/></g></symbol><symbol viewBox="-1 -1 26 26" id="pencil" xmlns="http://www.w3.org/2000/svg"><path fill="none" d="M17.672 2.086l4.242 4.243-15.05 15.05-4.242-4.243z"/><g stroke-linecap="round" fill="none" stroke-linejoin="round"><path d="M2.621 17.136L.5 23.5l6.364-2.121-4.243-4.243zM21.914 6.328l-4.242-4.242.707-.707a3 3 0 014.242 4.242z"/></g></symbol><symbol viewBox="-1 -1 26 26" id="pin" xmlns="http://www.w3.org/2000/svg"><g stroke-linecap="round" fill="none" stroke-linejoin="round"><path d="M12 .71a7.5 7.5 0 017.5 7.5c0 3.547-5.5 12.381-7.079 14.85a.5.5 0 01-.842 0C10 20.592 4.5 11.757 4.5 8.21A7.5 7.5 0 0112 .71z"/><circle cx="12" cy="8.21" r="3"/></g></symbol><symbol viewBox="-1 -1 26 26" id="pin-2" xmlns="http://www.w3.org/2000/svg"><g stroke-linecap="round" fill="none" stroke-linejoin="round"><circle cx="12" cy="4.5" r="4"/><path d="M12 8.5v15"/></g></symbol><symbol viewBox="-1 -1 26 26" id="professional-network-linkedin" xmlns="http://www.w3.org/2000/svg"><path d="M6.5 22.5h-5v-13h5zm9-9a2 2 0 00-2 2v7h-5v-13h5v1.485a6.307 6.307 0 013.99-1.495c2.962 0 5.01 2.2 5.01 6.355V22.5h-5v-7a2 2 0 00-2-2zM6.5 5A2.5 2.5 0 114 2.5 2.5 2.5 0 016.5 5z" fill="none"/></symbol><symbol viewBox="-1 -1 26 26" id="redo" xmlns="http://www.w3.org/2000/svg"><g stroke-linecap="round" fill="none" stroke-linejoin="round"><path d="M22.5.498v7h-7"/><path d="M22.5 7.5C18.743 2.333 11.528 1.153 6.321 4.853 1.15 8.548-.047 15.736 3.648 20.907c.711.995 1.576 1.87 2.563 2.593"/></g></symbol><symbol viewBox="-1 -1 26 26" id="remove" xmlns="http://www.w3.org/2000/svg"><g stroke-linecap="round" fill="none" stroke-linejoin="round"><path d="M23.5.5l-23 23M23.5 23.5L.5.5"/></g></symbol><symbol viewBox="-1 -1 26 26" id="remove-bold" xmlns="http://www.w3.org/2000/svg"><path d="M7.5 12l-6.293 6.293a1 1 0 000 1.414l3.086 3.086a1 1 0 001.414 0L12 16.5l6.293 6.293a1 1 0 001.414 0l3.086-3.086a1 1 0 000-1.414L16.5 12l6.293-6.293a1 1 0 000-1.414l-3.086-3.086a1 1 0 00-1.414 0L12 7.5 5.707 1.207a1 1 0 00-1.414 0L1.207 4.293a1 1 0 000 1.414z" fill="none"/></symbol><symbol viewBox="-1 -1 26 26" id="scissors-2" xmlns="http://www.w3.org/2000/svg"><g stroke-linecap="round" fill="none" stroke-linejoin="round"><circle cx="4" cy="5.999" r="3.5"/><path d="M11.148 10.731L23.5 18.086a2.214 2.214 0 01-2.905.75L4.654 9.438"/><circle cx="4" cy="17.999" r="3.5"/><path d="M13.279 12L23.5 5.913a2.213 2.213 0 00-2.905-.75L4.654 14.56"/></g></symbol><symbol viewBox="-1 -1 26 26" id="settings-horizontal" xmlns="http://www.w3.org/2000/svg"><g stroke-linecap="round" fill="none" stroke-linejoin="round"><rect width="23" height="23" x=".5" y=".501" rx=".552" ry="0"/><circle cx="12" cy="5.501" r="2"/><path d="M14 5.5h6.52M3.52 5.5H10"/><circle cx="8" cy="12.001" r="2"/><path d="M10 12h10.52M3.52 12H6"/><circle cx="10" cy="18.501" r="2"/><path d="M12 18.5h8.52M3.52 18.5H8"/></g></symbol><symbol viewBox="-1 -1 26 26" id="settings-vertical" xmlns="http://www.w3.org/2000/svg"><g stroke-linecap="round" fill="none" stroke-linejoin="round"><rect width="23" height="23" x=".5" y=".5" rx=".552" ry="0"/><path d="M12 13V4.5M12 19.5V17"/><circle cx="12" cy="15" r="2"/><path d="M6.5 12v7.5M6.5 4.5V8"/><circle cx="6.5" cy="10" r="2"/><path d="M17.5 12v7.5M17.5 4.5V8"/><circle cx="17.5" cy="10" r="2"/></g></symbol><symbol viewBox="-1 -1 26 26" id="shopping-cart-empty-1" xmlns="http://www.w3.org/2000/svg"><g stroke-linecap="round" fill="none" stroke-linejoin="round"><path d="M3.707 5.5h18.638a1 1 0 01.965 1.263l-2.053 7.526a3 3 0 01-2.894 2.211H6.023"/><path d="M.654.5h.378a2 2 0 011.957 1.588L6.32 17.912A2 2 0 008.277 19.5h11.377"/><circle cx="7.654" cy="22" r="1.5"/><circle cx="17.654" cy="22" r="1.5"/></g></symbol><symbol viewBox="-1 -1 26 26" id="single-neutral" xmlns="http://www.w3.org/2000/svg"><g stroke-linecap="round" fill="none" stroke-linejoin="round"><circle cx="12" cy="6.75" r="5.5"/><path d="M3 22.75a9 9 0 0118 0z"/></g></symbol><symbol viewBox="-1 -1 26 26" id="social-instagram" xmlns="http://www.w3.org/2000/svg"><g stroke-linecap="round" fill="none" stroke-linejoin="round"><rect width="23" height="23" x=".5" y=".5" rx="3.314" ry="0"/><circle cx="12" cy="12" r="6"/><circle cx="19" cy="5" r="1.5"/></g></symbol><symbol viewBox="-1 -1 26 26" id="social-media-facebook" xmlns="http://www.w3.org/2000/svg"><path d="M17.768 7.5H13.5V5.6a.972.972 0 011.012-1.1c.418 0 2.988.01 2.988.01V.5h-4.329C9.244.5 8.5 3.474 8.5 5.355V7.5h-3v4h3v12h5v-12h3.851z" fill="none"/></symbol><symbol viewBox="-1 -1 26 26" id="social-media-google-plus-1" xmlns="http://www.w3.org/2000/svg"><g stroke-linecap="round" fill="none" stroke-linejoin="round"><path d="M13.5 6.55A7.75 7.75 0 108.25 20c5.25 0 7.25-3.75 7.25-7.75 0-.253-.012-.503-.035-.749H8.5v2h4.812A4.721 4.721 0 018.25 18a5.75 5.75 0 113.775-10.087zM23.5 11.5h-2v-2h-2v2h-2v2h2v2h2v-2h2v-2z"/></g></symbol><symbol viewBox="-1 -1 26 26" id="social-media-meetup-alternate" xmlns="http://www.w3.org/2000/svg"><g stroke-linecap="round" fill="none" stroke-linejoin="round"><path d="M23.243 9.567a.25.25 0 010 .5.25.25 0 010-.5M11.656 19.738c-.285.238-.61.424-.96.55a3.587 3.587 0 01-4.71-2.4 5.48 5.48 0 01-.127-.744c-.025-.194.008-.149-.171-.19a3.153 3.153 0 01-2.423-2.044 3.253 3.253 0 01.779-3.59.139.139 0 00.024-.2 3.1 3.1 0 011.191-4.265 2.79 2.79 0 01.948-.319.218.218 0 00.193-.148 4.624 4.624 0 016.715-2.178c.06.04.134.047.2.021a4.113 4.113 0 014.526 1.312c.627.78.939 1.767.875 2.766a.133.133 0 00.11.162 2.252 2.252 0 011.33 3.086 2.206 2.206 0 01-.546.74.1.1 0 00-.022.149 3.912 3.912 0 01-3.427 5.93.106.106 0 00-.123.095c-.114.419-.33.803-.628 1.118a2.6 2.6 0 01-1.59.814 2.83 2.83 0 01-2.164-.665zM18.161 20.03a1 1 0 11-1 1 .993.993 0 011-1M1.209 10.067a.749.749 0 11-.751.744.743.743 0 01.751-.744M13.447 1.169a.75.75 0 11-.741.757.751.751 0 01.741-.757M20.677 6.077a.75.75 0 11-.749.75.75.75 0 01.749-.75M4.986 4.166a.505.505 0 01.5.5.511.511 0 01-.507.5.5.5 0 01.007-1M12.08 21.919a.5.5 0 010 1 .5.5 0 010-1M22.3 12.415a.491.491 0 01.5.5.5.5 0 01-1 0 .5.5 0 01.5-.5M7.493 1.079a.247.247 0 01.25.246.25.25 0 11-.25-.246M4.042 18.531a.247.247 0 01.247.249.25.25 0 01-.5 0 .247.247 0 01.253-.249"/><path d="M16.361 16.018a.559.559 0 00-.067-1.026 1.156 1.156 0 00-.171-.051c-.232-.042-.465-.075-.7-.122a.608.608 0 01-.577-.747c.02-.278.076-.552.165-.816.2-.564.442-1.116.667-1.673.241-.593.492-1.182.72-1.78.127-.299.162-.63.1-.948a1.188 1.188 0 00-.738-.968 1.839 1.839 0 00-1.6.092.317.317 0 01-.449-.052c-.123-.112-.239-.232-.372-.331a.931.931 0 00-.323-.167 1.13 1.13 0 00-1.065.231c-.1.084-.191.174-.293.255a3.057 3.057 0 01-.33.237.443.443 0 01-.439.007c-.281-.135-.565-.265-.848-.4-.24-.12-.51-.16-.774-.117a1.845 1.845 0 00-1.421.979c-.182.358-.335.73-.458 1.113a288.41 288.41 0 00-1.28 4.074 1.366 1.366 0 00.351 1.443 1.59 1.59 0 001.257.442c.433-.014.82-.27 1.005-.662.046-.081.086-.165.121-.251.511-1.278 1.69-4.134 1.69-4.134s-.524 1.246-.754 1.837c-.155.4-.211.48-.368.875a1.146 1.146 0 00.916 1.4c.6.111 1.201-.188 1.474-.734.045-.1 1.272-2.766 1.729-3.659 0 0-.62 1.415-1.131 2.454-1.292 2.481 1.743 4.247 3.963 3.199z"/></g></symbol><symbol viewBox="-1 -1 26 26" id="social-media-snapchat" xmlns="http://www.w3.org/2000/svg"><path d="M22.065 17.711a.828.828 0 00.111-1.552 15.056 15.056 0 01-2.757-1.654 1.334 1.334 0 01.091-2.189l1.206-.765A1.333 1.333 0 0019.287 9.3L18 10.116V7A6 6 0 106 7v3.116L4.713 9.3a1.333 1.333 0 00-1.429 2.251l1.206.765a1.334 1.334 0 01.091 2.189 15.056 15.056 0 01-2.757 1.654.828.828 0 00.111 1.552l1.969.4a.82.82 0 01.57.988 1.282 1.282 0 001.455 1.575l.626-.1a2.845 2.845 0 012.481.8A4.7 4.7 0 0012 23a4.7 4.7 0 002.964-1.63 2.845 2.845 0 012.481-.8l.626.1a1.282 1.282 0 001.455-1.57.82.82 0 01.57-.988z" fill="none"/></symbol><symbol viewBox="-1 -1 26 26" id="social-media-twitter" xmlns="http://www.w3.org/2000/svg"><path d="M23 6.628l-2-.5 1-2-2.464.7A4.48 4.48 0 0012 8.128v1c-3.539.73-6.634-1.2-9.5-4.5-.5 2.667 0 4.667 1.5 6l-3-.5c.405 2.069 1.362 3.7 4 4l-2.5 1c1 2 2.566 2.31 5 2.5a10.748 10.748 0 01-6.5 2c12.755 5.669 20-2.664 20-10V8.3z" fill="none"/></symbol><symbol viewBox="-1 -1 26 26" id="social-media-yammer" xmlns="http://www.w3.org/2000/svg"><path d="M13.112 4.327L8.105 17.09c-.967 2.445-1.725 4.969-4.912 5.025a4.128 4.128 0 01-1.782-.226 1.092 1.092 0 010-1.842c.257-.15.56-.204.852-.15 2.239.15 2.808-1.253 3.472-3.035L.652 4.327a1.178 1.178 0 01.569-1.708 1.268 1.268 0 011.764.854c1.328 3.32 2.712 6.79 4 10.127.038.057.114.077.152 0L8.3 10.49c.872-2.275 1.8-4.57 2.617-6.883a1.188 1.188 0 011.194-.93c.178-.01.355.03.512.114a1.129 1.129 0 01.494 1.536zM14 9.068c.532-.607 4.666-3.925 5.5-4.117a1.164 1.164 0 011.1 1.993 30.274 30.274 0 01-6.2 2.673c-.208.06-.512.1-.588-.018-.094-.151.057-.38.19-.531zm8.648 2.351c.49.136.835.573.854 1.081v.02c-.01.515-.358.962-.854 1.1a24.317 24.317 0 01-6.2-.625c-.512-.152-.854-.266-.873-.475.019-.208.361-.341.873-.474a22.737 22.737 0 016.2-.626zm-8.838 4.116c.076-.132.38-.076.588-.039.892.172 5.652 2.106 6.2 2.694a1.164 1.164 0 01-1.1 1.992c-.834-.19-4.969-3.528-5.5-4.115-.133-.173-.284-.381-.19-.532z" fill="none"/></symbol><symbol viewBox="-1 -1 26 26" id="subtract" xmlns="http://www.w3.org/2000/svg"><path fill="none" d="M23.5 12H.5"/></symbol><symbol viewBox="-1 -1 26 26" id="subtract-bold" xmlns="http://www.w3.org/2000/svg"><rect width="23" height="7" x=".5" y="8.5" rx=".552" ry="0" fill="none"/></symbol><symbol viewBox="-1 -1 26 26" id="synchronize-arrow-1" xmlns="http://www.w3.org/2000/svg"><g stroke-linecap="round" fill="none" stroke-linejoin="round"><path d="M.5 8.992l3 4.5 3.5-4"/><path d="M13 21.5A9.5 9.5 0 103.5 12v1.494"/></g></symbol><symbol viewBox="-1 -1 26 26" id="synchronize-arrows-1" xmlns="http://www.w3.org/2000/svg"><g stroke-linecap="round" fill="none" stroke-linejoin="round"><path d="M.714 10.353l2.787 4.15 3.205-3.838M23.286 14.655l-2.785-4.152-3.207 3.839"/><path d="M20.464 10.54a8.622 8.622 0 01-6.51 9.729 8.493 8.493 0 01-7.931-2.224M3.505 14.479a8.853 8.853 0 016.538-10.753 8.493 8.493 0 018.324 2.642"/></g></symbol><symbol viewBox="-1 -1 26 26" id="text-bar" xmlns="http://www.w3.org/2000/svg"><g stroke-linecap="round" fill="none" stroke-linejoin="round"><path d="M12 4.5v15M6.5.5H8a4 4 0 014 4 4 4 0 014-4h1.5M6.5 23.5H8a4 4 0 004-4 4 4 0 004 4h1.5M9.5 15.5h5"/></g></symbol><symbol viewBox="-1 -1 26 26" id="text-bold" xmlns="http://www.w3.org/2000/svg"><g stroke-linecap="round" fill="none" stroke-linejoin="round"><path d="M6.5.5v23M6.5 11.5H13a5.5 5.5 0 100-11H3.5"/><path d="M13 11.5h1.5a6 6 0 110 12h-11"/></g></symbol><symbol viewBox="-1 -1 26 26" id="text-format" xmlns="http://www.w3.org/2000/svg"><g stroke-linecap="round" fill="none" stroke-linejoin="round"><path d="M21.5 5.5v13M5.5 2.5h13M2.5 18.5v-13M18.5 21.5h-13"/><rect width="3" height="3" x=".5" y=".498" rx=".276" ry="0"/><rect width="3" height="3" x="20.5" y=".498" rx=".276" ry="0"/><rect width="3" height="3" x=".5" y="20.498" rx=".276" ry="0"/><rect width="3" height="3" x="20.5" y="20.498" rx=".276" ry="0"/><path d="M7 8.5V7a.5.5 0 01.5-.5h9a.5.5 0 01.5.5v1.5M12 6.5v12M10.5 18.5h3"/></g></symbol><symbol viewBox="-1 -1 26 26" id="text-italic" xmlns="http://www.w3.org/2000/svg"><g stroke-linecap="round" fill="none" stroke-linejoin="round"><path d="M19.5.5l-15 23M.5 23.5h8M15.5.5h8"/></g></symbol><symbol viewBox="-1 -1 26 26" id="text-strike-through-1" xmlns="http://www.w3.org/2000/svg"><g stroke-linecap="round" fill="none" stroke-linejoin="round"><path d="M3 3.5v-2a1 1 0 011-1h16a1 1 0 011 1v2M12 14.5v9M12 .5v10M8.5 23.5h7M3.03 12.5H21"/></g></symbol><symbol viewBox="-1 -1 26 26" id="text-style" xmlns="http://www.w3.org/2000/svg"><g stroke-linecap="round" fill="none" stroke-linejoin="round"><path d="M3 3.5v-2a1 1 0 011-1h16a1 1 0 011 1v2M12 .5v23M8.5 23.5h7"/></g></symbol><symbol viewBox="-1 -1 26 26" id="text-underline" xmlns="http://www.w3.org/2000/svg"><g stroke-linecap="round" fill="none" stroke-linejoin="round"><path d="M.5 23.5h23M4.5.5V12a7.5 7.5 0 0015 0V.5M1.5.5h6M16.5.5h6"/></g></symbol><symbol viewBox="-1 -1 26 26" id="time-clock-circle" xmlns="http://www.w3.org/2000/svg"><g stroke-linecap="round" fill="none" stroke-linejoin="round"><circle cx="11.999" cy="12.001" r="11.5"/><path d="M12 6.501v5.5l6 5.5"/></g></symbol><symbol viewBox="-1 -1 26 26" id="undo" xmlns="http://www.w3.org/2000/svg"><g stroke-linecap="round" fill="none" stroke-linejoin="round"><path d="M1.5.498v7h7"/><path d="M1.5 7.5c3.757-5.167 10.972-6.347 16.179-2.647 5.17 3.696 6.366 10.884 2.67 16.054a11.508 11.508 0 01-2.56 2.591"/></g></symbol><symbol viewBox="-1 -1 26 26" id="upload-bottom" xmlns="http://www.w3.org/2000/svg"><g stroke-linecap="round" fill="none" stroke-linejoin="round"><path d="M23 18.218v1.913A2.87 2.87 0 0120.131 23H3.869A2.869 2.869 0 011 20.131v-1.913M12 1v17.11M5 8l7-7 7 7"/></g></symbol><symbol viewBox="-1 -1 26 26" id="view-1" xmlns="http://www.w3.org/2000/svg"><g stroke-linecap="round" fill="none" stroke-linejoin="round"><circle cx="12" cy="12" r="3.5"/><path d="M23.376 11.672C22.213 10.352 17.562 5.5 12 5.5 6.438 5.5 1.787 10.352.624 11.672a.5.5 0 000 .656C1.787 13.648 6.438 18.5 12 18.5c5.562 0 10.213-4.852 11.376-6.172a.5.5 0 000-.656z"/></g></symbol><symbol viewBox="-1 -1 26 26" id="view-off" xmlns="http://www.w3.org/2000/svg"><g stroke-linecap="round" fill="none" stroke-linejoin="round"><path d="M19.518 8.288A22.111 22.111 0 0123.5 12s-5.148 6.5-11.5 6.5a10.3 10.3 0 01-3-.464M4.468 15.7A22.105 22.105 0 01.5 12S5.648 5.5 12 5.5c.844.004 1.684.113 2.5.325M8 12a4 4 0 014-4M16 12a4 4 0 01-4 4M21.75 2.25l-19.5 19.5"/></g></symbol><symbol viewBox="-1 -1 26 26" id="volume-control-down" xmlns="http://www.w3.org/2000/svg"><g stroke-linecap="round" fill="none" stroke-linejoin="round"><path d="M23.5 12h-8M5.5 9H2a1.5 1.5 0 00-1.5 1.5v3A1.5 1.5 0 002 15h3.5l6.146 6.146a.5.5 0 00.854-.353V3.207a.5.5 0 00-.854-.353z"/></g></symbol><symbol viewBox="-1 -1 26 26" id="volume-control-full" xmlns="http://www.w3.org/2000/svg"><g stroke-linecap="round" fill="none" stroke-linejoin="round"><path d="M5.5 9H2a1.5 1.5 0 00-1.5 1.5v3A1.5 1.5 0 002 15h3.5l6.147 6.146a.5.5 0 00.853-.353V3.207a.5.5 0 00-.853-.353zM20 4c4.418 4.083 4.69 10.975.607 15.393-.194.21-.397.413-.607.607M17.5 6a7.535 7.535 0 010 12M15.5 8.5c2.677 1.947 2.669 5.06 0 7"/></g></symbol><symbol viewBox="-1 -1 26 26" id="volume-control-low" xmlns="http://www.w3.org/2000/svg"><g stroke-linecap="round" fill="none" stroke-linejoin="round"><path d="M5.5 9H2a1.5 1.5 0 00-1.5 1.5v3A1.5 1.5 0 002 15h3.5l6.147 6.146a.5.5 0 00.853-.353V3.207a.5.5 0 00-.853-.353zM15.5 8.5c2.677 1.947 2.669 5.06 0 7"/></g></symbol><symbol viewBox="-1 -1 26 26" id="volume-control-medium" xmlns="http://www.w3.org/2000/svg"><g stroke-linecap="round" fill="none" stroke-linejoin="round"><path d="M7.011 9h-3.5a1.5 1.5 0 00-1.5 1.5v3a1.5 1.5 0 001.5 1.5h3.5l6.147 6.146a.5.5 0 00.853-.353V3.207a.5.5 0 00-.853-.353zM19.011 6a7.535 7.535 0 010 12M17.011 8.5c2.678 1.947 2.669 5.06 0 7"/></g></symbol><symbol viewBox="-1 -1 26 26" id="volume-control-off" xmlns="http://www.w3.org/2000/svg"><g stroke-linecap="round" fill="none" stroke-linejoin="round"><path d="M9 18.5l2.647 2.646a.5.5 0 00.853-.353V13.5M12.5 7.5V3.207a.5.5 0 00-.853-.353L5.5 9H2a1.5 1.5 0 00-1.5 1.5v3A1.5 1.5 0 002 15h2.5M15.5 12a2.5 2.5 0 01-2.5 2.5h-.5M1.5 22l20-20"/></g></symbol><symbol viewBox="-1 -1 26 26" id="volume-control-up" xmlns="http://www.w3.org/2000/svg"><g stroke-linecap="round" fill="none" stroke-linejoin="round"><path d="M19.5 8v8M23.5 12h-8M5.5 9H2a1.5 1.5 0 00-1.5 1.5v3A1.5 1.5 0 002 15h3.5l6.146 6.146a.5.5 0 00.854-.353V3.207a.5.5 0 00-.854-.353z"/></g></symbol><symbol viewBox="-1 -1 26 26" id="weather-cloud-1" xmlns="http://www.w3.org/2000/svg"><path d="M21.306 12.126A3.5 3.5 0 0017.657 7.5 6 6 0 006 9.485a5.515 5.515 0 000 11.03h13a4.516 4.516 0 002.306-8.389z" fill="none"/></symbol><symbol viewBox="-1 -1 26 26" id="weather-cloud-heavy-rain" xmlns="http://www.w3.org/2000/svg"><g stroke-linecap="round" fill="none" stroke-linejoin="round"><path d="M1.5 23.5l5-5M5.5 22.5l4-4M7.5 23.5l5-5M11.5 22.5l4-4M13.5 23.5l5-5M20.752 8.193a3 3 0 00-3.123-4.168 5.5 5.5 0 00-10.606 1.5A5 5 0 007.5 15.5h11a4 4 0 002.252-7.307z"/></g></symbol><symbol viewBox="-1 -1 26 26" id="weather-cloud-rainbow" xmlns="http://www.w3.org/2000/svg"><g stroke-linecap="round" fill="none" stroke-linejoin="round"><path d="M18.743 16.225a3 3 0 00-3.122-4.169 5.5 5.5 0 00-10.6 1.5 4.981 4.981 0 00.471 9.944h11a3.977 3.977 0 002.251-7.271zM11.424 6.924A15.48 15.48 0 0123.492.5M15.494 8.248a11.474 11.474 0 018.014-3.742M18.689 10.693a7.467 7.467 0 014.819-2.181"/></g></symbol><symbol viewBox="-1 -1 26 26" id="weather-sun" xmlns="http://www.w3.org/2000/svg"><g stroke-linecap="round" fill="none" stroke-linejoin="round"><path d="M19 12a7 7 0 00-14 0 7 7 0 0014 0zM12 21v2M21 12h2M12 3V1M3 12H1M5.64 18.36l-1.42 1.42M18.36 18.36l1.42 1.42M18.36 5.64l1.42-1.42M5.64 5.64L4.22 4.22"/></g></symbol><symbol viewBox="-1 -1 26 26" id="wench-1" xmlns="http://www.w3.org/2000/svg"><path d="M23.021 2.978L20.5 5.5h-2v-2L21.021.978a4.5 4.5 0 00-6.328 5.328l-8.386 8.387a4.5 4.5 0 00-5.328 6.328L3.5 18.5h2v2l-2.521 2.521a4.5 4.5 0 006.328-5.328l8.386-8.387a4.5 4.5 0 005.328-6.328z" fill="none"/></symbol><symbol viewBox="-1 -1 26 26" id="zip-file" xmlns="http://www.w3.org/2000/svg"><g stroke-linecap="round" fill="none" stroke-linejoin="round"><path d="M21.207 4.5a1 1 0 01.293.707V22.5a1 1 0 01-1 1h-17a1 1 0 01-1-1v-21a1 1 0 011-1h13.293a1 1 0 01.707.293z"/><path d="M9.755 8a.25.25 0 11-.25-.25.25.25 0 01.25.25M9.755 10.5a.25.25 0 11-.25-.25.25.25 0 01.25.25M9.755 13a.25.25 0 11-.25-.25.25.25 0 01.25.25M9.745 15.5a.25.25 0 11-.25-.25.249.249 0 01.25.25M9.745 18.021a.25.25 0 11-.25-.25.249.249 0 01.25.25M9.745 20.562a.25.25 0 11-.25-.25.249.249 0 01.25.25M10.989 4.111c.052.42-.078.844-.357 1.163-.278.317-.679.5-1.1.5H9.47c-.421 0-.822-.183-1.1-.5-.28-.32-.41-.742-.357-1.163L8.37.5h2.13z"/></g></symbol><symbol viewBox="-1 -1 26 26" id="zip-file-download" xmlns="http://www.w3.org/2000/svg"><g stroke-linecap="round" fill="none" stroke-linejoin="round"><path d="M9.489 23.5H1.5a1 1 0 01-1-1v-21a1 1 0 011-1h13.293a1 1 0 01.707.293L19.207 4.5a1 1 0 01.293.707L19.489 8.5"/><path d="M7.255 8a.25.25 0 11.25.25.249.249 0 01-.25-.25M7.255 10.5a.25.25 0 11.25.25.249.249 0 01-.25-.25M7.255 13a.25.25 0 11.25.25.249.249 0 01-.25-.25M7.245 15.5a.25.25 0 11.25.25.25.25 0 01-.25-.25M7.245 18.021a.25.25 0 11.25.25.25.25 0 01-.25-.25M7.245 20.562a.25.25 0 11.25.25.25.25 0 01-.25-.25M8.989 4.111c.052.42-.078.844-.357 1.163-.278.317-.679.5-1.1.5H7.47c-.421 0-.822-.183-1.1-.5-.28-.32-.41-.742-.357-1.163L6.37.5H8.5z"/><circle cx="17.5" cy="17.5" r="6"/><path d="M17.5 14.5v6M17.5 20.5l-2.25-2.25M17.5 20.5l2.25-2.25"/></g></symbol><symbol viewBox="-1 -1 26 26" id="zoom-in" xmlns="http://www.w3.org/2000/svg"><g stroke-linecap="round" fill="none" stroke-linejoin="round"><circle cx="8.5" cy="8.499" r="8"/><path d="M14.17 14.17l9.33 9.33M5 8.5h7M8.5 5v7"/></g></symbol><symbol viewBox="-1 -1 26 26" id="zoom-out" xmlns="http://www.w3.org/2000/svg"><g stroke-linecap="round" fill="none" stroke-linejoin="round"><circle cx="8.5" cy="8.499" r="8"/><path d="M14.16 14.15l9.34 9.35M5 8.5h7"/></g></symbol></svg>