<svg width="0" height="0" style="position:absolute"><symbol id="add" viewBox="0 0 15 15" xml:space="preserve" xmlns="http://www.w3.org/2000/svg"><style>.aast0{fill:none;stroke:#000;stroke-width:.85;stroke-linecap:round;stroke-linejoin:round}</style><path class="aast0" d="M7.5.5v14M14.5 7.5H.5"/></symbol><symbol id="alarm-bell" viewBox="0 0 15 15" xml:space="preserve" xmlns="http://www.w3.org/2000/svg"><style>.abst0{fill:none;stroke:#000;stroke-width:.85;stroke-linecap:round;stroke-linejoin:round}</style><path class="abst0" d="M12.7 10.8v-4c0-2.2-1.3-4.1-3.4-4.8C9.1 1 8.2.4 7.2.5c-.8.2-1.4.8-1.5 1.5-2 .8-3.4 2.7-3.4 4.8v4c0 1-.8 1.8-1.8 1.8h14c-1 .1-1.8-.7-1.8-1.8zM9.3 12.7c0 1-.8 1.8-1.8 1.8s-1.8-.8-1.8-1.8"/></symbol><symbol id="alert-triangle" viewBox="0 0 15 15" xml:space="preserve" xmlns="http://www.w3.org/2000/svg"><style>.acst0{fill:none;stroke:#000;stroke-width:.85;stroke-linecap:round;stroke-linejoin:round}</style><path class="acst0" d="M14.4 13.9c.1.2.1.4-.1.5-.1.1-.2.1-.3.1H1c-.2 0-.4-.1-.4-.3 0-.1 0-.2.1-.3L7.3.7c.2-.3.4-.3.6 0l6.5 13.2zM7.5 10.3V5.7"/><path class="acst0" d="M7.5 11.6c-.1 0-.2.1-.2.2s.1.2.2.2.2-.1.2-.2c0-.2-.1-.2-.2-.2"/></symbol><symbol id="arrow-down-1" viewBox="0 0 15 15" xml:space="preserve" xmlns="http://www.w3.org/2000/svg"><style>.adst0{fill:none;stroke:#000;stroke-width:.85;stroke-linecap:round;stroke-linejoin:round}</style><path class="adst0" d="M.5 3.6l6.8 7.7c.1.1.3.1.4 0l6.8-7.7"/></symbol><symbol id="arrow-left-1" viewBox="0 0 15 15" xml:space="preserve" xmlns="http://www.w3.org/2000/svg"><style>.aest0{fill:none;stroke:#000;stroke-width:.85;stroke-linecap:round;stroke-linejoin:round}</style><path class="aest0" d="M11.4.5L3.7 7.3c-.1.1-.1.3 0 .4l7.7 6.8"/></symbol><symbol id="arrow-right-1" viewBox="0 0 15 15" xml:space="preserve" xmlns="http://www.w3.org/2000/svg"><style>.afst0{fill:none;stroke:#000;stroke-width:.85;stroke-linecap:round;stroke-linejoin:round}</style><path class="afst0" d="M3.6 14.5l7.7-6.8c.1-.1.1-.3 0-.4L3.6.5"/></symbol><symbol id="arrow-thick-down-3" viewBox="0 0 15 15" xml:space="preserve" xmlns="http://www.w3.org/2000/svg"><style>.agst0{fill:none;stroke:#000;stroke-width:.85;stroke-linecap:round;stroke-linejoin:round}</style><path class="agst0" d="M9.1.8v8.3l3.8-3.3c.1-.1.3-.1.4 0 0 .1.1.1.1.2v3.2c0 .1 0 .2-.1.2l-5.5 5c-.1.1-.3.1-.4 0l-5.5-5c-.2 0-.2-.1-.2-.2V6c0-.2.1-.3.3-.3.1 0 .1 0 .2.1L6 9.1V.8c0-.2.1-.3.3-.3h2.5c.1 0 .3.1.3.3z"/></symbol><symbol id="arrow-thick-left-3" viewBox="0 0 15 15" xml:space="preserve" xmlns="http://www.w3.org/2000/svg"><style>.ahst0{fill:none;stroke:#000;stroke-width:.85;stroke-linecap:round;stroke-linejoin:round}</style><path class="ahst0" d="M14.2 9.1H5.9l3.3 3.8c.1.1.1.3 0 .4-.1 0-.1.1-.2.1H5.8c-.1 0-.2 0-.2-.1l-5-5.5c-.1-.1-.1-.3 0-.4l5-5.5c0-.2.1-.2.2-.2H9c.2 0 .3.1.3.3 0 .1 0 .1-.1.2L5.9 5.9h8.3c.2 0 .3.1.3.3v2.5c0 .2-.1.4-.3.4z"/></symbol><symbol id="arrow-thick-right-3" viewBox="0 0 15 15" xml:space="preserve" xmlns="http://www.w3.org/2000/svg"><style>.aist0{fill:none;stroke:#000;stroke-width:.85;stroke-linecap:round;stroke-linejoin:round}</style><path class="aist0" d="M.8 5.9h8.3L5.8 2.1c-.1-.1-.1-.3 0-.3s.1-.1.2-.1h3.2c.1 0 .2 0 .2.1l5 5.5c.1.1.1.3 0 .4l-5 5.5c0 .2-.1.2-.2.2H6c-.2 0-.3-.1-.3-.3 0-.1 0-.1.1-.2l3.3-3.8H.8c-.2 0-.3-.1-.3-.3V6.3c0-.2.1-.4.3-.4z"/></symbol><symbol id="arrow-thick-up-3" viewBox="0 0 15 15" xml:space="preserve" xmlns="http://www.w3.org/2000/svg"><style>.ajst0{fill:none;stroke:#000;stroke-width:.85;stroke-linecap:round;stroke-linejoin:round}</style><path class="ajst0" d="M9.1 14.2V5.9l3.8 3.3c.1.1.3.1.4 0 0-.1.1-.1.1-.2V5.8c0-.1 0-.2-.1-.2L7.8.6c-.1-.1-.3-.1-.4 0l-5.5 5c-.2 0-.2.1-.2.2V9c0 .2.1.3.3.3.1 0 .1 0 .2-.1L6 5.9v8.3c0 .2.1.3.3.3h2.5c.1 0 .3-.1.3-.3z"/></symbol><symbol id="arrow-up-1" viewBox="0 0 15 15" xml:space="preserve" xmlns="http://www.w3.org/2000/svg"><style>.akst0{fill:none;stroke:#000;stroke-width:.85;stroke-linecap:round;stroke-linejoin:round}</style><path class="akst0" d="M14.5 11.4L7.7 3.7c-.1-.1-.3-.1-.4 0L.5 11.4"/></symbol><symbol id="attachment" viewBox="0 0 15 15" xml:space="preserve" xmlns="http://www.w3.org/2000/svg"><style>.alst0{fill:none;stroke:#000;stroke-width:.85;stroke-linecap:round;stroke-linejoin:round}</style><path class="alst0" d="M5 9.5l5.3-5.3c.5-.5 1.3-.5 1.7 0 .5.5.5 1.3 0 1.7l-7.2 7.2c-1 1-2.5 1-3.5 0s-1-2.5 0-3.5l7.4-7.4c1.4-1.4 3.5-1.4 4.8 0s1.4 3.5 0 4.8l-5.2 5.4"/></symbol><symbol id="bin" viewBox="0 0 15 15" xml:space="preserve" xmlns="http://www.w3.org/2000/svg"><style>.amst0{fill:none;stroke:#000;stroke-width:.85;stroke-linecap:round;stroke-linejoin:round}</style><path class="amst0" d="M12.7 2.3v11.6c0 .3-.3.6-.6.6H2.9c-.3 0-.6-.3-.6-.6V2.3M4.8 2.3V1.1c0-.3.3-.6.6-.6h4.3c.3 0 .6.3.6.6v1.2M.5 2.3h14M4.8 4.5v7.3M7.5 4.5v7.3M10.2 4.5v7.3"/></symbol><symbol id="calendar" viewBox="0 0 15 15" xml:space="preserve" xmlns="http://www.w3.org/2000/svg"><style>.anst0{fill:none;stroke:#000;stroke-width:.85;stroke-linecap:round;stroke-linejoin:round}</style><path class="anst0" d="M.5 1.7h14v12.8H.5zM3.5.5v3M11.4.5v3M.5 4.8h13.9"/></symbol><symbol id="check-1" viewBox="0 0 15 15" xml:space="preserve" xmlns="http://www.w3.org/2000/svg"><style>.aost0{fill:none;stroke:#000;stroke-width:.85;stroke-linecap:round;stroke-linejoin:round}</style><path class="aost0" d="M14.5.5l-10 14-4-4"/></symbol><symbol id="close" viewBox="0 0 15 15" xml:space="preserve" xmlns="http://www.w3.org/2000/svg"><style>.apst0{fill:none;stroke:#000;stroke-width:.85;stroke-linecap:round;stroke-linejoin:round}</style><path class="apst0" d="M.5.5l14 14M14.5.5l-14 14"/></symbol><symbol id="common-file-empty" viewBox="0 0 15 15" xml:space="preserve" xmlns="http://www.w3.org/2000/svg"><style>.aqst0{fill:none;stroke:#000;stroke-width:.85;stroke-linecap:round;stroke-linejoin:round}</style><path class="aqst0" d="M13.1 2.9c.1.1.2.3.2.5v10.5c0 .3-.3.6-.6.6H2.3c-.3 0-.6-.3-.6-.6V1.1c0-.3.3-.6.6-.6h8.1c.2 0 .3.1.4.2l2.3 2.2z"/></symbol><symbol id="cursor-target-1" viewBox="0 0 15 15" xml:space="preserve" xmlns="http://www.w3.org/2000/svg"><style>.arst0{fill:none;stroke:#000;stroke-width:.85;stroke-linecap:round;stroke-linejoin:round}</style><circle class="arst0" cx="7.5" cy="7.5" r="5.1"/><path class="arst0" d="M7.5.5v3.8M.5 7.5h3.8M7.5 14.5v-3.8M14.5 7.5h-3.8"/></symbol><symbol id="download-bottom" viewBox="0 0 15 15" xml:space="preserve" xmlns="http://www.w3.org/2000/svg"><style>.asst0{fill:none;stroke:#000;stroke-width:.85;stroke-linecap:round;stroke-linejoin:round}</style><path class="asst0" d="M14.5 11.5v1.2c0 1-.8 1.8-1.8 1.8H2.3c-1 0-1.8-.8-1.8-1.8v-1.2M7.5 11.4V.5M12 6.9l-4.5 4.5L3 6.9"/></symbol><symbol id="keyboard-arrow-down" viewBox="0 0 15 15" xml:space="preserve" xmlns="http://www.w3.org/2000/svg"><style>.atst0{fill:none;stroke:#000;stroke-width:.85;stroke-linecap:round;stroke-linejoin:round}</style><path class="atst0" d="M10.6 11.5l-3.2 3-3-3M7.4 14.5V.5"/></symbol><symbol id="keyboard-arrow-left" viewBox="0 0 15 15" xml:space="preserve" xmlns="http://www.w3.org/2000/svg"><style>.aust0{fill:none;stroke:#000;stroke-width:.85;stroke-linecap:round;stroke-linejoin:round}</style><path class="aust0" d="M3.5 10.6l-3-3.2 3-3M.5 7.4h14"/></symbol><symbol id="keyboard-arrow-right" viewBox="0 0 15 15" xml:space="preserve" xmlns="http://www.w3.org/2000/svg"><style>.avst0{fill:none;stroke:#000;stroke-width:.85;stroke-linecap:round;stroke-linejoin:round}</style><path class="avst0" d="M11.4 4.5l3.1 3-3.1 3M14.5 7.5H.5"/></symbol><symbol id="keyboard-arrow-up" viewBox="0 0 15 15" xml:space="preserve" xmlns="http://www.w3.org/2000/svg"><style>.awst0{fill:none;stroke:#000;stroke-width:.85;stroke-linecap:round;stroke-linejoin:round}</style><path class="awst0" d="M4.4 3.5l3-3 3.2 3M7.4.5v14"/></symbol><symbol id="logout-1" viewBox="0 0 15 15" xml:space="preserve" xmlns="http://www.w3.org/2000/svg"><style>.axst0{fill:none;stroke:#000;stroke-width:.85;stroke-linecap:round;stroke-linejoin:round}</style><path class="axst0" d="M8.4 3.2V1.1c0-.3-.3-.6-.6-.6H1.1C.8.5.5.8.5 1.1v12.8c0 .3.3.6.6.6h6.7c.3 0 .6-.3.6-.6v-2.1M14.5 7.5H2.9M11.5 10.5l3-3-3-3"/></symbol><symbol id="navigation-menu" viewBox="0 0 15 15" xml:space="preserve" xmlns="http://www.w3.org/2000/svg"><style>.ayst0{fill:none;stroke:#000;stroke-width:.85;stroke-linecap:round;stroke-linejoin:round}</style><path class="ayst0" d="M14.5 3.6H.5M14.5 7.5H.5M14.5 11.4H.5"/></symbol><symbol id="navigation-next" viewBox="0 0 15 15" xml:space="preserve" xmlns="http://www.w3.org/2000/svg"><style>.azst0{fill:none;stroke:#000;stroke-width:.85;stroke-linecap:round;stroke-linejoin:round}</style><path class="azst0" d="M14.5 5.6H7.9c-1.4 0-2.5 1.1-2.5 2.5v1.2"/><path class="azst0" d="M12 8.1l2.5-2.5L12 3.2M9.2 7.8v3.4c0 .4-.2.6-.6.6H1.1c-.4 0-.6-.2-.6-.6V3.8c0-.4.2-.6.6-.6h7.4c.4 0 .6.2.6.6v.3"/></symbol><symbol id="pencil-1" viewBox="0 0 15 15" xml:space="preserve" xmlns="http://www.w3.org/2000/svg"><style>.bast0{fill:none;stroke:#000;stroke-width:.85;stroke-linecap:round;stroke-linejoin:round}</style><path class="bast0" d="M4.4 13.6l-3.9.9.9-3.9L11.1.9c.5-.5 1.2-.5 1.7 0l1.3 1.3c.5.5.5 1.2 0 1.7l-9.7 9.7zM13.7 4.3l-3-3M12.8 5.2l-3-3.1M4.6 13.4l-3-3"/></symbol><symbol id="pin" viewBox="0 0 15 15" xml:space="preserve" xmlns="http://www.w3.org/2000/svg"><style>.bbst0{fill:none;stroke:#000;stroke-width:.85;stroke-linecap:round;stroke-linejoin:round}</style><path class="bbst0" d="M7.5.5c2.6 0 4.7 2.1 4.7 4.7 0 2.2-3.4 7.7-4.4 9.2-.1.1-.3.2-.4.1l-.1-.1c-1-1.5-4.4-7-4.4-9.2C2.8 2.6 4.9.5 7.5.5z"/><circle class="bbst0" cx="7.5" cy="5.2" r="1.9"/></symbol><symbol id="remove" viewBox="0 0 15 15" xml:space="preserve" xmlns="http://www.w3.org/2000/svg"><style>.bcst0{fill:none;stroke:#000;stroke-width:.85;stroke-linecap:round;stroke-linejoin:round}</style><path class="bcst0" d="M14.5.5l-14 14M14.5 14.5L.5.5"/></symbol><symbol id="search" viewBox="0 0 15 15" xml:space="preserve" xmlns="http://www.w3.org/2000/svg"><style>.bdst0{fill:none;stroke:#000;stroke-width:.85;stroke-linecap:round;stroke-linejoin:round}</style><circle class="bdst0" cx="5.4" cy="5.4" r="4.9"/><path class="bdst0" d="M8.8 8.8l5.7 5.7"/></symbol><symbol id="share-1" viewBox="0 0 15 15" xml:space="preserve" xmlns="http://www.w3.org/2000/svg"><style>.best0{fill:none;stroke:#000;stroke-width:.85;stroke-linecap:round;stroke-linejoin:round}</style><path class="best0" d="M7.5 8.4V.5M4.7 3.2L7.5.5l2.8 2.7M9.3 5.4h2.4c.3 0 .6.3.6.6v7.9c0 .3-.3.6-.6.6H3.2c-.3 0-.6-.3-.6-.6V6c0-.3.3-.6.6-.6h2.4"/></symbol><symbol id="social-instagram" viewBox="0 0 15 15" xml:space="preserve" xmlns="http://www.w3.org/2000/svg"><style>.bfst0{fill:none;stroke:#000;stroke-width:.85;stroke-linecap:round;stroke-linejoin:round}</style><path class="bfst0" d="M.5.5h14v14H.5z"/><circle class="bfst0" cx="7.5" cy="7.5" r="3.7"/><circle class="bfst0" cx="11.8" cy="3.2" r=".9"/></symbol><symbol id="social-media-facebook" viewBox="0 0 15 15" xml:space="preserve" xmlns="http://www.w3.org/2000/svg"><style>.bgst0{fill:none;stroke:#000;stroke-width:.85;stroke-linecap:round;stroke-linejoin:round}</style><path class="bgst0" d="M11.3 4.8H8.6V3.6c0-.3.2-.6.5-.7H11V.5H8.4c-2.4 0-2.8 1.8-2.8 3v1.3H3.8v2.4h1.8v7.3h3V7.2h2.3l.4-2.4z"/></symbol><symbol id="social-media-google-plus-1" viewBox="0 0 15 15" xml:space="preserve" xmlns="http://www.w3.org/2000/svg"><style>.bhst0{fill:none;stroke:#000;stroke-width:.85;stroke-linecap:round;stroke-linejoin:round}</style><path class="bhst0" d="M8.4 4c-1.9-1.8-4.9-1.7-6.7.3C0 6.2.1 9.2 2 11c.9.8 2 1.3 3.2 1.3 3.2 0 4.4-2.3 4.4-4.7v-.5H5.3v1.2h2.9c0 1.6-1.4 2.8-3 2.7-2 0-3.5-1.6-3.5-3.5S3.2 4 5.2 4c.9 0 1.7.3 2.3.9l.9-.9zM14.5 7h-1.2V5.8h-1.2V7h-1.2v1.2h1.2v1.2h1.2V8.2h1.2z"/></symbol><symbol id="social-media-twitter" viewBox="0 0 15 15" xml:space="preserve" xmlns="http://www.w3.org/2000/svg"><style>.bist0{fill:none;stroke:#000;stroke-width:.85;stroke-linecap:round;stroke-linejoin:round}</style><path class="bist0" d="M14.5 3.8l-1.3-.3.6-1.3-1.5.4c-1.1-1.1-2.9-1-4 .2-.5.5-.8 1.1-.8 1.9v.6c-2.3.5-4.2-.7-6-2.8-.3 1.7 0 2.9.9 3.8L.6 5.9c.2 1.3.9 2.3 2.5 2.5l-1.6.7c.6 1.3 1.6 1.5 3.2 1.6C3.4 11.6 2 12 .5 12c8.1 3.6 12.7-1.7 12.7-6.3v-.8l1.3-1.1z"/></symbol><symbol id="social-video-youtube-clip" viewBox="0 0 15 15" xml:space="preserve" xmlns="http://www.w3.org/2000/svg"><style>.bjst0{fill:none;stroke:#000;stroke-width:.85;stroke-linecap:round;stroke-linejoin:round}</style><path class="bjst0" d="M14.5 4.7c0-1.2-.9-2.1-2.1-2.1H2.6C1.4 2.6.5 3.5.5 4.7v5.6c0 1.2.9 2.1 2.1 2.1h9.8c1.2 0 2.1-.9 2.1-2.1V4.7zM6 9.9V4.6l4.1 2.6L6 9.9z"/></symbol><symbol id="subtract" viewBox="0 0 15 15" xml:space="preserve" xmlns="http://www.w3.org/2000/svg"><style>.bkst0{fill:none;stroke:#000;stroke-width:.85;stroke-linecap:round;stroke-linejoin:round}</style><path class="bkst0" d="M14.5 7.5H.5"/></symbol><symbol id="upload-bottom" viewBox="0 0 15 15" xml:space="preserve" xmlns="http://www.w3.org/2000/svg"><style>.blst0{fill:none;stroke:#000;stroke-width:.85;stroke-linecap:round;stroke-linejoin:round}</style><path class="blst0" d="M14.4 11.4v1.3c0 1-.8 1.8-1.8 1.8H2.4c-1 0-1.8-.8-1.8-1.8v-1.2M7.6.5v10.9M3.1 5L7.6.5 11.9 5"/></symbol><symbol id="view-1" viewBox="0 0 15 15" xml:space="preserve" xmlns="http://www.w3.org/2000/svg"><style>.bmst0{fill:none;stroke:#000;stroke-width:.85;stroke-linecap:round;stroke-linejoin:round}</style><circle class="bmst0" cx="7.5" cy="7.6" r="2.1"/><path class="bmst0" d="M14.4 7.3c-.7-.8-3.5-3.7-7-3.7S1.3 6.5.6 7.3c-.1.1-.1.3 0 .4.7.8 3.5 3.8 6.9 3.8s6.2-2.9 7-3.7c0-.1 0-.4-.1-.5z"/></symbol></svg>