<svg width="0" height="0" style="position:absolute" xmlns="http://www.w3.org/2000/svg"><symbol viewBox="-1 -1 26 26" id="ai-a11y"><g stroke-linecap="round" stroke-linejoin="round"><path class="aacls-1" d="M9.6 5a2.12 2.12 0 102.12-2.12A2.12 2.12 0 009.6 5zm9.54 2.5l-7.27 1.34-7-1.36a1 1 0 100 2l4.33 1.27v4.51l-2.28 4.4A1 1 0 007.4 21a1.12 1.12 0 001.44-.46l2.61-5.15 2.61 5.15a1.1 1.1 0 001.44.46 1 1 0 00.53-.58.94.94 0 00-.06-.77c-.27-.52-1.21-2.44-2.19-4.4v-4.61l5.36-1.13a1 1 0 100-2z"/><circle class="aacls-1" cx="12" cy="12" r="11.5"/></g></symbol><symbol viewBox="-1 -1 26 26" id="ai-accounting-bill"><g stroke-linecap="round" stroke-linejoin="round"><rect width="19" height="10" x="2.504" y="7" rx=".5"/><rect width="23" height="14" x=".504" y="5" rx="1"/><path d="M12 9a3 3 0 100 6 3 3 0 100-6zM5 9.25h-.01c.13-.01.25.11.25.24s-.12.25-.25.25c-.14 0-.25-.12-.26-.25h0c-.01-.14.11-.26.24-.26v-.001M19 14.25h-.01c.13-.01.25.11.25.24s-.12.25-.25.25c-.14 0-.25-.12-.26-.25h0c-.01-.14.11-.26.24-.26"/></g></symbol><symbol viewBox="-1 -1 26 26" id="ai-accounting-bills"><g stroke-linecap="round" stroke-linejoin="round"><rect width="19" height="12" x=".504" y="4" rx="1"/><path d="M21.5 6v11c0 .55-.45 1-1 1h-18"/><path d="M23.5 8v11c0 .55-.45 1-1 1h-18M10 7a3 3 0 100 6 3 3 0 100-6zM2.5 14h2M15.5 6h2"/></g></symbol><symbol viewBox="-1 -1 26 26" id="ai-add"><g stroke-linecap="round" stroke-linejoin="round"><path d="M12 1v22M23 12H1"/></g></symbol><symbol viewBox="-1 -1 26 26" id="ai-add-square"><g stroke-linecap="round" stroke-linejoin="round"><path d="M12 6v12M18 12H6"/><rect width="22" height="22" x="1" y="1" rx="1"/></g></symbol><symbol viewBox="-1 -1 26 26" id="ai-advertising-megaphone"><g stroke-linecap="round" stroke-linejoin="round"><path d="M.59 19.53l1.68 2.53M9.88 8.27l6.38 9.61M15.925 17.372l-13.99 4.18-1.01-1.52 9.28-11.27 5.71 8.601z"/><path d="M9.216 19.378l-.01-.01c.77.88.67 2.22-.21 2.99-.89.77-2.23.67-3-.21-.06-.07-.12-.14-.17-.22l-.88-1.33M3.58 12.46l-.68-.72h0c-.19-.2-.19-.5-.01-.69l1.8-1.9-.6-2.55h0a.5.5 0 01.34-.6l2.5-.75.74-2.51h-.001a.48.48 0 01.58-.35l2.545.6 1.9-1.8v-.01c.19-.19.49-.19.68 0l1.9 1.8 2.54-.6h-.01c.25-.07.51.09.59.34l.74 2.5 2.5.74h0c.25.07.4.34.34.6l-.6 2.53 1.8 1.9-.01-.01c.18.19.18.49 0 .68l-1.8 1.9.6 2.545h0c.06.25-.09.51-.35.59l-2.51.74-.75 2.5v-.01a.51.51 0 01-.6.34l-2.545-.6-1.9 1.8h-.01c-.2.18-.5.18-.69-.01l-.37-.35"/></g></symbol><symbol viewBox="-1 -1 26 26" id="ai-alarm-bell"><g stroke-linecap="round" stroke-linejoin="round"><path d="M20.5 17.5V11h0a8.509 8.509 0 00-5.55-7.96h0A3 3 0 0011.5.56c-1.28.2-2.28 1.2-2.48 2.47v-.01a8.473 8.473 0 00-5.54 7.95v6.5c0 1.65-1.35 3-3 3h23l-.01-.001c-1.66-.01-3-1.35-3-3zM15 20.5v0c0 1.65-1.35 3-3 3-1.66 0-3-1.35-3-3"/></g></symbol><symbol viewBox="-1 -1 26 26" id="ai-alert-circle"><g stroke-linecap="round" stroke-linejoin="round"><path d="M23 11.811h0c.01 6.11-4.89 11.1-11.01 11.18h-.01c-5.99.08-10.91-4.69-11-10.68-.01-.05-.01-.1-.01-.14l-.01-.01A11.16 11.16 0 0111.96.96V.95c5.98-.09 10.9 4.68 10.99 10.67v.13zM12 14.01v-7"/><path d="M11.991 16.005v-.001c-.14 0-.25.11-.25.24 0 0 0 0 0 0h0c0 .13.11.24.25.24v0-.001c.13-.01.24-.12.24-.26l-.01-.01-.01-.01c-.01-.14-.12-.25-.25-.25h-.01"/></g></symbol><symbol viewBox="-1 -1 26 26" id="ai-alert-diamond"><rect width="15.556" height="15.556" x="4.199" y="4.307" rx="1" stroke-linecap="round" stroke-linejoin="round" transform="matrix(.7071 -.70711 .7071 .7071 -5.038 12.008)"/><g stroke-linecap="round" stroke-linejoin="round"><path d="M12 14.11v-7M12 16.11h0M11.987 16.11v-.01c-.14 0-.25.11-.24.25 0 0 0 0 0 0l-.01-.01c0 .13.11.24.24.24h0v-.001c.13-.01.24-.12.23-.26l-.01-.01h0c-.01-.14-.12-.25-.25-.25M12 16.11h-.01"/></g></symbol><symbol viewBox="-1 -1 26 26" id="ai-alert-triangle"><g stroke-linecap="round" stroke-linejoin="round"><path d="M22.553 22.581h0c.18.25.12.61-.13.79-.13.08-.28.12-.43.09h-20v-.01a.578.578 0 01-.66-.48c-.03-.15.01-.31.09-.43l10.1-20.22c.24-.5.64-.5.89-.001zM12 16.98v-7"/><path d="M11.991 18.979v-.001c-.14 0-.25.11-.25.25 0 0 0 0 0 0l-.01-.01c0 .13.11.24.25.24h0v-.001c.13-.01.24-.12.24-.26l-.01-.01-.01-.01c-.01-.14-.12-.25-.25-.25h-.01"/></g></symbol><symbol viewBox="-1 -1 26 26" id="ai-analytics-bars"><g stroke-linecap="round" stroke-linejoin="round"><path d="M.44 19.5h23M4.44 19.5V15v0c0-.28-.23-.5-.5-.5H1.93c-.28 0-.5.22-.5.5 0 0 0 0 0 0v4.5M10.44 19.5V10v0c0-.28-.23-.5-.5-.5H7.93c-.28 0-.5.22-.5.5 0 0 0 0 0 0v9.5M16.441 19.5V12v0c0-.28-.23-.5-.5-.5h-2.01c-.28 0-.5.22-.5.5 0 0 0 0 0 0v7.5M22.441 19.5V5v0c0-.28-.23-.5-.5-.5h-2.01c-.28 0-.5.22-.5.5 0 0 0 0 0 0v14.5"/></g></symbol><symbol viewBox="-1 -1 26 26" id="ai-analytics-pie-1"><g stroke-linecap="round" stroke-linejoin="round"><path d="M10.5 3.5h-.01c-5.53 0-10 4.47-10 10 0 5.52 4.47 10 10 9.99 5.52-.01 10-4.48 9.99-10.01h-9.51a.51.51 0 01-.5-.51v-.001z"/><path d="M13.5 10h0c0 .27.22.49.5.49h9.5v0c0-5.53-4.48-10-10-10z"/></g></symbol><symbol viewBox="-1 -1 26 26" id="ai-angle-brackets"><g stroke-linecap="round" stroke-linejoin="round"><path d="M9 3.5l-7.8 7.79v-.01c-.4.39-.4 1.02-.01 1.41l7.79 7.79M15 3.5l7.79 7.79-.01-.01c.39.39.39 1.02 0 1.41l-7.8 7.79"/></g></symbol><symbol viewBox="-1 -1 26 26" id="ai-app-window"><g stroke-linecap="round" stroke-linejoin="round"><rect width="23" height="20" x=".5" y="2.004" rx="2"/><path d="M.5 7h23M4 4.254h-.01c.13-.01.25.11.25.24s-.12.25-.25.25c-.14 0-.25-.12-.26-.25h0c-.01-.14.11-.26.24-.26v-.001M7 4.254h-.01c.13-.01.25.11.25.24s-.12.25-.25.25c-.14 0-.25-.12-.26-.25h0c-.01-.14.11-.26.24-.26v-.001M10 4.254h-.01c.13-.01.25.11.25.24s-.12.25-.25.25c-.14 0-.25-.12-.26-.25h0c-.01-.14.11-.26.24-.26"/></g></symbol><symbol viewBox="-1 -1 26 26" id="ai-archive"><g stroke-linecap="round" stroke-linejoin="round"><path d="M23.5 7v0c0 .55-.45 1-1 1h-21l-.01-.001c-.56-.01-1-.45-1-1.01 0 0 0 0 0 0v-3h0a.99.99 0 01.99-1.01h21-.01c.55-.01 1 .44 1 .99zM22.5 10v10c0 .55-.45 1-1 1H2.49c-.56-.01-1-.45-1-1.01V9.989"/><path d="M15.5 12.5v0c0 .82-.68 1.5-1.5 1.5h-4l-.01-.001a1.51 1.51 0 01-1.5-1.5c0-.83.67-1.5 1.5-1.5h4c.82 0 1.49.67 1.49 1.5z"/></g></symbol><symbol viewBox="-1 -1 26 26" id="ai-arrange-letter"><g stroke-linecap="round" stroke-linejoin="round"><path d="M5.5 4.5v15M2.5 16.49l3 3 3-3M20.4 23.5h-3.61a.51.51 0 01-.51-.5c-.01-.1.02-.19.07-.27l4.04-6.47h-.01a.508.508 0 00-.43-.77h-3.6M16.5 9.5v-6h0c-.01-1.11.89-2.01 1.99-2.01 1.1-.01 2 .89 2 1.99 0 0 0 0 0 0v6M16.5 5.5h4"/></g></symbol><symbol viewBox="-1 -1 26 26" id="ai-arrange-number"><g stroke-linecap="round" stroke-linejoin="round"><path d="M5.5 4.5v15M2.5 16.49l3 3 3-3M16 8.5h5M18.5 8.5V1l-.001-.01a.51.51 0 00-.51-.5c-.12 0-.23.03-.32.1l-1.69 1.34M18 15.49a2.5 2.5 0 100 5 2.5 2.5 0 100-5z"/><path d="M20.5 18v2.5c0 1.65-1.35 3-3 3H17"/></g></symbol><symbol viewBox="-1 -1 26 26" id="ai-arrow-button-down-1"><g stroke-linecap="round" stroke-linejoin="round"><path d="M23.5.7L12.7 11.49v-.01c-.4.39-1.03.39-1.42 0L.48.68M23.5 12.2L12.7 22.99v-.01c-.4.39-1.03.39-1.42 0L.48 12.18"/></g></symbol><symbol viewBox="-1 -1 26 26" id="ai-arrow-button-left-1"><g stroke-linecap="round" stroke-linejoin="round"><path d="M23.4 23.5L12.6 12.7h0c-.4-.4-.4-1.03-.01-1.42L23.39.48M11.9 23.5L1.1 12.7h0c-.4-.4-.4-1.03-.01-1.42L11.89.48"/></g></symbol><symbol viewBox="-1 -1 26 26" id="ai-arrow-button-right-1"><g stroke-linecap="round" stroke-linejoin="round"><path d="M.8.5l10.792 10.793-.01-.01c.39.39.39 1.02 0 1.41L.782 23.48M12.3.5l10.79 10.793-.01-.01c.39.39.39 1.02 0 1.41l-10.8 10.79"/></g></symbol><symbol viewBox="-1 -1 26 26" id="ai-arrow-button-up-1"><g stroke-linecap="round" stroke-linejoin="round"><path d="M.58 23.293L11.37 12.5v-.01c.39-.4 1.02-.4 1.41-.01 0 0 0 0 0 0l10.79 10.79M.58 11.793L11.37 1V.99c.39-.4 1.02-.4 1.41-.01 0 0 0 0 0 0l10.79 10.79"/></g></symbol><symbol viewBox="-1 -1 26 26" id="ai-arrow-down-1"><path stroke-linecap="round" stroke-linejoin="round" d="M.54 5.62l11.125 12.573-.01-.01c.18.2.49.22.7.04.01-.02.02-.03.04-.05L23.51 5.59"/></symbol><symbol viewBox="-1 -1 26 26" id="ai-arrow-left-1"><path stroke-linecap="round" stroke-linejoin="round" d="M18.4.5L5.82 11.626v-.01c-.21.18-.23.49-.05.7l.04.04 12.57 11.12"/></symbol><symbol viewBox="-1 -1 26 26" id="ai-arrow-right-1"><path stroke-linecap="round" stroke-linejoin="round" d="M5.651 23.5l12.576-11.126h-.01c.2-.19.22-.5.04-.71l-.05-.05L5.62.484"/></symbol><symbol viewBox="-1 -1 26 26" id="ai-arrow-up-1"><path stroke-linecap="round" stroke-linejoin="round" d="M23.535 18.373L12.409 5.8h0a.506.506 0 00-.71-.05c-.02.01-.03.02-.05.04L.51 18.36"/></symbol><symbol viewBox="-1 -1 26 26" id="ai-attachment"><path stroke-linecap="round" stroke-linejoin="round" d="M7.61 15.345l8.666-8.666v-.01c.78-.82 2.07-.84 2.88-.06s.83 2.07.05 2.88c-.02.01-.04.03-.06.05L7.436 21.27v-.01a4.077 4.077 0 01-5.77-.01c-1.6-1.6-1.6-4.18 0-5.77l12.23-12.24v-.01c2.18-2.19 5.73-2.19 7.92-.01 2.18 2.18 2.18 5.73 0 7.92l-8.67 8.66"/></symbol><symbol viewBox="-1 -1 26 26" id="ai-audio-file-volume"><g stroke-linecap="round" stroke-linejoin="round"><path d="M21.207 4.5l-.01-.01c.18.18.29.44.29.7v17.29c0 .55-.45 1-1 1H3.477c-.56-.01-1-.45-1-1.01V1.469h0A.983.983 0 013.46.45h13.29c.26 0 .51.1.7.29z"/><path d="M6.5 11.5h-.01c-.56 0-1 .44-1 1 0 0 0 0 0 0v2h0c0 .55.44.99 1 .99h1.49l3.01 2.37h0c.48.26 1.09.09 1.35-.39.08-.15.12-.32.12-.49V9.97c0-.56-.45-1-1-1-.18 0-.34.04-.49.12l-3.02 2.37zM15.561 12.24l-.01-.01c.58.58.58 1.53 0 2.12M17.182 10.12h0c1.75 1.75 1.75 4.6 0 6.36h-.01"/></g></symbol><symbol viewBox="-1 -1 26 26" id="ai-bicycle"><g stroke-linecap="round" stroke-linejoin="round"><path d="M4.5 11a4 4 0 100 8 4 4 0 100-8zM19.5 11a4 4 0 100 8 4 4 0 100-8z"/><path d="M11 15.001l5.68-7.646-7.69 2.64-4.5 5h6.5l-3.25-8"/><path d="M19.5 15l-3.31-8.977-.01-.01c-.1-.26.03-.55.29-.65.01-.01.03-.02.05-.02l1.45-.37M6.5 7h3"/></g></symbol><symbol viewBox="-1 -1 26 26" id="ai-bin"><g stroke-linecap="round" stroke-linejoin="round"><path d="M20.5 3.5v19c0 .55-.45 1-1 1H4.49c-.56-.01-1-.45-1-1.01V3.489"/><path d="M7.5 3.5v-2h0A.99.99 0 018.49.49h7-.01c.55-.01 1 .44 1 .99v2M.5 3.5h23M7.5 7v12M12 7v12M16.5 7v12"/></g></symbol><symbol viewBox="-1 -1 26 26" id="ai-bluetooth"><path stroke-linecap="round" stroke-linejoin="round" d="M5.372 5.51l12.317 11.323h0c.38.35.41.95.06 1.34-.02.01-.03.02-.04.04l-4.632 4.59c-.391.38-.71.25-.71-.3v-21c0-.55.31-.69.71-.3l4.63 4.592h0c.37.36.38.96.01 1.33-.02.01-.03.02-.05.04L5.31 18.49"/></symbol><symbol viewBox="-1 -1 26 26" id="ai-book-open"><g stroke-linecap="round" stroke-linejoin="round"><path d="M12 5.49c0-1.82 4.55-3.32 9.968-3.49v-.001a.995.995 0 011.03.96v14.53h0c0 .54-.43.98-.98.99-5.44.15-10.03 1.65-10.03 3.48 0-1.83-4.6-3.33-10.03-3.49l-.01-.01a.99.99 0 01-.97-1V2.95l-.01-.01a.99.99 0 01.99-1.01c.01-.01.02 0 .03 0 5.41.17 9.96 1.66 9.96 3.48zM12 5.49v16.38"/></g></symbol><symbol viewBox="-1 -1 26 26" id="ai-bookmarks-2"><path stroke-linecap="round" stroke-linejoin="round" d="M16.5 6.74h2l-.01-.001c.55 0 1-.45 1-1v-1.51c0-1.94-1.57-3.5-3.5-3.5H7.97c-1.94 0-3.5 1.56-3.5 3.5 0 0 0 0 0 0v18.5c0 .55.31.68.7.29l4.29-4.3L13.75 23c.38.38.7.25.7-.3v-18h0c-.01-1.11.89-2.01 1.99-2.01"/></symbol><symbol viewBox="-1 -1 26 26" id="ai-brightness"><g stroke-linecap="round" stroke-linejoin="round"><path d="M12 8a4 4 0 100 8 4 4 0 100-8zM12 .5v4M12 19.5v4M3.87 3.87L6.7 6.7M17.3 17.3l2.83 2.83M.5 12h4M19.5 12h4M3.87 20.13L6.7 17.3M17.3 6.7l2.83-2.83"/></g></symbol><symbol viewBox="-1 -1 26 26" id="ai-brightness-1"><g stroke-linecap="round" stroke-linejoin="round"><path d="M12 10a2 2 0 100 4 2 2 0 100-4zM5.5 12h2M7.4 16.6l1.42-1.42M12 18.5v-2M16.6 16.6l-1.42-1.42M18.5 12h-2M16.6 7.41l-1.42 1.41M12 5.5v2M7.4 7.41l1.42 1.41"/></g></symbol><symbol viewBox="-1 -1 26 26" id="ai-button-loop"><path stroke-linecap="round" stroke-linejoin="round" d="M13 14.5s2 3 5 3l-.01-.001c3.03 0 5.5-2.47 5.5-5.5 0-3.04-2.47-5.5-5.5-5.5-5 0-7 11-12 11l-.01-.001c-3.04-.01-5.5-2.47-5.5-5.5 0-3.04 2.46-5.5 5.5-5.5 3 0 4.5 3.5 4.5 3.5"/></symbol><symbol viewBox="-1 -1 26 26" id="ai-button-shuffle"><g stroke-linecap="round" stroke-linejoin="round"><path d="M10.5 10S9 6.5 6 6.5H.5M23.5 6.5H18c-5 0-7 11-12 11H.5M13 14.5s2 3 5 3h5.5"/><path d="M21.5 3.49l2 3-2 3M21.5 14.499l2 3-2 3"/></g></symbol><symbol viewBox="-1 -1 26 26" id="ai-button-split"><g stroke-linecap="round" stroke-linejoin="round"><path d="M23.5 6H18c-5 0-4 6-9 6H.5"/><path d="M21.5 2.99l2 3-2 3M23.5 18H18c-5 0-4-6-9-6"/><path d="M21.5 20.999l2-3-2-3"/></g></symbol><symbol viewBox="-1 -1 26 26" id="ai-calendar"><g stroke-linecap="round" stroke-linejoin="round"><rect width="23" height="21" x=".5" y="2.501" rx="1"/><path d="M5.5.5v5M18.5.5v5M.5 7.5h23"/></g></symbol><symbol viewBox="-1 -1 26 26" id="ai-calendar-3"><g stroke-linecap="round" stroke-linejoin="round"><rect width="23" height="21" x=".5" y="2.501" rx="1"/><path d="M5.5.5v5M18.5.5v5M.5 7.5h23M12 7.5v16M6 7.5v16M18 7.5v16M.5 15.5h23M.5 11.5h23M.5 19.5h23"/></g></symbol><symbol viewBox="-1 -1 26 26" id="ai-camera-1"><g stroke-linecap="round" stroke-linejoin="round"><path d="M2.5 6.5l.02-1h-.01c0-.54.43-.98.97-1.01h.94c.55 0 1.02.44 1.05 1v1"/><path d="M20.13 6.5l-.01-.001c-.39-.01-.75-.23-.91-.58-.55-1.17-1.13-2.43-2.23-2.43h-5c-.94 0-1.4.83-2.7 2.59h-.01c-.19.25-.49.4-.8.4h-6c-1.5-.001-2 .67-2 1.72v10.38c0 1.04.5 1.88 2.05 1.88H21.4c1.55 0 2.05-.85 2.05-1.89V8.17c0-1.05-.5-1.73-2.06-1.73z"/><path d="M14.5 7.5a5.5 5.5 0 100 11 5.5 5.5 0 100-11z"/><path d="M14.5 10a3 3 0 100 6 3 3 0 100-6zM4 8.5a1.5 1.5 0 100 3 1.5 1.5 0 100-3z"/></g></symbol><symbol viewBox="-1 -1 26 26" id="ai-car-retro-2"><g stroke-linecap="round" stroke-linejoin="round"><path d="M19.5 13.5a2 2 0 100 4 2 2 0 100-4zM3.5 15.5h-3M5.5 13.5a2 2 0 100 4 2 2 0 100-4zM17.5 15.5h-10"/><path d="M1.5 15.5V12h0c-.01-.83.67-1.51 1.49-1.51h1.5l1.72-3.45H6.2c.16-.34.51-.56.89-.56h8.264l-.01-.001a1 1 0 01.89.55l1.72 3.44h4-.01c.82-.01 1.5.67 1.5 1.5v2.5c0 .55-.45 1-1 1h-1M18 10.5H4.5M11 6.5v4"/></g></symbol><symbol viewBox="-1 -1 26 26" id="ai-chat-translate"><g stroke-linecap="round" stroke-linejoin="round"><path d="M7.5 11.5h-2l-3 3v-3H1.49c-.56-.01-1-.45-1-1.01 0 0 0 0 0 0v-9h0A.99.99 0 011.48.48h12-.01c.55-.01 1 .44 1 .99v9"/><path d="M16.5 10.5h6-.01c.55-.01 1 .44 1 .99v8c0 .55-.45 1-1 1h-1v3l-3-3h-8.01c-.56-.01-1-.45-1-1.01v-8.001h0a.99.99 0 01.99-1.01h1M5.5 8.5V4h0a1.496 1.496 0 112.99-.02s0 0 0 0v4.5M5.5 5.5h3M17.5 13.5v-1M14.5 13.5h6"/><path d="M16 13.5l-.01-.01c.13 2.24 1.78 4.1 3.99 4.5"/><path d="M19 13.5v-.01a4.882 4.882 0 01-4 4.5"/></g></symbol><symbol viewBox="-1 -1 26 26" id="ai-check-1"><path stroke-linecap="round" stroke-linejoin="round" d="M23.5.499l-16.5 23-6.5-6.5"/></symbol><symbol viewBox="-1 -1 26 26" id="ai-close"><g stroke-linecap="round" stroke-linejoin="round"><path d="M.5.5l23 23M23.5.5l-23 23"/></g></symbol><symbol viewBox="-1 -1 26 26" id="ai-cloud"><path stroke-linecap="round" stroke-linejoin="round" d="M23.5 14v-.01c0-2.76-2.23-5-4.99-5-.07-.01-.13 0-.2 0h0A6.998 6.998 0 009 5.64a6.95 6.95 0 00-4 5.91h0c-2.03-.43-4.02.87-4.45 2.9-.06.25-.08.51-.08.76 0 3.81 4 3.75 4 3.75h14.5s4.5-.59 4.5-5z"/></symbol><symbol viewBox="-1 -1 26 26" id="ai-cog-1"><g stroke-linecap="round" stroke-linejoin="round"><path d="M19.92 7.21V7.2c-.45.93-.05 2.05.88 2.49.05.02.11.05.17.07l1.26.45-.01-.01c.97.34 1.48 1.41 1.13 2.39-.19.53-.61.95-1.14 1.13l-1.27.45v-.01a1.86 1.86 0 00-1.07 2.56l.57 1.21-.01-.01c.44.93.05 2.05-.89 2.5-.52.24-1.11.24-1.62 0l-1.22-.58h0a1.87 1.87 0 00-2.5.88c-.03.05-.06.11-.08.17l-.45 1.26v-.01c-.35.97-1.42 1.48-2.4 1.13-.54-.19-.95-.61-1.14-1.14l-.45-1.27h0a1.875 1.875 0 00-2.4-1.14c-.07.02-.12.04-.18.07l-1.22.57h-.01c-.94.44-2.06.05-2.5-.88-.25-.52-.25-1.11 0-1.63l.57-1.22h-.01c.44-.94.04-2.06-.89-2.5-.06-.03-.12-.06-.18-.08l-1.27-.45h0a1.875 1.875 0 01-1.14-2.4c.18-.54.6-.96 1.13-1.14l1.26-.45h-.01c.97-.35 1.48-1.42 1.13-2.4-.03-.06-.05-.12-.08-.18L3.3 5.81h0c-.45-.94-.06-2.06.87-2.5.51-.25 1.1-.25 1.62-.01L7 3.87l-.01-.01c.93.44 2.05.04 2.49-.89.02-.06.05-.12.07-.18L10 1.52h-.01A1.86 1.86 0 0112.38.38c.53.18.94.6 1.13 1.13l.45 1.26-.01-.01c.34.97 1.41 1.48 2.39 1.13.06-.03.11-.05.17-.08l1.21-.58h-.01c.93-.45 2.05-.06 2.5.88.24.51.24 1.1 0 1.61z"/><path d="M11.99 7.5a4.5 4.5 0 100 9 4.5 4.5 0 100-9z"/></g></symbol><symbol viewBox="-1 -1 26 26" id="ai-cog-double-3"><g stroke-linecap="round" stroke-linejoin="round"><path d="M19.05 4.06a1.43 1.43 0 100 2.87 1.43 1.43 0 100-2.88z"/><path d="M20 1.2l.32 1.07-.01-.01c.11.36.49.58.86.5l1.09-.26h-.01a.978.978 0 01.93 1.63l-.77.83v-.01c-.27.28-.27.72-.01 1l.76.82h0a.994.994 0 01-.96 1.64l-1.09-.26h0a.732.732 0 00-.87.49l-.34 1.08v-.01c-.16.52-.71.81-1.23.66-.32-.1-.57-.35-.67-.67l-.33-1.08h0a.755.755 0 00-.87-.51l-1.1.25v-.01c-.54.11-1.07-.22-1.19-.76-.08-.32.01-.66.24-.9l.76-.83v-.01c.26-.29.26-.73-.01-1.008l-.77-.83h0a.996.996 0 01.04-1.41c.23-.23.57-.32.89-.25l1.09.25-.01-.01c.37.08.75-.14.86-.5L17.92 1h-.01a.98.98 0 011.88-.01zM7.03 9.626h0c.47.53 1.3.58 1.83.1.03-.04.07-.07.1-.11l.63-.7h-.01a1.3 1.3 0 011.84-.1c.29.26.44.64.42 1.03l-.05.93v-.01a1.3 1.3 0 001.23 1.37h.13l.93-.05h-.01a1.3 1.3 0 011.37 1.23c.02.39-.14.77-.43 1.03l-.7.62h-.01c-.54.47-.59 1.3-.11 1.83.03.03.06.07.1.1l.69.62-.01-.01c.53.48.57 1.3.09 1.84-.27.29-.65.44-1.04.42l-.94-.05-.01-.01c-.73-.04-1.34.51-1.38 1.23-.01.04-.01.08 0 .13l.04.93h0c.03.72-.52 1.33-1.24 1.37-.4.02-.78-.14-1.04-.43l-.63-.7h0a1.3 1.3 0 00-1.84-.11c-.04.03-.08.06-.11.1l-.64.69v-.01c-.49.53-1.31.57-1.85.09a1.3 1.3 0 01-.43-1.04l.04-.94h-.01c.03-.73-.52-1.34-1.24-1.38-.05-.01-.09-.01-.14-.01l-.94.04v-.01a1.31 1.31 0 01-1.37-1.25c-.02-.39.13-.77.42-1.03l.694-.63v-.01c.53-.48.58-1.31.1-1.84-.04-.04-.07-.08-.11-.11L.7 14.15h0c-.54-.49-.58-1.31-.1-1.85.26-.3.64-.45 1.03-.43l.93.04-.01-.01c.72.03 1.33-.52 1.37-1.24v-.14l-.05-.94-.01-.01c-.04-.73.52-1.34 1.24-1.37.38-.02.76.13 1.02.42z"/><path d="M8 12.5a3.5 3.5 0 100 7 3.5 3.5 0 100-7z"/></g></symbol><symbol viewBox="-1 -1 26 26" id="ai-common-file-double-2"><g stroke-linecap="round" stroke-linejoin="round"><path d="M2 6.4h0c-.01-.5.4-.91.89-.91h9.17-.01c.26-.01.52.1.71.29l2.92 3-.01-.01c.18.18.28.43.28.69v13.09h0c0 .49-.41.9-.9.9H2.84c-.5-.01-.9-.41-.9-.91z"/><path d="M8 5.5V1.39c0-.5.4-.9.9-.9 0 0 0 0 0 0h9.178-.01c.27-.01.53.1.72.29l2.92 3-.01-.01c.18.18.28.43.28.69v13.09c0 .49-.41.9-.9.9h-5.11"/></g></symbol><symbol viewBox="-1 -1 26 26" id="ai-common-file-empty"><path stroke-linecap="round" stroke-linejoin="round" d="M21.207 4.5l-.01-.01c.18.18.29.44.29.7v17.29c0 .55-.45 1-1 1H3.477c-.56-.01-1-.45-1-1.01V1.469h0A.983.983 0 013.46.45h13.29c.26 0 .51.1.7.29z"/></symbol><symbol viewBox="-1 -1 26 26" id="ai-common-file-text"><g stroke-linecap="round" stroke-linejoin="round"><path d="M21.207 4.5l-.01-.01c.18.18.29.44.29.7v17.29c0 .55-.45 1-1 1H3.477c-.56-.01-1-.45-1-1.01V1.469h0A.983.983 0 013.46.45h13.29c.26 0 .51.1.7.29zM6 16h12M6 19h12M6 13h12M6 10h12M6 7h7M6 7h7M6 10h12M6 13h12M6 16h12M6 19h12"/></g></symbol><symbol viewBox="-1 -1 26 26" id="ai-compass-arrow"><path stroke-linecap="round" stroke-linejoin="round" d="M12.013 22.122h-.01a.52.52 0 01-.68.21.502.502 0 01-.27-.45v-8.97h-8.97l-.01-.001a.513.513 0 01-.24-.96L21.61 1.62h-.01a.49.49 0 01.67.21c.07.14.07.31 0 .46z"/></symbol><symbol viewBox="-1 -1 26 26" id="ai-computer-bug"><g stroke-linecap="round" stroke-linejoin="round"><path d="M16.42 8.842l-.01-.001c.25 0 .46-.21.46-.47 0-.04-.01-.07-.02-.11l-.01-.01c-.6-2.7-3.27-4.41-5.96-3.81a4.986 4.986 0 00-3.8 3.76h-.01c-.07.26.1.53.37.6.03 0 .07.01.11.01z"/><path d="M8 .84v1c0 1.13.91 2.21 1.6 3.11M16.009.84v1c-.01 1.13-.93 2.21-1.609 3.11M7 10.842v6c0 2.12 2.95 5.11 4.318 6.38l-.01-.01c.38.35.97.35 1.36 0 1.36-1.28 4.31-4.27 4.31-6.39v-6zM7 10.844H5.75c-1.39 0-2.286 1.03-3.25 2M7 14.846H5.75c-1.39 0-2.286 1.03-3.25 2"/><path d="M7.633 18.844H6.25c-1.39 0-2.286 1.03-3.25 2M17 10.844h1.25c1.38 0 2.28 1.03 3.25 2M17 14.846h1.25c1.38 0 2.28 1.03 3.25 2M16.367 18.844h1.38c1.38 0 2.28 1.03 3.25 2"/></g></symbol><symbol viewBox="-1 -1 26 26" id="ai-controls-forward"><path stroke-linecap="round" stroke-linejoin="round" d="M.83 21.273H.82c-.01.55.44 1 .99 1 .24 0 .48-.09.66-.26l7.33-6.53v5-.01c-.01.55.44 1 .99 1 .21 0 .42-.08.6-.2l11.334-8.5v-.01a.994.994 0 00-.02-1.6l-11.34-8.5h0a.991.991 0 00-1.4.19c-.13.17-.21.38-.21.6v5L2.42 1.92h0A1 1 0 001 2c-.17.18-.26.42-.26.66z"/></symbol><symbol viewBox="-1 -1 26 26" id="ai-controls-pause"><g stroke-linecap="round" stroke-linejoin="round"><rect width="6" height="19" x="4" y="2.5" rx="1"/><rect width="6" height="19" x="14" y="2.5" rx="1"/></g></symbol><symbol viewBox="-1 -1 26 26" id="ai-controls-play"><path stroke-linecap="round" stroke-linejoin="round" d="M1.11 2.11H1.1c0-.56.44-1 1-1 .15 0 .3.03.44.1l19.764 9.88h0c.49.24.69.84.44 1.34-.1.19-.26.34-.45.44L2.52 22.75v-.01c-.5.24-1.1.04-1.35-.45-.07-.14-.11-.3-.11-.45z"/></symbol><symbol viewBox="-1 -1 26 26" id="ai-controls-record"><path stroke-linecap="round" stroke-linejoin="round" d="M12 2.5a9.5 9.5 0 100 19 9.5 9.5 0 100-19z"/></symbol><symbol viewBox="-1 -1 26 26" id="ai-controls-rewind"><path stroke-linecap="round" stroke-linejoin="round" d="M23.167 2.72h-.01c0-.56-.45-1.01-1-1.01a.962.962 0 00-.67.25l-7.34 6.52v-5h0c0-.56-.45-1-1-1-.22 0-.43.07-.6.2L1.2 11.18h-.01c-.45.33-.54.95-.2 1.4.05.07.12.14.2.19l11.334 8.5-.01-.01c.44.33 1.06.24 1.4-.2.12-.18.2-.39.2-.6v-5l7.33 6.52h0c.41.36 1.04.33 1.41-.09.16-.19.25-.43.25-.67z"/></symbol><symbol viewBox="-1 -1 26 26" id="ai-controls-stop"><rect width="19" height="19" x="2.5" y="2.5" rx="1" stroke-linecap="round" stroke-linejoin="round"/></symbol><symbol viewBox="-1 -1 26 26" id="ai-copy-paste-1"><g stroke-linecap="round" stroke-linejoin="round"><path d="M9.5 22.5H1.49c-.56-.01-1-.45-1-1.01V4.489h0a.99.99 0 01.99-1.01h4M13.5 3.5h4-.01c.55-.01 1 .44 1 .99v3.5"/><path d="M11.5 2.5v0a2 2 0 00-2-2c-1.11 0-2 .89-2 2h-2v3h8v-3zM22.5 22.5v0c0 .55-.45 1-1 1h-9.01c-.56-.01-1-.45-1-1.01V10.989h0a.99.99 0 01.99-1.01h7.086c.26 0 .51.1.7.29l1.91 1.91-.01-.01c.18.18.29.44.29.7zM14.5 14.5h5M14.5 17.5h5"/></g></symbol><symbol viewBox="-1 -1 26 26" id="ai-credit-card-1"><g stroke-linecap="round" stroke-linejoin="round"><rect width="23" height="16" x=".504" y="4" rx="2"/><path d="M.5 8h23M20.5 12h-3M11.5 12h-8M6.5 15h-3"/></g></symbol><symbol viewBox="-1 -1 26 26" id="ai-cursor"><path stroke-linecap="round" stroke-linejoin="round" d="M13.675 11.671l2.94-2.95h-.01c.19-.2.19-.52-.01-.71a.436.436 0 00-.19-.12L4.13 3.51l-.01-.01a.49.49 0 00-.64.3c-.04.1-.04.22 0 .33l4.37 12.26h0c.09.26.37.39.63.3.06-.03.13-.07.18-.12l2.94-2.95 6.14 6.14-.01-.01c.19.19.51.19.7 0l1.29-1.3h-.01c.19-.2.19-.52 0-.71z"/></symbol><symbol viewBox="-1 -1 26 26" id="ai-cursor-1"><path stroke-linecap="round" stroke-linejoin="round" d="M10.97 22.69v-.01c-.08.26-.36.41-.62.34a.53.53 0 01-.33-.29L1.52 2.17l-.01-.01a.5.5 0 01.27-.66c.12-.06.25-.06.38 0l20.56 8.49-.01-.01c.25.1.37.39.26.65a.49.49 0 01-.33.28l-8.86 2.53h-.01c-.17.04-.3.17-.35.34z"/></symbol><symbol viewBox="-1 -1 26 26" id="ai-cursor-hand-1"><g stroke-linecap="round" stroke-linejoin="round"><path d="M9.5 23.5c-1.5-2-5.417-8.673-5.417-8.673l-.01-.01a1.2 1.2 0 011.75-1.61l2.65 2.27V3.97h0a1.496 1.496 0 112.99-.02s0 0 0 0v4.5h2-.01c.55-.01 1 .44 1 .99h2-.01c.55-.01 1 .44 1 .99h1-.01c1.1-.01 2 .89 2 1.99v2.6-.01c0 .92-.13 1.85-.39 2.74l-1.62 5.65M14.5 9.5v2M11.5 8.5v3M17.5 10.5v2"/></g></symbol><symbol viewBox="-1 -1 26 26" id="ai-cursor-hand-2"><g stroke-linecap="round" stroke-linejoin="round"><path d="M11.5 5.5v-2h0a1.496 1.496 0 112.99-.02s0 0 0 0v2"/><path d="M14.5 11.5v-6h0a1.496 1.496 0 112.99-.02s0 0 0 0v3"/><path d="M17.5 13V8.5h0a1.496 1.496 0 112.99-.02s0 0 0 0v10c0 2.76-2.24 5-5 5h-3.34 0a5.028 5.028 0 01-4.23-2.33c-1.73-2.72-3.86-7.18-3.86-7.18h0c-.38-.55-.25-1.3.3-1.67.44-.31 1.04-.29 1.45.06l2.65 3.1v-10h0a1.496 1.496 0 112.99-.02s0 0 0 0v6"/></g></symbol><symbol viewBox="-1 -1 26 26" id="ai-cursor-select-frame"><g stroke-linecap="round" stroke-linejoin="round"><path d="M4 9V5h0a.99.99 0 01.99-1.01h3.98M20 9V5v0c0-.56-.45-1-1-1h-3.98M4 15v4h0c0 .55.44.99 1 .99h3.98M20 15v4c0 .55-.45 1-1 1h-3.98"/></g></symbol><symbol viewBox="-1 -1 26 26" id="ai-cursor-select-frame-1"><g stroke-linecap="round" stroke-linejoin="round"><path d="M8.99 4v4c0 .55-.45 1-1 1H4.01M15.01 4v4h0c0 .55.44.99 1 .99h3.98M8.99 20v-4 0c0-.56-.45-1-1-1H4.01M15.01 20v-4h0a.99.99 0 01.99-1.01h3.98"/></g></symbol><symbol viewBox="-1 -1 26 26" id="ai-cursor-target-1"><g stroke-linecap="round" stroke-linejoin="round"><path d="M12 3.99a8 8 0 100 16 8 8 0 100-16zM12 1v6M1 12h6M12 23v-6M23 12h-6"/></g></symbol><symbol viewBox="-1 -1 26 26" id="ai-data-transfer-diagonal"><g stroke-linecap="round" stroke-linejoin="round"><path d="M1.5 19l9-9M13 14.5L22.5 5M7.5 19h-6v-6M22.5 11V5h-6"/></g></symbol><symbol viewBox="-1 -1 26 26" id="ai-database-2"><g stroke-linecap="round" stroke-linejoin="round"><path d="M12 1.5a9.5 4 0 100 8 9.5 4 0 100-8zM21.5 9.5c0 2.21-4.26 4-9.5 4-5.25 0-9.5-1.79-9.5-4M21.5 14c0 2.21-4.26 4-9.5 4-5.25 0-9.5-1.79-9.5-4"/><path d="M2.5 5.5v13c0 2.21 4.254 4 9.5 4 5.24 0 9.5-1.79 9.5-4v-13"/></g></symbol><symbol viewBox="-1 -1 26 26" id="ai-delete-2"><g stroke-linecap="round" stroke-linejoin="round"><path d="M12 .5a11.5 11.5 0 100 23 11.5 11.5 0 100-23zM7 7l10 10M17 7L7 17"/></g></symbol><symbol viewBox="-1 -1 26 26" id="ai-developer-community-github-1"><path stroke-linecap="round" stroke-linejoin="round" d="M12 .5h0C5.64.49.49 5.63.48 11.98c-.01 4.95 3.16 9.36 7.87 10.92.57.1.75-.24.75-.55v-2c-3.2.69-3.87-1.52-3.87-1.52h0c-.22-.7-.67-1.3-1.28-1.69-1.05-.72.07-.7.07-.7h0c.73.1 1.38.53 1.76 1.18h0a2.444 2.444 0 003.32.96c0-.01.01-.01.02-.02h-.01c.05-.59.31-1.13.72-1.54-2.553-.3-5.24-1.28-5.24-5.686l-.01-.01c-.02-1.15.4-2.25 1.18-3.09l-.01-.01c-.36-1-.32-2.09.11-3.05 0 0 .96-.31 3.16 1.18h-.01c1.88-.52 3.87-.52 5.75-.01 2.2-1.49 3.15-1.18 3.15-1.18h0c.42.96.46 2.05.11 3.04h0c.77.83 1.2 1.94 1.18 3.08 0 4.42-2.689 5.391-5.26 5.67h0c.55.55.84 1.33.78 2.11v3.18c0 .3.18.64.77.53h-.01c6.02-2.01 9.29-8.52 7.28-14.54A11.515 11.515 0 0011.82.35z"/></symbol><symbol viewBox="-1 -1 26 26" id="ai-direction-button-arrows"><g stroke-linecap="round" stroke-linejoin="round"><path d="M12 1v22M23 12H1M4 8.998l-3 3 3 3M9 19.99l3 3 3-3M20 14.998l3-3-3-3M15 3.99l-3-3-3 3"/></g></symbol><symbol viewBox="-1 -1 26 26" id="ai-dislike-2"><g stroke-linecap="round" stroke-linejoin="round"><path d="M23.5 15.62h-2l-.01-.001c-.56-.01-1-.45-1-1.01 0 0 0 0 0 0v-12h0a.99.99 0 01.99-1.01h2"/><path d="M20.5 4.628C13.161.89 13.519 1.388 7.23 1.388c-2.635 0-3.96 1.71-4.74 4.22v.01l-1.907 6.4v.01-.01c-.32 1.05.27 2.17 1.33 2.49.18.05.37.08.57.08h4.9v-.001c1.1-.01 2 .89 2 1.99 0 .17-.03.34-.07.51l-.89 3.34h-.01a1.7 1.7 0 001.22 2.09c.69.18 1.42-.09 1.83-.68l4.89-6.93h-.01c.37-.54.98-.85 1.63-.85h2.46"/></g></symbol><symbol viewBox="-1 -1 26 26" id="ai-download-bottom"><g stroke-linecap="round" stroke-linejoin="round"><path d="M23 18.218v1.91-.01a2.874 2.874 0 01-2.87 2.86H3.86l-.01-.001C2.26 22.96.98 21.68.98 20.1v-1.92M12 18.11V1M19 11.1l-7 7-7-7"/></g></symbol><symbol viewBox="-1 -1 26 26" id="ai-drawer-download"><g stroke-linecap="round" stroke-linejoin="round"><path d="M23.5 22.5v0c0 .55-.45 1-1 1H1.49c-.56-.01-1-.45-1-1.01v-6.001h7v1h0c0 1.1.89 1.99 2 1.99h5v-.001c1.1-.01 1.99-.9 1.99-2.01v-1h7z"/><path d="M.5 16.5L3.711 11h-.01c.17-.31.5-.5.86-.51h1.92M17.5 10.5h1.92a1 1 0 01.86.5l3.21 5.5M12 11.5V.5M16 7.5l-4 4-4-4"/></g></symbol><symbol viewBox="-1 -1 26 26" id="ai-drawer-file"><g stroke-linecap="round" stroke-linejoin="round"><path d="M19.5 14.5v-13 0c0-.56-.45-1-1-1H5.49c-.56 0-1 .44-1 1 0 0 0 0 0 0v13M23.5 22.5v0c0 .55-.45 1-1 1H1.49c-.56-.01-1-.45-1-1.01v-6.001h7v1h0c0 1.1.89 1.99 2 1.99h5v-.001c1.1-.01 1.99-.9 1.99-2.01v-1h7zM.5 16.5l4-6M19.5 10.5l4 6M8.5 3.5h2M10.5 6.5h5M8.5 9.5h7M8.5 12.5h7"/></g></symbol><symbol viewBox="-1 -1 26 26" id="ai-drawer-open"><g stroke-linecap="round" stroke-linejoin="round"><path d="M23.5 17.5v0c0 .55-.45 1-1 1H1.49c-.56-.01-1-.45-1-1.01v-6.001h7v1h0c0 1.1.89 1.99 2 1.99h5v-.001c1.1-.01 1.99-.9 1.99-2.01v-1h7z"/><path d="M.5 11.5L3.71 6H3.7c.17-.31.5-.5.86-.51h14.85a1 1 0 01.86.5l3.21 5.5"/></g></symbol><symbol viewBox="-1 -1 26 26" id="ai-drawer-upload"><g stroke-linecap="round" stroke-linejoin="round"><path d="M23.5 22.5v0c0 .55-.45 1-1 1H1.49c-.56-.01-1-.45-1-1.01v-6.001h7v1h0c0 1.1.89 1.99 2 1.99h5v-.001c1.1-.01 1.99-.9 1.99-2.01v-1h7z"/><path d="M.5 16.5L3.711 11h-.01c.17-.31.5-.5.86-.51h2.92M16.5 10.5h2.92a1 1 0 01.86.5l3.21 5.5M12 .5v11M8 4.5l4-4 4 4"/></g></symbol><symbol viewBox="-1 -1 26 26" id="ai-earth-3"><g stroke-linecap="round" stroke-linejoin="round"><path d="M23.5 11.94h0c0 6.37-5.17 11.54-11.54 11.54h-.01l-.01-.01C5.54 23.36.42 18.11.47 11.71v-.01C.47 5.58 5.36.59 11.47.46c.16-.01.33-.01.5-.01h-.01C18.27.41 23.42 5.5 23.45 11.82v.08zM11.505.5c-6 6.5-6 14.98 0 22.98M12.505.5c6 6.5 6 14.977 0 22.977M2.39 5.48h19.13M.5 11.48h23M1.99 17.48h20.09"/></g></symbol><symbol viewBox="-1 -1 26 26" id="ai-email-action-unread"><g stroke-linecap="round" stroke-linejoin="round"><rect width="23" height="16" x=".5" y="3.954" rx="2"/><path d="M22.911 4.53l-10.92 8.918L1.08 4.53"/></g></symbol><symbol viewBox="-1 -1 26 26" id="ai-expand-1"><g stroke-linecap="round" stroke-linejoin="round"><path d="M15.5 8.5l8-8M.5 23.5l8-8M5.5 23.499h-5v-5M23.5 5.49v-5h-5M15.5 15.5l8 8M.5.5l8 8M.5 5.49v-5h5M18.5 23.499h5v-5"/></g></symbol><symbol viewBox="-1 -1 26 26" id="ai-expand-3"><g stroke-linecap="round" stroke-linejoin="round"><path d="M8.5 15.5l-8 8M5.5 23.499h-5v-5M15.5 8.5l8-8M18.5.499h5v5"/></g></symbol><symbol viewBox="-1 -1 26 26" id="ai-expand-vertical-1"><g stroke-linecap="round" stroke-linejoin="round"><path d="M12 .5v23M7 5.49l5-5 5 5M7 18.499l5 5 5-5"/></g></symbol><symbol viewBox="-1 -1 26 26" id="ai-expand-vertical-3"><g stroke-linecap="round" stroke-linejoin="round"><path d="M17 12.5H7.5M12 23.5v-8M9 20.499l3 3 3-3M12 .5v8M9 3.49l3-3 3 3"/></g></symbol><symbol viewBox="-1 -1 26 26" id="ai-face-id"><g stroke-linecap="round" stroke-linejoin="round"><path d="M.5 6.5v-3h0A2.996 2.996 0 013.49.49h3M23.5 6.5v-3 0c0-1.66-1.35-3-3-3h-3M.5 17.5v3h0c0 1.65 1.34 2.99 3 2.99h3M23.5 17.5v3c0 1.65-1.35 3-3 3h-3M12.5 8v4.5c0 .82-.68 1.5-1.5 1.5h-.5M7.5 8v2.5M17.5 8v2.5M8.23 17l-.01-.01c2.11 2 5.42 2 7.53 0"/></g></symbol><symbol viewBox="-1 -1 26 26" id="ai-file-code"><g stroke-linecap="round" stroke-linejoin="round"><path d="M21.207 4.5l-.01-.01c.18.18.29.44.29.7v17.29c0 .55-.45 1-1 1H3.477c-.56-.01-1-.45-1-1.01V1.469h0A.983.983 0 013.46.45h13.29c.26 0 .52.1.7.29z"/><path d="M10 9.004l-3.5 3.5L10 16M14 9.004l3.5 3.5L14 16"/></g></symbol><symbol viewBox="-1 -1 26 26" id="ai-file-code-1"><g stroke-linecap="round" stroke-linejoin="round"><path d="M21.207 4.5l-.01-.01c.18.18.29.44.29.7v17.29c0 .55-.45 1-1 1H3.477c-.56-.01-1-.45-1-1.01V1.469h0A.983.983 0 013.46.45h13.29c.26 0 .52.1.7.29z"/><path d="M10.5 8.5h-.6 0c-.72-.06-1.35.47-1.41 1.18-.01.03-.01.06-.01.09v1.24V11c-.02.45-.29.86-.7 1.07l-1.31.9 1.3.9h0c.41.2.68.61.7 1.07v1.24l-.01-.01c0 .71.58 1.29 1.3 1.29.03-.01.06-.01.1-.01h.59M13.5 8.5h.59-.01c.71-.06 1.34.47 1.4 1.18v1.34l-.01-.01c.01.45.28.86.69 1.07l1.3.9-1.3.9v-.01c-.42.2-.69.61-.7 1.07v1.24-.01a1.31 1.31 0 01-1.31 1.29c-.04-.01-.07-.01-.11-.01h-.6"/></g></symbol><symbol viewBox="-1 -1 26 26" id="ai-filter-1"><path stroke-linecap="round" stroke-linejoin="round" d="M21.8 2.1v-.01a1.002 1.002 0 00-.8-1.6H2.97c-.56 0-1 .44-1 1 0 .21.07.42.2.6l7.8 10.49v9.909-.01c-.01.55.44 1 .99 1 .21 0 .42-.08.6-.2l2-1.5v-.01c.25-.19.39-.49.39-.8v-8.41z"/></symbol><symbol viewBox="-1 -1 26 26" id="ai-filter-text"><g stroke-linecap="round" stroke-linejoin="round"><path d="M16.047 2.16v-.01a1.01 1.01 0 00-.77-1.67H2.67V.479c-.56 0-1 .44-1 1 0 .24.08.47.24.65l5.55 6.34V14.1h-.01a.988.988 0 001.54.83l1-.67h-.01c.27-.19.44-.5.44-.84V8.45zM17.5 14.5h4M15.5 17.5h6M15.5 20.5h6M13.5 12.5h0a.99.99 0 01.99-1.01h8-.01c.55-.01 1 .44 1 .99v10c0 .55-.45 1-1 1h-8.01c-.56-.01-1-.45-1-1.01v-.001z"/></g></symbol><symbol viewBox="-1 -1 26 26" id="ai-flag-1"><g stroke-linecap="round" stroke-linejoin="round"><path d="M4.257 1.5h17c.55 0 .64.28.21.625L14.747 7.5l6.72 5.375c.43.34.33.625-.22.625h-17M2.26.5v23"/></g></symbol><symbol viewBox="-1 -1 26 26" id="ai-flash"><path stroke-linecap="round" stroke-linejoin="round" d="M8 23.49l3-11H7l3-12h8l-5 8h5l-10 15z"/></symbol><symbol viewBox="-1 -1 26 26" id="ai-floppy-disk-2"><g stroke-linecap="round" stroke-linejoin="round"><path d="M23.5 1.5v0c0-.56-.45-1-1-1H3.91V.499c-.27 0-.52.1-.71.29L.78 3.199v-.01c-.19.18-.3.44-.3.7v18.58-.01c-.01.55.44 1 .99 1h21-.01c.55 0 1-.45 1-1z"/><path d="M19.5 6.5v0c0 .55-.45 1-1 1h-13l-.01-.001c-.56-.01-1-.45-1-1.01 0 0 0 0 0 0v-6h15zM4.5 23.5h15v-3 0c0-.56-.45-1-1-1H5.49c-.56 0-1 .44-1 1 0 0 0 0 0 0zM12 10.5a3 3 0 100 6 3 3 0 100-6z"/></g></symbol><symbol viewBox="-1 -1 26 26" id="ai-folder"><path stroke-linecap="round" stroke-linejoin="round" d="M21 8v0c0-.56-.45-1-1-1h-9.51c-.28 0-.54-.12-.72-.31L8.42 5.3h0a.992.992 0 00-.72-.31H4.25c-.72 0-1.29.57-1.29 1.28 0 0 0 0 0 0v11.42h0c0 .71.57 1.28 1.28 1.28h15.42l-.01-.001c.71 0 1.28-.58 1.28-1.29z"/></symbol><symbol viewBox="-1 -1 26 26" id="ai-folder-open"><g stroke-linecap="round" stroke-linejoin="round"><path d="M23.26 10.2h-.01a.997.997 0 00-.78-1.18.761.761 0 00-.21-.03H10.4v-.001c-.48 0-.89-.34-.99-.8l-.28-1.4h0c-.1-.47-.51-.81-.99-.81H1.68l-.01-.001a.99.99 0 00-1.01.99c-.01.06 0 .13.02.2l2.6 13-.01-.01c.09.46.5.8.98.8h15.96c.47 0 .88-.34.98-.8.41-2.07 1.51-7.57 2-10zM2.72 4h0a.99.99 0 01.99-1.01h17-.01c.55-.01 1 .44 1 .99v3"/></g></symbol><symbol viewBox="-1 -1 26 26" id="ai-gauge-dashboard"><g stroke-linecap="round" stroke-linejoin="round"><path d="M12 12.5a1.5 1.5 0 100 3 1.5 1.5 0 100-3zM13.06 12.94l4.95-4.95M2.5 14.5h2M21.5 14.5h-2M20.78 10.36l-1.85.77M15.64 5.22l-.77 1.85M12 4.5v2M8.36 5.22l.77 1.85M5.28 7.28L6.7 8.7M3.22 10.36l1.85.77"/><path d="M12 2.5h-.01C5.63 2.5.49 7.64.49 14s0 0 0 0v3.5h0c0 .55.44.99 1 .99h21-.01c.55 0 1-.45 1-1v-3.51 0c0-6.36-5.15-11.5-11.5-11.5h-.01z"/></g></symbol><symbol viewBox="-1 -1 26 26" id="ai-graph-stats"><path stroke-linecap="round" stroke-linejoin="round" d="M.5 12.001h6l3-10 3 19 3-14 2 5h6"/></symbol><symbol viewBox="-1 -1 26 26" id="ai-graph-stats-ascend"><g stroke-linecap="round" stroke-linejoin="round"><path d="M1.25 18.25L8.586 10h-.01c.37-.42 1-.46 1.43-.11l4.464 3.72h0c.42.35 1.05.3 1.43-.12l6.83-7.76"/><path d="M15.81 5.75h6.93v5.97"/></g></symbol><symbol viewBox="-1 -1 26 26" id="ai-graph-stats-descend"><g stroke-linecap="round" stroke-linejoin="round"><path d="M1.25 5.75L8.586 14l-.01-.01c.37.41 1 .45 1.43.1l4.464-3.72v-.01c.42-.36 1.05-.31 1.43.11l6.83 7.75"/><path d="M15.81 18.25h6.93v-5.98"/></g></symbol><symbol viewBox="-1 -1 26 26" id="ai-hammer-wench"><g stroke-linecap="round" stroke-linejoin="round"><path d="M18.25 2.251c-1.061 1.061-3.04.96-4.75-.75L12 3l8 8 3.5-3.5zM11.939 9.94l-3.8-3.792v-.01a4.01 4.01 0 00-2-5.3A3.99 3.99 0 002.83.82l2.14 2.14v2h-2L.83 2.818v-.01a3.99 3.99 0 001.99 5.29c1.04.47 2.24.47 3.29 0l3.79 3.79M12.061 14.06l3.79 3.79v-.01a3.99 3.99 0 001.99 5.29c1.04.47 2.24.47 3.29 0l-2.15-2.15v-2h2l2.14 2.14v-.01a4.01 4.01 0 00-2-5.3 4 4 0 00-3.3-.01l-3.8-3.8"/><path d="M15.439 6.44L.93 20.94v-.01c-.59.58-.59 1.53 0 2.122a1.5 1.5 0 002.12-.01l14.5-14.5"/></g></symbol><symbol viewBox="-1 -1 26 26" id="ai-hand-drag"><g stroke-linecap="round" stroke-linejoin="round"><path d="M7.5 15.5v-9h0a1.496 1.496 0 112.99-.02s0 0 0 0v5"/><path d="M10.5 6.5v-1h0a1.496 1.496 0 112.99-.02s0 0 0 0v1"/><path d="M13.5 11.5v-5h0a1.496 1.496 0 112.99-.02s0 0 0 0v2"/><path d="M16.5 12.5v-4h0a1.496 1.496 0 112.99-.02s0 0 0 0v9c0 2.76-2.24 5-5 5h-3.34c-3.665 0-6.67-4-6.67-6v-4.001c0-.83.67-1.5 1.5-1.5h1.5"/></g></symbol><symbol viewBox="-1 -1 26 26" id="ai-hand-drag-1"><g stroke-linecap="round" stroke-linejoin="round"><path d="M7.5 12.5V9h0a1.496 1.496 0 112.99-.02s0 0 0 0v1M13.5 10V9h0a1.496 1.496 0 112.99-.02s0 0 0 0v1"/><path d="M13.5 9V8v0c0-.83-.68-1.5-1.5-1.5-.83 0-1.5.67-1.5 1.5v1M16.5 11.5V10h0a1.496 1.496 0 112.99-.02s0 0 0 0v5.5c0 2.76-2.24 5-5 5h-3.34c-5.67 0-6.67-5-6.67-7v-1c0-.98.5-2 1.5-2h1.5"/></g></symbol><symbol viewBox="-1 -1 26 26" id="ai-hard-drive"><g stroke-linecap="round" stroke-linejoin="round"><rect width="23" height="8" x=".5" y="13" rx="2"/><path d="M3.5 18h17M20.25 15.5h-.01c-.14 0-.25.11-.25.25 0 .13.11.25.25.24.13-.01.25-.12.24-.26v0c0-.14-.12-.25-.25-.25v0M23.438 14.5l-2.46-9.63h0a2.513 2.513 0 00-2.43-1.89H5.41c-1.15 0-2.14.77-2.43 1.88L.52 14.48"/></g></symbol><symbol viewBox="-1 -1 26 26" id="ai-headphones-customer-support-human"><g stroke-linecap="round" stroke-linejoin="round"><path d="M16 21.5h1c1.93 0 3.5-1.07 3.5-3v-2.17"/><path d="M19.5 8.5h-.01c2.2-.01 4 1.78 4 3.99a4 4 0 01-2.67 3.77h-.01a1.003 1.003 0 01-1.34-.95zM4.5 8.5l-.01-.001a3.993 3.993 0 00-4.01 3.99 3.976 3.976 0 002.66 3.77h0a.996.996 0 001.27-.61c.03-.11.05-.22.05-.34z"/><path d="M19.5 10V8v0c0-4.15-3.36-7.5-7.5-7.5A7.49 7.49 0 004.5 8v2M11.5 20.5h4-.01c.27-.01.5.22.5.49v1c0 .27-.23.5-.5.5h-4.01c-.56-.01-1-.45-1-1.01v-.001 0-.01c0-.56.44-1 1-1zM15.225 14.66h-.01a4.563 4.563 0 01-6.45 0l-.01-.01"/><path d="M8.75 9.661h-.01c.13-.01.25.11.25.24s-.12.25-.25.25c-.14 0-.25-.12-.26-.25h0c-.01-.14.11-.26.24-.26M15.25 9.661h-.01c.13-.01.25.11.25.24s-.12.25-.25.25c-.14 0-.25-.12-.26-.25h0c-.01-.14.11-.26.24-.26"/></g></symbol><symbol viewBox="-1 -1 26 26" id="ai-help-wheel"><g stroke-linecap="round" stroke-linejoin="round"><path d="M12 .5a11.5 11.5 0 100 23 11.5 11.5 0 100-23z"/><path d="M12 6a6 6 0 100 12 6 6 0 100-12zM21.42 5.41l-4 4M14.59 6.59l4.02-4.02M5.41 21.42l4-4M6.59 14.59L2.58 18.6M18.6 21.42l-4-4.01M17.42 14.58l4.01 4.01M2.58 5.4l4.01 4.01M9.42 6.58L5.41 2.57"/></g></symbol><symbol viewBox="-1 -1 26 26" id="ai-hierarchy-1"><g stroke-linecap="round" stroke-linejoin="round"><path d="M3 18.49a2.5 2.5 0 100 5 2.5 2.5 0 100-5zM9.5 6.99a2.5 2.5 0 100 5 2.5 2.5 0 100-5zM16.5 12.99a2.5 2.5 0 100 5 2.5 2.5 0 100-5zM21 .49a2.5 2.5 0 100 5 2.5 2.5 0 100-5zM4.23 18.82l4.04-7.14M11.4 11.13l3.2 2.74M17.35 13.15l2.8-7.8"/></g></symbol><symbol viewBox="-1 -1 26 26" id="ai-house-chimney"><path stroke-linecap="round" stroke-linejoin="round" d="M19.5 8.4V3.5v0c0-.28-.23-.5-.5-.5h-2.01c-.28 0-.5.22-.5.5 0 0 0 0 0 0v2.14l-4.17-3.83h0a.506.506 0 00-.68-.01l-11 10.32H.63c-.21.18-.22.5-.03.7.09.1.22.16.36.16h2.49v9.5h0c0 .55.44.99 1 .99h15-.01c.55 0 1-.45 1-1v-9.5h2.49l-.01-.001c.27 0 .5-.23.5-.5 0-.15-.06-.28-.17-.37z"/></symbol><symbol viewBox="-1 -1 26 26" id="ai-hyperlink-2"><g stroke-linecap="round" stroke-linejoin="round"><path d="M14.8 12.56l.1.1-.01-.01c.87.87 2.29.87 3.17 0L22.5 8.2v-.01c1.3-1.32 1.3-3.45-.01-4.76l-1.98-1.98h0a3.383 3.383 0 00-4.76-.01L11.3 5.88v-.01c-.88.87-.88 2.29-.01 3.17l.1.1M9.2 11.43l-.1-.1h0c-.88-.88-2.3-.88-3.18-.01l-4.45 4.45v-.01a3.37 3.37 0 00-.01 4.75l1.971 1.971-.01-.01a3.362 3.362 0 004.75 0l4.44-4.45v-.01c.87-.88.87-2.3 0-3.17l-.01-.01-.1-.1M7.64 16.36l8.72-8.72"/></g></symbol><symbol viewBox="-1 -1 26 26" id="ai-image-file-landscape"><g stroke-linecap="round" stroke-linejoin="round"><path d="M8.5 7.5a2 2 0 100 4 2 2 0 100-4zM13.924 12.17l-.01-.01a.495.495 0 00-.69-.16c-.07.04-.12.09-.16.15l-2.64 4.22-1.08-1.73-.01-.01a.495.495 0 00-.69-.16c-.07.04-.12.09-.16.15l-3.02 4.82h13z"/><path d="M21.207 4.5l-.01-.01c.18.18.29.44.29.7v17.29c0 .55-.45 1-1 1H3.477c-.56-.01-1-.45-1-1.01V1.469h0A.983.983 0 013.46.45h13.29c.26 0 .51.1.7.29z"/></g></symbol><symbol viewBox="-1 -1 26 26" id="ai-iris-scan-1"><g stroke-linecap="round" stroke-linejoin="round"><path d="M.5 3.5v-2h0A.99.99 0 011.49.49h2M23.5 3.5v-2 0c0-.56-.45-1-1-1h-2M.5 20.5v2h0c0 .55.44.99 1 .99h2M23.5 20.5v2c0 .55-.45 1-1 1h-2M12 8.5a3.5 3.5 0 100 7 3.5 3.5 0 100-7z"/><path d="M12 11.75h-.01c.13-.01.25.11.25.24s-.12.25-.25.25c-.14 0-.25-.12-.26-.25h0c-.01-.14.11-.26.24-.26"/><path d="M21.85 12s-4.29 6-9.86 6c-5.58 0-9.86-6-9.86-6s4.28-6 9.85-6c5.57 0 9.85 6 9.85 6z"/></g></symbol><symbol viewBox="-1 -1 26 26" id="ai-keyboard"><g stroke-linecap="round" stroke-linejoin="round"><rect width="23" height="10" x=".5" y="13.5" rx="2"/><path d="M3.5 13.5v-1h0a2.996 2.996 0 012.99-3.01h13.5l-.01-.001a3.504 3.504 0 000-7.01h-6.5l-.01-.001a1.51 1.51 0 01-1.5-1.5V.477M4 20.5h1M4 18.5h1M7 18.5h1M10 18.5h1M13 18.5h1M16 18.5h1M19 18.5h1M4 16.5h1M7 16.5h1M10 16.5h1M13 16.5h1M16 16.5h1M19 16.5h1M7 20.5h10M19 20.5h1"/></g></symbol><symbol viewBox="-1 -1 26 26" id="ai-keyboard-arrow-bottom-left"><g stroke-linecap="round" stroke-linejoin="round"><path d="M7.5 23.497h-7v-7M.5 23.5l16-16"/></g></symbol><symbol viewBox="-1 -1 26 26" id="ai-keyboard-arrow-bottom-right"><g stroke-linecap="round" stroke-linejoin="round"><path d="M23.5 16.497v7h-7M23.5 23.5l-16-16"/></g></symbol><symbol viewBox="-1 -1 26 26" id="ai-keyboard-arrow-down"><g stroke-linecap="round" stroke-linejoin="round"><path d="M16.5 18.497l-5 5-5-5M11.5 23.5V.5"/></g></symbol><symbol viewBox="-1 -1 26 26" id="ai-keyboard-arrow-left"><g stroke-linecap="round" stroke-linejoin="round"><path d="M5.5 17.497l-5-5 5-5M.5 12.5h23"/></g></symbol><symbol viewBox="-1 -1 26 26" id="ai-keyboard-arrow-right"><g stroke-linecap="round" stroke-linejoin="round"><path d="M18.5 7.497l5 5-5 5M23.5 12.5H.5"/></g></symbol><symbol viewBox="-1 -1 26 26" id="ai-keyboard-arrow-top-left"><g stroke-linecap="round" stroke-linejoin="round"><path d="M.5 7.497v-7h7M.5.5l16 16"/></g></symbol><symbol viewBox="-1 -1 26 26" id="ai-keyboard-arrow-top-right"><g stroke-linecap="round" stroke-linejoin="round"><path d="M16.499.497h7v7M23.5.5l-16 16"/></g></symbol><symbol viewBox="-1 -1 26 26" id="ai-keyboard-arrow-up"><g stroke-linecap="round" stroke-linejoin="round"><path d="M6.5 5.497l5-5 5 5M11.5.5v23"/></g></symbol><symbol viewBox="-1 -1 26 26" id="ai-laptop"><g stroke-linecap="round" stroke-linejoin="round"><rect width="17" height="12" x="3.5" y="1" rx="2"/><path d="M23.427 21.293h0c.23.66-.12 1.39-.79 1.63-.14.04-.29.07-.43.07H1.76l-.01-.001a1.3 1.3 0 01-1.22-1.72l2.26-6.407v-.01a2.8 2.8 0 012.66-1.89h13-.01a2.81 2.81 0 012.66 1.88z"/><path d="M15.5 23h-7l1-3h5l1 3zM5.49 16h1M8.49 16h1M14.49 16h1M17.5 16h1M11.49 16h1M4.49 18h1M7.49 18h9.01M18.5 18h1"/></g></symbol><symbol viewBox="-1 -1 26 26" id="ai-layers"><g stroke-linecap="round" stroke-linejoin="round"><path d="M22.5 10.5l-10.3 4.913v-.01c-.13.05-.28.05-.4 0l-10.3-4.92"/><path d="M22.5 13.5l-10.3 4.913v-.01c-.13.05-.28.05-.4 0L1.5 13.48"/><path d="M22.5 16.5l-10.3 4.913v-.01c-.13.05-.28.05-.4 0L1.5 16.48M12.2 12.413v-.01c-.13.05-.28.05-.4 0L1.55 7.94h0a.501.501 0 01-.26-.66.49.49 0 01.25-.26l10.24-4.46v-.01c.12-.06.27-.06.4 0L22.42 7l-.01-.01c.25.11.36.4.25.65-.06.11-.15.2-.26.25z"/></g></symbol><symbol viewBox="-1 -1 26 26" id="ai-layout-column"><g stroke-linecap="round" stroke-linejoin="round"><path d="M6.5 21.5v0c0 .55-.45 1-1 1H1.49c-.56-.01-1-.45-1-1.01V1.489h0A.993.993 0 011.48.47h4-.01c.55-.01 1 .44 1 .99zM14.5 21.5v0c0 .55-.45 1-1 1H9.49c-.56-.01-1-.45-1-1.01V1.489h0A.993.993 0 019.48.47h4-.01c.55-.01 1 .44 1 .99zM22.5 21.5v0c0 .55-.45 1-1 1h-4.01c-.56-.01-1-.45-1-1.01V1.489h0a.99.99 0 01.99-1.01h4-.01c.55-.01 1 .44 1 .99z"/></g></symbol><symbol viewBox="-1 -1 26 26" id="ai-layout-headline"><g stroke-linecap="round" stroke-linejoin="round"><path d="M23.5 5.5v0c0 .55-.45 1-1 1h-21l-.01-.001c-.56-.01-1-.45-1-1.01 0 0 0 0 0 0v-3h0a.99.99 0 01.99-1.01h21-.01c.55-.01 1 .44 1 .99zM23.5 13.5v0c0 .55-.45 1-1 1h-21l-.01-.001c-.56-.01-1-.45-1-1.01 0 0 0 0 0 0v-3h0a.99.99 0 01.99-1.01h21-.01c.55-.01 1 .44 1 .99zM23.5 21.5v0c0 .55-.45 1-1 1H1.49c-.56-.01-1-.45-1-1.01v-3.001h0a.99.99 0 01.99-1.01h21-.01c.55-.01 1 .44 1 .99z"/></g></symbol><symbol viewBox="-1 -1 26 26" id="ai-layout-module-1"><g stroke-linecap="round" stroke-linejoin="round"><path d="M10.5 9.5v0c0 .55-.45 1-1 1H1.49c-.56-.01-1-.45-1-1.01 0 0 0 0 0 0v-8h0A.99.99 0 011.48.48h8-.01c.55-.01 1 .44 1 .99zM23.5 9.5v0c0 .55-.45 1-1 1h-8.01c-.56-.01-1-.45-1-1.01 0 0 0 0 0 0v-8h0a.99.99 0 01.99-1.01h8-.01c.55-.01 1 .44 1 .99zM10.5 22.5v0c0 .55-.45 1-1 1H1.49c-.56-.01-1-.45-1-1.01v-8.001h0a.99.99 0 01.99-1.01h8-.01c.55-.01 1 .44 1 .99zM23.5 22.5v0c0 .55-.45 1-1 1h-8.01c-.56-.01-1-.45-1-1.01v-8.001h0a.99.99 0 01.99-1.01h8-.01c.55-.01 1 .44 1 .99z"/></g></symbol><symbol viewBox="-1 -1 26 26" id="ai-legal-scale-unequal-1"><g stroke-linecap="round" stroke-linejoin="round"><path d="M12 3.5V22M1 16l3.5-7.465L8 16"/><path d="M4.5 19.5h0c1.88.04 3.45-1.45 3.49-3.33 0-.06 0-.12-.01-.18h-7v-.01a3.415 3.415 0 003.32 3.5h.17zM23 10l-3.5-7.59L16 10"/><path d="M19.5 13.5h-.01c-1.89.04-3.46-1.45-3.5-3.33a.544.544 0 010-.18h7l-.01-.01a3.43 3.43 0 01-3.33 3.5h-.18zM13.49 4.89L20.5 2M2.45 9.36l11.04-4.47M7.5 22h9"/></g></symbol><symbol viewBox="-1 -1 26 26" id="ai-light-bulb-shine"><g stroke-linecap="round" stroke-linejoin="round"><path d="M13.51 23.5h-3M14.51 21.5h-5M12.01.5v3M3.53 4.01l2.12 2.13M20.5 4.01l-2.12 2.13M.51 12.5h3M23.51 12.5h-3M18.01 12.5v-.01a6 6 0 00-6-6.01A5.986 5.986 0 006 12.47c-.01 1.96.95 3.8 2.57 4.93h0a1 1 0 01.42.82v.76h0c0 .27.22.49.5.49h5-.01c.27 0 .5-.23.5-.5v-.77l-.01-.01c-.01-.33.16-.64.42-.83v-.01a5.996 5.996 0 002.57-4.92z"/></g></symbol><symbol viewBox="-1 -1 26 26" id="ai-like-2"><g stroke-linecap="round" stroke-linejoin="round"><path d="M.5 8.37h2-.01c.55-.01 1 .44 1 .99v12c0 .55-.45 1-1 1h-2"/><path d="M3.5 19.372c7.339 3.72 6.98 3.23 13.265 3.23 2.63 0 3.95-1.72 4.73-4.23v-.02l1.9-6.4v-.02h-.01a2.014 2.014 0 00-1.91-2.59h-4.9v-.001c-1.11 0-2.01-.9-2.01-2-.01-.18.02-.35.06-.52l.88-3.35v-.01a1.72 1.72 0 00-1.23-2.1c-.7-.19-1.43.08-1.84.67l-4.89 6.92h-.01c-.38.53-.99.84-1.64.84H3.42"/></g></symbol><symbol viewBox="-1 -1 26 26" id="ai-list-bullets"><g stroke-linecap="round" stroke-linejoin="round"><path d="M2.5 2.49a2 2 0 100 4 2 2 0 100-4zM8.5 4.5h15M2.5 10.49a2 2 0 100 4 2 2 0 100-4zM8.5 12.5h15M2.5 18.49a2 2 0 100 4 2 2 0 100-4zM8.5 20.5h15"/></g></symbol><symbol viewBox="-1 -1 26 26" id="ai-list-numbers"><g stroke-linecap="round" stroke-linejoin="round"><path d="M6.5 4.5h17M6.5 12.5h17M6.5 20.5h17M.5 19.239H.49c.14-.54.69-.85 1.22-.71s.84.69.7 1.22c-.12.43-.52.73-.97.73h0c.55 0 .99.45.99 1-.01.55-.46.99-1.01.99a1.03 1.03 0 01-.97-.74M.5 11.5h0a.99.99 0 01.99-1.01v0h-.01c.55-.01 1 .44 1 .99 0 0 0 0 0 0v0h0c0 .32-.12.63-.32.89l-1.69 2.1h2M.5 2.5H1 .99c.27-.01.5.22.5.49v3.5M.5 6.5h2"/></g></symbol><symbol viewBox="-1 -1 26 26" id="ai-location-off-target"><g stroke-linecap="round" stroke-linejoin="round"><path d="M15.917 18.971v-.01a8.001 8.001 0 01-10.9-3.04 8.01 8.01 0 01-.04-7.81M8.04 5.03h-.01c3.84-2.19 8.72-.84 10.9 3 1.3 2.29 1.39 5.07.23 7.44M11.99 1v3M11.99 20v3M22.99 12l-3 .02M3.99 12.02H1.01M2.49 2.52l19.97 19.96"/></g></symbol><symbol viewBox="-1 -1 26 26" id="ai-location-target"><g stroke-linecap="round" stroke-linejoin="round"><path d="M12 4a8 8 0 100 16 8 8 0 100-16z"/><path d="M12 8.5a3.5 3.5 0 100 7 3.5 3.5 0 100-7zM12 1v3M12 20v3M23 12h-3M4 12H1"/></g></symbol><symbol viewBox="-1 -1 26 26" id="ai-location-target-1"><g stroke-linecap="round" stroke-linejoin="round"><path d="M12 4a8 8 0 100 16 8 8 0 100-16zM12 1v3M12 20v3M23 12.02h-3M4 12.02H1"/></g></symbol><symbol viewBox="-1 -1 26 26" id="ai-location-user"><g stroke-linecap="round" stroke-linejoin="round"><path d="M16.01 18.067c1.8.31 2.98.84 2.98 1.43 0 .96-3.135 1.75-7 1.75s-7-.79-7-1.75c0-.593 1.18-1.12 2.99-1.44"/><path d="M16 16c4.37.56 7.5 2.03 7.5 3.75 0 2.2-5.15 4-11.5 4-6.36 0-11.5-1.8-11.5-4.01 0-1.72 3.12-3.186 7.5-3.75"/></g><g stroke-linejoin="round"><path d="M12 .75a2.75 2.75 0 100 5.5 2.75 2.75 0 100-5.5zM15.5 10.75v0c0-1.94-1.57-3.5-3.5-3.5-1.94 0-3.5 1.56-3.5 3.5v3h1.58l.41 5h3l.41-5h1.58z"/></g></symbol><symbol viewBox="-1 -1 26 26" id="ai-lock-2"><g stroke-linecap="round" stroke-linejoin="round"><path d="M20.5 11.5v0a2 2 0 00-2-2H5.49c-1.11 0-2 .89-2 2 0 0 0 0 0 0v10h0c0 1.1.89 1.99 2 1.99h13l-.01-.001c1.1 0 2-.9 2-2zM6.5 6h0A5.497 5.497 0 0111.99.49c3.03-.01 5.5 2.46 5.5 5.49 0 0 0 0 0 0v3.5h-11z"/><path d="M12 15.25a1.25 1.25 0 100 2.5 1.25 1.25 0 100-2.5z"/></g></symbol><symbol viewBox="-1 -1 26 26" id="ai-lock-unlock-1"><g stroke-linecap="round" stroke-linejoin="round"><path d="M6.5 6h0A5.497 5.497 0 0111.99.49c3.03-.01 5.5 2.46 5.5 5.49 0 0 0 0 0 0v3.5M20.5 11.5v0a2 2 0 00-2-2H5.49c-1.11 0-2 .89-2 2 0 0 0 0 0 0v10h0c0 1.1.89 1.99 2 1.99h13l-.01-.001c1.1 0 2-.9 2-2z"/><path d="M12 15.25a1.25 1.25 0 100 2.5 1.25 1.25 0 100-2.5z"/></g></symbol><symbol viewBox="-1 -1 26 26" id="ai-login-1"><g stroke-linecap="round" stroke-linejoin="round"><path d="M13.5 5V1.5v0c0-.56-.45-1-1-1H1.49c-.56 0-1 .44-1 1 0 0 0 0 0 0v21-.01c-.01.55.44 1 .99 1h11-.01c.55 0 1-.45 1-1v-3.5M4.5 12h19"/><path d="M9.5 7l-5 5 5 5"/></g></symbol><symbol viewBox="-1 -1 26 26" id="ai-login-key"><g stroke-linecap="round" stroke-linejoin="round"><path d="M5.5 17a1.5 1.5 0 100 3 1.5 1.5 0 100-3z"/><path d="M20.5.5l-9.782 9.783h0a7.003 7.003 0 00-9.44 2.99 6.994 6.994 0 002.99 9.43c3.43 1.77 7.65.43 9.43-3a7.036 7.036 0 000-6.44l3.28-3.29h1.5v-1.5l.5-.5h1.5v-1.5l.5-.5h1.5v-1.5l1-1v-3z"/></g></symbol><symbol viewBox="-1 -1 26 26" id="ai-logout-1"><g stroke-linecap="round" stroke-linejoin="round"><path d="M13.5 5V1.5v0c0-.56-.45-1-1-1H1.49c-.56 0-1 .44-1 1 0 0 0 0 0 0v21-.01c-.01.55.44 1 .99 1h11-.01c.55 0 1-.45 1-1v-3.5M23.5 12h-19M18.5 17l5-5-5-5"/></g></symbol><symbol viewBox="-1 -1 26 26" id="ai-love-it"><path stroke-linecap="round" stroke-linejoin="round" d="M12 21.932l-9.8-10.1-.01-.01A5.662 5.662 0 011.1 5.21v0h-.01c1.47-2.87 4.99-4 7.86-2.52.52.26 1 .61 1.42 1.02l1.6 1.45 1.6-1.46v-.01a5.821 5.821 0 018.25.06c.41.41.75.89 1.02 1.42v0h0c1.11 2.2.67 4.87-1.09 6.6z"/></symbol><symbol viewBox="-1 -1 26 26" id="ai-maps"><g stroke-linecap="round" stroke-linejoin="round"><path d="M8.79 22.29h-.01c-.18.12-.41.12-.59-.01l-6.5-4.65h0a.494.494 0 01-.21-.41V2.44l-.01-.01c-.01-.28.22-.51.49-.51.1-.01.2.03.29.09l6.2 4.43 6.709-4.8v-.01c.17-.13.4-.13.58 0l6.5 4.64-.01-.01c.13.09.2.24.2.4v14.77h0c0 .27-.23.5-.5.5-.11 0-.21-.04-.3-.1l-6.21-4.44zM8.5 6.5v15.89M15.5 17.5V1.61"/></g></symbol><symbol viewBox="-1 -1 26 26" id="ai-meeting-camera"><g stroke-linecap="round" stroke-linejoin="round"><rect width="15" height="13" x=".5" y="5.5" rx="1"/><path d="M23.5 17.5l-6-3v-5l6-3v11z"/></g></symbol><symbol viewBox="-1 -1 26 26" id="ai-meeting-headphones-1"><g stroke-linecap="round" stroke-linejoin="round"><path d="M16 21.75h2c1.93 0 3.5-1.07 3.5-3v-3"/><path d="M14.5 20.25a1.5 1.5 0 100 3 1.5 1.5 0 100-3zM6.5 17.75h-2l-.01-.001c-1.11-.01-2-.9-2-2.01 0 0 0 0 0 0v-3h0c-.01-1.11.89-2.01 1.99-2.01h2zM17.5 17.75h2l-.01-.001c1.1 0 2-.9 2-2v-3 0a2 2 0 00-2-2h-2z"/><path d="M2.5 12.75v-2.5h0C2.49 5 6.75.74 11.99.74c5.24-.01 9.5 4.25 9.5 9.49 0 0 0 0 0 0v2.5"/></g></symbol><symbol viewBox="-1 -1 26 26" id="ai-messages-bubble"><path stroke-linecap="round" stroke-linejoin="round" d="M12 1C5.649 1 .5 5.253.5 10.5l-.01-.01c.05 2.64 1.3 5.12 3.39 6.74l-2.4 5.75 6.372-3.65h0c1.33.42 2.72.64 4.12.64 6.35 0 11.5-4.253 11.5-9.5s-5.15-9.5-11.5-9.5z"/></symbol><symbol viewBox="-1 -1 26 26" id="ai-messages-bubble-double"><g stroke-linecap="round" stroke-linejoin="round"><path d="M9.5 16.5c0 4.288 5 7.5 9.5 5.5l4 1.5-1.5-3v-.01c1.25-.95 2-2.43 1.99-4 0-3.154-3.14-6-7-6-3.87 0-7 2.84-7 6z"/><path d="M17.4 8.5v-.01c.06-.33.09-.67.09-1 0-3.87-3.8-7-8.5-7s-8.5 3.13-8.5 7h0c.04 1.95.96 3.78 2.51 4.96L.98 15.97l4.93-1.98-.01-.01c.5.16 1.03.28 1.56.36"/></g></symbol><symbol viewBox="-1 -1 26 26" id="ai-mobile-phone"><g stroke-linecap="round" stroke-linejoin="round"><rect width="15" height="23" x="4.5" y=".5" rx="2"/><path d="M19.5 19.5h-15M9.5 2.5h5M12 21h-.01c.13-.01.25.11.25.24s-.12.25-.25.25c-.14 0-.25-.12-.26-.25h0c-.01-.14.11-.26.24-.26v-.001"/></g></symbol><symbol viewBox="-1 -1 26 26" id="ai-module-puzzle"><g stroke-linecap="round" stroke-linejoin="round"><path d="M19.94 12h-.001c-.24 0-.44-.16-.49-.39h0a2.014 2.014 0 00-2.35-1.59c-.8.15-1.43.78-1.59 1.58v-.01c-.05.22-.26.38-.49.38h-2.06v2.051h-.01c-.01.23.15.43.38.48h0a2 2 0 011.58 2.34c-.16.79-.79 1.42-1.59 1.58h-.01c-.23.04-.39.25-.39.48v2.05h8-.01c.55 0 1-.45 1-1v-8z"/><path d="M19.94 3l-.001-.001a.476.476 0 00-.49.38v-.01a2.015 2.015 0 01-2.35 1.58c-.8-.16-1.43-.79-1.59-1.59h0a.502.502 0 00-.49-.39h-2.06v2.05h0c0 .23-.16.43-.39.48h-.01c-1.09.21-1.8 1.26-1.59 2.34.15.79.78 1.42 1.58 1.58h0c.22.04.38.25.38.48v2.05h2.051c.23 0 .43-.16.48-.39h-.01c.21-1.09 1.26-1.8 2.34-1.59.79.15 1.42.78 1.58 1.58l-.01-.01c.04.22.25.38.48.38h2.05v-8 0c0-.56-.45-1-1-1z"/><path d="M4 5.051h-.01c-.01.23.15.43.38.48h0a2 2 0 011.58 2.34c-.16.79-.79 1.42-1.59 1.58h-.01c-.23.04-.39.25-.39.48v2.05h2.05v-.001c.23-.01.43.15.48.38l-.01-.01a2 2 0 002.34 1.58c.79-.16 1.42-.79 1.58-1.59h-.01c.04-.23.25-.39.48-.39h2.05V9.88c0-.24-.16-.44-.39-.49l-.01-.01a2.014 2.014 0 01-1.59-2.35c.15-.8.78-1.43 1.58-1.59v-.01c.22-.05.38-.26.38-.49V2.88H4.88c-.56 0-1 .44-1 1 0 0 0 0 0 0z"/><path d="M13.38 14.53l-.01-.01a.502.502 0 01-.39-.49v-2.06h-2.06l-.001-.001a.476.476 0 00-.49.38v-.01a2.015 2.015 0 01-2.35 1.58c-.8-.16-1.43-.79-1.59-1.59h0a.502.502 0 00-.49-.39H3.93v2.051h0c0 .23-.16.43-.39.48h-.01c-1.09.21-1.8 1.26-1.59 2.34.15.79.78 1.42 1.58 1.58h0c.22.04.38.25.38.48v1.05h0c0 .55.44.99 1 .99h8v-2.06l-.01-.01c-.01-.24.15-.44.38-.49v-.01a2.015 2.015 0 001.58-2.35c-.16-.8-.79-1.43-1.59-1.59z"/></g></symbol><symbol viewBox="-1 -1 26 26" id="ai-monitor"><g stroke-linecap="round" stroke-linejoin="round"><path d="M9 22.5h-.01c.9-1.15 1.43-2.55 1.5-4M15 22.5l-.01-.01a6.919 6.919 0 01-1.5-4M7.5 22.5h9M.5 15.5h23"/><rect width="23" height="17" x=".5" y="1.5" rx="1"/></g></symbol><symbol viewBox="-1 -1 26 26" id="ai-mouse"><g stroke-linecap="round" stroke-linejoin="round"><path d="M12.5 17.5v0c0 3.31-2.69 6-6 6-3.32 0-6-2.69-6-6v-9h0a2.996 2.996 0 012.99-3.01h6-.01c1.65-.01 3 1.34 3 3zM.5 10.5h12"/><path d="M6.5 10.5v-5h0A4.99 4.99 0 0111.49.49c2.76-.01 5 2.23 5 4.99 0 0 0 0 0 0v2.5h0c0 1.93 1.56 3.49 3.5 3.49a3.504 3.504 0 003.49-3.51V.46"/></g></symbol><symbol viewBox="-1 -1 26 26" id="ai-move-expand-vertical"><g stroke-linecap="round" stroke-linejoin="round"><path d="M20.5 8.999L12 .49l-8.5 8.5M20.5 14.999l-8.5 8.5-8.5-8.5"/></g></symbol><symbol viewBox="-1 -1 26 26" id="ai-move-shrink-vertical"><g stroke-linecap="round" stroke-linejoin="round"><path d="M20.5.499l-8.5 8.5L3.5.49M20.5 23.499l-8.5-8.5-8.5 8.5"/></g></symbol><symbol viewBox="-1 -1 26 26" id="ai-multiple-neutral-2"><g stroke-linecap="round" stroke-linejoin="round"><path d="M7.5 3.5a4.25 4.25 0 100 8.5 4.25 4.25 0 100-8.5zM.5 20.5h0a6.995 6.995 0 016.99-7.01c3.86-.01 7 3.13 7 6.99 0 0 0 0 0 0zM16.5 20.5h7c0-3.04-2.47-5.5-5.5-5.5-.88 0-1.75.21-2.53.61M17.94 7a3.25 3.25 0 100 6.5 3.25 3.25 0 100-6.5z"/></g></symbol><symbol viewBox="-1 -1 26 26" id="ai-music-note-2"><g stroke-linecap="round" stroke-linejoin="round"><path d="M9.5 20.005v-.01a3.119 3.119 0 01-3 3l-.01-.001c-1.66-.01-3-1.35-3-3 0-1.66 1.34-3 3-3h3zM20.5 16.005v-.01a3.119 3.119 0 01-3 3l-.01-.001c-1.66-.01-3-1.35-3-3 0-1.66 1.34-3 3-3h3z"/><path d="M9.5 17.005V5.677l-.01-.01c-.01-.41.24-.78.62-.93l9-3.682v-.01a.993.993 0 011.3.54c.04.12.07.25.07.38v11.01M9.5 8.51l11-4.5"/></g></symbol><symbol viewBox="-1 -1 26 26" id="ai-navigation-menu"><g stroke-linecap="round" stroke-linejoin="round"><path d="M21 7H3M21 12H3M21 17H3"/></g></symbol><symbol viewBox="-1 -1 26 26" id="ai-navigation-menu-4"><g stroke-linecap="round" stroke-linejoin="round"><path d="M17.25 8H6.75M17.25 12H6.75M17.25 16H6.75"/><rect width="23" height="23" x=".5" y=".5" rx="2"/></g></symbol><symbol viewBox="-1 -1 26 26" id="ai-navigation-menu-horizontal"><g stroke-linecap="round" stroke-linejoin="round"><path d="M3 9.5a2.5 2.5 0 100 5 2.5 2.5 0 100-5zM12 9.5a2.5 2.5 0 100 5 2.5 2.5 0 100-5zM21 9.5a2.5 2.5 0 100 5 2.5 2.5 0 100-5z"/></g></symbol><symbol viewBox="-1 -1 26 26" id="ai-navigation-menu-vertical"><g stroke-linecap="round" stroke-linejoin="round"><path d="M12 .5a2.5 2.5 0 100 5 2.5 2.5 0 100-5zM12 9.5a2.5 2.5 0 100 5 2.5 2.5 0 100-5zM12 18.5a2.5 2.5 0 100 5 2.5 2.5 0 100-5z"/></g></symbol><symbol viewBox="-1 -1 26 26" id="ai-navigation-next"><g stroke-linecap="round" stroke-linejoin="round"><path d="M23 9.5H12.377c-2.21 0-4 1.79-4 4 0 0 0 0 0 0v2"/><path d="M19 13.498l4-4-4-4M14.387 13v5.5c0 .55-.45 1-1 1H1.377c-.56-.01-1-.45-1-1.01V6.489h0a.99.99 0 01.99-1.01h12-.01c.55-.01 1 .44 1 .99v.5"/></g></symbol><symbol viewBox="-1 -1 26 26" id="ai-navigation-previous"><g stroke-linecap="round" stroke-linejoin="round"><path d="M.88 9.5h10.613-.01c2.2-.01 4 1.79 4 3.99v2"/><path d="M4.887 13.498l-4-4 4-4M9.5 13v5.5h0c0 .55.44.99 1 .99h12-.01c.55 0 1-.45 1-1v-12 0c0-.56-.45-1-1-1H10.48c-.56 0-1 .44-1 1 0 0 0 0 0 0v.49"/></g></symbol><symbol viewBox="-1 -1 26 26" id="ai-office-file-adobe"><g stroke-linecap="round" stroke-linejoin="round"><path d="M21.207 4.5l-.01-.01c.18.18.29.44.29.7v17.29c0 .55-.45 1-1 1H3.477c-.56-.01-1-.45-1-1.01V1.469h0A.983.983 0 013.46.45h13.29V.449c.26-.01.51.1.7.29z"/><path d="M6.36 6.88C5.5 5.47 7.54 4.191 8.07 5.62c.91 2.46 2.37 9.14-.93 13.677-.93 1.26-2.92.06-1.85-1.25h-.01c3.1-3.66 7.66-5.76 12.46-5.72 1.66.06 1.58 2.43.09 2.25l-.01-.01c-4.83-.64-9.09-3.49-11.5-7.72z"/></g></symbol><symbol viewBox="-1 -1 26 26" id="ai-office-file-graph"><g stroke-linecap="round" stroke-linejoin="round"><path d="M21.207 4.5l-.01-.01c.18.18.29.44.29.7v17.29c0 .55-.45 1-1 1H3.477c-.56-.01-1-.45-1-1.01V1.469h0A.983.983 0 013.46.45h13.29V.449c.26-.01.51.1.7.29z"/><path d="M12 6.99a5.5 5.5 0 100 11 5.5 5.5 0 100-11z"/><path d="M15.107 7.96l-3.11 4.53 3.52 4.22M12 12.5H6.5"/></g></symbol><symbol viewBox="-1 -1 26 26" id="ai-office-file-hierarchy"><g stroke-linecap="round" stroke-linejoin="round"><path d="M21.207 4.5l-.01-.01c.18.18.29.44.29.7v17.29c0 .55-.45 1-1 1H3.477c-.56-.01-1-.45-1-1.01V1.469h0A.983.983 0 013.46.45h13.29V.449c.26-.01.51.1.7.29z"/><rect width="4" height="4" x="5.5" y="16.499" rx="1"/><rect width="4" height="4" x="13.5" y="16.499" rx="1"/><rect width="4" height="4" x="9.5" y="6.499" rx="1"/><path d="M15.5 16.499v-3h-8v3M11.5 10.5v3"/></g></symbol><symbol viewBox="-1 -1 26 26" id="ai-office-file-sheet"><g stroke-linecap="round" stroke-linejoin="round"><path d="M21.207 4.5l-.01-.01c.18.18.29.44.29.7v17.29c0 .55-.45 1-1 1H3.477c-.56-.01-1-.45-1-1.01V1.469h0A.983.983 0 013.46.45h13.29V.449c.26-.01.51.1.7.29z"/><path d="M18.5 18.749c0 .41-.45.75-1 .75h-11c-.56 0-1-.34-1-.75V8.24c0-.42.44-.75 1-.75h11c.55 0 1 .33 1 .75zM5.5 13.5h13M5.5 10.5h13M5.5 16.5h13M9.5 7.5v12"/></g></symbol><symbol viewBox="-1 -1 26 26" id="ai-office-file-text"><g stroke-linecap="round" stroke-linejoin="round"><path d="M21.207 4.5l-.01-.01c.18.18.29.44.29.7v17.29c0 .55-.45 1-1 1H3.477c-.56-.01-1-.45-1-1.01V1.469h0A.983.983 0 013.46.45h13.29V.449c.26-.01.51.1.7.29zM14.5 5.5h4M5.5 14.5h13M5.5 17.5h13M5.5 20.5h13M14.5 8.5h4M14.5 11.5h4"/><path d="M5.5 5.49v-1h6v1M8.5 4.5v7M6.5 11.5h4"/></g></symbol><symbol viewBox="-1 -1 26 26" id="ai-office-file-text-graph"><g stroke-linecap="round" stroke-linejoin="round"><path d="M9.5 3.99a4 4 0 100 8 4 4 0 100-8z"/><path d="M6.171 10.21l3.32-2.22v-4"/><path d="M21.207 4.5l-.01-.01c.18.18.29.44.29.7v17.29c0 .55-.45 1-1 1H3.477c-.56-.01-1-.45-1-1.01V1.469h0A.983.983 0 013.46.45h13.29V.449c.26-.01.51.1.7.29zM16 5.5h2.5M5.5 14.5h13M5.5 17.5h13M5.5 20.5h13M16 8.5h2.5M16 11.5h2.5"/></g></symbol><symbol viewBox="-1 -1 26 26" id="ai-os-system-apple"><g stroke-linecap="round" stroke-linejoin="round"><path d="M17.576 13.28v-.01c.01-1.7.9-3.27 2.35-4.15h0a5.076 5.076 0 00-3.99-2.16c-1.7-.18-3.31 1-4.18 1-.87 0-2.19-.98-3.6-.95V7c-1.88.05-3.6 1.09-4.51 2.73-1.93 3.33-.49 8.27 1.38 10.98.91 1.32 2 2.81 3.43 2.75 1.38-.06 1.9-.9 3.57-.9s2.13.89 3.6.86c1.48-.03 2.426-1.35 3.33-2.68h-.01c.65-.96 1.15-2 1.5-3.1h0a4.828 4.828 0 01-2.93-4.41zM15.01 4.173v-.01A5.117 5.117 0 0016.2.483h-.01a5.06 5.06 0 00-3.39 1.74h-.01c-.88.97-1.32 2.25-1.22 3.55l-.01-.01c1.32.01 2.58-.59 3.41-1.63z"/></g></symbol><symbol viewBox="-1 -1 26 26" id="ai-os-system-microsoft"><g stroke-linecap="round" stroke-linejoin="round"><path d="M14.821 22.5l-.01-.01c-1.48-.18-2.9-.68-4.16-1.47l2.03-7.05h0c1.25.97 2.81 1.47 4.39 1.43h-.01c1.31-.03 2.61-.27 3.84-.74l-1.96 6.84h-.01c-1.32.59-2.73.92-4.17.97M8.371 20.28l-.01-.01a6.935 6.935 0 00-4.05-1.42h-.01c-1.32.04-2.62.33-3.83.86l2.03-7.06v-.01c1.27-.55 2.64-.87 4.03-.93h0c1.4.06 2.76.53 3.91 1.34-.27.92-1.69 5.77-2.11 7.18zM12.932 3.08v0c-.42 1.43-1.657 5.67-2.08 7.08h0a6.953 6.953 0 00-3.91-1.41h-.01c-1.37.05-2.71.36-3.95.92l2-7.05v-.01c1.19-.53 2.48-.83 3.79-.89h0c1.48 0 2.92.46 4.13 1.31zM17.558 12.5l-.01-.01a7.853 7.853 0 01-4.38-1.37l-.03-.02 2.05-7.12h0c1.24.95 2.77 1.47 4.34 1.45v-.01c1.35-.03 2.69-.33 3.93-.9l-2.029 6.989h-.01v0-.01c-1.22.59-2.55.91-3.9.93"/></g></symbol><symbol viewBox="-1 -1 26 26" id="ai-paragraph"><g stroke-linecap="round" stroke-linejoin="round"><path d="M17.5.5v23M10.5.5v23M23.5.5H6.49c-3.32 0-6 2.68-6 6 0 3.31 2.68 6 6 6h4"/></g></symbol><symbol viewBox="-1 -1 26 26" id="ai-paragraph-center-align"><g stroke-linecap="round" stroke-linejoin="round"><path d="M.5 22.5h23M2.5 2.5h19M3.5 7.5h17M.5 12.5h23M4.5 17.5h15"/></g></symbol><symbol viewBox="-1 -1 26 26" id="ai-paragraph-justified-align"><g stroke-linecap="round" stroke-linejoin="round"><path d="M.5 22.5h17M.5 2.5h23M.5 7.5h23M.5 12.5h23M.5 17.5h23"/></g></symbol><symbol viewBox="-1 -1 26 26" id="ai-paragraph-left-align"><g stroke-linecap="round" stroke-linejoin="round"><path d="M.5 22.5h23M.5 2.5h20M.5 7.5h16M.5 12.5h23M.5 17.5h19"/></g></symbol><symbol viewBox="-1 -1 26 26" id="ai-paragraph-right-align"><g stroke-linecap="round" stroke-linejoin="round"><path d="M.5 22.5h23M4.5 2.5h19M7.5 7.5h16M.5 12.5h23M4.5 17.5h19"/></g></symbol><symbol viewBox="-1 -1 26 26" id="ai-pencil-1"><g stroke-linecap="round" stroke-linejoin="round"><path d="M6.96 21.98L.49 23.49 2 17.02 17.947 1.07h-.01c.78-.79 2.04-.79 2.82-.01 0 0 0 0 0 0l2.122 2.12h0c.78.78.78 2.04 0 2.82h-.01zM22.21 6.74l-4.95-4.95M20.78 8.17l-4.94-4.96M7.22 21.73l-4.95-4.95"/></g></symbol><symbol viewBox="-1 -1 26 26" id="ai-pencil-write-1"><g stroke-linecap="round" stroke-linejoin="round"><path d="M19.5 11.5v11c0 .55-.45 1-1 1H1.49c-.56-.01-1-.45-1-1.01V3.489h0a.99.99 0 01.99-1.01h13"/><path d="M12.824 14.007l-4.949 2.12 2.12-4.95L20.665.5l2.82 2.828-10.68 10.679zM21.67 5.16l-2.83-2.82M12.82 14.01L10 11.18"/></g></symbol><symbol viewBox="-1 -1 26 26" id="ai-phone"><path stroke-linecap="round" stroke-linejoin="round" d="M9.08 7.4h-.01c.9-.91.9-2.37 0-3.28L6.61 1.66h0a2.32 2.32 0 00-3.28-.01L1.98 2.99h-.01a3.441 3.441 0 00-.44 4.36l-.01-.01a53.776 53.776 0 0015.03 15.03h0c1.37.91 3.19.72 4.36-.44l1.34-1.35v-.01c.9-.91.9-2.37 0-3.27l-.01-.01-2.46-2.46h0c-.91-.91-2.37-.91-3.27-.01h-.01l-.82.81-.01-.01A55.094 55.094 0 018.15 8.1z"/></symbol><symbol viewBox="-1 -1 26 26" id="ai-phone-charger"><g stroke-linecap="round" stroke-linejoin="round"><path d="M2.5.5v3M10.5.5v3M4.5 6.5h4M6.5 16.5v3h0c0 2.2 1.79 3.99 4 3.99 2.2-.01 3.99-1.8 3.99-4.01v-.75h-.01c0-2.9 2.34-5.25 5.24-5.26h3.75"/><path d="M4.5 13.158v2.34h0c0 .55.44.99 1 .99h2-.01c.55 0 1-.45 1-1v-2.35"/><path d="M12.5 7.5v0c0 3.31-2.69 6-6 6-3.32 0-6-2.69-6-6v-3h0a.99.99 0 01.99-1.01h10-.01c.55-.01 1 .44 1 .99z"/></g></symbol><symbol viewBox="-1 -1 26 26" id="ai-pin"><g stroke-linecap="round" stroke-linejoin="round"><path d="M12 .71h-.01c4.14-.01 7.5 3.35 7.5 7.49 0 3.54-5.5 12.38-7.08 14.85h-.001a.51.51 0 01-.86-.01c-1.58-2.47-7.08-11.31-7.08-14.85v-.01c0-4.15 3.35-7.5 7.5-7.5z"/><path d="M12 5.21a3 3 0 100 6 3 3 0 100-6z"/></g></symbol><symbol viewBox="-1 -1 26 26" id="ai-pin-1"><g stroke-linecap="round" stroke-linejoin="round"><path d="M9.91 14.09L.5 23.5M21.414 8.585l-.01-.01c.27.27.72.27.99 0v-.01l.79-.8h-.01c.39-.4.39-1.03 0-1.42L17.58.75h0c-.4-.4-1.03-.4-1.42-.01l-.8.79v-.01c-.28.27-.28.72-.01.99 0 0 0 0 0 0l-.01-.01c.27.27.27.72 0 .99h-.01l-4.21 4.2v-.01c-.19.18-.45.29-.71.29H7.23v-.001c-.27 0-.52.1-.71.29l-.5.5v-.01c-.4.39-.4 1.02-.01 1.41l7.586 7.58-.01-.01c.39.39 1.02.39 1.41 0l.5-.5h-.01c.18-.19.29-.45.29-.71v-3.18h-.01c0-.27.1-.52.29-.71l4.2-4.21v-.01c.27-.28.72-.28.99-.01 0 0 0 0 0 0z"/></g></symbol><symbol viewBox="-1 -1 26 26" id="ai-pin-3"><g stroke-linecap="round" stroke-linejoin="round"><path d="M12 3.5a4 4 0 100 8 4 4 0 100-8zM12 11.5v9"/></g></symbol><symbol viewBox="-1 -1 26 26" id="ai-power-button"><g stroke-linecap="round" stroke-linejoin="round"><path d="M14.5 6.5l-.01-.01c3.31 1.37 4.88 5.18 3.5 8.49a6.505 6.505 0 01-8.5 3.5 6.501 6.501 0 01-3.51-8.5c.65-1.58 1.9-2.83 3.46-3.49M12 4.5V11"/></g></symbol><symbol viewBox="-1 -1 26 26" id="ai-print-text"><g stroke-linecap="round" stroke-linejoin="round"><path d="M7.5 19.5h9M7.5 16.5h9M5.5 16.5h-3l-.01-.001c-1.11-.01-2-.9-2-2v-6.01c0-1.11.89-2 2-2h19c1.1 0 1.99.89 1.99 2v6h-.01c-.01 1.1-.9 1.99-2.01 1.99h-3M5.5 4.5v-4h9.586c.26 0 .51.1.7.29l2.41 2.414-.01-.01c.18.18.29.44.29.7v.58"/><path d="M18.5 22.5v0c0 .55-.45 1-1 1H6.49c-.56-.01-1-.45-1-1.01v-9.001h13zM3.5 8.49a1 1 0 100 2 1 1 0 100-2zM14.5.499v4h4"/></g></symbol><symbol viewBox="-1 -1 26 26" id="ai-professional-network-linkedin"><path stroke-linecap="round" stroke-linejoin="round" d="M6.5 22.5h-5v-13h5zm9-9h-.01c-1.11 0-2 .89-2 2 0 0 0 0 0 0v7h-5v-13h5v1.48h-.01a6.255 6.255 0 013.98-1.5c2.96 0 5.01 2.2 5.01 6.35v6.65h-5v-7.001a2 2 0 00-2-2zM6.5 5v0a2.5 2.5 0 01-5 0c0-1.39 1.11-2.5 2.5-2.5h-.01c1.38-.01 2.5 1.11 2.5 2.49 0 0 0 0 0 0z"/></symbol><symbol viewBox="-1 -1 26 26" id="ai-professional-tool-dropbox"><g stroke-linecap="round" stroke-linejoin="round"><path d="M18.5 17.5v1l-6.5 4-6.5-4v-1M5.5 9L1 12.5 7.5 17l4.5-4-6.5-4zM12 5L5.5 9 1 5.5l6.5-4L12 5zM18.5 9l4.5 3.5-6.5 4.5-4.5-4 6.5-4zM12 5l6.5 4L23 5.5l-6.5-4L12 5z"/></g></symbol><symbol viewBox="-1 -1 26 26" id="ai-professional-tool-google-drive"><g stroke-linecap="round" stroke-linejoin="round"><path d="M4.06 22.48h15.71l3.42-6H7.465M16.129 16.48h7.07L15.37 2.49H8.3c.32.56 7.817 13.98 7.817 13.98z"/><path d="M8.31 2.5L.49 16.06l3.564 6.42s7.46-13.11 7.78-13.668"/></g></symbol><symbol viewBox="-1 -1 26 26" id="ai-programming-browser"><g stroke-linecap="round" stroke-linejoin="round"><path d="M15.75 12l3 3-3 3M8.25 12l-3 3 3 3M13.5 12l-3 6"/><rect width="23" height="18" x=".5" y="3" rx="2"/><path d="M.5 8h23M4 5.25h-.01c.13-.01.25.11.25.24s-.12.25-.25.25c-.14 0-.25-.12-.26-.25h0c-.01-.14.11-.26.24-.26v-.001M7 5.25h-.01c.13-.01.25.11.25.24s-.12.25-.25.25c-.14 0-.25-.12-.26-.25h0c-.01-.14.11-.26.24-.26v-.001M10 5.25h-.01c.13-.01.25.11.25.24s-.12.25-.25.25c-.14 0-.25-.12-.26-.25h0c-.01-.14.11-.26.24-.26v-.001"/></g></symbol><symbol viewBox="-1 -1 26 26" id="ai-question-circle"><g stroke-linecap="round" stroke-linejoin="round"><path d="M12 1a11 11 0 100 22 11 11 0 100-22z"/><path d="M12 17h-.01c-.14 0-.25.11-.25.25 0 .13.11.25.25.24.13-.01.25-.12.24-.26v0c0-.14-.12-.25-.25-.25v0M9 10.005h-.01a2.996 2.996 0 115.99 0 3.003 3.003 0 01-1.8 2.74v-.01a1.99 1.99 0 00-1.21 1.83v.41"/></g></symbol><symbol viewBox="-1 -1 26 26" id="ai-rating-half-star"><path stroke-linecap="round" stroke-linejoin="round" d="M17.559 18.079l-6.7 4.57v-.01c-.23.16-.54.11-.7-.11-.1-.14-.13-.3-.08-.46l2.5-7.51-5.98-4.96-.01-.01a.506.506 0 01-.06-.71c.09-.12.23-.18.38-.18h7.15l2.53-7.176h-.01c.09-.26.38-.39.64-.3.13.05.24.15.29.29z"/></symbol><symbol viewBox="-1 -1 26 26" id="ai-rating-star"><path stroke-linecap="round" stroke-linejoin="round" d="M11.533 1.57h-.01c.09-.26.38-.39.64-.3.13.05.24.15.29.29l2.53 7.17h7.148-.01c.27-.01.5.22.5.49 0 .14-.07.28-.18.38l-5.98 4.95 2.5 7.51-.01-.01a.51.51 0 01-.32.63c-.16.05-.33.02-.46-.08l-6.23-4.58-6.24 4.57v-.01c-.23.16-.54.1-.7-.12-.1-.13-.12-.3-.07-.45l2.5-7.51-5.98-4.96-.01-.01a.506.506 0 01-.06-.71c.09-.12.23-.18.38-.18H8.9z"/></symbol><symbol viewBox="-1 -1 26 26" id="ai-redo"><g stroke-linecap="round" stroke-linejoin="round"><path d="M22.5.498v7h-7"/><path d="M22.5 7.5h0C18.74 2.33 11.52 1.15 6.32 4.85h-.01C1.13 8.54-.06 15.73 3.63 20.9c.71.99 1.57 1.87 2.56 2.59"/></g></symbol><symbol viewBox="-1 -1 26 26" id="ai-remove"><g stroke-linecap="round" stroke-linejoin="round"><path d="M23.5.5l-23 23M23.5 23.5L.5.5"/></g></symbol><symbol viewBox="-1 -1 26 26" id="ai-remove-square-1"><g stroke-linecap="round" stroke-linejoin="round"><path d="M16.24 7.76l-8.48 8.48M16.24 16.24L7.76 7.76"/><rect width="22" height="22" x="1" y="1" rx="1"/></g></symbol><symbol viewBox="-1 -1 26 26" id="ai-rss-feed"><g stroke-linecap="round" stroke-linejoin="round"><path d="M3 18.49a2.5 2.5 0 100 5 2.5 2.5 0 100-5zM23.5 23.5v0c0-12.71-10.3-23-23-23M14.5 23.5v0c0-7.74-6.27-14-14-14"/></g></symbol><symbol viewBox="-1 -1 26 26" id="ai-ruler"><rect width="24.749" height="7.779" x="-.375" y="8.111" rx="1" stroke-linecap="round" stroke-linejoin="round" transform="matrix(.70709 -.70712 .70711 .70709 -4.971 12)"/><g stroke-linecap="round" stroke-linejoin="round"><path d="M4.01 14.49l2.5 2.5M6.01 12.49l2.02 1.98M8.26 10.24l2.5 2.5M10.27 8.24l1.75 1.75M12.5 6L15 8.5M14.5 4l2.01 1.99"/></g></symbol><symbol viewBox="-1 -1 26 26" id="ai-scissors-2"><g stroke-linecap="round" stroke-linejoin="round"><path d="M4 2.49a3.5 3.5 0 100 7 3.5 3.5 0 100-7z"/><path d="M11.14 10.73l12.35 7.355v-.01c-.63.96-1.89 1.29-2.91.75L4.63 9.42M4 14.49a3.5 3.5 0 100 7 3.5 3.5 0 100-7z"/><path d="M13.279 12L23.5 5.913h0c-.63-.97-1.89-1.3-2.91-.76L4.64 14.54"/></g></symbol><symbol viewBox="-1 -1 26 26" id="ai-scroll-horizontal"><g stroke-linecap="round" stroke-linejoin="round"><path d="M12 9.99a2 2 0 100 4 2 2 0 100-4zM17.914 6.5l4.79 4.79-.01-.01c.39.39.39 1.02 0 1.41l-4.8 4.79M6.086 6.5L1.29 11.29v-.01c-.4.39-.4 1.02-.01 1.41l4.79 4.79"/></g></symbol><symbol viewBox="-1 -1 26 26" id="ai-scroll-vertical"><g stroke-linecap="round" stroke-linejoin="round"><path d="M12 9.99a2 2 0 100 4 2 2 0 100-4zM6.5 6.084l4.79-4.793h-.01c.39-.4 1.02-.4 1.41-.01l4.79 4.79M6.5 17.912l4.79 4.79-.01-.01c.39.39 1.02.39 1.41 0l4.79-4.8"/></g></symbol><symbol viewBox="-1 -1 26 26" id="ai-search"><g stroke-linecap="round" stroke-linejoin="round"><path d="M8.5.5a8 8 0 100 16 8 8 0 100-16zM14.16 14.16l9.34 9.34"/></g></symbol><symbol viewBox="-1 -1 26 26" id="ai-send-email"><g stroke-linecap="round" stroke-linejoin="round"><path d="M23.5 2L.93 11.323v-.01a.695.695 0 00.07 1.31l8.48 2.35zM23.5 2l-3.85 18.28v-.01c-.11.48-.59.79-1.07.69a1.07 1.07 0 01-.31-.13l-8.78-5.85zM9.5 15v6.48l-.01-.01c0 .28.23.51.52.51.18-.01.35-.1.44-.26l2.561-4.39"/></g></symbol><symbol viewBox="-1 -1 26 26" id="ai-settings-horizontal"><g stroke-linecap="round" stroke-linejoin="round"><rect width="23" height="23" x=".5" y=".501" rx="1"/><path d="M12 3.5a2 2 0 100 4 2 2 0 100-4zM14 5.5h6.52M3.52 5.5H10M8 10a2 2 0 100 4 2 2 0 100-4zM10 12h10.52M3.52 12H6M10 16.5a2 2 0 100 4 2 2 0 100-4zM12 18.5h8.52M3.52 18.5H8"/></g></symbol><symbol viewBox="-1 -1 26 26" id="ai-settings-vertical"><g stroke-linecap="round" stroke-linejoin="round"><rect width="23" height="23" x=".5" y=".5" rx="1"/><path d="M12 13V4.5M12 19.5V17M12 13a2 2 0 100 4 2 2 0 100-4zM6.5 12v7.5M6.5 4.5V8M6.5 8a2 2 0 100 4 2 2 0 100-4zM17.5 12v7.5M17.5 4.5V8M17.5 8a2 2 0 100 4 2 2 0 100-4z"/></g></symbol><symbol viewBox="-1 -1 26 26" id="ai-share-1"><g stroke-linecap="round" stroke-linejoin="round"><path d="M12 13.5V.5M7.5 4.99L12 .49l4.5 4.5M15 8.5h4-.01c.55-.01 1 .44 1 .99v13c0 .55-.45 1-1 1H4.98c-.56-.01-1-.45-1-1.01V9.479h0a.99.99 0 01.99-1.01h4"/></g></symbol><symbol viewBox="-1 -1 26 26" id="ai-share-2"><g stroke-linecap="round" stroke-linejoin="round"><path d="M15.5 9.5v13c0 .55-.45 1-1 1H1.49c-.56-.01-1-.45-1-1.01V9.489h0a.99.99 0 01.99-1.01h4M19.5.499l4 4-4 4"/><path d="M23.5 4.5h-9.51c-3.04 0-5.5 2.46-5.5 5.5 0 0 0 0 0 0v1.5"/></g></symbol><symbol viewBox="-1 -1 26 26" id="ai-shop-1"><g stroke-linecap="round" stroke-linejoin="round"><path d="M3.689 2v-.001c-.42 0-.79.25-.94.64l-1.59 4.14h-.01c-.17.44-.18.93-.02 1.38l-.01-.01a2.738 2.738 0 003.51 1.65c1.09-.4 1.81-1.43 1.82-2.59h0c0 1.51 1.23 2.74 2.75 2.74a2.761 2.761 0 002.74-2.76h0c0 1.51 1.23 2.74 2.75 2.74a2.761 2.761 0 002.74-2.76l-.01-.01c0 1.51 1.23 2.74 2.75 2.74a2.76 2.76 0 002.58-1.83v-.01c.16-.45.15-.94-.02-1.39l-1.58-4.148h0c-.15-.39-.52-.65-.94-.65z"/><rect width="7" height="6" x="4.957" y="13" rx=".5"/><path d="M13.957 22v-8.5h0c-.01-.28.22-.51.49-.51h4-.01c.27-.01.5.22.5.49v8.5"/><path d="M20.957 9.908V21c0 .55-.45 1-1 1H3.947c-.56-.01-1-.45-1-1.01V9.86"/></g></symbol><symbol viewBox="-1 -1 26 26" id="ai-shopping-basket-2"><g stroke-linecap="round" stroke-linejoin="round"><path d="M18.234 22.5H5.76v-.01c-.93.06-1.77-.56-1.99-1.46l-1.29-8.54h19l-1.29 8.54v-.01c-.22.9-1.06 1.52-1.99 1.46z"/><path d="M2 12.5l-.01-.001a1.51 1.51 0 01-1.5-1.5c0-.83.67-1.5 1.5-1.5h20-.01c.82-.01 1.5.67 1.5 1.5 0 .82-.68 1.5-1.5 1.5zM4 7.5l3.5-6M20 7.5l-3.5-6M8.5 15v5M15.5 15v5"/></g></symbol><symbol viewBox="-1 -1 26 26" id="ai-shopping-cart-1"><g stroke-linecap="round" stroke-linejoin="round"><path d="M23.5 2.5h-2.56l-.01-.001a.483.483 0 00-.5.43l-.34 2.68v-.01c-.07.5-.49.87-1 .87H1.97v-.001c-.83 0-1.5.67-1.5 1.5 0 .15.02.3.06.44l1.56 5-.01-.01c.19.62.77 1.05 1.43 1.05h14.43c.55 0 1 .44.99 1a1 1 0 01-1 .99h-14M19.5 8.5l-.44 3.98M6 18.5a1.5 1.5 0 100 3 1.5 1.5 0 100-3zM17 18.5a1.5 1.5 0 100 3 1.5 1.5 0 100-3z"/></g></symbol><symbol viewBox="-1 -1 26 26" id="ai-shrink-1"><g stroke-linecap="round" stroke-linejoin="round"><path d="M15.5 8.5l8-8M.5 23.5l8-8M20.5 8.499h-5v-5M8.5 20.499v-5h-5M15.5 15.5l8 8M.5.5l8 8M15.5 20.499v-5h5M3.5 8.499h5v-5"/></g></symbol><symbol viewBox="-1 -1 26 26" id="ai-shrink-2"><g stroke-linecap="round" stroke-linejoin="round"><path d="M.5 23.5l8-8M3.5 15.499h5v5M23.5.5l-8 8M20.5 8.499h-5v-5"/></g></symbol><symbol viewBox="-1 -1 26 26" id="ai-single-neutral"><g stroke-linecap="round" stroke-linejoin="round"><path d="M12 1.25a5.5 5.5 0 100 11 5.5 5.5 0 100-11zM3 22.75h0a8.988 8.988 0 018.99-9.01c4.97-.01 9 4.02 9 8.99 0 0 0 0 0 0z"/></g></symbol><symbol viewBox="-1 -1 26 26" id="ai-social-instagram"><g stroke-linecap="round" stroke-linejoin="round"><rect width="23" height="23" x=".5" y=".5" rx="6"/><path d="M12 6a6 6 0 100 12 6 6 0 100-12zM19 3.5a1.5 1.5 0 100 3 1.5 1.5 0 100-3z"/></g></symbol><symbol viewBox="-1 -1 26 26" id="ai-social-media-facebook"><path stroke-linecap="round" stroke-linejoin="round" d="M17.76 7.5h-4.27V5.6h0c-.08-.54.3-1.03.83-1.1.05-.01.11-.02.17-.01.41 0 2.98.01 2.98.01V.49h-4.33c-3.93 0-4.68 2.97-4.68 4.85v2.14h-3v4h3v12h5v-12h3.85z"/></symbol><symbol viewBox="-1 -1 26 26" id="ai-social-media-meetup-alternate"><g stroke-linecap="round" stroke-linejoin="round"><path d="M23.243 9.567h-.01c.13-.01.25.11.25.24s-.12.25-.25.25h-.01c-.14-.01-.25-.12-.25-.26s.11-.25.25-.25M11.656 19.738v-.01c-.29.23-.62.42-.96.54h-.01a3.6 3.6 0 01-4.62-2.11c-.04-.1-.07-.2-.1-.3l-.01-.01c-.06-.25-.11-.5-.13-.75-.03-.2 0-.15-.18-.19l-.01-.01c-1.12-.2-2.05-.98-2.43-2.05l-.01-.01c-.51-1.25-.2-2.67.77-3.59v-.01c.06-.05.07-.14.02-.2l-.01-.01h0a3.103 3.103 0 011.13-4.24c.01-.02.03-.03.05-.04v-.01c.29-.17.61-.28.94-.32v-.001c.08-.01.16-.07.19-.15h-.01c.96-2.37 3.66-3.5 6.03-2.53.23.09.46.21.68.34h0c.05.03.13.04.19.02v-.01c1.63-.56 3.44-.04 4.52 1.31h0c.62.78.93 1.76.87 2.76v-.01c-.02.07.02.14.09.15h.01a2.25 2.25 0 011.42 2.84c-.03.08-.06.16-.1.23v-.01c-.13.28-.32.53-.55.74h-.01c-.05.02-.06.09-.04.13v.01l-.01-.01a3.92 3.92 0 01-1.34 5.37c-.53.31-1.12.5-1.73.55-.13 0-.25.01-.37 0h0c-.06-.01-.12.02-.13.08h-.02c-.12.41-.33.8-.63 1.11v-.01c-.42.45-.99.73-1.59.81h-.01a2.89 2.89 0 01-2.17-.67zM18.161 20.03h-.01c.55-.01 1 .44 1 .99s-.45 1-1 1c-.56 0-1-.45-1.01-1h0c-.01-.55.43-1 .98-1.01 0-.01 0-.01.01-.01M1.2 10.067h0c.41 0 .74.33.74.75a.756.756 0 01-1.51-.02v-.01l-.01-.01c-.01-.42.33-.75.74-.75 0-.01 0 0 0 0M13.447 1.169v-.001c.41-.01.75.32.75.74 0 .41-.33.75-.75.75s-.76-.33-.76-.75l-.01-.01-.01-.01c-.01-.42.32-.76.74-.76M20.67 6.077v-.001c.41-.01.75.33.75.74a.755.755 0 01-1.51 0l-.01-.01-.001-.01c-.01-.42.33-.75.74-.75M4.98 4.16l-.01-.001c.27 0 .49.22.5.5v-.01c-.01.27-.24.49-.51.5l-.01-.001c-.28-.01-.5-.23-.5-.51s.22-.5.5-.5M12.08 21.919h-.01c.27-.01.5.22.5.49s-.23.5-.5.5h-.01c-.28-.01-.5-.23-.5-.51s.22-.5.5-.5M22.3 12.41h-.01c.27-.01.49.21.5.48v.01c0 .27-.23.5-.5.5-.28 0-.5-.23-.5-.5h0c-.01-.28.22-.51.49-.51M7.493 1.079v-.001c.13-.01.24.1.24.24 0 0 0 0 0 0h0c0 .13-.11.25-.25.25s-.26-.11-.26-.25c-.01-.14.1-.26.24-.26v-.01M4.042 18.53h-.01c.13-.01.24.11.24.24h-.01v0c0 .13-.12.25-.25.25-.14 0-.25-.12-.25-.25h0c-.01-.14.1-.25.24-.25 0-.01 0-.01 0 0"/><path d="M16.361 16.018v-.01a.57.57 0 00-.08-1.04l-.01-.01c-.06-.03-.12-.04-.18-.06-.24-.05-.47-.08-.7-.13h0a.615.615 0 01-.6-.63c0-.05 0-.09.01-.13v-.01c.02-.28.07-.56.16-.82.2-.57.44-1.12.66-1.673.24-.593.49-1.19.72-1.78h-.01c.12-.3.16-.63.1-.95h0c-.05-.44-.34-.81-.74-.97l-.01-.01c-.52-.22-1.11-.19-1.6.09v-.01c-.14.1-.34.08-.45-.05l-.01-.01c-.13-.12-.24-.24-.38-.34l-.01-.01a.867.867 0 00-.33-.17l-.01-.01c-.38-.12-.78-.03-1.07.23-.1.08-.2.17-.3.25v-.01c-.11.08-.22.16-.33.23h-.01c-.14.07-.31.08-.44 0-.29-.14-.57-.27-.85-.4h0c-.24-.12-.52-.17-.78-.12h-.01c-.61.07-1.14.43-1.43.97h-.01c-.19.35-.34.73-.46 1.11-.44 1.35-.87 2.71-1.28 4.074h-.01c-.18.5-.05 1.07.35 1.44l-.01-.01c.33.32.79.48 1.25.44h-.01c.43-.02.82-.28 1-.67v-.01c.04-.09.08-.17.12-.26.51-1.28 1.69-4.14 1.69-4.14s-.53 1.24-.76 1.83c-.16.4-.22.48-.37.875h-.01c-.15.61.22 1.23.84 1.38.02 0 .04.01.07.01l-.01-.01c.6.11 1.2-.19 1.47-.74.04-.1 1.27-2.766 1.72-3.66 0 0-.62 1.41-1.14 2.45-1.3 2.48 1.74 4.24 3.96 3.19z"/></g></symbol><symbol viewBox="-1 -1 26 26" id="ai-social-media-snapchat"><path stroke-linecap="round" stroke-linejoin="round" d="M22.06 17.71v-.01a.836.836 0 00.1-1.56l-.01-.01c-.98-.46-1.9-1.01-2.76-1.66h0a1.33 1.33 0 01-.26-1.87c.09-.13.21-.24.34-.32l1.2-.77h-.01c.62-.4.8-1.22.41-1.84-.4-.63-1.22-.81-1.84-.42h-.01l-1.29.81V6.94v0c0-3.32-2.69-6-6-6-3.32 0-6 2.68-6 6v3.11l-1.29-.82-.01-.01C4 8.82 3.18 9 2.79 9.63c-.4.62-.22 1.44.41 1.84l1.2.76h0c.62.39.8 1.21.41 1.84-.09.13-.2.25-.32.34h-.01c-.86.64-1.79 1.2-2.76 1.65v-.01c-.42.18-.61.67-.42 1.09.09.22.29.39.52.45l1.96.4h0c.42.12.67.55.57.98v-.01c-.18.68.24 1.38.93 1.55.17.04.34.04.52.02l.62-.1h-.01c.9-.16 1.83.14 2.48.79l-.01-.01c.75.89 1.8 1.47 2.96 1.62v-.01c1.15-.16 2.21-.74 2.96-1.63h-.01c.64-.66 1.57-.96 2.48-.81l.62.1-.01-.01c.69.11 1.35-.36 1.47-1.06.02-.18.02-.35-.02-.52l-.01-.01c-.11-.43.14-.87.57-.99z"/></symbol><symbol viewBox="-1 -1 26 26" id="ai-social-media-twitter"><path stroke-linecap="round" stroke-linejoin="round" d="M23 6.62l-2-.5 1-2-2.47.7h0a4.496 4.496 0 00-6.34.21c-.78.83-1.22 1.93-1.21 3.08v1c-3.54.73-6.64-1.2-9.5-4.5-.5 2.66 0 4.66 1.5 6l-3-.5c.405 2.06 1.362 3.7 4 4l-2.5 1c1 2 2.566 2.31 5 2.5h-.01c-1.9 1.35-4.18 2.05-6.5 1.99 12.75 5.66 20-2.67 20-10V8.27z"/></symbol><symbol viewBox="-1 -1 26 26" id="ai-social-media-yammer"><path stroke-linecap="round" stroke-linejoin="round" d="M13.11 4.32L8.1 17.08c-.97 2.44-1.73 4.96-4.92 5.02v-.01c-.61.05-1.22-.03-1.79-.23l-.01-.01a1.1 1.1 0 01-.34-1.51c.08-.14.19-.25.33-.34h-.01c.25-.16.55-.21.85-.16 2.23.15 2.808-1.26 3.47-3.04L.59 4.26h0a1.17 1.17 0 01.39-1.62c.05-.04.11-.07.17-.09v-.01a1.264 1.264 0 011.76.84c1.32 3.32 2.71 6.79 4 10.12.03.05.11.07.15 0l1.16-3.11c.87-2.28 1.8-4.57 2.61-6.89h-.01c.12-.56.62-.95 1.19-.94H12c.17-.01.35.02.51.11h0c.55.27.78.95.5 1.51-.01 0-.01.01-.02.02zm.88 4.74c.532-.61 4.666-3.93 5.5-4.12h-.01c.61-.19 1.26.16 1.45.77.13.43-.01.91-.36 1.21v-.01a31.442 31.442 0 01-6.2 2.67c-.21.06-.52.1-.59-.02-.1-.16.05-.38.19-.54zm8.64 2.35l-.01-.01c.48.13.83.57.85 1.08v.02h-.01c-.02.51-.36.96-.86 1.09v-.01c-2.09.05-4.17-.16-6.2-.63-.52-.16-.86-.27-.88-.48.01-.21.36-.35.87-.48h-.01c2.02-.5 4.11-.71 6.2-.63zm-8.838 4.116c.07-.14.38-.08.58-.04.89.17 5.65 2.106 6.2 2.69h0c.48.42.53 1.15.11 1.64-.31.34-.78.48-1.22.34-.84-.19-4.97-3.53-5.5-4.12-.14-.18-.29-.39-.19-.532z"/></symbol><symbol viewBox="-1 -1 26 26" id="ai-social-music-podcast"><g stroke-linecap="round" stroke-linejoin="round"><path d="M6.487 13.519l-.01-.01a6.497 6.497 0 012.06-8.96c3.04-1.91 7.05-.98 8.95 2.06a6.527 6.527 0 01-.01 6.9"/><path d="M5 16.5h0c-3.55-3.87-3.3-9.88.57-13.43 3.86-3.55 9.87-3.3 13.42.57 3.32 3.62 3.33 9.18.02 12.82"/><path d="M15.253 16.72v-.01c.12-1.1-.67-2.09-1.77-2.21-.08-.01-.15-.02-.22-.02h-2.54l-.01-.001c-1.11-.01-2.01.89-2.01 1.99-.01.07 0 .14.01.22l.55 5-.01-.01c.11 1.01.96 1.77 1.98 1.78h1.42l-.01-.001c1.02 0 1.87-.77 1.99-1.78zM12 7.54a2.5 2.5 0 100 5 2.5 2.5 0 100-5z"/></g></symbol><symbol viewBox="-1 -1 26 26" id="ai-social-video-youtube-clip"><path stroke-linecap="round" stroke-linejoin="round" d="M23.5 6.939v-.01c0-1.9-1.54-3.44-3.44-3.44H3.92v-.001C2.02 3.48.48 5.02.48 6.91s0 0 0 0v9.12-.01c-.01 1.89 1.53 3.43 3.43 3.44 0 0 0 0 0 0h16.12c1.89 0 3.43-1.54 3.43-3.44 0-.01-.01-.01-.01-.01zm-14 8.5v-8.66l6.76 4.33z"/></symbol><symbol viewBox="-1 -1 26 26" id="ai-subtract"><path stroke-linecap="round" stroke-linejoin="round" d="M23.5 12H.5"/></symbol><symbol viewBox="-1 -1 26 26" id="ai-subtract-square"><g stroke-linecap="round" stroke-linejoin="round"><path d="M18 12H6"/><rect width="22" height="22" x="1" y="1" rx="1"/></g></symbol><symbol viewBox="-1 -1 26 26" id="ai-switch-off-1"><g stroke-linecap="round" stroke-linejoin="round" transform="matrix(-1 -.00001 0 -1 24 24.002)"><rect width="23" height="23" x=".5" y=".501" rx="1"/><rect width="7" height="11" x="8.5" y="6.501" rx="1"/></g><path stroke-linecap="round" stroke-linejoin="round" d="M15.5 13.5h-7"/></symbol><symbol viewBox="-1 -1 26 26" id="ai-switch-on-1"><g stroke-linecap="round" stroke-linejoin="round"><rect width="23" height="23" x=".5" y=".501" rx="1"/><rect width="7" height="11" x="8.5" y="6.501" rx="1"/><path d="M8.5 10.5h7"/></g></symbol><symbol viewBox="-1 -1 26 26" id="ai-synchronize-arrows-1"><g stroke-linecap="round" stroke-linejoin="round"><path d="M.714 10.35l2.787 4.15 3.2-3.84M23.28 14.65l-2.79-4.16-3.21 3.83"/><path d="M20.464 10.54h0c.7 4.44-2.14 8.68-6.52 9.72h-.01c-2.86.67-5.85-.17-7.94-2.23M3.5 14.47h0C2.31 9.72 5.2 4.92 9.94 3.73c.02-.01.05-.02.08-.03h-.01c3.04-.73 6.24.29 8.32 2.64"/></g></symbol><symbol viewBox="-1 -1 26 26" id="ai-synchronize-arrows-three"><g stroke-linecap="round" stroke-linejoin="round"><path d="M23.494 14.094l-3.42-3.795-2.69 4.34"/><path d="M20.05 10.347h0c1.39 5.3-1.77 10.73-7.08 12.14M5.887.774L3.97 5.51l5.08.5"/><path d="M3.99 5.5v-.01C8.16 1.9 14.43 2.36 18.04 6.51M2.23 23.221l5.05-.74-2.13-4.65"/><path d="M7.21 22.44h0A9.928 9.928 0 011.06 9.81"/></g></symbol><symbol viewBox="-1 -1 26 26" id="ai-tags"><g stroke-linecap="round" stroke-linejoin="round"><path d="M23.5 15.22l-7.78 7.77v-.01c-.4.39-1.03.39-1.42 0l-.01-.01-13.1-13.1h0C.76 9.39.51 8.79.48 8.16l-.01-6.5h0A.99.99 0 011.46.65h6.49L7.94.64c.63.03 1.23.28 1.7.7z"/><path d="M5.5 3.7a2 2 0 100 4 2 2 0 100-4z"/></g></symbol><symbol viewBox="-1 -1 26 26" id="ai-tags-double"><g stroke-linecap="round" stroke-linejoin="round"><path d="M21 16h0c.39.39.39 1.02 0 1.41h-.01l-5.59 5.58v-.01c-.4.39-1.03.39-1.42 0l-.01-.01L1.38 10.38l-.01-.01C.94 9.89.69 9.29.66 8.66v-5h0a.99.99 0 01.99-1.01h5c.63.03 1.23.28 1.7.7z"/><path d="M3.7.7h6.17-.01c.53-.01 1.03.21 1.41.58l11.7 11.7h0c.39.39.39 1.02 0 1.41h-.01l-.3.29M5.2 5.7a1.5 1.5 0 100 3 1.5 1.5 0 100-3z"/></g></symbol><symbol viewBox="-1 -1 26 26" id="ai-text-bold"><g stroke-linecap="round" stroke-linejoin="round"><path d="M6.5.5v23M6.5 11.5H13l-.01-.001c3.03 0 5.5-2.47 5.5-5.5 0-3.04-2.47-5.5-5.5-5.5h-9.5"/><path d="M13 11.5h1.5-.01c3.31-.01 6 2.68 6 6 0 3.31-2.69 6-6 6h-11"/></g></symbol><symbol viewBox="-1 -1 26 26" id="ai-text-italic"><g stroke-linecap="round" stroke-linejoin="round"><path d="M19.5.5l-15 23M.5 23.5h8M15.5.5h8"/></g></symbol><symbol viewBox="-1 -1 26 26" id="ai-text-strike-through"><g stroke-linecap="round" stroke-linejoin="round"><path d="M.5 13.5h23M15.5 6.5v-.01a5.864 5.864 0 00-5.72-6c-.05-.01-.1-.01-.15-.01h-.01c-2.85 0-5.15 2.3-5.14 5.14 0 2.28 1.5 4.28 3.69 4.93l3.97 1.16h0c3.18.92 5.01 4.25 4.08 7.43a6.012 6.012 0 01-5.77 4.32l-.01-.001a7.01 7.01 0 01-7-7.01v-.001"/></g></symbol><symbol viewBox="-1 -1 26 26" id="ai-text-underline"><g stroke-linecap="round" stroke-linejoin="round"><path d="M.5 23.5h23M4.5.5V12h0c0 4.14 3.35 7.49 7.5 7.49a7.503 7.503 0 007.49-7.51V.48M1.5.5h6M16.5.5h6"/></g></symbol><symbol viewBox="-1 -1 26 26" id="ai-toilet-paper-1"><g stroke-linecap="round" stroke-linejoin="round"><path d="M8 .5a7.5 3.5 0 100 7 7.5 3.5 0 100-7z"/><path d="M8 2.5a3.5 1.5 0 100 3 3.5 1.5 0 100-3zM15.5 20c0 1.93-3.36 3.5-7.5 3.5C3.85 23.5.5 21.93.5 20V4M15.5 4h7.186-.01c.27-.01.5.22.5.49 0 .09-.03.17-.08.25l-.9 1.48v-.01c-.1.15-.1.35-.01.51l1.21 2.051h0c.08.14.09.32.01.47l-1.27 2.51v-.01c-.08.14-.08.3-.01.44l1.26 2.529h0c.07.15.06.33-.02.48l-1.2 1.98v-.01c-.1.15-.1.35-.01.51l.89 1.48h0c.14.23.06.54-.18.68-.08.04-.17.07-.26.07h-7.19z"/></g></symbol><symbol viewBox="-1 -1 26 26" id="ai-touch-id-5"><g stroke-linecap="round" stroke-linejoin="round"><path d="M6 12.92v6.16M15.317 5.917h0a5.995 5.995 0 00-8.32 1.68c-.66.98-1.01 2.13-1.01 3.31M18 19.084v-8.167h-.01c0-1.19-.35-2.35-1.01-3.34"/><path d="M16 15.251v-4.334 0a3.999 3.999 0 10-8 0v8.167M16 19.08v-1.83M10 16.25v2.83"/><path d="M14 19.084v-8.167 0a2 2 0 00-2-2c-1.11 0-2 .89-2 2v3.333M12 11.25v5.33M12 18.58v.5M17.25.5h5.25-.01c.55-.01 1 .44 1 .99v21c0 .55-.45 1-1 1h-5.25M6.75 23.5H1.49c-.56-.01-1-.45-1-1.01V1.489h0A.993.993 0 011.48.47h5.25"/></g></symbol><symbol viewBox="-1 -1 26 26" id="ai-undo"><g stroke-linecap="round" stroke-linejoin="round"><path d="M1.5.498v7h7"/><path d="M1.5 7.5h-.01c3.75-5.17 10.97-6.35 16.17-2.65h0c5.17 3.69 6.36 10.88 2.67 16.05-.72.99-1.58 1.86-2.57 2.59"/></g></symbol><symbol viewBox="-1 -1 26 26" id="ai-upload-bottom"><g stroke-linecap="round" stroke-linejoin="round"><path d="M23 18.218v1.91-.01a2.874 2.874 0 01-2.87 2.86H3.86l-.01-.001C2.26 22.96.98 21.68.98 20.1v-1.92M12 1v17.11M5 8l7-7 7 7"/></g></symbol><symbol viewBox="-1 -1 26 26" id="ai-upload-button"><g stroke-linecap="round" stroke-linejoin="round"><path d="M12 23.5V6.89M16 11.88l-4-5-4 5"/><path d="M9.5 16.5H4.99c-.56-.01-1-.45-1-1.01 0 0 0 0 0 0v-14h0A.99.99 0 014.98.48h14-.01c.55-.01 1 .44 1 .99v14c0 .55-.45 1-1 1h-4.5"/></g></symbol><symbol viewBox="-1 -1 26 26" id="ai-usb-port-1"><g stroke-linecap="round" stroke-linejoin="round"><path d="M12 18.5a2.5 2.5 0 100 5 2.5 2.5 0 100-5zM12 18.5V.5M14.5 3L12 .5 9.5 3M12 14l3.15-1.97h-.01c.5-.36.81-.92.84-1.53v-2M12 16l-3.16-1.97-.01-.01c-.51-.36-.82-.92-.85-1.53v-2"/><rect width="3" height="3" x="14.5" y="5.5" rx=".5"/><path d="M8 7.5a1.5 1.5 0 100 3 1.5 1.5 0 100-3z"/></g></symbol><symbol viewBox="-1 -1 26 26" id="ai-user-signal-1"><g stroke-linecap="round" stroke-linejoin="round"><path d="M12 9.49a3 3 0 100 6 3 3 0 100-6zM16.5 23.5c-.32-3.4-2.24-6-4.5-6-2.27 0-4.188 2.6-4.5 6z"/><path d="M17.3 17.3h-.01a7.502 7.502 0 000-10.61 7.493 7.493 0 00-10.61-.01c-2.94 2.92-2.94 7.67-.01 10.6 0 0 0 0 0 0"/><path d="M20.132 20.13v-.01c4.49-4.5 4.49-11.78-.01-16.27-4.5-4.5-11.78-4.5-16.27 0-4.5 4.49-4.5 11.77 0 16.26"/></g></symbol><symbol viewBox="-1 -1 26 26" id="ai-vectors-anchor-rectangle"><g stroke-linecap="round" stroke-linejoin="round"><path d="M21.5 7.5v9M4.5 2.5l15 3M2.5 19.5v-15M19.5 18.5l-15 3"/><rect width="4" height="4" x=".5" y=".5" rx=".5"/><rect width="4" height="4" x="19.5" y="3.5" rx=".5"/><rect width="4" height="4" x=".5" y="19.5" rx=".5"/><rect width="4" height="4" x="19.5" y="16.5" rx=".5"/></g></symbol><symbol viewBox="-1 -1 26 26" id="ai-vectors-anchor-square"><g stroke-linecap="round" stroke-linejoin="round"><path d="M21.5 4.5v15M4.5 2.5h15M2.5 19.5v-15M19.5 21.5h-15"/><rect width="4" height="4" x=".5" y=".5" rx="1"/><rect width="4" height="4" x="19.5" y=".5" rx="1"/><rect width="4" height="4" x=".5" y="19.5" rx="1"/><rect width="4" height="4" x="19.5" y="19.5" rx="1"/></g></symbol><symbol viewBox="-1 -1 26 26" id="ai-vectors-anchor-triangle"><g stroke-linecap="round" stroke-linejoin="round"><rect width="4" height="4" x="10" y=".5" rx=".5"/><rect width="4" height="4" x="19.5" y="19.5" rx=".5"/><rect width="4" height="4" x=".5" y="19.5" rx=".5"/><path d="M12.29 4.5l8.13 15M3.58 19.5l8.13-15M19.5 21.5h-15"/></g></symbol><symbol viewBox="-1 -1 26 26" id="ai-vectors-line-path"><g stroke-linecap="round" stroke-linejoin="round"><rect width="5" height="5" x=".5" y="18.5" rx="1"/><rect width="5" height="5" x="18.5" y=".5" rx="1"/><path d="M5.21 18.79L18.79 5.21"/></g></symbol><symbol viewBox="-1 -1 26 26" id="ai-video-file-camera"><g stroke-linecap="round" stroke-linejoin="round"><path d="M21.207 4.5l-.01-.01c.18.18.29.44.29.7v17.29c0 .55-.45 1-1 1H3.477c-.56-.01-1-.45-1-1.01V1.469h0A.983.983 0 013.46.45h13.29c.26 0 .51.1.7.29z"/><path d="M16.577 11.542l-3.08 1.45v-1.5 0c0-.56-.45-1-1-1h-5.01c-.56 0-1 .44-1 1 0 0 0 0 0 0v5h0c0 .55.44.99 1 .99h5-.01c.55 0 1-.45 1-1v-1.51l3.077 1.45-.01-.01a.616.616 0 00.91-.63v-3.69h-.01a.635.635 0 00-.93-.63z"/></g></symbol><symbol viewBox="-1 -1 26 26" id="ai-video-player"><g stroke-linecap="round" stroke-linejoin="round"><path d="M9.947 15.776v-.01c-.5.24-1.1.04-1.35-.45-.07-.14-.11-.3-.11-.45V9.09h-.01c0-.56.44-1 1-1 .15 0 .3.03.44.1l5.76 2.88h0c.49.24.69.84.44 1.34-.1.19-.26.34-.45.44z"/><rect width="23" height="19" x=".5" y="2.5" rx="4"/></g></symbol><symbol viewBox="-1 -1 26 26" id="ai-view-1"><g stroke-linecap="round" stroke-linejoin="round"><path d="M12 8.5a3.5 3.5 0 100 7 3.5 3.5 0 100-7z"/><path d="M23.376 11.672c-1.17-1.32-5.82-6.18-11.38-6.18-5.57 0-10.22 4.85-11.38 6.17h-.01c-.17.18-.17.46 0 .65 1.16 1.32 5.81 6.17 11.37 6.17s10.21-4.852 11.37-6.18h-.01c.16-.19.16-.47 0-.66z"/></g></symbol><symbol viewBox="-1 -1 26 26" id="ai-view-off"><g stroke-linecap="round" stroke-linejoin="round"><path d="M19.518 8.288h0c1.47 1.06 2.81 2.31 3.98 3.71 0 0-5.15 6.49-11.5 6.49h0c-1.02-.01-2.03-.17-3-.47M4.468 15.7h0A22.122 22.122 0 01.498 12s5.14-6.51 11.49-6.51l-.01-.001c.84 0 1.68.11 2.5.32"/><path d="M8 12h0a3.999 3.999 0 013.99-4.01M16 12v0c0 2.2-1.8 4-4 4M21.75 2.25l-19.5 19.5"/></g></symbol><symbol viewBox="-1 -1 26 26" id="ai-volume-control-full"><g stroke-linecap="round" stroke-linejoin="round"><path d="M5.5 9H1.99c-.83 0-1.5.67-1.5 1.5 0 0 0 0 0 0v3h0c0 .82.67 1.49 1.5 1.49h3.49l6.14 6.14h0c.19.19.51.19.7-.01.09-.1.14-.22.14-.36V3.17l-.01-.01a.51.51 0 00-.51-.5c-.14 0-.26.05-.36.14zM20 4h0c4.41 4.08 4.69 10.97.6 15.39-.2.21-.4.41-.61.6"/><path d="M17.5 6h0c3.31 2.51 3.95 7.24 1.44 10.55-.42.54-.9 1.02-1.45 1.44M15.5 8.5c2.67 1.94 2.66 5.06 0 7"/></g></symbol><symbol viewBox="-1 -1 26 26" id="ai-volume-control-low"><g stroke-linecap="round" stroke-linejoin="round"><path d="M5.5 9H1.99c-.83 0-1.5.67-1.5 1.5 0 0 0 0 0 0v3h0c0 .82.67 1.49 1.5 1.49h3.49l6.14 6.14h0c.19.19.51.19.7-.01.09-.1.14-.22.14-.36V3.17l-.01-.01a.51.51 0 00-.51-.5c-.14 0-.26.05-.36.14zM15.5 8.5c2.67 1.94 2.66 5.06 0 7"/></g></symbol><symbol viewBox="-1 -1 26 26" id="ai-volume-control-medium"><g stroke-linecap="round" stroke-linejoin="round"><path d="M7.011 9H3.5C2.67 9 2 9.67 2 10.5s0 0 0 0v3h0c0 .82.67 1.49 1.5 1.49H7l6.14 6.14h0c.19.19.51.19.7-.01.09-.1.14-.22.14-.36V3.17l-.01-.01a.51.51 0 00-.51-.5c-.14 0-.26.05-.36.14zM19.01 6h0c3.31 2.51 3.95 7.24 1.44 10.55-.42.54-.9 1.02-1.45 1.44M17.01 8.5c2.67 1.94 2.66 5.06 0 7"/></g></symbol><symbol viewBox="-1 -1 26 26" id="ai-volume-control-off"><g stroke-linecap="round" stroke-linejoin="round"><path d="M9 18.5l2.64 2.64h0c.19.19.51.19.7-.01.09-.1.14-.22.14-.36v-7.3M12.5 7.5V3.2l-.01-.01a.51.51 0 00-.51-.5c-.14 0-.26.05-.36.14L5.47 8.97H1.96c-.83 0-1.5.67-1.5 1.5 0 0 0 0 0 0v3h0c0 .82.67 1.49 1.5 1.49h2.49M15.5 12v0a2.5 2.5 0 01-2.5 2.5h-.5M1.5 22l20-20"/></g></symbol><symbol viewBox="-1 -1 26 26" id="ai-watch-time"><g stroke-linecap="round" stroke-linejoin="round"><path d="M8.5 5.937V1.5h0A.99.99 0 019.49.49h5-.01c.55-.01 1 .44 1 .99v4.43M8.5 18.063v4.43h0c0 .55.44.99 1 .99h5-.01c.55 0 1-.45 1-1v-4.44"/><path d="M12 5a7 7 0 100 14 7 7 0 100-14z"/><path d="M12.003 9.001v3l3.5 3"/></g></symbol><symbol viewBox="-1 -1 26 26" id="ai-wench-1"><path stroke-linecap="round" stroke-linejoin="round" d="M23.021 2.97l-2.53 2.52h-2v-2l2.52-2.53h0a4.502 4.502 0 00-6.34 5.32l-8.39 8.38-.01-.01c-2.38-.73-4.9.61-5.62 2.99a4.48 4.48 0 00.28 3.33l2.52-2.53h2v2l-2.53 2.52h0c2.22 1.11 4.92.22 6.04-2 .51-1.04.62-2.23.28-3.34l8.38-8.387-.01-.01a4.5 4.5 0 005.61-3c.33-1.11.23-2.3-.29-3.34z"/></symbol><symbol viewBox="-1 -1 26 26" id="ai-wifi"><g stroke-linecap="round" stroke-linejoin="round"><path d="M5.03 10.43h-.01c3.9-3.91 10.23-3.91 14.14-.01"/><path d="M22 6.6h0C16.53 1.13 7.66 1.13 2.2 6.59h-.01M7.85 14.257v-.01a5.99 5.99 0 018.48-.01s0 0 0 0"/><path d="M19.172 10.43l-.01-.01a10 10 0 00-14.15 0M16.344 14.257h0c-2.35-2.35-6.15-2.35-8.49-.01h-.01M12.1 17.5a2 2 0 100 4 2 2 0 100-4z"/></g></symbol><symbol viewBox="-1 -1 26 26" id="ai-zip-file"><g stroke-linecap="round" stroke-linejoin="round"><path d="M21.207 4.5l-.01-.01c.18.18.29.44.29.7v17.29c0 .55-.45 1-1 1H3.477c-.56-.01-1-.45-1-1.01V1.469h0A.983.983 0 013.46.45h13.29c.26 0 .51.1.7.29z"/><path d="M9.755 8v0c0 .13-.12.25-.25.25-.14 0-.25-.12-.25-.25 0-.14.11-.25.25-.25h-.01c.13-.01.25.11.25.24M9.755 10.5v0c0 .13-.12.25-.25.25-.14 0-.25-.12-.25-.25 0-.14.11-.25.25-.25h-.01c.13-.01.25.11.25.24M9.755 13v0c0 .13-.12.25-.25.25-.14 0-.25-.12-.25-.25 0-.14.11-.25.25-.25h-.01c.13-.01.25.11.25.24M9.745 15.5v0c0 .13-.12.25-.25.25-.14 0-.25-.12-.25-.25 0-.14.11-.25.25-.25h-.01c.13-.01.24.11.25.24 0 0 0 0 0 0M9.745 18.021v0c0 .13-.12.25-.25.25-.14 0-.25-.12-.25-.25 0-.14.11-.25.25-.25h-.01c.13-.01.24.11.25.24 0 0 0 0 0 0M9.745 20.56v0c0 .13-.12.25-.25.25-.14 0-.25-.12-.25-.25 0-.14.11-.25.25-.25h-.01c.13-.01.24.11.25.24 0 0 0 0 0 0M10.989 4.111h0c.05.42-.08.84-.36 1.16v-.01c-.28.31-.68.49-1.1.5h-.07l-.01-.001c-.43-.01-.83-.19-1.1-.5h0c-.28-.32-.41-.75-.36-1.17L8.33.47h2.13z"/></g></symbol><symbol viewBox="-1 -1 26 26" id="ai-zoom-in"><g stroke-linecap="round" stroke-linejoin="round"><path d="M8.5.49a8 8 0 100 16 8 8 0 100-16zM14.17 14.17l9.33 9.33M5 8.5h7M8.5 5v7"/></g></symbol><symbol viewBox="-1 -1 26 26" id="ai-zoom-out"><g stroke-linecap="round" stroke-linejoin="round"><path d="M8.5.49a8 8 0 100 16 8 8 0 100-16zM14.16 14.15l9.34 9.35M5 8.5h7"/></g></symbol></svg>