<?xml version="1.0" standalone="no"?>
<!DOCTYPE svg PUBLIC "-//W3C//DTD SVG 1.1//EN" "http://www.w3.org/Graphics/SVG/1.1/DTD/svg11.dtd" >
<svg xmlns="http://www.w3.org/2000/svg" xmlns:xlink="http://www.w3.org/1999/xlink" version="1.1">
<metadata></metadata>
<defs>
<font id="antwerpen_talltall" horiz-adv-x="1248" >
<font-face units-per-em="2048" ascent="1638" descent="-410" />
<missing-glyph horiz-adv-x="500" />
<glyph horiz-adv-x="0" />
<glyph horiz-adv-x="682" />
<glyph unicode=" "  horiz-adv-x="500" />
<glyph unicode="&#x09;" horiz-adv-x="500" />
<glyph unicode="&#xa0;" horiz-adv-x="500" />
<glyph unicode="!" horiz-adv-x="560" d="M150 58v144q0 24 16.5 41t40.5 17h146q24 0 40.5 -17t16.5 -41v-144q0 -24 -16.5 -41t-40.5 -17h-146q-24 0 -40.5 17t-16.5 41zM150 557v1486q0 24 17 40.5t41 16.5h144q24 0 41 -16.5t17 -40.5v-1486q0 -24 -17 -40.5t-41 -16.5h-144q-24 0 -41 16.5t-17 40.5z" />
<glyph unicode="&#x22;" horiz-adv-x="1020" d="M150 1532v511q0 24 17 40.5t41 16.5h144q24 0 41 -16.5t17 -40.5v-511q0 -24 -17 -40.5t-41 -16.5h-144q-24 0 -41 16.5t-17 40.5zM610 1532v511q0 24 17 40.5t41 16.5h144q24 0 41 -16.5t17 -40.5v-511q0 -24 -17 -40.5t-41 -16.5h-144q-24 0 -41 16.5t-17 40.5z" />
<glyph unicode="#" horiz-adv-x="1586" d="M100 952q0 24 16.5 41t40.5 17h223l38 214h-262q-24 0 -40 17t-15 41l-1 144q0 24 16.5 41t40.5 17h306l63 355q4 24 23.5 37t43.5 8l142 -25q23 -4 37 -22.5t10 -43.5l-54 -309h227l63 355q4 24 23.5 37t43.5 8l142 -25q23 -4 37 -22.5t10 -43.5l-54 -309h210 q24 0 40 -17t16 -41v-144q0 -24 -16.5 -41t-40.5 -17h-255l-38 -214h294q24 0 40 -17t16 -41v-144q0 -24 -16.5 -41t-40.5 -17h-339l-74 -421q-4 -24 -23.5 -37t-43.5 -8l-142 25q-24 4 -37.5 23t-9.5 43l66 375h-228l-74 -421q-4 -24 -23.5 -37t-43.5 -8l-142 25 q-24 4 -37.5 23t-9.5 43l66 375h-178q-24 0 -40 17t-15 41zM644 1010h228l38 214h-228z" />
<glyph unicode="$" horiz-adv-x="1134" d="M90 1156q0 370 394 432v144q0 30 20 49t50 19h60q30 0 50 -19t20 -49v-132h271q24 0 40.5 -17t16.5 -41v-134q0 -24 -16.5 -41t-40.5 -17h-316q-141 0 -205 -54t-64 -139q0 -52 23 -91.5t62 -65.5t89.5 -47.5t106.5 -42.5t112 -45t106.5 -60t89.5 -82.5t62 -118 t23 -160.5q0 -382 -418 -435v-141q0 -30 -20 -49t-50 -19h-60q-30 0 -50 19t-20 49v132h-260q-24 0 -40.5 17t-16.5 41v134q0 24 16.5 41t40.5 17h329q141 0 205 54t64 138q0 51 -23 90t-62 65t-89.5 47.5t-106.5 43t-112 45.5t-106.5 60.5t-89.5 83.5t-62 118.5t-23 160.5z " />
<glyph unicode="%" horiz-adv-x="1831" d="M100 1220q0 90 8 149.5t30 108.5t62.5 76t102.5 41.5t153 14.5q76 0 131 -9t95.5 -30t65.5 -50.5t40 -76t20.5 -100t5.5 -129.5q0 -117 -14 -190t-53 -125t-107.5 -73.5t-178.5 -21.5q-91 0 -154 16t-103.5 45.5t-63.5 82t-31.5 115.5t-8.5 156zM327 1219q0 -79 11 -115 t37 -48t84 -12q83 0 105.5 29t22.5 140q0 105 -22.5 131.5t-108.5 26.5q-84 0 -106.5 -25.5t-22.5 -126.5zM380 213q-5 22 9 43l831 1233q13 20 36.5 24t43.5 -10l119 -80q20 -14 24.5 -36.5t-8.5 -42.5l-831 -1233q-13 -20 -36.5 -24t-42.5 10l-120 80q-20 14 -25 36z M1017 405q0 75 5.5 127.5t20 98.5t39.5 75t64.5 50t95 30t131.5 9t131 -9t95.5 -30t65.5 -50.5t40 -76t20.5 -100t5.5 -129.5q0 -117 -14 -190t-53 -125t-107.5 -73.5t-178.5 -21.5q-91 0 -154 16t-103.5 45.5t-63.5 82t-31.5 115.5t-8.5 156zM1244 404q0 -79 11 -115 t37 -48t84 -12q83 0 105.5 29t22.5 140q0 105 -22.5 131.5t-108.5 26.5q-84 0 -106.5 -25.5t-22.5 -126.5z" />
<glyph unicode="&#x26;" horiz-adv-x="1317" d="M100 454v22q0 220 106 339q-104 118 -106 335q0 73 12.5 137t43.5 124.5t79 103.5t125 69t176 26h203q24 0 40.5 -17t16.5 -41v-134q0 -24 -16.5 -41t-40.5 -17h-193q-46 0 -78 -12.5t-49 -30.5t-26 -49t-11 -55.5t-2 -62.5t2 -62.5t11 -55.5t26 -49t49 -30.5t78 -12.5 h250v213q0 24 17 40.5t41 16.5h145q24 0 41 -16.5t17 -40.5v-212h153q24 0 40.5 -17t16.5 -41v-134q0 -24 -16.5 -41t-40.5 -17h-153v-253q0 -133 -22.5 -222.5t-67.5 -138t-101 -68t-134 -19.5h-196q-100 0 -177 26.5t-125 69.5t-79 104.5t-43 125.5t-12 138zM100 1146v8 v-4v-4zM380 454q0 -32 1.5 -53t6 -49t15.5 -45t28.5 -34t46.5 -25t68 -8h136q67 0 91 57.5t24 197.5v195h-251q-39 0 -68 -8t-46.5 -25t-28.5 -34t-15.5 -45t-6 -49t-1.5 -53v-22z" />
<glyph unicode="'" horiz-adv-x="560" d="M150 1532v511q0 24 17 40.5t41 16.5h144q24 0 41 -16.5t17 -40.5v-511q0 -24 -17 -40.5t-41 -16.5h-144q-24 0 -41 16.5t-17 40.5z" />
<glyph unicode="(" horiz-adv-x="825" d="M100 840v430q1 122 6 214.5t18 178t33.5 146.5t53.5 113.5t76.5 86t103.5 57t134.5 34t168.5 10.5h24q24 0 40.5 -17t16.5 -41v-134q0 -24 -16.5 -41t-40.5 -17h-21q-57 0 -95.5 -5t-75.5 -19.5t-60.5 -42t-43.5 -70t-30.5 -106.5t-16 -148.5t-5.5 -198.5v-430 q0 -114 5.5 -198.5t16 -148.5t30.5 -106.5t43.5 -70t60.5 -42t75.5 -19.5t95.5 -5h21q24 0 40.5 -17t16.5 -41v-134q0 -24 -16.5 -41t-40.5 -17h-24q-94 0 -168.5 10.5t-134.5 34t-103.5 57t-76.5 86t-53.5 113.5t-33.5 146.5t-18 178t-6 214.5z" />
<glyph unicode=")" horiz-adv-x="825" d="M50 58v134q0 24 16.5 41t40.5 17h21q57 0 95.5 5t75.5 19.5t60.5 42t43.5 70t30.5 106.5t16 148.5t5.5 198.5v430q0 114 -5.5 198.5t-16 148.5t-30.5 106.5t-43.5 70t-60.5 42t-75.5 19.5t-95.5 5h-21q-24 0 -40.5 17t-16.5 41v134q0 24 16.5 41t40.5 17h24 q94 0 168.5 -10.5t134.5 -34t103.5 -57t76.5 -86t53.5 -113.5t33.5 -146.5t18 -178t6 -214.5v-430q-1 -122 -6 -214.5t-18 -178t-33.5 -146.5t-53.5 -113.5t-76.5 -86t-103.5 -57t-134.5 -34t-168.5 -10.5h-24q-24 0 -40.5 17t-16.5 41z" />
<glyph unicode="*" horiz-adv-x="1240" d="M101.5 1373q5.5 23 26.5 35l242 140l-242 139q-20 12 -26 35t6 44l67 116q12 20 35 27t43 -5l242 -140v279q0 24 17 40.5t41 16.5h134q24 0 41 -16.5t17 -40.5v-279l242 140q20 12 43 5t35 -27l67 -116q12 -21 6 -44t-26 -35l-242 -139l242 -140q21 -12 26.5 -35 t-6.5 -44l-67 -116q-12 -21 -34.5 -27.5t-43.5 5.5l-242 140v-279q0 -24 -17 -40.5t-41 -16.5h-134q-24 0 -41 16.5t-17 40.5v279l-242 -140q-21 -12 -43.5 -5.5t-34.5 27.5l-67 116q-12 21 -6.5 44z" />
<glyph unicode="+" horiz-adv-x="1100" d="M100 533v134q0 24 16.5 41t40.5 17h268v268q0 24 17 40.5t41 16.5h134q24 0 41 -16.5t17 -40.5v-268h268q24 0 40.5 -17t16.5 -41v-134q0 -24 -16.5 -41t-40.5 -17h-268v-268q0 -24 -17 -40.5t-41 -16.5h-134q-24 0 -41 16.5t-17 40.5v268h-268q-24 0 -40.5 17t-16.5 41z " />
<glyph unicode="," horiz-adv-x="560" d="M150 58v134q0 24 16.5 41t40.5 17h146q24 0 40.5 -17t16.5 -41v-394q0 -24 -16.5 -41t-40.5 -17h-32q-24 0 -40.5 17t-16.5 41v144q0 24 -16.5 41t-40.5 17t-40.5 17t-16.5 41z" />
<glyph unicode="-" horiz-adv-x="750" d="M100 965v134q0 24 16.5 41t40.5 17h436q24 0 40.5 -17t16.5 -41v-134q0 -24 -16.5 -41t-40.5 -17h-436q-24 0 -40.5 17t-16.5 41z" />
<glyph unicode="." horiz-adv-x="560" d="M150 58v144q0 24 16.5 41t40.5 17h146q24 0 40.5 -17t16.5 -41v-144q0 -24 -16.5 -41t-40.5 -17h-146q-24 0 -40.5 17t-16.5 41z" />
<glyph unicode="/" horiz-adv-x="1044" d="M53 146l694 1916q8 23 29.5 32t44.5 1l135 -49q23 -8 33 -29t2 -44l-694 -1916q-9 -23 -30 -32t-44 -1l-135 49q-23 8 -33.5 29t-1.5 44z" />
<glyph unicode="0" horiz-adv-x="1232" d="M100 530v1065q0 98 7.5 167.5t27 130t53 99t86.5 66.5t126 40t173 12h82q100 0 173.5 -12t126.5 -39.5t87 -66t54.5 -98.5t28 -130t7.5 -167v-1072q0 -119 -11.5 -201t-42 -149.5t-84 -105.5t-135.5 -58.5t-200 -20.5h-86q-116 0 -198.5 21t-136 61t-84 108t-42.5 150 t-12 200zM350 539q0 -99 8 -154.5t34.5 -89.5t66.5 -44.5t113 -10.5h88q74 0 113 8.5t66 40.5t35 86t8 153v1069q0 61 -3 100.5t-13 71t-24.5 48t-42 27t-60 13.5t-84.5 3h-82q-51 0 -83.5 -3t-59.5 -14t-41 -27.5t-23.5 -48t-12.5 -70.5t-3 -101v-1057z" />
<glyph unicode="1" horiz-adv-x="740" d="M100 58v134q0 24 16.5 41t40.5 17h78v1600h-78q-24 0 -40.5 17t-16.5 41v134q0 24 16.5 41t40.5 17h291q24 0 40.5 -17t16.5 -41v-1792h78q24 0 40.5 -17t16.5 -41v-134q0 -24 -16.5 -41t-40.5 -17h-426q-24 0 -40.5 17t-16.5 41z" />
<glyph unicode="2" horiz-adv-x="1269" d="M120 1646q0 74 12 138t43 125.5t79 104.5t125 69.5t177 26.5h128q100 0 177 -26.5t125 -69.5t79 -104.5t43 -125.5t12 -138v-133q0 -12 -16 -40l-676 -1217v-6h664q24 0 40.5 -17t16.5 -41v-134q0 -24 -16.5 -41t-40.5 -17h-877q-26 0 -41.5 16.5t-15.5 41.5v272 q0 10 16 40l676 1238v38q0 32 -1.5 53t-6 49t-15.5 45t-28.5 34t-46.5 25t-68 8h-118q-46 0 -79.5 -13t-51.5 -31.5t-28.5 -49t-13 -57t-2.5 -63.5q0 -24 -16.5 -41t-40.5 -17h-156q-24 0 -40.5 17t-16.5 41h-1z" />
<glyph unicode="3" horiz-adv-x="1120" d="M80 58v134q0 24 16.5 41t40.5 17h457q39 0 68 8t46.5 25t28.5 34t15.5 45t6 49t1.5 53v332q0 32 -1.5 53t-6 49t-15.5 45t-28.5 34t-46.5 25t-68 8h-298q-24 0 -40.5 17t-16.5 41v134q0 40 35 53l436 247v348h-573q-26 0 -41.5 16.5t-15.5 41.5v134q0 25 15.5 41.5 t41.5 16.5h785q24 0 41 -16.5t17 -40.5v-643q0 -30 -16 -40l-205 -119q78 -22 135 -67t87.5 -107t44.5 -128.5t14 -142.5v-332q0 -74 -12 -138t-43 -125.5t-79 -104.5t-125 -69.5t-177 -26.5h-467q-24 0 -40.5 17t-16.5 41z" />
<glyph unicode="4" horiz-adv-x="1159" d="M50 613v209q0 13 16 40l676 1199q3 10 11 20q17 19 44 19h154q24 0 41 -16.5t17 -40.5v-1238h43q24 0 40.5 -17t16.5 -41v-134q0 -24 -16.5 -41t-40.5 -17h-43v-498q0 -24 -17 -40.5t-41 -16.5h-154q-24 0 -41 16.5t-17 40.5v498h-632h-8q-20 2 -34 17q-15 16 -15 41z M352 805h387v688zM738 1999l1 1v4z" />
<glyph unicode="5" horiz-adv-x="1185" d="M125 58v134q0 24 16.5 41t40.5 17h457q39 0 68 8t46.5 25t28.5 34t15.5 45t6 49t1.5 53v332q0 32 -1.5 53t-6 49t-15.5 45t-28.5 34t-46.5 25t-68 8h-456q-24 0 -41 16.5t-17 40.5v976q0 25 17 40q15 17 40 17h800q26 0 41.5 -16.5t15.5 -41.5v-134q0 -25 -15.5 -41.5 t-41.5 -16.5h-587v-590h254q100 0 177 -26.5t125 -69.5t79 -104.5t43 -125.5t12 -138v-332q0 -74 -12 -138t-43 -125.5t-79 -104.5t-125 -69.5t-177 -26.5h-467q-24 0 -40.5 17t-16.5 41z" />
<glyph unicode="6" horiz-adv-x="1217" d="M125 454v1182q0 74 12 138t43 125.5t79 104.5t125 69.5t177 26.5h399q24 0 40.5 -17t16.5 -41v-134q0 -24 -16.5 -41t-40.5 -17h-399q-39 0 -68 -8t-46.5 -25t-28.5 -34t-15.5 -45t-6 -49t-1.5 -53v-251q74 22 166 22h120q100 0 177 -26.5t125 -69.5t79 -104.5t43 -125.5 t12 -138v-489q0 -74 -12 -138t-43 -125.5t-79 -104.5t-125 -69.5t-177 -26.5h-120q-100 0 -177 26.5t-125 69.5t-79 104.5t-43 125.5t-12 138zM405 454q0 -32 1.5 -53t6 -49t15.5 -45t28.5 -34t46.5 -25t68 -8h100q39 0 68 8t46.5 25t28.5 34t15.5 45t6 49t1.5 53v489 q0 32 -1.5 53t-6 49t-15.5 45t-28.5 34t-46.5 25t-68 8h-100q-39 0 -68 -8t-46.5 -25t-28.5 -34t-15.5 -45t-6 -49t-1.5 -53v-489z" />
<glyph unicode="7" horiz-adv-x="1191" d="M100 1908v134q0 25 15.5 41.5t41.5 16.5h877q25 0 40 -17q17 -15 17 -40v-743q0 -27 -16 -40l-613 -488v-715q0 -24 -17 -40.5t-41 -16.5h-154q-24 0 -41 16.5t-17 40.5v850q0 28 16 40l613 488v415h-664q-26 0 -41.5 16.5t-15.5 41.5z" />
<glyph unicode="8" horiz-adv-x="1262" d="M135 454v342q0 220 106 339q-106 119 -106 339v172q0 74 12 138t43 125.5t79 104.5t125 69.5t177 26.5h120q100 0 177 -26.5t125 -69.5t79 -104.5t43 -125.5t12 -138v-172q0 -220 -106 -339q106 -119 106 -339v-342q0 -74 -12 -138t-43 -125.5t-79 -104.5t-125 -69.5 t-177 -26.5h-120q-100 0 -177 26.5t-125 69.5t-79 104.5t-43 125.5t-12 138zM415 454q0 -32 1.5 -53t6 -49t15.5 -45t28.5 -34t46.5 -25t68 -8h100q39 0 68 8t46.5 25t28.5 34t15.5 45t6 49t1.5 53v342q0 32 -1.5 53t-6 49t-15.5 45t-28.5 34t-46.5 25t-68 8h-100 q-39 0 -68 -8t-46.5 -25t-28.5 -34t-15.5 -45t-6 -49t-1.5 -53v-342zM415 1474q0 -32 1.5 -53t6 -49t15.5 -45t28.5 -34t46.5 -25t68 -8h100q39 0 68 8t46.5 25t28.5 34t15.5 45t6 49t1.5 53v172q0 32 -1.5 53t-6 49t-15.5 45t-28.5 34t-46.5 25t-68 8h-100q-39 0 -68 -8 t-46.5 -25t-28.5 -34t-15.5 -45t-6 -49t-1.5 -53v-172z" />
<glyph unicode="9" horiz-adv-x="1192" d="M100 1147v489q0 74 12 138t43 125.5t79 104.5t125 69.5t177 26.5h120q100 0 177 -26.5t125 -69.5t79 -104.5t43 -125.5t12 -138v-1182q0 -74 -12 -138t-43 -125.5t-79 -104.5t-125 -69.5t-177 -26.5h-399q-24 0 -40.5 17t-16.5 41v134q0 24 16.5 41t40.5 17h399 q39 0 68 8t46.5 25t28.5 34t15.5 45t6 49t1.5 53v251q-74 -22 -166 -22h-120q-100 0 -177 26.5t-125 69.5t-79 104.5t-43 125.5t-12 138zM380 1147q0 -32 1.5 -53t6 -49t15.5 -45t28.5 -34t46.5 -25t68 -8h100q39 0 68 8t46.5 25t28.5 34t15.5 45t6 49t1.5 53v489 q0 32 -1.5 53t-6 49t-15.5 45t-28.5 34t-46.5 25t-68 8h-100q-39 0 -68 -8t-46.5 -25t-28.5 -34t-15.5 -45t-6 -49t-1.5 -53v-489z" />
<glyph unicode=":" horiz-adv-x="560" d="M150 58v144q0 24 16.5 41t40.5 17h146q24 0 40.5 -17t16.5 -41v-144q0 -24 -16.5 -41t-40.5 -17h-146q-24 0 -40.5 17t-16.5 41zM150 1398v144q0 24 16.5 41t40.5 17h146q24 0 40.5 -17t16.5 -41v-144q0 -24 -16.5 -41t-40.5 -17h-146q-24 0 -40.5 17t-16.5 41z" />
<glyph unicode=";" horiz-adv-x="560" d="M150 58v134q0 24 16.5 41t40.5 17h146q24 0 40.5 -17t16.5 -41v-394q0 -24 -16.5 -41t-40.5 -17h-32q-24 0 -40.5 17t-16.5 41v144q0 24 -16.5 41t-40.5 17t-40.5 17t-16.5 41zM150 1408v134q0 24 16.5 41t40.5 17h146q24 0 40.5 -17t16.5 -41v-134q0 -24 -16.5 -41 t-40.5 -17h-146q-24 0 -40.5 17t-16.5 41z" />
<glyph unicode="&#x3c;" horiz-adv-x="966" d="M99 601q0 23 18 40l556 556q17 17 40.5 17t40.5 -17l95 -95q17 -17 17 -40.5t-17 -40.5l-421 -420l421 -421q17 -17 17 -40.5t-17 -40.5l-95 -95q-17 -17 -40.5 -17t-40.5 17l-556 556q-18 18 -18 41z" />
<glyph unicode="=" horiz-adv-x="1100" d="M100 283v134q0 24 16.5 41t40.5 17h786q24 0 40.5 -17t16.5 -41v-134q0 -24 -16.5 -41t-40.5 -17h-786q-24 0 -40.5 17t-16.5 41zM100 783v134q0 24 16.5 41t40.5 17h786q24 0 40.5 -17t16.5 -41v-134q0 -24 -16.5 -41t-40.5 -17h-786q-24 0 -40.5 17t-16.5 41z" />
<glyph unicode="&#x3e;" horiz-adv-x="966" d="M100 139.5q0 23.5 17 40.5l421 421l-421 420q-17 17 -17 40.5t17 40.5l95 95q17 17 40.5 17t40.5 -17l556 -556q19 -17 17 -40q2 -23 -17 -41l-556 -556q-17 -17 -40.5 -17t-40.5 17l-95 95q-17 17 -17 40.5z" />
<glyph unicode="?" horiz-adv-x="1200" d="M100 1646q0 74 12 138t43 125.5t79 104.5t125 69.5t177 26.5h128q100 0 177 -26.5t125 -69.5t79 -104.5t43 -125.5t12 -138v-239q0 -202 -84.5 -313.5t-236.5 -140.5q-116 -22 -116 -167v-229q0 -24 -17 -40.5t-41 -16.5h-144q-24 0 -41 16.5t-17 40.5v229 q0 74 16.5 138.5t51 121t95.5 96t144 55.5q33 5 56.5 20.5t35.5 33.5t18.5 47.5t8 51.5t1.5 57v239q0 32 -1.5 53t-6 49t-15.5 45t-28.5 34t-46.5 25t-68 8h-118q-46 0 -79.5 -13t-51.5 -31.5t-28.5 -49t-13 -57t-2.5 -63.5q0 -24 -16.5 -41t-40.5 -17h-156q-24 0 -40.5 17 t-16.5 41h-1zM403 58v144q0 24 16.5 41t40.5 17h146q24 0 40.5 -17t16.5 -41v-144q0 -24 -16.5 -41t-40.5 -17h-146q-24 0 -40.5 17t-16.5 41z" />
<glyph unicode="@" horiz-adv-x="1376" d="M100 262v684q0 74 12 138t43 125.5t79 104.5t125 69.5t177 26.5h304q100 0 177 -26.5t125 -69.5t79 -104.5t43 -125.5t12 -138v-747q0 -20 -14.5 -34t-35.5 -14h-180q-20 0 -35 14t-15 34v55q-76 -63 -129 -86.5t-117 -23.5q-149 0 -214.5 105t-65.5 331q0 102 13 177 t35.5 122.5t58.5 76t77 39.5t96 11h244q-5 72 -40 113t-124 41h-294q-39 0 -68 -8t-46.5 -25t-28.5 -34t-15.5 -45t-6 -49t-1.5 -53v-682q0 -32 1.5 -53t6 -49t15.5 -45t28.5 -34t46.5 -25t68 -8h683q24 0 40.5 -17t16.5 -41v-134q0 -24 -16.5 -41t-40.5 -17h-693 q-99 0 -175 26.5t-123 69.5t-76.5 104.5t-40.5 124.5t-11 137zM720 583q0 -115 20.5 -151.5t61.5 -36.5q18 0 33.5 3.5t31.5 12.5t27 15.5t27 22.5l24 24t26 29t25 28v226h-188q-51 0 -69.5 -40t-18.5 -133z" />
<glyph unicode="A" horiz-adv-x="1378" d="M150 57v1640q0 29 16 40l489 362q15 11 34 11t34 -11l489 -362q16 -11 16 -40v-1640q0 -24 -17 -40.5t-41 -16.5h-154q-24 0 -41 16.5t-17 40.5v600h-538v-600q0 -24 -17 -40.5t-41 -16.5h-154q-24 0 -41 16.5t-17 40.5zM420 907h538v684l-269 194l-269 -194v-684z" />
<glyph unicode="B" horiz-adv-x="1320" d="M150 57v1986q0 24 17 40.5t41 16.5h473q123 0 212 -39t137 -107t69 -146.5t21 -171.5v-310q0 -163 -70 -276q150 -117 150 -382v-231q-3 -71 -16.5 -131.5t-45.5 -118t-80 -98t-123 -65t-171 -24.5h-556q-24 0 -41 16.5t-17 40.5zM420 260h334q53 0 87.5 13.5t50.5 40.5 t21.5 54.5t6.5 68.5v235q0 34 -1 51t-5 45.5t-14.5 43.5t-28.5 31.5t-47.5 23.5t-69.5 7h-334v-614zM420 1134h251q46 0 78.5 11.5t50 27.5t27 44t11.5 51t2 58v306q0 39 -2 63t-11 55t-26 48t-50 29.5t-80 12.5h-251v-706z" />
<glyph unicode="C" horiz-adv-x="1226" d="M100 1157q0 113 4.5 204t16 182.5t32.5 162t52 135.5t75.5 111t102.5 80.5t134 51t169 16.5h314q24 0 40.5 -17t16.5 -41v-134q0 -24 -16.5 -41t-40.5 -17h-317q-163 0 -233 -165t-70 -528q0 -192 17.5 -353t53.5 -288.5t97 -197.5q59 -68 135 -68h7q97 4 160 28t175 93 q20 12 36 12q25 0 43 -26l79 -107q15 -20 12 -42.5t-22 -38.5q-118 -96 -234.5 -138t-276.5 -42q-101 0 -183 36.5t-139.5 98t-101 152.5t-69.5 189t-42 220t-21.5 233t-5.5 239z" />
<glyph unicode="D" horiz-adv-x="1410" d="M150 57v1986q0 24 17 40.5t41 16.5h508q109 0 195 -25.5t148 -69.5t107 -116t72.5 -152.5t43.5 -192t22 -222t6 -254.5q0 -147 -6 -262t-22.5 -229.5t-44.5 -199t-72.5 -158.5t-106 -120.5t-146 -72.5t-191.5 -26h-513q-24 0 -41 16.5t-17 40.5zM420 250h300 q169 0 239.5 194t70.5 623q0 416 -70 599.5t-247 183.5h-293v-1600z" />
<glyph unicode="E" horiz-adv-x="1210" d="M140 444v1599q0 24 17 40.5t41 16.5h855q24 0 40.5 -17t16.5 -41v-134q0 -24 -16.5 -41t-40.5 -17h-643v-693h489q24 0 40.5 -17t16.5 -41v-134q0 -24 -16.5 -41t-40.5 -17h-489v-465q0 -83 68.5 -137.5t210.5 -54.5h364q24 0 40.5 -17t16.5 -41v-134q0 -24 -16.5 -41 t-40.5 -17h-352q-138 0 -242.5 28.5t-163.5 72t-95.5 105t-48 117.5t-11.5 121z" />
<glyph unicode="F" horiz-adv-x="1180" d="M150 57v1986q0 24 17 40.5t41 16.5h855q24 0 40.5 -17t16.5 -41v-134q0 -24 -16.5 -41t-40.5 -17h-643v-693h489q24 0 40.5 -17t16.5 -41v-134q0 -24 -16.5 -41t-40.5 -17h-489v-850q0 -24 -17 -40.5t-41 -16.5h-154q-24 0 -41 16.5t-17 40.5z" />
<glyph unicode="G" horiz-adv-x="1374" d="M100 1043q0 131 6 238.5t22.5 219.5t44 198t72.5 163.5t105.5 128t145.5 80t190 29.5h381q24 0 40.5 -17t16.5 -41v-134q0 -24 -16.5 -41t-40.5 -17h-384q-303 0 -303 -802q0 -798 312 -798h292v657h-248q-24 0 -40.5 17t-16.5 41v134q0 24 16.5 41t40.5 17h460 q24 0 41 -16.5t17 -40.5v-1043q0 -24 -17 -40.5t-41 -16.5h-534q-101 0 -183 29.5t-140 80t-101 128t-69 163t-42 195.5t-21.5 215t-5.5 232z" />
<glyph unicode="H" horiz-adv-x="1382" d="M150 57v1986q0 24 17 40.5t41 16.5h154q24 0 41 -16.5t17 -40.5v-886h542v886q0 24 17 40.5t41 16.5h154q24 0 41 -16.5t17 -40.5v-1986q0 -24 -17 -40.5t-41 -16.5h-154q-24 0 -41 16.5t-17 40.5v850h-542v-850q0 -24 -17 -40.5t-41 -16.5h-154q-24 0 -41 16.5t-17 40.5 z" />
<glyph unicode="I" horiz-adv-x="790" d="M125 58v134q0 24 16.5 41t40.5 17h78v1600h-78q-24 0 -40.5 17t-16.5 41v134q0 24 16.5 41t40.5 17h426q24 0 40.5 -17t16.5 -41v-134q0 -24 -16.5 -41t-40.5 -17h-78v-1600h78q24 0 40.5 -17t16.5 -41v-134q0 -24 -16.5 -41t-40.5 -17h-426q-24 0 -40.5 17t-16.5 41z " />
<glyph unicode="J" horiz-adv-x="1029" d="M100 58v134q0 24 16.5 41t40.5 17h173q142 0 210.5 54.5t68.5 137.5v1408h-452q-24 0 -40.5 17t-16.5 41v134q0 24 16.5 41t40.5 17h664q24 0 41 -16.5t17 -40.5v-1599q0 -65 -11.5 -121t-48 -117.5t-95.5 -105t-163.5 -72t-242.5 -28.5h-161q-24 0 -40.5 17t-16.5 41z " />
<glyph unicode="K" horiz-adv-x="1353" d="M150 57v1986q0 24 17 40.5t41 16.5h154q24 0 41 -16.5t17 -40.5v-826h94l515 862q5 8 11.5 13t16 6.5t15.5 2t19 0t18 -0.5h197q22 0 22 -28.5t-15 -52.5l-604 -969l604 -969q15 -24 15 -52.5t-22 -28.5h-196q-4 0 -17 -0.5t-19.5 0t-16 2t-16 6.5t-11.5 13l-516 870h-94 v-834q0 -24 -17 -40.5t-41 -16.5h-154q-24 0 -41 16.5t-17 40.5z" />
<glyph unicode="L" horiz-adv-x="1222" d="M150 57v1986q0 24 17 40.5t41 16.5h154q24 0 41 -16.5t17 -40.5v-1793h685q24 0 40.5 -17t16.5 -41v-134q0 -24 -16.5 -41t-40.5 -17h-897q-24 0 -41 16.5t-17 40.5z" />
<glyph unicode="M" horiz-adv-x="2065" d="M150 57v1986q0 24 17 40.5t41 16.5h154q24 0 41 -16.5t17 -40.5v-40q206 107 335 107q222 0 330 -157q277 157 430 157q205 0 315 -136.5t110 -415.5v-1501q0 -24 -17 -40.5t-41 -16.5h-154q-24 0 -41 16.5t-17 40.5v1472q0 46 -1.5 79.5t-6.5 73t-15.5 66.5t-27 51 t-43 36t-60.5 12q-111 0 -346 -136q10 -67 10 -153v-1501q0 -24 -17 -40.5t-41 -16.5h-154q-24 0 -41 16.5t-17 40.5v1472q0 46 -1.5 79.5t-6.5 73t-15.5 66.5t-27 51t-43 36t-60.5 12q-108 0 -336 -131v-1659q0 -24 -17 -40.5t-41 -16.5h-154q-24 0 -41 16.5t-17 40.5z" />
<glyph unicode="N" horiz-adv-x="1368" d="M150 57v1986q0 24 17 40.5t41 16.5h154q24 0 41 -16.5t17 -40.5v-73q157 86 245 113t153 27q205 0 315 -136.5t110 -415.5v-1501q0 -24 -17 -40.5t-41 -16.5h-154q-24 0 -41 16.5t-17 40.5v1472q0 46 -1.5 79.5t-6.5 73t-15.5 66.5t-27 51t-43 36t-60.5 12 q-121 0 -399 -168v-1622q0 -24 -17 -40.5t-41 -16.5h-154q-24 0 -41 16.5t-17 40.5z" />
<glyph unicode="O" horiz-adv-x="1380" d="M100 787v521q0 113 4.5 199t16.5 167t32 139.5t51.5 109.5t75 84.5t102.5 57.5t134 34.5t170 10.5q96 0 172.5 -11t136.5 -36t104.5 -58.5t76 -85.5t52 -110.5t32 -140t16 -166.5t4.5 -198v-524q-1 -147 -10 -251t-32.5 -198t-65 -154t-107 -104t-157.5 -63.5t-217 -19.5 q-108 0 -191 15.5t-145.5 44.5t-106.5 79t-72.5 110t-45 147t-23.5 181t-7 220zM380 787q1 -143 12.5 -238t32 -155.5t60 -91.5t85.5 -41.5t120 -10.5t120 10.5t85.5 41.5t60 90.5t32 153t12.5 234.5v523q0 122 -6.5 207.5t-23 147.5t-38.5 99t-60.5 58t-81 28t-107.5 7 q-52 0 -87.5 -4.5t-70 -18t-56 -38.5t-40.5 -64t-28.5 -98t-15 -137t-5.5 -183v-520z" />
<glyph unicode="P" horiz-adv-x="1210" d="M150 57v1986q0 24 17 40.5t41 16.5h473q123 0 212 -39t137 -107t69 -146.5t21 -171.5v-172v-138v-172q0 -93 -21 -171.5t-69 -146.5t-137 -107t-212 -39h-261v-633q0 -24 -17 -40.5t-41 -16.5h-154q-24 0 -41 16.5t-17 40.5zM420 950h251q47 0 80 12.5t50 29.5t26 48 t11 55t2 63v168v138v168q0 39 -2 63t-11 55t-26 48t-50 29.5t-80 12.5h-251v-890z" />
<glyph unicode="Q" horiz-adv-x="1436" d="M100 787v521q0 113 4.5 199t16.5 167t32 139.5t51.5 109.5t75 84.5t102.5 57.5t134 34.5t170 10.5q96 0 172.5 -11t136.5 -36t104.5 -58.5t76 -85.5t52 -110.5t32 -140t16 -166.5t4.5 -198v-524q-1 -189 -17 -319.5t-57 -220.5h123q24 0 40.5 -17t16.5 -41v-134 q0 -24 -16.5 -41t-40.5 -17h-639q-108 0 -190.5 15.5t-145 44.5t-106.5 79t-72.5 110t-45 147t-23.5 181t-7 220zM380 787q1 -143 12.5 -238t32 -155.5t60 -91.5t85.5 -41.5t120 -10.5t120 10.5t85.5 41.5t60 90.5t32 153t12.5 234.5v523q0 122 -6.5 207.5t-23 147.5 t-38.5 99t-60.5 58t-81 28t-107.5 7q-52 0 -87.5 -4.5t-70 -18t-56 -38.5t-40.5 -64t-28.5 -98t-15 -137t-5.5 -183v-520z" />
<glyph unicode="R" horiz-adv-x="1270" d="M150 57v1986q0 24 17 40.5t41 16.5h473q123 0 212 -39t137 -107t69 -146.5t21 -171.5v-172v-138v-172q0 -227 -115 -347l173 -762q2 -7 2 -13q0 -32 -45 -32h-168h-11h-12.5t-12 0.5t-12 1.5t-9.5 3t-9.5 5t-6.5 7.5t-4 10.5l-145 665q-30 -3 -64 -3h-261v-633 q0 -24 -17 -40.5t-41 -16.5h-154q-24 0 -41 16.5t-17 40.5zM420 950h251q47 0 80 12.5t50 29.5t26 48t11 55t2 63v168v138v168q0 39 -2 63t-11 55t-26 48t-50 29.5t-80 12.5h-251v-890z" />
<glyph unicode="S" horiz-adv-x="1134" d="M90 1661q0 44 5.5 83.5t22 85t42 83t69.5 73t101 60t139 39.5t182 15h304q24 0 40.5 -17t16.5 -41v-134q0 -24 -16.5 -41t-40.5 -17h-316q-142 0 -205.5 -54t-63.5 -144q0 -69 37 -146.5t96.5 -151.5t131.5 -153.5t144 -167t131.5 -177.5t96.5 -198.5t37 -217.5 q0 -52 -8.5 -98.5t-30 -98.5t-63 -94t-101 -76.5t-151 -53.5t-207.5 -19h-317q-24 0 -40.5 17t-16.5 41v134q0 24 16.5 41t40.5 17h329q147 0 208 55.5t61 151.5q0 79 -37 161t-96.5 156t-131.5 151.5t-144 160t-131.5 169t-96.5 192t-37 214.5z" />
<glyph unicode="T" horiz-adv-x="1290" d="M60 1908v134q0 24 16.5 41t40.5 17h1056q24 0 40.5 -17t16.5 -41v-134q0 -24 -16.5 -41t-40.5 -17h-393v-1793q0 -24 -17 -40.5t-41 -16.5h-154q-24 0 -41 16.5t-17 40.5v1793h-393q-24 0 -40.5 17t-16.5 41z" />
<glyph unicode="U" horiz-adv-x="1370" d="M125 703v1340q0 24 17 40.5t41 16.5h154q24 0 41 -16.5t17 -40.5v-1316q0 -101 6.5 -176t15 -126.5t31 -84.5t39 -51.5t55 -27t64 -10t79.5 -1.5t79.5 2t64 10t55 26.5t39 51.5t31 84.5t15 126.5t6.5 176v1316q0 24 17 40.5t41 16.5h154q24 0 41 -16.5t17 -40.5v-1337 q0 -140 -8.5 -238.5t-32 -183t-63 -137t-102.5 -89.5t-149 -52.5t-205 -15.5t-205 15.5t-149 52.5t-102.5 89t-63 136t-32 182t-8.5 238z" />
<glyph unicode="V" horiz-adv-x="1298" d="M110 1407v636q0 24 17 40.5t41 16.5h154q24 0 41 -16.5t17 -40.5v-636l270 -1036l268 1036v636q0 24 17 40.5t41 16.5h154q24 0 41 -16.5t17 -40.5v-636l-384 -1359q-3 -21 -19 -34.5t-38 -13.5h-192q-22 0 -38 13t-19 34z" />
<glyph unicode="W" horiz-adv-x="1760" d="M125 359v1684q0 24 17 40.5t41 16.5h154q24 0 41 -16.5t17 -40.5v-1549l175 -169l175 169v1549q0 24 17 40.5t41 16.5h154q24 0 41 -16.5t17 -40.5v-1549l175 -169l175 169v1549q0 24 17 40.5t41 16.5h154q24 0 41 -16.5t17 -40.5v-1684q0 -28 -16 -40l-395 -308 q-13 -11 -34 -11q-19 0 -34 11l-276 215l-276 -215q-13 -11 -34 -11q-19 0 -34 11l-395 308q-16 12 -16 40z" />
<glyph unicode="X" horiz-adv-x="1378" d="M150 57v797q0 30 16 40l248 156l-248 157q-16 10 -16 40v796q0 24 17 40.5t41 16.5h154q24 0 41 -16.5t17 -40.5v-661l269 -169l269 169v661q0 24 17 40.5t41 16.5h154q24 0 41 -16.5t17 -40.5v-796q0 -30 -16 -40l-248 -157l248 -156q16 -10 16 -40v-797 q0 -24 -17 -40.5t-41 -16.5h-154q-24 0 -41 16.5t-17 40.5v662l-269 169l-269 -169v-662q0 -24 -17 -40.5t-41 -16.5h-154q-24 0 -41 16.5t-17 40.5z" />
<glyph unicode="Y" horiz-adv-x="1338" d="M130 1191v852q0 24 17 40.5t41 16.5h154q24 0 41 -16.5t17 -40.5v-717l269 -169l269 169v717q0 24 17 40.5t41 16.5h154q24 0 41 -16.5t17 -40.5v-852q0 -30 -16 -40l-389 -244v-850q0 -24 -17 -40.5t-41 -16.5h-154q-24 0 -41 16.5t-17 40.5v851l-387 243q-16 10 -16 40 z" />
<glyph unicode="Z" horiz-adv-x="1270" d="M100 58v134q0 6 14 40l713 1618h-670q-24 0 -40.5 17t-16.5 41v134q0 24 16.5 41t40.5 17h956q24 0 40.5 -17t16.5 -41v-134q0 -9 -9 -32l-717 -1626h669q24 0 40.5 -17t16.5 -41v-134q0 -24 -16.5 -41t-40.5 -17h-956q-24 0 -40.5 17t-16.5 41z" />
<glyph unicode="[" horiz-adv-x="710" d="M150 57v1986q0 24 17 40.5t41 16.5h395q24 0 40.5 -17t16.5 -41v-134q0 -24 -16.5 -41t-40.5 -17h-193v-1600h193q24 0 40.5 -17t16.5 -41v-134q0 -24 -16.5 -41t-40.5 -17h-395q-24 0 -41 16.5t-17 40.5z" />
<glyph unicode="\" horiz-adv-x="1045" d="M53 1973q-8 23 2 44t33 29l135 49q23 8 44.5 -1t29.5 -32l694 -1916q9 -23 -1.5 -44t-33.5 -29l-135 -49q-23 -8 -44 1t-30 32z" />
<glyph unicode="]" horiz-adv-x="710" d="M50 58v134q0 24 16.5 41t40.5 17h193v1600h-193q-24 0 -40.5 17t-16.5 41v134q0 24 16.5 41t40.5 17h395q24 0 41 -16.5t17 -40.5v-1986q0 -24 -17 -40.5t-41 -16.5h-395q-24 0 -40.5 17t-16.5 41z" />
<glyph unicode="_" horiz-adv-x="1000" d="M50 58v134q0 24 16.5 41t40.5 17h786q24 0 40.5 -17t16.5 -41v-134q0 -24 -16.5 -41t-40.5 -17h-786q-24 0 -40.5 17t-16.5 41z" />
<glyph unicode="`" horiz-adv-x="721" d="M75.5 1888.5q-2.5 26.5 11.5 45.5l77 110q14 20 37 24.5t43 -9.5l358 -251q19 -13 23 -36t-10 -43q-23 -33 -80 -16l-434 141q-23 8 -25.5 34.5z" />
<glyph unicode="a" d="M100 907q0 99 3.5 173.5t13.5 150t28 129t47.5 101.5t70.5 77t98.5 45.5t130.5 16.5h536q29 0 49.5 -19.5t20.5 -48.5v-1464q0 -28 -20.5 -48t-49.5 -20h-120q-29 0 -49.5 20t-20.5 48v77q-105 -87 -180.5 -121t-160.5 -34q-105 0 -176.5 43.5t-122.5 148t-74.5 282.5 t-23.5 443zM350 909q0 -154 3 -257t11 -181t19.5 -120.5t33.5 -69t47 -34t64 -7.5q48 0 86.5 11t77 39t68 56.5t78.5 82.5v921h-365q-29 0 -48.5 -8.5t-33.5 -32.5t-22 -53.5t-12.5 -85t-5.5 -112.5t-1 -149z" />
<glyph unicode="b" d="M150 68v1964q0 28 20.5 48t49.5 20h120q29 0 49.5 -20t20.5 -48v-576q183 154 359 154q89 0 157.5 -47.5t109.5 -124t67 -186t35.5 -219.5t9.5 -239q0 -389 -90.5 -591.5t-271.5 -202.5h-566q-29 0 -49.5 19.5t-20.5 48.5zM410 250h362q36 0 61.5 45t39 122t19.5 162 t6 183q0 122 -9 224.5t-29 189t-55.5 135.5t-84.5 49q-55 0 -145 -53t-165 -147v-910z" />
<glyph unicode="c" horiz-adv-x="1128" d="M100 624v378q0 144 17.5 249t49 171.5t82 106.5t108 55.5t135.5 15.5h428q30 0 49 -20t19 -50v-110q0 -30 -19 -50t-49 -20h-454q-69 0 -92 -87.5t-23 -268.5v-380q4 -374 285 -374q53 0 97.5 21t185.5 109q24 15 42 15q33 0 53 -31l49 -79q15 -24 15 -44q0 -32 -27 -53 q-141 -114 -237 -151t-191 -37q-242 0 -382.5 160.5t-140.5 473.5z" />
<glyph unicode="d" d="M100 767q0 258 39 442.5t121 287.5t202 103h376v432q0 29 20.5 48.5t49.5 19.5h120q29 0 49.5 -19.5t20.5 -48.5v-1964q0 -28 -20.5 -48t-49.5 -20h-120q-29 0 -49.5 20t-20.5 48v76q-183 -154 -362 -154q-376 0 -376 777zM350 798q0 -558 175 -558q57 0 146 51.5 t167 148.5v910h-362q-29 0 -51.5 -35t-36 -90t-22.5 -130t-12.5 -147.5t-3.5 -149.5z" />
<glyph unicode="e" horiz-adv-x="1162" d="M100 587v421q0 120 7.5 204t27.5 155t53 114t86.5 73.5t125.5 43t173 12.5h12q101 0 173.5 -12t126.5 -42.5t87.5 -74t54 -114.5t28 -155.5t7.5 -204.5v-240q0 -29 -19.5 -49.5t-49.5 -20.5h-643v-110q0 -51 1.5 -84.5t8.5 -73.5t19 -66t34 -52t53 -40q31 -15 77 -23 q41 -8 93 -7h12q117 2 267 79q29 15 52 15q28 0 42 -32l42 -92q16 -34 16 -53q0 -31 -28 -44q-142 -75 -218 -99.5t-173 -24.5q-265 0 -404.5 145t-143.5 452zM350 907h462v101q0 85 -3 138.5t-13.5 95.5t-24 63.5t-42 35t-60 16.5t-84.5 3h-12q-39 0 -64.5 -1.5t-50.5 -8 t-39.5 -16.5t-28 -29.5t-20 -43.5t-12 -62.5t-7 -83.5t-1.5 -108v-100z" />
<glyph unicode="f" horiz-adv-x="654" d="M50 1408v134q0 24 16.5 41t40.5 17h79v52q0 133 22.5 222.5t67.5 138t101 68t134 19.5h186q24 0 40.5 -17t16.5 -41v-134q0 -24 -16.5 -41t-40.5 -17h-136q-67 0 -91 -57t-24 -193h152q24 0 40.5 -17t16.5 -41v-134q0 -24 -16.5 -41t-40.5 -17h-152v-1293 q0 -24 -17 -40.5t-41 -16.5h-144q-24 0 -41 16.5t-17 40.5v1293h-79q-24 0 -40.5 17t-16.5 41z" />
<glyph unicode="g" d="M100 907q0 99 3.5 173.5t13.5 150t28 129t47.5 101.5t70.5 77t98.5 45.5t130.5 16.5h536q29 0 49.5 -19.5t20.5 -48.5v-1427v-21v-16v-3q0 -43 -1.5 -75.5t-6.5 -77.5t-14.5 -78.5t-25 -72t-40.5 -65.5t-57.5 -50t-78.5 -34.5t-102 -11.5h-431q-24 0 -40.5 17t-16.5 41 v134q0 24 16.5 41t40.5 17h392q61 0 83 55.5t22 199.5v40q-105 -87 -180.5 -121t-160.5 -34q-105 0 -176.5 43.5t-122.5 148t-74.5 282.5t-23.5 443zM350 909q0 -154 3 -257t11 -181t19.5 -120.5t33.5 -69t47 -34t64 -7.5q48 0 86.5 11t77 39t68 56.5t78.5 82.5v921h-365 q-29 0 -48.5 -8.5t-33.5 -32.5t-22 -53.5t-12.5 -85t-5.5 -112.5t-1 -149z" />
<glyph unicode="h" horiz-adv-x="1176" d="M150 57v1986q0 24 17 40.5t41 16.5h144q24 0 41 -16.5t17 -40.5v-563q157 130 313 130q170 0 249 -126.5t79 -373.5v-1053q0 -24 -17 -40.5t-41 -16.5h-144q-24 0 -41 16.5t-17 40.5v972q0 197 -21 263t-96 66q-114 0 -264 -158v-1143q0 -24 -17 -40.5t-41 -16.5h-144 q-24 0 -41 16.5t-17 40.5z" />
<glyph unicode="i" horiz-adv-x="690" d="M75 58v134q0 24 16.5 41t40.5 17h87v1100h-87q-24 0 -40.5 17t-16.5 41v134q0 24 16.5 41t40.5 17h289q24 0 41 -16.5t17 -40.5v-1293h79q24 0 40.5 -17t16.5 -41v-134q0 -24 -16.5 -41t-40.5 -17h-426q-24 0 -40.5 17t-16.5 41zM219 1908v134q0 24 16.5 41t40.5 17h146 q24 0 40.5 -17t16.5 -41v-134q0 -24 -16.5 -41t-40.5 -17h-146q-24 0 -40.5 17t-16.5 41z" />
<glyph unicode="j" horiz-adv-x="586" d="M-70 -208q0 24 16.5 41t40.5 17h123q67 0 91 57.5t24 197.5v1245h-87q-24 0 -40.5 17t-16.5 41v134q0 24 16.5 41t40.5 17h289q24 0 41 -16.5t17 -40.5v-1495q0 -107 -15.5 -186t-42.5 -128.5t-69.5 -80t-89.5 -42t-109 -11.5h-172q-24 0 -40.5 17t-16.5 41v134z M226 1908v134q0 24 16.5 41t40.5 17h146q24 0 40.5 -17t16.5 -41v-134q0 -24 -16.5 -41t-40.5 -17h-146q-24 0 -40.5 17t-16.5 41z" />
<glyph unicode="k" horiz-adv-x="1119" d="M150 57v1986q0 24 17 40.5t41 16.5h144q24 0 41 -16.5t17 -40.5v-1031h97l232 567q3 9 9.5 14t16 6.5t17 1.5t20 -0.5t17.5 -0.5h193q11 0 16 -8.5t4.5 -21.5t-4 -26.5t-9.5 -24.5l-320 -666l382 -772q6 -11 9.5 -24.5t4 -26.5t-4.5 -21.5t-16 -8.5h-194q-6 0 -18.5 -0.5 t-19.5 -0.5t-16.5 1.5t-15.5 6.5t-10 14l-293 665h-97v-629q0 -24 -17 -40.5t-41 -16.5h-144q-24 0 -41 16.5t-17 40.5z" />
<glyph unicode="l" horiz-adv-x="640" d="M50 1908v134q0 24 16.5 41t40.5 17h289q24 0 41 -16.5t17 -40.5v-1793h79q24 0 40.5 -17t16.5 -41v-134q0 -24 -16.5 -41t-40.5 -17h-293v1q-20 4 -33 19.5t-13 36.5v1793h-87q-24 0 -40.5 17t-16.5 41z" />
<glyph unicode="m" horiz-adv-x="1685" d="M150 57v1486q0 24 17 40.5t41 16.5h144q24 0 41 -16.5t17 -40.5v-56q18 21 27.5 31.5t34.5 31t48.5 31.5t62 20t82.5 9q165 0 246 -127q110 78 176.5 102.5t144.5 24.5q170 0 249 -126.5t79 -373.5v-1053q0 -24 -17 -40.5t-41 -16.5h-144q-24 0 -41 16.5t-17 40.5v972 q0 197 -21 263t-96 66q-88 0 -201 -105q8 -70 8 -143v-1053q0 -24 -17 -40.5t-41 -16.5h-144q-24 0 -41 16.5t-17 40.5v972q0 198 -21 263.5t-97 65.5q-49 0 -95.5 -27.5t-106.5 -87.5v-1186q0 -24 -17 -40.5t-41 -16.5h-144q-24 0 -41 16.5t-17 40.5z" />
<glyph unicode="n" horiz-adv-x="1176" d="M150 57v1486q0 24 17 40.5t41 16.5h144q24 0 41 -16.5t17 -40.5v-63q157 130 313 130q170 0 249 -126.5t79 -373.5v-1053q0 -24 -17 -40.5t-41 -16.5h-144q-24 0 -41 16.5t-17 40.5v972q0 196 -21 262t-96 66q-114 0 -264 -158v-1142q0 -24 -17 -40.5t-41 -16.5h-144 q-24 0 -41 16.5t-17 40.5z" />
<glyph unicode="o" horiz-adv-x="1162" d="M100 608v400q0 120 7.5 204t27.5 155t53 114t86.5 73.5t125.5 43t173 12.5h12q101 0 173.5 -12t126.5 -42.5t87.5 -74t54 -114.5t28 -155.5t7.5 -204.5v-400q0 -120 -7.5 -205.5t-28 -158t-53.5 -118t-86.5 -77t-126 -45t-171.5 -13.5h-16q-100 0 -172 13t-125.5 45 t-87 77.5t-53.5 118t-27.5 158t-7.5 206.5zM350 607q0 -87 3 -143.5t13.5 -99.5t24.5 -65.5t41.5 -37t58 -18t81.5 -3.5h18q51 0 81.5 4t58 18t41.5 37t24.5 66t13.5 99.5t3 143.5v400q0 85 -3 138.5t-13.5 95.5t-24 63.5t-42 35t-60 16.5t-84.5 3h-12q-39 0 -64.5 -1.5 t-50.5 -8t-39.5 -16.5t-28 -29.5t-20 -43.5t-12 -62.5t-7 -83.5t-1.5 -108v-400z" />
<glyph unicode="p" d="M150 -332v1864q0 28 20.5 48t49.5 20h120q29 0 49.5 -20t20.5 -48v-76q183 154 362 154q376 0 376 -777q0 -258 -39 -442.5t-121 -287.5t-202 -103h-376v-332q0 -29 -20.5 -48.5t-49.5 -19.5h-120q-29 0 -49.5 19.5t-20.5 48.5zM410 250h362q29 0 51.5 35t36 90t22.5 130 t12.5 147.5t3.5 149.5q0 558 -175 558q-57 0 -146 -51.5t-167 -148.5v-910z" />
<glyph unicode="q" d="M100 907q0 99 3.5 173.5t13.5 150t28 129t47.5 101.5t70.5 77t98.5 45.5t130.5 16.5h536q29 0 49.5 -19.5t20.5 -48.5v-1864q0 -28 -20.5 -48t-49.5 -20h-120q-29 0 -49.5 20t-20.5 48v477q-105 -87 -180.5 -121t-160.5 -34q-105 0 -176.5 43.5t-122.5 148t-74.5 282.5 t-23.5 443zM350 909q0 -154 3 -257t11 -181t19.5 -120.5t33.5 -69t47 -34t64 -7.5q48 0 86.5 11t77 39t68 56.5t78.5 82.5v921h-365q-29 0 -48.5 -8.5t-33.5 -32.5t-22 -53.5t-12.5 -85t-5.5 -112.5t-1 -149z" />
<glyph unicode="r" horiz-adv-x="805" d="M150 57v1486q0 24 17 40.5t41 16.5h144q24 0 41 -16.5t17 -40.5v-56q42 47 105 85t136 38q48 0 76 -21t28 -47v-124q0 -24 -16.5 -41t-40.5 -17h-86q-50 0 -97 -25.5t-105 -82.5v-1195q0 -24 -17 -40.5t-41 -16.5h-144q-24 0 -41 16.5t-17 40.5z" />
<glyph unicode="s" horiz-adv-x="956" d="M90 70v110q0 30 19.5 50t49.5 20h276q96 0 138.5 24t42.5 86q0 52 -29 113t-75.5 121t-102.5 125.5t-112 135.5t-102.5 140t-75.5 150t-29 156q0 299 440 299h229q29 0 48.5 -20.5t19.5 -49.5v-110q0 -29 -19.5 -49.5t-48.5 -20.5h-209q-127 0 -168.5 -14.5t-41.5 -65.5 q0 -48 29 -106t75.5 -117t102.5 -123t112 -134t102.5 -140t75.5 -149.5t29 -155.5q0 -48 -11 -92.5t-41.5 -92t-79 -81.5t-130.5 -56.5t-188 -22.5h-257q-30 0 -49.5 20t-19.5 50z" />
<glyph unicode="t" horiz-adv-x="804" d="M50 1408v134q0 24 16.5 41t40.5 17h79v243q0 24 17 40.5t41 16.5h144q24 0 41 -16.5t17 -40.5v-243h152q24 0 40.5 -17t16.5 -41v-134q0 -24 -16.5 -41t-40.5 -17h-152v-845q0 -140 24 -197.5t91 -57.5h136q24 0 40.5 -17t16.5 -41v-134q0 -24 -16.5 -41t-40.5 -17h-186 q-78 0 -134 19.5t-101 68t-67.5 138t-22.5 222.5v902h-79q-24 0 -40.5 17t-16.5 41z" />
<glyph unicode="u" horiz-adv-x="1176" d="M125 490v1053q0 24 17 40.5t41 16.5h144q24 0 41 -16.5t17 -40.5v-972q0 -197 21 -263t96 -66q65 0 126 38.5t138 119.5v1143q0 24 17 40.5t41 16.5h144q24 0 41 -16.5t17 -40.5v-1486q0 -24 -17 -40.5t-41 -16.5h-144q-24 0 -41 16.5t-17 40.5v63q-157 -130 -313 -130 q-170 0 -249 126.5t-79 373.5z" />
<glyph unicode="v" horiz-adv-x="1202" d="M100 981v562q0 24 17 40.5t41 16.5h154q24 0 41 -16.5t17 -40.5v-477l231 -716l231 716v477q0 24 17 40.5t41 16.5h154q24 0 41 -16.5t17 -40.5v-562q0 -20 -8 -40l-340 -895q-4 -20 -20 -33t-37 -13h-192q-21 0 -37 13t-20 33l-340 895q-8 20 -8 40z" />
<glyph unicode="w" horiz-adv-x="1780" d="M135 349v1194q0 24 17 40.5t41 16.5h144q24 0 41 -16.5t17 -40.5v-1059l185 -179l180 179v1059q0 24 17 40.5t41 16.5h144q24 0 41 -16.5t17 -40.5v-1059l180 -179l185 179v1059q0 24 17 40.5t41 16.5h144q24 0 41 -16.5t17 -40.5v-1194q0 -28 -16 -40l-395 -308 q-13 -11 -34 -11q-19 0 -34 11l-276 215l-276 -215q-13 -11 -34 -11q-19 0 -34 11l-395 308q-16 12 -16 40z" />
<glyph unicode="x" horiz-adv-x="1109" d="M135 57v580q0 29 16 40l186 129l-186 135q-16 11 -16 40v562q0 24 17 40.5t41 16.5h144q24 0 41 -16.5t17 -40.5v-477l160 -110l159 110v477q0 24 17 40.5t41 16.5h144q24 0 41 -16.5t17 -40.5v-562q0 -29 -16 -40l-186 -135l186 -129q16 -11 16 -40v-580 q0 -24 -17 -40.5t-41 -16.5h-144q-24 0 -41 16.5t-17 40.5v476l-159 116l-160 -116v-476q0 -24 -17 -40.5t-41 -16.5h-144q-24 0 -41 16.5t-17 40.5z" />
<glyph unicode="y" horiz-adv-x="1149" d="M135 -112q0 28 16 40l218 177l-218 187q-16 14 -16 40v1211q0 24 17 40.5t41 16.5h144q24 0 41 -16.5t17 -40.5v-1126l182 -144l177 144v1126q0 24 17 40.5t41 16.5h144q24 0 41 -16.5t17 -40.5v-1211q0 -26 -16 -40l-603 -508v-127q0 -24 -17 -40.5t-41 -16.5h-144 q-24 0 -41 16.5t-17 40.5v231z" />
<glyph unicode="z" horiz-adv-x="1005" d="M90 58v134q0 10 14 40l503 1118h-460q-24 0 -40.5 17t-16.5 41v134q0 24 16.5 41t40.5 17h711q24 0 40.5 -17t16.5 -41v-134q0 -12 -9 -32l-508 -1126h460q24 0 40.5 -17t16.5 -41v-134q0 -24 -16.5 -41t-40.5 -17h-711q-24 0 -40.5 17t-16.5 41z" />
<glyph unicode="{" horiz-adv-x="918" d="M100 983v134q0 24 16.5 41t40.5 17h41q67 0 91 57.5t24 197.5v222q0 107 15.5 186t42.5 128.5t69.5 80t89.5 42t109 11.5h172q24 0 40.5 -17t16.5 -41v-134q0 -24 -16.5 -41t-40.5 -17h-123q-67 0 -91 -57.5t-24 -197.5v-222q0 -214 -63 -323q63 -109 63 -323v-222 q0 -140 24 -197.5t91 -57.5h123q24 0 40.5 -17t16.5 -41v-134q0 -24 -16.5 -41t-40.5 -17h-172q-62 0 -109 11.5t-89.5 42t-69.5 80t-42.5 128.5t-15.5 186v222q0 140 -24 197.5t-91 57.5h-41q-24 0 -40.5 17t-16.5 41z" />
<glyph unicode="|" horiz-adv-x="560" d="M150 -343v1966q0 24 17 40.5t41 16.5h144q24 0 41 -16.5t17 -40.5v-1966q0 -24 -17 -40.5t-41 -16.5h-144q-24 0 -41 16.5t-17 40.5z" />
<glyph unicode="}" horiz-adv-x="918" d="M50 58v134q0 24 16.5 41t40.5 17h123q67 0 91 57.5t24 197.5v222q0 214 63 323q-63 109 -63 323v222q0 140 -24 197.5t-91 57.5h-123q-24 0 -40.5 17t-16.5 41v134q0 24 16.5 41t40.5 17h172q62 0 109 -11.5t89.5 -42t69.5 -80t42.5 -128.5t15.5 -186v-222 q0 -140 24 -197.5t91 -57.5h41q24 0 40.5 -17t16.5 -41v-134q0 -24 -16.5 -41t-40.5 -17h-41q-67 0 -91 -57.5t-24 -197.5v-222q0 -107 -15.5 -186t-42.5 -128.5t-69.5 -80t-89.5 -42t-109 -11.5h-172q-24 0 -40.5 17t-16.5 41z" />
<glyph unicode="~" horiz-adv-x="1211" d="M114 699q35 57 124.5 109.5t182.5 52.5q53 0 107.5 -20t91.5 -44t77.5 -44t67.5 -20q55 0 133 74q40 40 81 7l111 -93q38 -30 7 -81q-35 -57 -125 -112t-183 -55q-52 0 -106.5 21t-91 45.5t-76.5 45.5t-68 21q-57 0 -134 -74q-40 -40 -81 -7l-111 93q-38 30 -7 81z" />
<glyph unicode="&#xa1;" horiz-adv-x="560" d="M150 -343v1386q0 24 17 40.5t41 16.5h144q24 0 41 -16.5t17 -40.5v-1386q0 -24 -17 -40.5t-41 -16.5h-144q-24 0 -41 16.5t-17 40.5zM150 1398v144q0 24 16.5 41t40.5 17h146q24 0 40.5 -17t16.5 -41v-144q0 -24 -16.5 -41t-40.5 -17h-146q-24 0 -40.5 17t-16.5 41z" />
<glyph unicode="&#xa2;" horiz-adv-x="1185" d="M100 602v2q0 143 17.5 247.5t49 171.5t82 106.5t108 55t135.5 15.5h46v175q0 30 20 49t50 19h60q30 0 50 -19t20 -49v-175h182q30 0 49 -20t19 -50v-110q0 -30 -19 -50t-49 -20h-454q-69 0 -92 -87.5t-23 -268.5q0 -23 1 -42.5t6.5 -58t15 -69t29.5 -67t47.5 -60.5 t71 -40.5t97.5 -16.5q66 0 127 29t220 127q24 15 42 15q33 0 53 -31l49 -79q15 -24 15 -44q0 -32 -27 -53q-192 -155 -360 -197v-193q0 -30 -20 -49t-50 -19h-60q-30 0 -50 19t-20 49v179q-197 20 -317 172.5t-121 436.5z" />
<glyph unicode="&#xa3;" horiz-adv-x="1345" d="M25 58v134q0 24 16.5 41t40.5 17h105q83 0 137.5 68.5t54.5 210.5v160h-157q-30 0 -49 20t-19 50v60q0 30 19 50t49 20h157v267q0 65 11.5 121t48 117.5t95.5 105t163.5 72t242.5 28.5h258q24 0 40.5 -17t16.5 -41v-134q0 -24 -16.5 -41t-40.5 -17h-270 q-142 0 -210.5 -54.5t-68.5 -137.5v-269h182q30 0 49 -20t19 -50v-60q0 -30 -19 -50t-49 -20h-182v-62l-1 -1v-65q0 -185 -50 -311h596q24 0 40.5 -17t16.5 -41v-134q0 -24 -16.5 -41t-40.5 -17h-1112q-24 0 -40.5 17t-16.5 41z" />
<glyph unicode="&#xa4;" horiz-adv-x="1171" d="M100 381q-1 28 20 49l82 82q-71 112 -71 244q0 130 70 241l-81 81q-21 21 -20 49t22 48l42 43q21 21 48.5 21.5t49.5 -20.5l80 -80q110 71 242 71q134 0 244 -72l81 81q22 21 49.5 20.5t48.5 -21.5l42 -43q21 -20 22 -48t-20 -49l-82 -82q69 -110 69 -240 q0 -132 -71 -242l84 -84q21 -21 20 -49t-22 -48l-42 -43q-21 -21 -48.5 -21.5t-49.5 20.5l-84 84q-109 -70 -241 -70q-131 0 -239 69l-83 -83q-22 -21 -49.5 -20.5t-48.5 21.5l-42 43q-21 20 -22 48zM352 756q0 -97 67 -164t164 -67q98 0 165.5 67t67.5 164t-67.5 164.5 t-165.5 67.5q-97 0 -164 -67.5t-67 -164.5z" />
<glyph unicode="&#xa5;" horiz-adv-x="1278" d="M100 851v692q0 24 17 40.5t41 16.5h154q24 0 41 -16.5t17 -40.5v-557l269 -169l269 169v557q0 24 17 40.5t41 16.5h154q24 0 41 -16.5t17 -40.5v-692q0 -30 -16 -40l-259 -163h102q30 0 49 -20t19 -50v-60q0 -30 -19 -50t-49 -20h-232v-48h232q30 0 49 -20t19 -50v-60 q0 -30 -19 -50t-49 -20h-232v-143q0 -24 -17 -40.5t-41 -16.5h-154q-24 0 -41 16.5t-17 40.5v143h-232q-30 0 -49 20t-19 50v60q0 30 19 50t49 20h232v48h-232q-30 0 -49 20t-19 50v60q0 30 19 50t49 20h104l-259 163q-16 10 -16 40z" />
<glyph unicode="&#xa6;" horiz-adv-x="560" d="M150 332q0 24 17 40.5t41 16.5h144q24 0 41 -16.5t17 -40.5v-675q0 -24 -17 -40.5t-41 -16.5h-144q-24 0 -41 16.5t-17 40.5v675zM150 948v675q0 24 17 40.5t41 16.5h144q24 0 41 -16.5t17 -40.5v-675q0 -24 -17 -40.5t-41 -16.5h-144q-24 0 -41 16.5t-17 40.5z" />
<glyph unicode="&#xa7;" horiz-adv-x="1249" d="M100 608q0 181 114 315q-114 79 -114 241q0 68 19 131.5t60 121t101 100.5t149 68t196 25q279 0 496 -170q20 -16 23 -38.5t-13 -42.5l-76 -99q-33 -42 -79 -14q-64 46 -162 75t-194 29q-70 0 -123 -16.5t-80 -42t-40 -52t-13 -51.5q0 -35 27 -60.5t72.5 -40.5t104 -27.5 t124 -26t130.5 -31.5t123.5 -49t104 -72.5t72.5 -108t27 -150.5q0 -181 -114 -315q114 -79 114 -241q0 -68 -19 -131.5t-60 -121t-101 -100.5t-149 -68t-196 -25q-279 0 -496 170q-20 16 -23 38.5t13 42.5l76 99q33 42 79 14q64 -46 162 -75t194 -29q70 0 123 16.5t80 42 t40 52t13 51.5q0 35 -27 60.5t-72.5 40.5t-104 27.5t-123.5 26t-130.5 31.5t-124 49t-104 72.5t-72.5 108t-27 150.5zM365 614q0 -32 10.5 -58.5t24.5 -45t42.5 -34t50.5 -24.5t64 -18.5t67.5 -13.5t74.5 -12q83 7 134 67.5t51 140.5q0 32 -10.5 58.5t-24.5 45t-42.5 34 t-50.5 24.5t-64 18.5t-67.5 13.5t-74.5 12q-83 -7 -134 -67.5t-51 -140.5z" />
<glyph unicode="&#xa8;" horiz-adv-x="895" d="M100 1818v144q0 24 16.5 41t40.5 17h146q24 0 40.5 -17t16.5 -41v-144q0 -24 -16.5 -41t-40.5 -17h-146q-24 0 -40.5 17t-16.5 41zM535 1818v144q0 24 16.5 41t40.5 17h146q24 0 40.5 -17t16.5 -41v-144q0 -24 -16.5 -41t-40.5 -17h-146q-24 0 -40.5 17t-16.5 41z" />
<glyph unicode="&#xa9;" horiz-adv-x="2155" d="M100 633q0 -199 77.5 -380t208.5 -312t312 -208.5t380 -77.5t380 77.5t311.5 208.5t208 312t77.5 380t-77.5 379.5t-208 311.5t-311.5 208.5t-380 77.5t-380 -77.5t-312 -208.5t-208.5 -311.5t-77.5 -379.5zM315 633q0 155 60.5 296t162.5 243t243.5 162.5t296.5 60.5 t296 -60.5t243 -162.5t162.5 -243t60.5 -296t-60.5 -296.5t-162.5 -243.5t-243 -162.5t-296 -60.5t-296.5 60.5t-243.5 162.5t-162.5 243.5t-60.5 296.5zM605 620q0 73 10.5 138t44 137.5t86.5 124t147 85.5t217 34h257q21 0 35 -14.5t14 -35.5v-135q0 -21 -14 -35.5 t-35 -14.5h-260q-68 0 -117.5 -24t-75.5 -66t-37.5 -90.5t-11.5 -106.5t11.5 -106.5t38 -92t77 -67t121.5 -21.5q18 0 34 2t32 7t26.5 8t27 13t23 13.5t25 18t23.5 18t27 22.5t27 23q38 31 68 -12l77 -104q27 -36 -9 -70q-101 -96 -190.5 -138t-216.5 -42q-118 0 -207 35.5 t-140 89.5t-83 128.5t-42 140t-10 137.5z" />
<glyph unicode="&#xab;" horiz-adv-x="1260" d="M100 955q0 19 12 35l315 403q15 19 38.5 21.5t42.5 -12.5l113 -89q19 -15 22.5 -37.5t-11.5 -42.5l-217 -278l217 -278q15 -20 11.5 -42.5t-22.5 -37.5l-113 -89q-19 -15 -42.5 -12.5t-38.5 21.5l-315 403q-12 16 -12 35zM616 955q0 19 12 35l315 403q15 19 38.5 21.5 t42.5 -12.5l113 -89q19 -15 22.5 -37.5t-11.5 -42.5l-217 -278l217 -278q15 -20 11.5 -42.5t-22.5 -37.5l-113 -89q-19 -15 -42.5 -12.5t-38.5 21.5l-315 403q-12 16 -12 35z" />
<glyph unicode="&#xad;" horiz-adv-x="750" d="M100 965v134q0 24 16.5 41t40.5 17h436q24 0 40.5 -17t16.5 -41v-134q0 -24 -16.5 -41t-40.5 -17h-436q-24 0 -40.5 17t-16.5 41z" />
<glyph unicode="&#xae;" horiz-adv-x="2155" d="M100 633q0 199 77.5 379.5t208.5 311.5t312 208.5t380 77.5t380 -77.5t311.5 -208.5t208 -311.5t77.5 -379.5t-77.5 -380t-208 -312t-311.5 -208.5t-380 -77.5t-380 77.5t-312 208.5t-208.5 312t-77.5 380zM315 633q0 -155 60.5 -296.5t162.5 -243.5t243.5 -162.5 t296.5 -60.5t296 60.5t243 162.5t162.5 243.5t60.5 296.5t-60.5 296t-162.5 243t-243 162.5t-296 60.5t-296.5 -60.5t-243.5 -162.5t-162.5 -243t-60.5 -296zM634 175v968q0 24 17 40.5t41 16.5h467q127 0 212 -25.5t132 -78.5t66 -121.5t19 -167.5q0 -253 -150 -351 l136 -293q10 -21 -3.5 -33t-39.5 -12h-168h-5q-15 0 -22.5 0.5t-18.5 3t-18.5 8.5t-12.5 16l-114 244h-11h-257v-215q0 -24 -17 -40.5t-41 -16.5h-154q-24 0 -41 16.5t-17 40.5zM904 640h245q46 0 76 7.5t46.5 18.5t24.5 34.5t9.5 42.5t1.5 57q0 32 -1 49t-5.5 37.5 t-14.5 29.5t-27.5 18.5t-44 12.5t-65.5 3h-245v-310z" />
<glyph unicode="&#xaf;" horiz-adv-x="925" d="M100 1848v84q0 24 16.5 41t40.5 17h611q24 0 40.5 -17t16.5 -41v-84q0 -24 -16.5 -41t-40.5 -17h-611q-24 0 -40.5 17t-16.5 41z" />
<glyph unicode="&#xb0;" horiz-adv-x="827" d="M100 1296q0 130 91.5 222t221.5 92t222 -92t92 -222t-92 -221.5t-222 -91.5t-221.5 91.5t-91.5 221.5zM282 1296q0 -55 38 -93t93 -38t93.5 38t38.5 93t-38.5 93.5t-93.5 38.5t-93 -38.5t-38 -93.5z" />
<glyph unicode="&#xb1;" horiz-adv-x="1100" d="M100 58v134q0 24 16.5 41t40.5 17h786q24 0 40.5 -17t16.5 -41v-134q0 -24 -16.5 -41t-40.5 -17h-786q-24 0 -40.5 17t-16.5 41zM100 703v134q0 24 16.5 41t40.5 17h268v248q0 24 17 40.5t41 16.5h134q24 0 41 -16.5t17 -40.5v-248h268q24 0 40.5 -17t16.5 -41v-134 q0 -24 -16.5 -41t-40.5 -17h-268v-248q0 -24 -17 -40.5t-41 -16.5h-134q-24 0 -41 16.5t-17 40.5v248h-268q-24 0 -40.5 17t-16.5 41z" />
<glyph unicode="&#xb4;" horiz-adv-x="721" d="M76 1772q4 23 23 36l358 251q20 14 43 9.5t37 -24.5l77 -110q14 -19 11.5 -45.5t-25.5 -34.5l-434 -141q-57 -17 -80 16q-14 20 -10 43z" />
<glyph unicode="&#xb6;" horiz-adv-x="1543" d="M100 1141q0 88 28.5 169t82.5 146.5t140.5 104.5t193.5 39h270q24 0 41 -16.5t17 -40.5v-1486q0 -24 -17 -40.5t-41 -16.5h-144q-24 0 -41 16.5t-17 40.5v628h-68q-107 0 -194 39t-140.5 104t-82 145.5t-28.5 167.5zM1133 57v1486q0 24 17 40.5t41 16.5h144 q24 0 41 -16.5t17 -40.5v-1486q0 -24 -17 -40.5t-41 -16.5h-144q-24 0 -41 16.5t-17 40.5z" />
<glyph unicode="&#xb7;" horiz-adv-x="560" d="M150 528v134q0 24 16.5 41t40.5 17h146q24 0 40.5 -17t16.5 -41v-134q0 -24 -16.5 -41t-40.5 -17h-146q-24 0 -40.5 17t-16.5 41z" />
<glyph unicode="&#xb8;" horiz-adv-x="600" d="M143 -303.5q0 23.5 17 41.5l12 13q17 18 39 20t39 -14q21 -24 52 -24q29 0 49.5 20t20.5 49t-20.5 49.5t-49.5 20.5q-24 0 -40.5 17t-16.5 41v75h57q84 0 143.5 -59.5t59.5 -143.5t-59.5 -143t-143.5 -59q-82 0 -141 57q-18 16 -18 39.5z" />
<glyph unicode="&#xbb;" horiz-adv-x="1260" d="M100.5 634.5q-3.5 22.5 11.5 42.5l217 278l-217 278q-15 20 -11.5 42.5t22.5 37.5l113 89q19 15 42.5 12.5t38.5 -21.5l315 -403q12 -16 12 -35t-12 -35l-315 -403q-15 -19 -38.5 -21.5t-42.5 12.5l-113 89q-19 15 -22.5 37.5zM616.5 634.5q-3.5 22.5 11.5 42.5l217 278 l-217 278q-15 20 -11.5 42.5t22.5 37.5l113 89q19 15 42.5 12.5t38.5 -21.5l315 -403q12 -16 12 -35t-12 -35l-315 -403q-15 -19 -38.5 -21.5t-42.5 12.5l-113 89q-19 15 -22.5 37.5z" />
<glyph unicode="&#xbf;" horiz-adv-x="1200" d="M100 -46v239q0 202 84.5 313.5t236.5 140.5q116 22 116 167v229q0 24 17 40.5t41 16.5h144q24 0 41 -16.5t17 -40.5v-229q0 -74 -16.5 -138.5t-51 -121t-95.5 -96t-144 -55.5q-33 -5 -56.5 -20.5t-35.5 -33.5t-18.5 -47.5t-8 -51.5t-1.5 -57v-239q0 -32 1.5 -53t6 -49 t15.5 -45t28.5 -34t46.5 -25t68 -8h118q46 0 79.5 13t51.5 31.5t28.5 49t13 57t2.5 63.5q0 24 16.5 41t40.5 17h156q24 0 40.5 -17t17.5 -41q0 -74 -12 -138t-43 -125.5t-79 -104.5t-125 -69.5t-177 -26.5h-128q-100 0 -177 26.5t-125 69.5t-79 104.5t-43 125.5t-12 138z M537 1398v144q0 24 16.5 41t40.5 17h146q24 0 40.5 -17t16.5 -41v-144q0 -24 -16.5 -41t-40.5 -17h-146q-24 0 -40.5 17t-16.5 41z" />
<glyph unicode="&#xc0;" horiz-adv-x="1378" d="M150 57v1640q0 29 16 40l489 362q15 11 34 11t34 -11l489 -362q16 -11 16 -40v-1640q0 -24 -17 -40.5t-41 -16.5h-154q-24 0 -41 16.5t-17 40.5v600h-538v-600q0 -24 -17 -40.5t-41 -16.5h-154q-24 0 -41 16.5t-17 40.5zM413.5 2298.5q-2.5 26.5 11.5 45.5l77 110 q14 20 37 24.5t43 -9.5l358 -251q19 -13 23 -36t-10 -43q-23 -33 -80 -16l-434 141q-23 8 -25.5 34.5zM420 907h538v684l-269 194l-269 -194v-684z" />
<glyph unicode="&#xc1;" horiz-adv-x="1378" d="M150 57v1640q0 29 16 40l489 362q15 11 34 11t34 -11l489 -362q16 -11 16 -40v-1640q0 -24 -17 -40.5t-41 -16.5h-154q-24 0 -41 16.5t-17 40.5v600h-538v-600q0 -24 -17 -40.5t-41 -16.5h-154q-24 0 -41 16.5t-17 40.5zM377 2182q4 23 23 36l358 251q20 14 43 9.5 t37 -24.5l77 -110q14 -19 11.5 -45.5t-25.5 -34.5l-434 -141q-57 -17 -80 16q-14 20 -10 43zM420 907h538v684l-269 194l-269 -194v-684z" />
<glyph unicode="&#xc2;" horiz-adv-x="1378" d="M150 57v1640q0 29 16 40l489 362q15 11 34 11t34 -11l489 -362q16 -11 16 -40v-1640q0 -24 -17 -40.5t-41 -16.5h-154q-24 0 -41 16.5t-17 40.5v600h-538v-600q0 -24 -17 -40.5t-41 -16.5h-154q-24 0 -41 16.5t-17 40.5zM273.5 2111q-0.5 24 16.5 40l309 309q18 18 40 16 q22 2 40 -16l309 -309q17 -16 16.5 -40t-17.5 -41q-29 -29 -81 -1l-267 142l-267 -142q-52 -28 -81 1q-17 17 -17.5 41zM420 907h538v684l-269 194l-269 -194v-684z" />
<glyph unicode="&#xc3;" horiz-adv-x="1378" d="M150 57v1640q0 29 16 40l489 362q15 11 34 11t34 -11l489 -362q16 -11 16 -40v-1640q0 -24 -17 -40.5t-41 -16.5h-154q-24 0 -41 16.5t-17 40.5v600h-538v-600q0 -24 -17 -40.5t-41 -16.5h-154q-24 0 -41 16.5t-17 40.5zM211 2309q4 22 27 37l34 23q70 47 138.5 69.5 t118.5 22.5q42 0 81.5 -16.5t65 -36.5t54.5 -36.5t52 -16.5q30 0 72 27l87 56q19 13 42 9t37 -26l57 -88q14 -20 10 -42t-27 -37l-34 -23q-137 -92 -260 -92q-44 0 -83.5 16.5t-63.5 37t-51.5 37t-49.5 16.5q-31 0 -74 -28l-87 -56q-19 -13 -42 -9t-37 26l-57 88 q-14 20 -10 42zM420 907h538v684l-269 194l-269 -194v-684z" />
<glyph unicode="&#xc4;" horiz-adv-x="1378" d="M150 57v1640q0 29 16 40l489 362q15 11 34 11t34 -11l489 -362q16 -11 16 -40v-1640q0 -24 -17 -40.5t-41 -16.5h-154q-24 0 -41 16.5t-17 40.5v600h-538v-600q0 -24 -17 -40.5t-41 -16.5h-154q-24 0 -41 16.5t-17 40.5zM285 2193v144q0 24 16.5 41t40.5 17h146 q24 0 40.5 -17t16.5 -41v-144q0 -24 -16.5 -41t-40.5 -17h-146q-24 0 -40.5 17t-16.5 41zM420 907h538v684l-269 194l-269 -194v-684zM720 2193v144q0 24 16.5 41t40.5 17h146q24 0 40.5 -17t16.5 -41v-144q0 -24 -16.5 -41t-40.5 -17h-146q-24 0 -40.5 17t-16.5 41z" />
<glyph unicode="&#xc5;" horiz-adv-x="1378" d="M150 57v1640q0 29 16 40l376 278q-48 27 -76.5 74t-28.5 104q0 84 59 143.5t143 59.5t143.5 -59.5t59.5 -143.5q0 -81 -57 -140l427 -316q16 -11 16 -40v-1640q0 -24 -17 -40.5t-41 -16.5h-154q-24 0 -41 16.5t-17 40.5v600h-538v-600q0 -24 -17 -40.5t-41 -16.5h-154 q-24 0 -41 16.5t-17 40.5zM420 907h538v684l-269 194l-269 -194v-684zM557 2193q0 -34 24 -58t58 -24t58.5 24t24.5 58q0 35 -24 59t-59 24q-34 0 -58 -24.5t-24 -58.5z" />
<glyph unicode="&#xc6;" horiz-adv-x="2028" d="M150 57v1640q0 29 16 40l489 362q15 11 34 11t34 -11l235 -174v118q0 24 17 40.5t41 16.5h855q24 0 40.5 -17t16.5 -41v-134q0 -24 -16.5 -41t-40.5 -17h-643v-693h489q24 0 40.5 -17t16.5 -41v-134q0 -24 -16.5 -41t-40.5 -17h-489v-465q0 -83 68.5 -137.5t210.5 -54.5 h364q24 0 40.5 -17t16.5 -41v-134q0 -24 -16.5 -41t-40.5 -17h-352q-138 0 -242.5 28.5t-163.5 72t-95.5 105t-48 117.5t-11.5 121v213h-538v-600q0 -24 -17 -40.5t-41 -16.5h-154q-24 0 -41 16.5t-17 40.5zM420 907h538v684l-269 194l-269 -194v-684z" />
<glyph unicode="&#xc7;" horiz-adv-x="1226" d="M100 1157q0 113 4.5 204t16 182.5t32.5 162t52 135.5t75.5 111t102.5 80.5t134 51t169 16.5h314q24 0 40.5 -17t16.5 -41v-134q0 -24 -16.5 -41t-40.5 -17h-317q-163 0 -233 -165t-70 -528q0 -192 17.5 -353t53.5 -288.5t97 -198t142 -67.5q97 4 160 28t175 93 q49 29 79 -14l79 -107q15 -20 12 -42.5t-22 -38.5q-104 -84 -205.5 -126.5t-230.5 -51.5q58 -22 94 -73.5t36 -115.5q0 -84 -59.5 -143t-143.5 -59q-82 0 -141 57q-18 16 -18 39.5t17 41.5l12 13q17 18 39 20t39 -14q21 -24 52 -24q29 0 49.5 20t20.5 49t-20.5 49.5 t-49.5 20.5q-24 0 -40.5 17t-16.5 41v62q-91 9 -165 51.5t-125.5 106t-91 154t-63 186.5t-38 213.5t-19.5 224t-5 229.5z" />
<glyph unicode="&#xc8;" horiz-adv-x="1210" d="M140 444v1599q0 24 17 40.5t41 16.5h855q24 0 40.5 -17t16.5 -41v-134q0 -24 -16.5 -41t-40.5 -17h-643v-693h489q24 0 40.5 -17t16.5 -41v-134q0 -24 -16.5 -41t-40.5 -17h-489v-465q0 -83 68.5 -137.5t210.5 -54.5h364q24 0 40.5 -17t16.5 -41v-134q0 -24 -16.5 -41 t-40.5 -17h-352q-138 0 -242.5 28.5t-163.5 72t-95.5 105t-48 117.5t-11.5 121zM329.5 2298.5q-2.5 26.5 11.5 45.5l77 110q14 20 37 24.5t43 -9.5l358 -251q19 -13 23 -36t-10 -43q-23 -33 -80 -16l-434 141q-23 8 -25.5 34.5z" />
<glyph unicode="&#xc9;" horiz-adv-x="1210" d="M140 444v1599q0 24 17 40.5t41 16.5h855q24 0 40.5 -17t16.5 -41v-134q0 -24 -16.5 -41t-40.5 -17h-643v-693h489q24 0 40.5 -17t16.5 -41v-134q0 -24 -16.5 -41t-40.5 -17h-489v-465q0 -83 68.5 -137.5t210.5 -54.5h364q24 0 40.5 -17t16.5 -41v-134q0 -24 -16.5 -41 t-40.5 -17h-352q-138 0 -242.5 28.5t-163.5 72t-95.5 105t-48 117.5t-11.5 121zM335 2182q4 23 23 36l358 251q20 14 43 9.5t37 -24.5l77 -110q14 -19 11.5 -45.5t-25.5 -34.5l-434 -141q-57 -17 -80 16q-14 20 -10 43z" />
<glyph unicode="&#xca;" horiz-adv-x="1210" d="M140 444v1599q0 24 17 40.5t41 16.5h855q24 0 40.5 -17t16.5 -41v-134q0 -24 -16.5 -41t-40.5 -17h-643v-693h489q24 0 40.5 -17t16.5 -41v-134q0 -24 -16.5 -41t-40.5 -17h-489v-465q0 -83 68.5 -137.5t210.5 -54.5h364q24 0 40.5 -17t16.5 -41v-134q0 -24 -16.5 -41 t-40.5 -17h-352q-138 0 -242.5 28.5t-163.5 72t-95.5 105t-48 117.5t-11.5 121zM229.5 2181q-0.5 24 16.5 40l309 309q18 18 40 16q22 2 40 -16l309 -309q17 -16 16.5 -40t-17.5 -41q-29 -29 -81 -1l-267 142l-267 -142q-52 -28 -81 1q-17 17 -17.5 41z" />
<glyph unicode="&#xcb;" horiz-adv-x="1210" d="M140 444v1599q0 24 17 40.5t41 16.5h855q24 0 40.5 -17t16.5 -41v-134q0 -24 -16.5 -41t-40.5 -17h-643v-693h489q24 0 40.5 -17t16.5 -41v-134q0 -24 -16.5 -41t-40.5 -17h-489v-465q0 -83 68.5 -137.5t210.5 -54.5h364q24 0 40.5 -17t16.5 -41v-134q0 -24 -16.5 -41 t-40.5 -17h-352q-138 0 -242.5 28.5t-163.5 72t-95.5 105t-48 117.5t-11.5 121zM250 2228v144q0 24 16.5 41t40.5 17h146q24 0 40.5 -17t16.5 -41v-144q0 -24 -16.5 -41t-40.5 -17h-146q-24 0 -40.5 17t-16.5 41zM685 2228v144q0 24 16.5 41t40.5 17h146q24 0 40.5 -17 t16.5 -41v-144q0 -24 -16.5 -41t-40.5 -17h-146q-24 0 -40.5 17t-16.5 41z" />
<glyph unicode="&#xcc;" horiz-adv-x="790" d="M125 58v134q0 24 16.5 41t40.5 17h78v1600h-78q-24 0 -40.5 17t-16.5 41v134q0 24 16.5 41t40.5 17h426q24 0 40.5 -17t16.5 -41v-134q0 -24 -16.5 -41t-40.5 -17h-78v-1600h78q24 0 40.5 -17t16.5 -41v-134q0 -24 -16.5 -41t-40.5 -17h-426q-24 0 -40.5 17t-16.5 41z M129.5 2333.5q-2.5 26.5 11.5 45.5l77 110q14 20 37 24.5t43 -9.5l358 -251q19 -13 23 -36t-10 -43q-23 -33 -80 -16l-434 141q-23 8 -25.5 34.5z" />
<glyph unicode="&#xcd;" horiz-adv-x="790" d="M86 2217q4 23 23 36l358 251q20 14 43 9.5t37 -24.5l77 -110q14 -19 11.5 -45.5t-25.5 -34.5l-434 -141q-57 -17 -80 16q-14 20 -10 43zM125 58v134q0 24 16.5 41t40.5 17h78v1600h-78q-24 0 -40.5 17t-16.5 41v134q0 24 16.5 41t40.5 17h426q24 0 40.5 -17t16.5 -41 v-134q0 -24 -16.5 -41t-40.5 -17h-78v-1600h78q24 0 40.5 -17t16.5 -41v-134q0 -24 -16.5 -41t-40.5 -17h-426q-24 0 -40.5 17t-16.5 41z" />
<glyph unicode="&#xce;" horiz-adv-x="790" d="M-0.5 2181q-0.5 24 16.5 40l309 309q18 18 40 16q22 2 40 -16l309 -309q17 -16 16.5 -40t-17.5 -41q-29 -29 -81 -1l-267 142l-267 -142q-52 -28 -81 1q-17 17 -17.5 41zM125 58v134q0 24 16.5 41t40.5 17h78v1600h-78q-24 0 -40.5 17t-16.5 41v134q0 24 16.5 41t40.5 17 h426q24 0 40.5 -17t16.5 -41v-134q0 -24 -16.5 -41t-40.5 -17h-78v-1600h78q24 0 40.5 -17t16.5 -41v-134q0 -24 -16.5 -41t-40.5 -17h-426q-24 0 -40.5 17t-16.5 41z" />
<glyph unicode="&#xcf;" horiz-adv-x="790" d="M22 2233v144q0 24 16.5 41t40.5 17h146q24 0 40.5 -17t16.5 -41v-144q0 -24 -16.5 -41t-40.5 -17h-146q-24 0 -40.5 17t-16.5 41zM125 58v134q0 24 16.5 41t40.5 17h78v1600h-78q-24 0 -40.5 17t-16.5 41v134q0 24 16.5 41t40.5 17h426q24 0 40.5 -17t16.5 -41v-134 q0 -24 -16.5 -41t-40.5 -17h-78v-1600h78q24 0 40.5 -17t16.5 -41v-134q0 -24 -16.5 -41t-40.5 -17h-426q-24 0 -40.5 17t-16.5 41zM457 2233v144q0 24 16.5 41t40.5 17h146q24 0 40.5 -17t16.5 -41v-144q0 -24 -16.5 -41t-40.5 -17h-146q-24 0 -40.5 17t-16.5 41z" />
<glyph unicode="&#xd0;" horiz-adv-x="1410" d="M5 1068v134q0 24 16.5 41t40.5 17h88v783q0 24 17 40.5t41 16.5h508q109 0 195 -25.5t148 -69.5t107 -116t72.5 -152.5t43.5 -192t22 -222t6 -254.5q0 -147 -6 -262t-22.5 -229.5t-44.5 -199t-72.5 -158.5t-106 -120.5t-146 -72.5t-191.5 -26h-513q-24 0 -41 16.5 t-17 40.5v953h-88q-24 0 -40.5 17t-16.5 41zM420 250h300q169 0 239.5 194t70.5 623q0 416 -70 599.5t-247 183.5h-293v-590h78q24 0 40.5 -17t16.5 -41v-134q0 -24 -16.5 -41t-40.5 -17h-78v-760z" />
<glyph unicode="&#xd1;" horiz-adv-x="1368" d="M150 57v1986q0 24 17 40.5t41 16.5h154q24 0 41 -16.5t17 -40.5v-73q157 86 245 113t153 27q205 0 315 -136.5t110 -415.5v-1501q0 -24 -17 -40.5t-41 -16.5h-154q-24 0 -41 16.5t-17 40.5v1472q0 46 -1.5 79.5t-6.5 73t-15.5 66.5t-27 51t-43 36t-60.5 12 q-121 0 -399 -168v-1622q0 -24 -17 -40.5t-41 -16.5h-154q-24 0 -41 16.5t-17 40.5zM228 2374q4 22 27 37l34 23q70 47 138.5 69.5t118.5 22.5q42 0 81.5 -16.5t65 -36.5t54.5 -36.5t52 -16.5q30 0 72 27l87 56q19 13 42 9t37 -26l57 -88q14 -20 10 -42t-27 -37l-34 -23 q-137 -92 -260 -92q-44 0 -83.5 16.5t-63.5 37t-51.5 37t-49.5 16.5q-31 0 -74 -28l-87 -56q-19 -13 -42 -9t-37 26l-57 88q-14 20 -10 42z" />
<glyph unicode="&#xd2;" horiz-adv-x="1380" d="M100 787v521q0 113 4.5 199t16.5 167t32 139.5t51.5 109.5t75 84.5t102.5 57.5t134 34.5t170 10.5q96 0 172.5 -11t136.5 -36t104.5 -58.5t76 -85.5t52 -110.5t32 -140t16 -166.5t4.5 -198v-524q-1 -147 -10 -251t-32.5 -198t-65 -154t-107 -104t-157.5 -63.5t-217 -19.5 q-108 0 -191 15.5t-145.5 44.5t-106.5 79t-72.5 110t-45 147t-23.5 181t-7 220zM380 787q1 -143 12.5 -238t32 -155.5t60 -91.5t85.5 -41.5t120 -10.5t120 10.5t85.5 41.5t60 90.5t32 153t12.5 234.5v523q0 122 -6.5 207.5t-23 147.5t-38.5 99t-60.5 58t-81 28t-107.5 7 q-52 0 -87.5 -4.5t-70 -18t-56 -38.5t-40.5 -64t-28.5 -98t-15 -137t-5.5 -183v-520zM429.5 2363.5q-2.5 26.5 11.5 45.5l77 110q14 20 37 24.5t43 -9.5l358 -251q19 -13 23 -36t-10 -43q-23 -33 -80 -16l-434 141q-23 8 -25.5 34.5z" />
<glyph unicode="&#xd3;" horiz-adv-x="1380" d="M100 787v521q0 113 4.5 199t16.5 167t32 139.5t51.5 109.5t75 84.5t102.5 57.5t134 34.5t170 10.5q96 0 172.5 -11t136.5 -36t104.5 -58.5t76 -85.5t52 -110.5t32 -140t16 -166.5t4.5 -198v-524q-1 -147 -10 -251t-32.5 -198t-65 -154t-107 -104t-157.5 -63.5t-217 -19.5 q-108 0 -191 15.5t-145.5 44.5t-106.5 79t-72.5 110t-45 147t-23.5 181t-7 220zM380 787q1 -143 12.5 -238t32 -155.5t60 -91.5t85.5 -41.5t120 -10.5t120 10.5t85.5 41.5t60 90.5t32 153t12.5 234.5v523q0 122 -6.5 207.5t-23 147.5t-38.5 99t-60.5 58t-81 28t-107.5 7 q-52 0 -87.5 -4.5t-70 -18t-56 -38.5t-40.5 -64t-28.5 -98t-15 -137t-5.5 -183v-520zM426 2217q4 23 23 36l358 251q20 14 43 9.5t37 -24.5l77 -110q14 -19 11.5 -45.5t-25.5 -34.5l-434 -141q-57 -17 -80 16q-14 20 -10 43z" />
<glyph unicode="&#xd4;" horiz-adv-x="1380" d="M100 787v521q0 113 4.5 199t16.5 167t32 139.5t51.5 109.5t75 84.5t102.5 57.5t134 34.5t170 10.5q96 0 172.5 -11t136.5 -36t104.5 -58.5t76 -85.5t52 -110.5t32 -140t16 -166.5t4.5 -198v-524q-1 -147 -10 -251t-32.5 -198t-65 -154t-107 -104t-157.5 -63.5t-217 -19.5 q-108 0 -191 15.5t-145.5 44.5t-106.5 79t-72.5 110t-45 147t-23.5 181t-7 220zM318.5 2181q-0.5 24 16.5 40l309 309q18 18 40 16q22 2 40 -16l309 -309q17 -16 16.5 -40t-17.5 -41q-29 -29 -81 -1l-267 142l-267 -142q-52 -28 -81 1q-17 17 -17.5 41zM380 787 q1 -143 12.5 -238t32 -155.5t60 -91.5t85.5 -41.5t120 -10.5t120 10.5t85.5 41.5t60 90.5t32 153t12.5 234.5v523q0 122 -6.5 207.5t-23 147.5t-38.5 99t-60.5 58t-81 28t-107.5 7q-52 0 -87.5 -4.5t-70 -18t-56 -38.5t-40.5 -64t-28.5 -98t-15 -137t-5.5 -183v-520z" />
<glyph unicode="&#xd5;" horiz-adv-x="1380" d="M100 787v521q0 113 4.5 199t16.5 167t32 139.5t51.5 109.5t75 84.5t102.5 57.5t134 34.5t170 10.5q96 0 172.5 -11t136.5 -36t104.5 -58.5t76 -85.5t52 -110.5t32 -140t16 -166.5t4.5 -198v-524q-1 -147 -10 -251t-32.5 -198t-65 -154t-107 -104t-157.5 -63.5t-217 -19.5 q-108 0 -191 15.5t-145.5 44.5t-106.5 79t-72.5 110t-45 147t-23.5 181t-7 220zM253 2344q4 22 27 37l34 23q70 47 138.5 69.5t118.5 22.5q42 0 81.5 -16.5t65 -36.5t54.5 -36.5t52 -16.5q30 0 72 27l87 56q19 13 42 9t37 -26l57 -88q14 -20 10 -42t-27 -37l-34 -23 q-137 -92 -260 -92q-44 0 -83.5 16.5t-63.5 37t-51.5 37t-49.5 16.5q-31 0 -74 -28l-87 -56q-19 -13 -42 -9t-37 26l-57 88q-14 20 -10 42zM380 787q1 -143 12.5 -238t32 -155.5t60 -91.5t85.5 -41.5t120 -10.5t120 10.5t85.5 41.5t60 90.5t32 153t12.5 234.5v523 q0 122 -6.5 207.5t-23 147.5t-38.5 99t-60.5 58t-81 28t-107.5 7q-52 0 -87.5 -4.5t-70 -18t-56 -38.5t-40.5 -64t-28.5 -98t-15 -137t-5.5 -183v-520z" />
<glyph unicode="&#xd6;" horiz-adv-x="1380" d="M100 787v521q0 113 4.5 199t16.5 167t32 139.5t51.5 109.5t75 84.5t102.5 57.5t134 34.5t170 10.5q96 0 172.5 -11t136.5 -36t104.5 -58.5t76 -85.5t52 -110.5t32 -140t16 -166.5t4.5 -198v-524q-1 -147 -10 -251t-32.5 -198t-65 -154t-107 -104t-157.5 -63.5t-217 -19.5 q-108 0 -191 15.5t-145.5 44.5t-106.5 79t-72.5 110t-45 147t-23.5 181t-7 220zM337 2233v144q0 24 16.5 41t40.5 17h146q24 0 40.5 -17t16.5 -41v-144q0 -24 -16.5 -41t-40.5 -17h-146q-24 0 -40.5 17t-16.5 41zM380 787q1 -143 12.5 -238t32 -155.5t60 -91.5t85.5 -41.5 t120 -10.5t120 10.5t85.5 41.5t60 90.5t32 153t12.5 234.5v523q0 122 -6.5 207.5t-23 147.5t-38.5 99t-60.5 58t-81 28t-107.5 7q-52 0 -87.5 -4.5t-70 -18t-56 -38.5t-40.5 -64t-28.5 -98t-15 -137t-5.5 -183v-520zM772 2233v144q0 24 16.5 41t40.5 17h146q24 0 40.5 -17 t16.5 -41v-144q0 -24 -16.5 -41t-40.5 -17h-146q-24 0 -40.5 17t-16.5 41z" />
<glyph unicode="&#xd7;" horiz-adv-x="966" d="M100.5 369.5q-0.5 23.5 16.5 40.5l190 190l-190 190q-17 17 -16.5 40.5t17.5 40.5l94 95q18 17 41 17.5t41 -17.5l190 -189l189 189q18 18 40.5 17.5t40.5 -17.5l95 -95q17 -18 17.5 -40.5t-16.5 -40.5l-190 -190l190 -190q16 -17 16 -40.5t-17 -40.5l-95 -95 q-17 -17 -40.5 -17t-40.5 17l-189 190l-190 -190q-17 -17 -41 -17t-41 17l-94 95q-17 17 -17.5 40.5z" />
<glyph unicode="&#xd8;" horiz-adv-x="1360" d="M90 787v521q0 113 4.5 199t16.5 167t32 139.5t51.5 109.5t75 84.5t102.5 57.5t134 34.5t170 10.5q96 0 172.5 -11t136.5 -36t104.5 -58.5t76 -85.5t52 -110.5t32 -140t16 -166.5t4.5 -198v-524q-1 -147 -10 -251t-32.5 -198t-65 -154t-107 -104t-157.5 -63.5t-217 -19.5 q-108 0 -191 15.5t-145.5 44.5t-106.5 79t-72.5 110t-45 147t-23.5 181t-7 220zM370 787q0 -99 7 -195l450 1239q-52 19 -154 19q-52 0 -87.5 -4.5t-70 -18t-56 -38.5t-40.5 -64t-28.5 -98t-15 -137t-5.5 -183v-520zM536 267q52 -17 144 -17q74 0 120 10.5t85.5 41.5 t60 90.5t32 153t12.5 234.5v523q0 113 -6 198z" />
<glyph unicode="&#xd9;" horiz-adv-x="1370" d="M125 703v1340q0 24 17 40.5t41 16.5h154q24 0 41 -16.5t17 -40.5v-1316q0 -101 6.5 -176t15 -126.5t31 -84.5t39 -51.5t55 -27t64 -10t79.5 -1.5t79.5 1.5t64 10t55 27t39 51.5t31 84.5t15 126.5t6.5 176v1316q0 24 17 40.5t41 16.5h154q24 0 41 -16.5t17 -40.5v-1337 q0 -140 -8.5 -238.5t-32 -183t-63 -137t-102.5 -89.5t-149 -52.5t-205 -15.5t-205 15.5t-149 52.5t-102.5 89t-63 136t-32 182t-8.5 238zM360.5 2313.5q-2.5 26.5 11.5 45.5l77 110q14 20 37 24.5t43 -9.5l358 -251q19 -13 23 -36t-10 -43q-23 -33 -80 -16l-434 141 q-23 8 -25.5 34.5z" />
<glyph unicode="&#xda;" horiz-adv-x="1370" d="M125 703v1340q0 24 17 40.5t41 16.5h154q24 0 41 -16.5t17 -40.5v-1316q0 -101 6.5 -176t15 -126.5t31 -84.5t39 -51.5t55 -27t64 -10t79.5 -1.5t79.5 1.5t64 10t55 27t39 51.5t31 84.5t15 126.5t6.5 176v1316q0 24 17 40.5t41 16.5h154q24 0 41 -16.5t17 -40.5v-1337 q0 -140 -8.5 -238.5t-32 -183t-63 -137t-102.5 -89.5t-149 -52.5t-205 -15.5t-205 15.5t-149 52.5t-102.5 89t-63 136t-32 182t-8.5 238zM403 2197q4 23 23 36l358 251q20 14 43 9.5t37 -24.5l77 -110q14 -19 11.5 -45.5t-25.5 -34.5l-434 -141q-57 -17 -80 16 q-14 20 -10 43z" />
<glyph unicode="&#xdb;" horiz-adv-x="1370" d="M125 703v1340q0 24 17 40.5t41 16.5h154q24 0 41 -16.5t17 -40.5v-1316q0 -101 6.5 -176t15 -126.5t31 -84.5t39 -51.5t55 -27t64 -10t79.5 -1.5t79.5 1.5t64 10t55 27t39 51.5t31 84.5t15 126.5t6.5 176v1316q0 24 17 40.5t41 16.5h154q24 0 41 -16.5t17 -40.5v-1337 q0 -140 -8.5 -238.5t-32 -183t-63 -137t-102.5 -89.5t-149 -52.5t-205 -15.5t-205 15.5t-149 52.5t-102.5 89t-63 136t-32 182t-8.5 238zM285.5 2181q-0.5 24 16.5 40l309 309q18 18 40 16q22 2 40 -16l309 -309q17 -16 16.5 -40t-17.5 -41q-29 -29 -81 -1l-267 142 l-267 -142q-52 -28 -81 1q-17 17 -17.5 41z" />
<glyph unicode="&#xdc;" horiz-adv-x="1370" d="M125 703v1340q0 24 17 40.5t41 16.5h154q24 0 41 -16.5t17 -40.5v-1316q0 -101 6.5 -176t15 -126.5t31 -84.5t39 -51.5t55 -27t64 -10t79.5 -1.5t79.5 1.5t64 10t55 27t39 51.5t31 84.5t15 126.5t6.5 176v1316q0 24 17 40.5t41 16.5h154q24 0 41 -16.5t17 -40.5v-1337 q0 -140 -8.5 -238.5t-32 -183t-63 -137t-102.5 -89.5t-149 -52.5t-205 -15.5t-205 15.5t-149 52.5t-102.5 89t-63 136t-32 182t-8.5 238zM310 2263v144q0 24 16.5 41t40.5 17h146q24 0 40.5 -17t16.5 -41v-144q0 -24 -16.5 -41t-40.5 -17h-146q-24 0 -40.5 17t-16.5 41z M745 2263v144q0 24 16.5 41t40.5 17h146q24 0 40.5 -17t16.5 -41v-144q0 -24 -16.5 -41t-40.5 -17h-146q-24 0 -40.5 17t-16.5 41z" />
<glyph unicode="&#xdd;" horiz-adv-x="1338" d="M130 1191v852q0 24 17 40.5t41 16.5h154q24 0 41 -16.5t17 -40.5v-717l269 -169l269 169v717q0 24 17 40.5t41 16.5h154q24 0 41 -16.5t17 -40.5v-852q0 -30 -16 -40l-389 -244v-850q0 -24 -17 -40.5t-41 -16.5h-154q-24 0 -41 16.5t-17 40.5v851l-387 243q-16 10 -16 40 zM404 2187q4 23 23 36l358 251q20 14 43 9.5t37 -24.5l77 -110q14 -19 11.5 -45.5t-25.5 -34.5l-434 -141q-57 -17 -80 16q-14 20 -10 43z" />
<glyph unicode="&#xde;" horiz-adv-x="1210" d="M150 57v1986q0 24 17 40.5t41 16.5h154q24 0 41 -16.5t17 -40.5v-290h261q123 0 212 -39t137 -107t69 -146.5t21 -171.5v-172v-138v-172q0 -93 -21 -171.5t-69 -146.5t-137 -107t-212 -39h-261v-286q0 -24 -17 -40.5t-41 -16.5h-154q-24 0 -41 16.5t-17 40.5zM420 603 h251q47 0 80 12.5t50 29.5t26 48t11 55t2 63v168v138v168q0 39 -2 63t-11 55t-26 48t-50 29.5t-80 12.5h-251v-890z" />
<glyph unicode="&#xdf;" horiz-adv-x="1417" d="M150 57v1589q0 94 20.5 171.5t67.5 146t135.5 107.5t211.5 39h129q100 0 177 -26.5t125 -69.5t79 -104.5t43 -125.5t12 -138v-301q0 -28 -16 -40l-205 -150q88 -6 156.5 -35t111.5 -72.5t70.5 -102.5t38.5 -120.5t11 -131.5v-229q0 -74 -12 -138t-43 -125.5t-79 -104.5 t-125 -69.5t-177 -26.5h-214q-24 0 -40.5 17t-16.5 41v134q0 24 16.5 41t40.5 17h204q39 0 68 8t46.5 25t28.5 34t15.5 45t6 49t1.5 53v229q0 32 -1.5 53t-6 49t-15.5 45t-28.5 34t-46.5 25t-68 8h-298q-24 0 -40.5 17t-16.5 41v134q0 32 27 49l337 251v247q0 40 -2 64.5 t-10.5 56.5t-25.5 49.5t-49.5 30.5t-78.5 13h-119q-58 0 -96 -17t-56.5 -49t-25.5 -66.5t-7 -81.5v-1589q0 -24 -17 -40.5t-41 -16.5h-144q-24 0 -41 16.5t-17 40.5z" />
<glyph unicode="&#xe0;" d="M100 907q0 99 3.5 173.5t13.5 150t28 129t47.5 101.5t70.5 77t98.5 45.5t130.5 16.5h536q29 0 49.5 -19.5t20.5 -48.5v-1464q0 -28 -20.5 -48t-49.5 -20h-120q-29 0 -49.5 20t-20.5 48v77q-105 -87 -180.5 -121t-160.5 -34q-105 0 -176.5 43.5t-122.5 148t-74.5 282.5 t-23.5 443zM350 909q0 -154 3 -257t11 -181t19.5 -120.5t33.5 -69t47 -34t64 -7.5q48 0 86.5 11t77 39t68 56.5t78.5 82.5v921h-365q-29 0 -48.5 -8.5t-33.5 -32.5t-22 -53.5t-12.5 -85t-5.5 -112.5t-1 -149zM388.5 1888.5q-2.5 26.5 11.5 45.5l77 110q14 20 37 24.5 t43 -9.5l358 -251q19 -13 23 -36t-10 -43q-23 -33 -80 -16l-434 141q-23 8 -25.5 34.5z" />
<glyph unicode="&#xe1;" d="M100 907q0 99 3.5 173.5t13.5 150t28 129t47.5 101.5t70.5 77t98.5 45.5t130.5 16.5h536q29 0 49.5 -19.5t20.5 -48.5v-1464q0 -28 -20.5 -48t-49.5 -20h-120q-29 0 -49.5 20t-20.5 48v77q-105 -87 -180.5 -121t-160.5 -34q-105 0 -176.5 43.5t-122.5 148t-74.5 282.5 t-23.5 443zM350 909q0 -154 3 -257t11 -181t19.5 -120.5t33.5 -69t47 -34t64 -7.5q48 0 86.5 11t77 39t68 56.5t78.5 82.5v921h-365q-29 0 -48.5 -8.5t-33.5 -32.5t-22 -53.5t-12.5 -85t-5.5 -112.5t-1 -149zM409 1772q4 23 23 36l358 251q20 14 43 9.5t37 -24.5l77 -110 q14 -19 11.5 -45.5t-25.5 -34.5l-434 -141q-57 -17 -80 16q-14 20 -10 43z" />
<glyph unicode="&#xe2;" d="M100 907q0 99 3.5 173.5t13.5 150t28 129t47.5 101.5t70.5 77t98.5 45.5t130.5 16.5h536q29 0 49.5 -19.5t20.5 -48.5v-1464q0 -28 -20.5 -48t-49.5 -20h-120q-29 0 -49.5 20t-20.5 48v77q-105 -87 -180.5 -121t-160.5 -34q-105 0 -176.5 43.5t-122.5 148t-74.5 282.5 t-23.5 443zM291.5 1736q-0.5 24 16.5 40l309 309q18 18 40 16q22 2 40 -16l309 -309q17 -16 16.5 -40t-17.5 -41q-29 -29 -81 -1l-267 142l-267 -142q-52 -28 -81 1q-17 17 -17.5 41zM350 909q0 -154 3 -257t11 -181t19.5 -120.5t33.5 -69t47 -34t64 -7.5q48 0 86.5 11 t77 39t68 56.5t78.5 82.5v921h-365q-29 0 -48.5 -8.5t-33.5 -32.5t-22 -53.5t-12.5 -85t-5.5 -112.5t-1 -149z" />
<glyph unicode="&#xe3;" d="M100 907q0 99 3.5 173.5t13.5 150t28 129t47.5 101.5t70.5 77t98.5 45.5t130.5 16.5h536q29 0 49.5 -19.5t20.5 -48.5v-1464q0 -28 -20.5 -48t-49.5 -20h-120q-29 0 -49.5 20t-20.5 48v77q-105 -87 -180.5 -121t-160.5 -34q-105 0 -176.5 43.5t-122.5 148t-74.5 282.5 t-23.5 443zM205 1899q4 22 27 37l34 23q70 47 138.5 69.5t118.5 22.5q42 0 81.5 -16.5t65 -36.5t54.5 -36.5t52 -16.5q30 0 72 27l87 56q19 13 42 9t37 -26l57 -88q14 -20 10 -42t-27 -37l-34 -23q-137 -92 -260 -92q-44 0 -83.5 16.5t-63.5 37t-51.5 37t-49.5 16.5 q-31 0 -74 -28l-87 -56q-19 -13 -42 -9t-37 26l-57 88q-14 20 -10 42zM350 909q0 -154 3 -257t11 -181t19.5 -120.5t33.5 -69t47 -34t64 -7.5q48 0 86.5 11t77 39t68 56.5t78.5 82.5v921h-365q-29 0 -48.5 -8.5t-33.5 -32.5t-22 -53.5t-12.5 -85t-5.5 -112.5t-1 -149z" />
<glyph unicode="&#xe4;" d="M100 907q0 99 3.5 173.5t13.5 150t28 129t47.5 101.5t70.5 77t98.5 45.5t130.5 16.5h536q29 0 49.5 -19.5t20.5 -48.5v-1464q0 -28 -20.5 -48t-49.5 -20h-120q-29 0 -49.5 20t-20.5 48v77q-105 -87 -180.5 -121t-160.5 -34q-105 0 -176.5 43.5t-122.5 148t-74.5 282.5 t-23.5 443zM289 1818v144q0 24 16.5 41t40.5 17h146q24 0 40.5 -17t16.5 -41v-144q0 -24 -16.5 -41t-40.5 -17h-146q-24 0 -40.5 17t-16.5 41zM350 909q0 -154 3 -257t11 -181t19.5 -120.5t33.5 -69t47 -34t64 -7.5q48 0 86.5 11t77 39t68 56.5t78.5 82.5v921h-365 q-29 0 -48.5 -8.5t-33.5 -32.5t-22 -53.5t-12.5 -85t-5.5 -112.5t-1 -149zM724 1818v144q0 24 16.5 41t40.5 17h146q24 0 40.5 -17t16.5 -41v-144q0 -24 -16.5 -41t-40.5 -17h-146q-24 0 -40.5 17t-16.5 41z" />
<glyph unicode="&#xe5;" d="M100 907q0 99 3.5 173.5t13.5 150t28 129t47.5 101.5t70.5 77t98.5 45.5t130.5 16.5h536q29 0 49.5 -19.5t20.5 -48.5v-1464q0 -28 -20.5 -48t-49.5 -20h-120q-29 0 -49.5 20t-20.5 48v77q-105 -87 -180.5 -121t-160.5 -34q-105 0 -176.5 43.5t-122.5 148t-74.5 282.5 t-23.5 443zM350 909q0 -154 3 -257t11 -181t19.5 -120.5t33.5 -69t47 -34t64 -7.5q48 0 86.5 11t77 39t68 56.5t78.5 82.5v921h-365q-29 0 -48.5 -8.5t-33.5 -32.5t-22 -53.5t-12.5 -85t-5.5 -112.5t-1 -149zM456 1890q0 84 59 143.5t143 59.5t143.5 -59.5t59.5 -143.5 t-59.5 -143t-143.5 -59t-143 59t-59 143zM576 1890q0 -34 24 -58t58 -24t58.5 24t24.5 58t-24.5 58.5t-58.5 24.5t-58 -24.5t-24 -58.5z" />
<glyph unicode="&#xe6;" horiz-adv-x="1901" d="M100 485q0 202 106 312t286 110h347v101v128q0 32 -1.5 53t-6 49t-15.5 45t-28.5 34t-46.5 25t-68 8h-433q-24 0 -40.5 17t-16.5 41v134q0 24 16.5 41t40.5 17h433q181 0 283 -86q102 96 356 96h12q101 0 173.5 -12t126.5 -42.5t87.5 -74t54 -114.5t28 -155.5t7.5 -204.5 v-240q0 -29 -19.5 -49.5t-49.5 -20.5h-643v-110q0 -51 1.5 -84.5t8.5 -73.5t19 -66t34 -52t53 -40t77 -22.5t105 -7.5q117 2 267 79q29 15 52 15q28 0 42 -32l42 -92q16 -34 16 -53q0 -31 -28 -44q-142 -75 -218 -99.5t-173 -24.5q-332 0 -463 222q-69 -73 -125 -119.5 t-103 -68t-81.5 -28t-79.5 -6.5q-103 0 -180.5 26.5t-125.5 70t-77.5 109t-40.5 134.5t-11 155zM350 470q0 -122 35 -176t139 -54q63 0 120 27t99.5 65t106.5 108q-9 60 -11 147v87v23h-366q-35 0 -60.5 -24t-38.5 -62t-18.5 -73t-5.5 -68zM1089 907h462v101q0 85 -3 138.5 t-13.5 95.5t-24 63.5t-42 35t-60 16.5t-84.5 3h-12q-39 0 -64.5 -1.5t-50.5 -8t-39.5 -16.5t-28 -29.5t-20 -43.5t-12 -62.5t-7 -83.5t-1.5 -108v-100z" />
<glyph unicode="&#xe7;" horiz-adv-x="1128" d="M100 624v378q0 144 17.5 249t49 171.5t82 106.5t108 55.5t135.5 15.5h428q30 0 49 -20t19 -50v-110q0 -30 -19 -50t-49 -20h-454q-69 0 -92 -87.5t-23 -268.5v-380q4 -374 285 -374q53 0 97.5 21t185.5 109q24 15 42 15q33 0 53 -31l49 -79q15 -24 15 -44q0 -32 -27 -53 q-131 -105 -223 -144.5t-178 -42.5q57 -23 92.5 -74.5t35.5 -114.5q0 -84 -59.5 -143t-143.5 -59q-82 0 -141 57q-18 16 -18 39.5t17 41.5l12 13q17 18 39 20t39 -14q21 -24 52 -24q29 0 49.5 20t20.5 49t-20.5 49.5t-49.5 20.5q-24 0 -40.5 17t-16.5 41v68 q-196 33 -307 191t-111 435z" />
<glyph unicode="&#xe8;" horiz-adv-x="1162" d="M100 587v421q0 120 7.5 204t27.5 155t53 114t86.5 73.5t125.5 43t173 12.5h12q101 0 173.5 -12t126.5 -42.5t87.5 -74t54 -114.5t28 -155.5t7.5 -204.5v-240q0 -29 -19.5 -49.5t-49.5 -20.5h-643v-110q0 -51 1.5 -84.5t8.5 -73.5t19 -66t34 -52t53 -40t77 -22.5t105 -7.5 q117 2 267 79q29 15 52 15q28 0 42 -32l42 -92q16 -34 16 -53q0 -31 -28 -44q-142 -75 -218 -99.5t-173 -24.5q-265 0 -404.5 145t-143.5 452zM316.5 1888.5q-2.5 26.5 11.5 45.5l77 110q14 20 37 24.5t43 -9.5l358 -251q19 -13 23 -36t-10 -43q-23 -33 -80 -16l-434 141 q-23 8 -25.5 34.5zM350 907h462v101q0 85 -3 138.5t-13.5 95.5t-24 63.5t-42 35t-60 16.5t-84.5 3h-12q-39 0 -64.5 -1.5t-50.5 -8t-39.5 -16.5t-28 -29.5t-20 -43.5t-12 -62.5t-7 -83.5t-1.5 -108v-100z" />
<glyph unicode="&#xe9;" horiz-adv-x="1162" d="M100 587v421q0 120 7.5 204t27.5 155t53 114t86.5 73.5t125.5 43t173 12.5h12q101 0 173.5 -12t126.5 -42.5t87.5 -74t54 -114.5t28 -155.5t7.5 -204.5v-240q0 -29 -19.5 -49.5t-49.5 -20.5h-643v-110q0 -51 1.5 -84.5t8.5 -73.5t19 -66t34 -52t53 -40t77 -22.5t105 -7.5 q117 2 267 79q29 15 52 15q28 0 42 -32l42 -92q16 -34 16 -53q0 -31 -28 -44q-142 -75 -218 -99.5t-173 -24.5q-265 0 -404.5 145t-143.5 452zM291 1772q4 23 23 36l358 251q20 14 43 9.5t37 -24.5l77 -110q14 -19 11.5 -45.5t-25.5 -34.5l-434 -141q-57 -17 -80 16 q-14 20 -10 43zM350 907h462v101q0 85 -3 138.5t-13.5 95.5t-24 63.5t-42 35t-60 16.5t-84.5 3h-12q-39 0 -64.5 -1.5t-50.5 -8t-39.5 -16.5t-28 -29.5t-20 -43.5t-12 -62.5t-7 -83.5t-1.5 -108v-100z" />
<glyph unicode="&#xea;" horiz-adv-x="1162" d="M100 587v421q0 120 7.5 204t27.5 155t53 114t86.5 73.5t125.5 43t173 12.5h12q101 0 173.5 -12t126.5 -42.5t87.5 -74t54 -114.5t28 -155.5t7.5 -204.5v-240q0 -29 -19.5 -49.5t-49.5 -20.5h-643v-110q0 -51 1.5 -84.5t8.5 -73.5t19 -66t34 -52t53 -40t77 -22.5t105 -7.5 q117 2 267 79q29 15 52 15q28 0 42 -32l42 -92q16 -34 16 -53q0 -31 -28 -44q-142 -75 -218 -99.5t-173 -24.5q-265 0 -404.5 145t-143.5 452zM193.5 1736q-0.5 24 16.5 40l309 309q18 18 40 16q22 2 40 -16l309 -309q17 -16 16.5 -40t-17.5 -41q-29 -29 -81 -1l-267 142 l-267 -142q-52 -28 -81 1q-17 17 -17.5 41zM350 907h462v101q0 85 -3 138.5t-13.5 95.5t-24 63.5t-42 35t-60 16.5t-84.5 3h-12q-39 0 -64.5 -1.5t-50.5 -8t-39.5 -16.5t-28 -29.5t-20 -43.5t-12 -62.5t-7 -83.5t-1.5 -108v-100z" />
<glyph unicode="&#xeb;" horiz-adv-x="1162" d="M100 587v421q0 120 7.5 204t27.5 155t53 114t86.5 73.5t125.5 43t173 12.5h12q101 0 173.5 -12t126.5 -42.5t87.5 -74t54 -114.5t28 -155.5t7.5 -204.5v-240q0 -29 -19.5 -49.5t-49.5 -20.5h-643v-110q0 -51 1.5 -84.5t8.5 -73.5t19 -66t34 -52t53 -40t77 -22.5t105 -7.5 q117 2 267 79q29 15 52 15q28 0 42 -32l42 -92q16 -34 16 -53q0 -31 -28 -44q-142 -75 -218 -99.5t-173 -24.5q-265 0 -404.5 145t-143.5 452zM234 1818v144q0 24 16.5 41t40.5 17h146q24 0 40.5 -17t16.5 -41v-144q0 -24 -16.5 -41t-40.5 -17h-146q-24 0 -40.5 17t-16.5 41 zM350 907h462v101q0 85 -3 138.5t-13.5 95.5t-24 63.5t-42 35t-60 16.5t-84.5 3h-12q-39 0 -64.5 -1.5t-50.5 -8t-39.5 -16.5t-28 -29.5t-20 -43.5t-12 -62.5t-7 -83.5t-1.5 -108v-100zM669 1818v144q0 24 16.5 41t40.5 17h146q24 0 40.5 -17t16.5 -41v-144q0 -24 -16.5 -41 t-40.5 -17h-146q-24 0 -40.5 17t-16.5 41z" />
<glyph unicode="&#xec;" horiz-adv-x="640" d="M14.5 1888.5q-2.5 26.5 11.5 45.5l77 110q14 20 37 24.5t43 -9.5l358 -251q19 -13 23 -36t-10 -43q-23 -33 -80 -16l-434 141q-23 8 -25.5 34.5zM50 58v134q0 24 16.5 41t40.5 17h87v1100h-87q-24 0 -40.5 17t-16.5 41v134q0 24 16.5 41t40.5 17h289q24 0 41 -16.5 t17 -40.5v-1293h79q24 0 40.5 -17t16.5 -41v-134q0 -24 -16.5 -41t-40.5 -17h-426q-24 0 -40.5 17t-16.5 41z" />
<glyph unicode="&#xed;" horiz-adv-x="640" d="M-16 1772q4 23 23 36l358 251q20 14 43 9.5t37 -24.5l77 -110q14 -19 11.5 -45.5t-25.5 -34.5l-434 -141q-57 -17 -80 16q-14 20 -10 43zM50 58v134q0 24 16.5 41t40.5 17h87v1100h-87q-24 0 -40.5 17t-16.5 41v134q0 24 16.5 41t40.5 17h289q24 0 41 -16.5t17 -40.5 v-1293h79q24 0 40.5 -17t16.5 -41v-134q0 -24 -16.5 -41t-40.5 -17h-426q-24 0 -40.5 17t-16.5 41z" />
<glyph unicode="&#xee;" horiz-adv-x="640" d="M-60.5 1736q-0.5 24 16.5 40l309 309q18 18 40 16q22 2 40 -16l309 -309q17 -16 16.5 -40t-17.5 -41q-29 -29 -81 -1l-267 142l-267 -142q-52 -28 -81 1q-17 17 -17.5 41zM50 58v134q0 24 16.5 41t40.5 17h87v1100h-87q-24 0 -40.5 17t-16.5 41v134q0 24 16.5 41t40.5 17 h289q24 0 41 -16.5t17 -40.5v-1293h79q24 0 40.5 -17t16.5 -41v-134q0 -24 -16.5 -41t-40.5 -17h-426q-24 0 -40.5 17t-16.5 41z" />
<glyph unicode="&#xef;" horiz-adv-x="640" d="M-25 1818v144q0 24 16.5 41t40.5 17h146q24 0 40.5 -17t16.5 -41v-144q0 -24 -16.5 -41t-40.5 -17h-146q-24 0 -40.5 17t-16.5 41zM50 58v134q0 24 16.5 41t40.5 17h87v1100h-87q-24 0 -40.5 17t-16.5 41v134q0 24 16.5 41t40.5 17h289q24 0 41 -16.5t17 -40.5v-1293h79 q24 0 40.5 -17t16.5 -41v-134q0 -24 -16.5 -41t-40.5 -17h-426q-24 0 -40.5 17t-16.5 41zM410 1818v144q0 24 16.5 41t40.5 17h146q24 0 40.5 -17t16.5 -41v-144q0 -24 -16.5 -41t-40.5 -17h-146q-24 0 -40.5 17t-16.5 41z" />
<glyph unicode="&#xf0;" horiz-adv-x="1202" d="M100 788q0 175 25 296t77 191.5t122 101t168 30.5h356v229v3l-124 -33q-29 -8 -52.5 6.5t-31.5 43.5l-15 58q-8 28 5.5 53t41.5 32l109 29q-38 22 -99 22h-126q-24 0 -40.5 17t-16.5 41v134q0 24 16.5 41t40.5 17h126q276 0 368 -200l100 27q29 8 52.5 -6.5t31.5 -43.5 l15 -58q8 -28 -5.5 -53t-41.5 -32l-106 -29q2 -46 2 -69v-578l-2 -6l2 5v-989q0 -28 -20.5 -48t-49.5 -20h-120q-29 0 -49.5 20t-20.5 48v77q-97 -81 -175 -118t-156 -37q-103 0 -182.5 61.5t-127.5 171t-72.5 252t-24.5 313.5zM350 787q0 -292 42 -419.5t155 -127.5 q75 0 141.5 48t149.5 141l10 24v704h-375q-74 0 -98.5 -82t-24.5 -288z" />
<glyph unicode="&#xf1;" horiz-adv-x="1176" d="M101 1899q4 22 27 37l34 23q70 47 138.5 69.5t118.5 22.5q42 0 81.5 -16.5t65 -36.5t54.5 -36.5t52 -16.5q30 0 72 27l87 56q19 13 42 9t37 -26l57 -88q14 -20 10 -42t-27 -37l-34 -23q-137 -92 -260 -92q-44 0 -83.5 16.5t-63.5 37t-51.5 37t-49.5 16.5q-31 0 -74 -28 l-87 -56q-19 -13 -42 -9t-37 26l-57 88q-14 20 -10 42zM150 57v1486q0 24 17 40.5t41 16.5h144q24 0 41 -16.5t17 -40.5v-63q157 130 313 130q170 0 249 -126.5t79 -373.5v-1053q0 -24 -17 -40.5t-41 -16.5h-144q-24 0 -41 16.5t-17 40.5v972q0 196 -21 262t-96 66 q-114 0 -264 -158v-1142q0 -24 -17 -40.5t-41 -16.5h-144q-24 0 -41 16.5t-17 40.5z" />
<glyph unicode="&#xf2;" horiz-adv-x="1162" d="M100 608v400q0 120 7.5 204t27.5 155t53 114t86.5 73.5t125.5 43t173 12.5h12q101 0 173.5 -12t126.5 -42.5t87.5 -74t54 -114.5t28 -155.5t7.5 -204.5v-400q0 -120 -7.5 -205.5t-28 -158t-53.5 -118t-86.5 -77t-126 -45t-171.5 -13.5h-16q-100 0 -172 13t-125.5 45 t-87 77.5t-53.5 118t-27.5 158t-7.5 206.5zM278.5 1888.5q-2.5 26.5 11.5 45.5l77 110q14 20 37 24.5t43 -9.5l358 -251q19 -13 23 -36t-10 -43q-23 -33 -80 -16l-434 141q-23 8 -25.5 34.5zM350 607q0 -87 3 -143.5t13.5 -99.5t24.5 -65.5t41.5 -37t58 -18t81.5 -3.5h18 q51 0 81.5 4t58 18t41.5 37t24.5 66t13.5 99.5t3 143.5v400q0 85 -3 138.5t-13.5 95.5t-24 63.5t-42 35t-60 16.5t-84.5 3h-12q-39 0 -64.5 -1.5t-50.5 -8t-39.5 -16.5t-28 -29.5t-20 -43.5t-12 -62.5t-7 -83.5t-1.5 -108v-400z" />
<glyph unicode="&#xf3;" horiz-adv-x="1162" d="M100 608v400q0 120 7.5 204t27.5 155t53 114t86.5 73.5t125.5 43t173 12.5h12q101 0 173.5 -12t126.5 -42.5t87.5 -74t54 -114.5t28 -155.5t7.5 -204.5v-400q0 -120 -7.5 -205.5t-28 -158t-53.5 -118t-86.5 -77t-126 -45t-171.5 -13.5h-16q-100 0 -172 13t-125.5 45 t-87 77.5t-53.5 118t-27.5 158t-7.5 206.5zM285 1772q4 23 23 36l358 251q20 14 43 9.5t37 -24.5l77 -110q14 -19 11.5 -45.5t-25.5 -34.5l-434 -141q-57 -17 -80 16q-14 20 -10 43zM350 607q0 -87 3 -143.5t13.5 -99.5t24.5 -65.5t41.5 -37t58 -18t81.5 -3.5h18 q51 0 81.5 4t58 18t41.5 37t24.5 66t13.5 99.5t3 143.5v400q0 85 -3 138.5t-13.5 95.5t-24 63.5t-42 35t-60 16.5t-84.5 3h-12q-39 0 -64.5 -1.5t-50.5 -8t-39.5 -16.5t-28 -29.5t-20 -43.5t-12 -62.5t-7 -83.5t-1.5 -108v-400z" />
<glyph unicode="&#xf4;" horiz-adv-x="1162" d="M100 608v400q0 120 7.5 204t27.5 155t53 114t86.5 73.5t125.5 43t173 12.5h12q101 0 173.5 -12t126.5 -42.5t87.5 -74t54 -114.5t28 -155.5t7.5 -204.5v-400q0 -120 -7.5 -205.5t-28 -158t-53.5 -118t-86.5 -77t-126 -45t-171.5 -13.5h-16q-100 0 -172 13t-125.5 45 t-87 77.5t-53.5 118t-27.5 158t-7.5 206.5zM189.5 1736q-0.5 24 16.5 40l309 309q18 18 40 16q22 2 40 -16l309 -309q17 -16 16.5 -40t-17.5 -41q-29 -29 -81 -1l-267 142l-267 -142q-52 -28 -81 1q-17 17 -17.5 41zM350 607q0 -87 3 -143.5t13.5 -99.5t24.5 -65.5t41.5 -37 t58 -18t81.5 -3.5h18q51 0 81.5 4t58 18t41.5 37t24.5 66t13.5 99.5t3 143.5v400q0 85 -3 138.5t-13.5 95.5t-24 63.5t-42 35t-60 16.5t-84.5 3h-12q-39 0 -64.5 -1.5t-50.5 -8t-39.5 -16.5t-28 -29.5t-20 -43.5t-12 -62.5t-7 -83.5t-1.5 -108v-400z" />
<glyph unicode="&#xf5;" horiz-adv-x="1162" d="M100 608v400q0 120 7.5 204t27.5 155t53 114t86.5 73.5t125.5 43t173 12.5h12q101 0 173.5 -12t126.5 -42.5t87.5 -74t54 -114.5t28 -155.5t7.5 -204.5v-400q0 -120 -7.5 -205.5t-28 -158t-53.5 -118t-86.5 -77t-126 -45t-171.5 -13.5h-16q-100 0 -172 13t-125.5 45 t-87 77.5t-53.5 118t-27.5 158t-7.5 206.5zM139 1899q4 22 27 37l34 23q70 47 138.5 69.5t118.5 22.5q42 0 81.5 -16.5t65 -36.5t54.5 -36.5t52 -16.5q30 0 72 27l87 56q19 13 42 9t37 -26l57 -88q14 -20 10 -42t-27 -37l-34 -23q-137 -92 -260 -92q-44 0 -83.5 16.5 t-63.5 37t-51.5 37t-49.5 16.5q-31 0 -74 -28l-87 -56q-19 -13 -42 -9t-37 26l-57 88q-14 20 -10 42zM350 607q0 -87 3 -143.5t13.5 -99.5t24.5 -65.5t41.5 -37t58 -18t81.5 -3.5h18q51 0 81.5 4t58 18t41.5 37t24.5 66t13.5 99.5t3 143.5v400q0 85 -3 138.5t-13.5 95.5 t-24 63.5t-42 35t-60 16.5t-84.5 3h-12q-39 0 -64.5 -1.5t-50.5 -8t-39.5 -16.5t-28 -29.5t-20 -43.5t-12 -62.5t-7 -83.5t-1.5 -108v-400z" />
<glyph unicode="&#xf6;" horiz-adv-x="1162" d="M100 608v400q0 120 7.5 204t27.5 155t53 114t86.5 73.5t125.5 43t173 12.5h12q101 0 173.5 -12t126.5 -42.5t87.5 -74t54 -114.5t28 -155.5t7.5 -204.5v-400q0 -120 -7.5 -205.5t-28 -158t-53.5 -118t-86.5 -77t-126 -45t-171.5 -13.5h-16q-100 0 -172 13t-125.5 45 t-87 77.5t-53.5 118t-27.5 158t-7.5 206.5zM209 1818v144q0 24 16.5 41t40.5 17h146q24 0 40.5 -17t16.5 -41v-144q0 -24 -16.5 -41t-40.5 -17h-146q-24 0 -40.5 17t-16.5 41zM350 607q0 -87 3 -143.5t13.5 -99.5t24.5 -65.5t41.5 -37t58 -18t81.5 -3.5h18q51 0 81.5 4 t58 18t41.5 37t24.5 66t13.5 99.5t3 143.5v400q0 85 -3 138.5t-13.5 95.5t-24 63.5t-42 35t-60 16.5t-84.5 3h-12q-39 0 -64.5 -1.5t-50.5 -8t-39.5 -16.5t-28 -29.5t-20 -43.5t-12 -62.5t-7 -83.5t-1.5 -108v-400zM644 1818v144q0 24 16.5 41t40.5 17h146q24 0 40.5 -17 t16.5 -41v-144q0 -24 -16.5 -41t-40.5 -17h-146q-24 0 -40.5 17t-16.5 41z" />
<glyph unicode="&#xf7;" horiz-adv-x="1100" d="M100 533v134q0 24 16.5 41t40.5 17h786q24 0 40.5 -17t16.5 -41v-134q0 -24 -16.5 -41t-40.5 -17h-786q-24 0 -40.5 17t-16.5 41zM420 58v144q0 24 16.5 41t40.5 17h146q24 0 40.5 -17t16.5 -41v-144q0 -24 -16.5 -41t-40.5 -17h-146q-24 0 -40.5 17t-16.5 41zM420 998 v144q0 24 16.5 41t40.5 17h146q24 0 40.5 -17t16.5 -41v-144q0 -24 -16.5 -41t-40.5 -17h-146q-24 0 -40.5 17t-16.5 41z" />
<glyph unicode="&#xf8;" horiz-adv-x="1162" d="M100 608v400q0 120 7.5 204t27.5 155t53 114t86.5 73.5t125.5 43t173 12.5h12q101 0 173.5 -12t126.5 -42.5t87.5 -74t54 -114.5t28 -155.5t7.5 -204.5v-400q0 -120 -7.5 -205.5t-28 -158t-53.5 -118t-86.5 -77t-126 -45t-171.5 -13.5h-16q-100 0 -172 13t-125.5 45 t-87 77.5t-53.5 118t-27.5 158t-7.5 206.5zM350 607q0 -62 1 -89l306 840q-42 2 -72 2h-12q-39 0 -64.5 -1.5t-50.5 -8t-39.5 -16.5t-28 -29.5t-20 -43.5t-12 -62.5t-7 -83.5t-1.5 -108v-400zM527 241q14 -1 45 -1h18q51 0 81.5 4t58 18t41.5 37t24.5 66t13.5 99.5t3 143.5 v400v17z" />
<glyph unicode="&#xf9;" horiz-adv-x="1176" d="M125 490v1053q0 24 17 40.5t41 16.5h144q24 0 41 -16.5t17 -40.5v-972q0 -197 21 -263t96 -66q65 0 126 38.5t138 119.5v1143q0 24 17 40.5t41 16.5h144q24 0 41 -16.5t17 -40.5v-1486q0 -24 -17 -40.5t-41 -16.5h-144q-24 0 -41 16.5t-17 40.5v63q-157 -130 -313 -130 q-170 0 -249 126.5t-79 373.5zM261.5 1888.5q-2.5 26.5 11.5 45.5l77 110q14 20 37 24.5t43 -9.5l358 -251q19 -13 23 -36t-10 -43q-23 -33 -80 -16l-434 141q-23 8 -25.5 34.5z" />
<glyph unicode="&#xfa;" horiz-adv-x="1176" d="M125 490v1053q0 24 17 40.5t41 16.5h144q24 0 41 -16.5t17 -40.5v-972q0 -197 21 -263t96 -66q65 0 126 38.5t138 119.5v1143q0 24 17 40.5t41 16.5h144q24 0 41 -16.5t17 -40.5v-1486q0 -24 -17 -40.5t-41 -16.5h-144q-24 0 -41 16.5t-17 40.5v63q-157 -130 -313 -130 q-170 0 -249 126.5t-79 373.5zM293 1772q4 23 23 36l358 251q20 14 43 9.5t37 -24.5l77 -110q14 -19 11.5 -45.5t-25.5 -34.5l-434 -141q-57 -17 -80 16q-14 20 -10 43z" />
<glyph unicode="&#xfb;" horiz-adv-x="1176" d="M125 490v1053q0 24 17 40.5t41 16.5h144q24 0 41 -16.5t17 -40.5v-972q0 -197 21 -263t96 -66q65 0 126 38.5t138 119.5v1143q0 24 17 40.5t41 16.5h144q24 0 41 -16.5t17 -40.5v-1486q0 -24 -17 -40.5t-41 -16.5h-144q-24 0 -41 16.5t-17 40.5v63q-157 -130 -313 -130 q-170 0 -249 126.5t-79 373.5zM184.5 1736q-0.5 24 16.5 40l309 309q18 18 40 16q22 2 40 -16l309 -309q17 -16 16.5 -40t-17.5 -41q-29 -29 -81 -1l-267 142l-267 -142q-52 -28 -81 1q-17 17 -17.5 41z" />
<glyph unicode="&#xfc;" horiz-adv-x="1176" d="M125 490v1053q0 24 17 40.5t41 16.5h144q24 0 41 -16.5t17 -40.5v-972q0 -197 21 -263t96 -66q65 0 126 38.5t138 119.5v1143q0 24 17 40.5t41 16.5h144q24 0 41 -16.5t17 -40.5v-1486q0 -24 -17 -40.5t-41 -16.5h-144q-24 0 -41 16.5t-17 40.5v63q-157 -130 -313 -130 q-170 0 -249 126.5t-79 373.5zM204 1818v144q0 24 16.5 41t40.5 17h146q24 0 40.5 -17t16.5 -41v-144q0 -24 -16.5 -41t-40.5 -17h-146q-24 0 -40.5 17t-16.5 41zM639 1818v144q0 24 16.5 41t40.5 17h146q24 0 40.5 -17t16.5 -41v-144q0 -24 -16.5 -41t-40.5 -17h-146 q-24 0 -40.5 17t-16.5 41z" />
<glyph unicode="&#xfd;" horiz-adv-x="1149" d="M135 -112q0 28 16 40l218 177l-218 187q-16 14 -16 40v1211q0 24 17 40.5t41 16.5h144q24 0 41 -16.5t17 -40.5v-1126l182 -144l177 144v1126q0 24 17 40.5t41 16.5h144q24 0 41 -16.5t17 -40.5v-1211q0 -26 -16 -40l-603 -508v-127q0 -24 -17 -40.5t-41 -16.5h-144 q-24 0 -41 16.5t-17 40.5v231zM274 1772q4 23 23 36l358 251q20 14 43 9.5t37 -24.5l77 -110q14 -19 11.5 -45.5t-25.5 -34.5l-434 -141q-57 -17 -80 16q-14 20 -10 43z" />
<glyph unicode="&#xfe;" d="M150 -332v2364q0 28 20.5 48t49.5 20h120q29 0 49.5 -20t20.5 -48v-576q183 154 362 154q376 0 376 -777q0 -258 -39 -442.5t-121 -287.5t-202 -103h-376v-332q0 -29 -20.5 -48.5t-49.5 -19.5h-120q-29 0 -49.5 19.5t-20.5 48.5zM410 250h362q29 0 51.5 35t36 90 t22.5 130t12.5 147.5t3.5 149.5q0 558 -175 558q-57 0 -146 -51.5t-167 -148.5v-910z" />
<glyph unicode="&#xff;" horiz-adv-x="1149" d="M135 -112q0 28 16 40l218 177l-218 187q-16 14 -16 40v1211q0 24 17 40.5t41 16.5h144q24 0 41 -16.5t17 -40.5v-1126l182 -144l177 144v1126q0 24 17 40.5t41 16.5h144q24 0 41 -16.5t17 -40.5v-1211q0 -26 -16 -40l-603 -508v-127q0 -24 -17 -40.5t-41 -16.5h-144 q-24 0 -41 16.5t-17 40.5v231zM193 1818v144q0 24 16.5 41t40.5 17h146q24 0 40.5 -17t16.5 -41v-144q0 -24 -16.5 -41t-40.5 -17h-146q-24 0 -40.5 17t-16.5 41zM628 1818v144q0 24 16.5 41t40.5 17h146q24 0 40.5 -17t16.5 -41v-144q0 -24 -16.5 -41t-40.5 -17h-146 q-24 0 -40.5 17t-16.5 41z" />
<glyph unicode="&#x152;" horiz-adv-x="2080" d="M100 787v521q0 113 4.5 199t16.5 167t32 139.5t51.5 109.5t75 84.5t102.5 57.5t134 34.5t170 10.5q205 0 326 -53q5 19 20.5 31t35.5 12h855q24 0 40.5 -17t16.5 -41v-134q0 -24 -16.5 -41t-40.5 -17h-643v-546v-147h489q24 0 40.5 -17t16.5 -41v-134q0 -24 -16.5 -41 t-40.5 -17h-489v-127v-338q0 -83 68.5 -137.5t210.5 -54.5h364q24 0 40.5 -17t16.5 -41v-134q0 -24 -16.5 -41t-40.5 -17h-352q-298 0 -438 128q-131 -138 -442 -138q-108 0 -191 15.5t-145.5 44.5t-106.5 79t-72.5 110t-45 147t-23.5 181t-7 220zM380 787q1 -143 12.5 -238 t32 -155.5t60 -91.5t85.5 -41.5t120 -10.5t120 10.5t85.5 41.5t60 90.5t32 153t12.5 234.5v523q0 122 -6.5 207.5t-23 147.5t-38.5 99t-60.5 58t-81 28t-107.5 7q-52 0 -87.5 -4.5t-70 -18t-56 -38.5t-40.5 -64t-28.5 -98t-15 -137t-5.5 -183v-520z" />
<glyph unicode="&#x153;" horiz-adv-x="1869" d="M100 608v400q0 120 7.5 204t27.5 155t53 114t86.5 73.5t125.5 43t173 12.5h12q250 0 351 -90q101 90 349 90h12q101 0 173.5 -12t126.5 -42.5t87.5 -74t54 -114.5t28 -155.5t7.5 -204.5v-240q0 -29 -19.5 -49.5t-49.5 -20.5h-643v-90v-20q0 -51 1.5 -84.5t8.5 -73.5 t19 -66t34 -52t53 -40t77 -22.5t105 -7.5q117 2 267 79q29 15 52 15q28 0 42 -32l42 -92q16 -34 16 -53q0 -31 -28 -44q-142 -75 -218 -99.5t-173 -24.5q-256 0 -391 131q-52 -69 -143 -100t-237 -31h-16q-100 0 -172 13t-125.5 45t-87 77.5t-53.5 118t-27.5 158t-7.5 206.5 zM350 607q0 -87 3 -143.5t13.5 -99.5t24.5 -65.5t41.5 -37t58 -18t81.5 -3.5h18q51 0 81.5 4t58 18t41.5 37t24.5 66t13.5 99.5t3 143.5v400q0 85 -3 138.5t-13.5 95.5t-24 63.5t-42 35t-60 16.5t-84.5 3h-12q-39 0 -64.5 -1.5t-50.5 -8t-39.5 -16.5t-28 -29.5t-20 -43.5 t-12 -62.5t-7 -83.5t-1.5 -108v-400zM1062 907h462v101q0 85 -3 138.5t-13.5 95.5t-24 63.5t-42 35t-60 16.5t-84.5 3h-12q-39 0 -64.5 -1.5t-50.5 -8t-39.5 -16.5t-28 -29.5t-20 -43.5t-12 -62.5t-7 -83.5t-1.5 -108v-100z" />
<glyph unicode="&#x178;" horiz-adv-x="1338" d="M130 1191v852q0 24 17 40.5t41 16.5h154q24 0 41 -16.5t17 -40.5v-717l269 -169l269 169v717q0 24 17 40.5t41 16.5h154q24 0 41 -16.5t17 -40.5v-852q0 -30 -16 -40l-389 -244v-850q0 -24 -17 -40.5t-41 -16.5h-154q-24 0 -41 16.5t-17 40.5v851l-387 243q-16 10 -16 40 zM292 2233v144q0 24 16.5 41t40.5 17h146q24 0 40.5 -17t16.5 -41v-144q0 -24 -16.5 -41t-40.5 -17h-146q-24 0 -40.5 17t-16.5 41zM727 2233v144q0 24 16.5 41t40.5 17h146q24 0 40.5 -17t16.5 -41v-144q0 -24 -16.5 -41t-40.5 -17h-146q-24 0 -40.5 17t-16.5 41z" />
<glyph unicode="&#x2c6;" horiz-adv-x="930" d="M99.5 1736q-0.5 24 16.5 40l309 309q18 18 40 16q22 2 40 -16l309 -309q17 -16 16.5 -40t-17.5 -41q-29 -29 -81 -1l-267 142l-267 -142q-52 -28 -81 1q-17 17 -17.5 41z" />
<glyph unicode="&#x2dc;" horiz-adv-x="1078" d="M101 1899q4 22 27 37l34 23q70 47 138.5 69.5t118.5 22.5q42 0 81.5 -16.5t65 -36.5t54.5 -36.5t52 -16.5q30 0 72 27l87 56q19 13 42 9t37 -26l57 -88q14 -20 10 -42t-27 -37l-34 -23q-137 -92 -260 -92q-44 0 -83.5 16.5t-63.5 37t-51.5 37t-49.5 16.5q-31 0 -74 -28 l-87 -56q-19 -13 -42 -9t-37 26l-57 88q-14 20 -10 42z" />
<glyph unicode="&#x2000;" horiz-adv-x="1273" />
<glyph unicode="&#x2001;" horiz-adv-x="2546" />
<glyph unicode="&#x2002;" horiz-adv-x="1273" />
<glyph unicode="&#x2003;" horiz-adv-x="2546" />
<glyph unicode="&#x2004;" horiz-adv-x="848" />
<glyph unicode="&#x2005;" horiz-adv-x="636" />
<glyph unicode="&#x2006;" horiz-adv-x="424" />
<glyph unicode="&#x2007;" horiz-adv-x="424" />
<glyph unicode="&#x2008;" horiz-adv-x="318" />
<glyph unicode="&#x2009;" horiz-adv-x="509" />
<glyph unicode="&#x200a;" horiz-adv-x="141" />
<glyph unicode="&#x2010;" horiz-adv-x="750" d="M100 965v134q0 24 16.5 41t40.5 17h436q24 0 40.5 -17t16.5 -41v-134q0 -24 -16.5 -41t-40.5 -17h-436q-24 0 -40.5 17t-16.5 41z" />
<glyph unicode="&#x2011;" horiz-adv-x="750" d="M100 965v134q0 24 16.5 41t40.5 17h436q24 0 40.5 -17t16.5 -41v-134q0 -24 -16.5 -41t-40.5 -17h-436q-24 0 -40.5 17t-16.5 41z" />
<glyph unicode="&#x2012;" horiz-adv-x="750" d="M100 965v134q0 24 16.5 41t40.5 17h436q24 0 40.5 -17t16.5 -41v-134q0 -24 -16.5 -41t-40.5 -17h-436q-24 0 -40.5 17t-16.5 41z" />
<glyph unicode="&#x2013;" horiz-adv-x="1293" d="M100 965v134q0 24 16.5 41t40.5 17h979q24 0 40.5 -17t16.5 -41v-134q0 -24 -16.5 -41t-40.5 -17h-979q-24 0 -40.5 17t-16.5 41z" />
<glyph unicode="&#x2014;" horiz-adv-x="1990" d="M100 965v134q0 24 16.5 41t40.5 17h1676q24 0 40.5 -17t16.5 -41v-134q0 -24 -16.5 -41t-40.5 -17h-1676q-24 0 -40.5 17t-16.5 41z" />
<glyph unicode="&#x2018;" horiz-adv-x="560" d="M150 1648v394q0 24 16.5 41t40.5 17h32q24 0 40.5 -17t16.5 -41v-144q0 -24 16.5 -41t40.5 -17t40.5 -17t16.5 -41v-134q0 -24 -16.5 -41t-40.5 -17h-146q-24 0 -40.5 17t-16.5 41z" />
<glyph unicode="&#x2019;" horiz-adv-x="560" d="M150 1908v134q0 24 16.5 41t40.5 17h146q24 0 40.5 -17t16.5 -41v-394q0 -24 -16.5 -41t-40.5 -17h-32q-24 0 -40.5 17t-16.5 41v144q0 24 -16.5 41t-40.5 17t-40.5 17t-16.5 41z" />
<glyph unicode="&#x201a;" horiz-adv-x="460" d="M150 58v134q0 24 16.5 41t40.5 17h146q24 0 40.5 -17t16.5 -41v-394q0 -24 -16.5 -41t-40.5 -17h-32q-24 0 -40.5 17t-16.5 41v144q0 24 -16.5 41t-40.5 17t-40.5 17t-16.5 41z" />
<glyph unicode="&#x201c;" horiz-adv-x="970" d="M150 1648v394q0 24 16.5 41t40.5 17h32q24 0 40.5 -17t16.5 -41v-144q0 -24 16.5 -41t40.5 -17t40.5 -17t16.5 -41v-134q0 -24 -16.5 -41t-40.5 -17h-146q-24 0 -40.5 17t-16.5 41zM560 1648v394q0 24 16.5 41t40.5 17h32q24 0 40.5 -17t16.5 -41v-144q0 -24 16.5 -41 t40.5 -17t40.5 -17t16.5 -41v-134q0 -24 -16.5 -41t-40.5 -17h-146q-24 0 -40.5 17t-16.5 41z" />
<glyph unicode="&#x201d;" horiz-adv-x="970" d="M150 1908v134q0 24 16.5 41t40.5 17h146q24 0 40.5 -17t16.5 -41v-394q0 -24 -16.5 -41t-40.5 -17h-32q-24 0 -40.5 17t-16.5 41v144q0 24 -16.5 41t-40.5 17t-40.5 17t-16.5 41zM560 1908v134q0 24 16.5 41t40.5 17h146q24 0 40.5 -17t16.5 -41v-394q0 -24 -16.5 -41 t-40.5 -17h-32q-24 0 -40.5 17t-16.5 41v144q0 24 -16.5 41t-40.5 17t-40.5 17t-16.5 41z" />
<glyph unicode="&#x201e;" horiz-adv-x="560" d="M150 58v134q0 24 16.5 41t40.5 17h146q24 0 40.5 -17t16.5 -41v-394q0 -24 -16.5 -41t-40.5 -17h-32q-24 0 -40.5 17t-16.5 41v144q0 24 -16.5 41t-40.5 17t-40.5 17t-16.5 41z" />
<glyph unicode="&#x2022;" horiz-adv-x="827" d="M100 621q0 130 91.5 222t221.5 92t222 -92t92 -222t-92 -221.5t-222 -91.5t-221.5 91.5t-91.5 221.5z" />
<glyph unicode="&#x2026;" horiz-adv-x="1600" d="M200 58v144q0 24 16.5 41t40.5 17h146q24 0 40.5 -17t16.5 -41v-144q0 -24 -16.5 -41t-40.5 -17h-146q-24 0 -40.5 17t-16.5 41zM720 58v144q0 24 16.5 41t40.5 17h146q24 0 40.5 -17t16.5 -41v-144q0 -24 -16.5 -41t-40.5 -17h-146q-24 0 -40.5 17t-16.5 41zM1240 58 v144q0 24 16.5 41t40.5 17h146q24 0 40.5 -17t16.5 -41v-144q0 -24 -16.5 -41t-40.5 -17h-146q-24 0 -40.5 17t-16.5 41z" />
<glyph unicode="&#x202f;" horiz-adv-x="509" />
<glyph unicode="&#x2039;" horiz-adv-x="744" d="M100 955q0 19 12 35l315 403q15 19 38.5 21.5t42.5 -12.5l113 -89q19 -15 22.5 -37.5t-11.5 -42.5l-217 -278l217 -278q15 -20 11.5 -42.5t-22.5 -37.5l-113 -89q-19 -15 -42.5 -12.5t-38.5 21.5l-315 403q-12 16 -12 35z" />
<glyph unicode="&#x203a;" horiz-adv-x="744" d="M100.5 634.5q-3.5 22.5 11.5 42.5l217 278l-217 278q-15 20 -11.5 42.5t22.5 37.5l113 89q19 15 42.5 12.5t38.5 -21.5l315 -403q12 -16 12 -35t-12 -35l-315 -403q-15 -19 -38.5 -21.5t-42.5 12.5l-113 89q-19 15 -22.5 37.5z" />
<glyph unicode="&#x205f;" horiz-adv-x="636" />
<glyph unicode="&#x20ac;" horiz-adv-x="1222" d="M50 600v60q0 30 19 50t49 20h122v140h-122q-30 0 -49 20t-19 50v60q0 30 19 50t49 20h122v83q0 74 12 136t43 121t79 100t125 65.5t177 24.5h399q24 0 40.5 -17t16.5 -41v-134q0 -24 -16.5 -41t-40.5 -17h-399q-46 0 -78.5 -11.5t-49.5 -27t-25.5 -44.5t-10.5 -52t-2 -62 v-83h336q30 0 49 -20t19 -50v-60q0 -30 -19 -50t-49 -20h-336v-140h336q30 0 49 -20t19 -50v-60q0 -30 -19 -50t-49 -20h-336v-66q0 -32 1.5 -53t6 -49t15.5 -45t28.5 -34t46.5 -25t68 -8h399q24 0 40.5 -17t16.5 -41v-134q0 -24 -16.5 -41t-40.5 -17h-399q-100 0 -177 26.5 t-125 69.5t-79 104.5t-43 125.5t-12 138v66h-122q-30 0 -49 20t-19 50z" />
<glyph unicode="&#x2122;" horiz-adv-x="2058" d="M60 1408v134q0 24 16.5 41t40.5 17h670q24 0 40.5 -17t16.5 -41v-134q0 -24 -16.5 -41t-40.5 -17h-200v-388q0 -24 -17 -40.5t-41 -16.5h-154q-24 0 -41 16.5t-17 40.5v388h-200q-24 0 -40.5 17t-16.5 41zM917 962v581q0 24 17 40.5t41 16.5h146q26 3 44 -12q9 -7 13 -14 l234 -279l239 285q19 25 52 20h147q24 0 41 -16.5t17 -40.5v-581q0 -24 -17 -40.5t-41 -16.5h-154q-24 0 -41 16.5t-17 40.5v182l-183 -218l-4 -4l-1 -2q-4 -4 -10 -7q-14 -8 -28 -8t-28 8q-6 3 -10 7l-1 2l-4 4l-182 217v-181q0 -24 -17 -40.5t-41 -16.5h-154 q-24 0 -41 16.5t-17 40.5z" />
<glyph unicode="&#x25fc;" horiz-adv-x="1600" d="M0 0v1600h1600v-1600h-1600z" />
<glyph unicode="&#xfb01;" horiz-adv-x="1314" d="M50 1408v134q0 24 16.5 41t40.5 17h79v52q0 133 22.5 222.5t67.5 138t101 68t134 19.5h535q24 0 40.5 -17t16.5 -41v-134q0 -24 -16.5 -41t-40.5 -17h-485q-67 0 -91 -57t-24 -193h599q24 0 41 -16.5t17 -40.5v-1293h79q24 0 40.5 -17t16.5 -41v-134q0 -24 -16.5 -41 t-40.5 -17h-426q-24 0 -40.5 17t-16.5 41v134q0 24 16.5 41t40.5 17h87v1100h-397v-1293q0 -24 -17 -40.5t-41 -16.5h-144q-24 0 -41 16.5t-17 40.5v1293h-79q-24 0 -40.5 17t-16.5 41z" />
<glyph unicode="&#xfb02;" horiz-adv-x="1294" d="M50 1408v134q0 24 16.5 41t40.5 17h79v52q0 133 22.5 222.5t67.5 138t101 68t134 19.5h539q24 0 41 -16.5t17 -40.5v-1793h79q24 0 40.5 -17t16.5 -41v-134q0 -24 -16.5 -41t-40.5 -17h-293v1q-20 4 -33 19.5t-13 36.5v1793h-287q-67 0 -91 -57t-24 -193h152 q24 0 40.5 -17t16.5 -41v-134q0 -24 -16.5 -41t-40.5 -17h-152v-1293q0 -24 -17 -40.5t-41 -16.5h-144q-24 0 -41 16.5t-17 40.5v1293h-79q-24 0 -40.5 17t-16.5 41z" />
</font>
</defs>
</svg>
